<svg xmlns="http://www.w3.org/2000/svg" viewBox="0 0 96 96"><path d="M96,48A48,48,0,1,1,48,0,48,48,0,0,1,96,48ZM34.4,67.1H25.08c-1.95,0-2.92,0-3.51-.38a2.32,2.32,0,0,1-1.07-1.85c0-.69.44-1.54,1.41-3.24l23-40.54c1-1.72,1.48-2.58,2.1-2.9a2.39,2.39,0,0,1,2.15,0c.62.32,1.12,1.18,2.1,2.9L56,29.34l0,0a15.75,15.75,0,0,1,1.83,3.77,7.27,7.27,0,0,1,0,3.28A15.93,15.93,0,0,1,56,40.24L43.91,61.59l0,.06a15.13,15.13,0,0,1-2.35,3.52,7,7,0,0,1-2.86,1.66A17,17,0,0,1,34.4,67.1Zm23.52,0H71.27c2,0,3,0,3.55-.39a2.33,2.33,0,0,0,1.07-1.86c0-.67-.44-1.49-1.36-3.09l-.1-.16L67.75,50.16,67.67,50c-.94-1.59-1.41-2.39-2-2.7a2.37,2.37,0,0,0-2.14,0c-.61.32-1.11,1.15-2.09,2.84L54.76,61.61l0,0c-1,1.68-1.46,2.52-1.43,3.21a2.38,2.38,0,0,0,1.08,1.86C55,67.1,56,67.1,57.92,67.1Z" style="fill:#e84142;fill-rule:evenodd"/></svg>