<svg xmlns="http://www.w3.org/2000/svg" viewBox="0 0 96 96"><circle cx="48" cy="48" r="48" style="fill:#ff8300"/><path d="M64.62,18.16a46.53,46.53,0,0,0-5.09,6L59.05,24a34.62,34.62,0,0,0-8.53-1.65c-.87-.07-4.12-.07-5.18,0a30.18,30.18,0,0,0-8.45,1.66l-.31.11a45.23,45.23,0,0,0-5.25-6,36.51,36.51,0,0,1,29.8-1.58c1,.39,2,.85,3,1.34Z" style="fill:#f00500"/><path d="M81.9,60.49a35,35,0,0,1-6.25,11,39.51,39.51,0,0,1-4.89,4.79,36.13,36.13,0,0,1-14.1,7,37,37,0,0,1-17.32,0,36.06,36.06,0,0,1-14.1-7,39.51,39.51,0,0,1-4.89-4.79A34.48,34.48,0,0,1,14.1,37.88,36.41,36.41,0,0,1,17,31.74c.52-.89,1.17-1.9,1.48-2.31,1.08,4.61,2.39,8.66,2.88,10.12a1.42,1.42,0,0,1-.12.25,40.37,40.37,0,0,0-4.34,15.75c0,.06,0,.14,0,.21a9.62,9.62,0,0,0,.22,3.4c.84,3.18,3.42,6.69,7.46,10.13C31.14,74.91,40.11,79,46.91,79.44c7.08.48,17.54-3.66,24.51-9.71a35.92,35.92,0,0,0,3.08-3.09,16.61,16.61,0,0,0,1.64-2.19s0,0,0,0,.07-.06,0-.08,0,0,0-.06.06,0,0,0,0,0,0-.06,0,0,0-.06,0,0,0,0,0,0,0-.06a.05.05,0,0,1,.05-.05,0,0,0,0,0,0,0,1.1,1.1,0,0,1,.15-.25c.16-.26.83-1.45.92-1.65a15.33,15.33,0,0,0,1.23-4,11.82,11.82,0,0,0,.1-2s0-.12,0-.25,0-.55-.06-.89c0-.5-.06-1.2-.1-1.55a32.62,32.62,0,0,0-4.23-13.59,3.51,3.51,0,0,1-.24-.47.44.44,0,0,1,0-.09h0c.35-1,1.76-5.38,2.89-10.35l0,0,.17.23c.29.39,1.06,1.55,1.41,2.11A34.29,34.29,0,0,1,81.9,60.49Z" style="fill:#f00500"/><path d="M67.41,47.15a3.73,3.73,0,0,1-1.08,1.11,18.92,18.92,0,0,1-7.1,2.68,8.79,8.79,0,0,1-3.67.1c-.32-.16-.36-.28-.25-.68a5.44,5.44,0,0,1,2.18-2.62c.6-.43,3-1.92,4.18-2.54a15,15,0,0,1,4.42-1.79,2.54,2.54,0,0,1,.84,0c.2.08.42.67.51,1.39A16.6,16.6,0,0,1,67.41,47.15Z"/><path d="M41.11,50.85a1.18,1.18,0,0,1-.78.33,13,13,0,0,1-2.2,0,23.12,23.12,0,0,1-6.7-1.94,8.18,8.18,0,0,1-2.31-1.55l-.32-.32,0-.42a11.33,11.33,0,0,1,0-2.31,3.08,3.08,0,0,1,.35-1c.09-.11.09-.11.49-.11a4.83,4.83,0,0,1,1.57.29,30.72,30.72,0,0,1,5.91,2.95c2,1.23,2.82,1.83,3.41,2.65A2.21,2.21,0,0,1,41.11,50.85Z"/><path d="M56.92,66.38s-.14.57-.3,1.21-.3,1.15-.3,1.17a2.2,2.2,0,0,1-.36,0H55.6l-.49,1.16-.55,1.32-.06.16L54.26,71,54,70.65V67.56l-.09,0c-.19,0-1.54.22-2.13.28a30.56,30.56,0,0,1-7.34-.16,6.64,6.64,0,0,0-.73-.09s0,.73,0,1.61l0,1.58-.19.29c-.1.16-.2.29-.2.3s-.14-.14-.4-.65a7.89,7.89,0,0,1-.63-1.7l-.07-.32-.35,0-.35,0-.08-.41c-.05-.22-.1-.57-.13-.76l0-.36L41.07,67l-.37-.32a.22.22,0,0,1-.08-.19v-.13h2.79l.05.15,0,.14.48,0c.27,0,1.12,0,1.88.06l1.39,0,.36-.55.37-.56h.47V64.5l0-1.16-.61-.27c-2-.87-3.14-1.87-3.57-3.07a4.25,4.25,0,0,1-.11-1.45,4.88,4.88,0,0,1,.06-1.45A1.63,1.63,0,0,1,45.34,56a24.88,24.88,0,0,1,3.33-.06h3.1l.35.17a2,2,0,0,1,.84.66,1.9,1.9,0,0,1,.34,1.32,9.75,9.75,0,0,1-.17,2.14,4.39,4.39,0,0,1-.64,1.28A6,6,0,0,1,50,63.24l-.27.1v2.34l.25,0,.24,0,.34.51.32.5h1.5c.82,0,1.55,0,1.61,0s.14,0,.25-.18l.13-.2h1.29A4.51,4.51,0,0,1,56.92,66.38Z"/><path d="M51,69.59c-.21.12-.35.18-.39.15a3.8,3.8,0,0,1-.35-.27l-.3-.24-.32.33c-.68.74-.7.77-.9.79s-.38,0-.76-.6l-.36-.53-.31,0-.31,0-.15.3-.14.3-.26-.07a6.07,6.07,0,0,1-.59-.24l-.34-.17v-.63h5.94V69C51.5,69.32,51.52,69.31,51,69.59Z"/><path d="M78.93,56s0-.12,0-.25a23.77,23.77,0,0,0-17.43,5.4s-2.29-10.5-13-10.5-14.69,10.5-14.69,10.5c-6-6.47-14-6-16.94-5.57,0,.06,0,.14,0,.21a9.62,9.62,0,0,0,.22,3.4c.84,3.18,3.42,6.69,7.46,10.13C31.14,74.91,40.11,79,46.91,79.44c7.08.48,17.54-3.66,24.51-9.71a35.92,35.92,0,0,0,3.08-3.09,16.61,16.61,0,0,0,1.64-2.19s0,0,0,0,.07-.06,0-.08,0,0,0-.06.06,0,0,0,0,0,0-.06,0,0,0-.06,0,0,0,0,0,0,0-.06a.05.05,0,0,1,.05-.05,0,0,0,0,0,0,0,1.1,1.1,0,0,1,.15-.25c.16-.26.83-1.45.92-1.65a15.33,15.33,0,0,0,1.23-4A13.83,13.83,0,0,0,78.93,56ZM51,69.59c-.21.12-.35.18-.39.15a3.8,3.8,0,0,1-.35-.27l-.3-.24-.32.33c-.68.74-.7.77-.9.79s-.38,0-.76-.6l-.36-.53-.31,0-.31,0-.15.3-.14.3-.26-.07a6.07,6.07,0,0,1-.59-.24l-.34-.17v-.63h5.94V69C51.5,69.32,51.52,69.31,51,69.59Zm5.59-2c-.17.63-.31,1.15-.31,1.17a2,2,0,0,1-.35,0h-.36l-.48,1.17-.55,1.32-.06.16L54.26,71,54,70.65V67.56l-.09,0c-.19,0-1.54.22-2.13.28a30.56,30.56,0,0,1-7.34-.16,6.64,6.64,0,0,0-.73-.09s0,.73,0,1.61l0,1.58-.19.29c-.1.16-.2.29-.2.3s-.14-.14-.4-.65a7.89,7.89,0,0,1-.63-1.7l-.07-.32-.35,0-.35,0-.08-.41c-.05-.22-.1-.57-.13-.76l0-.36L41.07,67l-.37-.32a.22.22,0,0,1-.08-.19v-.13h2.79l.05.15,0,.14.48,0c.27,0,1.12,0,1.88.06l1.39,0,.36-.55.37-.56h.47V64.5l0-1.16-.61-.27c-2-.87-3.14-1.87-3.57-3.07a4.25,4.25,0,0,1-.11-1.45,4.88,4.88,0,0,1,.06-1.45A1.63,1.63,0,0,1,45.34,56a24.88,24.88,0,0,1,3.33-.06h3.1l.35.17a2,2,0,0,1,.84.66,1.9,1.9,0,0,1,.34,1.32,9.75,9.75,0,0,1-.17,2.14,4.39,4.39,0,0,1-.64,1.28A6,6,0,0,1,50,63.24l-.27.1v2.34l.25,0,.24,0,.34.51.32.5h1.5c.82,0,1.55,0,1.61,0s.14,0,.25-.18l.13-.2h1.29a4.66,4.66,0,0,1,1.28,0A7.39,7.39,0,0,0,56.61,67.58Z" style="fill:#fff"/><path d="M16.83,55.55a10.35,10.35,0,0,0-1.12.21" style="fill:none"/><path d="M79.9,55.87s-.36-.08-1-.15" style="fill:none"/><path d="M78.84,54.83c0-.5-.07-1.2-.1-1.55a32.76,32.76,0,0,0-4.23-13.59c-.1-.17-.19-.34-.25-.47l0-.09h0c.34-1,1.76-5.38,2.89-10.35,1.53-6.74,2.5-14.62-.47-17,0,0-5.13-.38-12,6.37a46.53,46.53,0,0,0-5.09,6L59.06,24a34.62,34.62,0,0,0-8.53-1.65c-.87-.07-4.11-.07-5.17,0a30,30,0,0,0-8.45,1.66l-.32.11a45.23,45.23,0,0,0-5.25-6c-7.16-6.78-12.48-6.39-12.48-6.39-3.15,2.45-2.08,10.68-.45,17.65,1.07,4.61,2.39,8.66,2.88,10.12,0,.08-.08.17-.12.25a40.37,40.37,0,0,0-4.34,15.75c2.91-.43,10.93-.91,17,5.57,0,0,4-10.5,14.69-10.5s13,10.5,13,10.5a23.85,23.85,0,0,1,17.42-5.4C78.88,55.5,78.86,55.17,78.84,54.83ZM23.4,35.34S19.23,24.91,20.3,19h0a5.7,5.7,0,0,1,1-2.56s4.73.47,12.36,9a22.4,22.4,0,0,0-3.39,2.2h0a27,27,0,0,0-6.89,7.79ZM41.11,50.85a1.18,1.18,0,0,1-.78.33,13,13,0,0,1-2.2,0,23.12,23.12,0,0,1-6.7-1.94,8.18,8.18,0,0,1-2.31-1.55l-.32-.32,0-.42a11.33,11.33,0,0,1,0-2.31,3.08,3.08,0,0,1,.35-1c.09-.11.09-.11.49-.11a4.83,4.83,0,0,1,1.57.29,30.72,30.72,0,0,1,5.91,2.95c2,1.23,2.82,1.83,3.41,2.65A2.21,2.21,0,0,1,41.11,50.85Zm26.3-3.7a3.73,3.73,0,0,1-1.08,1.11,18.92,18.92,0,0,1-7.1,2.68,8.79,8.79,0,0,1-3.67.1c-.32-.16-.36-.28-.25-.68a5.44,5.44,0,0,1,2.18-2.62c.6-.43,3-1.92,4.18-2.54a15,15,0,0,1,4.42-1.79,2.54,2.54,0,0,1,.84,0c.2.08.42.67.51,1.39A16.6,16.6,0,0,1,67.41,47.15ZM65.56,27.54h0a21.18,21.18,0,0,0-3.28-2.2c7.38-8.48,12-8.95,12-8.95a6.08,6.08,0,0,1,1,2.56h0c1,6-3,16.4-3,16.4a26.78,26.78,0,0,0-6.65-7.8Z" style="fill:#ffa409"/><path d="M59.53,24.19a.24.24,0,0,1-.06.08" style="fill:none"/><path d="M74.21,39.12a2,2,0,0,0-.08.23" style="fill:none"/><path d="M75.21,18.94c-.87-.11-5-.14-9.65,8.6h0a21.18,21.18,0,0,0-3.28-2.2c7.38-8.48,12-8.95,12-8.95A6,6,0,0,1,75.21,18.94Z" style="fill:#ff9300"/><path d="M72.22,35.34a26.68,26.68,0,0,0-6.66-7.8c4.66-8.74,8.77-8.71,9.65-8.6h0C76.25,24.91,72.22,35.34,72.22,35.34Z" style="fill:#ff8300"/><path d="M75.38,19l-.17,0Z" style="fill:#ff8300"/><path d="M36.93,24.63c-.11-.16-.24-.31-.35-.47" style="fill:none"/><path d="M21.29,39.55c.12.38.2.58.2.58" style="fill:none"/><path d="M33.7,25.33a22.4,22.4,0,0,0-3.39,2.2h0c-4.84-8.75-9.09-8.71-10-8.6a5.81,5.81,0,0,1,1-2.56S26.07,16.85,33.7,25.33Z" style="fill:#ff9300"/><path d="M30.3,27.54a26.9,26.9,0,0,0-6.9,7.8s-4.17-10.43-3.1-16.4h0C21.2,18.83,25.47,18.8,30.3,27.54Z" style="fill:#ff8300"/><path d="M20.3,18.94l-.18,0Z" style="fill:#ff8300"/><path d="M60.92,41.14s-3.57.22-3.12-2.57a3.68,3.68,0,0,1,4-3c.78.11,3.9,1.22,3.35,3.57s-1.34,1.89-1.79,2A18,18,0,0,1,60.92,41.14Z" style="fill:#fff"/><path d="M34.58,41.14s-3.57.22-3.12-2.57a3.68,3.68,0,0,1,4-3c.78.11,3.9,1.22,3.35,3.57S37.49,41,37,41.14A18,18,0,0,1,34.58,41.14Z" style="fill:#fff"/></svg>