<?xml version="1.0" encoding="utf-8"?>
<!-- Generator: Adobe Illustrator 26.0.1, SVG Export Plug-In . SVG Version: 6.00 Build 0)  -->
<!DOCTYPE svg PUBLIC "-//W3C//DTD SVG 1.1//EN" "http://www.w3.org/Graphics/SVG/1.1/DTD/svg11.dtd" [
	<!ENTITY ns_extend "http://ns.adobe.com/Extensibility/1.0/">
	<!ENTITY ns_ai "http://ns.adobe.com/AdobeIllustrator/10.0/">
	<!ENTITY ns_graphs "http://ns.adobe.com/Graphs/1.0/">
	<!ENTITY ns_vars "http://ns.adobe.com/Variables/1.0/">
	<!ENTITY ns_imrep "http://ns.adobe.com/ImageReplacement/1.0/">
	<!ENTITY ns_sfw "http://ns.adobe.com/SaveForWeb/1.0/">
	<!ENTITY ns_custom "http://ns.adobe.com/GenericCustomNamespace/1.0/">
	<!ENTITY ns_adobe_xpath "http://ns.adobe.com/XPath/1.0/">
]>
<svg version="1.1" id="Layer_1" xmlns:x="&ns_extend;" xmlns:i="&ns_ai;" xmlns:graph="&ns_graphs;"
	 xmlns="http://www.w3.org/2000/svg" xmlns:xlink="http://www.w3.org/1999/xlink" x="0px" y="0px" viewBox="0 0 96 96"
	 style="enable-background:new 0 0 96 96;" xml:space="preserve">
<style type="text/css">
	.st0{fill:#F2F2F2;}
	.st1{fill:#3AB83A;}
	.st2{fill:#0B8311;}
	.st3{fill:#146714;}
</style>
<metadata>
	<sfw  xmlns="&ns_sfw;">
		<slices></slices>
		<sliceSourceBounds  bottomLeftOrigin="true" height="94" width="94" x="0.6" y="1"></sliceSourceBounds>
	</sfw>
</metadata>
<circle class="st0" cx="47.6" cy="48" r="47"/>
<g id="Layer_2_00000106116151692743216930000009316073457346389682_">
	<g id="svg8">
		<g id="layer5">
			<g id="g1627">
				<path id="path1599" class="st1" d="M26.2,49.5c7.5,4,15.4,8.2,21.5,11.4L69,49.5c-7.7,11.5-14.1,21-21.3,31.6
					C40.5,70.5,32.5,58.9,26.2,49.5z M27,46.3l20.7-11l20.4,11L47.7,57.3L27,46.3z M47.6,31.7L26.2,43l21.4-31.3L69,43.1L47.6,31.7z
					"/>
				<path id="path1593" class="st2" d="M47.6,60.9L69,49.5C61.2,60.9,47.6,81,47.6,81V60.9z M47.7,35.3l20.4,11L47.7,57.3L47.7,35.3
					z M47.6,31.7l-0.1-20L69,43.1L47.6,31.7z"/>
				<path id="path1603" class="st2" d="M27,46.3L47.7,48l20.4-1.8L47.7,57.3L27,46.3z"/>
				<path id="path1606" class="st3" d="M47.7,48l20.4-1.8L47.7,57.3L47.7,48z"/>
			</g>
		</g>
	</g>
</g>
</svg>
