<svg xmlns="http://www.w3.org/2000/svg" viewBox="0 0 88.01 88.01"><circle cx="44" cy="44" r="44" fill="#00ef8b"/><rect x="50.87" y="37.14" width="12.41" height="12.41" fill="#fff"/><path d="M42.46,58.21a4.67,4.67,0,1,1-4.67-4.67h4.67V41.14H37.79A17.07,17.07,0,1,0,54.86,58.21h0V53.54H42.46Z" transform="translate(-4 -4)" fill="#fff"/><path d="M59.53,34.89h14V22.48h-14A17.08,17.08,0,0,0,42.46,39.55v1.59h12.4V39.55A4.7,4.7,0,0,1,59.53,34.89Z" transform="translate(-4 -4)" fill="#fff"/><polygon points="50.87 37.14 50.87 37.14 38.46 37.14 38.46 49.55 50.87 49.55 50.87 37.14" fill="#16ff99"/></svg>