<svg xmlns="http://www.w3.org/2000/svg" viewBox="0 0 96 96"><circle cx="48" cy="48" r="48" style="fill:#1d2327"/><path d="M26.6,67.56l-3.66-5.72-3.73,5.72H17.72l4.72-7.1h1l4.69,7.1Z" style="fill:#fff"/><path d="M35,67.56l-2.65-3.14H30.09v3.14H28.77v-7.1h1.32v2.89h2.25L35,60.46H36.6l-3.16,3.31,3.15,3.79Z" style="fill:#fff"/><path d="M45.56,67.56,41.9,61.84l-3.72,5.72h-1.5l4.72-7.1h1l4.69,7.1Z" style="fill:#fff"/><path d="M47.35,67.56V66.49h6.13c.6,0,.88-.24.88-.66v-.91c0-.43-.28-.66-.88-.66H49.39c-1.6,0-2.21-.69-2.21-1.7v-.4c0-1,.61-1.7,2.21-1.7h6v1.07h-6c-.6,0-.88.24-.88.66v.43c0,.42.28.65.88.65h4.09c1.6,0,2.21.69,2.21,1.71v.87c0,1-.61,1.71-2.21,1.71Z" style="fill:#fff"/><path d="M63.94,67.56V64.34H58.16v3.22H56.84v-7.1h1.32v2.81h5.78V60.46h1.32v7.1Z" style="fill:#fff"/><path d="M66.67,67.56v-7.1H68v7.1Z" style="fill:#fff"/><path d="M71.45,67.56c-1.61,0-2.23-.69-2.23-1.71V62.18c0-1,.62-1.72,2.23-1.72h5.7v1.07H71.43c-.6,0-.88.23-.88.65v3.66c0,.42.28.65.88.65h5.72v1.07Z" style="fill:#fff"/><path d="M68.52,57.08,47.57,24.36,26.28,57.08H17.74l27-40.62h5.59L77.17,57.08Z" style="fill:#fff"/><polygon points="29.25 30.25 47.65 43.37 80.28 14.58 47.65 55.65 29.25 30.25" style="fill:#f90;fill-rule:evenodd"/><path d="M18.45,72.52v.9H18V71h2c.56,0,.77.24.77.6v.36c0,.36-.21.61-.77.61Zm1.82-.93c0-.15-.1-.23-.3-.23H18.45v.83H20c.2,0,.3-.09.3-.23Z" style="fill:#f90"/><path d="M28.33,73.42l-.58-1.07H26.46v1.07H26V71h2.11c.57,0,.78.24.78.59v.23c0,.31-.17.53-.61.57l.58,1.08Zm0-1.91c0-.15-.1-.23-.31-.23H26.46v.66h1.59c.21,0,.31-.09.31-.24Z" style="fill:#f90"/><path d="M34.82,73.42c-.56,0-.77-.24-.77-.59V71.54c0-.35.21-.59.77-.59h1.61c.55,0,.76.24.76.59v1.29c0,.35-.21.59-.76.59Zm1.88-1.83c0-.15-.1-.23-.31-.23H34.77c-.21,0-.3.08-.3.23v1.28c0,.14.09.22.3.22h1.62c.21,0,.31-.08.31-.22Z" style="fill:#f90"/><path d="M43.55,73.42V71.28H42.31V71h3v.33H44v2.14Z" style="fill:#f90"/><path d="M51.08,73.42c-.55,0-.76-.24-.76-.59V71.54c0-.35.21-.59.76-.59h1.61c.55,0,.77.24.77.59v1.29c0,.35-.22.59-.77.59Zm2-1.83c0-.15-.09-.23-.3-.23H51.12c-.21,0-.31.08-.31.23v1.28c0,.14.1.22.31.22h1.62c.21,0,.3-.08.3-.22Z" style="fill:#f90"/><path d="M59.59,73.42c-.56,0-.77-.24-.77-.59V71.54c0-.35.21-.59.77-.59h2v.41h-2c-.22,0-.32.08-.32.23v1.28c0,.14.1.22.32.22h2v.33Z" style="fill:#f90"/><path d="M67.59,73.42c-.55,0-.76-.24-.76-.59V71.54c0-.35.21-.59.76-.59H69.2c.56,0,.77.24.77.59v1.29c0,.35-.21.59-.77.59Zm1.88-1.83c0-.15-.1-.23-.3-.23H67.55c-.21,0-.31.08-.31.23v1.28c0,.14.1.22.31.22h1.62c.2,0,.3-.08.3-.22Z" style="fill:#f90"/><path d="M75.25,73.42V71h.5v2.14h2v.33Z" style="fill:#f90"/><rect x="17.79" y="69.3" width="59.53" height="0.25" style="fill:#fff"/></svg>