<svg xmlns="http://www.w3.org/2000/svg" viewBox="0 0 96 96"><circle cx="48" cy="48" r="47" fill="#333" stroke="#4d4d4d" stroke-miterlimit="10" stroke-width="2"/><circle cx="48" cy="48" r="40.68" fill="#4d4d4d" stroke="#b3b3b3" stroke-miterlimit="10"/><path d="M66.27,21.76s-5.07-1-6.24,3.68-3.35,3.2-3.35,3.2l2.61,4.28,7-10.12.63-1" transform="translate(0 0)" fill="#17a2b8"/><path d="M11.85,40.92a9.47,9.47,0,0,0,3.73,1.75,9,9,0,0,0,2.35,1.49c-1.07,6.89,1.48,13.23,5.13,16.68,5.7,5.42,8.41,6.62,8.41,6.62s-.15,6.16.15,6.31a3.75,3.75,0,0,0,2.71,1H41a1.66,1.66,0,0,0,1.8-1.27c.23-.36-.22-2.26,0-2.33s8.57-.15,9.55-.15c-.16,1.13.15,3.38,1.73,3.38s5.71.37,7.36.37a2.66,2.66,0,0,0,2.41-1.42c.15-.23-.23-5.11,0-5.94L64,67.4c1.67-.81,8.25-5.5,9.56-7.83,3.46-.08,9.62-1.65,10.66-10.67,0-.31,0-.61,0-.9,0-1.69-.06-3-.11-4.06-.13-3-.41-3.65-1.37-3.69-1.29,0-5.79.16-6.24,0-.92-2.93-5-9.54-9.32-11.65-.25-6.24-.18-7.22-.45-7.28h0c-.22-.37-5.94-.27-7,3.54h0c-.83-.27-2-.61-3.39-1a35.71,35.71,0,0,0-19.83.61,34.69,34.69,0,0,0-12.29,7.38l-.53.5a23.6,23.6,0,0,0-5.48,10.43,1.55,1.55,0,0,1-1-.76,3.74,3.74,0,0,0,1.07-2.13c.29-1.22-1.18-1.8-2.17-1.77S14.76,40,14.64,41c-.21.22-1.54-1.25-2.19-1.58S11.66,40.54,11.85,40.92Zm4.27-1.24a.73.73,0,0,1,.47-.25.32.32,0,0,1,.3,0,.36.36,0,0,1,.07.17,1.5,1.5,0,0,1,0,.73,1.05,1.05,0,0,1-.22.3.47.47,0,0,1-.17.14.26.26,0,0,1-.21,0c-.06,0-.11-.12-.18-.1,0-.16-.06-.3-.1-.48a.8.8,0,0,1,0-.55Z" transform="translate(0 0)" fill="#17a2b8"/><path d="M36.47,26a35.61,35.61,0,0,1,19.83-.61,2.21,2.21,0,0,1,.28,1.09,1.84,1.84,0,0,1,0,.41,1.66,1.66,0,0,1-1.9,1.53,35.49,35.49,0,0,0-16.27,0,1.68,1.68,0,0,1-1.91-1.53A2.42,2.42,0,0,1,36.47,26ZM67.94,39.23a1.92,1.92,0,1,0,1.91-1.92,1.92,1.92,0,0,0-1.91,1.92Z" transform="translate(0 0)" fill="#333"/><path d="M58.21,29.81a4.51,4.51,0,0,1,1-2.21,5.38,5.38,0,0,0,.69-1.24,3.21,3.21,0,0,0,.14-.92h0c1-3.81,6.18-3.9,6.87-3.61A7.34,7.34,0,0,0,63.19,25a7.22,7.22,0,0,0-.44.88c-.61,1.33-1.18,2.69-1.71,4.06a1.92,1.92,0,0,1-.65,1,1.64,1.64,0,0,1-1.21.13,1.29,1.29,0,0,1-.59-.22,1.23,1.23,0,0,1-.38-1Z" transform="translate(0 0)" fill="#333"/></svg>