<svg xmlns="http://www.w3.org/2000/svg" xmlns:xlink="http://www.w3.org/1999/xlink" viewBox="0 0 1078.89 1039.39"><defs><clipPath id="a" transform="translate(-0.72 -9.47)"><rect width="1079.61" height="1079.61" rx="194.21" fill="none"/></clipPath></defs><g clip-path="url(#a)"><path d="M589.24,598.89,591.7,566c2.92-1.5,5.94-2.87,9-4.14l-1.22-1.33c13.9-28.92,36.86-57.28,71.76-80.2,63.6-43.78,154.61-54.68,229.43-36.75,75.88,17.06,135.57,62.94,161.11,112.6,15.25,28.65,19.62,55.53,17.14,78.24-1.68-3.23-3.47-6.5-5.4-9.79-28.77-50.78-88.3-98.43-162-117.32C839,487.47,752.2,496.41,692.93,537.52A208.13,208.13,0,0,0,669.4,556c37.51,8,71.12,35.38,90.29,69.06,22.57,38.22,26.52,84.57,15.46,119.47-6.18,20.34-15.88,35.53-26.5,46q1.08-3.42,2-7c10.26-36.72,7.12-83.9-13.79-122.17-19.92-38-57.26-67.17-97.54-70.21-1.66,2.56-3.25,5.13-4.74,7.71l-7.41-8.07A103.59,103.59,0,0,0,589.24,598.89Z" transform="translate(-0.72 -9.47)" fill="#40433a"/><path d="M550.35,618.6c.78-1.07,1.58-2.15,2.38-3.23C490.65,635,441.3,672.11,416.79,703.74c4.77-27.8,31.22-63.6,78.73-95.53A351.48,351.48,0,0,1,604.59,560c31.14-26.75,69.65-50.43,114.58-64.91,81.62-27.91,163.72-14.37,213.18,24.56,50.92,38.32,69.21,102,56.91,160.34a209.43,209.43,0,0,1-38.38,85.56c.79-3.8,1.51-7.67,2.13-11.6,6.81-39.54,1.87-81.31-15.83-116.55,12.6,43.23,4.49,91.07-18.17,129.16a193,193,0,0,1-55.93,61.6c1.79-3,3.55-6.14,5.25-9.33,26.78-48.77,34.38-110.73,10.41-160.24-13-28.49-36.42-52.85-66.52-68.76,18.15,13.25,32.59,29.17,42.29,46.7,28.59,48.94,20.18,110.32-12,157.74a219.58,219.58,0,0,1-64.34,63.46q3.14-4.63,6.13-9.53c31.32-49.77,41.51-112.31,16-161.47-24-49.31-83.81-85.23-157.94-85.11-8.83-.08-17.55.29-26.13,1-57.53,41.71-93.38,97.48-105,138.37C503.93,711.79,515.44,667,550.35,618.6Z" transform="translate(-0.72 -9.47)" fill="#415055"/><path d="M928.22,675.26c-3-58.46-36.62-115.19-93.18-138.92-52.1-23.42-109.83-15.43-153.8,2.81-33.07,13.82-58.57,33.28-74.71,53.48,16.45-20.79,42.29-40.93,75.7-55.38,44.41-19.1,102.54-27.88,154.68-4.53,56.63,23.62,89.8,81.16,92.22,140.8,1.49,25.7-2.68,51.79-11,76.39v-.07C926.12,725.87,930,700.41,928.22,675.26Z" transform="translate(-0.72 -9.47)" fill="#fff" opacity="0.3"/><path d="M584.73,578.4c33.41-27.62,74.6-52.31,122.4-67.79,86.65-29.68,173-17.64,224.42,20.61,39.42,28,59.49,70.45,61.38,114.64.35-47.82-19.47-95.3-60.58-126.23-49.46-38.93-131.56-52.47-213.18-24.56C664.15,512.8,618.73,544.34,584.73,578.4Z" transform="translate(-0.72 -9.47)" fill="#008b32" opacity="0.3"/><path d="M584.47,640.72c-1-12.4.18-26.41,3.71-41.54a259.76,259.76,0,0,1,3.64-41.79q-4.14,2.11-8.17,4.33c-10.78-37.15-9.42-79.42,2.1-115.12,14.92-48.59,48.1-85.37,82.12-99.78,19.66-8.65,37.62-10.29,52.5-7.67-2.22.94-4.47,2-6.73,3.07-34.92,16.46-69.25,53.06-85.28,100.13A183.94,183.94,0,0,0,621,469.23c14.72-28.78,34.9-56.62,61.55-80,56.67-51.67,130.54-65.83,187.53-46.39,24.85,7.89,46.57,22,64.36,39.94a163.8,163.8,0,0,0-28.73-11c-61.25-18.49-141.36-2.95-203.54,50-33.39,27.32-57.76,60.38-74.63,93.89,29.12-41.07,73.59-81.86,133.31-105.7C838.4,377.27,922.74,385.58,978.27,421a169.92,169.92,0,0,1,57,57.21,188.52,188.52,0,0,0-27.61-19.05c-60.43-35.78-151.94-44.61-235.8-12.42-78.77,28.63-132.85,82.61-162.13,131.7q-5.21,8.77-9.39,17.32c-4.11,22.59-4.94,43.24-3.14,61.3a148.86,148.86,0,0,1-7.84-34.64A167.94,167.94,0,0,0,584.47,640.72Z" transform="translate(-0.72 -9.47)" fill="#415055"/><path d="M978.92,422.86c-55.09-34.18-139.12-41.62-216.68-9.1-72.82,29-123.29,82.41-150.89,130.74-20.68,36.4-28.77,70-26.88,96.22-2.11-26.85,5.73-61.16,26.17-98.25C637.92,493.24,688.09,439,760.89,409.92,838.4,377.27,922.74,385.58,978.27,421a169.92,169.92,0,0,1,57,57.21l-.06-.05A163.71,163.71,0,0,0,978.92,422.86Z" transform="translate(-0.72 -9.47)" fill="#fff" opacity="0.3"/><path d="M158.22,782.35c-12.41,12.44-66.34,32.88-86.33,28.16s-27.35-26.07-23.38-38.13,17.77-10.24,37.75-5.52S166.45,774.1,158.22,782.35Z" transform="translate(-0.72 -9.47)" fill="#62958c"/><path d="M80.33,801.79c-17.67-3.73-28.55-14.17-32.78-24.31-.88,12.21,7,28.91,24.34,33,11.71,2.76,35.06-3.11,54.89-10.94C108.47,802.73,91,804.05,80.33,801.79Z" transform="translate(-0.72 -9.47)" fill="#fff" opacity="0.4"/><path d="M117.43,731c-8.45,12.16-42.39,2.88-58.59-17S44.57,662.56,53,650.4s20.22-.25,36.42,19.61S125.87,718.87,117.43,731Z" transform="translate(-0.72 -9.47)" fill="#62958c"/><path d="M103.29,753.46c-4.87,14.74-41.75,25.47-63.95,17.74S9.65,736.06,14.52,721.32,34.76,710.11,57,717.84,108.16,738.73,103.29,753.46Z" transform="translate(-0.72 -9.47)" fill="#62958c"/><path d="M54.73,771.83c-29-9-39.58-38.65-33.76-54.29a15.56,15.56,0,0,1,3.75-5.93c-4.84,1-8.31,4-10.2,9.71-4.87,14.74,2.62,42.15,24.82,49.88,6.58,2.29,14.45,3,22.4,2.38A64.11,64.11,0,0,1,54.73,771.83Z" transform="translate(-0.72 -9.47)" fill="#fff" opacity="0.4"/><path d="M115.34,747.8c-8.45,12.16-86.21-20-102.4-39.84s-14.28-51.48-5.83-63.65,20.21-.25,36.41,19.61S123.79,735.63,115.34,747.8Z" transform="translate(-0.72 -9.47)" fill="#999"/><path d="M185.15,743.12c-.92,35.48-58.32,60.25-82.17,53.64S75,753.6,82.85,732.3c3.85-10.46,1.24-67.93,7-61.67,15.28,16.57,30.59,42.91,42.72,46.27C156.43,723.51,185.75,720.37,185.15,743.12Z" transform="translate(-0.72 -9.47)" fill="#62958c"/><path d="M94.09,682.86c8.69,11.42,19.07,20.58,29.32,28.16C113.35,701.72,102,684,90.53,671.37L89.43,670c-16.2-19.86-28-31.77-36.42-19.61-7.36,10.61-9.76,36,.49,55.53-5.24-13.93-7-29.73-.69-40.68C64.18,645.62,86.22,672.51,94.09,682.86Z" transform="translate(-0.72 -9.47)" fill="#fff" opacity="0.4"/><path d="M115.34,747.8c-8.45,12.16-86.21-20-102.4-39.84s-14.28-51.48-5.83-63.65,20.21-.25,36.41,19.61S123.79,735.63,115.34,747.8Z" transform="translate(-0.72 -9.47)" fill="#62958c"/><path d="M7.11,644.31C-1.34,656.48-3.26,688.1,12.94,708c.39.48.83,1,1.3,1.47-8.68-17.2-8.1-38.72-2.39-49,7.3-13.17,20.19-3,38.27,14.33,3.65,3.51,9.66,8,16.86,13-9.9-9.48-18.73-18-23.46-23.82C27.32,644.06,15.55,632.15,7.11,644.31Z" transform="translate(-0.72 -9.47)" fill="#fff" opacity="0.4"/><path d="M160.63,754.44c-3.51,14.93-75.77,23-94.47,12.9S40.26,727.92,43.77,713s16.4-9.83,35.1.29S164.14,739.51,160.63,754.44Z" transform="translate(-0.72 -9.47)" fill="#62958c"/><path d="M43.77,713c-3.51,14.93,3.69,44.23,22.39,54.35.45.25,1,.48,1.46.7-11.83-11.31-17.32-30.9-15.52-42.86,2.29-15.29,15.61-12.32,35.14-5.32,4,1.42,10.09,2.58,17.35,3.65-10.7-3.8-20.25-7.27-25.72-10.23C60.17,703.16,47.28,698.06,43.77,713Z" transform="translate(-0.72 -9.47)" fill="#fff" opacity="0.4"/><g opacity="0.2"><path d="M93.37,782.56c-6.81-.79-11.41-1-11.94,2.06s3.24,8.14,10,8.93,16.72-2.5,17.25-5.54S100.18,783.35,93.37,782.56Z" transform="translate(-0.72 -9.47)" opacity="0.4"/><path d="M100.13,772c1.27-2.75-6.79-7.71-12.94-11s-10.41-5.2-11.68-2.46.95,9.1,7.1,12.41S98.87,774.75,100.13,772Z" transform="translate(-0.72 -9.47)" opacity="0.4"/><path d="M111.2,772.57c-4.41-.68-7.41-.83-8,1.86a7.29,7.29,0,0,0,6,7.89c4.4.68,11.1-2.27,11.64-5S115.6,773.25,111.2,772.57Z" transform="translate(-0.72 -9.47)" opacity="0.4"/></g><path d="M591.38,597.21c13.25-4,20.57-48.88,11.88-78s-34.49-42.65-47.75-38.7-8.93,23.87-.24,53S578.12,601.16,591.38,597.21Z" transform="translate(-0.72 -9.47)" fill="#a6734b"/><path d="M617.84,616.47c13.73,1.59,38.14-36.83,41.62-67s-14.93-52.79-28.67-54.37-17.6,18.43-21.08,48.64S604.1,614.89,617.84,616.47Z" transform="translate(-0.72 -9.47)" fill="#a6734b"/><path d="M651.51,555.45c3.13-27.18-5.82-49-16.25-59.2,12.91,5.24,27.31,26.15,24.2,53.18-2,17.67-11.23,38.15-21.27,51.79C644.64,586.85,649.8,570.3,651.51,555.45Z" transform="translate(-0.72 -9.47)" fill="#fff" opacity="0.4"/><path d="M624.84,641.67c10.42,5.24,40.92-18.09,52.46-41s3.52-46.14-6.9-51.39-19.29,9.48-30.83,32.39S614.42,636.42,624.84,641.67Z" transform="translate(-0.72 -9.47)" fill="#a6734b"/><path d="M670.47,597.41c7.87-15.62,8.95-30.89,6.44-42,6.54,9.63,9.31,27.54.39,45.26-9.68,19.22-32.69,38.73-46,41.42C645,632.75,661.76,614.71,670.47,597.41Z" transform="translate(-0.72 -9.47)" fill="#fff" opacity="0.4"/><path d="M608.15,603.1c13.25-4,21.45-112.29,12.76-141.43S586.41,419,573.16,423s-8.93,23.86-.24,53S594.9,607.05,608.15,603.1Z" transform="translate(-0.72 -9.47)" fill="#a6734b"/><path d="M618.83,472.52c-9.76-28.8-36.05-41.35-49.15-36.91a10.81,10.81,0,0,0-4.92,3.25c-.25-8.46,2.06-14,8.4-15.89,13.25-4,39.06,9.56,47.75,38.7,3.34,11.21,4.18,34.16,3.2,58.38C623.73,500,622,482,618.83,472.52Z" transform="translate(-0.72 -9.47)" fill="#fff" opacity="0.4"/><path d="M378,972.23c142.27,0,333.21,32.18,333.21,43.75s-190.94,21-333.21,21-302.61-9.38-302.61-21S235.77,972.23,378,972.23Z" transform="translate(-0.72 -9.47)" opacity="0.1"/><polygon points="257.65 853.77 251.26 981.43 246.2 981.28 242.4 845.53 257.65 853.77" fill="#ff9e2e"/><polygon points="248.42 981.35 246.2 981.28 242.4 845.53 248.42 981.35" fill="#fff" opacity="0.4"/><polygon points="248.31 916.44 253.28 917.1 257.65 853.77 252.55 955.71 252.55 955.71 252.48 957.02 252.48 957.02 251.96 967.48 251.96 967.48 251.91 968.35 251.26 981.43 248.83 981.36 249.79 967.48 248.9 967.07 249.81 967.19 250.57 956.15 248.37 955.15 250.62 955.45 251.2 947.06 248.07 945.63 251.27 946.07 251.86 937.51 247.15 935.36 251.97 936.01 252.51 928.09 247.94 926.01 252.62 926.64 253.17 918.65 248.31 916.44" fill="#d04000" opacity="0.4"/><path d="M261.53,867.74c17.09,2.62,33.22,17.58,30.6,34.68-1.69,11-11.73,27.05-23.22,36.5s-29.14,5.46-34.72-8.37l-.36-.94c-4.21-11.75-5.11-27-3.61-36.71C232.84,875.81,244.43,865.11,261.53,867.74Z" transform="translate(-0.72 -9.47)" fill="#a6734b"/><path d="M241.41,931.38c.2.54.4,1.07.62,1.61a36.42,36.42,0,0,0,6.18,10.18,21.4,21.4,0,0,1-14-12.62l-.36-.94c-4.21-11.75-5.11-27-3.61-36.71a37.19,37.19,0,0,1,3.93-12.14C233.62,896.41,235.78,915.68,241.41,931.38Z" transform="translate(-0.72 -9.47)" opacity="0.2"/><path d="M196.63,987.4c23.38-19.31,59-6.31,90.71,16.79-17.13-7.32-34-11.78-49.84-12.26a51.7,51.7,0,0,0-3,31.86,70.46,70.46,0,0,0,4,12.58c-8.29-9.15-14-18.55-16-27.7a31.59,31.59,0,0,1-.55-10A62,62,0,0,0,208,1033a82.85,82.85,0,0,0,.1,15.81c-6.23-13.42-9.45-26.22-8.41-37.38a37.31,37.31,0,0,1,3.6-13.06,67.55,67.55,0,0,0-14.9,9.37,78.71,78.71,0,0,0-11,11.14C181.67,1005.56,188,994.55,196.63,987.4Z" transform="translate(-0.72 -9.47)" fill="#ff9e2e"/><path d="M188.11,1006.41a26.66,26.66,0,0,1,15.16-8,67.55,67.55,0,0,0-14.9,9.37,78.71,78.71,0,0,0-11,11.14C180.77,1014.77,185.21,1009.33,188.11,1006.41Z" transform="translate(-0.72 -9.47)" fill="#d04000" opacity="0.4"/><path d="M208.08,1048.85c-.53-5.45-2.31-12.35-2.29-16.51.06-9.35,4.15-24.34,16.18-33.71A62,62,0,0,0,208,1033,82.85,82.85,0,0,0,208.08,1048.85Z" transform="translate(-0.72 -9.47)" fill="#d04000" opacity="0.4"/><path d="M234.49,1023.79c-2.44-11.54-4.39-25.15-.21-34.85,15.83.48,35.93,7.93,53.06,15.25-17.13-7.32-34-11.78-49.84-12.26A51.7,51.7,0,0,0,234.49,1023.79Z" transform="translate(-0.72 -9.47)" fill="#d04000" opacity="0.4"/><path d="M177.4,1018.92c4.27-13.36,9.87-19.53,18.53-26.68,14-11.53,36.44-13.16,59.16-6.87-21.74-9.34-42.83-10.88-58.46,2C188,994.55,181.67,1005.56,177.4,1018.92Z" transform="translate(-0.72 -9.47)" fill="#fff" opacity="0.4"/><polygon points="481.37 861.73 536.4 977.11 531.87 979.38 464.03 861.73 481.37 861.73" fill="#ff9e2e"/><polygon points="533.86 978.38 531.87 979.38 464.03 861.73 533.86 978.38" fill="#fff" opacity="0.4"/><polygon points="502.93 921.32 507.61 919.54 481.37 861.73 525.31 953.86 525.31 953.86 525.88 955.05 525.88 955.05 530.38 964.5 530.38 964.5 530.76 965.28 536.4 977.11 534.23 978.2 528.48 965.52 527.5 965.59 528.36 965.27 523.79 955.19 521.36 955.35 523.5 954.55 520.02 946.89 516.58 947.12 519.61 945.98 516.06 938.17 510.9 938.52 515.44 936.8 512.16 929.58 507.14 929.92 511.56 928.25 508.25 920.95 502.93 921.32" fill="#d04000" opacity="0.4"/><path d="M563.86,982.88c-27.3-13.21-58.77,7.85-84.14,37.83,14.91-11.18,30.25-19.52,45.51-23.74a51.69,51.69,0,0,1,10.48,30.24,70.06,70.06,0,0,1-.91,13.17c5.89-10.86,9.25-21.35,9-30.7a31.64,31.64,0,0,0-1.85-9.88,61.93,61.93,0,0,1,21.75,30.1,84.2,84.2,0,0,1,3.66,15.39c2.86-14.52,3-27.72-.7-38.31a37.47,37.47,0,0,0-6.6-11.84,68.19,68.19,0,0,1,16.7,5.57,79.34,79.34,0,0,1,13.3,8.22C582.7,997,574,987.77,563.86,982.88Z" transform="translate(-0.72 -9.47)" fill="#ff9e2e"/><path d="M576.64,999.33A26.65,26.65,0,0,0,560,995.14a68.19,68.19,0,0,1,16.7,5.57,79.34,79.34,0,0,1,13.3,8.22C585.76,1005.7,580.16,1001.48,576.64,999.33Z" transform="translate(-0.72 -9.47)" fill="#d04000" opacity="0.4"/><path d="M567.32,1045.29c-.79-5.42-.69-12.54-1.7-16.59-2.27-9.06-9.8-22.66-23.71-28.9a61.93,61.93,0,0,1,21.75,30.1A84.2,84.2,0,0,1,567.32,1045.29Z" transform="translate(-0.72 -9.47)" fill="#d04000" opacity="0.4"/><path d="M535.71,1027.21c-.36-11.79-1.7-25.47-8.06-33.9-15.26,4.22-33,16.22-47.93,27.4,14.91-11.18,30.25-19.52,45.51-23.74A51.69,51.69,0,0,1,535.71,1027.21Z" transform="translate(-0.72 -9.47)" fill="#d04000" opacity="0.4"/><path d="M563.86,982.88c-18.25-8.84-38.36-2.34-57.27,11.89,20.58-11.49,42.8-15.24,59.1-7.35,10.11,4.89,17,9.55,24.33,21.51C582.7,997,574,987.77,563.86,982.88Z" transform="translate(-0.72 -9.47)" fill="#fff" opacity="0.4"/><path d="M533.6,930c-3,19.55-24,31.13-41.76,22.37-.4-.19-.8-.4-1.19-.61-14.56-7.91-28.89-22.18-36-33.16-12.51-19.25-10.48-40.07,8.77-52.58s48.44-11.94,60.94,7.31C532.36,885.71,536.63,910.52,533.6,930Z" transform="translate(-0.72 -9.47)" fill="#a6734b"/><path d="M511.6,875.11a44.13,44.13,0,0,0-22.29-17.39c13.85-.77,27.49,4,35,15.65,8,12.34,12.28,37.15,9.25,56.67a29.82,29.82,0,0,1-9.34,17.49C527.49,922.1,521.86,890.9,511.6,875.11Z" transform="translate(-0.72 -9.47)" fill="#fff" opacity="0.3"/><path d="M450.42,879.76c.39,8.72,3.22,17.87,8.37,26.91,8.38,14.73,25.81,34.24,44,45.56.49.31,1,.6,1.48.88a38.72,38.72,0,0,0,4,2,28.24,28.24,0,0,1-16.51-2.69c-.4-.19-.8-.4-1.19-.61-14.56-7.91-28.89-22.18-36-33.16C446,905.35,444.3,891.3,450.42,879.76Z" transform="translate(-0.72 -9.47)" opacity="0.2"/><path d="M104.3,484.33c25.89-75.22,192.09,0,309.4,26.57,33.55,7.6,67,65.64,87.21,48.18,106.9-92.17,166,17.56,166,115.52S578.09,891,484.65,905.71C24.34,978,22.53,722,104.3,484.33Z" transform="translate(-0.72 -9.47)" fill="#a6734b"/><path d="M524.44,876c-42,16.24-80.86,29.22-116.74,39.22q36.15-3.07,76.95-9.46c79.15-12.43,154.94-99.33,176.28-185.16C637.43,788.23,586.64,851.92,524.44,876Z" transform="translate(-0.72 -9.47)" opacity="0.15"/><path d="M104.9,649.27q1.62-13.65,2.44-27.35A408,408,0,0,0,88.5,728.35c-10.37-75.93-1.11-142.9,21.78-201.93a231.24,231.24,0,0,1,25.72-71c-15.32,4.53-26.42,13.6-31.7,28.93-54.42,158.16-71.82,324.5,58.37,396.74C106.38,825.61,93.91,741.67,104.9,649.27Z" transform="translate(-0.72 -9.47)" fill="#fff" opacity="0.4"/><path d="M605.35,531.63c-19.52,2.46-41.75,13.63-66.56,36.35-9.18,8.41-21.07.32-34.46-11.78C545.46,522.06,579.36,518,605.35,531.63Z" transform="translate(-0.72 -9.47)" opacity="0.15"/><path d="M348.55,232.09c-28.47-5.3-55.45-87.52-45.13-142.91s60.18-84.4,88.65-79.1,24.77,42.91,14.45,98.3S377,237.39,348.55,232.09Z" transform="translate(-0.72 -9.47)" fill="#c1272d"/><path d="M392.07,10.08c11.57,2.16,17.83,9.65,20.49,21.5a24.69,24.69,0,0,0-11.74-4.91c-28.6-4.53-77.67,25.82-86.48,81.46-6.08,38.38,5.91,89,23.33,118.27-23.94-20.42-43.23-89-34.25-137.22C313.73,33.79,363.6,4.78,392.07,10.08Z" transform="translate(-0.72 -9.47)" fill="#fff" opacity="0.4"/><path d="M356.13,245.24c-17.63-23,17.26-102.16,62-136.46s101.17-22.54,118.81.44-10.27,48.47-55,82.77S373.76,268.22,356.13,245.24Z" transform="translate(-0.72 -9.47)" fill="#c1272d"/><path d="M518.57,125.79c-17.45-22.73-72.93-34.48-117.39-1.5a140.74,140.74,0,0,1,16.91-15.51c44.69-34.3,101.17-22.54,118.81.44,14.37,18.72-1.51,39.12-32.07,64.6C522.7,155.76,529.68,140.27,518.57,125.79Z" transform="translate(-0.72 -9.47)" fill="#fff" opacity="0.4"/><path d="M396.74,256c-1.63-21.56,52.52-56.79,94.47-60s72.44,27.25,74.07,48.81-26.22,26.1-68.16,29.27S398.37,277.58,396.74,256Z" transform="translate(-0.72 -9.47)" fill="#c1272d"/><path d="M544.55,249.88c-1.47-19.29-20.32-44.92-48.23-54,39.29-.46,67.39,28.34,69,49,1,13.77-9.95,20.59-28.94,24.55C542.24,264.81,545.2,258.56,544.55,249.88Z" transform="translate(-0.72 -9.47)" fill="#fff" opacity="0.4"/><path d="M411,244.74C479,244.62,531.3,300.09,528.5,356c-2.71,56.25-55.07,92.6-117.47,92.79-62.4-.19-114.76-36.54-117.47-92.79C290.77,300.09,343.1,244.62,411,244.74Z" transform="translate(-0.72 -9.47)" fill="#d6c6b6"/><path d="M94.33,492.65c14.39-45.45,42.37-95,70-139.13A54.14,54.14,0,0,1,150.8,320c-1.74-34.85,30.87-69.4,73.19-69.33a76.06,76.06,0,0,1,22.5,3.35l.68-.58c23.9-20.67,50.24-35.84,80.19-43.35a109.35,109.35,0,0,1,25-3.17h.19c15.49-.38,25.67,3.81,34,6.48,18.33,6.79,35.28,18.61,50.79,34.14,54.63,11.91,93.59,60,91.17,108.47a86.94,86.94,0,0,1-9.58,36.06c14.66,42.6,29.33,86.12,34.71,126.42,2.29,11.91-3.7,40.55-25,44.64-11.47,2.2-21,.16-27.7-4.06-5.09,12.23-16.15,26-32,25.13-15.55-.87-25.92-8.22-30.29-16.77-.27,10.49-6.45,22.69-21.56,28.69-15.38,6.1-34.81-4.13-45.16-14.33-6.07,10.62-18,20.88-32.33,19.2s-23.7-9.84-29.35-18.83a47.81,47.81,0,0,1-27,11.84c-12,1.24-21.6-6.09-28-14.93a47.67,47.67,0,0,1-29.37,6.64c-14.72-1.4-23.43-14.82-27.13-27.05a47.94,47.94,0,0,1-28.09,5.88c-13.53-1.29-22-12.73-26.14-24.06-6.68,4-16.05,6-27.28,3.8-15.63-3-21.74-25.77-23.87-37.8A29.25,29.25,0,0,1,94.33,492.65Z" transform="translate(-0.72 -9.47)" fill="#c7734b"/><path d="M246.49,254l.68-.58c20.14-17.42,42-30.93,66.32-39.25-20.68,9.58-39.6,24.5-57.19,43.63a76.48,76.48,0,0,0-10-3.86Z" transform="translate(-0.72 -9.47)" fill="#998675" opacity="0.2"/><path d="M437.32,247.54A122.63,122.63,0,0,0,421,245.12c-11.61-13.45-23.94-24-37-30.84-3.39-1.55-7.08-3.45-11.31-5.13,5.31,1.31,9.8,3,13.85,4.26C404.87,220.2,421.82,232,437.32,247.54Z" transform="translate(-0.72 -9.47)" fill="#998675" opacity="0.2"/><path d="M503.57,383.18a94.33,94.33,0,0,0,10.79-37.39c1.86-23.19-5-46.58-18.14-66.49C517.48,300.15,529.9,328,528.5,356a86.94,86.94,0,0,1-9.58,36.06c14.66,42.6,29.33,86.12,34.71,126.42,2.29,11.91-3.7,40.55-25,44.64a41.85,41.85,0,0,1-20.76-.85c21.14-3.89,28-33.34,26.12-45.8C530,474.18,516.77,428.2,503.57,383.18Z" transform="translate(-0.72 -9.47)" fill="#fff" opacity="0.35"/><path d="M257.28,581.49a.41.41,0,0,0-.11.07c.15.19.31.37.47.56Zm-163.91-75c2.13,12,8.24,34.8,23.87,37.8,11.23,2.15,20.6.23,27.28-3.8,4.15,11.33,12.61,22.77,26.14,24.06a47.94,47.94,0,0,0,28.09-5.88c3.41,11.29,11.1,23.57,23.83,26.51-11.42-4.81-17.6-18.22-20-30.33a44.22,44.22,0,0,1-28.49,4.39c-13.39-2.42-20.89-15.63-24.1-28.42-7,3.95-16.49,5.37-27.52,2.17-15.34-4.45-19.58-30-20.72-43.37a35.32,35.32,0,0,1,2.09-15.18c18-49,50-101.48,81.13-148a63.23,63.23,0,0,1-10.75-37.89,68.62,68.62,0,0,1,4.88-23.28c-18.17,13.29-29.36,34-28.32,54.75a54.14,54.14,0,0,0,13.52,33.51c-27.62,44.11-55.6,93.68-70,139.13A29.25,29.25,0,0,0,93.37,506.49Z" transform="translate(-0.72 -9.47)" fill="#998675" opacity="0.2"/><path d="M400.91,250.63a139.56,139.56,0,0,0-46.07,7.7A121.28,121.28,0,0,1,411,244.74c56.38-.1,102,38.09,114.3,83.06C505.21,284.48,457.84,250.53,400.91,250.63Z" transform="translate(-0.72 -9.47)" fill="#fff" opacity="0.3"/><path d="M217.69,254.35a87.17,87.17,0,0,0-28.71,4.8,75.67,75.67,0,0,1,35-8.47c35.12-.06,63.55,23.73,71.21,51.75C282.66,275.44,253.15,254.29,217.69,254.35Z" transform="translate(-0.72 -9.47)" fill="#fff" opacity="0.3"/><path d="M188.66,264.38c50.49-.08,89.4,41.14,87.32,82.72-2,41.81-40.94,68.83-87.32,69-46.38-.15-85.3-27.17-87.32-69C99.26,305.52,138.17,264.3,188.66,264.38Z" transform="translate(-0.72 -9.47)" fill="#ffe7d4"/><path d="M177.48,265.05c-37.15,11.07-63,44.89-61.26,79,2,41.81,40.93,68.83,87.32,69a115.58,115.58,0,0,0,15.36-1.08,112.23,112.23,0,0,1-30.24,4.18c-46.38-.15-85.3-27.17-87.32-69C99.42,308.65,132.55,270.5,177.48,265.05Z" transform="translate(-0.72 -9.47)" fill="#e75400" opacity="0.2"/><path d="M422.32,259.58c67.93-.12,120.27,55.35,117.47,111.28-2.71,56.25-55.07,92.6-117.47,92.79-62.4-.19-114.76-36.54-117.47-92.79C302.06,314.93,354.39,259.46,422.32,259.58Z" transform="translate(-0.72 -9.47)" fill="#ffe7d4"/><path d="M393.64,454.59c62.4-.21,114.76-38.73,117.47-98.34,1.47-31.14-12.29-62.14-35.52-84.54,40,19.35,66.2,59.13,64.2,99.15-2.71,56.25-55.07,92.6-117.47,92.79-21.45-.06-41.71-4.4-59.18-12.35A145.64,145.64,0,0,0,393.64,454.59Z" transform="translate(-0.72 -9.47)" fill="#e75400" opacity="0.2"/><path d="M364.53,340.65c-.06.65-.1,1.3-.1,2A19.53,19.53,0,1,0,384,323.08a19.19,19.19,0,0,0-4.57.56,34.4,34.4,0,1,1-14.86,17Z" transform="translate(-0.72 -9.47)" fill="#51364d"/><path d="M421,385a9.32,9.32,0,1,1,9.31-9.32A9.32,9.32,0,0,1,421,385Z" transform="translate(-0.72 -9.47)" fill="#fff"/><path d="M433.26,387.93a2.91,2.91,0,1,1,2.9-2.9A2.91,2.91,0,0,1,433.26,387.93Z" transform="translate(-0.72 -9.47)" fill="#fff"/><path d="M239.07,339.13a8.17,8.17,0,0,0-.86-.17,8.8,8.8,0,1,0,7.38,10,8.47,8.47,0,0,0,.06-2.07,15.49,15.49,0,1,1-6.58-7.78Z" transform="translate(-0.72 -9.47)" fill="#51364d"/><path d="M240.15,368.4a4,4,0,1,1,4-4A4,4,0,0,1,240.15,368.4Z" transform="translate(-0.72 -9.47)" fill="#fff"/><path d="M245.43,369.66a1.26,1.26,0,1,1,1.26-1.26A1.25,1.25,0,0,1,245.43,369.66Z" transform="translate(-0.72 -9.47)" fill="#fff"/><path d="M155.52,549.69c12.06-38.1,62.13-78.72,85.69-71.26s11.69,60.17-.37,98.27S218.08,639.42,194.52,632,143.46,587.79,155.52,549.69Z" transform="translate(-0.72 -9.47)" fill="#c1272d"/><path d="M163.93,560.42c10.22-33.28,42.93-68.09,71.47-82.88-25.15-.4-68.74,36.95-79.88,72.15-6.32,20-1.78,39.55,7.37,54.75A81.9,81.9,0,0,1,163.93,560.42Z" transform="translate(-0.72 -9.47)" fill="#fff" opacity="0.4"/><path d="M227.84,568.48c5.78-21.35,16.49-51.8,24.06-79.41,7.71,19-1.62,57.8-11.06,87.63-11.09,35-21,58.67-40.88,56.45C211.51,623.75,219.33,599.86,227.84,568.48Z" transform="translate(-0.72 -9.47)" opacity="0.15"/><path d="M243.49,509.93c19.14-15.48,53.85,24,77,55.37s36.44,54.14,17.29,69.63-63.49,17.85-86.62-13.56S224.34,525.41,243.49,509.93Z" transform="translate(-0.72 -9.47)" fill="#c1272d"/><path d="M254,614.38c-10.56-19.39-18.15-47.66-22.11-75.79-2.91,26,3.85,61.8,19.29,82.78A59,59,0,0,0,278.9,642C269.76,636.47,261.11,627.51,254,614.38Z" transform="translate(-0.72 -9.47)" fill="#fff" opacity="0.4"/><path d="M319.66,639.37c20-17,7.92-45.43-13.46-85.11-3.62-6.72-7.57-13.75-11.71-20.7a360.31,360.31,0,0,1,26,31.74c23.13,31.42,36.44,54.14,17.29,69.63-6.86,5.55-17,9.41-28.18,10.64A40.82,40.82,0,0,0,319.66,639.37Z" transform="translate(-0.72 -9.47)" opacity="0.15"/><path d="M346,468.86c.3.36-15.69,94.39-87.37,82.95-30.86-4.93-109.12-113.5-109.12-113.5S293.18,428,346,468.86Z" transform="translate(-0.72 -9.47)" fill="#ff9e2e"/><path d="M264.48,537.88c40.33,6.43,63-20.51,75.12-45.38-9.85,27.13-32.86,67-81,59.31-16.42-2.62-46.25-34.58-70.58-63.92C220.05,513.27,251.48,535.8,264.48,537.88Z" transform="translate(-0.72 -9.47)" opacity="0.1"/><path d="M179.7,477.69c-9.76-12.11-18.1-23.06-23.52-30.32,33-3.68,118.24-10.55,168.26,9.32a107.72,107.72,0,0,1,15.86,8.19C310.6,456.32,249.63,463.89,179.7,477.69Z" transform="translate(-0.72 -9.47)" opacity="0.1"/><path d="M160.21,367.14c23-22,57.1,66.64,97.85,43.39S345.75,469,346,468.86c-55.53-15.28-164.47-.12-220,6.52C125.65,475.05,142.28,383.65,160.21,367.14Z" transform="translate(-0.72 -9.47)" fill="#ff9e2e"/><path d="M160.21,367.14c23-22,57.1,66.64,97.85,43.39,21-12,43.59,3.86,60.63,22-18.61-14.46-42.15-25.37-60.42-14.94-40.76,23.24-72.41-41.08-95.37-19.09C145,415.05,125.65,475.05,126,475.38,125.65,475.05,142.28,383.65,160.21,367.14Z" transform="translate(-0.72 -9.47)" fill="#fff" opacity="0.4"/><path d="M139.33,415.76c6.07-20.68,13.8-40,22.33-45.12,26.07-15.66,55,66.22,95.7,43,18-10.27,38.66-.46,56.14,13.68-16.28-15.75-36.52-27.56-55.44-16.77-40.75,23.25-74.89-65.38-97.85-43.39C152.62,374.12,145.27,394.52,139.33,415.76Z" transform="translate(-0.72 -9.47)" fill="#fff" opacity="0.2"/><path d="M285.37,422.84s4.12,5.47-1.34,5.42c-2.35,0-13.58-5.53-13.58-5.53S279.58,421,285.37,422.84Z" transform="translate(-0.72 -9.47)" opacity="0.2"/><path d="M445.24,776.79c12.79,14.1,74.19,42.07,99.1,40.26s37.51-21.87,34.83-34.37S559.56,770,534.66,771.8,436.77,767.45,445.24,776.79Z" transform="translate(-0.72 -9.47)" fill="#62958c"/><path d="M535.7,807.22c21.94-1.16,36.87-9.93,43.74-19.36-1.07,12.21-13.43,27.62-35.1,29.19-14.59,1.06-41.7-8.1-64.22-18.7C501.63,804.11,522.45,807.92,535.7,807.22Z" transform="translate(-0.72 -9.47)" fill="#fff" opacity="0.4"/><path d="M503.36,731.87c8.05,13.24,50.57,8.92,73.56-8.4s26.2-48.9,18.15-62.15-24.32-3.16-47.3,14.17S495.31,718.62,503.36,731.87Z" transform="translate(-0.72 -9.47)" fill="#62958c"/><path d="M516.48,756.09c3.29,15.28,45.85,31.2,73.95,26.74s41.91-30.52,38.62-45.8-22.43-14-50.53-9.54S513.19,740.81,516.48,756.09Z" transform="translate(-0.72 -9.47)" fill="#62958c"/><path d="M571.78,781.25c36.49-4.77,54.44-32.58,50.17-48.89a14.55,14.55,0,0,0-3.49-6.41c5.65,1.72,9.32,5.15,10.59,11.08,3.29,15.28-10.52,41.33-38.62,45.8-8.33,1.32-17.93.85-27.4-.86Q567.54,781.79,571.78,781.25Z" transform="translate(-0.72 -9.47)" fill="#fff" opacity="0.4"/><path d="M503,748.76C511,762,610.31,741.36,633.3,724s26.19-48.9,18.14-62.15-24.31-3.15-47.3,14.17S494.9,735.51,503,748.76Z" transform="translate(-0.72 -9.47)" fill="#999"/><path d="M419.65,734.1c-5.09,35.25,59.75,68,89.64,64.89s41.23-38.71,35.52-60.91c-2.81-10.9,10.37-67.4,2.33-62-21.31,14.22-44.36,38.08-59.57,39.67C457.68,718.82,422.91,711.51,419.65,734.1Z" transform="translate(-0.72 -9.47)" fill="#62958c"/><path d="M592.72,676c5.72,11.74.8,27.13-8,40.16,15.77-17.83,17.32-43.33,10.3-54.88-8.05-13.25-24.32-3.16-47.3,14.17l-1.57,1.19c-16,10.82-32.8,26.76-46.55,34.53,13.68-6,27.79-13.61,40.26-23.67C551.19,678.43,582.45,655,592.72,676Z" transform="translate(-0.72 -9.47)" fill="#fff" opacity="0.4"/><path d="M503,748.76C511,762,610.31,741.36,633.3,724s26.19-48.9,18.14-62.15-24.31-3.15-47.3,14.17S494.9,735.51,503,748.76Z" transform="translate(-0.72 -9.47)" fill="#62958c"/><path d="M604.14,676.05c-6.71,5.07-18.84,12.25-32.43,20.21,9.55-3.92,17.58-7.49,22.6-10.44,24.81-14.6,42.12-22.77,48.6-8.69,5.08,11,2,32.4-11.44,48.17.65-.42,1.27-.85,1.83-1.27,23-17.32,26.19-48.9,18.14-62.15S627.13,658.73,604.14,676.05Z" transform="translate(-0.72 -9.47)" fill="#fff" opacity="0.4"/><path d="M447.22,748.83c1.63,15.27,87.27,33.66,111.57,26.33s38.09-35.3,36.47-50.58-18-12.08-42.34-4.75S445.6,733.55,447.22,748.83Z" transform="translate(-0.72 -9.47)" fill="#62958c"/><path d="M552.92,719.83c-7.1,2.15-19.22,4.21-32.77,6.44,8.93,0,16.53-.29,21.54-1.13C566.45,721,583,720,583.1,735.45c.07,12.1-10,30.7-26.2,40.19.66-.14,1.3-.3,1.89-.48,24.3-7.34,38.09-35.3,36.47-50.58S577.22,712.5,552.92,719.83Z" transform="translate(-0.72 -9.47)" fill="#fff" opacity="0.4"/><g opacity="0.2"><path d="M523.35,786.31c8.33.2,13.92.67,14,3.75s-5.33,7.6-13.67,7.41-19.71-4.88-19.81-8S515,786.12,523.35,786.31Z" transform="translate(-0.72 -9.47)" opacity="0.4"/><path d="M517,774.9c-1-2.9,9.53-6.66,17.52-9s13.45-3.66,14.5-.76-2.73,8.87-10.72,11.26S518.08,777.8,517,774.9Z" transform="translate(-0.72 -9.47)" opacity="0.4"/><path d="M503.61,773.87c5.43,0,9.07.24,9.25,3s-3.2,6.91-8.63,6.95-13-3.84-13.15-6.58S498.18,773.91,503.61,773.87Z" transform="translate(-0.72 -9.47)" opacity="0.4"/></g><path d="M142.44,705.1c1.49-17.81,13.4-41.52,20.3-41.32s6.17,24.23,4.68,42-3.27,29.69-10.16,29.49S141,722.9,142.44,705.1Z" transform="translate(-0.72 -9.47)" fill="#fff" opacity="0.4"/><path d="M193.73,693.84c6.61-1.85,13.67,21.26,18,38.67s6.47,29.25-.14,31.1-19.48-7-23.81-24.41S187.12,695.69,193.73,693.84Z" transform="translate(-0.72 -9.47)" fill="#fff" opacity="0.4"/><path d="M213.67,672.44c.6-11.61,10.23-27.27,16.38-27.27s6.49,15.63,5.89,27.25-1.68,19.37-7.83,19.38S213.08,684.05,213.67,672.44Z" transform="translate(-0.72 -9.47)" fill="#fff" opacity="0.4"/><path d="M252.23,786.58c5-2,12,15.26,16.55,28.37s7,22.1,2.07,24.14-15.48-3.67-20-16.79S247.27,788.61,252.23,786.58Z" transform="translate(-0.72 -9.47)" fill="#fff" opacity="0.4"/><path d="M332.75,808.55c8.51,11,13.74,18.64,9.64,22s-16,1.16-24.47-9.79-14.1-30.55-10-33.93S324.23,797.6,332.75,808.55Z" transform="translate(-0.72 -9.47)" fill="#fff" opacity="0.4"/><path d="M260.94,730.87c-4.16-10.86-1.7-29.07,3.91-31.57s12.28,11.67,16.44,22.52,6.31,18.4.7,20.89S265.1,741.73,260.94,730.87Z" transform="translate(-0.72 -9.47)" fill="#fff" opacity="0.4"/><path d="M479.42,500.27c-1-10.73-8.81-25-13.34-24.89S462,490,463,500.71s2.15,17.89,6.68,17.77S480.4,511,479.42,500.27Z" transform="translate(-0.72 -9.47)" fill="#fff" opacity="0.4"/><path d="M425.6,501.63c-5.52.07-7.63,16.07-8.44,27.94s-.73,19.79,4.79,19.72,14.4-8.11,15.21-20S431.12,501.56,425.6,501.63Z" transform="translate(-0.72 -9.47)" fill="#fff" opacity="0.4"/><path d="M517.89,509.68c-.49-9.46-8.33-22.22-13.35-22.22s-5.29,12.74-4.8,22.2,1.37,15.8,6.38,15.8S518.38,519.15,517.89,509.68Z" transform="translate(-0.72 -9.47)" fill="#fff" opacity="0.4"/><path d="M479.36,557.31c3.4-8.85,1.39-23.69-3.19-25.73s-10,9.5-13.39,18.35-5.15,15-.57,17S476,566.16,479.36,557.31Z" transform="translate(-0.72 -9.47)" fill="#fff" opacity="0.4"/><g opacity="0.4"><path d="M106.61,514.56c2.54-40.52,17.06-86.72,40.3-132.45-21.42,36.28-41.23,74.69-52.58,110.54a29.25,29.25,0,0,0-1,13.84c1.61,9.11,5.52,24.39,14.11,32.56A123.61,123.61,0,0,1,106.61,514.56Z" transform="translate(-0.72 -9.47)" fill="#fff"/></g></g></svg>