<svg xmlns="http://www.w3.org/2000/svg" xmlns:xlink="http://www.w3.org/1999/xlink" viewBox="0 0 37.25 47.88"><defs><clipPath id="a" transform="translate(-8.46 -1.38)"><rect x="0.97" y="0.32" width="50" height="50" rx="25" fill="none"/></clipPath></defs><g clip-path="url(#a)"><path d="M16.44,36.26c-.63.63-3.36,1.67-4.38,1.43a1.61,1.61,0,0,1-1.18-1.93c.2-.61.9-.52,1.91-.28S16.85,35.85,16.44,36.26Z" transform="translate(-8.46 -1.38)" fill="#999"/><path d="M12.49,37.25A2.24,2.24,0,0,1,10.83,36a1.64,1.64,0,0,0,1.23,1.67,6,6,0,0,0,2.78-.55A7.26,7.26,0,0,1,12.49,37.25Z" transform="translate(-8.46 -1.38)" fill="#fff" opacity="0.4"/><path d="M14.37,33.66c-.43.62-2.15.15-3-.86a3.07,3.07,0,0,1-.29-3.22c.42-.62,1,0,1.84,1S14.8,33.05,14.37,33.66Z" transform="translate(-8.46 -1.38)" fill="#999"/><path d="M13.65,34.8c-.24.75-2.11,1.29-3.24.9a2.16,2.16,0,0,1-1.25-2.53c.24-.74,1-.57,2.15-.17S13.9,34.05,13.65,34.8Z" transform="translate(-8.46 -1.38)" fill="#999"/><path d="M11.19,35.73A2.38,2.38,0,0,1,9.48,33a.91.91,0,0,1,.19-.3.65.65,0,0,0-.51.49,2.16,2.16,0,0,0,1.25,2.53,3,3,0,0,0,1.14.12A2.37,2.37,0,0,1,11.19,35.73Z" transform="translate(-8.46 -1.38)" fill="#fff" opacity="0.4"/><path d="M14.26,34.51c-.42.62-4.36-1-5.18-2a3.08,3.08,0,0,1-.3-3.22c.43-.62,1,0,1.85,1S14.69,33.9,14.26,34.51Z" transform="translate(-8.46 -1.38)" fill="#999"/><path d="M17.8,34.28c-.05,1.79-3,3-4.16,2.71s-1.42-2.18-1-3.26c.19-.53.06-3.44.35-3.13.78.84,1.55,2.18,2.17,2.35C16.35,33.28,17.83,33.12,17.8,34.28Z" transform="translate(-8.46 -1.38)" fill="#999"/><path d="M13.19,31.22a7.11,7.11,0,0,0,1.48,1.43c-.51-.47-1.08-1.37-1.66-2L13,30.57c-.82-1-1.42-1.61-1.84-1a3.06,3.06,0,0,0,0,2.81,2.55,2.55,0,0,1,0-2.06C11.67,29.34,12.79,30.7,13.19,31.22Z" transform="translate(-8.46 -1.38)" fill="#fff" opacity="0.4"/><path d="M14.26,34.51c-.42.62-4.36-1-5.18-2a3.08,3.08,0,0,1-.3-3.22c.43-.62,1,0,1.85,1S14.69,33.9,14.26,34.51Z" transform="translate(-8.46 -1.38)" fill="#999"/><path d="M8.78,29.27a3.08,3.08,0,0,0,.3,3.22l.06.08A3,3,0,0,1,9,30.09c.37-.67,1-.16,1.94.72a7.77,7.77,0,0,0,.85.66,15.46,15.46,0,0,1-1.18-1.21C9.81,29.26,9.21,28.65,8.78,29.27Z" transform="translate(-8.46 -1.38)" fill="#fff" opacity="0.4"/><path d="M16.56,34.85c-.18.76-3.84,1.17-4.79.65a2.81,2.81,0,0,1-1.13-2.75c.18-.76.83-.5,1.78,0S16.74,34.09,16.56,34.85Z" transform="translate(-8.46 -1.38)" fill="#999"/><path d="M10.64,32.75a2.81,2.81,0,0,0,1.13,2.75l.08,0a2.81,2.81,0,0,1-.79-2.17c.12-.78.79-.63,1.78-.27a4.93,4.93,0,0,0,.88.18,10.15,10.15,0,0,1-1.3-.52C11.47,32.25,10.82,32,10.64,32.75Z" transform="translate(-8.46 -1.38)" fill="#fff" opacity="0.4"/><g opacity="0.2"><path d="M13.15,36.27c-.34,0-.58-.05-.6.11s.16.41.51.45.84-.13.87-.28S13.5,36.31,13.15,36.27Z" transform="translate(-8.46 -1.38)" opacity="0.4"/><path d="M13.49,35.74c.07-.14-.34-.39-.65-.56s-.53-.26-.59-.12,0,.46.36.63S13.43,35.88,13.49,35.74Z" transform="translate(-8.46 -1.38)" opacity="0.4"/><path d="M14.05,35.77c-.22,0-.37,0-.4.09a.37.37,0,0,0,.31.4c.22,0,.56-.11.59-.25S14.28,35.8,14.05,35.77Z" transform="translate(-8.46 -1.38)" opacity="0.4"/></g><path d="M38.94,25.88c1-.09,2.18-3.23,2-5.45S39,16.86,38,17s-1,1.59-.77,3.81S37.93,26,38.94,25.88Z" transform="translate(-8.46 -1.38)" fill="#b8b6b7"/><path d="M40.39,27.61c1,.31,3.27-2.11,4-4.24s-.32-4-1.29-4.33-1.53,1.08-2.21,3.21S39.42,27.3,40.39,27.61Z" transform="translate(-8.46 -1.38)" fill="#b8b6b7"/><path d="M43.68,23.69a5.39,5.39,0,0,0-.32-4.5,3.8,3.8,0,0,1,1,4.18,8.67,8.67,0,0,1-2.27,3.43A11.66,11.66,0,0,0,43.68,23.69Z" transform="translate(-8.46 -1.38)" fill="#fff" opacity="0.4"/><path d="M40.53,29.53c.68.52,3.21-.72,4.37-2.21s.91-3.28.23-3.8-1.52.41-2.68,1.89S39.86,29,40.53,29.53Z" transform="translate(-8.46 -1.38)" fill="#b8b6b7"/><path d="M44.45,27a4.74,4.74,0,0,0,1.07-2.94,3.43,3.43,0,0,1-.62,3.27A6.48,6.48,0,0,1,41,29.65,9.74,9.74,0,0,0,44.45,27Z" transform="translate(-8.46 -1.38)" fill="#fff" opacity="0.4"/><path d="M39.88,26.51c1-.1,3.15-7.79,2.94-10S40.94,12.93,39.93,13s-1,1.6-.78,3.82S38.87,26.6,39.88,26.51Z" transform="translate(-8.46 -1.38)" fill="#b8b6b7"/><path d="M42.51,17.25c-.29-2.22-2-3.5-3-3.36a.79.79,0,0,0-.41.16c.11-.61.35-1,.84-1,1-.09,2.68,1.25,2.89,3.47a16.25,16.25,0,0,1-.61,4.26A13.58,13.58,0,0,0,42.51,17.25Z" transform="translate(-8.46 -1.38)" fill="#fff" opacity="0.4"/><path d="M27.61,45.38c7.21,0,16.88,1.63,16.88,2.21s-9.67,1.06-16.88,1.06-15.33-.47-15.33-1.06S20.41,45.38,27.61,45.38Z" transform="translate(-8.46 -1.38)" opacity="0.1"/><polygon points="13.09 38.48 12.77 44.94 12.51 44.94 12.32 38.06 13.09 38.48" fill="#ff9e2e"/><polygon points="12.63 44.94 12.51 44.94 12.32 38.06 12.63 44.94" fill="#fff" opacity="0.4"/><polygon points="12.62 41.65 12.87 41.69 13.09 38.48 12.83 43.64 12.83 43.64 12.83 43.71 12.83 43.71 12.8 44.24 12.8 44.24 12.8 44.28 12.77 44.94 12.65 44.94 12.7 44.24 12.65 44.22 12.7 44.22 12.73 43.66 12.62 43.61 12.74 43.63 12.77 43.2 12.61 43.13 12.77 43.15 12.8 42.72 12.56 42.61 12.8 42.64 12.83 42.24 12.6 42.14 12.84 42.17 12.87 41.76 12.62 41.65" fill="#d04000" opacity="0.4"/><path d="M21.71,40.08a1.72,1.72,0,0,1,1.55,1.76,3.5,3.5,0,0,1-1.18,1.85,1.12,1.12,0,0,1-1.75-.43l0,0a4.24,4.24,0,0,1-.19-1.86A1.35,1.35,0,0,1,21.71,40.08Z" transform="translate(-8.46 -1.38)" fill="#b8b6b7"/><path d="M20.69,43.31l0,.08a1.91,1.91,0,0,0,.32.51,1.07,1.07,0,0,1-.71-.64l0,0a4.24,4.24,0,0,1-.19-1.86,2.26,2.26,0,0,1,.2-.62A7.66,7.66,0,0,0,20.69,43.31Z" transform="translate(-8.46 -1.38)" opacity="0.2"/><path d="M18.42,46.14c1.19-1,3-.32,4.6.85a7.21,7.21,0,0,0-2.53-.62A2.67,2.67,0,0,0,20.34,48a3.83,3.83,0,0,0,.2.63,3.18,3.18,0,0,1-.81-1.4,1.76,1.76,0,0,1,0-.51A3.09,3.09,0,0,0,19,48.46a4.27,4.27,0,0,0,0,.8,3.78,3.78,0,0,1-.42-1.9,1.79,1.79,0,0,1,.18-.66,3.45,3.45,0,0,0-.76.48,4.17,4.17,0,0,0-.55.56A3.4,3.4,0,0,1,18.42,46.14Z" transform="translate(-8.46 -1.38)" fill="#ff9e2e"/><path d="M18,47.11a1.33,1.33,0,0,1,.77-.41,3.45,3.45,0,0,0-.76.48,4.17,4.17,0,0,0-.55.56A7.54,7.54,0,0,1,18,47.11Z" transform="translate(-8.46 -1.38)" fill="#d04000" opacity="0.4"/><path d="M19,49.26c0-.28-.11-.63-.11-.84a2.28,2.28,0,0,1,.82-1.71A3.09,3.09,0,0,0,19,48.46,4.27,4.27,0,0,0,19,49.26Z" transform="translate(-8.46 -1.38)" fill="#d04000" opacity="0.4"/><path d="M20.34,48a3.23,3.23,0,0,1,0-1.77A8.53,8.53,0,0,1,23,47a7.21,7.21,0,0,0-2.53-.62A2.67,2.67,0,0,0,20.34,48Z" transform="translate(-8.46 -1.38)" fill="#d04000" opacity="0.4"/><path d="M17.45,47.74a2.54,2.54,0,0,1,.94-1.35,3.35,3.35,0,0,1,3-.35,2.79,2.79,0,0,0-3,.1A3.4,3.4,0,0,0,17.45,47.74Z" transform="translate(-8.46 -1.38)" fill="#fff" opacity="0.4"/><polygon points="24.43 38.88 27.21 44.73 26.98 44.84 23.55 38.88 24.43 38.88" fill="#ff9e2e"/><polygon points="27.09 44.79 26.98 44.84 23.55 38.88 27.09 44.79" fill="#fff" opacity="0.4"/><polygon points="25.52 41.9 25.75 41.81 24.43 38.88 26.65 43.55 26.65 43.55 26.68 43.61 26.68 43.61 26.91 44.09 26.91 44.09 26.93 44.13 27.21 44.73 27.1 44.78 26.81 44.14 26.76 44.14 26.81 44.13 26.57 43.61 26.45 43.62 26.56 43.58 26.38 43.19 26.21 43.21 26.36 43.15 26.18 42.75 25.92 42.77 26.15 42.68 25.99 42.32 25.73 42.33 25.95 42.25 25.79 41.88 25.52 41.9" fill="#d04000" opacity="0.4"/><path d="M37,45.91c-1.39-.66-3,.4-4.27,1.92a7.21,7.21,0,0,1,2.31-1.2,2.64,2.64,0,0,1,.53,1.53,3.07,3.07,0,0,1-.05.67A3.21,3.21,0,0,0,36,47.27a1.65,1.65,0,0,0-.1-.5A3.13,3.13,0,0,1,37,48.3a4.46,4.46,0,0,1,.18.78,3.81,3.81,0,0,0,0-1.94,1.84,1.84,0,0,0-.34-.6,3,3,0,0,1,.85.28,3.88,3.88,0,0,1,.67.41A3.41,3.41,0,0,0,37,45.91Z" transform="translate(-8.46 -1.38)" fill="#ff9e2e"/><path d="M37.67,46.75a1.28,1.28,0,0,0-.84-.21,3,3,0,0,1,.85.28,3.88,3.88,0,0,1,.67.41C38.14,47.07,37.85,46.86,37.67,46.75Z" transform="translate(-8.46 -1.38)" fill="#d04000" opacity="0.4"/><path d="M37.2,49.08c0-.28,0-.64-.08-.84a2.3,2.3,0,0,0-1.21-1.47A3.13,3.13,0,0,1,37,48.3,4.46,4.46,0,0,1,37.2,49.08Z" transform="translate(-8.46 -1.38)" fill="#d04000" opacity="0.4"/><path d="M35.6,48.16a3.2,3.2,0,0,0-.41-1.72,8.75,8.75,0,0,0-2.43,1.39,7.21,7.21,0,0,1,2.31-1.2A2.64,2.64,0,0,1,35.6,48.16Z" transform="translate(-8.46 -1.38)" fill="#d04000" opacity="0.4"/><path d="M37,45.91a2.81,2.81,0,0,0-2.91.61,3.38,3.38,0,0,1,3-.38,2.6,2.6,0,0,1,1.23,1.09A3.41,3.41,0,0,0,37,45.91Z" transform="translate(-8.46 -1.38)" fill="#fff" opacity="0.4"/><path d="M35.49,43.24a1.48,1.48,0,0,1-2.11,1.13l-.06,0a5.54,5.54,0,0,1-1.83-1.68A1.78,1.78,0,0,1,31.94,40a2.25,2.25,0,0,1,3.08.37A4.63,4.63,0,0,1,35.49,43.24Z" transform="translate(-8.46 -1.38)" fill="#b8b6b7"/><path d="M34.38,40.46a2.29,2.29,0,0,0-1.13-.89,1.94,1.94,0,0,1,1.77.8,4.63,4.63,0,0,1,.47,2.87,1.46,1.46,0,0,1-.47.88A6.23,6.23,0,0,0,34.38,40.46Z" transform="translate(-8.46 -1.38)" fill="#fff" opacity="0.3"/><path d="M31.28,40.69a3,3,0,0,0,.42,1.36,7.27,7.27,0,0,0,2.23,2.31l.08,0,.2.1a1.36,1.36,0,0,1-.83-.14l-.06,0a5.54,5.54,0,0,1-1.83-1.68A1.93,1.93,0,0,1,31.28,40.69Z" transform="translate(-8.46 -1.38)" opacity="0.2"/><path d="M13.75,20.66c1.31-3.81,9.73,0,15.67,1.35,1.7.38,3.39,3.32,4.42,2.44,5.41-4.67,8.4.89,8.4,5.85S37.75,41.26,33,42C9.7,45.67,9.6,32.7,13.75,20.66Z" transform="translate(-8.46 -1.38)" fill="#b8b6b7"/><path d="M35,40.5q-3.2,1.23-5.91,2c1.22-.1,2.51-.26,3.89-.47,4-.63,7.85-5,8.93-9.38C40.75,36.05,38.18,39.28,35,40.5Z" transform="translate(-8.46 -1.38)" opacity="0.15"/><path d="M13.75,20.66a2.24,2.24,0,0,1,1.6-1.47,11.56,11.56,0,0,0-1.37,4,8.31,8.31,0,0,0-.07,1.63A25.37,25.37,0,0,1,13.78,29c-.56,4.68.07,8.93,2.92,11.74C10.11,37.1,11,28.67,13.75,20.66Z" transform="translate(-8.46 -1.38)" opacity="0.15"/><path d="M39.13,23.06a6.33,6.33,0,0,0-3.37,1.84c-.47.42-1.07,0-1.75-.6C36.09,22.57,37.81,22.37,39.13,23.06Z" transform="translate(-8.46 -1.38)" fill="#fff" opacity="0.35"/><path d="M26.51,8.58c-.92.09-2.47-2.2-2.64-4a2.91,2.91,0,0,1,2-3.21c.92-.09,1.14,1.1,1.31,2.89S27.43,8.49,26.51,8.58Z" transform="translate(-8.46 -1.38)" fill="#c1272d"/><path d="M25.89,1.38a.79.79,0,0,1,.82.48.87.87,0,0,0-.4-.05,2.91,2.91,0,0,0-1.94,3.26A6.34,6.34,0,0,0,26.12,8.5a5.67,5.67,0,0,1-2.25-3.91A2.91,2.91,0,0,1,25.89,1.38Z" transform="translate(-8.46 -1.38)" fill="#fff" opacity="0.4"/><path d="M26.85,8.92c-.74-.55-.36-3.29.71-4.74a2.91,2.91,0,0,1,3.65-1c.74.55.11,1.58-1,3S27.6,9.47,26.85,8.92Z" transform="translate(-8.46 -1.38)" fill="#c1272d"/><path d="M30.79,3.82a2.9,2.9,0,0,0-3.61,1,3.9,3.9,0,0,1,.38-.63,2.91,2.91,0,0,1,3.65-1c.61.45.3,1.22-.42,2.27C31.18,4.71,31.26,4.17,30.79,3.82Z" transform="translate(-8.46 -1.38)" fill="#fff" opacity="0.4"/><path d="M28.2,8.89c-.24-.65,1.11-2.2,2.37-2.67a2.17,2.17,0,0,1,2.7.85c.24.65-.57,1-1.83,1.5S28.44,9.54,28.2,8.89Z" transform="translate(-8.46 -1.38)" fill="#c1272d"/><path d="M32.68,7.41a2.23,2.23,0,0,0-1.95-1.24,2.13,2.13,0,0,1,2.54.9c.16.41-.12.72-.67,1A.66.66,0,0,0,32.68,7.41Z" transform="translate(-8.46 -1.38)" fill="#fff" opacity="0.4"/><path d="M29.28,8.52c3.45,0,6.1,2.81,6,5.64s-2.79,4.69-6,4.7-5.81-1.85-6-4.7S25.84,8.52,29.28,8.52Z" transform="translate(-8.46 -1.38)" fill="#d6c6b6"/><path d="M13.24,21.08a33.31,33.31,0,0,1,3.55-7,2.68,2.68,0,0,1-.69-1.69,3.61,3.61,0,0,1,3.71-3.52A3.88,3.88,0,0,1,21,9l0,0a9.92,9.92,0,0,1,4.07-2.19,4.84,4.84,0,0,1,1.26-.16h0A4.5,4.5,0,0,1,28,6.94a7.3,7.3,0,0,1,2.58,1.72,5.69,5.69,0,0,1,4.62,5.5A4.6,4.6,0,0,1,34.75,16a34.69,34.69,0,0,1,1.76,6.4c.11.6-.19,2.05-1.27,2.26a2,2,0,0,1-1.4-.2,1.82,1.82,0,0,1-1.62,1.27,1.76,1.76,0,0,1-1.54-.85,1.6,1.6,0,0,1-1.09,1.45,2.4,2.4,0,0,1-2.29-.72,1.74,1.74,0,0,1-1.63,1,2,2,0,0,1-1.49-.95,2.44,2.44,0,0,1-1.37.6,1.61,1.61,0,0,1-1.42-.76,2.43,2.43,0,0,1-1.48.34,1.77,1.77,0,0,1-1.38-1.37,2.49,2.49,0,0,1-1.42.29,1.67,1.67,0,0,1-1.33-1.22,1.9,1.9,0,0,1-1.38.2c-.79-.15-1.1-1.31-1.21-1.92A1.52,1.52,0,0,1,13.24,21.08Z" transform="translate(-8.46 -1.38)" fill="#dcdcde"/><path d="M21,9l0,0a10.17,10.17,0,0,1,3.36-2,9.26,9.26,0,0,0-2.89,2.21,3.59,3.59,0,0,0-.51-.2Z" transform="translate(-8.46 -1.38)" fill="#998675" opacity="0.2"/><path d="M30.62,8.66a7.54,7.54,0,0,0-.83-.12A6.7,6.7,0,0,0,27.91,7c-.17-.08-.35-.18-.57-.26.27.07.5.15.7.22A7.3,7.3,0,0,1,30.62,8.66Z" transform="translate(-8.46 -1.38)" fill="#998675" opacity="0.2"/><path d="M34,15.54a4.94,4.94,0,0,0,.55-1.9,5.39,5.39,0,0,0-.92-3.37,5.18,5.18,0,0,1,1.64,3.89A4.6,4.6,0,0,1,34.75,16a34.69,34.69,0,0,1,1.76,6.4c.11.6-.19,2.05-1.27,2.26a2.14,2.14,0,0,1-1.05,0c1.07-.2,1.42-1.69,1.32-2.32A37.47,37.47,0,0,0,34,15.54Z" transform="translate(-8.46 -1.38)" fill="#fff" opacity="0.35"/><path d="M21.5,25.58h0l0,0Zm-8.31-3.8c.11.61.42,1.77,1.21,1.92a1.9,1.9,0,0,0,1.38-.2,1.67,1.67,0,0,0,1.33,1.22,2.49,2.49,0,0,0,1.42-.29,1.82,1.82,0,0,0,1.21,1.34,2,2,0,0,1-1-1.54,2.25,2.25,0,0,1-1.45.22A1.74,1.74,0,0,1,16.06,23a1.74,1.74,0,0,1-1.39.11c-.78-.22-1-1.51-1.05-2.19a1.82,1.82,0,0,1,.1-.77,39,39,0,0,1,4.11-7.5,3.25,3.25,0,0,1-.54-1.92,3.46,3.46,0,0,1,.25-1.18,3.35,3.35,0,0,0-1.44,2.78A2.68,2.68,0,0,0,16.79,14a33.31,33.31,0,0,0-3.55,7A1.52,1.52,0,0,0,13.19,21.78Z" transform="translate(-8.46 -1.38)" fill="#998675" opacity="0.2"/><path d="M28.77,8.82a7.12,7.12,0,0,0-2.33.39,6.21,6.21,0,0,1,2.84-.69,6,6,0,0,1,5.79,4.21A7,7,0,0,0,28.77,8.82Z" transform="translate(-8.46 -1.38)" fill="#fff" opacity="0.3"/><path d="M19.49,9A4.59,4.59,0,0,0,18,9.25a3.83,3.83,0,0,1,1.77-.43,3.75,3.75,0,0,1,3.61,2.62A4.35,4.35,0,0,0,19.49,9Z" transform="translate(-8.46 -1.38)" fill="#fff" opacity="0.3"/><path d="M18,9.52a4.29,4.29,0,0,1,4.42,4.19c-.1,2.12-2.07,3.48-4.42,3.49s-4.32-1.37-4.42-3.49A4.29,4.29,0,0,1,18,9.52Z" transform="translate(-8.46 -1.38)" fill="#ffe7d4"/><path d="M17.45,9.55a4.18,4.18,0,0,0-3.1,4c.1,2.12,2.07,3.49,4.42,3.5a6.49,6.49,0,0,0,.78-.06A5.44,5.44,0,0,1,18,17.2c-2.35,0-4.32-1.37-4.42-3.49A4.26,4.26,0,0,1,17.45,9.55Z" transform="translate(-8.46 -1.38)" fill="#e75400" opacity="0.2"/><path d="M29.86,9.27c3.44,0,6.09,2.81,6,5.64s-2.79,4.69-6,4.7-5.82-1.85-5.95-4.7S26.42,9.27,29.86,9.27Z" transform="translate(-8.46 -1.38)" fill="#ffe7d4"/><path d="M28.4,19.15c3.16,0,5.82-2,6-5a5.63,5.63,0,0,0-1.8-4.28,5.5,5.5,0,0,1,3.26,5c-.14,2.85-2.79,4.69-6,4.7a7.28,7.28,0,0,1-3-.62A7.73,7.73,0,0,0,28.4,19.15Z" transform="translate(-8.46 -1.38)" fill="#e75400" opacity="0.2"/><path d="M26.93,13.38s0,.07,0,.1a1,1,0,1,0,1-1,.91.91,0,0,0-.23,0,1.71,1.71,0,0,1,.87-.23,1.75,1.75,0,1,1-1.62,1.09Z" transform="translate(-8.46 -1.38)" fill="#51364d"/><circle cx="21.33" cy="13.78" r="0.47" fill="#fff"/><path d="M30.41,15.78a.15.15,0,1,1,.15-.15A.15.15,0,0,1,30.41,15.78Z" transform="translate(-8.46 -1.38)" fill="#fff"/><path d="M20.57,13.3h0a.44.44,0,1,0-.13.88.44.44,0,0,0,.5-.38.34.34,0,0,0,0-.1.88.88,0,0,1,0,.4.78.78,0,1,1-.66-.9A.85.85,0,0,1,20.57,13.3Z" transform="translate(-8.46 -1.38)" fill="#51364d"/><path d="M20.63,14.79a.21.21,0,0,1-.21-.21.2.2,0,0,1,.21-.2.2.2,0,0,1,.2.2A.2.2,0,0,1,20.63,14.79Z" transform="translate(-8.46 -1.38)" fill="#fff"/><circle cx="12.44" cy="13.41" r="0.06" fill="#fff"/><path d="M23.55,21c.9-.72,2.52,1.12,3.6,2.59s1.7,2.53.81,3.26a3,3,0,0,1-4.05-.64C22.83,24.77,22.65,21.76,23.55,21Z" transform="translate(-8.46 -1.38)" fill="#c1272d"/><path d="M27.11,27.09c.94-.8.37-2.13-.63-4-.17-.32-.35-.65-.54-1a16.66,16.66,0,0,1,1.21,1.48c1.08,1.47,1.7,2.53.81,3.26a2.58,2.58,0,0,1-1.32.5A2,2,0,0,0,27.11,27.09Z" transform="translate(-8.46 -1.38)" fill="#fff" opacity="0.4"/><path d="M16.31,23.1c.46-1.47,2.39-3,3.3-2.75s.45,2.32,0,3.79-.88,2.42-1.79,2.13A2.65,2.65,0,0,1,16.31,23.1Z" transform="translate(-8.46 -1.38)" fill="#c1272d"/><path d="M19.09,23.82c.23-.82.64-2,.93-3.06.3.73-.06,2.23-.42,3.38-.43,1.35-.82,2.26-1.58,2.18A5.46,5.46,0,0,0,19.09,23.82Z" transform="translate(-8.46 -1.38)" fill="#fff" opacity="0.4"/><path d="M26,19.88s-.8,4.78-4.43,4.2C20,23.83,16,18.33,16,18.33S23.31,17.81,26,19.88Z" transform="translate(-8.46 -1.38)" fill="#ff9e2e"/><path d="M21.86,23.37a3.53,3.53,0,0,0,3.81-2.3c-.5,1.38-1.67,3.4-4.11,3-.83-.13-2.34-1.75-3.57-3.24C19.61,22.13,21.2,23.27,21.86,23.37Z" transform="translate(-8.46 -1.38)" opacity="0.1"/><path d="M17.57,20.32c-.5-.61-.92-1.16-1.2-1.53,1.68-.19,6-.54,8.53.47a5.45,5.45,0,0,1,.8.41C24.2,19.24,21.11,19.62,17.57,20.32Z" transform="translate(-8.46 -1.38)" opacity="0.1"/><path d="M16.58,14.72c1.16-1.11,2.89,3.38,5,2.2s4.44,3,4.45,3c-2.81-.78-8.33,0-11.15.33C14.83,20.19,15.67,15.56,16.58,14.72Z" transform="translate(-8.46 -1.38)" fill="#ff9e2e"/><path d="M16.58,14.72c1.16-1.11,2.89,3.38,5,2.2,1.06-.61,2.2.2,3.07,1.12-.95-.73-2.14-1.29-3.06-.76-2.07,1.18-3.67-2.08-4.84-1-.9.84-1.88,3.88-1.87,3.9S15.67,15.56,16.58,14.72Z" transform="translate(-8.46 -1.38)" fill="#fff" opacity="0.4"/><path d="M15.52,17.19a4.67,4.67,0,0,1,1.13-2.29c1.32-.79,2.79,3.36,4.85,2.18.91-.52,2,0,2.84.69-.82-.8-1.85-1.4-2.8-.85-2.07,1.18-3.8-3.31-5-2.2A6.44,6.44,0,0,0,15.52,17.19Z" transform="translate(-8.46 -1.38)" fill="#fff" opacity="0.2"/><path d="M22.92,17.54s.21.28-.07.28a4.05,4.05,0,0,1-.69-.28A2,2,0,0,1,22.92,17.54Z" transform="translate(-8.46 -1.38)" opacity="0.2"/><path d="M31,35.48a10.11,10.11,0,0,0,5,2,1.71,1.71,0,0,0,1.76-1.74c-.13-.63-1-.64-2.25-.55S30.59,35,31,35.48Z" transform="translate(-8.46 -1.38)" fill="#999"/><path d="M35.6,37a2.94,2.94,0,0,0,2.22-1A1.83,1.83,0,0,1,36,37.51a8.42,8.42,0,0,1-3.26-.94A10.77,10.77,0,0,0,35.6,37Z" transform="translate(-8.46 -1.38)" fill="#fff" opacity="0.4"/><path d="M34,33.2c.41.67,2.56.45,3.73-.43a2.71,2.71,0,0,0,.92-3.14c-.41-.68-1.23-.16-2.4.71S33.55,32.53,34,33.2Z" transform="translate(-8.46 -1.38)" fill="#999"/><path d="M34.63,34.43c.16.77,2.32,1.58,3.74,1.35a2.22,2.22,0,0,0,2-2.32c-.17-.77-1.14-.71-2.56-.48S34.46,33.65,34.63,34.43Z" transform="translate(-8.46 -1.38)" fill="#999"/><path d="M37.43,35.7c1.85-.24,2.76-1.65,2.54-2.48a.78.78,0,0,0-.18-.32.72.72,0,0,1,.54.56,2.22,2.22,0,0,1-2,2.32,4.37,4.37,0,0,1-1.39,0Z" transform="translate(-8.46 -1.38)" fill="#fff" opacity="0.4"/><path d="M33.94,34.05c.41.68,5.44-.37,6.6-1.25a2.69,2.69,0,0,0,.92-3.15c-.4-.67-1.23-.16-2.39.72S33.53,33.38,33.94,34.05Z" transform="translate(-8.46 -1.38)" fill="#999"/><path d="M29.72,33.31c-.26,1.79,3,3.45,4.54,3.29s2.09-2,1.8-3.09c-.14-.55.53-3.41.12-3.14-1.08.72-2.25,1.93-3,2C31.65,32.54,29.89,32.17,29.72,33.31Z" transform="translate(-8.46 -1.38)" fill="#999"/><path d="M38.49,30.37a2.17,2.17,0,0,1-.4,2,2.67,2.67,0,0,0,.52-2.78c-.41-.68-1.23-.16-2.4.71l-.08.06c-.81.55-1.66,1.36-2.36,1.75a8.66,8.66,0,0,0,2-1.2C36.38,30.49,38,29.3,38.49,30.37Z" transform="translate(-8.46 -1.38)" fill="#fff" opacity="0.4"/><path d="M33.94,34.05c.41.68,5.44-.37,6.6-1.25a2.69,2.69,0,0,0,.92-3.15c-.4-.67-1.23-.16-2.39.72S33.53,33.38,33.94,34.05Z" transform="translate(-8.46 -1.38)" fill="#999"/><path d="M39.07,30.37c-.34.26-1,.62-1.65,1a10.32,10.32,0,0,0,1.15-.53c1.26-.74,2.13-1.16,2.46-.44a2.57,2.57,0,0,1-.58,2.44l.09-.07a2.69,2.69,0,0,0,.92-3.15C41.06,29,40.23,29.49,39.07,30.37Z" transform="translate(-8.46 -1.38)" fill="#fff" opacity="0.4"/><path d="M31.12,34.06c.08.77,4.42,1.7,5.65,1.33a2.79,2.79,0,0,0,1.85-2.56c-.09-.77-.92-.61-2.15-.24S31,33.28,31.12,34.06Z" transform="translate(-8.46 -1.38)" fill="#999"/><path d="M36.47,32.59c-.36.11-1,.21-1.66.33a9.53,9.53,0,0,0,1.09-.06c1.26-.21,2.1-.26,2.1.52a2.7,2.7,0,0,1-1.33,2l.1,0a2.79,2.79,0,0,0,1.85-2.56C38.53,32.06,37.7,32.22,36.47,32.59Z" transform="translate(-8.46 -1.38)" fill="#fff" opacity="0.4"/><g opacity="0.2"><path d="M35,36c.43,0,.71,0,.71.19s-.27.38-.69.37-1-.24-1-.4S34.55,36,35,36Z" transform="translate(-8.46 -1.38)" opacity="0.4"/><path d="M34.65,35.38c0-.15.49-.34.89-.46s.68-.18.74,0-.14.45-.55.57S34.71,35.53,34.65,35.38Z" transform="translate(-8.46 -1.38)" opacity="0.4"/><path d="M34,35.33c.28,0,.46,0,.47.15a.4.4,0,0,1-.43.35c-.28,0-.66-.19-.67-.33S33.7,35.33,34,35.33Z" transform="translate(-8.46 -1.38)" opacity="0.4"/></g><path d="M15.68,31.84c.07-.9.68-2.1,1-2.09s.31,1.23.23,2.13-.16,1.5-.51,1.49S15.6,32.75,15.68,31.84Z" transform="translate(-8.46 -1.38)" fill="#fff" opacity="0.4"/><path d="M18.28,31.27c.33-.09.69,1.08.91,2s.33,1.48,0,1.58-1-.36-1.21-1.24S17.94,31.37,18.28,31.27Z" transform="translate(-8.46 -1.38)" fill="#fff" opacity="0.4"/><path d="M19.29,30.19c0-.59.51-1.38.83-1.38s.32.79.29,1.38-.08,1-.39,1A.9.9,0,0,1,19.29,30.19Z" transform="translate(-8.46 -1.38)" fill="#fff" opacity="0.4"/><path d="M21.24,36c.25-.1.61.77.84,1.44s.35,1.12.1,1.22-.78-.19-1-.85S21,36.07,21.24,36Z" transform="translate(-8.46 -1.38)" fill="#fff" opacity="0.4"/><path d="M25.32,37.08c.43.56.69,1,.49,1.12s-.81.06-1.24-.5-.72-1.54-.51-1.72S24.89,36.53,25.32,37.08Z" transform="translate(-8.46 -1.38)" fill="#fff" opacity="0.4"/><path d="M21.68,33.15c-.21-.55-.09-1.47.2-1.6s.62.59.83,1.14.32.93,0,1.06A.9.9,0,0,1,21.68,33.15Z" transform="translate(-8.46 -1.38)" fill="#fff" opacity="0.4"/><path d="M32.75,21.47c0-.55-.45-1.27-.68-1.26s-.2.74-.15,1.28.11.91.34.9S32.8,22,32.75,21.47Z" transform="translate(-8.46 -1.38)" fill="#fff" opacity="0.4"/><path d="M30,21.54c-.28,0-.38.81-.43,1.41s0,1,.25,1a1,1,0,0,0,.77-1C30.65,22.34,30.3,21.53,30,21.54Z" transform="translate(-8.46 -1.38)" fill="#fff" opacity="0.4"/><path d="M34.7,21.94c0-.48-.42-1.12-.68-1.12s-.27.64-.24,1.12.07.8.32.8A.73.73,0,0,0,34.7,21.94Z" transform="translate(-8.46 -1.38)" fill="#fff" opacity="0.4"/><path d="M32.75,24.36c.17-.45.07-1.2-.17-1.31s-.5.48-.67.93-.27.76,0,.87A.75.75,0,0,0,32.75,24.36Z" transform="translate(-8.46 -1.38)" fill="#fff" opacity="0.4"/></g></svg>