<svg xmlns="http://www.w3.org/2000/svg" xmlns:xlink="http://www.w3.org/1999/xlink" viewBox="0 0 1009.26 1069.02"><defs><clipPath id="a" transform="translate(-32.54 -36.08)"><rect width="1079.61" height="1079.61" rx="194.21" fill="none"/></clipPath></defs><g clip-path="url(#a)"><polygon points="950.06 646.25 962.16 662.13 1009.26 657.23 979.67 634.64 986.84 604.16 952.63 621.37 950.06 646.25" fill="#534741"/><path d="M854.39,639.3l-1.8,92.14L994.7,698.21v-.11a68.55,68.55,0,0,0-9.54-40.66h0Z" transform="translate(-32.54 -36.08)" fill="#f79594"/><path d="M852.59,731.44,994.7,698.21l47.1-4.9L990.36,689a41.9,41.9,0,0,0-16.82,2Z" transform="translate(-32.54 -36.08)" fill="#b75554" opacity="0.2"/><path d="M964.6,666.33A43,43,0,0,0,1006,654.28l13.43-14-34.21,17.2-59.34-8.23Z" transform="translate(-32.54 -36.08)" fill="#fff" opacity="0.4"/><path d="M622.16,1011c-171.76,0-311,39-311,58.62s139.24,35.45,311,35.45,311-15.87,311-35.45S793.93,1011,622.16,1011Z" transform="translate(-32.54 -36.08)" opacity="0.1"/><path d="M605.46,995.83q8.87-.44,17.74-.92,1.13,23,1.09,45.84-12-11-24.24-22-12.64,6.36-25.37,12.46,5.88-17,11-34.33Q595.57,996.41,605.46,995.83Z" transform="translate(-32.54 -36.08)" fill="#534741"/><path d="M585.72,996.9A1119.71,1119.71,0,0,0,543.3,886.39q38.16-13.35,76.09-28.7a913.43,913.43,0,0,1,3.81,137.22Q616.78,997,610.35,999a31.56,31.56,0,0,1-24.63-2.08Z" transform="translate(-32.54 -36.08)" fill="#f79594"/><path d="M588.19,1010.15c-5.07,7.06-11.09,14.07-13.51,21.08q5.88-17,11-34.33A1119.71,1119.71,0,0,0,543.3,886.39c14.54,32.66,35.22,65.72,48,99A26.28,26.28,0,0,1,588.19,1010.15Z" transform="translate(-32.54 -36.08)" fill="#fff" opacity="0.4"/><path d="M623.25,909.32q2,42.93,0,85.59,1.13,23,1.09,45.84c0-15.24-9.38-28.11-10.13-43.42C615.36,972.56,620,940.65,623.25,909.32Z" transform="translate(-32.54 -36.08)" fill="#b75554" opacity="0.2"/><path d="M908.39,518.43c-1-.6-1.91-1.21-2.85-1.84a137,137,0,0,1-19.73-15.71c3.53-2.51,7-5.13,10.45-7.87l2.25-1.82q2.25-1.85,4.45-3.76c1.47-1.29,2.92-2.6,4.35-3.95q3.23-3,6.32-6.35a94.68,94.68,0,0,0,7.79-9.54c.6-.86,1.2-1.74,1.78-2.65a55.82,55.82,0,0,0,4.65-8.83,36.6,36.6,0,0,0,2.85-12.55c0-.65,0-1.32,0-2a28,28,0,0,0-1.47-8q-.35-1-.75-1.92a26.31,26.31,0,0,0-1.92-3.6q-.54-.86-1.14-1.65c-.35-.47-.71-.92-1.08-1.36l-.33-.37q-.45-.52-.93-1l-.42-.43q-.43-.43-.87-.84l-.62-.55c-.16-.14-.32-.28-.49-.41-.52-.44-1.06-.86-1.6-1.26h0a36.3,36.3,0,0,0-5-3.06,47,47,0,0,0-12.5-4.15,58,58,0,0,0-24.86.93,48.42,48.42,0,0,0-11.71,4.73,36.85,36.85,0,0,0-10,8.29,31,31,0,0,0-6.13,11.74,34.66,34.66,0,0,0-.93,12.71A44,44,0,0,0,849,457.4a55.25,55.25,0,0,0,1.8,5.68,74.48,74.48,0,0,0,4.91,10.49,96.16,96.16,0,0,0,8.07,12.14c-6.86,3.73-13.9,7.24-21,10.58-1.28-3,5.82,14.2,9,26,8.77-5,17.44-10.2,25.93-15.85,1.24-.83,2.49-1.67,3.71-2.53h0a142.11,142.11,0,0,0,22.42,15.42c1,.56,2,1.1,3,1.64A1.5,1.5,0,0,0,908.39,518.43Zm-4.56-61.32c-1.6,1.74-3.33,3.44-5.14,5.08a126.68,126.68,0,0,1-11.8,9.36q-2.1,1.49-4.24,2.91c-2.8,1.87-5.68,3.67-8.61,5.42q-2,1.2-4,2.37a88.5,88.5,0,0,1-7-12.39,67.74,67.74,0,0,1-3.67-9.61c-.47-1.62-.84-3.24-1.14-4.84a31.56,31.56,0,0,1-.46-4.73,24.4,24.4,0,0,1,1.4-8.89,19.92,19.92,0,0,1,4.59-7.14c4-4,9.88-6.53,16-7.57a43.45,43.45,0,0,1,18.53.92,30.29,30.29,0,0,1,7.93,3.41c.39.24.74.51,1.1.77s.77.59,1.12.89l.22.19c.31.27.59.54.86.81s.28.31.42.47a7.46,7.46,0,0,1,.53.61,10.06,10.06,0,0,1,.8,1.16,8.78,8.78,0,0,1,1.2,5.32,13.23,13.23,0,0,1-.65,3.14,21.32,21.32,0,0,1-1.47,3.46c-.31.6-.65,1.19-1,1.79A46.61,46.61,0,0,1,903.83,457.11Z" transform="translate(-32.54 -36.08)" fill="#f79594"/><path d="M913.54,444.29a10,10,0,0,0-1.28-5.33,10.19,10.19,0,0,1,.16,2.67,17.5,17.5,0,0,1-2.12,6.6c-2.47,4.77-6.79,9.59-11.61,14a137.33,137.33,0,0,1-16,12.27c-4.08,2.72-8.31,5.3-12.64,7.79-1.73,1-3.48,2-5.23,2.94l-1,.52c-6.49,3.53-13.14,6.86-19.89,10,6.28-2.55,12.47-5.24,18.52-8.1.35-.16.69-.31,1-.48q2.81-1.35,5.58-2.74c4.6-2.33,9.1-4.76,13.43-7.35a128,128,0,0,0,16.94-11.87c5.07-4.3,9.57-9.13,12.07-14A17.06,17.06,0,0,0,913.54,444.29Z" transform="translate(-32.54 -36.08)" fill="#fff" opacity="0.4"/><path d="M921.42,467.59a59,59,0,0,0,6.43-11.48,35.76,35.76,0,0,0,2.86-14.54,28,28,0,0,0-1.47-8,26.77,26.77,0,0,0-3.81-7.17,32,32,0,0,0-11.31-9.31,47,47,0,0,0-12.5-4.15,58,58,0,0,0-24.86.93,48.42,48.42,0,0,0-11.71,4.73,36.85,36.85,0,0,0-10,8.29,1.67,1.67,0,0,0-.12.16,38.65,38.65,0,0,1,7.42-5.52A48.71,48.71,0,0,1,874,416.79a58,58,0,0,1,24.87-.93A46.78,46.78,0,0,1,911.37,420a32.13,32.13,0,0,1,11.32,9.31,26.46,26.46,0,0,1,3.8,7.17,28,28,0,0,1,1.48,8,35.93,35.93,0,0,1-2.86,14.54,59,59,0,0,1-6.44,11.48,90.79,90.79,0,0,1-6.85,8.5c.61-.63,1.21-1.26,1.81-1.9A94.68,94.68,0,0,0,921.42,467.59Z" transform="translate(-32.54 -36.08)" fill="#fff" opacity="0.4"/><path d="M859.29,460.25c-.47-1.62-.84-3.24-1.14-4.84a31.56,31.56,0,0,1-.46-4.73,24.4,24.4,0,0,1,1.4-8.89,20.07,20.07,0,0,1,2.83-5.09c-.33.29-.67.57-1,.89a19.89,19.89,0,0,0-4.58,7.14,24,24,0,0,0-1.4,8.89,30.3,30.3,0,0,0,.46,4.73,45.73,45.73,0,0,0,1.14,4.84,68.91,68.91,0,0,0,3.66,9.61,86.53,86.53,0,0,0,6.39,11.36c1.14-.63,2.29-1.27,3.41-1.91a88.5,88.5,0,0,1-7-12.39A67.74,67.74,0,0,1,859.29,460.25Z" transform="translate(-32.54 -36.08)" fill="#b75554" opacity="0.4"/><path d="M851.78,522.34c8.78-5,17.45-10.21,25.94-15.86,1.24-.83,2.49-1.67,3.71-2.53,1.47-1,2.94-2,4.38-3.07,3.53-2.51,7-5.13,10.45-7.87a159.16,159.16,0,0,0,17.37-15.88c1.15-1.24,2.27-2.53,3.37-3.84a105.2,105.2,0,0,1-9.56,9.66,176.81,176.81,0,0,1-20.86,15.71c-4.07,2.67-8.22,5.19-12.38,7.59-1.71,1-8.07,4.55-9.53,5.34-4.61,2.47-9.25,4.83-13.91,7.12Q851.29,520.52,851.78,522.34Z" transform="translate(-32.54 -36.08)" fill="#b75554" opacity="0.4"/><polygon points="256.88 591.17 244.47 570.88 196.43 562.96 225.76 591.51 208.9 614.77 254.75 609.71 256.88 591.17" fill="#534741"/><path d="M277,607h0a57.79,57.79,0,0,0,7.83,34.68l2.45,4.15,128.37,7.86-1.28-65.3Z" transform="translate(-32.54 -36.08)" fill="#f79594"/><polygon points="208.9 614.77 254.75 609.71 383.12 617.57 255.78 602.87 208.9 614.77" fill="#b75554" opacity="0.2"/><path d="M409.8,589,277,607h0L229,599l24.6,13.22a75.27,75.27,0,0,0,56.87,5.91Z" transform="translate(-32.54 -36.08)" fill="#fff" opacity="0.4"/><path d="M543.14,159.84c-28.51-13-48.95-14.9-64-8.44C560.64,169,632.94,217.16,655,313.77c29.43,128.89-52.11,251.47-157.63,258.1-34.95,2.2-99.93,2.76-144.11-8.47-6.24,34.82-8.57,70.06-6,103.78h0c.15,1.93.31,3.84.49,5.76v.13q.27,2.82.58,5.62v.13q1,8.61,2.36,17s0,.06,0,.09c.29,1.77.61,3.53.93,5.29,0,.18.07.37.11.56q.48,2.54,1,5c0,.13.05.25.08.38q1.69,8.14,3.83,16.07c.07.24.14.48.2.72.41,1.48.83,3,1.26,4.43l.27.91q.66,2.26,1.38,4.5l.18.58a231.88,231.88,0,0,0,14.45,35.23h0q1.56,3.08,3.23,6.07l.14.25q1.53,2.74,3.15,5.46l.45.75q1.62,2.7,3.32,5.34l.17.26q3.63,5.61,7.63,11l.72,1q1.62,2.14,3.31,4.24l.87,1.09q1.92,2.36,3.9,4.64l.28.33q2.14,2.46,4.4,4.86c.32.35.66.69,1,1q1.71,1.8,3.46,3.56l1.51,1.48C413,822,414.13,823,415.23,824l1.52,1.42a192.06,192.06,0,0,0,34.86,25.15c134,75.76,344,76.3,426.37-136.42C933.66,570.33,752.48,255.52,543.14,159.84Z" transform="translate(-32.54 -36.08)" fill="#f79594"/><path d="M604.19,194.27C761,345,874.62,599.88,831.3,728.3c-22.06,65.38-54.29,112.25-92.25,144C796.43,845.6,846.53,795.46,878,714.18,928.16,584.55,786,316.09,604.19,194.27Z" transform="translate(-32.54 -36.08)" fill="#b75554" opacity="0.2"/><path d="M479.17,151.4l1.91.43-1.62-.54Zm64,8.44c-14.23-6.5-26.44-10.22-37-11.52q4.79,2,9.9,4.39C726,252.79,908.89,579.58,853.89,728.22c-20.34,54.95-48.72,96.06-82,125.58C815.38,824.7,852.7,779.5,878,714.18,895.46,669,889.6,607,866.86,540.27,817.16,394.3,686.78,225.49,543.14,159.84Z" transform="translate(-32.54 -36.08)" fill="#b75554" opacity="0.2"/><path d="M664.06,564.74c-3,0-5.62-3.89-5.81-8.8s2.11-8.92,5.14-9,5.62,3.89,5.8,8.8S667.08,564.69,664.06,564.74Z" transform="translate(-32.54 -36.08)" fill="#b75554" opacity="0.2"/><path d="M680.58,535.94c-.09-2.3,1-4.18,2.4-4.2s2.64,1.82,2.73,4.12-1,4.18-2.41,4.21S680.66,538.24,680.58,535.94Z" transform="translate(-32.54 -36.08)" fill="#b75554" opacity="0.2"/><path d="M704,596.5c-5.46.09-10.15-7-10.48-15.87s3.81-16.1,9.27-16.19,10.14,7,10.48,15.88S709.44,596.41,704,596.5Z" transform="translate(-32.54 -36.08)" fill="#b75554" opacity="0.2"/><path d="M705,530.28c-.15-4.15,1.79-7.54,4.35-7.58s4.75,3.29,4.91,7.44-1.79,7.54-4.35,7.58S705.19,534.43,705,530.28Z" transform="translate(-32.54 -36.08)" fill="#b75554" opacity="0.2"/><path d="M694.55,645.42c-3,.05-5.62-3.89-5.8-8.8s2.11-8.92,5.13-9,5.62,3.89,5.81,8.79S697.58,645.37,694.55,645.42Z" transform="translate(-32.54 -36.08)" fill="#b75554" opacity="0.2"/><path d="M711.07,616.63c-.08-2.3,1-4.18,2.41-4.21s2.64,1.83,2.72,4.13-1,4.18-2.4,4.2S711.16,618.93,711.07,616.63Z" transform="translate(-32.54 -36.08)" fill="#b75554" opacity="0.2"/><path d="M756.86,558.16c-5.45.09-10.14-7-10.48-15.87s3.82-16.1,9.27-16.19,10.14,7,10.48,15.88S762.31,558.07,756.86,558.16Z" transform="translate(-32.54 -36.08)" fill="#b75554" opacity="0.2"/><path d="M735.53,611c-.16-4.15,1.79-7.55,4.34-7.59s4.76,3.29,4.92,7.44-1.79,7.55-4.35,7.59S735.69,615.12,735.53,611Z" transform="translate(-32.54 -36.08)" fill="#b75554" opacity="0.2"/><path d="M581.37,371.75l-30.71-36a55.71,55.71,0,0,0-19.32.73c-39.79,7.79-122.73,94.31-171.51,123.62-6.55,3.94-13,8.05-19.67,12.19,77.49,9.8,45,76.79,42.4,81.87,45.54,0,105.75,2.25,137.47-7.06l52.46-87C581,429.51,585.84,396.25,581.37,371.75Z" transform="translate(-32.54 -36.08)" fill="#b75554"/><path d="M387.3,554.19c4.94-9.88,40.69-75.36-40.92-85.76l-6.22,3.89c77.49,9.8,45,76.79,42.4,81.87Z" transform="translate(-32.54 -36.08)" fill="#fff" opacity="0.4"/><path d="M471.18,468.26c-9.5,26.86-4.78,59.24,9.28,86.52l34.89.11,92.07-152.63-20.11-23.55C539.27,382.41,486.1,426.15,471.18,468.26Z" transform="translate(-32.54 -36.08)" fill="#73004e" opacity="0.4"/><path d="M447.7,382.45c-19,12.82-20.2,46.36-6,64s38.78,9.87,58-6.57,25.82-32.31,11.46-46.37S466.75,369.62,447.7,382.45Z" transform="translate(-32.54 -36.08)" fill="#e6e6e6"/><path d="M511.15,393.54c-12.54-12.25-36.88-21.29-55.54-15,16.69,2.45,33.12,10.73,43.33,20.7,11.84,11.6,12.36,24.17,4.5,37.28C519.72,421.31,524.53,406.64,511.15,393.54Z" transform="translate(-32.54 -36.08)" opacity="0.1"/><path d="M357.56,438.78c-17.67,1.38-31.28,23.47-28.49,40.77S351.4,501,370.6,497.26s29.7-11.88,25.4-26.82S375.26,437.42,357.56,438.78Z" transform="translate(-32.54 -36.08)" fill="#e6e6e6"/><path d="M396,470.44c-3.45-11.95-14.62-25.87-28-30.3,8.41,8.22,14.74,18.63,17.48,28.11,3.65,12.7-.55,21.8-10.6,28.07C391.33,492.25,400,484.23,396,470.44Z" transform="translate(-32.54 -36.08)" opacity="0.1"/><path d="M452.35,435.3c-9-11.27-13.85-26.89-14.16-42.55-9.31,15.72-7.76,39.71,3.49,53.73,10.7,13.36,27.37,12.16,43.17,3.69C472.47,450.53,461.07,446.18,452.35,435.3Z" transform="translate(-32.54 -36.08)" fill="#fff" opacity="0.4"/><path d="M506.47,565.26c16.54-5.6,24.17-30,17.31-45.83s-26.51-15-43.94-6.84-25.47,18.54-17.75,31.76S489.9,570.85,506.47,565.26Z" transform="translate(-32.54 -36.08)" fill="#e6e6e6"/><path d="M462.09,544.35c6.75,11.51,22.82,23,37.79,22.17-11.76-5.16-22.17-14.55-27.66-23.93-6.37-10.9-4.22-20.24,4.19-28.29C461.39,522.22,454.9,532,462.09,544.35Z" transform="translate(-32.54 -36.08)" fill="#fff" opacity="0.4"/><path d="M513.69,525.5c4.38,10.09,4.76,22.54,1.84,34.1,10-9.68,13.69-27.61,8.25-40.17-5.17-12-17.66-14.44-31-11.39A29.24,29.24,0,0,1,513.69,525.5Z" transform="translate(-32.54 -36.08)" opacity="0.1"/><path d="M343.61,482.78c-2.5-15.47,5.51-34,18.37-43.94a25.08,25.08,0,0,0-4.42-.06c-17.67,1.38-31.28,23.47-28.49,40.77,1.87,11.58,11.24,17.25,23,18.63A24.82,24.82,0,0,1,343.61,482.78Z" transform="translate(-32.54 -36.08)" fill="#fff" opacity="0.4"/><path d="M546.43,455.63c-8.61-5-22-2.1-33,3.65-8.28,4.33-14.45,8.67-26.57,15.07-21.37,11.29-54,22.06-79.76,25.95-11.21,1.7-24.05,1.71-33.63,2-20.4.56-40.06,2.92-56.11,11.73-12.38,6.79-17.24,11.33-27,19.51-6.68,5.6-8.87,16.31-6.51,21.37,3.35,7.17,18.24,15.63,30.65,7.88,11.48-7.17,18-15.21,32.53-23.59,11.18-6.47,36.13-13.35,48.34-17.32,23.71-7.71,70.71-24.86,92.92-36.17,11.69-5.95,34-20.93,49.14-18.35,17.22,2.93,19.55,37.51,22.41,42.56,3.74,6.59,12.48,35.84,14.13,23.86C576.36,516.59,566.66,467.28,546.43,455.63Z" transform="translate(-32.54 -36.08)" fill="#e68595"/><path d="M489,483.26c-22.21,11.31-71.83,27.77-95.54,35.48-12.21,4-37.17,10.85-48.34,17.32-7.85,4.54-15.66,13.22-23,21.36,7.47-5.73,13.9-11.89,24.9-18.25,11.18-6.47,36.13-13.35,48.34-17.32,23.71-7.71,70.71-24.86,92.92-36.17,11.69-5.95,34-20.93,49.14-18.35C522.32,464.75,500.72,477.31,489,483.26Z" transform="translate(-32.54 -36.08)" fill="#73004e" opacity="0.2"/><path d="M513.46,459.28c-8.28,4.33-14.45,8.67-26.57,15.07-21.37,11.29-54,22.06-79.76,25.95-11.21,1.7-24.05,1.71-33.63,2-20.4.56-40.06,2.92-56.11,11.73-12.38,6.79-17.24,11.33-27,19.51a18.43,18.43,0,0,0-3.08,3.34c10.55-7,21.68-14,28.3-17.76,16.45-9.31,37-9.34,58.08-10.53,9.91-.55,23.21-1,34.79-3,26.58-4.68,60.18-16.45,82.1-28.41,12.42-6.77,18.72-11.3,27.21-15.89,8.31-4.49,18-7.44,26.11-6.8C535.34,451.25,523.42,454.06,513.46,459.28Z" transform="translate(-32.54 -36.08)" fill="#fff" opacity="0.4"/><path d="M375.42,82.17c-8.94,0-34-29-34-29-20.32,7.82-40,23.43-46.68,43.26,0,0,41.49,17.6,64.91,23,20.66,4.79,50.15-12.77,58.43-32.29.23-.54.44-1.08.65-1.63s.24-.85.34-1.28C423.49,66.29,393.89,82.06,375.42,82.17Z" transform="translate(-32.54 -36.08)" fill="#f79594"/><path d="M364.2,115.89c-15.32-3.55-47.82-14.73-68.48-22-.34.84-.66,1.69-1,2.54,0,0,41.49,17.6,64.91,23,13.93,3.23,31.87-3.71,44.62-14.55C392.06,113.63,376.55,118.76,364.2,115.89Z" transform="translate(-32.54 -36.08)" fill="#b75554" opacity="0.4"/><path d="M341.45,53.13c-.75,0-1.51.1-2.26.17-39.08,3.55-65,42.35-54.46,80.15l14.6,70.25,5.49-1.9-.32-2,5.49-1.9a38.09,38.09,0,0,0,25-28.79l18.59-96.36Z" transform="translate(-32.54 -36.08)" fill="#f79594"/><path d="M325.68,175a43.39,43.39,0,0,1-15.86,23l.17-.06a38.09,38.09,0,0,0,25-28.79l13.39-69.39Z" transform="translate(-32.54 -36.08)" fill="#fff" opacity="0.4"/><path d="M306.44,199.17l-13-63.52c-10-36.95,11.54-74.59,46.12-82.38l-.37,0c-39.08,3.55-65,42.35-54.46,80.15l14.6,70.25,5.49-1.9-.32-2Z" transform="translate(-32.54 -36.08)" fill="#fff" opacity="0.4"/><circle cx="213.44" cy="310.05" r="80.14" transform="translate(-189.26 205.66) rotate(-45)" fill="#e6e6e6"/><path d="M167.93,363a110.51,110.51,0,0,1,27.4-131A80.13,80.13,0,0,0,141.09,344.5,79.78,79.78,0,0,0,180.18,383,111.1,111.1,0,0,1,167.93,363Z" transform="translate(-32.54 -36.08)" fill="#fff" opacity="0.4"/><path d="M672.19,310.86C643.32,184,531.73,137.66,423.14,134S188,179,184.37,287.57c-.27,8.21-.41,17-.29,26.1-2.58.39-5.08.87-7.47,1.46a217.48,217.48,0,0,0-35.14-5.2C124.64,302.06,108,298.3,93,300.72,33,310.39,21,414.61,42.41,469.66,63.59,524,121.69,543,180.86,534.18q2.8-.31,5.8-.79c17.79-2.87,42.81-9.26,68.31-18,40.12-10.06,89.55-25.25,116.5-40.17,47-26,103.69-104.55,141.81-111.81,93.68-17.83,28.39,158,.55,176.66-31.73,21.24-128,2.1-160,11.17-7.72,2.19-7.94,13.06-.29,15.48,45.16,14.28,118.66,13.87,157,11.49C619,571.43,702.61,444.48,672.19,310.86Z" transform="translate(-32.54 -36.08)" fill="#f79594"/><path d="M353.81,551.2c-7.72,2.19-7.94,13.06-.29,15.48,1.15.36,2.32.71,3.5,1.05a8.12,8.12,0,0,1,3.81-13.27c12.3-3.48,32.33-4.21,54.12-5C389.77,548.46,366.63,547.57,353.81,551.2Z" transform="translate(-32.54 -36.08)" fill="#fff" opacity="0.4"/><path d="M527.51,572.68c-32.68,2-115,4.34-166.6-3.87,45.44,12.09,113.29,11.61,149.6,9.36A148.3,148.3,0,0,0,556,567.94,139.08,139.08,0,0,1,527.51,572.68Z" transform="translate(-32.54 -36.08)" fill="#b75554" opacity="0.4"/><path d="M681.72,338.76a168,168,0,0,0-18.41-47.53c2.18,6.71,4.12,13.66,5.76,20.9,18.4,80.85-6.23,159.17-52.88,208.27C667.51,487,698.91,414.3,681.72,338.76Z" transform="translate(-32.54 -36.08)" fill="#fff" opacity="0.2"/><path d="M516.26,350.21c-38.54,4.58-99.87,90.25-144.09,120.73-13.51,9.32-28.61,16.71-44.42,22.86,17-6,32.36-12.33,43.72-18.62,47-26,103.69-104.55,141.81-111.81,93.68-17.83,28.39,158,.55,176.66-19.47,13-63.27,10.86-101.6,9.33,39.47,2.77,83.93,6.11,102.95-6.62C543,524.11,621.5,337.7,516.26,350.21Z" transform="translate(-32.54 -36.08)" fill="#fff" opacity="0.4"/><g opacity="0.4"><path d="M431.19,134.38c80.34,12.81,168.59,58.71,221.34,122C609.27,172.9,519.94,139.09,431.19,134.38Z" transform="translate(-32.54 -36.08)" fill="#b75554"/></g><path d="M520.23,546.38c-13.55,9.06-38.86,10.77-65.92,10.45,28.82,3.33,55.85,4.32,69.6-4.89,10.58-7.08,23.58-35.37,30.51-66.77C544,514.69,529.86,539.93,520.23,546.38Z" transform="translate(-32.54 -36.08)" fill="#b75554" opacity="0.4"/><path d="M198.49,322.55c-44.82,4.66-53.42,84.51-37.5,125.36s24.41,66.32,68.9,59.15,120.24-27.39,127.62-61.93C368.07,395.7,270.27,315.09,198.49,322.55Z" transform="translate(-32.54 -36.08)" fill="#f79594"/><path d="M93,300.72C33,310.39,21,414.61,42.41,469.66s80.79,73.85,140.74,64.19,97.83-44.14,76.37-99.19S152.91,291.06,93,300.72Z" transform="translate(-32.54 -36.08)" fill="#ffa2a1"/><path d="M249.63,433c-4.36-11.19-11.36-23.76-20.23-36.61,2.2,4.8,4.15,9.49,5.81,14,19.46,52.93,2.89,91.84-34.22,115C244.1,510.53,267.54,478.91,249.63,433Z" transform="translate(-32.54 -36.08)" fill="#fff" opacity="0.2"/><path d="M100.94,318.91c42.11-6.79,95.54,30.51,134.79,74.11-35.46-48.91-96.59-99.74-142.78-92.3-49.91,8-66.61,81.63-58.42,137.82C34.8,383.81,55.16,326.29,100.94,318.91Z" transform="translate(-32.54 -36.08)" fill="#fff" opacity="0.4"/><path d="M127.7,361.78c-13.85,6.59-7,48.75,7.45,79.14s34.74,45.19,48.59,38.6,16-32.09,1.57-62.48S141.55,355.18,127.7,361.78Z" transform="translate(-32.54 -36.08)" fill="#b75554"/><path d="M146.72,441.8c-11.57-24.31-20-53.52-22.32-77.34-9.23,11.55-2.4,48.86,10.75,76.46,10.56,22.19,24.21,36.05,36.2,39.36C162.61,470.36,154.16,457.43,146.72,441.8Z" transform="translate(-32.54 -36.08)" fill="#ffa2a1" opacity="0.4"/><path d="M79.51,375.88C66.57,376,55.92,410.63,56.12,439s11.24,46.92,24.18,46.83,22.88-18.77,22.68-47.16S92.45,375.79,79.51,375.88Z" transform="translate(-32.54 -36.08)" fill="#b75554"/><path d="M63,437c-.14-20.56,4.41-43.83,11.44-59.26C63.9,385.24,56,414.46,56.12,439c.18,25.58,9.16,43.16,20.41,46.32C68.57,475.82,63.13,458.81,63,437Z" transform="translate(-32.54 -36.08)" fill="#ffa2a1" opacity="0.4"/><path d="M347.14,208.13c-48,18.07-71.41,72.52-49.95,122S379.32,399,429.71,372.73s69.91-81.35,46.15-122.65S395.23,190.07,347.14,208.13Z" transform="translate(-32.54 -36.08)" fill="#e6e6e6"/><path d="M330.65,354.09c-25.66-59.19-2.44-123.72,49.46-152.7a108.28,108.28,0,0,0-33,6.74c-48,18.07-71.41,72.52-49.95,122a88.82,88.82,0,0,0,46.16,46.21A116.58,116.58,0,0,1,330.65,354.09Z" transform="translate(-32.54 -36.08)" fill="#fff" opacity="0.4"/><path d="M475.86,250.08c-16.4-28.39-48.33-46.1-82.31-48.54,27,6.34,51.05,22.46,64.54,45.83C481.86,288.66,462.35,343.73,412,370a102,102,0,0,1-53.28,11.58,100.74,100.74,0,0,0,71-8.87C480.12,346.44,499.62,291.38,475.86,250.08Z" transform="translate(-32.54 -36.08)" opacity="0.1"/><path d="M380.57,241.26a51.57,51.57,0,0,0-8,1.8A29.41,29.41,0,1,1,340,276.38a27.64,27.64,0,0,1-.26-3,51.64,51.64,0,1,0,40.8-32.13Z" transform="translate(-32.54 -36.08)" fill="#73004e"/><path d="M366.69,324.15a11,11,0,1,0,12.39,9.33A11,11,0,0,0,366.69,324.15Z" transform="translate(-32.54 -36.08)" fill="#fff"/><path d="M354.92,348.65a5.14,5.14,0,1,0,5.81,4.37A5.13,5.13,0,0,0,354.92,348.65Z" transform="translate(-32.54 -36.08)" fill="#fff"/><path d="M326.32,205.06c1.91-1.73,3.9-3.37,5.95-4.92a86.1,86.1,0,0,1,10.8-7c2.27-1.23,4.6-2.37,7-3.39q2.26-1,4.56-1.81c.55-.21,1.11-.38,1.67-.58,1-.33,1.94-.67,2.92-1l2.1-.61q1.24-.36,2.49-.69t2.37-.57c.74-.17,1.48-.34,2.22-.49s1.73-.34,2.59-.49l2-.33c.94-.15,1.87-.29,2.81-.4l1.7-.19c1-.11,2-.22,3.06-.3l1.29-.08a101,101,0,0,1,17.9.46c1.45.17,2.89.38,4.34.61l1.27.21c1.23.21,2.45.44,3.66.7l.78.15c1.43.31,2.84.66,4.26,1l1.2.32c1.15.31,2.29.65,3.44,1l1,.3c1.4.45,2.78.92,4.16,1.42l1.08.41c1.11.41,2.22.85,3.32,1.31.37.15.74.29,1.1.45,1.36.58,2.71,1.18,4.05,1.81l.88.43c1.11.53,2.21,1.09,3.31,1.66l1.11.59c1.33.71,2.64,1.44,3.94,2.21l.56.34c1.15.68,2.28,1.38,3.41,2.11l1.08.7c1.24.82,2.47,1.65,3.68,2.52l.15.1c1.25.9,2.48,1.84,3.7,2.79l1,.79c1.06.84,2.1,1.7,3.13,2.58l.54.45q1.75,1.51,3.46,3.12c.31.28.6.56.9.85.94.89,1.87,1.81,2.79,2.74l.69.69h0c-.53-1.05-1.07-2.09-1.64-3.12l-.49-.89c-.55-1-1.12-2-1.71-2.92l-.24-.42c-.66-1.08-1.35-2.13-2-3.17l-.55-.8c-.59-.86-1.19-1.71-1.81-2.55l-.43-.59c-.74-1-1.5-2-2.27-2.91l-.56-.69c-.64-.77-1.3-1.54-2-2.29l-.57-.66c-.81-.9-1.64-1.79-2.48-2.65l-.52-.53c-.71-.72-1.42-1.42-2.15-2.11l-.69-.66c-.87-.81-1.76-1.61-2.66-2.39l-.41-.35c-.8-.67-1.6-1.33-2.41-2l-.77-.61q-1.41-1.1-2.85-2.13l-.11-.08c-.94-.67-1.88-1.31-2.83-1.94l-.83-.54c-.87-.56-1.74-1.1-2.62-1.62l-.43-.26c-1-.59-2-1.15-3-1.7l-.85-.45c-.84-.44-1.69-.87-2.54-1.28l-.68-.33c-1-.48-2.07-.95-3.11-1.39l-.84-.35c-.85-.35-1.7-.68-2.56-1l-.83-.31c-1.06-.39-2.12-.75-3.19-1.1l-.77-.23c-.87-.27-1.76-.53-2.64-.77l-.92-.25q-1.64-.42-3.27-.78l-.6-.12c-.94-.2-1.87-.37-2.81-.54l-1-.16c-1.11-.18-2.22-.34-3.34-.47a77,77,0,0,0-13.75-.35l-1,.06c-.78.06-1.56.14-2.35.23l-1.31.15c-.72.09-1.44.19-2.15.3l-1.53.26c-.66.11-1.32.24-2,.38s-1.14.24-1.71.37-1.22.28-1.82.44l-1.92.53c-.54.16-1.08.3-1.61.47l-2.25.75-1.28.45c-1.17.43-2.34.89-3.5,1.39q-2.76,1.18-5.37,2.6a66.38,66.38,0,0,0-8.3,5.36c-1.57,1.19-3.1,2.45-4.57,3.78l-1.46,1.34a71.68,71.68,0,0,0-5.46,5.82c-.87,1-1.7,2.07-2.52,3.14a80.39,80.39,0,0,0-5.1,7.63c-.34.57-.68,1.15-1,1.73s-.54,1-.8,1.49Z" transform="translate(-32.54 -36.08)" fill="#fff" opacity="0.4"/><g opacity="0.2"><path d="M295.2,189c-4.06-7.21-18.77-6.62-32.85,1.31s-22.21,20.21-18.15,27.42,18.77,6.63,32.85-1.31S299.26,196.17,295.2,189Z" transform="translate(-32.54 -36.08)" fill="#fff"/><path d="M242.45,237c-6.61,3.72-10.41,9.47-8.51,12.85s8.8,3.11,15.4-.61,10.41-9.48,8.51-12.85S249.05,233.23,242.45,237Z" transform="translate(-32.54 -36.08)" fill="#fff"/></g><path d="M531.23,330.33c-6.75.8-14.21,4.1-22.15,9.15a44.82,44.82,0,0,1,7.95-1.74c42.3-5,61.78,14.64,67.44,44.94C584.84,349.82,571.45,325.55,531.23,330.33Z" transform="translate(-32.54 -36.08)" fill="#fff" opacity="0.4"/><path d="M722.25,400.8c3.06,1.72,7.18,2.62,12,2.93a23.32,23.32,0,0,1-3.85-1.7c-19.18-10.79-21.32-24.93-14.45-39.31C705.81,376.33,704,390.54,722.25,400.8Z" transform="translate(-32.54 -36.08)" fill="#fff" opacity="0.4"/><path d="M704.74,375.15c-5.52,9.11-6,19.1,5.56,27.39a17.49,17.49,0,0,0,7.42,2.73,15.86,15.86,0,0,1-2.41-1.41C703.2,395.15,701.25,385,704.74,375.15Z" transform="translate(-32.54 -36.08)" fill="#fff" opacity="0.4"/><path d="M271.44,323.67c-35-10.42-70.35-14.55-94.81-8.54a217.82,217.82,0,0,0-35.17-5.2,169,169,0,0,1,18.19,10,720.78,720.78,0,0,1,81.83,16.92,389.11,389.11,0,0,0-45.06-16.55A487.48,487.48,0,0,1,271.44,323.67Z" transform="translate(-32.54 -36.08)" fill="#fff" opacity="0.4"/><path d="M201.59,312.36c.07-3.82.17-7.57.29-11.23,2.36-70.4,45.73-120.24,105.19-150.9-66.84,22.2-120.35,67.28-122.7,137.34-.27,8.21-.4,17-.28,26.1A120.4,120.4,0,0,1,201.59,312.36Z" transform="translate(-32.54 -36.08)" fill="#fff" opacity="0.4"/><path d="M561.66,471.21c19.31-42.33,28.83-85.52,5.69-101.42C583.73,389.61,576.78,430.61,561.66,471.21ZM423.14,134C314.55,130.39,188,179,184.37,287.57c-.27,8.21-.41,17-.29,26.1,2.26-.35,4.6-.63,7-.83,0-7.67.1-15,.33-22C195,182.24,321.58,133.65,430.17,137.28c43.2,1.45,86.87,9.67,125.62,27C515.34,144.7,469,135.56,423.14,134Z" transform="translate(-32.54 -36.08)" fill="#fff" opacity="0.4"/><path d="M579.77,104.58c-8.37-3.4-19.95-35.22-23.23-44.66a12,12,0,0,0-3-4.71l0,0c-36.71-35.4-77.25-19.73-84.61,31.39L450.8,176.63l5.78,3.47.59-2.43,5.77,3.48c13.56,8.15,27,5.92,35.27-5.85l33.64-47.87c4.92,4.21,9.61,8,13.73,10.92,20.51,14.63,60.86,8.74,78.81-8.95.49-.48,1-1,1.45-1.49s.65-.83,1-1.25C639.76,109,600.1,112.84,579.77,104.58Z" transform="translate(-32.54 -36.08)" fill="#f79594"/><path d="M551.12,59.26a22.62,22.62,0,0,1,3,4.73c3.27,9.44,10.36,45.76,18.73,49.16,19.7,8,64.27-3.72,55,11.92,9.45-15.89-28.4-12.48-48.09-20.49-8.37-3.4-19.95-35.22-23.23-44.66a12,12,0,0,0-3-4.71l0,0c-29.24-28.2-60.91-24-76.31,4.72C493.35,34.94,523.33,32.46,551.12,59.26Z" transform="translate(-32.54 -36.08)" fill="#fff" opacity="0.4"/><path d="M473.9,109.08l-16.73,68.59,5.77,3.48c13.56,8.15,27,5.92,35.27-5.85l33.64-47.87c-18.6-15.89-40.54-38.06-48-45.74A80.36,80.36,0,0,0,473.9,109.08Z" transform="translate(-32.54 -36.08)" fill="#b75554"/><path d="M468.92,86.58,452.16,169.9c5.92-23.32,15.46-61.5,18.65-78,7.16-37,36.19-55.72,65.67-49.46C505.15,25.44,475.15,43.31,468.92,86.58Z" transform="translate(-32.54 -36.08)" fill="#fff" opacity="0.4"/><path d="M392.42,574.93a255.64,255.64,0,0,1-34-6.79c-17.52,111.5,4.49,225.25,96.52,278.23a339.84,339.84,0,0,0,36.14,18C401.54,787.51,381.08,676.83,392.42,574.93Z" transform="translate(-32.54 -36.08)" fill="#fff" opacity="0.2"/><path d="M374.13,578.07c-18.92,104.27-4,217.51,87.8,270.37.31.17.62.34.92.52C381.45,794.56,367.86,632.27,374.13,578.07Z" transform="translate(-32.54 -36.08)" fill="#fff" opacity="0.4"/><path d="M556.05,875.23C455,811.68,415.16,696,415.19,577.4c-22.35-1.86-44.14-5.18-61.67-10.72a7.93,7.93,0,0,1-.78-.32c-19.52,112.93,2.47,229.75,98.87,284.24a361,361,0,0,0,139.24,44.53Q572.94,885.85,556.05,875.23Z" transform="translate(-32.54 -36.08)" fill="#fff" opacity="0.2"/><polygon points="809.71 278.9 802.12 254.02 827 207.9 835.57 255.54 867.11 261.88 822.91 300.05 809.71 278.9" fill="#534741"/><path d="M722.63,374.07l112-84h0c8.61,4.54,21.07,18.7,23,27.44,1,4.57-2.25,18.6-2.25,18.6L764.89,438.8Z" transform="translate(-32.54 -36.08)" fill="#f79594"/><path d="M722.63,374.07l112-84L859.53,244l-14.79,45.37a24.77,24.77,0,0,1-10.22,13.2Z" transform="translate(-32.54 -36.08)" fill="#fff" opacity="0.4"/><path d="M816.68,369.88A260.67,260.67,0,0,1,897,299.44l2.63-1.48-44.2,38.17-70,79.38Z" transform="translate(-32.54 -36.08)" fill="#b75554" opacity="0.2"/><path d="M927,591.88c-8.17-13.72-53.26-44.29-53.27-44.38C817.46,611,711.59,754.35,463.82,799.57c-23.6,4.31-51.34-12.52-77.59-10.15,0,0-1.09,97.89,8.49,106.65,18.2,16.65,52.75-21.09,75.64-44.61,15.84-16.32,30.82-31.54,41.56-31.83h.14c9.78-.77,12.71,10.42,16.39,29,4,20.47,9.08,45.85,35,41.35.44-.07.89-.16,1.34-.25l.12,0c26.53-6.73,36.57-34.64,45.46-59,6.28-17.28,12.23-33.5,22.86-37.26l.13-.05c10.23-4.21,21,5.07,33.43,15.69,13.72,11.73,28.93,24.6,47.06,21.58A38.61,38.61,0,0,0,726,826.25l.12-.07c22.66-13.78,16.9-38.09,12.26-57.71-3.64-15.38-6.78-28.68,1.92-35l.14-.11c8.18-6.74,25.16-3.51,43.12-.2,24.83,4.62,52.93,9.56,69.9-8.21l.13-.14c15.52-18.46-3.21-34.57-18.29-47.78-14-12.18-22.06-20.2-16.92-27.45l.12-.19c4.91-8.25,23.49-12,43.17-16,27.48-5.52,53.23-7.38,64.17-20.14C929.36,609.23,929.73,596.49,927,591.88Z" transform="translate(-32.54 -36.08)" fill="#ffdcf3"/><path d="M918.39,568.06c-6.17-10.44-26.23-15.51-35.85-20.65-3.34-1.79-15.68-7.14-15.68-7.14-.77.94-.66.79-1.45,1.77-61.73,75.54-180.55,224.53-479.18,247.38,0,0-5.39,18.63-8.72,29.34-5.36,17.29-11.81,33.86-6,44.43,2.49,4.55,7.19,7.39,14,8.46l.14,0c26.56,2.82,52.81-21.73,76-43.39,16-15,31.16-29.15,41.91-29.37h.14c9.79-.68,12.63,9.84,16.14,27.25,3.89,19.23,8.7,43.08,34.74,39.41l1.35-.21.12,0c26.67-5.76,36.94-32,46-55.17,6.42-16.38,12.47-31.86,23.13-35.39l.13,0c10.26-4,21,5,33.39,15.42,13.69,11.48,28.88,24.23,47.07,21.66a38.84,38.84,0,0,0,12.22-4l.12-.07c22.77-13,17.06-37,12.47-56.26-3.6-15.11-6.71-28.16,2-34.34l.14-.1c8.19-6.61,25.17-3.42,43.14,0,24.83,4.67,53,10,70-7.78l.12-.14c15.52-18.49-3.25-34.89-18.33-48.08-13.95-12.19-22-20.12-16.92-27.45l.12-.19c4.9-8.33,23.45-12.33,43.08-16.55,27.43-5.91,58.52-12.6,66.09-34.12l.07-.21C921.4,577.12,920.87,572.25,918.39,568.06Z" transform="translate(-32.54 -36.08)" fill="#8b0069"/><path d="M861,524.06c-134.21,149.1-261.61,236-489.59,239.5,1,2.05,2,4.09,3,6.1h0q1.56,3.08,3.23,6.07l.14.25q1.53,2.74,3.15,5.46l.45.75q1.62,2.7,3.32,5.34l.17.26c2.11,3.27,4.34,6.46,6.65,9.59,266.52-31.51,402.52-150.87,481-239.4C869.19,546.82,865.31,535.49,861,524.06Z" transform="translate(-32.54 -36.08)" fill="#8b0069"/><path d="M697.76,687.14c32.58-20.51,85.62-64.27,116.25-105-34,40-87,80-120.4,100.42-34.8,21.24-107,52.85-129.85,59.64C592.34,738.31,662.22,709.53,697.76,687.14Z" transform="translate(-32.54 -36.08)" fill="#fff" opacity="0.3"/><path d="M903.74,564c-6-10.06-22.25-14.05-38-17.92l-3.09-.68c-1.28,1.56,31.53,13.37,36.32,21.44,1.62,2.73,2,5.88,1,9.62-6.23,17.82-34.41,24-59.28,29.5-20.87,4.6-38.9,8.57-44.84,18.67-7.94,11.67,4.94,22.89,17.39,33.74,17.24,15,27.76,25.84,17.28,38.6-14.19,14.94-39.67,10.22-62.15,6.06-18.53-3.44-36-6.68-45.86,1.28-11.29,8.18-7.67,23.13-3.84,39,4.49,18.54,9.14,37.71-9,48.28-19.52,10-35.5-3.34-51-16.26-12.74-10.66-24.78-20.73-37.63-15.72-12.64,4.32-18.82,20.45-25.37,37.52-8.09,21.1-17.26,45-39.92,50.05-19.39,3.39-23.84-11-28.46-33.42-3.22-15.61-6.54-31.75-21.4-30.71-12.42.35-26.92,14.11-43.7,30-21.26,20.18-45.36,43-68.37,40.72-4.76-.74-7.83-2.49-9.39-5.32-4.29-7.8,13.24-60,11.1-59.77a191.82,191.82,0,0,1-7.5,19.6c-6.9,16.06-14,32.66-8.42,42.85,2.42,4.39,6.94,7.13,13.45,8.14h.14c25.54,2.64,50.64-21.18,72.78-42.19,15.32-14.54,29.79-28.28,40.12-28.53h.14c9.4-.69,12.19,9.47,15.65,26.28,3.83,18.57,8.58,41.61,33.58,38l1.3-.21.11,0c25.6-5.66,35.34-31.06,43.94-53.48,6.07-15.85,11.82-30.83,22-34.28l.13,0c9.84-3.87,20.19,4.78,32.16,14.79,13.21,11.05,27.87,23.32,45.35,20.77a36.87,36.87,0,0,0,11.72-3.87l.11-.06c21.82-12.64,16.21-35.81,11.7-54.42-3.53-14.59-6.59-27.19,1.76-33.19l.14-.11c7.84-6.41,24.17-3.38,41.45-.18,23.89,4.43,51,9.44,67.2-7.76l.12-.13c14.82-17.92-3.3-33.72-17.86-46.41-13.46-11.73-21.29-19.37-16.4-26.47l.12-.19c4.67-8.06,22.47-12,41.32-16.14,26.33-5.8,56.17-12.38,63.34-33.19l.06-.21C906.67,572.73,906.14,568,903.74,564Z" transform="translate(-32.54 -36.08)" fill="#fff" opacity="0.3"/><path d="M171.53,615.88c-.61,5.91,1,12.18,4.14,18.7a33.69,33.69,0,0,1,0-6.88c3.8-37.06,26.21-56.49,55.83-64.79C200.65,566.12,175.14,580.63,171.53,615.88Z" transform="translate(-32.54 -36.08)" fill="#534741" opacity="0.2"/><path d="M183.19,553.37C156.86,559.58,136,574,135.56,602.06c-.06,4.71,1.8,9.43,5,14.16a24.68,24.68,0,0,1-.56-5.39C140.44,581.34,158.28,563.42,183.19,553.37Z" transform="translate(-32.54 -36.08)" fill="#534741" opacity="0.2"/><path d="M889.49,210.86c-5.94.17-12,2.58-18,6.56a34.12,34.12,0,0,1,6.81-.94c37.24-1.11,59.45,18.55,71.57,46.82C942.64,233.18,924.9,209.8,889.49,210.86Z" transform="translate(-32.54 -36.08)" fill="#534741" opacity="0.2"/><path d="M953,214.19c-9.62-25.28-26.68-44.08-54.54-40.8-4.67.55-9.11,3-13.37,6.83a24,24,0,0,1,5.27-1.27C919.64,175.5,939.74,190.83,953,214.19Z" transform="translate(-32.54 -36.08)" fill="#534741" opacity="0.2"/></g></svg>