<svg xmlns="http://www.w3.org/2000/svg" xmlns:xlink="http://www.w3.org/1999/xlink" viewBox="0 0 723.08 414.71"><defs><clipPath id="a" transform="translate(-191.77 -348.37)"><rect width="1079.61" height="1079.61" rx="194.21" fill="none"/></clipPath></defs><g clip-path="url(#a)"><path d="M373.7,709.8c-77.68,0-181.93,17.57-181.93,23.89S296,745.13,373.7,745.13,538.92,740,538.92,733.69,451.37,709.8,373.7,709.8Z" transform="translate(-191.77 -348.37)" opacity="0.1"/><path d="M303.47,650.69a25.32,25.32,0,0,1-8.75-1A13.53,13.53,0,0,1,289,638.62a19.71,19.71,0,0,1,.15-3,17.65,17.65,0,0,0-1.61,7.08,8.26,8.26,0,0,0,1.27,4.31,24.63,24.63,0,0,1-2.1-1.51,30,30,0,0,1-4.54-4.49c1.77,5.22,4.15,9.5,7.21,12.36-4.92-1.74-8.94-4.28-11.35-7.88a37.12,37.12,0,0,1-3.36-6.31c.34,6.52,1.77,12.21,4.61,16.45A10.17,10.17,0,0,0,280.4,657c-7.42-1-13.75-3.41-17.9-7.86a48.44,48.44,0,0,1-5.64-7.44c1.73,8.43,4.73,15.53,9.27,20.4,3.15,3.38,8.05,4.94,13.93,5.19-13.24,4.93-24.81,11.31-28.33,18.29a26.67,26.67,0,0,0-2.22,16.57,40.87,40.87,0,0,1,2.81-7.19c4.9-9.71,20.68-19.14,37.08-26.47-3.16,2.64-5.52,5.36-6.71,8.09a26.83,26.83,0,0,0-1.31,16.69,41.48,41.48,0,0,1,2.41-7.37c3.42-7.86,13.55-16,25.47-23.16Z" transform="translate(-191.77 -348.37)" fill="#0064af"/><polygon points="259.75 311.71 229.7 374.7 232.17 375.94 269.21 311.71 259.75 311.71" fill="#ff9e2e"/><polygon points="231.09 375.4 232.17 375.94 269.21 311.71 231.09 375.4" fill="#fff" opacity="0.4"/><polygon points="247.98 344.24 245.42 343.27 259.75 311.71 235.75 362.01 235.75 362.01 235.45 362.66 235.45 362.66 232.99 367.82 232.99 367.82 232.78 368.25 229.7 374.7 230.89 375.3 234.03 368.38 234.56 368.42 234.09 368.24 236.59 362.74 237.91 362.83 236.75 362.39 238.64 358.2 240.52 358.33 238.87 357.71 240.81 353.44 243.63 353.63 241.14 352.7 242.93 348.75 245.68 348.94 243.26 348.03 245.07 344.04 247.98 344.24" fill="#d04000" opacity="0.4"/><path d="M449.35,665.63c-8.89-3.17-20.52-.17-23.69,8.72-2,5.7-1.39,16,1.68,23.56a12.12,12.12,0,0,0,18.85,5l.42-.36a45.7,45.7,0,0,0,11.26-16.7C461,677,458.25,668.8,449.35,665.63Z" transform="translate(-191.77 -348.37)" fill="#0064af"/><path d="M442.51,701.42l-.71.61a20.17,20.17,0,0,1-5.62,3.3,11.74,11.74,0,0,0,10-2.43l.42-.36a45.7,45.7,0,0,0,11.26-16.7,20.54,20.54,0,0,0,1.26-6.85C455.32,686.64,449.29,695.34,442.51,701.42Z" transform="translate(-191.77 -348.37)" fill="#fff" opacity="0.6"/><path d="M450.86,730.8c-9.38-13.64-30-12.15-50.14-4.78,10.09-1.28,19.63-1.09,28,1a28.24,28.24,0,0,1-3.2,17.18,37.88,37.88,0,0,1-4,6c5.73-3.56,10.15-7.63,12.54-12.14a17.05,17.05,0,0,0,1.79-5.19,33.8,33.8,0,0,1,2.19,20.16,45.66,45.66,0,0,1-2.42,8.29c5.28-6.12,8.89-12.35,10-18.36a20.49,20.49,0,0,0,.07-7.4,36.76,36.76,0,0,1,6.41,7.15,43.53,43.53,0,0,1,4.1,7.49C456,742.58,454.34,735.86,450.86,730.8Z" transform="translate(-191.77 -348.37)" fill="#ff9e2e"/><path d="M452.48,742.06a14.52,14.52,0,0,0-6.75-6.47,36.76,36.76,0,0,1,6.41,7.15,43.53,43.53,0,0,1,4.1,7.49C455.08,747.55,453.57,744,452.48,742.06Z" transform="translate(-191.77 -348.37)" fill="#d04000" opacity="0.4"/><path d="M435.64,761.35c1.09-2.78,3.06-6.14,3.67-8.33,1.38-4.91,1.48-13.4-3.44-20.12a33.8,33.8,0,0,1,2.19,20.16A45.66,45.66,0,0,1,435.64,761.35Z" transform="translate(-191.77 -348.37)" fill="#d04000" opacity="0.4"/><path d="M425.53,744.23c3-5.69,6.07-12.54,5.33-18.26-8.38-2.12-20.05-1.23-30.14,0,10.09-1.28,19.63-1.09,28,1A28.24,28.24,0,0,1,425.53,744.23Z" transform="translate(-191.77 -348.37)" fill="#d04000" opacity="0.4"/><path d="M450.86,730.8c-6.27-9.12-17.57-11.47-30.38-9.83,12.87.11,24.42,4.34,30,12.48,3.48,5,5.49,9.13,5.74,16.78C456,742.58,454.34,735.86,450.86,730.8Z" transform="translate(-191.77 -348.37)" fill="#fff" opacity="0.4"/><polygon points="140.06 313.44 110.02 376.43 112.49 377.67 149.53 313.44 140.06 313.44" fill="#ff9e2e"/><polygon points="111.4 377.13 112.49 377.67 149.53 313.44 111.4 377.13" fill="#fff" opacity="0.4"/><polygon points="128.29 345.97 125.73 345 140.06 313.44 116.07 363.74 116.07 363.74 115.76 364.39 115.76 364.39 113.3 369.55 113.3 369.55 113.1 369.97 110.02 376.43 111.2 377.03 114.34 370.11 114.87 370.14 114.4 369.97 116.9 364.46 118.22 364.55 117.06 364.11 118.96 359.93 120.83 360.06 119.18 359.44 121.12 355.17 123.94 355.36 121.46 354.43 123.25 350.48 125.99 350.67 123.58 349.76 125.39 345.77 128.29 345.97" fill="#d04000" opacity="0.4"/><path d="M279.25,732.53c9.38-13.64,30-12.15,50.14-4.78-10.09-1.28-19.62-1.09-28,1A28.23,28.23,0,0,0,304.58,746a37.88,37.88,0,0,0,4,6c-5.72-3.56-10.15-7.63-12.54-12.14a17.05,17.05,0,0,1-1.79-5.19,33.8,33.8,0,0,0-2.19,20.16,45.66,45.66,0,0,0,2.42,8.29c-5.28-6.12-8.89-12.35-10-18.37a20.48,20.48,0,0,1-.06-7.4,36.84,36.84,0,0,0-6.42,7.16,43.49,43.49,0,0,0-4.09,7.49C274.12,744.31,275.77,737.58,279.25,732.53Z" transform="translate(-191.77 -348.37)" fill="#ff9e2e"/><path d="M277.63,743.79a14.61,14.61,0,0,1,6.76-6.48,36.84,36.84,0,0,0-6.42,7.16,43.49,43.49,0,0,0-4.09,7.49C275,749.28,276.54,745.76,277.63,743.79Z" transform="translate(-191.77 -348.37)" fill="#d04000" opacity="0.4"/><path d="M294.47,763.08c-1.09-2.78-3.06-6.14-3.67-8.33-1.38-4.91-1.48-13.4,3.44-20.12a33.8,33.8,0,0,0-2.19,20.16A45.66,45.66,0,0,0,294.47,763.08Z" transform="translate(-191.77 -348.37)" fill="#d04000" opacity="0.4"/><path d="M304.58,746c-3-5.69-6.07-12.54-5.33-18.26,8.38-2.12,20.05-1.23,30.14,0-10.09-1.28-19.62-1.09-28,1A28.23,28.23,0,0,0,304.58,746Z" transform="translate(-191.77 -348.37)" fill="#d04000" opacity="0.4"/><path d="M273.88,752c.24-7.65,2.25-11.73,5.73-16.78,5.6-8.15,17.16-12.37,30-12.48-12.82-1.64-24.12.71-30.39,9.83C275.77,737.58,274.12,744.31,273.88,752Z" transform="translate(-191.77 -348.37)" fill="#fff" opacity="0.4"/><path d="M305.06,692.06c1.25,10.73,12.46,17.49,22.32,13.09l.66-.31a60.42,60.42,0,0,0,20.35-17.33c7.22-10.24,6.56-21.64-3.68-28.87s-26.17-7.54-33.4,2.7C306.68,667.9,303.82,681.35,305.06,692.06Z" transform="translate(-191.77 -348.37)" fill="#0064af"/><path d="M318.23,662.56a24.11,24.11,0,0,1,12.53-9c-7.54-.71-15.08,1.62-19.45,7.8-4.63,6.56-7.49,20-6.25,30.72a16.31,16.31,0,0,0,4.73,9.74C308.57,687.86,312.3,671,318.23,662.56Z" transform="translate(-191.77 -348.37)" opacity="0.1"/><path d="M351.51,666.39a32.91,32.91,0,0,1-5.13,14.5,78.19,78.19,0,0,1-25,23.93l-.83.45a20.24,20.24,0,0,1-2.25,1,15.39,15.39,0,0,0,9.07-1.11l.66-.31a60.42,60.42,0,0,0,20.35-17.33C353.38,680.44,354.6,672.81,351.51,666.39Z" transform="translate(-191.77 -348.37)" fill="#fff" opacity="0.6"/><path d="M486.23,457.78a29.49,29.49,0,0,0,7.38-18.29c.95-19-16.85-37.89-40-37.85a41.29,41.29,0,0,0-12.29,1.83c-12.24-10.66-25.08-18.63-38-22.7a35.81,35.81,0,0,1,11.15-5.15,47.39,47.39,0,0,1,8.72-1.47c-8-2.13-15.35-2.68-21.39-1-.24.06-.46.14-.68.2a70.55,70.55,0,0,1,10.57-14.87,75,75,0,0,1,11.5-10.08c-12.84,2.84-23.73,8.07-31.29,16.22a42.07,42.07,0,0,0-8.25,13.15h-.19c-5.41-6.23-12.8-9.7-22.6-9.07-9.23.58-19.86,4.74-31,11.34a75.29,75.29,0,0,1,13.1-2.07,48.25,48.25,0,0,1,22,3.34c-58.45,21.64-91.23,137.05-91.23,200.89,0,70.65,40.15,121,110.79,121s145.05-50.37,145.05-121C529.51,548.05,512.15,499.18,486.23,457.78Z" transform="translate(-191.77 -348.37)" fill="#0064af"/><path d="M357.05,401.61a76.33,76.33,0,0,1,25.16,4.2,66.37,66.37,0,0,0-30.68-7.42c-30.78-.05-55.7,20.8-62.41,45.35C300.11,420.09,326,401.56,357.05,401.61Z" transform="translate(-191.77 -348.37)" fill="#ffe7d4" opacity="0.2"/><path d="M356.14,398.55c2.9-6.62,5.52-12.32,7.71-16.86-9.6,3.76-18.5,10.06-26.67,18.23a66.85,66.85,0,0,1,14.35-1.53C353.08,398.39,354.62,398.44,356.14,398.55Zm-11.59,255.7a204.6,204.6,0,0,0,8.18,21.53c-15.37-16.6-28.94-47.16-32.83-74.09-2.51-17.42-2-34.27,1.24-49.08q-2,5.6-3.56,11.49a124.78,124.78,0,0,0-3.34,44.27c-11.15-23.89-6-64.43,4.81-105.38-11.63-5.33-21-13.6-26.43-24.15C280.2,515,273.67,553.7,273.67,582.18c0,70.65,40.15,121,110.79,121q6.77,0,13.54-.61C375.2,693.07,357.21,676.35,344.55,654.25Z" transform="translate(-191.77 -348.37)" fill="#fff" opacity="0.6"/><path d="M351.53,398.39c-37.09-.06-65.66,30.22-64.14,60.76,1.48,30.71,30.07,50.56,64.14,50.66,34.07-.1,62.66-19.95,64.14-50.66C417.19,428.61,388.62,398.33,351.53,398.39Z" transform="translate(-191.77 -348.37)" fill="#0064af"/><path d="M357.05,401.61a76.33,76.33,0,0,1,25.16,4.2,66.37,66.37,0,0,0-30.68-7.42c-30.78-.05-55.7,20.8-62.41,45.35C300.11,420.09,326,401.56,357.05,401.61Z" transform="translate(-191.77 -348.37)" fill="#fff" opacity="0.6"/><g opacity="0.1"><path d="M492.7,638.58a201.33,201.33,0,0,1-7.58,23.7c11.91-14.69,22.42-41.73,25.43-65.56a139.82,139.82,0,0,0-1-43.43q1.57,5,2.76,10.17a125.34,125.34,0,0,1,2.59,39.17c6.95-14.5,9.23-32.53,5.15-50.54-4.12-18.24-37.87-71.31-45.15-85.8a36.08,36.08,0,0,0,11.29-8.5c25.91,41.4,43.28,90.26,43.28,124.39,0,56.12-46.93,99.43-101.64,114.88C454.84,684.33,478.27,664.08,492.7,638.58Z" transform="translate(-191.77 -348.37)" opacity="0.6"/><path d="M441.36,403.47a41.32,41.32,0,0,0-5.56,2.16,196.07,196.07,0,0,0-17.58-18.49A129,129,0,0,1,441.36,403.47Z" transform="translate(-191.77 -348.37)" opacity="0.6"/></g><path d="M457.09,403.64a47.46,47.46,0,0,1,15.68,2.62,41.38,41.38,0,0,0-19.12-4.62c-19.18,0-34.7,12.95-38.88,28.25C421.62,415.16,437.73,403.61,457.09,403.64Z" transform="translate(-191.77 -348.37)" fill="#fff" opacity="0.6"/><path d="M472.94,409.12c-27.57-.05-48.81,22.46-47.67,45.16s22.35,37.58,47.67,37.66c25.32-.08,46.57-14.83,47.67-37.66S500.51,409.07,472.94,409.12Z" transform="translate(-191.77 -348.37)" fill="#ffe7d4"/><path d="M479.05,409.48c20.28,6,34.37,24.51,33.44,43.11-1.1,22.83-22.35,37.58-47.67,37.66a64.1,64.1,0,0,1-8.39-.59,61.19,61.19,0,0,0,16.51,2.28c25.32-.08,46.57-14.83,47.67-37.66C521.66,433.29,503.58,412.46,479.05,409.48Z" transform="translate(-191.77 -348.37)" fill="#e75400" opacity="0.2"/><path d="M345.37,406.5c-37.09-.07-65.67,30.22-64.14,60.75,1.48,30.72,30.07,50.56,64.14,50.67,34.07-.11,62.65-19.95,64.13-50.67C411,436.72,382.45,406.43,345.37,406.5Z" transform="translate(-191.77 -348.37)" fill="#ffe7d4"/><path d="M361,513c-34.07-.12-62.66-21.15-64.14-53.69-.8-17,6.71-33.93,19.39-46.16-21.82,10.56-36.14,32.28-35,54.13,1.48,30.72,30.07,50.56,64.14,50.67a78.86,78.86,0,0,0,32.31-6.75A79.61,79.61,0,0,1,361,513Z" transform="translate(-191.77 -348.37)" fill="#e75400" opacity="0.2"/><path d="M381.34,443.19a17.38,17.38,0,0,1,.1,1.92A19.11,19.11,0,1,1,362.33,426a18.74,18.74,0,0,1,4.47.55,33.67,33.67,0,1,0,14.54,16.64Z" transform="translate(-191.77 -348.37)" fill="#51364d"/><path d="M330.19,486.47a5.09,5.09,0,1,0-5.08-5.09A5.09,5.09,0,0,0,330.19,486.47Z" transform="translate(-191.77 -348.37)" fill="#fff"/><circle cx="131.75" cy="138.1" r="1.59" fill="#fff"/><path d="M453.73,437.43c.27-.07.56-.12.84-.17a8.61,8.61,0,1,1-7.22,9.81,9.25,9.25,0,0,1-.06-2,15.18,15.18,0,1,0,6.44-7.61Z" transform="translate(-191.77 -348.37)" fill="#51364d"/><path d="M450.7,463.28a2.2,2.2,0,1,0-2.2-2.2A2.2,2.2,0,0,0,450.7,463.28Z" transform="translate(-191.77 -348.37)" fill="#fff"/><path d="M447.81,464a.69.69,0,1,0-.69-.69A.69.69,0,0,0,447.81,464Z" transform="translate(-191.77 -348.37)" fill="#fff"/><path d="M392.31,515.12c-.13.07-12.48,17.33,6.24,15.23,8.07-.9,45-20.82,45-20.82S411.66,507.63,392.31,515.12Z" transform="translate(-191.77 -348.37)" fill="#ff9e2e"/><path d="M432.15,515.5c6.54-3.37,11.36-6,11.36-6s-31.85-1.9-51.2,5.59C401.33,513,416.15,513.74,432.15,515.5Z" transform="translate(-191.77 -348.37)" opacity="0.1"/><path d="M399.57,527.8C389,529,388.33,524,389.76,519.46c-2.34,5-3.78,12.3,8.79,10.89,4.29-.48,16.75-6.34,27.46-11.73C414.18,523.28,403,527.42,399.57,527.8Z" transform="translate(-191.77 -348.37)" opacity="0.1"/><path d="M468,480.08c-9.36-7.57-23.26,23-39.87,14.95s-35.72,20.14-35.82,20.09c22.63-5.26,67,0,89.64,2.24C482.08,517.25,475.3,485.77,468,480.08Z" transform="translate(-191.77 -348.37)" fill="#ff9e2e"/><path d="M468,480.08c-9.36-7.57-23.26,23-39.87,14.95-8.55-4.12-17.76,1.33-24.7,7.59,7.59-5,17.17-8.74,24.62-5.15,16.6,8,29.5-14.14,38.85-6.57,7.31,5.69,15.18,26.35,15.05,26.46C482.08,517.25,475.3,485.77,468,480.08Z" transform="translate(-191.77 -348.37)" fill="#fff" opacity="0.4"/><path d="M468,480.08c-9.36-7.57-23.26,23-39.87,14.95-7.7-3.72-15.95.35-22.58,5.78,7.12-4.88,15.54-8.25,22.87-4.72,16.6,8,28.37-20.19,39-14.8,3.47,1.77,6.62,8.42,9.1,15.54C474.09,489.52,471.09,482.49,468,480.08Z" transform="translate(-191.77 -348.37)" fill="#fff" opacity="0.2"/><path d="M417,499.27s-1.68,1.88.54,1.86c1,0,5.54-1.9,5.54-1.9A17.91,17.91,0,0,0,417,499.27Z" transform="translate(-191.77 -348.37)" opacity="0.2"/><path d="M737.38,706c75.78,0,177.47,17.14,177.47,23.3s-101.69,11.16-177.47,11.16-161.17-5-161.17-11.16S661.61,706,737.38,706Z" transform="translate(-191.77 -348.37)" opacity="0.1"/><path d="M805.89,648.37a24.81,24.81,0,0,0,8.53-1,13.21,13.21,0,0,0,5.64-10.82,19.94,19.94,0,0,0-.16-3,16.87,16.87,0,0,1,1.57,6.9,8,8,0,0,1-1.23,4.2,23.29,23.29,0,0,0,2-1.46,29.08,29.08,0,0,0,4.42-4.39c-1.72,5.09-4,9.27-7,12.06,4.8-1.7,8.72-4.18,11.07-7.69A37.11,37.11,0,0,0,834,637.1c-.34,6.35-1.74,11.91-4.5,16a9.78,9.78,0,0,1-1.15,1.42c7.24-1,13.42-3.33,17.46-7.66a47.2,47.2,0,0,0,5.51-7.27c-1.69,8.23-4.62,15.16-9.05,19.91-3.06,3.29-7.85,4.81-13.59,5.06,12.93,4.81,24.21,11,27.64,17.84a26,26,0,0,1,2.17,16.17,40.18,40.18,0,0,0-2.74-7c-4.78-9.48-20.18-18.67-36.18-25.82a22.76,22.76,0,0,1,6.55,7.89,26.12,26.12,0,0,1,1.28,16.28,40,40,0,0,0-2.36-7.19c-3.33-7.66-13.21-15.58-24.84-22.59Z" transform="translate(-191.77 -348.37)" fill="#0064af"/><polygon points="469.7 309.15 499 370.61 496.6 371.81 460.46 309.15 469.7 309.15" fill="#ff9e2e"/><polygon points="497.65 371.28 496.6 371.81 460.46 309.15 497.65 371.28" fill="#fff" opacity="0.4"/><polygon points="481.18 340.89 483.67 339.95 469.7 309.15 493.1 358.23 493.1 358.23 493.4 358.86 493.4 358.86 495.8 363.89 495.8 363.89 496 364.31 499 370.61 497.85 371.19 494.79 364.44 494.27 364.47 494.72 364.3 492.29 358.93 491 359.02 492.13 358.59 490.28 354.51 488.45 354.63 490.06 354.03 488.17 349.87 485.42 350.05 487.84 349.14 486.1 345.29 483.42 345.47 485.77 344.58 484.01 340.7 481.18 340.89" fill="#d04000" opacity="0.4"/><path d="M663.58,662.94c8.68-3.1,20-.17,23.11,8.51,2,5.56,1.35,15.64-1.64,23a11.82,11.82,0,0,1-18.39,4.86l-.4-.35a44.49,44.49,0,0,1-11-16.29C652.18,674,654.9,666,663.58,662.94Z" transform="translate(-191.77 -348.37)" fill="#0064af"/><path d="M670.26,697.85c.22.21.46.41.69.6a19.58,19.58,0,0,0,5.47,3.21,11.39,11.39,0,0,1-9.76-2.37l-.4-.35a44.49,44.49,0,0,1-11-16.29A20,20,0,0,1,654,676,76.57,76.57,0,0,0,670.26,697.85Z" transform="translate(-191.77 -348.37)" fill="#fff" opacity="0.6"/><path d="M662.1,726.52c9.16-13.31,29.27-11.86,48.92-4.67-9.85-1.25-19.15-1.06-27.32,1a27.54,27.54,0,0,0,3.12,16.76,37.59,37.59,0,0,0,3.89,5.85c-5.58-3.47-9.9-7.44-12.24-11.85a16.64,16.64,0,0,1-1.74-5.06,32.92,32.92,0,0,0-2.14,19.67,44.21,44.21,0,0,0,2.37,8.08c-5.15-6-8.68-12-9.78-17.91a20,20,0,0,1-.06-7.22,35.9,35.9,0,0,0-6.26,7,42.48,42.48,0,0,0-4,7.31C657.1,738,658.72,731.45,662.1,726.52Z" transform="translate(-191.77 -348.37)" fill="#ff9e2e"/><path d="M660.52,737.5a14.27,14.27,0,0,1,6.6-6.32,35.9,35.9,0,0,0-6.26,7,42.48,42.48,0,0,0-4,7.31C658,742.85,659.47,739.42,660.52,737.5Z" transform="translate(-191.77 -348.37)" fill="#d04000" opacity="0.4"/><path d="M677,756.31c-1.07-2.71-3-6-3.59-8.12-1.34-4.79-1.44-13.07,3.36-19.63a32.92,32.92,0,0,0-2.14,19.67A44.21,44.21,0,0,0,677,756.31Z" transform="translate(-191.77 -348.37)" fill="#d04000" opacity="0.4"/><path d="M686.82,739.62c-2.94-5.55-5.93-12.24-5.21-17.82,8.18-2.07,19.56-1.2,29.41.05-9.85-1.25-19.15-1.06-27.32,1A27.54,27.54,0,0,0,686.82,739.62Z" transform="translate(-191.77 -348.37)" fill="#d04000" opacity="0.4"/><path d="M656.86,745.47c.24-7.46,2.21-11.44,5.6-16.37,5.46-8,16.73-12.07,29.29-12.17-12.5-1.6-23.53.69-29.65,9.59C658.72,731.45,657.1,738,656.86,745.47Z" transform="translate(-191.77 -348.37)" fill="#fff" opacity="0.4"/><polygon points="586.45 310.84 615.76 372.29 613.35 373.5 577.22 310.84 586.45 310.84" fill="#ff9e2e"/><polygon points="614.41 372.97 613.35 373.5 577.22 310.84 614.41 372.97" fill="#fff" opacity="0.4"/><polygon points="597.93 342.58 600.43 341.63 586.45 310.84 609.85 359.91 609.85 359.91 610.16 360.54 610.16 360.54 612.56 365.58 612.56 365.58 612.75 365.99 615.76 372.29 614.6 372.87 611.54 366.12 611.02 366.16 611.48 365.99 609.04 360.62 607.75 360.7 608.89 360.28 607.04 356.2 605.21 356.32 606.82 355.71 604.93 351.55 602.18 351.74 604.6 350.82 602.85 346.98 600.18 347.16 602.53 346.27 600.77 342.38 597.93 342.58" fill="#d04000" opacity="0.4"/><path d="M829.52,728.2c-9.15-13.31-29.27-11.85-48.92-4.66,9.85-1.25,19.15-1.06,27.32,1a27.51,27.51,0,0,1-3.12,16.75,37.21,37.21,0,0,1-3.89,5.86c5.59-3.48,9.91-7.45,12.24-11.85a16.55,16.55,0,0,0,1.74-5.06A32.9,32.9,0,0,1,817,749.92a44.21,44.21,0,0,1-2.37,8.08c5.16-6,8.68-12,9.78-17.91a20.18,20.18,0,0,0,.07-7.22,36.26,36.26,0,0,1,6.26,7,42.75,42.75,0,0,1,4,7.31C834.52,739.69,832.91,733.13,829.52,728.2Z" transform="translate(-191.77 -348.37)" fill="#ff9e2e"/><path d="M831.1,739.19a14.24,14.24,0,0,0-6.59-6.32,36.26,36.26,0,0,1,6.26,7,42.75,42.75,0,0,1,4,7.31C833.63,744.54,832.16,741.11,831.1,739.19Z" transform="translate(-191.77 -348.37)" fill="#d04000" opacity="0.4"/><path d="M814.66,758c1.07-2.71,3-6,3.59-8.12,1.34-4.8,1.44-13.07-3.36-19.63A32.9,32.9,0,0,1,817,749.92,44.21,44.21,0,0,1,814.66,758Z" transform="translate(-191.77 -348.37)" fill="#d04000" opacity="0.4"/><path d="M804.8,741.3c2.94-5.55,5.93-12.23,5.21-17.81-8.18-2.07-19.56-1.2-29.41,0,9.85-1.25,19.15-1.06,27.32,1A27.51,27.51,0,0,1,804.8,741.3Z" transform="translate(-191.77 -348.37)" fill="#d04000" opacity="0.4"/><path d="M829.52,728.2c-6.12-8.89-17.14-11.19-29.65-9.59,12.56.11,23.83,4.23,29.3,12.18,3.39,4.92,5.35,8.9,5.59,16.37C834.52,739.69,832.91,733.13,829.52,728.2Z" transform="translate(-191.77 -348.37)" fill="#fff" opacity="0.4"/><path d="M804.33,688.72c-1.21,10.47-12.14,17.07-21.76,12.77l-.65-.3a58.91,58.91,0,0,1-19.85-16.91c-7.05-10-6.4-21.11,3.59-28.16s25.53-7.35,32.58,2.63C802.76,665.15,805.54,678.27,804.33,688.72Z" transform="translate(-191.77 -348.37)" fill="#0064af"/><path d="M791.49,659.94a23.55,23.55,0,0,0-12.22-8.8c7.36-.69,14.71,1.58,19,7.61,4.52,6.4,7.3,19.52,6.09,30a15.83,15.83,0,0,1-4.61,9.5C800.92,684.62,797.28,668.14,791.49,659.94Z" transform="translate(-191.77 -348.37)" opacity="0.1"/><path d="M759,663.68a32.2,32.2,0,0,0,5,14.15,76.38,76.38,0,0,0,24.38,23.34l.81.44a21.17,21.17,0,0,0,2.19,1,15,15,0,0,1-8.84-1.09l-.65-.3a58.91,58.91,0,0,1-19.85-16.91C757.2,677.38,756,669.94,759,663.68Z" transform="translate(-191.77 -348.37)" fill="#fff" opacity="0.6"/><path d="M627.6,460.18a28.78,28.78,0,0,1-7.19-17.84c-.93-18.56,16.43-37,39-36.93a40.24,40.24,0,0,1,12,1.79c12-10.4,24.47-18.17,37.09-22.14a34.76,34.76,0,0,0-10.88-5,45.71,45.71,0,0,0-8.5-1.43c7.8-2.09,15-2.62,20.87-1l.66.2a68.22,68.22,0,0,0-10.31-14.51,74.55,74.55,0,0,0-11.22-9.84c12.53,2.78,23.15,7.88,30.52,15.83a40.93,40.93,0,0,1,8,12.83h.19c5.27-6.08,12.49-9.46,22-8.85,9,.57,19.37,4.62,30.27,11.06a74.33,74.33,0,0,0-12.78-2A47.11,47.11,0,0,0,746,385.56c57,21.12,89,133.7,89,196,0,68.91-39.16,118.05-108.08,118.05s-141.5-49.14-141.5-118.05C585.38,548.24,602.32,500.57,627.6,460.18Z" transform="translate(-191.77 -348.37)" fill="#0064af"/><path d="M753.62,405.38a74.54,74.54,0,0,0-24.54,4.1A64.81,64.81,0,0,1,759,402.24c30-.05,54.33,20.29,60.88,44.24C809.17,423.41,783.94,405.33,753.62,405.38Z" transform="translate(-191.77 -348.37)" fill="#ffe7d4" opacity="0.2"/><path d="M759,402.24a65.4,65.4,0,0,1,14,1.5c-8-8-16.64-14.12-26-17.79,2.13,4.43,4.69,10,7.52,16.44C756,402.3,757.49,402.24,759,402.24ZM713.67,699c4.41.39,8.81.6,13.21.6C795.8,699.59,835,650.45,835,581.54c0-27.79-6.37-65.6-18.49-100.82C811.15,491,802,499.08,790.69,504.28c10.53,40,15.57,79.5,4.69,102.8a121.42,121.42,0,0,0-3.26-43.18q-1.49-5.76-3.47-11.21c3.17,14.44,3.66,30.89,1.21,47.87-3.79,26.27-17,56.09-32,72.28a199.75,199.75,0,0,0,8-21C753.47,673.4,735.92,689.71,713.67,699Z" transform="translate(-191.77 -348.37)" opacity="0.1"/><path d="M759,402.24c36.18-.06,64,29.48,62.56,59.27-1.44,30-29.33,49.32-62.56,49.43-33.24-.11-61.13-19.47-62.57-49.43C695,431.72,722.83,402.18,759,402.24Z" transform="translate(-191.77 -348.37)" fill="#0064af"/><path d="M753.62,405.38a74.54,74.54,0,0,0-24.54,4.1A64.81,64.81,0,0,1,759,402.24c30-.05,54.33,20.29,60.88,44.24C809.17,423.41,783.94,405.33,753.62,405.38Z" transform="translate(-191.77 -348.37)" fill="#fff" opacity="0.6"/><path d="M621.3,636.55a192.75,192.75,0,0,0,7.39,23.12c-11.62-14.33-21.88-40.71-24.81-63.95a136.44,136.44,0,0,1,.94-42.37c-1,3.22-1.93,6.53-2.69,9.92a121.89,121.89,0,0,0-2.53,38.21c-6.78-14.14-9-31.73-5-49.3,4-17.79,36.94-69.56,44-83.7a35,35,0,0,1-11-8.3c-25.29,40.39-42.23,88.06-42.23,121.36,0,54.73,45.79,97,99.16,112.06C658.23,681.18,635.37,661.42,621.3,636.55Z" transform="translate(-191.77 -348.37)" fill="#fff" opacity="0.6"/><path d="M671.38,407.2a40.31,40.31,0,0,1,5.42,2.11,190.24,190.24,0,0,1,17.15-18A125.19,125.19,0,0,0,671.38,407.2Z" transform="translate(-191.77 -348.37)" fill="#fff" opacity="0.6"/><path d="M656,407.37a46.23,46.23,0,0,0-15.29,2.55,40.3,40.3,0,0,1,18.65-4.51c18.7,0,33.85,12.64,37.92,27.56C690.64,418.6,674.92,407.33,656,407.37Z" transform="translate(-191.77 -348.37)" fill="#fff" opacity="0.6"/><path d="M640.57,412.71c26.89,0,47.61,21.91,46.51,44.05s-21.81,36.66-46.51,36.74c-24.71-.08-45.44-14.47-46.51-36.74S613.68,412.66,640.57,412.71Z" transform="translate(-191.77 -348.37)" fill="#ffe7d4"/><path d="M634.61,413.06C614.83,419,601.08,437,602,455.12c1.08,22.27,21.81,36.66,46.51,36.73a62.63,62.63,0,0,0,8.18-.57,59.74,59.74,0,0,1-16.1,2.22c-24.71-.08-45.44-14.47-46.51-36.74C593,436.29,610.68,416,634.61,413.06Z" transform="translate(-191.77 -348.37)" fill="#e75400" opacity="0.2"/><path d="M765,410.15c36.18-.06,64.05,29.48,62.57,59.27-1.45,30-29.34,49.32-62.57,49.42-33.24-.1-61.12-19.46-62.57-49.42C701,439.63,728.84,410.09,765,410.15Z" transform="translate(-191.77 -348.37)" fill="#ffe7d4"/><path d="M749.74,514c33.24-.11,61.12-20.62,62.57-52.37.78-16.59-6.55-33.1-18.92-45,21.29,10.31,35.26,31.49,34.2,52.81-1.45,30-29.34,49.32-62.57,49.42a76.68,76.68,0,0,1-31.52-6.58A76.46,76.46,0,0,0,749.74,514Z" transform="translate(-191.77 -348.37)" fill="#e75400" opacity="0.2"/><path d="M729.92,446q-.09.92-.09,1.86a18.64,18.64,0,1,0,18.64-18.63,18.39,18.39,0,0,0-4.36.53A32.81,32.81,0,1,1,729.92,446Z" transform="translate(-191.77 -348.37)" fill="#51364d"/><path d="M779.82,488.16a5,5,0,1,1,5-5A5,5,0,0,1,779.82,488.16Z" transform="translate(-191.77 -348.37)" fill="#fff"/><circle cx="594.56" cy="139.8" r="1.55" fill="#fff"/><path d="M659.31,440.33c-.27-.07-.54-.12-.82-.17a8.41,8.41,0,1,0,7,9.57,8.79,8.79,0,0,0,.06-2,14.79,14.79,0,1,1-6.28-7.42Z" transform="translate(-191.77 -348.37)" fill="#51364d"/><circle cx="470.5" cy="115.03" r="2.15" fill="#fff"/><path d="M665.08,466.22a.67.67,0,1,1,.67-.67A.67.67,0,0,1,665.08,466.22Z" transform="translate(-191.77 -348.37)" fill="#fff"/><path d="M719.22,516.12c.13.06,12.18,16.9-6.09,14.86-7.86-.88-43.86-20.32-43.86-20.32S700.35,508.81,719.22,516.12Z" transform="translate(-191.77 -348.37)" fill="#ff9e2e"/><path d="M680.36,516.49c-6.38-3.29-11.09-5.83-11.09-5.83s31.08-1.85,50,5.46C710.42,514.07,696,514.77,680.36,516.49Z" transform="translate(-191.77 -348.37)" opacity="0.1"/><path d="M712.15,528.48c10.28,1.15,11-3.68,9.56-8.13,2.29,4.86,3.69,12-8.58,10.63-4.18-.47-16.33-6.19-26.78-11.45C697.89,524.08,708.83,528.11,712.15,528.48Z" transform="translate(-191.77 -348.37)" opacity="0.1"/><path d="M645.39,481.94c9.13-7.39,22.69,22.39,38.89,14.58s34.85,19.64,34.94,19.6c-22.07-5.14-65.37,0-87.44,2.18C631.65,518.19,638.26,487.48,645.39,481.94Z" transform="translate(-191.77 -348.37)" fill="#ff9e2e"/><path d="M645.39,481.94c9.13-7.39,22.69,22.39,38.89,14.58,8.34-4,17.32,1.29,24.09,7.4-7.39-4.86-16.75-8.52-24-5-16.2,7.81-28.78-13.8-37.9-6.41-7.13,5.55-14.81,25.7-14.68,25.81C631.65,518.19,638.26,487.48,645.39,481.94Z" transform="translate(-191.77 -348.37)" fill="#fff" opacity="0.4"/><path d="M637.09,498.27c2.41-6.94,5.49-13.43,8.88-15.16,10.35-5.26,21.83,22.25,38,14.44,7.15-3.45,15.36-.15,22.31,4.6-6.47-5.29-14.51-9.26-22-5.63-16.2,7.81-29.76-22-38.89-14.58C642.37,484.28,639.45,491.14,637.09,498.27Z" transform="translate(-191.77 -348.37)" fill="#fff" opacity="0.2"/><path d="M695.13,500.65s1.64,1.84-.53,1.82c-.94,0-5.4-1.85-5.4-1.85A17.49,17.49,0,0,1,695.13,500.65Z" transform="translate(-191.77 -348.37)" opacity="0.2"/></g></svg>