<svg xmlns="http://www.w3.org/2000/svg" xmlns:xlink="http://www.w3.org/1999/xlink" viewBox="0 0 1066.15 909.93"><defs><clipPath id="a" transform="translate(-10.69 -127.25)"><rect width="1079.61" height="1079.61" rx="194.21" fill="none"/></clipPath></defs><g clip-path="url(#a)"><path d="M546.13,869.36c-294.41,0-535.44,42.91-535.44,42.91S328,1037.18,622.4,1037.18s454.44-124.91,454.44-124.91S840.54,869.36,546.13,869.36Z" transform="translate(-10.69 -127.25)" opacity="0.1"/><path d="M1071.57,818.76c-.72-1.15-1.44-2.3-2.17-3.44-17.8-27.62-39.25-45.47-61.75-53.62q16.19-7.94,33.23-14.38-2.43-.06-4.89-.06a210.33,210.33,0,0,0-43.1,4.45A197.23,197.23,0,0,0,965.81,734c-6.77-3.74-13.94-7.52-21.53-11.25a194.82,194.82,0,0,1,53.35,6.36,112.3,112.3,0,0,0-83.21-20.55,164.87,164.87,0,0,1,27.2-21.74A95.15,95.15,0,0,0,902,704.55c-11.35-4.15-23.38-8-36.12-11.29-32-8.33-68.72-8.61-107.3-14-33.86-4.72-69.31-11.94-107.06-14.26-34.8-2.14-70.91-8.25-108.09-8.25s-73.58,1.49-108.38,3.63c-37.75,2.32-72.56,16.71-106.42,21.43C290,687.21,255.69,695.64,223.73,704c-8.35,2.18-16.41,4.3-24.19,6.42a164.74,164.74,0,0,1-6.42-29,95,95,0,0,0-2.7,30.54,98.82,98.82,0,0,0-58.75,9.71c-.68.35-1.36.7-2,1.06a182,182,0,0,1,31.7-.81,239.39,239.39,0,0,0-38,16.36c-5.86,3.24-11.62,6.46-17.18,9.69a96.3,96.3,0,0,0-26.82-22.6c-.66-.37-1.32-.74-2-1.09A176.24,176.24,0,0,1,96.2,751.9a209.6,209.6,0,0,0-44-4.64q-2.44,0-4.89.06,17,6.43,33.24,14.38c-22.51,8.15-43.95,26-61.76,53.62-.73,1.14-1.45,2.29-2.16,3.44a189,189,0,0,1,32.4-18.14,40.42,40.42,0,0,0-2.13,12.92c0,30.47,27.61,66.38,66.06,94.13,25.92,18.69,64.11,28.22,103.45,43.24,32,12.21,68.16,19.67,107.07,28.27,34.48,7.62,70,19.91,108.62,23.91,35.72,3.7,73-.17,111.28-.17a231.63,231.63,0,0,1,24.25,1.41c56.39,14.59,130,15.19,204.7-.24q-36.21.1-71-1.19c21.85-5.7,42.92-12.61,63.43-17.15,38.91-8.59,76-16.57,107.94-28.78q5.8-2.22,11.29-4.79a568.55,568.55,0,0,1-44,38.91c29.56-7.72,65.11-26.48,89-59.18a163.11,163.11,0,0,1,36-35.83l.25-.18c15.18-10.95,28.06-21.34,38.09-31.78-11.19,19.27-25.66,36-38.95,49.89,40.66-13.07,86.93-50.86,61-118.66A182.3,182.3,0,0,1,1071.57,818.76Z" transform="translate(-10.69 -127.25)" fill="#d99e5a"/><path d="M1032.9,829.77c-23.24,20-64.32,23.11-92.26,42.42-27,18.69-5,18.63-46.08,33.64q-4.42,1.62-8.94,3.13a446,446,0,0,0-80,35.59c-37.93,21.68-78,29.53-112.65,21.16,33.31-7.44,68.29-19.1,103.95-34.57l-14.1,3c-36,7.62-73.05,19.91-113.36,23.91-37.28,3.7-76.19-.18-116.13-.18-8.45,0-16.89.57-25.3,1.41-58.85,14.6-135.65,15.2-213.63-.23q37.8.11,74.12-1.2c-22.79-5.69-44.79-12.6-66.19-17.14-40.61-8.6-79.26-16.57-112.64-28.78-4-1.48-8-3.09-11.78-4.79A583.8,583.8,0,0,0,243.82,946c-30.86-7.73-68-26.48-92.92-59.18A166.33,166.33,0,0,0,113.29,851l-.26-.19c-15.84-11-29.28-21.34-39.75-31.78,11.67,19.28,26.78,36,40.65,49.9-26.85-8.27-56-26.44-67-55.84h0c-.27,30.56,27.41,66.69,66.05,94.57,25.92,18.69,64.11,28.22,103.45,43.24,32,12.21,68.16,19.67,107.07,28.27,34.48,7.62,70,19.91,108.62,23.91,35.72,3.7,73-.17,111.28-.17a231.63,231.63,0,0,1,24.25,1.41c56.39,14.59,130,15.19,204.7-.24q-36.21.1-71-1.19c21.85-5.7,42.92-12.61,63.43-17.15,38.91-8.59,76-16.57,107.94-28.78q5.8-2.22,11.29-4.79a568.55,568.55,0,0,1-44,38.91c29.56-7.72,65.11-26.48,89-59.18a163.11,163.11,0,0,1,36-35.83l.25-.18c15.18-10.95,28.06-21.34,38.09-31.78-11.19,19.27-25.66,36-38.95,49.89C997.63,903.34,1034.54,876.22,1032.9,829.77Z" transform="translate(-10.69 -127.25)" fill="#7d4e24" opacity="0.5"/><path d="M544,684.35c-179.42,0-324,39.49-324,63.06,0,8.24,24.37,35.31,56.34,36.48,38.54,1.4,123.94,22.31,189,26.47,37.14,2.38,37.11-15.19,79.51-15.19,57.91,0,152.83,16.4,199.92,12.2,56.64-5.06,62.19-31.48,91.21-40,21.6-6.31,33.75-13.18,33.75-20C869.8,723.84,723.43,684.35,544,684.35Z" transform="translate(-10.69 -127.25)" fill="#7d4e24" opacity="0.5"/><path d="M770.4,688.54c13.8,8.18,67.9,16.56,85.79,9.73s21.06-25.18,15.24-34.32-18.43-5.6-36.33,1.23S761.25,683.12,770.4,688.54Z" transform="translate(-10.69 -127.25)" fill="#999"/><path d="M846.77,692.5c15.89-5.68,24.26-15.75,26.45-24.58,3,9.73-1.46,24.41-17,30.35-10.48,4-33.38,2.78-53.33-.56C820.57,697.5,837.17,695.94,846.77,692.5Z" transform="translate(-10.69 -127.25)" fill="#fff" opacity="0.4"/><path d="M799.64,640.94c10,8.55,40.21-4.07,51.91-22.55s4.37-43.74-5.66-52.29-19,2.84-30.69,21.32S789.61,632.39,799.64,640.94Z" transform="translate(-10.69 -127.25)" fill="#999"/><path d="M816.81,656.93c7.13,11.16,43.56,14.28,63,4.68s21.67-32.86,14.53-44-20.92-6-40.36,3.58S809.67,645.76,816.81,656.93Z" transform="translate(-10.69 -127.25)" fill="#999"/><path d="M865.51,664.45c25.57-11.66,30.31-37.19,22.13-49a13.92,13.92,0,0,0-4.55-4.23,12.84,12.84,0,0,1,11.25,6.32c7.14,11.16,4.91,34.43-14.53,44-5.76,2.85-13,4.57-20.56,5.31C861.44,666.17,863.54,665.35,865.51,664.45Z" transform="translate(-10.69 -127.25)" fill="#fff" opacity="0.4"/><path d="M804.53,654.17c10,8.55,77.26-29.14,89-47.62s4.37-43.74-5.67-52.29-19,2.85-30.68,21.33S794.49,645.62,804.53,654.17Z" transform="translate(-10.69 -127.25)" fill="#999"/><path d="M738.31,660.91c7.08,28.52,65.18,39.88,86.36,30.94s18.65-39.08,7.59-55.1c-5.44-7.87-13-54.68-17.35-48.76-11.42,15.7-21.15,39.28-31.93,43.82C761.79,640.75,733.78,642.63,738.31,660.91Z" transform="translate(-10.69 -127.25)" fill="#999"/><path d="M848.67,578.06c7.86,7.89,8.94,20.93,6.46,33,6.2-17.3-.49-37.47-9.24-44.93-10-8.55-19,2.84-30.69,21.32l-.79,1.27c-8.5,11.9-16.07,28-23.87,37,8.28-7.67,16.4-16.63,22.55-27.17C818.65,589,834.59,563.92,848.67,578.06Z" transform="translate(-10.69 -127.25)" fill="#fff" opacity="0.4"/><path d="M804.53,654.17c10,8.55,77.26-29.14,89-47.62s4.37-43.74-5.67-52.29-19,2.85-30.68,21.33S794.49,645.62,804.53,654.17Z" transform="translate(-10.69 -127.25)" fill="#999"/><path d="M857.14,575.59c-3.42,5.4-10.19,13.62-17.81,22.77,5.87-5.13,10.71-9.65,13.53-13,13.89-16.75,24.2-26.88,33.33-17.34,7.15,7.46,11.46,24.76,6.34,40,.35-.47.68-.94,1-1.39,11.7-18.48,4.37-43.74-5.67-52.29S868.84,557.11,857.14,575.59Z" transform="translate(-10.69 -127.25)" fill="#fff" opacity="0.4"/><path d="M763.27,666.36c5.9,11.53,75,7.18,90.75-3.82s17.36-35.75,11.46-47.28-17.08-5.47-32.82,5.53S757.37,654.83,763.27,666.36Z" transform="translate(-10.69 -127.25)" fill="#999"/><path d="M832.66,620.79c-4.6,3.21-12.95,7.46-22.3,12.14,6.6-2,12.15-3.82,15.61-5.57,17.07-8.59,29-13,33.85-1,3.77,9.39,2,26-7.05,37,.44-.26.86-.52,1.25-.79,15.74-11,17.36-35.75,11.46-47.28S848.4,609.79,832.66,620.79Z" transform="translate(-10.69 -127.25)" fill="#fff" opacity="0.4"/><g opacity="0.2"><path d="M831.19,678.93c6.23-1.66,10.52-2.51,11.54-.13s-1.61,7.07-7.85,8.73-16.11.5-17.13-1.88S825,680.6,831.19,678.93Z" transform="translate(-10.69 -127.25)" opacity="0.4"/><path d="M823,671.43c-1.67-2,5-7.25,10.2-10.85s8.84-5.77,10.5-3.74.71,7.49-4.48,11.09S824.67,673.46,823,671.43Z" transform="translate(-10.69 -127.25)" opacity="0.4"/><path d="M812.74,673.55c4-1.21,6.8-1.79,7.77.31s-.25,6.06-4.25,7.28-10.81-.16-11.78-2.25S808.73,674.77,812.74,673.55Z" transform="translate(-10.69 -127.25)" opacity="0.4"/></g><path d="M333.31,604.59c-19.18-2-40.73-61.73-36.29-103.91s36.36-67.31,55.54-65.29,18.36,30.43,13.92,72.61S352.49,606.61,333.31,604.59Z" transform="translate(-10.69 -127.25)" fill="#b8b6b7"/><path d="M305.58,637.11c-18.42,5.69-61.73-40.73-74.24-81.25s6.94-76.18,25.37-81.87,28.85,20.75,41.36,61.27S324,631.42,305.58,637.11Z" transform="translate(-10.69 -127.25)" fill="#b8b6b7"/><path d="M243.79,562.09c-11.26-36.47-4.59-68.69,7.09-85.33-16.35,10.49-30.73,42.86-19.54,79.1,7.32,23.71,25.18,49.43,42.43,65.55C261.25,603.37,249.94,582,243.79,562.09Z" transform="translate(-10.69 -127.25)" fill="#fff" opacity="0.4"/><path d="M302.44,673.44c-12.94,9.86-60.73-14.3-82.42-42.75s-16.66-62.35-3.72-72.22,28.88,8,50.57,36.5S315.38,663.58,302.44,673.44Z" transform="translate(-10.69 -127.25)" fill="#b8b6b7"/><path d="M228.54,624.47c-14.78-19.4-20.18-40.06-19.6-55.93-6.49,14.88-5.7,40.15,11.08,62.15,18.19,23.86,54.74,44.71,73.69,45C272.57,666.38,244.92,645.94,228.54,624.47Z" transform="translate(-10.69 -127.25)" fill="#fff" opacity="0.4"/><path d="M315.44,616.29c-19.18-2-58.19-148.44-53.75-190.62s36.36-67.31,55.54-65.29,18.36,30.43,13.92,72.6S334.62,618.31,315.44,616.29Z" transform="translate(-10.69 -127.25)" fill="#b8b6b7"/><path d="M267.32,440c6-42,38.83-65.92,57.92-63.2a15.08,15.08,0,0,1,7.58,3.2c-1.82-11.67-6.42-18.68-15.59-19.64-19.18-2-51.1,23.12-55.54,65.29-1.71,16.23,3,47.91,10.58,80.85C267.64,478.88,265.36,453.77,267.32,440Z" transform="translate(-10.69 -127.25)" fill="#fff" opacity="0.4"/><path d="M798.94,487.19c-30.77-68.48-195.67-1.48-313.61,21.8-33.73,6.65-64.38,59.08-86,43.09C285,467.61,231.29,566.77,237,655.69c2.78,43.27,27.26,91.1,62.72,130.42,43.6,5.8,111.64,20.8,165.67,24.25,37.14,2.38,37.11-15.19,79.51-15.19,57.91,0,152.83,16.4,199.92,12.2,56.64-5.06,62.19-31.48,91.21-40,1.38-.4,2.71-.81,4-1.21C870.83,690.67,843.87,587.21,798.94,487.19Z" transform="translate(-10.69 -127.25)" fill="#b8b6b7"/><path d="M245.75,697.45c10.53,30.74,29.68,61.7,54,88.66q5.19.69,10.82,1.55A290.08,290.08,0,0,1,245.75,697.45Z" transform="translate(-10.69 -127.25)" opacity="0.15"/><path d="M798.94,487.19c-6.27-14-18.11-22.28-34-26.5,15.47,22.58,26.74,47.28,32.17,72.16a139.57,139.57,0,0,1,3.37,29.3A391.42,391.42,0,0,0,808,636.9c10.93,55.29,11.27,107.16-5.21,150.4,11.1-7.87,19.58-15.89,33.29-19.9,1.38-.4,2.71-.81,4-1.21C870.83,690.67,843.87,587.21,798.94,487.19Z" transform="translate(-10.69 -127.25)" opacity="0.15"/><path d="M840.06,766.19h0l.53-1.34c-1.46.38-3,.76-4.54,1.13-29,6.95-34.57,28.6-91.21,32.75-47.09,3.44-152.23-15-210.14-15-42.41,0-51.09,18.23-88.23,16.29-54.8-2.87-118.62-17.23-151.7-19.58,1.63,1.9,3.28,3.79,5,5.66h.05l2.33.32.83.11,1.59.22,1,.15,1.5.21,1,.15,2.23.34c43.51,6.55,105.27,19.56,155.12,22.74,37.14,2.38,37.11-15.19,79.51-15.19,57.91,0,152.83,16.4,199.92,12.2,43.34-3.87,56.77-20.25,73.69-31.53l.18-.12.82-.55.29-.18.73-.47.36-.22.67-.41.4-.24.65-.39.43-.25.63-.36.45-.25.62-.34.48-.25.62-.33.49-.24.63-.32.5-.24.64-.3.51-.23.65-.29.52-.22.67-.28.53-.22.7-.27.52-.2.75-.27.5-.17.85-.29.42-.14,1.31-.4,2-.6.16-.06,1.81-.55Z" transform="translate(-10.69 -127.25)" opacity="0.15"/><path d="M316.89,536c18.74,2.56,40,13.52,63.62,35.62,8.74,8.18,20.25.52,33.24-11C374.56,527.41,342,523.2,316.89,536Z" transform="translate(-10.69 -127.25)" fill="#fff" opacity="0.35"/><path d="M559.3,263.83c17.45,1.84,47.33-41.26,50.9-75.22s-20.38-59.42-37.84-61.26S550.56,148,547,182,541.84,262,559.3,263.83Z" transform="translate(-10.69 -127.25)" fill="#c1272d"/><path d="M572.36,127.35c-7.09-.74-12,2.53-15.61,9a14.89,14.89,0,0,1,7.66-.82c17.4,2.31,40.66,28.41,36.17,62.26-3.09,23.34-18.81,50.69-34,64.67,17.43-7.73,40.49-44.23,43.6-73.8C613.78,154.66,589.82,129.19,572.36,127.35Z" transform="translate(-10.69 -127.25)" fill="#fff" opacity="0.4"/><path d="M552.62,270.17c14.21-10.3,7.62-62.33-12.42-90s-54.88-30.57-69.09-20.27-2.41,29.93,17.63,57.58S538.41,280.47,552.62,270.17Z" transform="translate(-10.69 -127.25)" fill="#c1272d"/><path d="M478.89,172.72c14.07-10.2,48.32-7.43,68.45,19.41a84.33,84.33,0,0,0-7.14-11.94c-20-27.64-54.88-30.57-69.09-20.27-11.58,8.4-5.88,23,7.47,43.07C471.32,189.41,469.94,179.21,478.89,172.72Z" transform="translate(-10.69 -127.25)" fill="#fff" opacity="0.4"/><path d="M527.17,269.41c4.67-12.24-20.7-42.06-44.52-51.15s-46.78,3.31-51.46,15.56,10.72,19.69,34.54,28.78S522.5,281.65,527.17,269.41Z" transform="translate(-10.69 -127.25)" fill="#c1272d"/><path d="M442.37,240.31c4.18-10.95,19.56-22.58,37.35-23.05-22.74-7.06-44.05,4.82-48.53,16.56-3,7.81,2.23,13.68,12.57,19.26C441.13,249.39,440.49,245.25,442.37,240.31Z" transform="translate(-10.69 -127.25)" fill="#fff" opacity="0.4"/><path d="M506.6,262.18c-65.3-.8-116.17,52-114,105.78,2,54.11,52,89.58,112,90.39,60,.45,110.69-34,113.87-88C621.65,316.61,571.9,262.76,506.6,262.18Z" transform="translate(-10.69 -127.25)" fill="#d6c6b6"/><path d="M808.53,503.71c-13.37-43.83-39.77-91.77-65.87-134.46A52,52,0,0,0,756,337.18c2-33.48-29-67-69.65-67.39a73,73,0,0,0-21.67,3l-.64-.57c-22.77-20.12-47.94-35-76.65-42.49a105.36,105.36,0,0,0-24-3.3h-.19c-14.88-.51-24.71,3.41-32.78,5.89-17.68,6.34-34.1,17.54-49.17,32.3-52.63,10.9-90.58,56.75-88.74,103.35a83.72,83.72,0,0,0,8.84,34.76c-14.52,40.81-29.06,82.49-34.65,121.18-2.31,11.43,3.15,39,23.61,43.17,11,2.23,20.17.36,26.66-3.62,4.77,11.8,15.27,25.16,30.48,24.47,15-.67,25-7.63,29.28-15.81.16,10.09,6,21.89,20.44,27.8,14.72,6,33.51-3.61,43.57-13.31,5.72,10.27,17.11,20.25,30.88,18.78s22.87-9.22,28.4-17.8a45.93,45.93,0,0,0,25.81,11.65c11.49,1.32,20.83-5.63,27.1-14.06a45.84,45.84,0,0,0,28.16,6.67c14.17-1.19,22.68-14,26.35-25.72a46.13,46.13,0,0,0,26.95,5.93c13-1.1,21.26-12,25.37-22.86,6.38,3.95,15.37,5.89,26.19,3.93,15-2.72,21.16-24.56,23.32-36.09A27.84,27.84,0,0,0,808.53,503.71Z" transform="translate(-10.69 -127.25)" fill="#dcdcde"/><path d="M664.68,272.79l-.64-.57c-19.19-17-40.08-30.16-63.36-38.4,19.78,9.42,37.81,23.94,54.53,42.52a71.3,71.3,0,0,1,9.68-3.61Z" transform="translate(-10.69 -127.25)" fill="#998675" opacity="0.2"/><path d="M481.3,264.61A117.38,117.38,0,0,1,497,262.45c11.3-12.81,23.26-22.79,35.86-29.28,3.27-1.45,6.84-3.24,10.92-4.81-5.11,1.21-9.45,2.75-13.36,3.95C512.78,238.65,496.36,249.85,481.3,264.61Z" transform="translate(-10.69 -127.25)" fill="#998675" opacity="0.2"/><path d="M416.24,394.33a90.69,90.69,0,0,1-10-36.06c-1.56-22.31,5.25-44.73,18.11-63.73C403.71,314.37,391.49,341,392.55,368a83.72,83.72,0,0,0,8.84,34.76c-14.52,40.81-29.06,82.49-34.65,121.18-2.31,11.43,3.15,39,23.61,43.17a40.17,40.17,0,0,0,19.95-.61c-20.27-4-26.56-32.34-24.64-44.29C390,481.53,403.09,437.47,416.24,394.33Z" transform="translate(-10.69 -127.25)" fill="#fff" opacity="0.35"/><path d="M650.63,588.06l.47-.53-.11-.07Zm157.9-84.35c-13.37-43.83-39.77-91.77-65.87-134.46A52,52,0,0,0,756,337.18c1.21-20-9.33-40-26.67-52.92a66,66,0,0,1,4.45,22.43A60.69,60.69,0,0,1,723.06,343c29.47,45.05,59.64,95.85,76.5,143.11a33.88,33.88,0,0,1,1.85,14.61c-1.23,12.86-5.56,37.36-20.35,41.49-10.64,3-19.75,1.5-26.44-2.37-3.22,12.26-10.56,24.89-23.46,27.08a42.62,42.62,0,0,1-27.34-4.51c-2.4,11.61-8.49,24.44-19.51,29,12.27-2.69,19.78-14.43,23.17-25.24a46.13,46.13,0,0,0,26.95,5.93c13-1.1,21.26-12,25.37-22.86,6.38,3.95,15.37,5.89,26.19,3.93,15-2.72,21.16-24.56,23.32-36.09A27.84,27.84,0,0,0,808.53,503.71Z" transform="translate(-10.69 -127.25)" fill="#998675" opacity="0.2"/><path d="M516.27,268a134.06,134.06,0,0,1,44.21,7.87,116.55,116.55,0,0,0-53.88-13.64c-54.19-.67-98.45,35.58-110.72,78.69C415.67,299.43,461.55,267.28,516.27,268Z" transform="translate(-10.69 -127.25)" fill="#fff" opacity="0.3"/><path d="M692.37,273.39a83.43,83.43,0,0,1,27.54,4.9,72.68,72.68,0,0,0-33.56-8.5c-33.77-.41-61.34,22.17-69,49C629.69,293,658.28,273,692.37,273.39Z" transform="translate(-10.69 -127.25)" fill="#fff" opacity="0.3"/><path d="M720.17,283.32c-48.54-.6-86.36,38.64-84.78,78.63,1.51,40.22,38.65,66.58,83.24,67.19,44.59.34,82.28-25.24,84.64-65.42C805.69,323.78,768.71,283.75,720.17,283.32Z" transform="translate(-10.69 -127.25)" fill="#ffe7d4"/><path d="M730.91,284.08c35.6,11,60.07,43.79,58.09,76.52-2.36,40.17-40,65.75-84.64,65.42a113.18,113.18,0,0,1-14.76-1.19,107.78,107.78,0,0,0,29,4.31c44.59.34,82.28-25.24,84.64-65.42C805.51,326.78,774.05,289.77,730.91,284.08Z" transform="translate(-10.69 -127.25)" fill="#e75400" opacity="0.2"/><path d="M495.6,276.33c-65.3-.8-116.17,52-114,105.79,2,54.1,52,89.57,112,90.39,60,.45,110.69-34,113.87-88C610.65,330.76,560.9,276.91,495.6,276.33Z" transform="translate(-10.69 -127.25)" fill="#ffe7d4"/><path d="M521.19,464.09c-60-.83-109.92-38.39-111.92-95.73-1.1-29.95,12.44-59.61,35-80.91-38.62,18.2-64.24,56.17-62.72,94.67,2,54.1,52,89.57,112,90.39,20.62.15,40.14-3.81,57-11.28A139.77,139.77,0,0,1,521.19,464.09Z" transform="translate(-10.69 -127.25)" fill="#e75400" opacity="0.2"/><path d="M550.33,354.85c0,.62.08,1.25.07,1.88a18.87,18.87,0,1,1-14.18-18.38,33.06,33.06,0,1,0,14.11,16.5Z" transform="translate(-10.69 -127.25)" fill="#51364d"/><path d="M495.56,396.94a9,9,0,1,0-8.86-9.05A9,9,0,0,0,495.56,396.94Z" transform="translate(-10.69 -127.25)" fill="#fff"/><path d="M483.78,399.61a2.8,2.8,0,1,0-2.76-2.82A2.79,2.79,0,0,0,483.78,399.61Z" transform="translate(-10.69 -127.25)" fill="#fff"/><path d="M671,354.67a7.6,7.6,0,0,1,.83-.16,8.46,8.46,0,1,1-7.2,9.56,8.38,8.38,0,0,1,0-2,14.91,14.91,0,1,0,6.4-7.4Z" transform="translate(-10.69 -127.25)" fill="#51364d"/><path d="M669.62,382.79a3.88,3.88,0,1,0-3.83-3.91A3.88,3.88,0,0,0,669.62,382.79Z" transform="translate(-10.69 -127.25)" fill="#fff"/><path d="M664.52,384a1.21,1.21,0,1,0-1.19-1.22A1.22,1.22,0,0,0,664.52,384Z" transform="translate(-10.69 -127.25)" fill="#fff"/><path d="M612.92,500.71c-16.85-13.92-48,20.76-68.85,48.43s-32.85,47.72-16,61.64,56.2,16.45,77-11.22S629.77,514.63,612.92,500.71Z" transform="translate(-10.69 -127.25)" fill="#c1272d"/><path d="M544.09,614.9c-17.57-15.29-6.6-40.4,12.75-75.43,3.27-5.93,6.84-12.13,10.59-18.27a319,319,0,0,0-23.36,27.94c-20.82,27.67-32.85,47.72-16,61.64,6,5,15,8.52,24.92,9.72A36.25,36.25,0,0,1,544.09,614.9Z" transform="translate(-10.69 -127.25)" fill="#fff" opacity="0.4"/><path d="M750,541.38c-8.53-28-44.86-58.1-62.16-52.82s-9,43.95-.49,71.93,16.17,46.08,33.47,40.81S758.52,569.36,750,541.38Z" transform="translate(-10.69 -127.25)" fill="#c1272d"/><path d="M696.91,554.58c-4.07-15.68-11.67-38.05-17-58.31-5.79,13.85.74,42.31,7.42,64.22,7.84,25.72,14.94,43.1,29.48,41.63C708.43,595.15,702.89,577.61,696.91,554.58Z" transform="translate(-10.69 -127.25)" fill="#fff" opacity="0.4"/><path d="M566.86,478.29c-.28.35,14.12,90.89,83.15,80.62,29.71-4.42,106-108,106-108S618,439.58,566.86,478.29Z" transform="translate(-10.69 -127.25)" fill="#ff9e2e"/><path d="M644.51,545.46c-38.84,5.78-60.38-20.35-71.75-44.38,9.19,26.18,30.91,64.73,77.25,57.83,15.81-2.35,44.81-32.77,68.5-60.73C687.47,522.26,657,543.6,644.51,545.46Z" transform="translate(-10.69 -127.25)" opacity="0.1"/><path d="M726.62,488.47c9.5-11.55,17.63-22,22.92-28.91-31.72-3.87-113.56-11.34-161.85,7.24a102.94,102.94,0,0,0-15.32,7.73C601,466.59,659.54,474.49,726.62,488.47Z" transform="translate(-10.69 -127.25)" opacity="0.1"/><path d="M746.47,382.39C724.63,361,690.91,445.87,652,423.11s-84.88,55.32-85.11,55.18c53.54-14.13,158.11,1.55,211.43,8.49C778.61,486.47,763.55,398.44,746.47,382.39Z" transform="translate(-10.69 -127.25)" fill="#ff9e2e"/><path d="M746.47,382.39C724.63,361,690.91,445.87,652,423.11c-20.05-11.72-41.94,3.27-58.5,20.57,18-13.71,40.77-24,58.23-13.75,38.94,22.76,70-38.75,91.87-17.38,17.07,16.05,35,73.92,34.72,74.23C778.61,486.47,763.55,398.44,746.47,382.39Z" transform="translate(-10.69 -127.25)" fill="#fff" opacity="0.4"/><path d="M746.47,382.39C724.63,361,690.91,445.87,652,423.11c-18.08-10.57-37.65.58-53.46,15.56,17-13.42,36.9-22.64,54.1-12.59,38.94,22.76,67.54-55.66,92.44-40.34,8.14,5,15.38,23.66,21,43.6C760.56,408.87,753.7,389.18,746.47,382.39Z" transform="translate(-10.69 -127.25)" fill="#fff" opacity="0.2"/><path d="M625.59,434.67s-4,5.22,1.24,5.22c2.26,0,13.11-5.18,13.11-5.18S631.18,432.92,625.59,434.67Z" transform="translate(-10.69 -127.25)" opacity="0.2"/><path d="M396.68,741.78c-14.21,11.51-76.67,29-100.06,23.66s-32.42-26.31-28-37.79,20.5-9.16,43.89-3.78S406.11,734.15,396.68,741.78Z" transform="translate(-10.69 -127.25)" fill="#999"/><path d="M306.27,757.37C285.6,753,272.7,742.5,267.56,732.54c-.78,11.75,8.69,28.21,29.06,32.9,13.7,3.15,40.8-1.56,63.76-8.31C339.09,759.43,318.75,760,306.27,757.37Z" transform="translate(-10.69 -127.25)" fill="#fff" opacity="0.4"/><path d="M348.09,690.54c-9.6,11.4-49.36,1-68.65-18.81s-17.68-50.31-8.08-61.71,23.56.58,42.84,20.43S357.68,679.14,348.09,690.54Z" transform="translate(-10.69 -127.25)" fill="#999"/><path d="M332.06,711.63c-5.37,14-48.16,22.88-74.19,14.5s-35.33-35.16-30-49.19,23.37-10,49.41-1.62S337.43,697.59,332.06,711.63Z" transform="translate(-10.69 -127.25)" fill="#999"/><path d="M275.82,727.38c-34-9.91-46.92-39-40.46-53.83a13.86,13.86,0,0,1,4.25-5.58c-5.62.81-9.61,3.53-11.69,9-5.38,14,3.91,40.81,30,49.19,7.71,2.49,16.9,3.46,26.15,3.23C281.18,728.8,278.44,728.14,275.82,727.38Z" transform="translate(-10.69 -127.25)" fill="#fff" opacity="0.4"/><path d="M346,706.65c-9.6,11.4-100.9-22.84-120.19-42.68s-17.68-50.32-8.09-61.72,23.57.58,42.85,20.43S355.59,695.25,346,706.65Z" transform="translate(-10.69 -127.25)" fill="#999"/><path d="M427.29,705c-.36,34.24-66.78,55.81-94.72,48.45s-33.47-42.85-24.77-63.09c4.27-10,.07-65.57,6.92-59.29,18.15,16.64,36.53,42.71,50.75,46.46C393.4,684.88,427.52,683.05,427.29,705Z" transform="translate(-10.69 -127.25)" fill="#999"/><path d="M319.9,643.05c10.36,11.39,22.64,20.66,34.75,28.41-11.91-9.4-25.56-27-39.13-39.65-.44-.46-.88-.92-1.32-1.36C294.92,610.6,281,598.61,271.36,610c-8.38,9.94-10.66,34.39,1.69,53.65-6.39-13.67-8.8-29-1.63-39.32C284.27,605.85,310.52,632.74,319.9,643.05Z" transform="translate(-10.69 -127.25)" fill="#fff" opacity="0.4"/><path d="M346,706.65c-9.6,11.4-100.9-22.84-120.19-42.68s-17.68-50.32-8.09-61.72,23.57.58,42.85,20.43S355.59,695.25,346,706.65Z" transform="translate(-10.69 -127.25)" fill="#999"/><path d="M217.71,602.25c-9.59,11.4-11.19,41.87,8.09,61.72.47.48,1,1,1.55,1.47-10.47-17-10.22-37.73-3.78-47.45,8.24-12.42,23.48-2.11,44.9,15.41,4.34,3.55,11.43,8.12,19.93,13.25-11.74-9.56-22.2-18.17-27.84-24C241.28,602.83,227.31,590.85,217.71,602.25Z" transform="translate(-10.69 -127.25)" fill="#fff" opacity="0.4"/><path d="M398.92,714.92c-3.79,14.28-87.86,19.14-109.87,8.59s-31-39.14-27.2-53.42,18.92-8.82,40.93,1.72S402.71,700.65,398.92,714.92Z" transform="translate(-10.69 -127.25)" fill="#999"/><path d="M261.85,670.09c-3.79,14.27,5.2,42.87,27.2,53.42.54.25,1.12.5,1.73.74-14-11.41-20.83-30.57-19-42,2.36-14.67,17.94-11.25,40.86-3.69,4.64,1.53,11.81,2.9,20.29,4.24-12.55-4.11-23.75-7.85-30.18-10.94C280.77,661.27,265.64,655.81,261.85,670.09Z" transform="translate(-10.69 -127.25)" fill="#fff" opacity="0.4"/><g opacity="0.2"><path d="M321.08,739.32c-7.95-1-13.32-1.41-13.87,1.5s3.94,8,11.89,9,19.45-1.73,20-4.65S329,740.37,321.08,739.32Z" transform="translate(-10.69 -127.25)" opacity="0.4"/><path d="M328.75,729.41c1.42-2.6-8.07-7.73-15.31-11.17s-12.24-5.46-13.66-2.85,1.28,8.82,8.52,12.27S327.34,732,328.75,729.41Z" transform="translate(-10.69 -127.25)" opacity="0.4"/><path d="M341.67,730.41c-5.15-.84-8.66-1.11-9.23,1.47s2,7,7.17,7.87,12.9-1.74,13.47-4.31S346.82,731.25,341.67,730.41Z" transform="translate(-10.69 -127.25)" opacity="0.4"/></g><path d="M760.13,707.45c-1.25-17.14-12.46-40-19.1-39.92s-6.17,23.22-4.92,40.36,2.84,28.57,9.47,28.45S761.38,724.58,760.13,707.45Z" transform="translate(-10.69 -127.25)" fill="#fff" opacity="0.4"/><path d="M709.38,709.22c-5.84-2.44-15.2,15.74-21.34,29.57s-9.59,23.35-3.74,25.79,18.78-3.11,24.92-16.94S715.23,711.67,709.38,709.22Z" transform="translate(-10.69 -127.25)" fill="#fff" opacity="0.4"/><path d="M692,675.33c-.46-11.17-9.56-26.31-15.47-26.38s-6.4,15-5.94,26.14,1.42,18.64,7.33,18.71S692.44,686.5,692,675.33Z" transform="translate(-10.69 -127.25)" fill="#fff" opacity="0.4"/><path d="M662.4,752.09c-3-3.73-16,6.75-25.18,15s-15,14.24-12,18,13.69,3.82,22.91-4.47S665.4,755.82,662.4,752.09Z" transform="translate(-10.69 -127.25)" fill="#fff" opacity="0.4"/><path d="M567.68,753.33c-10.51,4-17.38,7.07-16,11.14s10.54,7.55,21,3.59,22.67-15.15,21.27-19.21S578.2,749.37,567.68,753.33Z" transform="translate(-10.69 -127.25)" fill="#fff" opacity="0.4"/><path d="M646,731c4.12-10.39,1.94-27.92-3.44-30.38s-11.91,11.08-16,21.48-6.25,17.62-.88,20.08S641.84,741.42,646,731Z" transform="translate(-10.69 -127.25)" fill="#fff" opacity="0.4"/><path d="M438.26,507.13c1.06-10.3,8.73-24,13.09-23.79s3.75,14.07,2.69,24.38-2.24,17.17-6.6,17S437.21,517.44,438.26,507.13Z" transform="translate(-10.69 -127.25)" fill="#fff" opacity="0.4"/><path d="M490,509c5.31.13,7.18,15.53,7.83,26.95s.5,19-4.81,18.91-13.76-7.94-14.41-19.36S484.68,508.86,490,509Z" transform="translate(-10.69 -127.25)" fill="#fff" opacity="0.4"/><path d="M401.19,515.79c.56-9.09,8.24-21.28,13.06-21.23s4.95,12.3,4.39,21.4-1.48,15.16-6.3,15.12S400.63,524.88,401.19,515.79Z" transform="translate(-10.69 -127.25)" fill="#fff" opacity="0.4"/><path d="M437.74,562c-3.17-8.54-1.09-22.79,3.33-24.7s9.52,9.24,12.69,17.78,4.8,14.46.37,16.38S440.92,570.5,437.74,562Z" transform="translate(-10.69 -127.25)" fill="#fff" opacity="0.4"/><path d="M836.05,767.4c-29,8.49-34.57,34.91-91.21,40-47.09,4.2-142-12.2-199.92-12.2-42.4,0-42.37,17.57-79.51,15.19-65.08-4.16-150.48-25.07-189-26.47A67.1,67.1,0,0,1,245,774.27c7.55,6.78,17.41,12,29.56,12.46,38.54,1.4,68.27,49.53,133.35,53.69,37.14,2.37,97.6-38.83,140-38.83,57.91,0,182.19,27.87,229.27,23.67,56.64-5.06,32.3-46.83,61.32-55.32,9.12-2.66,15.06-6.43,18.9-10.4A136,136,0,0,1,836.05,767.4Z" transform="translate(-10.69 -127.25)" fill="#ffc050" opacity="0.6"/><path d="M355.18,926.41c25.14,21.48,68.67,27,113.11,13.34C426.77,939.94,388.13,935.38,355.18,926.41Z" transform="translate(-10.69 -127.25)" fill="#ffc050" opacity="0.6"/><path d="M534.42,933.56c2.63-26-13.37-46.9-42.24-53.54C511,895.81,525.41,914.1,534.42,933.56Z" transform="translate(-10.69 -127.25)" fill="#ffc050" opacity="0.6"/><path d="M618.19,905.37c-12.68-22.84-37.75-30.88-65.25-19.85C577.4,887.75,599.68,894.53,618.19,905.37Z" transform="translate(-10.69 -127.25)" fill="#ffc050" opacity="0.6"/><path d="M554.18,937.1c34.39,15.72,82.35,14.72,124.22-3.54C634.67,939.39,592.23,940.6,554.18,937.1Z" transform="translate(-10.69 -127.25)" fill="#7d4e24" opacity="0.5"/><path d="M651.1,880.05c15.65,13.37,42.76,16.82,70.43,8.3C695.68,888.47,671.62,885.63,651.1,880.05Z" transform="translate(-10.69 -127.25)" fill="#ffc050" opacity="0.6"/><path d="M870.25,851.75c9.26-16.51,6.84-36.52-6.9-51.72C868.85,817.64,871.2,835.31,870.25,851.75Z" transform="translate(-10.69 -127.25)" fill="#ffc050" opacity="0.6"/><path d="M932.78,826c-7.89-17.55-23.5-23.74-40.63-15.26A85.07,85.07,0,0,1,932.78,826Z" transform="translate(-10.69 -127.25)" fill="#ffc050" opacity="0.6"/><path d="M232.55,838.86c-18-6-37.15.22-49.46,16.59C199.33,846.71,216.23,841.05,232.55,838.86Z" transform="translate(-10.69 -127.25)" fill="#ffc050" opacity="0.6"/><path d="M129.37,769.8c-15.73,11.08-18.84,27.58-7.26,42.79A85.13,85.13,0,0,1,129.37,769.8Z" transform="translate(-10.69 -127.25)" fill="#ffc050" opacity="0.6"/><path d="M150.56,753.15c-16.2-10.4-32.65-7.06-42.38,9.39A85.21,85.21,0,0,1,150.56,753.15Z" transform="translate(-10.69 -127.25)" fill="#ffc050" opacity="0.6"/></g></svg>