<svg xmlns="http://www.w3.org/2000/svg" xmlns:xlink="http://www.w3.org/1999/xlink" viewBox="0 0 1092.41 1148.94"><defs><clipPath id="a" transform="translate(-26.85 5.38)"><rect width="1079.61" height="1079.61" rx="194.21" fill="none"/></clipPath></defs><g clip-path="url(#a)"><polygon points="961.06 714.65 971.13 732.46 1019.65 734.06 992.76 706.99 1004.29 677.03 967.14 689.73 961.06 714.65" fill="#534741"/><path d="M863.71,647.67,849,741l149-13.91,0-.12a70.17,70.17,0,0,0-4-42.62h0Z" transform="translate(-26.85 5.38)" fill="#f79594"/><path d="M849,741l149-13.91,48.52,1.59-51.64-11.55a42.89,42.89,0,0,0-17.37-.29Z" transform="translate(-26.85 5.38)" fill="#b75554" opacity="0.2"/><path d="M971.87,690.51a44.12,44.12,0,0,0,43.68-6.47l15.59-12.39L994,684.35l-59.11-16.64Z" transform="translate(-26.85 5.38)" fill="#fff" opacity="0.4"/><path d="M631.28,1047.13c-176.07,0-318.81,40-318.81,60.09s142.74,36.34,318.81,36.34,318.81-16.26,318.81-36.34S807.36,1047.13,631.28,1047.13Z" transform="translate(-26.85 5.38)" opacity="0.1"/><path d="M422.26,962.05q6.53,6.33,13.11,12.64-16.41,16.92-33.56,32.92-.18-16.74-.51-33.54-13.62-5-27.1-10.26,16.88-7.54,33.43-15.78Q414.91,955.05,422.26,962.05Z" transform="translate(-26.85 5.38)" fill="#534741"/><path d="M407.63,948a1150.33,1150.33,0,0,0,53-109.16q36.71,19.21,74.78,36.85a937.2,937.2,0,0,1-100,99q-6-3.37-12.05-6.77A32.34,32.34,0,0,1,407.63,948Z" transform="translate(-26.85 5.38)" fill="#f79594"/><path d="M399.44,959.16c-8.83,1.15-18.31,1.55-25.24,4.65q16.88-7.54,33.43-15.78a1150.33,1150.33,0,0,0,53-109.16c-14.26,33.76-24.52,72.4-40.43,105.25A27,27,0,0,1,399.44,959.16Z" transform="translate(-26.85 5.38)" fill="#fff" opacity="0.4"/><path d="M499.46,914.77q-30.73,31.56-64.09,59.92-16.41,16.92-33.56,32.92c11.43-10.66,14.48-26.71,25.42-38C446.6,953.16,473.75,934.29,499.46,914.77Z" transform="translate(-26.85 5.38)" fill="#b75554" opacity="0.2"/><path d="M924.69,542.16c-1-.61-2-1.24-2.92-1.88a140.72,140.72,0,0,1-20.22-16.11q5.43-3.85,10.71-8.06l2.31-1.87c1.53-1.26,3-2.54,4.56-3.86s3-2.66,4.46-4.05q3.31-3.12,6.47-6.5a97,97,0,0,0,8-9.78c.62-.88,1.23-1.79,1.82-2.72a56.21,56.21,0,0,0,4.77-9.06,37.54,37.54,0,0,0,2.93-12.85c0-.67,0-1.36,0-2a29,29,0,0,0-1.51-8.23c-.24-.66-.49-1.32-.78-2a27.68,27.68,0,0,0-2-3.69c-.37-.58-.76-1.14-1.16-1.69s-.74-.94-1.12-1.39l-.33-.39c-.31-.35-.63-.7-1-1l-.44-.44-.89-.86-.64-.57-.49-.42q-.81-.68-1.65-1.29h0a37.51,37.51,0,0,0-5.09-3.13A47.62,47.62,0,0,0,917.75,434a59.28,59.28,0,0,0-25.48.95,50,50,0,0,0-12,4.84,37.85,37.85,0,0,0-10.3,8.51,31.71,31.71,0,0,0-6.28,12,35.31,35.31,0,0,0-.95,13,44.62,44.62,0,0,0,1.11,6.23,55.74,55.74,0,0,0,1.85,5.83,75.81,75.81,0,0,0,5,10.74A99.6,99.6,0,0,0,879,508.62c-7,3.83-14.25,7.42-21.58,10.85-1.31-3.1,6,14.55,9.26,26.69,9-5.09,17.88-10.46,26.58-16.25q1.92-1.27,3.81-2.59h0a145.83,145.83,0,0,0,23,15.81c1,.57,2.05,1.13,3.08,1.68A1.54,1.54,0,0,0,924.69,542.16ZM920,479.3c-1.64,1.79-3.42,3.53-5.27,5.21a130.51,130.51,0,0,1-12.1,9.6c-1.43,1-2.87,2-4.34,3-2.87,1.91-5.83,3.76-8.83,5.55-1.37.82-2.74,1.63-4.13,2.43a90.27,90.27,0,0,1-7.23-12.69,71.64,71.64,0,0,1-3.76-9.85,50.88,50.88,0,0,1-1.16-5,31.75,31.75,0,0,1-.48-4.85,24.93,24.93,0,0,1,1.44-9.11,20.32,20.32,0,0,1,4.7-7.32c4.14-4.14,10.13-6.7,16.43-7.76a44.66,44.66,0,0,1,19,.94,30.79,30.79,0,0,1,8.12,3.5c.4.25.76.52,1.13.79s.79.6,1.16.91l.22.2c.31.27.6.54.88.82l.43.48c.19.21.38.42.55.63a10.45,10.45,0,0,1,.81,1.19,9.09,9.09,0,0,1,1.24,5.46,14.14,14.14,0,0,1-.67,3.22,21.48,21.48,0,0,1-1.51,3.54c-.31.61-.66,1.23-1,1.84A48.28,48.28,0,0,1,920,479.3Z" transform="translate(-26.85 5.38)" fill="#f79594"/><path d="M930,466.16a10.2,10.2,0,0,0-1.31-5.47,10.37,10.37,0,0,1,.17,2.75,18.07,18.07,0,0,1-2.18,6.76c-2.53,4.89-7,9.83-11.9,14.31a141.42,141.42,0,0,1-16.44,12.58c-4.18,2.79-8.52,5.43-13,8-1.77,1-3.57,2-5.36,3-.33.19-.66.35-1,.53-6.65,3.62-13.47,7-20.39,10.29,6.44-2.61,12.79-5.37,19-8.3l1.06-.49c1.91-.92,3.82-1.86,5.71-2.81,4.72-2.39,9.33-4.88,13.77-7.54A129.43,129.43,0,0,0,915.5,487.6c5.19-4.4,9.81-9.35,12.37-14.38A17.31,17.31,0,0,0,930,466.16Z" transform="translate(-26.85 5.38)" fill="#fff" opacity="0.4"/><path d="M938.05,490.05a60.09,60.09,0,0,0,6.59-11.78,36.5,36.5,0,0,0,2.94-14.89,29,29,0,0,0-1.51-8.23,27.22,27.22,0,0,0-3.9-7.35,32.82,32.82,0,0,0-11.61-9.54A47.62,47.62,0,0,0,917.75,434a59.28,59.28,0,0,0-25.48.95,50,50,0,0,0-12,4.84,37.85,37.85,0,0,0-10.3,8.51l-.12.15a39.84,39.84,0,0,1,7.61-5.65,50.15,50.15,0,0,1,12-4.84,59.48,59.48,0,0,1,25.49-1,48.09,48.09,0,0,1,12.81,4.25,32.83,32.83,0,0,1,11.6,9.55,27.22,27.22,0,0,1,3.9,7.35,28.3,28.3,0,0,1,1.51,8.22,36.58,36.58,0,0,1-2.93,14.9,59.81,59.81,0,0,1-6.6,11.77,92.38,92.38,0,0,1-7,8.71c.62-.64,1.24-1.28,1.85-1.94A97,97,0,0,0,938.05,490.05Z" transform="translate(-26.85 5.38)" fill="#fff" opacity="0.4"/><path d="M874.36,482.53a50.88,50.88,0,0,1-1.16-5,31.75,31.75,0,0,1-.48-4.85,24.93,24.93,0,0,1,1.44-9.11,20.3,20.3,0,0,1,2.9-5.22c-.34.3-.69.59-1,.91a20.32,20.32,0,0,0-4.7,7.32,24.74,24.74,0,0,0-1.44,9.12,33,33,0,0,0,.47,4.84,47.61,47.61,0,0,0,1.17,5,68.7,68.7,0,0,0,3.76,9.85A88.63,88.63,0,0,0,881.86,507c1.17-.66,2.34-1.3,3.49-2a90.27,90.27,0,0,1-7.23-12.69A71.64,71.64,0,0,1,874.36,482.53Z" transform="translate(-26.85 5.38)" fill="#b75554" opacity="0.4"/><path d="M866.66,546.17c9-5.1,17.89-10.46,26.59-16.26q1.92-1.27,3.81-2.59c1.51-1,3-2.07,4.49-3.15q5.43-3.85,10.71-8.06a162.24,162.24,0,0,0,17.8-16.28c1.18-1.27,2.33-2.59,3.46-3.94a108,108,0,0,1-9.8,9.91,181.86,181.86,0,0,1-21.39,16.1c-4.17,2.73-8.42,5.32-12.69,7.78-1.75,1-8.27,4.67-9.76,5.47q-7.1,3.79-14.26,7.3C866,543.69,866.33,544.93,866.66,546.17Z" transform="translate(-26.85 5.38)" fill="#b75554" opacity="0.4"/><polygon points="263.33 659.09 250.61 638.29 201.36 630.17 231.43 659.44 214.14 683.28 261.15 678.1 263.33 659.09" fill="#534741"/><path d="M277.46,632.92h0a59.28,59.28,0,0,0,8,35.55l2.51,4.25,131.59,8.06-1.31-66.94Z" transform="translate(-26.85 5.38)" fill="#f79594"/><polygon points="214.14 683.28 261.15 678.1 392.74 686.16 262.21 671.09 214.14 683.28" fill="#b75554" opacity="0.2"/><path d="M413.58,614.47,277.46,632.92h0l-49.25-8.13,25.21,13.55a77.19,77.19,0,0,0,58.3,6.06Z" transform="translate(-26.85 5.38)" fill="#fff" opacity="0.4"/><path d="M550.28,174.57c-29.23-13.36-50.18-15.27-65.58-8.65C568.21,184,642.33,233.32,665,332.36,695.12,464.49,611.53,590.15,503.36,597c-35.82,2.25-102.43,2.82-147.72-8.69-6.4,35.7-8.79,71.82-6.16,106.39h0q.22,3,.5,5.9l0,.13c.18,1.93.37,3.85.59,5.77v.13q1,8.82,2.42,17.47s0,.06,0,.09q.45,2.72,1,5.42c0,.19.07.39.11.58q.48,2.6,1,5.16c0,.13.06.27.08.4q1.74,8.34,3.93,16.46l.21.75c.41,1.52.84,3,1.29,4.54l.27.93q.69,2.32,1.42,4.62l.18.59a238.09,238.09,0,0,0,14.81,36.11h0c1.08,2.1,2.18,4.17,3.32,6.23l.14.25q1.58,2.82,3.23,5.6l.46.77c1.11,1.84,2.24,3.66,3.41,5.47l.17.27q3.72,5.75,7.82,11.22c.24.33.49.65.74,1q1.67,2.19,3.39,4.35l.9,1.11c1.3,1.61,2.63,3.19,4,4.76l.29.33q2.2,2.54,4.51,5l1,1.05c1.17,1.23,2.35,2.45,3.56,3.65.5.51,1,1,1.53,1.52,1.11,1.07,2.23,2.14,3.36,3.19l1.56,1.45a196.91,196.91,0,0,0,35.74,25.79c137.4,77.66,352.68,78.21,437.08-139.85C950.6,595.36,764.87,272.65,550.28,174.57Z" transform="translate(-26.85 5.38)" fill="#f79594"/><path d="M612.86,209.86c160.73,154.5,277.22,415.8,232.81,547.44-22.61,67-55.65,115.08-94.56,147.63,58.81-27.39,110.17-78.78,142.42-162.1C945,609.94,799.21,334.74,612.86,209.86Z" transform="translate(-26.85 5.38)" fill="#b75554" opacity="0.2"/><path d="M484.7,165.92l1.95.44L485,165.8Zm65.58,8.65c-14.59-6.67-27.11-10.48-37.92-11.81,3.27,1.34,6.65,2.83,10.16,4.5,215.23,102.59,402.69,437.58,346.3,590C848,813.55,818.88,855.69,784.8,886c44.55-29.83,82.81-76.17,108.73-143.13,17.91-46.28,11.9-109.83-11.4-178.28C831.17,414.91,697.52,241.86,550.28,174.57Z" transform="translate(-26.85 5.38)" fill="#b75554" opacity="0.2"/><path d="M674.23,589.63c-3.1,0-5.77-4-6-9s2.17-9.15,5.27-9.2,5.76,4,6,9S677.32,589.58,674.23,589.63Z" transform="translate(-26.85 5.38)" fill="#b75554" opacity="0.2"/><path d="M691.16,560.12c-.09-2.36,1-4.29,2.47-4.31s2.7,1.87,2.79,4.22-1,4.29-2.47,4.31S691.25,562.47,691.16,560.12Z" transform="translate(-26.85 5.38)" fill="#b75554" opacity="0.2"/><path d="M715.16,622.19c-5.59.09-10.4-7.19-10.74-16.27s3.91-16.5,9.5-16.59,10.4,7.2,10.74,16.27S720.75,622.11,715.16,622.19Z" transform="translate(-26.85 5.38)" fill="#b75554" opacity="0.2"/><path d="M716.23,554.31c-.16-4.25,1.83-7.73,4.45-7.77s4.88,3.37,5,7.62-1.83,7.74-4.45,7.78S716.39,558.57,716.23,554.31Z" transform="translate(-26.85 5.38)" fill="#b75554" opacity="0.2"/><path d="M705.49,672.34c-3.1,0-5.76-4-6-9s2.16-9.15,5.26-9.2,5.76,4,6,9S708.59,672.29,705.49,672.34Z" transform="translate(-26.85 5.38)" fill="#b75554" opacity="0.2"/><path d="M722.42,642.83c-.09-2.36,1-4.29,2.47-4.31s2.7,1.87,2.79,4.22-1,4.29-2.47,4.31S722.51,645.18,722.42,642.83Z" transform="translate(-26.85 5.38)" fill="#b75554" opacity="0.2"/><path d="M769.36,582.89c-5.59.09-10.4-7.2-10.74-16.27s3.91-16.5,9.5-16.59,10.4,7.2,10.74,16.27S775,582.8,769.36,582.89Z" transform="translate(-26.85 5.38)" fill="#b75554" opacity="0.2"/><path d="M747.49,637c-.16-4.25,1.84-7.73,4.46-7.77s4.87,3.37,5,7.62-1.83,7.74-4.45,7.78S747.65,641.28,747.49,637Z" transform="translate(-26.85 5.38)" fill="#b75554" opacity="0.2"/><path d="M589.47,391.8,558,354.93a56.8,56.8,0,0,0-19.8.75c-40.79,8-125.81,96.67-175.82,126.72-6.72,4-13.37,8.26-20.16,12.5,79.44,10,46.1,78.72,43.46,83.92,46.69,0,108.41,2.31,140.92-7.24l53.78-89.14C589.08,451,594.05,416.91,589.47,391.8Z" transform="translate(-26.85 5.38)" fill="#b75554"/><path d="M390.52,578.82c5.06-10.12,41.71-77.25-41.95-87.91l-6.37,4c79.44,10,46.1,78.72,43.46,83.92Z" transform="translate(-26.85 5.38)" fill="#fff" opacity="0.4"/><path d="M476.51,490.74c-9.75,27.53-4.91,60.72,9.51,88.69l35.76.11,94.39-156.46-20.62-24.14C546.31,402.73,491.8,447.56,476.51,490.74Z" transform="translate(-26.85 5.38)" fill="#73004e" opacity="0.4"/><path d="M452.44,402.77c-19.47,13.14-20.71,47.52-6.18,65.64s39.76,10.11,59.47-6.74,26.47-33.12,11.75-47.54S472,389.62,452.44,402.77Z" transform="translate(-26.85 5.38)" fill="#e6e6e6"/><path d="M517.48,414.13c-12.85-12.55-37.81-21.81-56.94-15.34,17.11,2.51,34,11,44.42,21.22,12.14,11.89,12.68,24.78,4.62,38.22C526.26,442.61,531.2,427.57,517.48,414.13Z" transform="translate(-26.85 5.38)" opacity="0.1"/><path d="M360,460.51c-18.11,1.41-32.06,24.06-29.2,41.8s22.88,22,42.57,18.15,30.44-12.17,26-27.49S378.18,459.12,360,460.51Z" transform="translate(-26.85 5.38)" fill="#e6e6e6"/><path d="M399.44,493c-3.54-12.25-15-26.52-28.71-31.06,8.62,8.42,15.1,19.09,17.91,28.82,3.74,13-.57,22.34-10.86,28.77C394.65,515.32,403.5,507.11,399.44,493Z" transform="translate(-26.85 5.38)" opacity="0.1"/><path d="M457.2,457c-9.27-11.56-14.19-27.57-14.51-43.62-9.55,16.12-8,40.71,3.57,55.08,11,13.69,28.06,12.46,44.26,3.78C477.83,472.56,466.14,468.1,457.2,457Z" transform="translate(-26.85 5.38)" fill="#fff" opacity="0.4"/><path d="M512.69,590.17c16.94-5.74,24.77-30.75,17.74-47s-27.17-15.43-45-7-26.11,19-18.2,32.56S495.7,595.9,512.69,590.17Z" transform="translate(-26.85 5.38)" fill="#e6e6e6"/><path d="M467.19,568.73c6.92,11.81,23.39,23.63,38.74,22.73-12.06-5.29-22.73-14.92-28.36-24.53-6.53-11.18-4.33-20.75,4.3-29C466.47,546.05,459.82,556.1,467.19,568.73Z" transform="translate(-26.85 5.38)" fill="#fff" opacity="0.4"/><path d="M520.08,549.41c4.49,10.35,4.89,23.11,1.89,35,10.26-9.92,14-28.31,8.46-41.18-5.31-12.27-18.11-14.8-31.76-11.68C508.07,533.79,515.76,539.41,520.08,549.41Z" transform="translate(-26.85 5.38)" opacity="0.1"/><path d="M345.74,505.62c-2.57-15.86,5.65-34.87,18.82-45a25.35,25.35,0,0,0-4.53-.07c-18.11,1.41-32.06,24.06-29.2,41.8,1.91,11.87,11.52,17.68,23.58,19.09A25.34,25.34,0,0,1,345.74,505.62Z" transform="translate(-26.85 5.38)" fill="#fff" opacity="0.4"/><path d="M553.65,477.79c-8.83-5.09-22.54-2.16-33.81,3.74C511.36,486,505,490.41,492.62,497c-21.92,11.57-55.38,22.61-81.77,26.6-11.49,1.74-24.66,1.75-34.48,2-20.91.57-41.06,3-57.52,12-12.68,7-17.67,11.62-27.68,20-6.86,5.74-9.1,16.72-6.68,21.91,3.43,7.35,18.7,16,31.43,8.07,11.76-7.34,18.48-15.58,33.34-24.18,11.46-6.63,37-13.68,49.56-17.75,24.3-7.9,72.47-25.48,95.24-37.08,12-6.09,34.87-21.45,50.38-18.81,17.65,3,20,38.46,23,43.63,3.83,6.76,12.79,36.74,14.48,24.46C584.33,540.27,574.38,489.73,553.65,477.79Z" transform="translate(-26.85 5.38)" fill="#e68595"/><path d="M494.8,506.11c-22.77,11.6-73.63,28.47-97.93,36.37-12.52,4.07-38.1,11.13-49.56,17.75-8.05,4.66-16.05,13.56-23.57,21.9,7.65-5.87,14.25-12.19,25.52-18.71,11.46-6.63,37-13.68,49.56-17.75,24.3-7.9,72.47-25.48,95.24-37.08,12-6.09,34.87-21.45,50.38-18.81C528.93,487.14,506.78,500,494.8,506.11Z" transform="translate(-26.85 5.38)" fill="#73004e" opacity="0.2"/><path d="M519.84,481.53C511.36,486,505,490.41,492.62,497c-21.92,11.57-55.38,22.61-81.77,26.6-11.49,1.74-24.66,1.75-34.48,2-20.91.57-41.06,3-57.52,12-12.68,7-17.67,11.62-27.68,20a19,19,0,0,0-3.16,3.43c10.81-7.21,22.23-14.37,29-18.21,16.87-9.54,37.89-9.58,59.54-10.79,10.16-.57,23.79-1,35.66-3.08,27.25-4.8,61.7-16.87,84.16-29.12,12.73-7,19.2-11.59,27.89-16.29,8.52-4.61,18.44-7.63,26.78-7C542.27,473.3,530.06,476.18,519.84,481.53Z" transform="translate(-26.85 5.38)" fill="#fff" opacity="0.4"/><path d="M378.34,95c-9.17,0-34.82-29.77-34.82-29.77-20.83,8-41,24-47.85,44.35,0,0,42.52,18,66.54,23.61,21.17,4.91,51.41-13.08,59.89-33.1.24-.55.46-1.1.67-1.66s.25-.88.35-1.32C427.62,78.67,397.28,94.84,378.34,95Z" transform="translate(-26.85 5.38)" fill="#f79594"/><path d="M366.84,129.52c-15.7-3.64-49-15.1-70.2-22.6-.35.87-.68,1.73-1,2.61,0,0,42.52,18,66.54,23.61,14.28,3.31,32.67-3.8,45.74-14.91C395.4,127.2,379.5,132.45,366.84,129.52Z" transform="translate(-26.85 5.38)" fill="#b75554" opacity="0.4"/><path d="M343.52,65.18c-.77,0-1.55.11-2.32.18-40.05,3.63-66.59,43.41-55.82,82.16l15,72,5.62-1.95-.32-2,5.62-1.94a39.07,39.07,0,0,0,25.61-29.52l19.05-98.78Z" transform="translate(-26.85 5.38)" fill="#f79594"/><path d="M327.35,190.09a44.41,44.41,0,0,1-16.25,23.6l.16-.06a39.07,39.07,0,0,0,25.61-29.52L350.59,113Z" transform="translate(-26.85 5.38)" fill="#fff" opacity="0.4"/><path d="M307.63,214.88l-13.32-65.11C284,111.89,306.13,73.31,341.58,65.33c-.13,0-.26,0-.38,0-40.05,3.63-66.59,43.41-55.82,82.16l15,72,5.62-1.95-.32-2Z" transform="translate(-26.85 5.38)" fill="#fff" opacity="0.4"/><circle cx="212.3" cy="328.55" r="82.15" transform="translate(-205.71 330.27) rotate(-56.6)" fill="#e6e6e6"/><path d="M165.64,382.81a113.3,113.3,0,0,1,28.08-134.28,82.14,82.14,0,0,0-55.59,115.34,81.79,81.79,0,0,0,40.06,39.41A114.44,114.44,0,0,1,165.64,382.81Z" transform="translate(-26.85 5.38)" fill="#fff" opacity="0.4"/><path d="M682.57,329.38c-29.6-130-144-177.54-255.31-181.27s-241,46.08-244.76,157.4c-.28,8.42-.42,17.38-.3,26.75-2.65.41-5.21.9-7.66,1.5a222.31,222.31,0,0,0-36-5.33c-17.24-8.07-34.3-11.93-49.73-9.44C27.32,328.9,15,435.74,37,492.17c21.72,55.71,81.27,75.19,141.92,66.14,1.93-.21,3.9-.48,6-.81,18.23-2.94,43.88-9.49,70-18.49,41.12-10.31,91.8-25.89,119.43-41.18,48.16-26.67,106.29-107.18,145.37-114.62,96-18.28,29.09,162,.56,181.1-32.53,21.77-131.24,2.15-164,11.45-7.92,2.25-8.14,13.38-.3,15.86,46.29,14.64,121.64,14.22,160.94,11.78C628,596.5,713.74,466.36,682.57,329.38Z" transform="translate(-26.85 5.38)" fill="#f79594"/><path d="M356.19,575.76c-7.92,2.25-8.14,13.38-.3,15.86,1.18.37,2.38.73,3.58,1.08a8.33,8.33,0,0,1,3.92-13.6c12.6-3.57,33.13-4.32,55.48-5.11C393.06,573,369.33,572,356.19,575.76Z" transform="translate(-26.85 5.38)" fill="#fff" opacity="0.4"/><path d="M534.25,597.78c-33.5,2.08-117.93,4.44-170.79-4,46.59,12.39,116.14,11.9,153.37,9.59a152.06,152.06,0,0,0,46.58-10.48A143.38,143.38,0,0,1,534.25,597.78Z" transform="translate(-26.85 5.38)" fill="#b75554" opacity="0.4"/><path d="M688.77,356.17a172.06,172.06,0,0,0-21.36-47.68q3.89,10.13,7,21.09c23.12,81.79,2.05,163.28-43.11,216C682.09,508.67,710.38,432.6,688.77,356.17Z" transform="translate(-26.85 5.38)" fill="#fff" opacity="0.2"/><path d="M522.72,369.72C483.21,374.41,420.34,462.24,375,493.49c-13.85,9.54-29.33,17.12-45.54,23.43,17.41-6.14,33.17-12.64,44.83-19.09,48.16-26.67,106.29-107.18,145.37-114.62,96-18.28,29.09,162,.56,181.1-20,13.36-64.87,11.13-104.16,9.56,40.46,2.84,86.05,6.26,105.54-6.78C550.15,548,630.61,356.89,522.72,369.72Z" transform="translate(-26.85 5.38)" fill="#fff" opacity="0.4"/><g opacity="0.4"><path d="M435.51,148.47c82.36,13.13,172.82,60.19,226.89,125.07C618.06,188,526.49,153.3,435.51,148.47Z" transform="translate(-26.85 5.38)" fill="#b75554"/></g><path d="M526.79,570.81c-13.89,9.3-39.84,11-67.58,10.72,29.54,3.41,57.25,4.42,71.35-5,10.84-7.26,24.17-36.27,31.27-68.46C551.11,538.34,536.65,564.21,526.79,570.81Z" transform="translate(-26.85 5.38)" fill="#b75554" opacity="0.4"/><path d="M197,341.36C151,346.14,142.21,428,158.53,469.87s25,68,70.63,60.64S352.42,502.43,360,467C370.81,416.35,270.55,333.71,197,341.36Z" transform="translate(-26.85 5.38)" fill="#f79594"/><path d="M88.78,319C27.32,328.9,15,435.74,37,492.17s82.82,75.71,144.28,65.8,100.28-45.25,78.28-101.68S150.24,309.08,88.78,319Z" transform="translate(-26.85 5.38)" fill="#ffa2a1"/><path d="M249.39,454.55c-4.47-11.47-11.64-24.36-20.74-37.54,2.26,4.93,4.26,9.73,6,14.36,19.95,54.26,3,94.14-35.08,117.88C243.72,534.06,267.75,501.66,249.39,454.55Z" transform="translate(-26.85 5.38)" fill="#fff" opacity="0.2"/><path d="M97,337.64c43.17-7,97.94,31.27,138.17,76-36.34-50.13-99-102.24-146.36-94.61-51.17,8.25-68.28,83.68-59.89,141.27C29.17,404.16,50,345.2,97,337.64Z" transform="translate(-26.85 5.38)" fill="#fff" opacity="0.4"/><path d="M124.4,381.58c-14.2,6.76-7.2,50,7.63,81.13s35.62,46.32,49.82,39.56,16.45-32.89,1.61-64S138.6,374.82,124.4,381.58Z" transform="translate(-26.85 5.38)" fill="#b75554"/><path d="M143.9,463.61C132,438.69,123.44,408.75,121,384.32c-9.47,11.85-2.46,50.09,11,78.39,10.83,22.74,24.83,37,37.12,40.35C160.19,492.89,151.53,479.64,143.9,463.61Z" transform="translate(-26.85 5.38)" fill="#ffa2a1" opacity="0.4"/><path d="M75,396c-13.26.09-24.18,35.61-24,64.72s11.52,48.1,24.79,48,23.45-19.25,23.25-48.35S88.27,395.94,75,396Z" transform="translate(-26.85 5.38)" fill="#b75554"/><path d="M58.06,458.68c-.15-21.08,4.52-44.93,11.72-60.75C59,405.63,50.85,435.58,51,460.76,51.2,487,60.42,505,71.94,508.24,63.79,498.49,58.21,481.05,58.06,458.68Z" transform="translate(-26.85 5.38)" fill="#ffa2a1" opacity="0.4"/><path d="M349.36,224.07c-49.19,18.53-73.22,74.34-51.21,125.11S382.34,419.76,434,392.8s71.66-83.39,47.3-125.72S398.65,205.56,349.36,224.07Z" transform="translate(-26.85 5.38)" fill="#e6e6e6"/><path d="M332.44,373.69C306.15,313,330,246.87,383.15,217.16a111.13,111.13,0,0,0-33.79,6.91c-49.19,18.53-73.22,74.34-51.21,125.11a91,91,0,0,0,47.32,47.37A119.72,119.72,0,0,1,332.44,373.69Z" transform="translate(-26.85 5.38)" fill="#fff" opacity="0.4"/><path d="M481.3,267.08c-16.81-29.1-49.54-47.26-84.37-49.76,27.7,6.5,52.33,23,66.16,47,24.36,42.33,4.36,98.77-47.31,125.72a104.42,104.42,0,0,1-54.61,11.88A103.37,103.37,0,0,0,434,392.8C485.67,365.85,505.66,309.41,481.3,267.08Z" transform="translate(-26.85 5.38)" opacity="0.1"/><path d="M383.63,258a53.75,53.75,0,0,0-8.25,1.84A30.15,30.15,0,1,1,342.07,294a28.75,28.75,0,0,1-.28-3.06A52.94,52.94,0,1,0,383.63,258Z" transform="translate(-26.85 5.38)" fill="#73004e"/><path d="M369.4,343a11.24,11.24,0,1,0,12.69,9.56A11.24,11.24,0,0,0,369.4,343Z" transform="translate(-26.85 5.38)" fill="#fff"/><path d="M357.33,368.12a5.27,5.27,0,1,0,5.95,4.48A5.26,5.26,0,0,0,357.33,368.12Z" transform="translate(-26.85 5.38)" fill="#fff"/><path d="M328,220.92q3-2.65,6.11-5a87.4,87.4,0,0,1,11.07-7.14q3.48-1.91,7.16-3.48c1.55-.67,3.11-1.28,4.68-1.86.57-.21,1.14-.39,1.71-.59,1-.34,2-.69,3-1l2.15-.63c.86-.24,1.71-.48,2.56-.7s1.62-.4,2.43-.59l2.28-.5c.88-.18,1.77-.35,2.65-.51.68-.12,1.35-.23,2-.33,1-.15,1.92-.3,2.88-.42l1.75-.19c1-.12,2.08-.22,3.13-.3.44,0,.88-.06,1.32-.08a102.27,102.27,0,0,1,18.35.46c1.49.17,3,.39,4.45.63l1.31.22c1.25.21,2.5.45,3.75.71l.79.16c1.46.32,2.92.67,4.37,1l1.23.33c1.18.32,2.35.66,3.52,1l1,.31c1.43.46,2.85,1,4.27,1.46.37.13.74.28,1.1.42,1.15.42,2.28.87,3.41,1.34l1.12.46c1.4.59,2.78,1.21,4.16,1.86l.9.44c1.14.55,2.27,1.12,3.39,1.7l1.14.6c1.36.73,2.71,1.48,4,2.27l.57.34c1.18.7,2.34,1.43,3.49,2.17l1.11.72q1.91,1.26,3.78,2.59l.15.1c1.28.92,2.54,1.88,3.8,2.85l1,.82q1.62,1.29,3.21,2.64l.55.46q1.8,1.56,3.55,3.2c.31.28.62.58.92.87,1,.92,1.92,1.85,2.86,2.81.24.24.48.47.71.71h0c-.54-1.08-1.1-2.15-1.68-3.2-.17-.3-.33-.61-.51-.91-.56-1-1.14-2-1.74-3l-.26-.43c-.67-1.1-1.38-2.18-2.09-3.24-.18-.28-.37-.55-.56-.82-.61-.89-1.22-1.76-1.85-2.62l-.45-.61c-.76-1-1.53-2-2.32-3-.19-.24-.39-.47-.58-.7-.66-.8-1.32-1.58-2-2.36l-.59-.67c-.83-.92-1.68-1.83-2.54-2.72l-.54-.54c-.72-.74-1.45-1.46-2.2-2.16l-.7-.67q-1.35-1.26-2.73-2.46l-.43-.36c-.81-.69-1.63-1.36-2.46-2l-.8-.63q-1.44-1.12-2.91-2.19l-.12-.08c-1-.68-1.93-1.34-2.9-2l-.85-.55c-.89-.57-1.78-1.13-2.69-1.66-.14-.09-.29-.19-.44-.27-1-.6-2.06-1.18-3.1-1.74l-.87-.46c-.87-.45-1.74-.89-2.61-1.31l-.69-.34c-1.06-.5-2.12-1-3.19-1.43l-.87-.35c-.87-.36-1.74-.71-2.62-1l-.84-.32c-1.09-.4-2.18-.77-3.28-1.12-.26-.09-.52-.16-.79-.24-.89-.28-1.8-.54-2.7-.79l-.95-.25c-1.11-.29-2.23-.56-3.35-.81l-.62-.12c-1-.2-1.91-.38-2.88-.55l-1-.17q-1.71-.27-3.42-.48a79.91,79.91,0,0,0-14.09-.36l-1,.07c-.81.06-1.61.14-2.41.23-.45.05-.9.09-1.34.15-.74.09-1.48.2-2.21.31l-1.56.26q-1,.18-2,.39c-.59.12-1.17.25-1.75.39s-1.25.29-1.87.45-1.31.35-2,.54-1.11.31-1.66.48c-.77.24-1.53.51-2.3.77l-1.31.46c-1.2.44-2.4.91-3.59,1.42-1.88.81-3.72,1.7-5.5,2.67a68.23,68.23,0,0,0-8.51,5.49c-1.62,1.22-3.18,2.52-4.69,3.88-.51.45-1,.91-1.49,1.38a73.69,73.69,0,0,0-5.61,6c-.88,1.05-1.74,2.12-2.57,3.22a81.33,81.33,0,0,0-5.24,7.82c-.35.59-.69,1.18-1,1.78s-.55,1-.82,1.52C327.79,221.13,327.89,221,328,220.92Z" transform="translate(-26.85 5.38)" fill="#fff" opacity="0.4"/><g opacity="0.2"><path d="M296.11,204.42c-4.17-7.39-19.25-6.79-33.68,1.35s-22.77,20.71-18.61,28.1,19.25,6.79,33.68-1.34S300.27,211.82,296.11,204.42Z" transform="translate(-26.85 5.38)" fill="#fff"/><path d="M242,253.62c-6.77,3.81-10.67,9.71-8.72,13.17s9,3.18,15.79-.63,10.67-9.71,8.72-13.17S248.8,249.8,242,253.62Z" transform="translate(-26.85 5.38)" fill="#fff"/></g><path d="M538.06,349.34c-6.92.82-14.56,4.2-22.7,9.38a46.93,46.93,0,0,1,8.15-1.79c43.36-5.15,63.32,15,69.13,46.08C593,369.32,579.3,344.44,538.06,349.34Z" transform="translate(-26.85 5.38)" fill="#fff" opacity="0.4"/><path d="M733.88,421.58c3.14,1.77,7.36,2.68,12.33,3a23.22,23.22,0,0,1-3.94-1.74c-19.67-11.06-21.86-25.56-14.82-40.29C717,396.49,715.18,411.06,733.88,421.58Z" transform="translate(-26.85 5.38)" fill="#fff" opacity="0.4"/><path d="M715.93,395.29c-5.66,9.33-6.1,19.58,5.7,28.07a17.83,17.83,0,0,0,7.61,2.8,15,15,0,0,1-2.47-1.45C714.35,415.79,712.35,405.37,715.93,395.29Z" transform="translate(-26.85 5.38)" fill="#fff" opacity="0.4"/><path d="M271.76,342.52c-35.89-10.68-72.13-14.92-97.2-8.76a222.7,222.7,0,0,0-36.05-5.33,172.2,172.2,0,0,1,18.64,10.26A741.35,741.35,0,0,1,241,356a400,400,0,0,0-46.19-17A498.65,498.65,0,0,1,271.76,342.52Z" transform="translate(-26.85 5.38)" fill="#fff" opacity="0.4"/><path d="M200.15,330.92q.1-5.88.3-11.51c2.42-72.17,46.87-123.26,107.83-154.69-68.52,22.76-123.38,69-125.78,140.79-.28,8.42-.42,17.38-.3,26.75A123.69,123.69,0,0,1,200.15,330.92Z" transform="translate(-26.85 5.38)" fill="#fff" opacity="0.4"/><path d="M569.26,493.76c19.8-43.4,29.55-87.67,5.83-104C591.88,410.11,584.76,452.14,569.26,493.76Zm-142-345.65c-111.31-3.73-241,46.08-244.76,157.4-.28,8.42-.42,17.38-.3,26.75q3.48-.54,7.16-.85c0-7.86.1-15.4.34-22.56,3.73-111.32,133.45-161.13,244.77-157.4,44.28,1.48,89,9.9,128.77,27.68C521.77,159.05,474.24,149.68,427.26,148.11Z" transform="translate(-26.85 5.38)" fill="#fff" opacity="0.4"/><path d="M395.77,600.08a262,262,0,0,1-34.82-7c-18,114.3,4.6,230.91,98.94,285.22a346.51,346.51,0,0,0,37.05,18.46C405.12,818,384.15,704.54,395.77,600.08Z" transform="translate(-26.85 5.38)" fill="#fff" opacity="0.2"/><path d="M377,603.3c-19.39,106.89-4.11,223,90,277.16l.94.53C384.53,825.23,370.59,658.86,377,603.3Z" transform="translate(-26.85 5.38)" fill="#fff" opacity="0.4"/><path d="M563.5,907.92c-103.63-65.15-144.42-183.74-144.39-305.3-22.91-1.91-45.25-5.31-63.22-11a7.07,7.07,0,0,1-.8-.33c-20,115.77,2.53,235.53,101.36,291.39a370.2,370.2,0,0,0,142.73,45.64Q580.82,918.81,563.5,907.92Z" transform="translate(-26.85 5.38)" fill="#fff" opacity="0.2"/><polygon points="830.04 338.98 822.26 313.47 847.76 266.2 856.55 315.04 888.88 321.53 843.57 360.66 830.04 338.98" fill="#534741"/><path d="M734.27,394.18l114.84-86.09h0c8.82,4.65,21.59,19.17,23.61,28.13,1,4.68-2.3,19.06-2.3,19.06L777.59,460.53Z" transform="translate(-26.85 5.38)" fill="#f79594"/><path d="M734.27,394.18l114.84-86.09,25.5-47.27-15.16,46.51A25.49,25.49,0,0,1,849,320.87Z" transform="translate(-26.85 5.38)" fill="#fff" opacity="0.4"/><path d="M830.68,389.89A267.13,267.13,0,0,1,913,317.68l2.7-1.52-45.31,39.12-71.78,81.38Z" transform="translate(-26.85 5.38)" fill="#b75554" opacity="0.2"/><path d="M161.12,696.43c1.17,6,4.62,11.65,9.65,17.09a34,34,0,0,1-2.09-6.73c-7.36-37.47,8.81-63.23,35.37-80.22C174.8,638.93,154.12,660.79,161.12,696.43Z" transform="translate(-26.85 5.38)" fill="#534741" opacity="0.2"/><path d="M153.86,631.65c-24,14-40.12,34.36-32.13,62,1.34,4.64,4.57,8.71,9.14,12.39a24.33,24.33,0,0,1-2.16-5.12C120.31,671.86,132.45,649,153.86,631.65Z" transform="translate(-26.85 5.38)" fill="#534741" opacity="0.2"/><path d="M918.81,242c-5.92-1.47-12.51-.76-19.58,1.49a34.33,34.33,0,0,1,7,1c37,9.24,53.51,34.81,57.62,66.08C965.06,278.79,954,250.79,918.81,242Z" transform="translate(-26.85 5.38)" fill="#534741" opacity="0.2"/><path d="M980.54,262.93c-2.48-27.62-14.09-50.92-42.49-55.41-4.77-.75-9.83.45-15.09,3a24.44,24.44,0,0,1,5.55.22C958.37,215.48,974,236.19,980.54,262.93Z" transform="translate(-26.85 5.38)" fill="#534741" opacity="0.2"/><path d="M316.26,977.67c-.65-6.07,1-12.5,4.18-19.19a34.72,34.72,0,0,0,0,7.06c4,38,27.06,57.81,57.45,66.22C346.28,1028.57,320.08,1013.78,316.26,977.67Z" transform="translate(-26.85 5.38)" fill="#534741" opacity="0.2"/><path d="M328.42,1041.71c-27-6.29-48.47-21-49-49.76-.09-4.83,1.8-9.68,5.08-14.53a24.62,24.62,0,0,0-.55,5.52C284.51,1013.17,302.85,1031.48,328.42,1041.71Z" transform="translate(-26.85 5.38)" fill="#534741" opacity="0.2"/><path d="M1079.52,727.53c-.54-6.08-3.38-12.07-7.82-18a34.39,34.39,0,0,1,1.38,6.91c3.42,38-15.33,62-43.52,76.11C1059.94,783.29,1082.78,763.7,1079.52,727.53Z" transform="translate(-26.85 5.38)" fill="#534741" opacity="0.2"/><path d="M1080,792.71c25.28-11.4,43.48-30,38.41-58.31-.85-4.75-3.65-9.14-7.81-13.27a25,25,0,0,1,1.62,5.31C1117.55,756.2,1103.1,777.72,1080,792.71Z" transform="translate(-26.85 5.38)" fill="#534741" opacity="0.2"/><path d="M479.76,628.27q-56,0-132.25-17l.52-2.3q76.07,17,131.83,17c64.27,0,108-17,130.56-50.81,25-37.52,23.53-94.76-4.4-170.13-24.43-65.91-68.86-143.85-128.48-225.38l1.93-1.38c59.75,81.7,104.28,159.84,128.78,226,28.2,76.11,29.6,134.06,4.15,172.23C589.38,611,545,628.27,479.76,628.27Z" transform="translate(-26.85 5.38)" fill="#957c67"/><path d="M479.13-5.38S416,101.14,386.26,159.89A153.26,153.26,0,0,0,537.38,175C519.89,111.54,479.13-5.38,479.13-5.38Z" transform="translate(-26.85 5.38)" fill="#ff0096"/><path d="M528.68,145.16C509.11,80.63,479.13-5.38,479.13-5.38S430.21,77.15,398.22,137C430.1,162.3,473.37,172.13,528.68,145.16Z" transform="translate(-26.85 5.38)" fill="#ffc845"/><path d="M514,98.59c-17.12-52.94-34.9-104-34.9-104s-29.76,50.2-58,100.69C445.33,110.24,476.2,114.76,514,98.59Z" transform="translate(-26.85 5.38)" fill="#00d021"/><path d="M500.46,57.32c-11.81-35.39-21.33-62.7-21.33-62.7s-15.79,26.64-35.29,60.62C456.87,67.1,475.61,72,500.46,57.32Z" transform="translate(-26.85 5.38)" fill="#45a8ff"/><path d="M400.32,158.17C430.05,99.41,479.13-5.38,479.13-5.38S416,101.14,386.26,159.89A153.22,153.22,0,0,0,468,188.08C444,183.63,420.81,172.74,400.32,158.17Z" transform="translate(-26.85 5.38)" fill="#fff" opacity="0.4"/><path d="M479.13-5.38s29.81,117.16,47.31,180.65a153,153,0,0,1-53.29,13A153,153,0,0,0,537.38,175C519.89,111.54,479.13-5.38,479.13-5.38Z" transform="translate(-26.85 5.38)" opacity="0.1"/><path d="M636.5,147.67c-7.71-5.13-12.85-39.45-14.21-49.61a12.3,12.3,0,0,0-2-5.34v0C590.57,49.64,546.66,57.11,528.82,107l-36.58,86.77,5.09,4.66,1.09-2.31,5.09,4.67c12,10.95,25.92,11.46,36.62,1.33l43.57-41.23c4.08,5.23,8,10,11.57,13.77,17.61,18.89,59.35,21.21,81,7.1.6-.38,1.18-.78,1.76-1.2.42-.34.83-.7,1.22-1.06C695.88,164.3,655.24,160.12,636.5,147.67Z" transform="translate(-26.85 5.38)" fill="#f79594"/><path d="M617,96.3a23,23,0,0,1,2.06,5.36c1.36,10.16,1.08,48.08,8.79,53.21,18.15,12.06,65.32,9.38,52.8,23.2,12.74-14-26-18.34-44.13-30.4-7.71-5.13-12.85-39.45-14.21-49.61a12.3,12.3,0,0,0-2-5.34v0c-23.62-34.3-56.29-36.54-77.62-10.84C563.9,60.07,594.53,63.7,617,96.3Z" transform="translate(-26.85 5.38)" fill="#fff" opacity="0.4"/><path d="M529.23,130.58l-30.81,65.49,5.09,4.67c12,10.95,25.92,11.46,36.62,1.33l43.57-41.23c-15.44-19.76-33-46.51-38.92-55.76C538.74,111.61,533.43,120.12,529.23,130.58Z" transform="translate(-26.85 5.38)" fill="#b75554"/><path d="M528.82,107,495,187.24c10.71-22.22,28.09-58.63,34.66-74.54C544.37,77,577.36,64.1,605.71,76.41,577.7,52.94,543.92,64.76,528.82,107Z" transform="translate(-26.85 5.38)" fill="#fff" opacity="0.4"/></g></svg>