<svg xmlns="http://www.w3.org/2000/svg" viewBox="0 0 350 350"><rect width="350" height="350" fill="#fff"/><path d="M491.4,136.38h-12a1.5,1.5,0,0,0,0,3h12v-3Zm-20,0h-12a1.5,1.5,0,0,0,0,3h12a1.5,1.5,0,0,0,0-3Zm-20,0h-12a1.5,1.5,0,0,0,0,3h12a1.5,1.5,0,0,0,0-3Zm-20,0h-12a1.5,1.5,0,0,0,0,3h12a1.5,1.5,0,0,0,0-3Zm-20,0h-12a1.5,1.5,0,0,0,0,3h12a1.5,1.5,0,0,0,0-3Zm-20,0h-12a1.5,1.5,0,0,0,0,3h12a1.5,1.5,0,0,0,0-3Zm-20,0h-12a1.5,1.5,0,0,0,0,3h12a1.5,1.5,0,0,0,0-3Zm-20,0h-12a1.5,1.5,0,0,0,0,3h12a1.5,1.5,0,0,0,0-3Zm-20,0h-12a1.5,1.5,0,0,0,0,3h12a1.5,1.5,0,0,0,0-3Zm-20,0h-12a1.5,1.5,0,0,0,0,3h12a1.5,1.5,0,0,0,0-3Zm-20,0h-12a1.5,1.5,0,0,0,0,3h12a1.5,1.5,0,0,0,0-3Zm-20,0h-12a1.5,1.5,0,0,0,0,3h12a1.5,1.5,0,0,0,0-3Zm-20,0h-12a1.5,1.5,0,1,0,0,3h12a1.5,1.5,0,0,0,0-3Zm-20,0h-12a1.5,1.5,0,1,0,0,3h12a1.5,1.5,0,0,0,0-3Zm-20,0h-12a1.5,1.5,0,1,0,0,3h12a1.5,1.5,0,0,0,0-3Zm-20,0h-12a1.5,1.5,0,1,0,0,3h12a1.5,1.5,0,0,0,0-3Zm-20,0h-12a1.5,1.5,0,1,0,0,3h12a1.5,1.5,0,0,0,0-3Zm-20,0h-10v3h.38a1.5,1.5,0,0,0,2.24,0h7.38a1.5,1.5,0,0,0,0-3Zm-8.5,8.5a1.5,1.5,0,0,0-1.5,1.5v12a1.5,1.5,0,0,0,3,0v-12a1.5,1.5,0,0,0-1.5-1.5Zm0,20a1.5,1.5,0,0,0-1.5,1.5v12a1.5,1.5,0,0,0,3,0v-12a1.5,1.5,0,0,0-1.5-1.5Zm0,20a1.5,1.5,0,0,0-1.5,1.5v12a1.5,1.5,0,0,0,3,0v-12a1.5,1.5,0,0,0-1.5-1.5Zm0,20a1.5,1.5,0,0,0-1.5,1.5v12a1.5,1.5,0,0,0,3,0v-12a1.5,1.5,0,0,0-1.5-1.5Zm0,20a1.5,1.5,0,0,0-1.5,1.5v12a1.5,1.5,0,0,0,3,0v-12a1.5,1.5,0,0,0-1.5-1.5Zm0,20a1.5,1.5,0,0,0-1.5,1.5v12a1.5,1.5,0,0,0,3,0v-12a1.5,1.5,0,0,0-1.5-1.5Zm0,20a1.5,1.5,0,0,0-1.5,1.5v12a1.5,1.5,0,0,0,3,0v-12a1.5,1.5,0,0,0-1.5-1.5Zm0,20a1.5,1.5,0,0,0-1.5,1.5v12a1.5,1.5,0,0,0,3,0v-12a1.5,1.5,0,0,0-1.5-1.5Zm0,20a1.5,1.5,0,0,0-1.5,1.5v12a1.5,1.5,0,0,0,3,0v-12a1.5,1.5,0,0,0-1.5-1.5Zm0,20a1.5,1.5,0,0,0-1.5,1.5v12a1.5,1.5,0,0,0,3,0v-12a1.5,1.5,0,0,0-1.5-1.5Zm0,20a1.5,1.5,0,0,0-1.5,1.5v12a1.5,1.5,0,0,0,3,0v-12a1.5,1.5,0,0,0-1.5-1.5Zm0,20a1.5,1.5,0,0,0-1.5,1.5v12a1.5,1.5,0,0,0,3,0v-12a1.5,1.5,0,0,0-1.5-1.5Zm0,20a1.5,1.5,0,0,0-1.5,1.5v12a1.5,1.5,0,1,0,3,0v-12a1.5,1.5,0,0,0-1.5-1.5Zm0,20a1.5,1.5,0,0,0-1.5,1.5v12a1.5,1.5,0,0,0,3,0v-12a1.5,1.5,0,0,0-1.5-1.5Zm0,20a1.5,1.5,0,0,0-1.5,1.5v12a1.5,1.5,0,0,0,3,0v-12a1.5,1.5,0,0,0-1.5-1.5Zm0,20a1.5,1.5,0,0,0-1.5,1.5v12a1.5,1.5,0,0,0,3,0v-12a1.5,1.5,0,0,0-1.5-1.5Zm0,20a1.5,1.5,0,0,0-1.5,1.5v12a1.5,1.5,0,0,0,3,0v-12a1.5,1.5,0,0,0-1.5-1.5Zm10.5,18.5h-12v3h12a1.5,1.5,0,0,0,0-3Zm20,0h-12a1.5,1.5,0,1,0,0,3h12a1.5,1.5,0,0,0,0-3Zm20,0h-12a1.5,1.5,0,1,0,0,3h12a1.5,1.5,0,0,0,0-3Zm20,0h-12a1.5,1.5,0,1,0,0,3h12a1.5,1.5,0,0,0,0-3Zm20,0h-12a1.5,1.5,0,1,0,0,3h12a1.5,1.5,0,0,0,0-3Zm20,0h-12a1.5,1.5,0,1,0,0,3h12a1.5,1.5,0,0,0,0-3Zm20,0h-12a1.5,1.5,0,0,0,0,3h12a1.5,1.5,0,0,0,0-3Zm20,0h-12a1.5,1.5,0,0,0,0,3h12a1.5,1.5,0,0,0,0-3Zm20,0h-12a1.5,1.5,0,0,0,0,3h12a1.5,1.5,0,0,0,0-3Zm20,0h-12a1.5,1.5,0,0,0,0,3h12a1.5,1.5,0,0,0,0-3Zm20,0h-12a1.5,1.5,0,0,0,0,3h12a1.5,1.5,0,0,0,0-3Zm20,0h-12a1.5,1.5,0,0,0,0,3h12a1.5,1.5,0,0,0,0-3Zm20,0h-12a1.5,1.5,0,0,0,0,3h12a1.5,1.5,0,0,0,0-3Zm20,0h-12a1.5,1.5,0,0,0,0,3h12a1.5,1.5,0,0,0,0-3Zm20,0h-12a1.5,1.5,0,0,0,0,3h12a1.5,1.5,0,0,0,0-3Zm20,0h-12a1.5,1.5,0,0,0,0,3h12a1.5,1.5,0,0,0,0-3Zm20,0h-12a1.5,1.5,0,0,0,0,3h12a1.5,1.5,0,0,0,0-3Zm16.5-.5a1.5,1.5,0,0,0-1.12.5H481.4a1.5,1.5,0,0,0,0,3h10v-3H491a1.5,1.5,0,0,0-1.12-.5Zm0-20a1.5,1.5,0,0,0-1.5,1.5v12a1.5,1.5,0,0,0,3,0v-12a1.5,1.5,0,0,0-1.5-1.5Zm0-20a1.5,1.5,0,0,0-1.5,1.5v12a1.5,1.5,0,0,0,3,0v-12a1.5,1.5,0,0,0-1.5-1.5Zm0-20a1.5,1.5,0,0,0-1.5,1.5v12a1.5,1.5,0,0,0,3,0v-12a1.5,1.5,0,0,0-1.5-1.5Zm0-20a1.5,1.5,0,0,0-1.5,1.5v12a1.5,1.5,0,0,0,3,0v-12a1.5,1.5,0,0,0-1.5-1.5Zm0-20a1.5,1.5,0,0,0-1.5,1.5v12a1.5,1.5,0,0,0,3,0v-12a1.5,1.5,0,0,0-1.5-1.5Zm0-20a1.5,1.5,0,0,0-1.5,1.5v12a1.5,1.5,0,0,0,3,0v-12a1.5,1.5,0,0,0-1.5-1.5Zm0-20a1.5,1.5,0,0,0-1.5,1.5v12a1.5,1.5,0,0,0,3,0v-12a1.5,1.5,0,0,0-1.5-1.5Zm0-20a1.5,1.5,0,0,0-1.5,1.5v12a1.5,1.5,0,0,0,3,0v-12a1.5,1.5,0,0,0-1.5-1.5Zm0-20a1.5,1.5,0,0,0-1.5,1.5v12a1.5,1.5,0,0,0,3,0v-12a1.5,1.5,0,0,0-1.5-1.5Zm0-20a1.5,1.5,0,0,0-1.5,1.5v12a1.5,1.5,0,0,0,3,0v-12a1.5,1.5,0,0,0-1.5-1.5Zm0-20a1.5,1.5,0,0,0-1.5,1.5v12a1.5,1.5,0,0,0,3,0v-12a1.5,1.5,0,0,0-1.5-1.5Zm0-20a1.5,1.5,0,0,0-1.5,1.5v12a1.5,1.5,0,0,0,3,0v-12a1.5,1.5,0,0,0-1.5-1.5Zm0-20a1.5,1.5,0,0,0-1.5,1.5v12a1.5,1.5,0,0,0,3,0v-12a1.5,1.5,0,0,0-1.5-1.5Zm0-20a1.5,1.5,0,0,0-1.5,1.5v12a1.5,1.5,0,0,0,3,0v-12a1.5,1.5,0,0,0-1.5-1.5Zm0-20a1.5,1.5,0,0,0-1.5,1.5v12a1.5,1.5,0,0,0,3,0v-12a1.5,1.5,0,0,0-1.5-1.5Zm0-20a1.5,1.5,0,0,0-1.5,1.5v12a1.5,1.5,0,0,0,3,0v-12a1.5,1.5,0,0,0-1.5-1.5Zm0-20a1.5,1.5,0,0,0-1.5,1.5v12a1.5,1.5,0,0,0,3,0v-12a1.5,1.5,0,0,0-1.5-1.5Z" transform="translate(-141.4 -136.38)"/><path d="M223.44,293.51l-3.57,10.75a2,2,0,0,1-1.8,1.34H218a1.94,1.94,0,0,1-1.82-1.22l-1.85-4.51-1.85,4.51a2,2,0,0,1-1.82,1.22h-.09a2,2,0,0,1-1.8-1.34l-3.55-10.75a2,2,0,0,1,1.24-2.5,2.32,2.32,0,0,1,.63-.11,2,2,0,0,1,1.89,1.37l1.86,5.65,1.64-4a2,2,0,0,1,3.68,0l1.65,4,1.87-5.65a2,2,0,0,1,1.87-1.37,2.32,2.32,0,0,1,.63.11,2.06,2.06,0,0,1,1.16,1A2,2,0,0,1,223.44,293.51Z" transform="translate(-141.4 -136.38)"/><path d="M234.15,302.87a2,2,0,0,1-1.07,2.59,1.92,1.92,0,0,1-.75.14,2,2,0,0,1-1.83-1.22l-.84-2h-3.59l-.8,2a2,2,0,0,1-1.83,1.22,1.71,1.71,0,0,1-.75-.15,2,2,0,0,1-1.09-2.58L226,292.23s0-.07,0-.11a2.07,2.07,0,0,1,1.07-1.07,2.5,2.5,0,0,1,.76-.15,2,2,0,0,1,1.84,1.22Zm-6.4-4.45H228l-.14-.33Z" transform="translate(-141.4 -136.38)"/><path d="M242.57,301.63a2,2,0,0,1,0,4h-5.64a2,2,0,0,1-2-2V292.67a2,2,0,0,1,4,0v9Z" transform="translate(-141.4 -136.38)"/><path d="M252.72,301.63a2,2,0,0,1,0,4h-5.65a2,2,0,0,1-2-2V292.67a2,2,0,1,1,4,0v9Z" transform="translate(-141.4 -136.38)"/><path d="M263.53,301.63a2,2,0,0,1,0,4H257.3a2,2,0,0,1-2-2V292.9a2,2,0,0,1,2-2h6.23a2,2,0,0,1,0,4h-4.24v1.41h3a2,2,0,1,1,0,4h-3v1.36Z" transform="translate(-141.4 -136.38)"/><path d="M276.68,290.9a2,2,0,0,1,0,3.91h-2.44v8.82a2,2,0,1,1-3.92,0v-8.82h-2.44a2,2,0,0,1,0-3.91Z" transform="translate(-141.4 -136.38)"/><path d="M298.39,303.46h0l.27.4a2,2,0,0,1-.48,2.83,1.93,1.93,0,0,1-1.2.4,2.11,2.11,0,0,1-1.66-.9l-.44-.65a7.58,7.58,0,0,1-1.95.27,8,8,0,0,1-3-.59,7.54,7.54,0,0,1-2.37-1.61,7.5,7.5,0,0,1,0-10.69A7.74,7.74,0,0,1,290,291.3a7.53,7.53,0,0,1,8.29,1.62,7.36,7.36,0,0,1,1.6,2.41,7.13,7.13,0,0,1,0,5.86A8.18,8.18,0,0,1,298.39,303.46Zm-2.06-2.9a4.18,4.18,0,0,0,.68-2.29,4.12,4.12,0,0,0-1.2-2.89,4,4,0,0,0-2.9-1.22,4,4,0,0,0-2.92,1.22,4.09,4.09,0,0,0-1.17,2.89,4.13,4.13,0,0,0,1.17,2.9,4.19,4.19,0,0,0,2.65,1.2l-.44-.63a2.08,2.08,0,0,1,.5-2.86,2.38,2.38,0,0,1,1.16-.37,1.94,1.94,0,0,1,1.63.9Z" transform="translate(-141.4 -136.38)"/><path d="M311,302.43a1.94,1.94,0,0,1-.29,2.73,1.83,1.83,0,0,1-1.22.44,2,2,0,0,1-1.51-.73l-2.86-3.53-1.3,0v2.94a1.35,1.35,0,0,1-2.69,0v-12a1.34,1.34,0,0,1,1.35-1.35h3.94a5.26,5.26,0,0,1,3.45,1.41,4.68,4.68,0,0,1,1.32,3.49,5.59,5.59,0,0,1-1.62,4.32,1.34,1.34,0,0,1-.25.23Zm-6.59-8.23V298l1.91,0,.08,0a1.54,1.54,0,0,0,.95-.35,2.71,2.71,0,0,0,.54-1.91,1.8,1.8,0,0,0-.21-1,1.41,1.41,0,0,0-.42-.38,2,2,0,0,0-.86-.23Z" transform="translate(-141.4 -136.38)"/><path d="M331.21,303.44a7.87,7.87,0,0,1-2.45,1.74,7.67,7.67,0,0,1-3.07.63,7.49,7.49,0,0,1-2.94-.59,7.3,7.3,0,0,1-2.39-1.61,7.51,7.51,0,0,1-1.62-2.42,7.34,7.34,0,0,1-.61-2.94,7.56,7.56,0,0,1,12.75-5.5,2,2,0,0,1,.08,2.88,2,2,0,0,1-1.47.65,1.94,1.94,0,0,1-1.4-.57,3.48,3.48,0,0,0-4.85.09,3.49,3.49,0,0,0,2.45,5.94,3.66,3.66,0,0,0,1.41-.29,3.41,3.41,0,0,0,1.13-.8,2,2,0,0,1,1.49-.65,2.07,2.07,0,0,1,1.41.54,2,2,0,0,1,.63,1.43A2,2,0,0,1,331.21,303.44Z" transform="translate(-141.4 -136.38)"/><path d="M346.77,298.25a7.48,7.48,0,0,1-.58,3,7.65,7.65,0,0,1-1.62,2.4,7.61,7.61,0,0,1-8.29,1.61,7.35,7.35,0,0,1-2.4-1.61,7.67,7.67,0,0,1-2.22-5.36,7.55,7.55,0,0,1,.61-2.94,7.3,7.3,0,0,1,1.61-2.39,7.5,7.5,0,0,1,8.3-1.62,7.72,7.72,0,0,1,2.39,1.62,7.39,7.39,0,0,1,2.2,5.33Zm-3.38,0a4.21,4.21,0,0,0-1.21-2.94,4.26,4.26,0,0,0-3-1.21,4.17,4.17,0,0,0,0,8.33,4.15,4.15,0,0,0,4.17-4.18Z" transform="translate(-141.4 -136.38)"/><path d="M360,298.09a8.91,8.91,0,0,1-1,4.22,6.59,6.59,0,0,1-2.29,2.43,7.26,7.26,0,0,1-2.2.86,5.31,5.31,0,0,1-1.16.13l-4,0a2,2,0,0,1-2-2V293a2,2,0,0,1,2-2h3.8a7.77,7.77,0,0,1,3.45.9,6.26,6.26,0,0,1,2.28,2.08A7.49,7.49,0,0,1,360,298.09Zm-3.36,0a4.54,4.54,0,0,0-.42-2,3.14,3.14,0,0,0-1.2-1.2,4.27,4.27,0,0,0-1.85-.48h-2.43v8h2.64a3.57,3.57,0,0,0,1.64-.53,3,3,0,0,0,1.07-1.15A5.56,5.56,0,0,0,356.67,298.09Z" transform="translate(-141.4 -136.38)"/><path d="M368.87,301.63a2,2,0,0,1,0,4h-6.24a2,2,0,0,1-2-2V292.9a2,2,0,0,1,2-2h6.24a2,2,0,0,1,0,4h-4.24v1.41h3a2,2,0,1,1,0,4h-3v1.36Z" transform="translate(-141.4 -136.38)"/><path d="M395.89,293.51l-3.57,10.75a2,2,0,0,1-1.8,1.34h-.07a1.94,1.94,0,0,1-1.82-1.22l-1.85-4.51-1.85,4.51a2,2,0,0,1-1.82,1.22H383a2,2,0,0,1-1.8-1.34l-3.55-10.75a2,2,0,0,1,1.24-2.5,2.32,2.32,0,0,1,.63-.11,2,2,0,0,1,1.89,1.37l1.86,5.65,1.64-4a2,2,0,0,1,3.68,0l1.66,4,1.86-5.65A2,2,0,0,1,394,290.9a2.32,2.32,0,0,1,.63.11,2,2,0,0,1,1.16,1A2,2,0,0,1,395.89,293.51Z" transform="translate(-141.4 -136.38)"/><path d="M400.58,292.67v11.17a2,2,0,0,1-3.95,0V292.67a2,2,0,1,1,3.95,0Z" transform="translate(-141.4 -136.38)"/><path d="M409.27,301.63a2,2,0,0,1,0,4h-5.65a2,2,0,0,1-2-2V292.67a2,2,0,0,1,4,0v9Z" transform="translate(-141.4 -136.38)"/><path d="M419.41,301.63a2,2,0,0,1,0,4h-5.64a2,2,0,0,1-2-2V292.67a2,2,0,0,1,4,0v9Z" transform="translate(-141.4 -136.38)"/><path d="M256,321.42a2.06,2.06,0,0,1,2.06,2,7.69,7.69,0,0,1-2.1,5.32,7.28,7.28,0,0,1-5.29,2.24,7.46,7.46,0,0,1-2.94-.59,7.65,7.65,0,0,1-4.62-7,7.55,7.55,0,0,1,.61-2.94,7.33,7.33,0,0,1,1.62-2.39,7.49,7.49,0,0,1,2.39-1.62,7.65,7.65,0,0,1,2.94-.6,7.56,7.56,0,0,1,5.16,2,2,2,0,0,1-1,3.49Zm-2,0a2,2,0,0,1-1-.51,3.43,3.43,0,0,0-2.37-.92,3.47,3.47,0,0,0-2.46,5.92,3.4,3.4,0,0,0,2.46,1,3.26,3.26,0,0,0,2.35-1,3.33,3.33,0,0,0,.36-.46h-1.79a2,2,0,0,1,0-4.07Z" transform="translate(-141.4 -136.38)"/><path d="M266.77,326.83a2,2,0,0,1,0,4h-6.24a2,2,0,0,1-2-2V318.1a2,2,0,0,1,2-2h6.24a2,2,0,0,1,0,4h-4.25v1.41h3a2,2,0,1,1,0,4h-3v1.36Z" transform="translate(-141.4 -136.38)"/><path d="M282.07,318.12v10.73a2,2,0,0,1-1.32,1.87,1.89,1.89,0,0,1-.67.12,2,2,0,0,1-1.53-.73l-5.19-6.38v5.1a2,2,0,0,1-4,0V318.14a2,2,0,0,1,1.32-1.87,2,2,0,0,1,.68-.1,1.94,1.94,0,0,1,1.53.71l5.21,6.38v-5.14a2,2,0,0,1,4,0Z" transform="translate(-141.4 -136.38)"/><path d="M291.13,326.83a2,2,0,0,1,0,4h-6.24a2,2,0,0,1-2-2V318.1a2,2,0,0,1,2-2h6.24a2,2,0,0,1,0,4h-4.25v1.41h3a2,2,0,1,1,0,4h-3v1.36Z" transform="translate(-141.4 -136.38)"/><path d="M303.71,327.63a1.94,1.94,0,0,1-.3,2.73,1.81,1.81,0,0,1-1.22.44,2,2,0,0,1-1.51-.73l-2.85-3.53-1.31,0v2.94a1.34,1.34,0,1,1-2.68,0v-12a1.33,1.33,0,0,1,1.34-1.34h3.95a5.19,5.19,0,0,1,3.44,1.4,4.68,4.68,0,0,1,1.32,3.49,5.58,5.58,0,0,1-1.61,4.32,2.51,2.51,0,0,1-.25.23Zm-6.6-8.23v3.82l1.91,0s0,0,.09,0a1.54,1.54,0,0,0,.94-.35,2.66,2.66,0,0,0,.55-1.91,1.89,1.89,0,0,0-.21-1,1.54,1.54,0,0,0-.42-.38,2,2,0,0,0-.86-.23Z" transform="translate(-141.4 -136.38)"/><path d="M317.27,328.07a2,2,0,0,1-1.07,2.59,1.94,1.94,0,0,1-.76.14,2,2,0,0,1-1.82-1.22l-.84-2h-3.59l-.8,2a2,2,0,0,1-1.83,1.22,1.71,1.71,0,0,1-.75-.15,2,2,0,0,1-1.1-2.58l4.43-10.62s0-.06,0-.11a2,2,0,0,1,1.07-1.07,2.48,2.48,0,0,1,.75-.14,2,2,0,0,1,1.85,1.21Zm-6.4-4.45h.27l-.15-.33Z" transform="translate(-141.4 -136.38)"/><path d="M325.33,316.11a2,2,0,1,1,0,3.9H322.9v8.82a2,2,0,1,1-3.93,0V320h-2.43a2,2,0,1,1,0-3.9Z" transform="translate(-141.4 -136.38)"/><path d="M335.92,326.83a2,2,0,0,1,0,4h-6.24a2,2,0,0,1-2-2V318.1a2,2,0,0,1,2-2h6.24a2,2,0,0,1,0,4h-4.24v1.41h3a2,2,0,1,1,0,4h-3v1.36Z" transform="translate(-141.4 -136.38)"/><path d="M356.62,317.91V329a2,2,0,0,1-4,0v-3.59h-3.87V329a2,2,0,0,1-4,0V317.89a2,2,0,1,1,4,0v3.59h3.87v-3.57a2,2,0,0,1,4,0Z" transform="translate(-141.4 -136.38)"/><path d="M365.88,326.83a2,2,0,0,1,0,4h-6.23a2,2,0,0,1-2-2V318.1a2,2,0,0,1,2-2h6.23a2,2,0,0,1,0,4h-4.24v1.41h3a2,2,0,1,1,0,4h-3v1.36Z" transform="translate(-141.4 -136.38)"/><path d="M378.46,327.63a1.93,1.93,0,0,1-.29,2.73,1.83,1.83,0,0,1-1.22.44,2,2,0,0,1-1.51-.73l-2.86-3.53-1.3,0v2.94a1.35,1.35,0,0,1-1.34,1.34,1.33,1.33,0,0,1-1.34-1.34v-12a1.33,1.33,0,0,1,1.34-1.34h3.95a5.2,5.2,0,0,1,3.44,1.4,4.68,4.68,0,0,1,1.32,3.49,5.58,5.58,0,0,1-1.61,4.32,1.79,1.79,0,0,1-.26.23Zm-6.59-8.23v3.82l1.91,0s0,0,.09,0a1.54,1.54,0,0,0,.94-.35,2.66,2.66,0,0,0,.55-1.91,1.89,1.89,0,0,0-.21-1,1.7,1.7,0,0,0-.42-.38,2,2,0,0,0-.86-.23Z" transform="translate(-141.4 -136.38)"/><path d="M387.75,326.83a2,2,0,0,1,0,4h-6.24a2,2,0,0,1-2-2V318.1a2,2,0,0,1,2-2h6.24a2,2,0,0,1,0,4H383.5v1.41h3a2,2,0,1,1,0,4h-3v1.36Z" transform="translate(-141.4 -136.38)"/></svg>