<svg xmlns="http://www.w3.org/2000/svg" viewBox="0 0 433.82 73.67"><path d="M369.3,321.13a20.49,20.49,0,0,1-9.44,7.4,27.88,27.88,0,0,1-11.19,2.22,31.59,31.59,0,0,1-6.57-.75,28.14,28.14,0,0,1-16.46-9.42,9,9,0,0,1,1.2-12.68,9.24,9.24,0,0,1,5.7-2,8.94,8.94,0,0,1,6.93,3.33,10.67,10.67,0,0,0,6.14,3.32,16.59,16.59,0,0,0,3.06.28A11.93,11.93,0,0,0,353,312a4.16,4.16,0,0,0,1.46-1,2.39,2.39,0,0,0,.09-.84c-.09-.37-.09-.56-1-1.2a36,36,0,0,0-7.22-3.24,44.8,44.8,0,0,1-11.62-5.64,18.12,18.12,0,0,1-5.64-6.29,18.37,18.37,0,0,1-2.31-9.25,19.11,19.11,0,0,1,4-12.1,21,21,0,0,1,9.46-6.76,29.18,29.18,0,0,1,9.44-1.58,30.42,30.42,0,0,1,5.79.6,24.94,24.94,0,0,1,13.88,7.86,9,9,0,0,1-1,12.63l-.05,0a8.63,8.63,0,0,1-5.73,2.12,9,9,0,0,1-6.87-3.18,6.45,6.45,0,0,0-3.87-1.94,9.78,9.78,0,0,0-2.22-.28,8.71,8.71,0,0,0-3.24.56,2.74,2.74,0,0,0-1.49.92,1.48,1.48,0,0,0-.36,1.11,2.63,2.63,0,0,0,.09.55,2,2,0,0,0,.65.66,38.93,38.93,0,0,0,7.22,3.23,49.16,49.16,0,0,1,11.19,5.16,21.92,21.92,0,0,1,5.64,5.64,17.91,17.91,0,0,1,2.95,8.42A18.75,18.75,0,0,1,369.3,321.13ZM409,312.34a8.74,8.74,0,0,1,0,17.48H384.09A8.85,8.85,0,0,1,375.3,321V272.84a8.74,8.74,0,1,1,17.48,0v39.5Zm164.64,8.79a20.54,20.54,0,0,1-9.44,7.4A27.94,27.94,0,0,1,553,330.75a31.59,31.59,0,0,1-6.57-.75A28.14,28.14,0,0,1,530,320.58a9,9,0,0,1,1.2-12.68,9.22,9.22,0,0,1,5.73-2,8.91,8.91,0,0,1,6.93,3.33,10.64,10.64,0,0,0,6.11,3.32,16.51,16.51,0,0,0,3.06.28,12,12,0,0,0,4.35-.75,4.27,4.27,0,0,0,1.47-1,2.41,2.41,0,0,0,.09-.84c-.09-.38-.09-.56-1-1.2a35.7,35.7,0,0,0-7.19-3.23,44.9,44.9,0,0,1-11.61-5.64,18,18,0,0,1-5.64-6.29,18.28,18.28,0,0,1-2.32-9.25,19.18,19.18,0,0,1,4-12.1,21,21,0,0,1,9.43-6.75,29.45,29.45,0,0,1,9.44-1.58,30.77,30.77,0,0,1,5.82.56,25.09,25.09,0,0,1,13.88,7.86,9,9,0,0,1-1,12.63l-.05.05a8.62,8.62,0,0,1-5.73,2.11,9.05,9.05,0,0,1-6.85-3.13,6.38,6.38,0,0,0-3.87-1.95A9.18,9.18,0,0,0,554,282a8.77,8.77,0,0,0-3.24.55c-1,.36-1.39.74-1.48.92a1.44,1.44,0,0,0-.36,1.11,1.71,1.71,0,0,0,.09.55,1.93,1.93,0,0,0,.64.66,38.93,38.93,0,0,0,7.22,3.23,49.16,49.16,0,0,1,11.19,5.16,22.07,22.07,0,0,1,5.64,5.64,18,18,0,0,1,3,8.42A18.85,18.85,0,0,1,573.61,321.13Zm85.83-44.59-15.73,47.35a8.63,8.63,0,0,1-8,5.93h-.27a8.63,8.63,0,0,1-8.06-5.37l-8.13-19.88-8.14,19.88a8.79,8.79,0,0,1-8,5.37h-.37a8.65,8.65,0,0,1-8-5.93l-15.69-47.35a8.69,8.69,0,0,1,5.43-11h0a10.1,10.1,0,0,1,2.78-.45,8.75,8.75,0,0,1,8.33,6L603.89,296l7.2-17.76a8.79,8.79,0,0,1,16.19,0L634.6,296l8.24-24.89a8.71,8.71,0,0,1,8.23-6,10.1,10.1,0,0,1,2.78.45,9.17,9.17,0,0,1,5.12,4.38A8.77,8.77,0,0,1,659.44,276.54Zm47.17,41.31a8.71,8.71,0,0,1-4.73,11.37,8.11,8.11,0,0,1-3.33.65,8.67,8.67,0,0,1-8-5.37l-3.71-8.87H671l-3.51,8.78a8.77,8.77,0,0,1-8,5.37,7.77,7.77,0,0,1-3.33-.65,8.68,8.68,0,0,1-4.9-11.27,1.08,1.08,0,0,0,.08-.19l19.52-46.79c0-.18.09-.29.09-.47a9,9,0,0,1,4.71-4.71,10.52,10.52,0,0,1,3.33-.64,8.8,8.8,0,0,1,8.15,5.35Zm-30-19.66h4.7a1.51,1.51,0,0,0,1.36-2.17l-2.26-4.61a1.64,1.64,0,0,0-2.2-.74,1.68,1.68,0,0,0-.75.74l-2.2,4.6a1.5,1.5,0,0,0,.68,2A1.44,1.44,0,0,0,676.63,298.19Zm33.4,22.5V273.78a8.75,8.75,0,0,1,8.68-8.69H734.2a24,24,0,0,1,6,.92,21.51,21.51,0,0,1,10,5.64,21.79,21.79,0,0,1,6.2,16c0,8.41-2.5,15-7.4,19.61a22.36,22.36,0,0,1-14.8,5.64h-.65l-6.1-.09v7.74Zm31.53-33a9.81,9.81,0,0,0-1-4.73,6.28,6.28,0,0,0-2.31-2,10.76,10.76,0,0,0-4.06-1h-9.44v18.22l9,.1h.37a7.71,7.71,0,0,0,4.8-1.75C740.72,294.77,741.56,291.85,741.56,287.65Zm-260.35,33V273.78a8.74,8.74,0,0,1,8.7-8.69H505.4a24,24,0,0,1,6,.92,21.46,21.46,0,0,1,10,5.64,21.79,21.79,0,0,1,6.2,16c0,8.41-2.5,15-7.4,19.61a22.36,22.36,0,0,1-14.8,5.64h-.65l-6.1-.09v7.74Zm31.55-33a10,10,0,0,0-1-4.73,6.56,6.56,0,0,0-2.35-2,10.91,10.91,0,0,0-4.08-1h-9.44v18.22l9,.1h.36a7.74,7.74,0,0,0,4.81-1.75C512,294.77,512.76,291.85,512.76,287.65Z" transform="translate(-323.09 -257.58)" fill="#1f1f1f" stroke="#231f20" stroke-miterlimit="10"/><path d="M727.41,322.15a8.7,8.7,0,1,1-17.38.67c0-.22,0-.45,0-.67Zm-246.2,0a8.7,8.7,0,1,0,17.38.67c0-.22,0-.45,0-.67Zm-87.59-37.56a13.22,13.22,0,0,0,5.09,2.38,12.81,12.81,0,0,0,3.21,2c-1.46,9.4,2,18.07,7,22.77,7.74,7.39,11.47,9,11.47,9s-.19,8.41.21,8.62a5.12,5.12,0,0,0,3.69,1.43h9.14c2,0,2.14-1.29,2.45-1.74s-.31-3.08,0-3.19,11.7-.19,13-.19c-.21,1.54.21,4.61,2.36,4.61s7.75.51,10,.51a3.63,3.63,0,0,0,3.3-1.95c.2-.31-.31-7,0-8.1l.18-.08c2.28-1.11,11.25-7.5,13-10.69,4.71-.1,13.13-2.26,14.56-14.56v-1.29c0-2.31-.09-4.12-.16-5.54-.18-4.13-.55-5-1.87-5-1.75,0-7.9.2-8.5,0-1.3-4-6.89-13-12.73-15.91-.4-8.3-.4-9.42-.61-9.94h0c-.3-.5-8.11-.37-9.53,4.83h0c-1.12-.36-2.69-.85-4.62-1.29a48.74,48.74,0,0,0-27.11.84,47.35,47.35,0,0,0-16.78,10.08c-.24.21-.49.44-.73.67a32.2,32.2,0,0,0-7.46,14.2,2.09,2.09,0,0,1-1.3-1,5.16,5.16,0,0,0,1.46-2.91c.39-1.65-1.61-2.45-3-2.41s-1.84,2.49-2,3.87c-.3.3-2.12-1.7-3-2.17S393.36,284.11,393.62,284.59Zm5.82-1.71a1,1,0,0,1,.66-.33.42.42,0,0,1,.43,0,.73.73,0,0,1,.09.22,1.85,1.85,0,0,1,0,1,1.55,1.55,0,0,1-.29.43.71.71,0,0,1-.23.19.32.32,0,0,1-.3,0c-.07,0-.15-.16-.24-.13a4,4,0,0,0-.13-.66A1.08,1.08,0,0,1,399.44,282.88Zm57.46-13.47a6.2,6.2,0,0,1,1.29-3,7,7,0,0,0,.94-1.69,4.75,4.75,0,0,0,.2-1.29h0c1.42-5.17,9.24-5.35,9.54-4.84a10,10,0,0,0-5.23,4.18A10.4,10.4,0,0,0,463,264q-1.29,2.73-2.32,5.54a2.79,2.79,0,0,1-.89,1.39,2.28,2.28,0,0,1-1.66.18,1.83,1.83,0,0,1-.8-.31A1.57,1.57,0,0,1,456.9,269.41Z" transform="translate(-323.09 -257.58)" fill="#ffa37e"/><path d="M427.22,264.23a48.74,48.74,0,0,1,27.11-.84,3.35,3.35,0,0,1,.38,1.48,5.42,5.42,0,0,1,0,.57,2.3,2.3,0,0,1-2.48,2.1h-.11a48.63,48.63,0,0,0-22.19,0,2.3,2.3,0,0,1-2.57-2s0-.07,0-.11A3.29,3.29,0,0,1,427.22,264.23Zm42.92,18.07a2.59,2.59,0,1,0,2.59-2.58,2.58,2.58,0,0,0-2.59,2.58Z" transform="translate(-323.09 -257.58)" fill="#191228" stroke="#231f20" stroke-miterlimit="10"/></svg>