<svg xmlns="http://www.w3.org/2000/svg" viewBox="0 0 795 795"><circle cx="397.5" cy="397.5" r="294.58" fill="#f2f2f2"/><path d="M930.58,527.46C930.58,747,752.61,925,533.08,925s-397.5-178-397.5-397.51S313.54,130,533.08,130,930.58,307.93,930.58,527.46ZM420.44,685.65H343.29c-16.21,0-24.21,0-29.1-3.12a19.62,19.62,0,0,1-8.88-15.34C305,661.43,309,654.4,317,640.34L507.5,304.6c8.11-14.26,12.21-21.39,17.39-24a19.66,19.66,0,0,1,17.77,0c5.17,2.64,9.28,9.77,17.38,24L599.2,373l.2.35c8.75,15.3,13.19,23.05,15.13,31.19a58,58,0,0,1,0,27.15c-1.95,8.2-6.35,16-15.23,31.54L499.24,640.05l-.26.45c-8.81,15.42-13.27,23.24-19.46,29.13a58.38,58.38,0,0,1-23.73,13.78C447.68,685.65,438.6,685.65,420.44,685.65Zm194.81,0H725.79c16.31,0,24.51,0,29.4-3.22A19.52,19.52,0,0,0,764.07,667c.28-5.57-3.63-12.33-11.31-25.57l-.8-1.38-55.37-94.72-.63-1.07c-7.78-13.16-11.7-19.8-16.75-22.37a19.45,19.45,0,0,0-17.67,0c-5.08,2.64-9.18,9.57-17.29,23.54l-55.17,94.72-.19.32c-8.07,13.94-12.11,20.91-11.82,26.63A19.77,19.77,0,0,0,586,682.53C590.74,685.65,598.94,685.65,615.25,685.65Z" transform="translate(-135.58 -129.96)" fill="#e84142" fill-rule="evenodd"/></svg>