<svg xmlns="http://www.w3.org/2000/svg" xmlns:xlink="http://www.w3.org/1999/xlink" viewBox="0 0 1588 1191"><defs><linearGradient id="a" x1="481.13" y1="404.03" x2="512.85" y2="404.03" gradientTransform="translate(87.11 116.26) rotate(-16.3)" gradientUnits="userSpaceOnUse"><stop offset="0" stop-color="#fa9271"/><stop offset="0.51" stop-color="#ed7c54"/><stop offset="1" stop-color="#b5593b"/></linearGradient><radialGradient id="b" cx="426.14" cy="474.53" r="101.8" gradientTransform="translate(87.11 116.26) rotate(-16.3)" gradientUnits="userSpaceOnUse"><stop offset="0" stop-color="#f9e8d8"/><stop offset="1" stop-color="#e5c3a0"/></radialGradient><linearGradient id="c" x1="344.09" y1="390.18" x2="526.49" y2="390.18" xlink:href="#a"/></defs><rect width="1588" height="1191" style="fill:#fff;opacity:0"/><polygon points="662.61 653.31 527.86 524.23 557.46 490.3 644.07 573.27 729.46 378.98 828.63 488.94 921.15 266.63 1002.01 397.03 1081.59 279.09 1213.19 400.37 1306.75 229.19 1230.66 195.41 1431.3 57.72 1444.64 290.39 1361.21 253.35 1228.28 490.33 1091.45 364.18 1000.83 495.31 930.92 383.24 846.11 581.15 745.55 469.83 662.61 653.31" style="fill:#73c7d2"/><path d="M772.69,555.05l-.76,45.05c4.77-5.15,11.35-6,19.63-3.3-2.85-14.09-8.35-49.57-8.35-49.57L729.59,526.6l-14.34,18.55Z" style="fill:#ebf5f2;fill-rule:evenodd"/><path d="M772.69,555.05l-.32,19,1.7-20.67-24.36-2.26Z" style="fill-rule:evenodd;opacity:0.1"/><path d="M781.23,549.66s7.48,33.05,10.33,47.14c-2.85-14.09-8.35-49.57-8.35-49.57L729.59,526.6l-1.43,1.85Z" style="fill:#fff;fill-rule:evenodd;opacity:0.4"/><path d="M807.12,678l-18.34-37.52L752.11,603l-13.56,10.64,38.15,37.53,19.64,38.91a17.57,17.57,0,0,0,7.72-4A10.46,10.46,0,0,0,807.12,678Z" style="fill:#634e42;fill-rule:evenodd"/><path d="M804.12,674.24c16.4-4.71,24.43-2.91,30.88,4.94-10.93,7.92-26.56,13.89-40.61,16.65-1.13-5-3-10.65-4.11-15.66Z" style="fill-rule:evenodd"/><path d="M433,611.53c6.36-14.28-14.42-29-13.29-45.42,1.77-25.77,2.23-20.76-8.68-43.34-22.85,17-46.63,5.2-76.12.79a339.92,339.92,0,0,1,35.79-44.67c1.34-1.41,7.36-7.12,6-9.39-.73-1.18-3.5-1.43-10,.38-31.94,8.84-63.36,16.24-91.93,15.62a32.62,32.62,0,0,0,4.16-12.43l-54.12-44.16c-13.78,37.69.9,60.58,23.76,59.11-17.47,2.73-31-8.12-32.16-28.77l-7.18-1.59c-4.19,16.93,3.2,42.68,22,49.12,9.08,3.12,20,.27,29.13-5.88,20.24,4.24,46.3,1.22,75.35-5.55-9.77,11.33-18.18,21.95-26.82,32.79-4.83,6.06-8.57,11.89-10.66,18.23-3.51,10.63-1.52,24.91,2.31,35.3h0c3.44,12.27,11.74,21.37,35.42,28.58S409.37,615.78,433,611.53Z" style="fill:#69360e;fill-rule:evenodd"/><path d="M816.49,667.74c-38.13-17.53-118.72-26.24-181.34-52.64-17.95-7.57-29.32-49-45.09-85.56-2.06-10.95-18.84-36.17-29.26-44.42-18.58-14.71-55.19-26.72-90.87-26.9-25-.13-49.06,3.72-69.23,11.33a50.11,50.11,0,0,1-4.82-3.3c-15.41-11.87-24.61-31.92-25.61-51.11-2.62-50.36,59.17-75.14,39-134.32-10-29.37-35.3-60.73-58-60.34a24.49,24.49,0,0,0-10.2,2.59c-31.51-10.8-44.09,13.73-61.41,37.58a32.71,32.71,0,0,1-20.91,13.42c33.46,18.48,82.69,3.17,93.16-33.7,14.74,1.09,32.91,13.58,44.46,37.47,26.29,54.35-40.37,86.85-37.71,137.9C359.85,438,370.59,461,388.28,475c-26,13-43,33.45-43.17,60.77a72.4,72.4,0,0,0,2.21,18.06c-15.15,12.3-36.82,12.89-59.9,19.22a345.72,345.72,0,0,1,15-56.38c.66-1.86,3.93-9.67,1.69-11.21-1.17-.8-3.86.11-9.21,4.49-26.13,21.39-52.38,41.23-79.26,52.42,0,0-5.76,7.58-6.7,10.57-.72,2.32-.42,9.73-.42,9.73,20.62-4.39,43.66-17.93,68-36.21C272,561,268.55,574.37,265,588c-2,7.64-3.1,14.62-2.44,21.39,1.11,11.36,8.85,23.84,16.7,32h0c8.26,10,19.74,15.09,44.79,12.06,22.77-2.76,62.92-21.4,85.18-35.05,22.57,8.72,46.06,12.54,48.52,64.29,5.07,106.9-53.6,213.92,111.12,289.64,98.69,45.37,242-20.8,277.12-97.09S915.19,713.11,816.49,667.74Z" style="fill:#915e36;fill-rule:evenodd"/><path d="M341.1,223.07c-31.51-10.8-44.09,13.73-61.41,37.58a32.71,32.71,0,0,1-20.91,13.42c33.46,18.48,82.69,3.17,93.16-33.7,0,0-.05-7-1.12-9C349.31,228.58,341.1,223.07,341.1,223.07Z" style="fill:#1a171b;fill-rule:evenodd;opacity:0.30000000000000004"/><path d="M214.37,549l-68.63-18.88c2.66,40.81,25.78,56.11,46.49,45.32-15.17,9.74-32.21,5.18-41.83-13.58l-7.35,1.48c3.07,17.51,20.56,38.46,40.71,36.74,9.75-.83,18.76-8,24.74-17.47l7.12-20.3A33.32,33.32,0,0,0,214.37,549Z" style="fill:#c4c7be;fill-rule:evenodd"/><path d="M1031.46,963.63q-45.06-34.95-84.13-70.55c-.28-9.93-4.49-20.75-12.16-29.38-9.39-10.57-21.56-15.05-32.18-12.81q-33.19-33.14-61.41-66l-23.91,16.74q28.51,38.1,63,76.16a40.11,40.11,0,0,0,11,31.88c8.86,9.37,20.91,13.61,31.63,12.48q29.64,29.28,63,58Z" style="fill:#915e36;fill-rule:evenodd"/><path d="M1025.43,971.76,1058,998.6c8.75-5.29,20.11-13.35,20.1-13.37q-30.1-15.59-58.31-31.06s-9.26,7.92-12.76,10.39c-5.61,4-26.14,11.34-26.13,11.35q9.11,21.27,19,41.61s31.56-8,46.62-13.37Z" style="fill:#c4c7be;fill-rule:evenodd"/><path d="M1019.78,954.17l-2.63,2.22q25.86,16.93,53.3,34.15c4.37-3,7.64-5.3,7.64-5.31Q1048,969.65,1019.78,954.17Z" style="fill:#fff;fill-rule:evenodd;opacity:0.4"/><path d="M841.33,858.08c-27.24,59.25-109.21,113.36-195.6,129,84.54-1.86,173.6-53.94,200.23-111.87,19.55-42.53,38.81-88,34.93-127.82C874.55,783.58,858,821.74,841.33,858.08Z" style="fill-rule:evenodd;opacity:0.1"/><path d="M560.8,485.12c-18.58-14.71-55.19-26.72-90.87-26.9-38.59-.2-74.76,9-98.13,27,23.8-11.49,53.72-17.88,85.24-18.69,40-1,81.41,11.15,102.73,27,12,8.89,31.63,36.56,34.32,48.75,3.79,8.1,7.39,16.42,10.89,24.61-4.75-12-9.59-24.9-14.92-37.28C588,518.59,571.22,493.37,560.8,485.12ZM816.49,667.74c-38.13-17.53-118.72-26.24-181.34-52.64-7.61-3.21-14-12.52-20.12-25,10.19,22.94,20.24,41.6,32.54,46.35,69.15,26.66,156.75,34,201.34,51.22A143.21,143.21,0,0,0,816.49,667.74Z" style="fill:#fff;fill-rule:evenodd;opacity:0.4"/><path d="M304.7,506.35a1.66,1.66,0,0,0-.61-.93c-1.17-.8-3.86.11-9.21,4.49-26.13,21.39-52.38,41.23-79.26,52.42,0,0-1.38,1.82-2.9,4,28.48-12,56.4-32.75,84.2-55.13C300.54,508.32,303,506.84,304.7,506.35Z" style="fill:#fff;fill-rule:evenodd;opacity:0.4"/><path d="M473.53,691.43c-2.45-51.74-36.43-68.11-64.33-73,22.57,8.72,46.06,12.54,48.52,64.29,4.8,101.08-47.4,202.28,86.18,277C412,885.82,478.33,792.48,473.53,691.43Z" style="fill-rule:evenodd;opacity:0.1"/><path d="M668.56,610.47c-23.54-14.2-71.69-83.4-71.69-83.4-10.07,34-18.44,78.64-12.63,115.13C545,664,500.3,677.62,453.75,681.9l.95,10.31a342.92,342.92,0,0,0,131.72-39.39c5.56,22,17.32,40,38.48,49.11,57.86,25,115.43-14.87,146.44-68C771.34,634,691.13,624.09,668.56,610.47Z" style="fill:#cbbb9d"/><path d="M637.67,699.21c-54.6-23.61-49.71-103-34.87-163.81-3.71-5.14-5.93-8.33-5.93-8.33-17.45,59-29.83,149.84,28,174.86A90,90,0,0,0,682.65,707,94.69,94.69,0,0,1,637.67,699.21Z" style="fill-rule:evenodd;opacity:0.05"/><path d="M712.19,1021.06a39.24,39.24,0,0,0,23,15.47q21.78,29.78,46.69,58.78l43.67-15.91q-29.76-31-55.68-62.54c2-9.84-.61-22-7.72-32.45-8.27-12.19-20.24-18.71-31.18-17.77a945.65,945.65,0,0,1-53.85-82.79l-22.42,19.46a850.6,850.6,0,0,0,50.94,90.26A37.93,37.93,0,0,0,712.19,1021.06Z" style="fill:#915e36;fill-rule:evenodd"/><path d="M752.11,603c-.19-.64-133.55,39.37-133.55,39.37l30.8,49.8.07,43.59a17.62,17.62,0,0,0,8.68-.07,10.49,10.49,0,0,0,6.37-5.85l.46-41.77L644,656c42.79,1.64,67.9-10,97.31-28L758,619.19C755.42,612.64,753.22,606.76,752.11,603Z" style="fill:#634e42;fill-rule:evenodd"/><path d="M729.07,967.77c11.11-1,23.27,5.66,31.67,18.05a40.76,40.76,0,0,1,6.23,32c17,20.61,36.69,42.06,56.21,62.47l2.33-.85q-29.76-31-55.68-62.54c2-9.84-.61-22-7.72-32.45-8.27-12.19-20.24-18.71-31.18-17.77q-16.7-23-31.42-46C708.7,936.84,718.44,953.13,729.07,967.77Z" style="fill:#fff;fill-rule:evenodd;opacity:0.4"/><path d="M826,1087.87l29.63,24.42c9-4.28,19.42-10.11,19.4-10.15q-30.82-17-59.11-32.87s-9.65,7.11-13.3,9.27c-5.83,3.47-26.93,9.56-26.92,9.58q8.25,19.92,17,38.69c-.06-.07,38-6.19,52-10.14Z" style="fill:#c4c7be;fill-rule:evenodd"/><path d="M815.91,1069.27s-1.43,1.06-3.4,2.48q26.88,16.57,55.74,34.11c4-2.11,6.78-3.7,6.77-3.72Q844.2,1085.19,815.91,1069.27Z" style="fill:#fff;fill-rule:evenodd;opacity:0.4"/><polygon points="763.17 601.2 733.12 638.81 747.75 645.88 777.55 615.14 763.17 601.2" style="fill:#cbbb9d;fill-rule:evenodd"/><path d="M580.45,513.07l18,61.17,20.08,68.11c47.61-2.64,92.32-15.09,133.55-39.37l-20.33-68.93L714,473.7Z" style="fill:#ebf5f2;fill-rule:evenodd"/><polygon points="559.22 573.69 506.77 545.55 515.36 527.24 561.35 566.18 596.04 565.97 603.99 588.03 559.22 573.69" style="fill:#ebf5f2;fill-rule:evenodd"/><polygon points="559.81 572.43 530.46 558.26 559.22 573.69 603.99 588.03 603.07 585.49 559.81 572.43" style="fill-rule:evenodd;opacity:0.1"/><polygon points="596.55 567.37 596.04 565.97 561.35 566.18 515.36 527.24 561.48 569.4 596.55 567.37" style="fill:#fff;fill-rule:evenodd;opacity:0.4"/><path d="M596,566l22.52,76.38c4.48-.24,8.92-.58,13.35-1l-13.53-76.8Q607.42,565.74,596,566Z" style="fill:#fff;fill-rule:evenodd;opacity:0.4"/><polygon points="529.73 533.76 518.68 557.03 498.5 559.49 515.5 511.5 529.73 533.76" style="fill:#efcaa6;fill-rule:evenodd"/><polygon points="523.51 532.58 527.54 523.9 524.61 513.89 516.41 529.88 523.51 532.58" style="fill:#efcaa6;fill-rule:evenodd"/><path d="M665,723.5c16.32,5,22.07,10.86,23.22,21-13.49.69-29.85-2.81-43.14-8.15,1.78-4.81,3.3-10.56,5.08-15.37Z" style="fill-rule:evenodd"/><path d="M851.34,700.7c1.85,16.14,2.32,25.36,9.87,38.93,67.53,2.49,130.06-31.37,137.72-88.25a95.22,95.22,0,0,0,.84-11.5C966.29,678.05,911.79,701.44,851.34,700.7Z" style="fill:#c4c7be;fill-rule:evenodd"/><path d="M999.77,639.88c-33.48,38.17-88,61.56-148.43,60.82.44,3.86.81,7.31,1.21,10.53C912,710.94,972.07,681.27,999.77,639.88Z" style="fill:#fff;fill-rule:evenodd;opacity:0.4"/><path d="M862.83,819.51c-23.56-.83-24.22,44.92-34.66,69.3a141.21,141.21,0,0,0-10.37,40.55c-4,39.43,69.58,65.94,120.88,63.84s67.77-34.12,55.41-70S898.74,820.78,862.83,819.51Z" style="fill:#f2c8bd;fill-rule:evenodd"/><path d="M941,988.05c-51.73,2.19-125.71-23.8-122.66-62.79-.18,1.37-.36,2.74-.5,4.1-4,39.43,69.58,65.94,120.88,63.84,29.07-1.19,46.94-12,54.73-27.64C984.28,978.36,967.05,987,941,988.05Z" style="fill:#e0a498;fill-rule:evenodd;opacity:0.4"/><path d="M777.42,729.1a77.93,77.93,0,1,0,87.23,67.34A77.94,77.94,0,0,0,777.42,729.1Z" style="fill:#915e36;fill-rule:evenodd"/><path d="M800.22,719.08c-45.55,5.86-78,45.23-72.54,87.91s46.89,72.53,92.43,66.67,78-45.23,72.55-87.9S845.78,713.22,800.22,719.08Z" style="fill:#915e36;fill-rule:evenodd"/><path d="M904.32,789.83c-38.14,22.69-86.76,57.2-124.9,79.89,52.52-.9,74.83,26.2,89.81,60.11,26.12-17.64,51.15-58.47,77.26-76.11C906,844.09,907.52,817.09,904.32,789.83Z" style="fill:#915e36;fill-rule:evenodd"/><path d="M946.49,853.72c-40.52-9.63-39-36.63-42.17-63.89C901.35,819.62,906,844.09,946.49,853.72Z" style="fill:#fff;fill-rule:evenodd;opacity:0.4"/><path d="M902.52,823.54c-48.93,14-79.51,57.15-68.3,96.42s60,59.78,108.92,45.8,79.51-57.15,68.29-96.41S951.44,809.56,902.52,823.54Z" style="fill:#f2c8bd;fill-rule:evenodd"/><path d="M808.35,878.07a84.8,84.8,0,0,1-94.7-96.93A77.93,77.93,0,0,0,827.1,873.43,84.36,84.36,0,0,1,808.35,878.07Z" style="fill:#fff;fill-rule:evenodd;opacity:0.4"/><path d="M875.56,749.51c16.44-6.07,36.38,1.73,44.5,17.41s1.4,33.33-15,39.39-36.37-1.73-44.51-17.41S859.11,755.58,875.56,749.51Z" style="fill:#915e36;fill-rule:evenodd"/><path d="M835.29,736.9c-25,1.12-46.93,22.42-48.95,47.57S803,829.11,828,828s46.94-22.43,49-47.58S860.3,735.79,835.29,736.9Z" style="fill:#915e36;fill-rule:evenodd"/><path d="M875.78,751.73c14.8-5.46,32.74,1.56,40.06,15.67s1.25,30-13.55,35.45-32.74-1.55-40.06-15.67S861,757.19,875.78,751.73Z" style="fill:#f1f5f7;fill-rule:evenodd"/><path d="M895.78,801.56c16-5.79,22.6-22.54,14.75-37.38a33.05,33.05,0,0,0-9.21-10.76,32.44,32.44,0,0,1,14.52,14c7.31,14.12,1.25,30-13.55,35.45a31.77,31.77,0,0,1-19.26.68A33.71,33.71,0,0,0,895.78,801.56Z" style="fill:#fff;fill-rule:evenodd"/><path d="M840.82,742c-22.43,1.1-42.66,19.41-45.17,40.87s13.66,38,36.09,36.88,42.66-19.41,45.17-40.87S863.25,740.9,840.82,742Z" style="fill:#f1f5f7;fill-rule:evenodd"/><path d="M795.65,782.87c1.54-13.18,9.76-25.16,21.06-32.7-8.17,7.39-13.86,17.34-15.11,28.07-2.51,21.47,13.66,38,36.08,36.88A47.9,47.9,0,0,0,861.79,807a48.89,48.89,0,0,1-30,12.8C809.31,820.85,793.15,804.33,795.65,782.87Z" style="fill:#fff;fill-rule:evenodd"/><path d="M873.34,782a10.7,10.7,0,0,0,3.46,8.14c3.92,3.58,9.61,3.26,12.68-.72s2.39-10.11-1.53-13.7-9.39-3.27-12.51.49a5.73,5.73,0,0,1,7.55.44,6.89,6.89,0,0,1,1,9.12,5.67,5.67,0,0,1-8.45.48A7.11,7.11,0,0,1,873.34,782Z" style="fill:#95a6b1;fill-rule:evenodd"/><path d="M814.35,768.41a28.91,28.91,0,0,0-1,23.62c5.3,12.77,19.28,17.62,31.2,10.82s17.29-22.68,12-35.46C851.3,754.87,837.78,750,826,756.18c7.09-2.19,14.5,1.21,17.57,8.6a19.35,19.35,0,0,1-8,23.61c-8,4.53-17.25,1.3-20.78-7.21A18.94,18.94,0,0,1,814.35,768.41Z" style="fill:#95a6b1;fill-rule:evenodd"/><path d="M984.56,813.16c20.39,4,35.27,22.72,33.23,41.82s-20.24,31.34-40.63,27.35-35.28-22.73-33.24-41.82S964.17,809.16,984.56,813.16Z" style="fill:#f2c8bd;fill-rule:evenodd"/><path d="M982.78,819c14.9,1.07,27.14,13.14,27.34,26.93s-11.71,24.12-26.61,23S956.38,855.83,956.18,842,967.89,817.92,982.78,819Z" style="fill:#5b443b;fill-rule:evenodd"/><path d="M953.05,902.83a1,1,0,0,1,.69,1.27,1,1,0,0,1-2-.57A1,1,0,0,1,953.05,902.83Z" style="fill:#a48a77"/><path d="M949.72,897.05a1,1,0,0,1,.66,1.21,1,1,0,1,1-.66-1.21Z" style="fill:#a48a77"/><path d="M943.7,891.11a2.56,2.56,0,1,1-3.18,1.74A2.55,2.55,0,0,1,943.7,891.11Z" style="fill:#a48a77"/><path d="M956.63,890.33a2.19,2.19,0,1,1-2.72,1.48A2.18,2.18,0,0,1,956.63,890.33Z" style="fill:#a48a77"/><path d="M974,906.41a1.23,1.23,0,1,1-1.53.84A1.23,1.23,0,0,1,974,906.41Z" style="fill:#a48a77"/><path d="M961.6,896a1,1,0,0,1,.69,1.26,1,1,0,1,1-2-.57A1,1,0,0,1,961.6,896Z" style="fill:#a48a77"/><path d="M842.67,864.93c-18.72,17.79-22.31,44.4-8,59.42s41,12.77,59.74-5,22.31-44.41,8-59.42S861.38,847.14,842.67,864.93Z" style="fill:#f2c8bd;fill-rule:evenodd"/><path d="M842.67,864.93a57.55,57.55,0,0,1,5.56-4.67c-17.54,18.25-20.5,44.28-6.32,59.2,10.84,11.4,28.66,13.12,45,5.89-17.83,12.06-39.8,12.11-52.26-1C820.36,909.33,824,882.72,842.67,864.93Z" style="fill:#fff;fill-rule:evenodd;opacity:0.4"/><path d="M850.58,866.57c-15.45,14.69-18.41,36.66-6.63,49.06s33.88,10.54,49.33-4.15,18.41-36.66,6.62-49.05S866,851.89,850.58,866.57Z" style="fill:#5b443b;fill-rule:evenodd"/><path d="M989.74,814.53c15.71,7.88,26,24.34,24.19,41.06a32.85,32.85,0,0,1-16.22,25.15,32.84,32.84,0,0,0,8.69-5c-.29.23-.57.47-.87.7,5.26,22.87-2.51,46.69-19.28,65.76,21.64-19.5,32.22-46.42,25.46-71.84-.06.07-.13.14-.19.22a30.5,30.5,0,0,0,6.27-15.64C1019.66,837.54,1007.41,820.42,989.74,814.53Z" style="fill:#fff;opacity:0.4"/><path d="M950.92,824a30.86,30.86,0,0,1,2.68-2.8,105.35,105.35,0,0,0-34-1.12A106.92,106.92,0,0,1,950.92,824Z" style="fill:#fff;opacity:0.4"/><path d="M825.73,792.51a2.06,2.06,0,1,1-1.7,2.36,2.06,2.06,0,0,1,1.7-2.36Zm-4,6.58a3.56,3.56,0,1,1-2.94,4.08A3.56,3.56,0,0,1,821.75,799.09Z" style="fill:#fff;fill-rule:evenodd"/><path d="M885.43,789a1.35,1.35,0,1,1-1.11,1.56,1.35,1.35,0,0,1,1.11-1.56Zm-2.61,4.31a2.33,2.33,0,1,1,.76,4.6,2.33,2.33,0,0,1-.76-4.6Z" style="fill:#fff;fill-rule:evenodd"/><path d="M856.47,690.26C806,688.83,755,696.12,710.23,719.57c-17.76,9.3-16.62,27.46-7.51,40s19.78,17,33.62,9.81a238.72,238.72,0,0,1,117.55-27.19c15.59.38,22.81-3.63,25.47-19S876.52,690.81,856.47,690.26Z" style="fill:#915e36;fill-rule:evenodd"/><path d="M707.49,722.77c45.5-23.85,96.89-32.54,148.28-32.53-50.26-1.34-101,6-145.54,29.33a27.76,27.76,0,0,0-9.49,7.8A34,34,0,0,1,707.49,722.77Z" style="fill:#fff;fill-rule:evenodd;opacity:0.4"/><path d="M716.61,719.74c19.66,17.18,14.5,37.18,1.2,46.47-69.5,19.22-144.5-3.91-169.22-66.42A121.83,121.83,0,0,1,544.33,687C590.39,722,654,735.27,716.61,719.74Z" style="fill:#c4c7be;fill-rule:evenodd"/><path d="M723.6,727.3a45.72,45.72,0,0,0-7-7.56c-56.76,14.07-114.29,4.53-158.86-23.47C603,724.83,667.52,740,723.6,727.3Z" style="fill:#fff;fill-rule:evenodd;opacity:0.4"/><path d="M831.66,879.33a70,70,0,0,0-9.37-3.27l-1.25.6a76.73,76.73,0,0,1,9.55,4.8C830.93,880.74,831.29,880,831.66,879.33Z" style="fill:#5b443b;fill-rule:evenodd;opacity:0.4"/><path d="M791.93,593.26c14.31,3.59,17.67,14.78,15.1,23.12s-10.11,10.71-24.42,7.12-30-11.77-27.41-20.11S777.62,589.67,791.93,593.26Z" style="fill:#cbbb9d;fill-rule:evenodd"/><polygon points="807.23 603.14 783.91 592.2 766.77 603.12 810.4 629.38 807.23 603.14" style="fill:#efcaa6;fill-rule:evenodd"/><polygon points="803.18 603.98 791.47 595.75 807.23 603.14 810.4 629.38 805.92 626.68 803.18 603.98" style="fill:#ffdeba;fill-rule:evenodd"/><polygon points="784.69 593.83 775.12 593.88 767.3 600.79 781.15 602.9 784.69 593.83" style="fill:#efcaa6;fill-rule:evenodd"/><path d="M210.29,411.6a52.63,52.63,0,0,0-30.2,71.11,74.18,74.18,0,0,1,30.2-71.11Z" style="fill:#1a171b;fill-rule:evenodd;opacity:0.1"/><path d="M203.35,376.23a82.8,82.8,0,0,0-47.5,111.86,118,118,0,0,1-1.24-17A116.47,116.47,0,0,1,203.35,376.23Z" style="fill:#1a171b;fill-rule:evenodd;opacity:0.1"/><polygon points="677.73 564.32 667.85 550.9 689.15 546.5 682.65 563.48 681.75 617.33 663.38 631.48 652.95 615.69 677.73 564.32" style="fill:#73c7d2;fill-rule:evenodd"/><polygon points="529.73 533.76 515.5 511.5 498.5 559.49 516.41 523.24 529.73 533.76" style="fill:#ffdeba;fill-rule:evenodd"/><polygon points="655.53 345.98 667.16 342.58 690.68 353.17 697.04 383.9 655.53 345.98" style="fill-rule:evenodd;fill:url(#a)"/><polygon points="675.51 346.34 686.2 356.08 697.04 383.9 690.68 353.17 675.51 346.34" style="fill-rule:evenodd;opacity:0.1"/><path d="M709.11,394.24c-2.38-2.79-5.44-3.74-8.26-3-17.64-36.71-47.38-59.77-100.61-44.21-55.69,16.28-65.81,53.18-55.9,98h0c-5.8-2.78-11.21,0-12.08,6.22s3.14,13.51,8.94,16.3c3.55,1.71,7,1.32,9.26-.67,10.54,31.68,28.35,66,45.58,99.1a254.19,254.19,0,0,0,62.79-9c25.13-6.85,48.24-17.47,70.76-30.4-4.28-33-7.89-76.37-19.85-112.9.22-.29.43-.59.63-.91C713.75,407.32,713.19,399,709.11,394.24Z" style="fill-rule:evenodd;fill:url(#b)"/><polygon points="582.38 400.58 604.18 386.45 605.25 394.66 579.34 417.87 582.38 400.58" style="fill:#e9845a;fill-rule:evenodd"/><polygon points="658.64 378.85 632.73 376.95 635.75 384.66 669.63 392.53 658.64 378.85" style="fill:#e9845a;fill-rule:evenodd"/><path d="M660.39,448.59a11.21,11.21,0,0,1-13.83,11.08,18.49,18.49,0,0,0,2.15-.49A18.05,18.05,0,0,0,660.39,448.59Z" style="fill:#c5997c;fill-rule:evenodd"/><path d="M660.39,448.59a28.56,28.56,0,0,1-6.48,7.28,25.78,25.78,0,0,1-7.35,3.8,18.49,18.49,0,0,0,2.15-.49A18.05,18.05,0,0,0,660.39,448.59Z" style="fill:#fff;fill-rule:evenodd;opacity:0.30000000000000004"/><path d="M643.57,528c3.76,7.77,8,16.58,16.39,20.92,6,3.1,10.8-1.3,13.51-6.24.37-.69.71-1.39,1-2.11l-.42-.49c-2-2.54-7.07-10.83-2.11-13.41,7.09-3.69,6.53,10.32,5.32,13.48a11.46,11.46,0,0,0,4.31,3c6.47,2.39,9.53-6.82,10.61-10.88,1.8-6.75,1.62-12.38.53-19,3.84,6.76,3.72,30.87-8.71,32.16a8.87,8.87,0,0,1-4.8-1,13.72,13.72,0,0,1-2.94-2c-.21.42-.44.82-.67,1.23-1.7,2.92-4.16,6-7.5,7.42-7.16,3.14-14-3.3-17.42-8.17s-5.86-9.28-7.11-14.88Zm31.82,9.8a10.3,10.3,0,0,0-.15-6.61c-1.53-3.48-3-2.13-2.46.93A15.14,15.14,0,0,0,675.39,537.77Z" style="fill:#c5997c;fill-rule:evenodd"/><path d="M659,325.93c1.73-7,.83-15.23-3.61-25.23C622.14,350.79,516.28,303.79,539,403.93l-5.86,11.78L544.34,445l12.78-55.13c42-37.18,129.13-16.95,135.48-78.73C684.26,318.47,672.35,322.76,659,325.93Z" style="fill-rule:evenodd;fill:url(#c)"/><path d="M544.85,403.35c-8.76-38.59,1.12-56.15,18.31-65.68C542.45,346,529.51,362.1,539,403.93l-5.86,11.78L544.34,445l-7.61-28.54Z" style="fill:#fff;fill-rule:evenodd;opacity:0.4"/><path d="M585,374c-10.34,3.87-19.91,8.85-27.88,15.89L544.34,445h0c-5.8-2.78-11.21,0-12.08,6.22s3.14,13.51,8.94,16.3c3.55,1.71,7,1.32,9.26-.67,10.54,31.68,28.35,66,45.58,99.1,7.61-.13,15.08-.6,22.41-1.37C582.5,492.26,554.81,420.47,585,374Z" style="fill:#fff;fill-rule:evenodd;opacity:0.30000000000000004"/><path d="M550.42,456.64c-2.87-5-10.2-6.06-11.59.94,0-.23,0-.47,0-.7.43-3.88,3.76-6.77,7.58-4.88-4.35-3.31-11-3.18-12.53,3.19C536.47,442.33,549.57,450,550.42,456.64Z" style="fill:#d0a486;fill-rule:evenodd"/><path d="M581,476.82c-5.16,23.32.89,37.46,12.78,44.48-14.63-6.56-22.64-21.48-16.72-47.38l0-.11a237.19,237.19,0,0,0,24.75,1.07q-10.15,1.19-20.81,1.84Z" style="fill:#d0a486"/><path d="M684.61,448.55a121.43,121.43,0,0,0,22.11-23.33c10.44,17.47,8.88,34.65.34,49.7,7.41-14.12,8.71-30-.13-46A104.05,104.05,0,0,1,684.61,448.55Z" style="fill:#d0a486"/><path d="M706.93,428.94q-2.89,3.4-6.06,6.52a105.74,105.74,0,0,1-12,10.16h0a81.9,81.9,0,0,1-11.22,11.86l-3.51-2.76-.33.17,2.78,3.5a101.49,101.49,0,0,1-45.16,21.78l-1.64-3.81.69,4a62.83,62.83,0,0,1-22.43.26l.5-5.56-1.79,5.32a36.92,36.92,0,0,1-11.88-4.73q-6.83.66-13.86,1.1l0,.1c-5.63,25.43,2.08,39.94,16.15,46.21h0a100.19,100.19,0,0,1,11-7.92l4.83,4.25-3.55-5c23.93-14.41,52.77-18.54,73.1-11.73a98.11,98.11,0,0,0,16.75-16h0C712.88,469.87,718.31,449.55,706.93,428.94Z" style="fill:#732706"/><path d="M659.33,470.06a98.4,98.4,0,0,1-27.93,10.11l-1.64-3.81.69,4a64.47,64.47,0,0,1-20.5.58,47.46,47.46,0,0,0-4.77,27.22,42.77,42.77,0,0,0,1.72,7.77l1.25-.79,4.83,4.25-3.55-5c18.62-11.22,40.21-16.2,58.45-14.65a46.05,46.05,0,0,0-.18-9.81A37.39,37.39,0,0,0,659.33,470.06Z" style="fill:#550900"/><path d="M662.7,476.85a75.37,75.37,0,0,0-10.63,1.69c6.41.69,12.22,2.22,16.53,4.67-8.18-2.19-18.56-3.33-27.75-1.28-12.43,2.77-23,22.79-23,27.68-.07,7.85,19.14-1.29,38-2.79s31.24-9.72,31.31-17.57S681.6,475.36,662.7,476.85Z" style="fill:#be8077"/><path d="M609.43,514.33l3.55,5-4.83-4.25a100.19,100.19,0,0,0-11,7.92,42.35,42.35,0,0,0,11,3.1h0c22,3.33,52.08-6.54,74.42-23.52C662.2,495.79,633.36,499.92,609.43,514.33Z" style="fill:#f1f5f7"/><path d="M597.61,475.35l-2.76.27a36.92,36.92,0,0,0,11.88,4.73l1.79-5.32-.5,5.56a62.83,62.83,0,0,0,22.43-.26l-.69-4,1.64,3.81a101.49,101.49,0,0,0,45.16-21.78l-2.78-3.5C652.56,466,626.59,472.31,597.61,475.35Z" style="fill:#f1f5f7"/><path d="M674.11,454.72l3.51,2.76a81.9,81.9,0,0,0,11.22-11.86A120.39,120.39,0,0,1,674.11,454.72Z" style="fill:#f1f5f7"/><path d="M605.74,423A16.33,16.33,0,1,0,626,434.09,16.34,16.34,0,0,0,605.74,423Z" style="fill-rule:evenodd"/><path d="M615.66,450a14.31,14.31,0,0,1-15.35-22.47,15,15,0,1,0,24.8,13.58A14.29,14.29,0,0,1,615.66,450Z" style="fill:#fff;fill-rule:evenodd;opacity:0.30000000000000004"/><path d="M616.5,439.18a1.41,1.41,0,1,0,1.52,1.28A1.4,1.4,0,0,0,616.5,439.18Z" style="fill:#fff;fill-rule:evenodd"/><path d="M613.23,442.83a2.31,2.31,0,1,0,2.51,2.11A2.32,2.32,0,0,0,613.23,442.83Z" style="fill:#fff;fill-rule:evenodd"/><path d="M659.11,407.4a16.33,16.33,0,1,0,20.25,11.09A16.33,16.33,0,0,0,659.11,407.4Z" style="fill-rule:evenodd"/><path d="M669.64,423.65a1.39,1.39,0,0,0-1.28,1.52,1.41,1.41,0,1,0,1.28-1.52Z" style="fill:#fff;fill-rule:evenodd"/><path d="M666.37,427.3a2.31,2.31,0,1,0,2.51,2.1A2.31,2.31,0,0,0,666.37,427.3Z" style="fill:#fff;fill-rule:evenodd"/><path d="M668.8,434.47A14.32,14.32,0,0,1,653.45,412a15,15,0,1,0,24.8,13.58A14.33,14.33,0,0,1,668.8,434.47Z" style="fill:#fff;fill-rule:evenodd;opacity:0.30000000000000004"/><path d="M616,458a26.31,26.31,0,0,1-13.25.39,16.32,16.32,0,0,0,24.62-7.2A26.26,26.26,0,0,1,616,458Z" style="fill:#c5997c;fill-rule:evenodd"/><path d="M669.33,442.37a26.2,26.2,0,0,1-13.25.4,16.32,16.32,0,0,0,24.62-7.2A26.09,26.09,0,0,1,669.33,442.37Z" style="fill:#c5997c;fill-rule:evenodd"/><path d="M657.84,403.06a26.08,26.08,0,0,1,13.25-.39,16.31,16.31,0,0,0-24.63,7.19A26.13,26.13,0,0,1,657.84,403.06Z" style="fill:#c5997c;fill-rule:evenodd"/><path d="M604.47,418.66a26.08,26.08,0,0,1,13.25-.39,16.32,16.32,0,0,0-24.62,7.2A26.11,26.11,0,0,1,604.47,418.66Z" style="fill:#c5997c;fill-rule:evenodd"/></svg>