<svg xmlns="http://www.w3.org/2000/svg" xmlns:xlink="http://www.w3.org/1999/xlink" viewBox="0 0 1025.6 164.13"><defs><radialGradient id="a" cx="277.28" cy="37.96" r="22.13" gradientUnits="userSpaceOnUse"><stop offset="0.14" stop-color="#fff"/><stop offset="1" stop-color="#ffab91"/></radialGradient><radialGradient id="b" cx="396.98" cy="27.25" r="17.28" gradientUnits="userSpaceOnUse"><stop offset="0.14" stop-color="#fff" stop-opacity="0.49"/><stop offset="1" stop-color="#ffab91"/></radialGradient><linearGradient id="c" x1="252.34" y1="130.42" x2="252.34" y2="59.19" gradientUnits="userSpaceOnUse"><stop offset="0" stop-color="#ffab91"/><stop offset="0.96" stop-color="#ffab91"/></linearGradient><radialGradient id="d" cx="253.32" cy="88.85" r="45.09" gradientUnits="userSpaceOnUse"><stop offset="0" stop-color="#fff"/><stop offset="0.56" stop-color="#ffffed"/><stop offset="1" stop-color="#b8abb4"/></radialGradient><radialGradient id="e" cx="230.48" cy="87.48" r="10.47" gradientUnits="userSpaceOnUse"><stop offset="0.23" stop-color="#bdd659"/><stop offset="0.37" stop-color="#bbd353"/><stop offset="0.56" stop-color="#b5c943"/><stop offset="0.76" stop-color="#abb928"/><stop offset="0.99" stop-color="#9da202"/><stop offset="1" stop-color="#9ca100"/></radialGradient><linearGradient id="f" x1="378.91" y1="131.03" x2="378.91" y2="67.21" xlink:href="#c"/><radialGradient id="g" cx="31.96" cy="93.76" r="41.49" gradientTransform="matrix(-0.99, 0, 0, 1, 409.36, 0)" xlink:href="#d"/><radialGradient id="h" cx="397.14" cy="94" r="8.96" xlink:href="#e"/><linearGradient id="i" x1="316.76" y1="127.01" x2="315.56" y2="160.95" gradientUnits="userSpaceOnUse"><stop offset="0.14" stop-color="#ffb3c2"/><stop offset="1" stop-color="#f0618a"/></linearGradient><radialGradient id="j" cx="277.25" cy="79.29" r="9.1" gradientTransform="translate(1.84 171.46) rotate(-20.66)" xlink:href="#d"/><radialGradient id="k" cx="567.29" cy="187.02" r="9.1" gradientTransform="matrix(-0.94, -0.35, -0.35, 0.94, 942.14, 171.46)" xlink:href="#d"/><radialGradient id="l" cx="318.64" cy="72.51" r="56.04" gradientUnits="userSpaceOnUse"><stop offset="0.14" stop-color="#f1f2f2"/><stop offset="1" stop-color="#ffab91"/></radialGradient><radialGradient id="m" cx="317.32" cy="115.37" r="31.83" xlink:href="#l"/><radialGradient id="n" cx="316.47" cy="100.52" r="28.62" xlink:href="#l"/></defs><path d="M943,158V46.8a20.73,20.73,0,0,1,20.61-20.61h36.6a56.56,56.56,0,0,1,14.25,2.2,50.7,50.7,0,0,1,23.67,13.36c9.65,9.65,14.69,22.36,14.69,37.93,0,19.94-5.92,35.5-17.54,46.46-13.15,12.06-28.93,13.38-35.07,13.38h-1.53l-14.47-.22v18.44Zm74.75-78.31a23.52,23.52,0,0,0-2.41-11.18,14.84,14.84,0,0,0-5.48-4.83,25.46,25.46,0,0,0-9.65-2.41H977.84v43.18l21.48.22h.87c1.1,0,7-.22,11.4-4.16C1015.76,96.55,1017.73,89.54,1017.73,79.68ZM135.5,159a48.43,48.43,0,0,1-22.36,17.54,65.81,65.81,0,0,1-26.52,5.26,74,74,0,0,1-15.56-1.75c-16-3.07-29.81-11.18-39-22.36a21.45,21.45,0,0,1,2.85-30,21.86,21.86,0,0,1,13.59-4.82,21.23,21.23,0,0,1,16.44,7.89c3.07,3.72,8.11,6.57,14.46,7.89a40.37,40.37,0,0,0,7.24.66,28.83,28.83,0,0,0,10.3-1.76,10.27,10.27,0,0,0,3.51-2.41,5.41,5.41,0,0,0,.22-2c-.22-.88-.22-1.32-2.42-2.85-3.94-2.85-10.3-5-17.09-7.67-9.43-3.51-19.07-7-27.62-13.37A44.29,44.29,0,0,1,34.67,72.44a45.42,45.42,0,0,1,9.64-28.71,50,50,0,0,1,22.36-16A69.42,69.42,0,0,1,89,24a73.48,73.48,0,0,1,13.81,1.32c13.37,2.85,25,9.42,32.88,18.63a21.25,21.25,0,0,1-2.41,30,20.44,20.44,0,0,1-13.59,5,21.43,21.43,0,0,1-16.22-7.45c-1.76-2.2-5.27-3.95-9.21-4.61A21.54,21.54,0,0,0,89,66.3a20.76,20.76,0,0,0-7.67,1.32c-2.41.88-3.29,1.75-3.51,2.19A3.35,3.35,0,0,0,77,72.44a4.8,4.8,0,0,0,.22,1.32,4.91,4.91,0,0,0,1.54,1.53c3.72,2.63,10.3,5,17.09,7.67,9,3.29,18.2,6.58,26.53,12.28a51.77,51.77,0,0,1,13.37,13.37,42.86,42.86,0,0,1,7,20A44.4,44.4,0,0,1,135.5,159Zm94-20.82a20.72,20.72,0,0,1,0,41.43h-59a21,21,0,0,1-20.83-20.83V44.6a20.72,20.72,0,0,1,41.43,0v93.6ZM619.68,159a48.45,48.45,0,0,1-22.35,17.54,65.82,65.82,0,0,1-26.53,5.26,74,74,0,0,1-15.56-1.75c-16-3.07-29.81-11.18-39-22.36a21.44,21.44,0,0,1,2.84-30,21.89,21.89,0,0,1,13.59-4.82,21.2,21.2,0,0,1,16.44,7.89c3.07,3.72,8.11,6.57,14.47,7.89a40.18,40.18,0,0,0,7.23.66,28.85,28.85,0,0,0,10.31-1.76,10.21,10.21,0,0,0,3.5-2.41,5.41,5.41,0,0,0,.22-2c-.22-.88-.22-1.32-2.41-2.85-3.94-2.85-10.3-5-17.1-7.67-9.42-3.51-19.06-7-27.61-13.37a44.29,44.29,0,0,1-18.85-36.83,45.37,45.37,0,0,1,9.64-28.71,50,50,0,0,1,22.36-16A69.33,69.33,0,0,1,573.22,24,73.29,73.29,0,0,1,587,25.32C600.4,28.17,612,34.74,619.9,44a21.24,21.24,0,0,1-2.41,30,20.43,20.43,0,0,1-13.59,5,21.46,21.46,0,0,1-16.22-7.45c-1.75-2.2-5.26-3.95-9.2-4.61a21.6,21.6,0,0,0-5.26-.66,20.85,20.85,0,0,0-7.68,1.32c-2.41.88-3.28,1.75-3.5,2.19a3.35,3.35,0,0,0-.88,2.63,4.8,4.8,0,0,0,.22,1.32,5,5,0,0,0,1.53,1.53c3.73,2.63,10.31,5,17.1,7.67,9,3.29,18.19,6.58,26.52,12.28a51.46,51.46,0,0,1,13.37,13.37,42.76,42.76,0,0,1,7,20A44.45,44.45,0,0,1,619.68,159ZM823.09,53.37,785.83,165.6a20.51,20.51,0,0,1-18.85,14h-.66a20.34,20.34,0,0,1-19.07-12.72L728,119.79l-19.29,47.12a20.78,20.78,0,0,1-19.07,12.72h-.87a20.51,20.51,0,0,1-18.85-14l-37-112.23a20.5,20.5,0,0,1,12.94-26.08,22.84,22.84,0,0,1,6.57-1.1,20.73,20.73,0,0,1,19.73,14.25l19.51,59,17.09-42.08a20.82,20.82,0,0,1,38.36,0L764.35,99.4l19.51-59a20.66,20.66,0,0,1,19.5-14.25,22.85,22.85,0,0,1,6.58,1.1A21.5,21.5,0,0,1,822,37.59,20.8,20.8,0,0,1,823.09,53.37Zm111.79,97.76a20.64,20.64,0,0,1-11.18,27,19.41,19.41,0,0,1-7.89,1.54,20.56,20.56,0,0,1-19.07-12.72l-8.16-19.58a2.38,2.38,0,0,0-2.19-1.46H852.1a2.38,2.38,0,0,0-2.21,1.49l-7.73,19.34a20.8,20.8,0,0,1-19.07,12.71,18.72,18.72,0,0,1-7.89-1.54,20.56,20.56,0,0,1-11.4-27L850.05,40c0-.44.22-.66.22-1.09a21.43,21.43,0,0,1,11-11.12l.3-.11a25,25,0,0,1,7.74-1.49,20.87,20.87,0,0,1,19.29,12.72Zm-69-46.47H873a2.32,2.32,0,0,0,2.15-3.19l-3.6-8.82a2.32,2.32,0,0,0-4.3,0l-3.49,8.82A2.32,2.32,0,0,0,865.89,104.66ZM400.72,158V46.8a20.73,20.73,0,0,1,20.61-20.61h36.6a56.56,56.56,0,0,1,14.25,2.2,50.7,50.7,0,0,1,23.67,13.36c9.65,9.65,14.69,22.36,14.69,37.93,0,19.94-5.92,35.5-17.54,46.46-13.15,12.06-28.93,13.38-35.07,13.38H456.4l-14.47-.22v18.44Zm74.75-78.31a23.52,23.52,0,0,0-2.41-11.18,14.84,14.84,0,0,0-5.48-4.83,25.46,25.46,0,0,0-9.65-2.41H435.58v43.18l21.48.22h.87c1.1,0,7-.22,11.4-4.16C473.5,96.55,475.47,89.54,475.47,79.68Z" transform="translate(-27.2 -17.93)" style="fill:#ffab91"/><path d="M984.19,161.46a20.61,20.61,0,1,1-41.21,0Zm-583.47,0a20.61,20.61,0,1,0,41.21,0Z" transform="translate(-27.2 -17.93)" style="fill:#f3633d"/><path d="M271.4,56.6s-42-6.68-33-28.25,16.63-4.17,20.68,3.54,13.48,21.83,13.48,21.83S275,56.88,271.4,56.6Z" transform="translate(-27.2 -17.93)" style="fill:url(#a)"/><path d="M248.78,19.59s-4.72-.79-5.75,3.88-.95,5.45.76,3.52,3.49-4.13,6.69-1.1,11,13.26,8.35,8.81S254.76,21.69,248.78,19.59Z" transform="translate(-27.2 -17.93)" style="fill:#ffdccc;opacity:0.46"/><path d="M246.28,20.5S244.77,22,248,23s4,3.27,4.53,1.26S250.05,19,246.28,20.5Z" transform="translate(-27.2 -17.93)" style="fill:#ffdcf2"/><path d="M269.54,53.54s-8.43-6.68-11.82-15.64-8.1-12-10.88-8.35-.68,14.56,10,20S269.54,53.54,269.54,53.54Z" transform="translate(-27.2 -17.93)" style="fill:#0c0411;opacity:0.18"/><path d="M257.72,37.9c-3.39-9-8.1-12-10.88-8.35a5.76,5.76,0,0,0-1,2.74c1.3-1.31,3.24-2.48,5.25-.86,3.49,2.84,3.6,9.3,5.16,12.74s3.67,6.74.61,5.42c10.67,5.48,12.71,3.95,12.71,3.95S261.11,46.86,257.72,37.9Z" transform="translate(-27.2 -17.93)" style="fill:#ff8969"/><path d="M354.72,57.61s42-6.68,33-28.25S371.1,25.19,367,32.89s-13.48,21.84-13.48,21.84S351.12,57.89,354.72,57.61Z" transform="translate(-27.2 -17.93)" style="fill:url(#b)"/><path d="M377.34,20.59s4.72-.78,5.76,3.88.95,5.46-.77,3.52-3.49-4.12-6.69-1.09-11,13.25-8.35,8.81S371.36,22.69,377.34,20.59Z" transform="translate(-27.2 -17.93)" style="fill:#ffdccc;opacity:0.46"/><path d="M378.86,21s-3,.5-4,2.77-.51,1,2.51.25S382.38,21,378.86,21Z" transform="translate(-27.2 -17.93)" style="fill:#ffdcf2"/><path d="M356.59,54.54S365,47.87,368.4,38.91s8.1-12,10.89-8.36.68,14.57-10,20S356.59,54.54,356.59,54.54Z" transform="translate(-27.2 -17.93)" style="fill:#0c0411;opacity:0.18"/><path d="M368.4,38.91c3.39-9,8.1-12,10.89-8.36a5.84,5.84,0,0,1,1,2.74c-1.29-1.3-3.24-2.48-5.24-.85-3.5,2.83-3.61,9.3-5.17,12.74s-3.67,6.74-.61,5.41c-10.67,5.48-12.7,3.95-12.7,3.95S365,47.87,368.4,38.91Z" transform="translate(-27.2 -17.93)" style="fill:#ff8969"/><path d="M371.25,62.47c-14.85-20.92-44.15-24.6-54-25.25a53.51,53.51,0,0,0-8.27,0c-9.85.65-39.16,4.33-54,25.25C237,87.86,217,123.35,233.12,150.1c8.88,14.74,24.38,23,43,27.34,11.43,2.66,24,3.82,37,4.08,13-.26,25.57-1.42,37-4.08,18.61-4.33,34.11-12.6,43-27.34C409.2,123.35,389.27,87.86,371.25,62.47Z" transform="translate(-27.2 -17.93)" style="fill:#f3633d"/><path d="M371.32,59.62c-14.85-20.93-44.15-24.61-54-25.26a57.07,57.07,0,0,0-8.27,0c-9.85.65-39.16,4.33-54,25.26C237,85,217.09,120.5,233.2,147.25c8.87,14.74,24.37,23,43,27.34,11.43,2.65,24,3.82,37,4.08,13-.26,25.57-1.43,37-4.08,18.61-4.33,34.11-12.6,43-27.34C409.27,120.5,389.34,85,371.32,59.62Z" transform="translate(-27.2 -17.93)" style="fill:#ffab91"/><path d="M393.09,137.84c-8.87,14.73-24.37,23-43,27.33-11.43,2.66-24,3.83-37,4.08-13-.25-25.57-1.42-37-4.08-18.61-4.32-34.11-12.6-43-27.33a41.31,41.31,0,0,1-5.71-17.69c-.81,9.43.71,18.58,5.71,26.89,8.88,14.73,24.38,23,43,27.33,11.43,2.66,24,3.83,37,4.08,13-.25,25.57-1.42,37-4.08,18.61-4.32,34.11-12.6,43-27.33,5-8.31,6.52-17.45,5.71-26.87A41.23,41.23,0,0,1,393.09,137.84Z" transform="translate(-27.2 -17.93)" style="fill:#ff8969"/><path d="M248.66,59.55c-13.33,1.51-34.95,8.68-35.57,40.17-.66,33.35,49.35,35.58,65.41,25.25s16.07-36.73,6.89-49.35S265.08,57.69,248.66,59.55Z" transform="translate(-27.2 -17.93)" style="fill:url(#c)"/><path d="M249,62.29c-12.29,1.4-32.24,8-32.81,37.05-.61,30.76,45.51,32.81,60.33,23.28s14.81-33.87,6.35-45.51S264.09,60.58,249,62.29Z" transform="translate(-27.2 -17.93)" style="fill:#ff8969"/><path d="M249.06,63.4c-11.87,1.35-31.14,7.73-31.69,35.78-.59,29.72,44,31.7,58.28,22.5S290,89,281.78,77.71,263.69,61.74,249.06,63.4Z" transform="translate(-27.2 -17.93)" style="fill:url(#d)"/><path d="M244.93,93.84A11.85,11.85,0,1,1,233.08,82,11.86,11.86,0,0,1,244.93,93.84Z" transform="translate(-27.2 -17.93)" style="fill:#727026"/><path d="M240.79,93.84a9.34,9.34,0,1,1-9.34-9.76A9.56,9.56,0,0,1,240.79,93.84Z" transform="translate(-27.2 -17.93)" style="fill:url(#e)"/><path d="M239.43,93.84a8.4,8.4,0,1,1-8.4-8.4A8.4,8.4,0,0,1,239.43,93.84Z" transform="translate(-27.2 -17.93)" style="fill:#260b22"/><path d="M278.93,86.78c0,11.74-9.87,21.26-22.05,21.26s-22-9.52-22-21.26,9.87-21.26,22-21.26S278.93,75,278.93,86.78Z" transform="translate(-27.2 -17.93)" style="fill:#fff;opacity:0.49"/><path d="M230.06,96.56c.21,1.59-1.67,3.14-4.19,3.47s-4.73-.7-4.93-2.28,1.67-3.14,4.19-3.47S229.86,95,230.06,96.56Z" transform="translate(-27.2 -17.93)" style="fill:#ffb8cb;opacity:0.54"/><path d="M279.22,74.48c.79,1.29,1.56,2.62,2.29,4,7.84,14.66,3.41,25.9-3.07,33.74s-34.41,11.24-50.09,2.38c-7.62-4.3-10.08-13-10.61-20.88-.2,1.73-.33,3.55-.37,5.47-.59,29.72,44,31.7,58.28,22.5S290,89,281.78,77.71C281,76.57,280.09,75.49,279.22,74.48Z" transform="translate(-27.2 -17.93)" style="fill:#0c0411;opacity:0.18"/><path d="M283.21,113.57h0s-6.47,6.48-13.29,9.2-16,.68-22.15,1c-3.21.18-2.3,1.3-.71,2.32,11.13,1.34,22.55-.55,28.59-4.43A23.18,23.18,0,0,0,283.21,113.57Z" transform="translate(-27.2 -17.93)" style="fill:#ffdcf2;opacity:0.72"/><path d="M381,67.53c10.48,1.18,27,6.23,31.85,25.85.2.82.38,1.66.54,2.53,3.06,13.66-4.71,28.31-18.07,32.4-1.09.39-2.2.74-3.31,1.05a44.65,44.65,0,0,1-27.54-1.07c-1.25-.38-2.43-.76-3.55-1.18a26.07,26.07,0,0,1-5.72-2.88c-13.67-9.5-13.95-32-6.33-42.75C356.58,70.54,366.26,65.88,381,67.53Z" transform="translate(-27.2 -17.93)" style="fill:url(#f)"/><path d="M380.74,69.55c9.52,1.09,24.34,5.6,29.34,22.7.25.85.47,1.74.67,2.65,3.38,12.87-3.72,26.89-16.05,31.46a33.94,33.94,0,0,1-3.43,1.2,42.28,42.28,0,0,1-28.56-1.91,33.22,33.22,0,0,1-3.37-1.39,20.27,20.27,0,0,1-2.79-1.6c-12.85-8.9-13.1-30-5.93-40.11C357.91,72.32,367,68,380.74,69.55Z" transform="translate(-27.2 -17.93)" style="fill:#ff8969"/><path d="M380.68,70.43c9.24,1.06,23.61,5.44,28.46,22q.38,1.24.66,2.58c3.28,12.49-3.61,26.09-15.58,30.52a31.85,31.85,0,0,1-3.32,1.17,41.09,41.09,0,0,1-27.71-1.85,33.57,33.57,0,0,1-3.27-1.36,19.69,19.69,0,0,1-2.71-1.55c-12.46-8.63-12.71-29.15-5.76-38.91C358.53,73.12,367.34,68.9,380.68,70.43Z" transform="translate(-27.2 -17.93)" style="fill:url(#g)"/><path d="M384.66,98.23a10.59,10.59,0,0,0,.41,2.87,11.22,11.22,0,0,0,1.11,2.62,18.39,18.39,0,0,0,1.88,2.17,14.29,14.29,0,0,0,2.23,1.8,9.5,9.5,0,0,0,10.1.56c4.35-2.2,8-7.35,6.26-12.32a11.37,11.37,0,0,0-1.15-2.65,11.71,11.71,0,0,0-9.79-5.64A10.63,10.63,0,0,0,384.66,98.23Z" transform="translate(-27.2 -17.93)" style="fill:#727026"/><path d="M388.5,98.33a9.36,9.36,0,0,0,.33,2.38,9,9,0,0,0,.88,2.15,3.63,3.63,0,0,0,1.47,1.84,7.73,7.73,0,0,0,10.3,1.71c3.26-2.2,5.8-5.88,4.39-10a8.8,8.8,0,0,0-.9-2.17,9.17,9.17,0,0,0-7.72-4.65A8.59,8.59,0,0,0,388.5,98.33Z" transform="translate(-27.2 -17.93)" style="fill:url(#h)"/><path d="M389.78,98.37a7.56,7.56,0,0,0,.62,3,8.22,8.22,0,0,0,1.7,2.49c3.22,3.66,9,2.92,11.92-.76a8.53,8.53,0,0,0,1-7.32,8,8,0,0,0-1.73-2.51,8.31,8.31,0,0,0-5.67-2.4A7.54,7.54,0,0,0,389.78,98.37Z" transform="translate(-27.2 -17.93)" style="fill:#260b22"/><path d="M354,91.12A19.63,19.63,0,0,0,362.78,107a22.18,22.18,0,0,0,3.34,1.87c7.09,3.42,16.15,3.05,22-3.3a20.18,20.18,0,0,0,2.5-2.82A18.08,18.08,0,0,0,394.06,92c0-10.81-9.33-19.64-20.53-19.68C362.56,72.29,353.92,80.71,354,91.12Z" transform="translate(-27.2 -17.93)" style="fill:#fff;opacity:0.49"/><path d="M398.9,101.82c0,1.45,1.92,2.69,4.28,2.76s4.3-1,4.3-2.51-1.94-2.71-4.32-2.77S398.89,100.36,398.9,101.82Z" transform="translate(-27.2 -17.93)" style="fill:#ffb8cb;opacity:0.54"/><path d="M353.66,80.22c-.68,1.13-1.34,2.3-2,3.51-6.63,12.74-2.71,22.71,3,29.8a13.76,13.76,0,0,0,4.36,3.31,32.64,32.64,0,0,0,3.12,1.41,38.12,38.12,0,0,0,23.08,4.12c1.29-.16,2.59-.38,3.87-.66a26.46,26.46,0,0,0,21.43-23c1.09,11.4-5.44,23.16-16.32,26.86a31.85,31.85,0,0,1-3.32,1.17,41.09,41.09,0,0,1-27.71-1.85,33.57,33.57,0,0,1-3.27-1.36,19.69,19.69,0,0,1-2.71-1.55c-12.46-8.63-12.71-29.15-5.76-38.91C352.17,82.05,352.9,81.1,353.66,80.22Z" transform="translate(-27.2 -17.93)" style="fill:#0c0411;opacity:0.18"/><path d="M350.56,114.54h0a49.68,49.68,0,0,0,8.74,7.07,25.42,25.42,0,0,0,2.95,1.58c7,3.44,14.58,2,21.83,3.81-6.89,3.68-15.22-.73-22-2.56a26.27,26.27,0,0,1-2.61-1.17,19.4,19.4,0,0,1-2.22-1.31A21.94,21.94,0,0,1,350.56,114.54Z" transform="translate(-27.2 -17.93)" style="fill:#ffdcf2;opacity:0.72"/><path d="M332.59,41c0,2.9-6.11,5.24-13.65,5.24S305.28,43.87,305.28,41s6.12-5.23,13.66-5.23S332.59,38.08,332.59,41Z" transform="translate(-27.2 -17.93)" style="fill:#ffdcf2"/><path d="M342.69,43.78c0,1.34-1.76,2.43-3.93,2.43s-3.92-1.09-3.92-2.43,1.75-2.43,3.92-2.43S342.69,42.44,342.69,43.78Z" transform="translate(-27.2 -17.93)" style="fill:#ffdcf2"/><path d="M287.16,137.3s-.75,12.44,12.61,19.81c17.41,9.61,34.21.9,40.22-6s6-17.41,6-17.41Z" transform="translate(-27.2 -17.93)" style="fill:#0c0411;opacity:0.18"/><path d="M287.16,133.89s-.88,12.71,12.61,19.81c17.19,9.06,34.21.9,40.22-6s6-17.41,6-17.41Z" transform="translate(-27.2 -17.93)" style="fill:url(#i)"/><path d="M354.13,124.13c0,15-17.24,27.09-38.5,27.09s-38.51-12.13-38.51-27.09,17.24-33.91,38.51-33.91S354.13,109.17,354.13,124.13Z" transform="translate(-27.2 -17.93)" style="fill:#0c0411;opacity:0.18"/><path d="M289.26,135.47c.34.68-1.26,2.18-3.58,3.37s-4.48,1.59-4.83.91,1.26-2.18,3.58-3.37S288.92,134.79,289.26,135.47Z" transform="translate(-27.2 -17.93)" style="fill:#7f2b4c"/><path d="M347.35,127.51c-.35.68,1.26,2.19,3.58,3.37s4.48,1.59,4.82.91-1.25-2.18-3.58-3.36S347.69,126.84,347.35,127.51Z" transform="translate(-27.2 -17.93)" style="fill:#7f2b4c"/><path d="M285.48,135.26s5.51,10.39,22,11.92,27.51-.61,35.15-7,9.16-11.62,9.16-11.62S280,129.15,285.48,135.26Z" transform="translate(-27.2 -17.93)" style="fill:#7f2b4c"/><path d="M287,137.4s-1.54,8,4.33,8.95,9-6.76,8.77-7.4S288,134.37,287,137.4Z" transform="translate(-27.2 -17.93)" style="fill:url(#j)"/><path d="M347.57,135.88s1.54,8-4.34,9-9-6.76-8.76-7.39S346.44,131.1,347.57,135.88Z" transform="translate(-27.2 -17.93)" style="fill:url(#k)"/><path d="M354.13,118.68c0,15-17.24,27.09-38.5,27.09s-38.51-12.13-38.51-27.09,17.24-33.91,38.51-33.91S354.13,103.72,354.13,118.68Z" transform="translate(-27.2 -17.93)" style="fill:url(#l)"/><path d="M321.93,112.63c8.8-6.36,6.36-16.15,26.91-7.34.57.24,1.13.47,1.68.67-5.64-10.3-17.36-19.57-31.22-21,2.79,4.37,5,10.29,3.12,16.9-3.92,13.7-10.77,9.79-17.62,17.13-4.57,4.9-12.63,13.72-20.69,15.26,7,7,18.49,11.52,31.52,11.52a52.9,52.9,0,0,0,14.9-2.1c-12.34-1.54-33.81-5.85-26.71-16.85C313.61,111.65,313.12,119,321.93,112.63Z" transform="translate(-27.2 -17.93)" style="opacity:0.1;fill:url(#m)"/><path d="M315.63,84.77c-16.89,0-31.24,12-36.43,24.36-.1,1.82.18,3.58,1.67,3.58,3.06,0,8.18-19.76,34.07-19.42S349,114.42,349.7,115.78c.35.7,2.86.86,4.06-1C351.16,100.63,335.08,84.77,315.63,84.77Z" transform="translate(-27.2 -17.93)" style="opacity:0.1;fill:url(#n)"/><path d="M306,86.08h0c-1.77,1.35-2.68,2.78,1.47,2.78,7.83,0,19.76,0,24.19,3.07,2.89,2,3.31.24,1.68-1.75a19.32,19.32,0,0,0-3.93-2.73,37.42,37.42,0,0,0-13.76-2.68A36.72,36.72,0,0,0,306,86.08Z" transform="translate(-27.2 -17.93)" style="fill:#ffdcf2"/><path d="M339.14,93.63s-4.77-.68-1,2.39S344.59,98.74,339.14,93.63Z" transform="translate(-27.2 -17.93)" style="fill:#ffdcf2"/><path d="M302.34,108.28S288,116.8,290.07,122.6s7.15,1,7.84-1.37S296.88,113.4,302.34,108.28Z" transform="translate(-27.2 -17.93)" style="fill:#6b3249"/><path d="M298.11,119.22c.07-2.79,0-7,4.23-10.94,0,0-8.79,5.23-11.61,10.28a3.63,3.63,0,0,0,3.09,2.33A4.43,4.43,0,0,0,298.11,119.22Z" transform="translate(-27.2 -17.93)" style="fill:#260b22"/><path d="M287.84,123.77s-.33,3.26,4.52,3.43,6.35-3.18,6.35-3.18-1.84,4.69-5.43,4.69S288.43,127.2,287.84,123.77Z" transform="translate(-27.2 -17.93)" style="fill:#ff8969"/><path d="M325.32,108.28s14.31,8.52,12.27,14.32-7.16,1-7.84-1.37S330.77,113.4,325.32,108.28Z" transform="translate(-27.2 -17.93)" style="fill:#6b3249"/><path d="M329.55,119.22c-.08-2.79,0-7-4.23-10.94,0,0,8.79,5.23,11.61,10.28a3.64,3.64,0,0,1-3.09,2.33A4.42,4.42,0,0,1,329.55,119.22Z" transform="translate(-27.2 -17.93)" style="fill:#260b22"/><path d="M339.82,123.77s.33,3.26-4.52,3.43S329,124,329,124s1.84,4.69,5.43,4.69S339.23,127.2,339.82,123.77Z" transform="translate(-27.2 -17.93)" style="fill:#ff8969"/><path d="M354,121c-3.27,11-13.73,18.33-38.21,19.86-35,2.19-37.71-22.17-37.85-28a22.71,22.71,0,0,0-.81,5.85c0,15,17.24,27.09,38.51,27.09C335.78,145.77,352.31,134.88,354,121Z" transform="translate(-27.2 -17.93)" style="fill:#ff8969"/></svg>