<svg xmlns="http://www.w3.org/2000/svg" viewBox="0 0 44.27 41.13"><polygon points="41.6 0.5 24.73 13.05 27.87 5.64 41.6 0.5" style="fill:#e17726;stroke:#e17726;stroke-linecap:round;stroke-linejoin:round"/><polygon points="2.61 0.5 19.38 13.16 16.4 5.64 2.61 0.5" style="fill:#e27625;stroke:#e27625;stroke-linecap:round;stroke-linejoin:round"/><polygon points="35.54 29.57 31.01 36.46 40.68 39.14 43.41 29.72 35.54 29.57" style="fill:#e27625;stroke:#e27625;stroke-linecap:round;stroke-linejoin:round"/><polygon points="0.86 29.72 3.59 39.14 13.21 36.46 8.73 29.57 0.86 29.72" style="fill:#e27625;stroke:#e27625;stroke-linecap:round;stroke-linejoin:round"/><polygon points="12.69 17.94 10.02 22 19.54 22.42 19.23 12.13 12.69 17.94" style="fill:#e27625;stroke:#e27625;stroke-linecap:round;stroke-linejoin:round"/><polygon points="31.57 17.94 24.93 12.02 24.73 22.42 34.25 22 31.57 17.94" style="fill:#e27625;stroke:#e27625;stroke-linecap:round;stroke-linejoin:round"/><polygon points="13.21 36.46 18.97 33.68 13.98 29.77 13.21 36.46" style="fill:#e27625;stroke:#e27625;stroke-linecap:round;stroke-linejoin:round"/><polygon points="25.3 33.68 31.01 36.46 30.23 29.77 25.3 33.68" style="fill:#e27625;stroke:#e27625;stroke-linecap:round;stroke-linejoin:round"/><polygon points="31.01 36.46 25.3 33.68 25.76 37.39 25.71 38.98 31.01 36.46" style="fill:#d5bfb2;stroke:#d5bfb2;stroke-linecap:round;stroke-linejoin:round"/><polygon points="13.21 36.46 18.56 38.98 18.5 37.39 18.97 33.68 13.21 36.46" style="fill:#d5bfb2;stroke:#d5bfb2;stroke-linecap:round;stroke-linejoin:round"/><polygon points="18.66 27.3 13.87 25.91 17.22 24.37 18.66 27.3" style="fill:#233447;stroke:#233447;stroke-linecap:round;stroke-linejoin:round"/><polygon points="25.61 27.3 27 24.37 30.39 25.91 25.61 27.3" style="fill:#233447;stroke:#233447;stroke-linecap:round;stroke-linejoin:round"/><polygon points="13.21 36.46 14.03 29.57 8.73 29.72 13.21 36.46" style="fill:#cc6228;stroke:#cc6228;stroke-linecap:round;stroke-linejoin:round"/><polygon points="30.23 29.57 31.01 36.46 35.54 29.72 30.23 29.57" style="fill:#cc6228;stroke:#cc6228;stroke-linecap:round;stroke-linejoin:round"/><polygon points="34.25 22 24.73 22.42 25.61 27.3 27 24.37 30.39 25.91 34.25 22" style="fill:#cc6228;stroke:#cc6228;stroke-linecap:round;stroke-linejoin:round"/><polygon points="13.87 25.91 17.22 24.37 18.66 27.3 19.54 22.42 10.02 22 13.87 25.91" style="fill:#cc6228;stroke:#cc6228;stroke-linecap:round;stroke-linejoin:round"/><polygon points="10.02 22 13.98 29.77 13.87 25.91 10.02 22" style="fill:#e27525;stroke:#e27525;stroke-linecap:round;stroke-linejoin:round"/><polygon points="30.39 25.91 30.23 29.77 34.25 22 30.39 25.91" style="fill:#e27525;stroke:#e27525;stroke-linecap:round;stroke-linejoin:round"/><polygon points="19.54 22.42 18.66 27.3 19.74 33.12 20 25.45 19.54 22.42" style="fill:#e27525;stroke:#e27525;stroke-linecap:round;stroke-linejoin:round"/><polygon points="24.73 22.42 24.27 25.45 24.48 33.12 25.61 27.3 24.73 22.42" style="fill:#e27525;stroke:#e27525;stroke-linecap:round;stroke-linejoin:round"/><polygon points="25.61 27.3 24.48 33.12 25.3 33.68 30.23 29.77 30.39 25.91 25.61 27.3" style="fill:#f5841f;stroke:#f5841f;stroke-linecap:round;stroke-linejoin:round"/><polygon points="13.87 25.91 13.98 29.77 18.97 33.68 19.74 33.12 18.66 27.3 13.87 25.91" style="fill:#f5841f;stroke:#f5841f;stroke-linecap:round;stroke-linejoin:round"/><polygon points="25.71 38.98 25.76 37.39 25.3 37.03 18.92 37.03 18.5 37.39 18.56 38.98 13.21 36.46 15.06 38.01 18.86 40.63 25.35 40.63 29.16 38.01 31.01 36.46 25.71 38.98" style="fill:#c0ac9d;stroke:#c0ac9d;stroke-linecap:round;stroke-linejoin:round"/><polygon points="25.3 33.68 24.48 33.12 19.74 33.12 18.97 33.68 18.5 37.39 18.92 37.03 25.3 37.03 25.76 37.39 25.3 33.68" style="fill:#161616;stroke:#161616;stroke-linecap:round;stroke-linejoin:round"/><polygon points="42.33 13.87 43.77 6.93 41.6 0.5 25.3 12.64 31.57 17.94 40.42 20.51 42.37 18.25 41.55 17.63 42.89 16.4 41.86 15.57 43.2 14.54 42.33 13.87" style="fill:#763e1a;stroke:#763e1a;stroke-linecap:round;stroke-linejoin:round"/><polygon points="0.5 6.93 1.94 13.87 1.01 14.54 2.35 15.57 1.32 16.4 2.71 17.63 1.84 18.25 3.79 20.51 12.69 17.94 18.97 12.64 2.61 0.5 0.5 6.93" style="fill:#763e1a;stroke:#763e1a;stroke-linecap:round;stroke-linejoin:round"/><polygon points="40.42 20.51 31.57 17.94 34.25 22 30.23 29.77 35.54 29.72 43.41 29.72 40.42 20.51" style="fill:#f5841f;stroke:#f5841f;stroke-linecap:round;stroke-linejoin:round"/><polygon points="12.69 17.94 3.79 20.51 0.86 29.72 8.73 29.72 13.98 29.77 10.02 22 12.69 17.94" style="fill:#f5841f;stroke:#f5841f;stroke-linecap:round;stroke-linejoin:round"/><polygon points="24.73 22.42 25.3 12.64 27.87 5.64 16.4 5.64 18.97 12.64 19.54 22.42 19.74 25.5 19.74 33.12 24.48 33.12 24.48 25.5 24.73 22.42" style="fill:#f5841f;stroke:#f5841f;stroke-linecap:round;stroke-linejoin:round"/></svg>