<svg xmlns="http://www.w3.org/2000/svg" viewBox="0 0 376.35 69.89"><path d="M332.5,35.13a65.87,65.87,0,0,0-6.18-3.36,21.87,21.87,0,0,1-3.9-2.38,3.92,3.92,0,0,1-.23-5.55,3.85,3.85,0,0,1,.76-.64c2.92-1.94,7.77-.88,8.3,3.09a.19.19,0,0,0,.18.18h4.42a.19.19,0,0,0,.17-.18,9,9,0,0,0-3.26-6.53,10.19,10.19,0,0,0-6.28-2.12c-11.65,0-12.71,12.36-6.44,16.25.7.44,6.89,3.53,9.09,5a4.5,4.5,0,0,1,1.95,5.74,5.59,5.59,0,0,1-5.3,2.82,5.44,5.44,0,0,1-5-3.53,8.35,8.35,0,0,1-.17-1.41.19.19,0,0,0-.18-.18h-4.77a.19.19,0,0,0-.18.18c0,3.44.89,5.38,3.18,7.15a11.5,11.5,0,0,0,7.16,2.39c6.53,0,9.89-3.71,10.6-7.51C336.92,40.78,335.86,37.42,332.5,35.13Z" style="fill:#fff"/><path d="M124.33,18.35h-4.42a.37.37,0,0,0-.18.08l-4,13a.18.18,0,0,1-.35,0l-4-13c0-.08-.09-.08-.18-.08H104a.18.18,0,0,0-.17.17V51.64a.18.18,0,0,0,.17.18h4.77a.18.18,0,0,0,.18-.18V26.47a.2.2,0,0,1,.2-.18.21.21,0,0,1,.15.09l4,13.07.26.89c0,.09.09.09.18.09h3.72a.26.26,0,0,0,.17-.09l.27-.89,4-13.07c.09-.17.36-.17.36.09V51.64a.18.18,0,0,0,.17.18h4.77a.19.19,0,0,0,.18-.18V18.52a.18.18,0,0,0-.18-.17Z" style="fill:#fff"/><path d="M259.11,18.35a.37.37,0,0,0-.18.08l-4,13a.18.18,0,0,1-.35,0l-4-13c0-.08-.09-.08-.18-.08h-7.28a.18.18,0,0,0-.18.17V51.64a.19.19,0,0,0,.18.18h4.77a.18.18,0,0,0,.17-.18V26.47a.2.2,0,0,1,.18-.2.19.19,0,0,1,.18.11l4,13.07.27.89c0,.09.09.09.17.09h3.71a.31.31,0,0,0,.18-.09l.27-.89,4-13.07c.09-.17.35-.17.35.09V51.64a.19.19,0,0,0,.18.18h4.77a.19.19,0,0,0,.18-.18V18.52a.18.18,0,0,0-.18-.17Z" style="fill:#fff"/><path d="M197.28,18.35h-22.7a.18.18,0,0,0-.18.17v4.15a.19.19,0,0,0,.18.18h8.74V51.64a.19.19,0,0,0,.18.18h4.77a.19.19,0,0,0,.18-.18V22.85h8.74a.18.18,0,0,0,.18-.18V18.52C197.42,18.43,197.42,18.35,197.28,18.35Z" style="fill:#fff"/><path d="M225.54,51.82h4.33c.09,0,.18-.09.18-.27l-9-33.2c0-.09-.09-.09-.18-.09H214.6a.31.31,0,0,0-.18.09l-9,33.2c0,.09.08.27.17.27h4.33a.31.31,0,0,0,.18-.09L212.75,42c0-.09.08-.09.17-.09h9.63a.31.31,0,0,1,.18.09l2.69,9.71A.27.27,0,0,0,225.54,51.82ZM214.06,37.16l3.53-13a.19.19,0,0,1,.24-.12.18.18,0,0,1,.12.12l3.53,13c0,.09-.09.26-.18.26h-7A.29.29,0,0,1,214.06,37.16Z" style="fill:#fff"/><path d="M299.91,51.82h4.33c.09,0,.17-.09.17-.27l-9-33.2c0-.09-.09-.09-.18-.09H289a.31.31,0,0,0-.18.09l-9,33.2c0,.09.09.27.18.27h4.33a.26.26,0,0,0,.17-.09L287.11,42c0-.09.09-.09.18-.09h9.63a.26.26,0,0,1,.17.09l2.65,9.71A.32.32,0,0,0,299.91,51.82ZM288.42,37.16l3.53-13a.18.18,0,0,1,.35,0l3.54,13c0,.09-.09.26-.18.26h-7A.29.29,0,0,1,288.42,37.16Z" style="fill:#fff"/><path d="M146.76,46.87V36.63a.19.19,0,0,1,.18-.18h12.8a.19.19,0,0,0,.18-.18V32.12a.19.19,0,0,0-.18-.17h-12.8a.19.19,0,0,1-.18-.18V23a.19.19,0,0,1,.18-.18h14.48a.18.18,0,0,0,.18-.18V18.52a.18.18,0,0,0-.18-.17H141.81a.18.18,0,0,0-.17.17V51.64a.19.19,0,0,0,.17.18H162a.19.19,0,0,0,.18-.18V47.32a.19.19,0,0,0-.18-.18H146.85C146.85,47.05,146.76,47,146.76,46.87Z" style="fill:#fff"/><path d="M376.31,51.47,359.7,34.33a.17.17,0,0,1,0-.24l0,0,14.93-15.55a.16.16,0,0,0,0-.23l-.07,0h-6.12c-.09,0-.09,0-.09.09L355.64,31.59a.17.17,0,0,1-.24,0l0,0V18.61a.19.19,0,0,0-.18-.18h-4.86a.19.19,0,0,0-.18.18V51.73a.19.19,0,0,0,.18.18h4.77a.19.19,0,0,0,.18-.18V37.16c0-.18.17-.27.26-.09L369.86,52,370,52H376C376.31,51.82,376.42,51.55,376.31,51.47Z" style="fill:#fff"/><polygon points="71.07 0.5 42.1 22.05 47.49 9.33 71.07 0.5" style="fill:#e17726;stroke:#e17726;stroke-linecap:round;stroke-linejoin:round"/><polygon points="4.12 0.5 32.91 22.23 27.79 9.33 4.12 0.5" style="fill:#e27625;stroke:#e27625;stroke-linecap:round;stroke-linejoin:round"/><polygon points="60.65 50.4 52.88 62.24 69.48 66.83 74.16 50.67 60.65 50.4" style="fill:#e27625;stroke:#e27625;stroke-linecap:round;stroke-linejoin:round"/><polygon points="1.12 50.67 5.8 66.83 22.32 62.24 14.63 50.4 1.12 50.67" style="fill:#e27625;stroke:#e27625;stroke-linecap:round;stroke-linejoin:round"/><polygon points="21.43 30.44 16.84 37.42 33.18 38.13 32.65 20.46 21.43 30.44" style="fill:#e27625;stroke:#e27625;stroke-linecap:round;stroke-linejoin:round"/><polygon points="53.85 30.44 42.45 20.28 42.1 38.13 58.44 37.42 53.85 30.44" style="fill:#e27625;stroke:#e27625;stroke-linecap:round;stroke-linejoin:round"/><polygon points="22.32 62.24 32.21 57.47 23.64 50.76 22.32 62.24" style="fill:#e27625;stroke:#e27625;stroke-linecap:round;stroke-linejoin:round"/><polygon points="43.07 57.47 52.88 62.24 51.55 50.76 43.07 57.47" style="fill:#e27625;stroke:#e27625;stroke-linecap:round;stroke-linejoin:round"/><polygon points="52.88 62.24 43.07 57.47 43.87 63.83 43.78 66.56 52.88 62.24" style="fill:#d5bfb2;stroke:#d5bfb2;stroke-linecap:round;stroke-linejoin:round"/><polygon points="22.32 62.24 31.5 66.56 31.41 63.83 32.21 57.47 22.32 62.24" style="fill:#d5bfb2;stroke:#d5bfb2;stroke-linecap:round;stroke-linejoin:round"/><polygon points="31.68 46.52 23.46 44.13 29.2 41.48 31.68 46.52" style="fill:#233447;stroke:#233447;stroke-linecap:round;stroke-linejoin:round"/><polygon points="43.6 46.52 45.99 41.48 51.81 44.13 43.6 46.52" style="fill:#233447;stroke:#233447;stroke-linecap:round;stroke-linejoin:round"/><polygon points="22.32 62.24 23.73 50.4 14.63 50.67 22.32 62.24" style="fill:#cc6228;stroke:#cc6228;stroke-linecap:round;stroke-linejoin:round"/><polygon points="51.55 50.4 52.88 62.24 60.65 50.67 51.55 50.4" style="fill:#cc6228;stroke:#cc6228;stroke-linecap:round;stroke-linejoin:round"/><polygon points="58.44 37.42 42.1 38.13 43.6 46.52 45.99 41.48 51.81 44.13 58.44 37.42" style="fill:#cc6228;stroke:#cc6228;stroke-linecap:round;stroke-linejoin:round"/><polygon points="23.46 44.13 29.2 41.48 31.68 46.52 33.18 38.13 16.84 37.42 23.46 44.13" style="fill:#cc6228;stroke:#cc6228;stroke-linecap:round;stroke-linejoin:round"/><polygon points="16.84 37.42 23.64 50.76 23.46 44.13 16.84 37.42" style="fill:#e27525;stroke:#e27525;stroke-linecap:round;stroke-linejoin:round"/><polygon points="51.81 44.13 51.55 50.76 58.44 37.42 51.81 44.13" style="fill:#e27525;stroke:#e27525;stroke-linecap:round;stroke-linejoin:round"/><polygon points="33.18 38.13 31.68 46.52 33.53 56.5 33.97 43.34 33.18 38.13" style="fill:#e27525;stroke:#e27525;stroke-linecap:round;stroke-linejoin:round"/><polygon points="42.1 38.13 41.3 43.34 41.66 56.5 43.6 46.52 42.1 38.13" style="fill:#e27525;stroke:#e27525;stroke-linecap:round;stroke-linejoin:round"/><polygon points="43.6 46.52 41.66 56.5 43.07 57.47 51.55 50.76 51.81 44.13 43.6 46.52" style="fill:#f5841f;stroke:#f5841f;stroke-linecap:round;stroke-linejoin:round"/><polygon points="23.46 44.13 23.64 50.76 32.21 57.47 33.53 56.5 31.68 46.52 23.46 44.13" style="fill:#f5841f;stroke:#f5841f;stroke-linecap:round;stroke-linejoin:round"/><polygon points="43.78 66.56 43.87 63.83 43.07 63.21 32.12 63.21 31.41 63.83 31.5 66.56 22.32 62.24 25.5 64.89 32.03 69.39 43.16 69.39 49.7 64.89 52.88 62.24 43.78 66.56" style="fill:#c0ac9d;stroke:#c0ac9d;stroke-linecap:round;stroke-linejoin:round"/><polygon points="43.07 57.47 41.66 56.5 33.53 56.5 32.21 57.47 31.41 63.83 32.12 63.21 43.07 63.21 43.87 63.83 43.07 57.47" style="fill:#161616;stroke:#161616;stroke-linecap:round;stroke-linejoin:round"/><polygon points="72.31 23.46 74.78 11.54 71.07 0.5 43.07 21.34 53.85 30.44 69.04 34.86 72.39 30.97 70.98 29.91 73.28 27.79 71.51 26.38 73.81 24.61 72.31 23.46" style="fill:#763e1a;stroke:#763e1a;stroke-linecap:round;stroke-linejoin:round"/><polygon points="0.5 11.54 2.97 23.46 1.38 24.61 3.68 26.38 1.91 27.79 4.3 29.91 2.8 30.97 6.15 34.86 21.43 30.44 32.21 21.34 4.12 0.5 0.5 11.54" style="fill:#763e1a;stroke:#763e1a;stroke-linecap:round;stroke-linejoin:round"/><polygon points="69.04 34.86 53.85 30.44 58.44 37.42 51.55 50.76 60.65 50.67 74.16 50.67 69.04 34.86" style="fill:#f5841f;stroke:#f5841f;stroke-linecap:round;stroke-linejoin:round"/><polygon points="21.43 30.44 6.15 34.86 1.12 50.67 14.63 50.67 23.64 50.76 16.84 37.42 21.43 30.44" style="fill:#f5841f;stroke:#f5841f;stroke-linecap:round;stroke-linejoin:round"/><polygon points="42.1 38.13 43.07 21.34 47.49 9.33 27.79 9.33 32.21 21.34 33.18 38.13 33.53 43.42 33.53 56.5 41.66 56.5 41.66 43.42 42.1 38.13" style="fill:#f5841f;stroke:#f5841f;stroke-linecap:round;stroke-linejoin:round"/></svg>