<svg xmlns="http://www.w3.org/2000/svg" viewBox="0 0 2040.84 273.49"><path d="M491.24,1190.75s-25.89-5-31.82,18.75-17.1,16.31-17.1,16.31l13.3,21.8L491.24,1196l3.19-4.92" transform="translate(-213.4 -1187.75)" fill="#212529"/><path d="M213.81,1288.42c1,1.88,14,8.53,19,8.91.43,1,7,5.3,12,7.61-5.43,35.11,7.55,67.42,26.14,85,29.11,27.58,42.89,33.73,42.89,33.73s-.74,31.4.78,32.18,4.66,5.35,13.8,5.35h34.15c7.67,0,8.06-4.65,9.21-6.5s-1.15-11.5,0-11.89,43.66-.76,48.65-.76c-.78,5.76.77,17.24,8.81,17.24s29.11,1.91,37.54,1.91A13.58,13.58,0,0,0,479,1454c.78-1.15-1.15-26,0-30.25l.67-.3c8.54-4.14,42.05-28,48.76-39.94,17.62-.39,49-8.43,54.33-54.41,0-1.55,0-3.1-.09-4.58-.17-8.58-.31-15.35-.56-20.67-.69-15.4-2.1-18.63-7-18.8-6.57-.2-29.5.77-31.81,0-4.66-14.94-25.66-48.65-47.5-59.39-1.25-31.83-.94-36.83-2.3-37.15h0c-1.1-1.88-30.28-1.37-35.61,18h-.17c-4.22-1.35-10.09-3.1-17.31-4.92-23.28-5.65-60.62-10.55-101.09,3.11a176.3,176.3,0,0,0-62.6,37.62c-.92.81-1.82,1.67-2.73,2.52-15.17,17.25-23.92,35.47-27.94,53.2a8.08,8.08,0,0,1-4.94-3.9c1.38-.6,4-4.66,5.46-10.87s-6-9.15-11.08-9-6.88,9.31-7.45,14.67c-1.09,1.13-7.87-6.37-11.19-8.08S212.82,1286.48,213.81,1288.42Zm21.74-6.35a3.79,3.79,0,0,1,2.42-1.27,1.6,1.6,0,0,1,1.55.19,1.75,1.75,0,0,1,.33.85,7.25,7.25,0,0,1,0,3.7,5.64,5.64,0,0,1-1.11,1.55,2.62,2.62,0,0,1-.85.7,1.17,1.17,0,0,1-1.09,0c-.31-.21-.57-.61-.93-.5-.17-.82-.32-1.55-.48-2.45a3.9,3.9,0,0,1,.17-2.83Z" transform="translate(-213.4 -1187.75)" fill="#212529"/><path d="M339.32,1212.36c40.47-13.71,77.75-8.8,101.09-3.11a11.45,11.45,0,0,1,1.41,5.55,11.58,11.58,0,0,1-.19,2.11c-1,5.45-5.34,8.85-9.71,7.76a181.22,181.22,0,0,0-82.93,0c-4.38,1-8.72-2.38-9.72-7.76A11.81,11.81,0,0,1,339.32,1212.36Zm160.4,67.42a9.77,9.77,0,1,0,9.76-9.77,9.76,9.76,0,0,0-9.76,9.77Z" transform="translate(-213.4 -1187.75)" fill="#17a2b8"/><path d="M450.14,1231.75c.22-4.13,2.56-7.76,4.87-11.24a25.75,25.75,0,0,0,3.51-6.35,15.08,15.08,0,0,0,.73-4.66h.17c5.33-19.42,31.48-19.89,35-18.39A37.44,37.44,0,0,0,475.5,1207c-.83,1.46-1.55,3-2.25,4.5q-4.65,10.2-8.67,20.7a10.19,10.19,0,0,1-3.36,5.23,8.42,8.42,0,0,1-6.13.67,7,7,0,0,1-3-1.17,6.05,6.05,0,0,1-1.93-5.21Z" transform="translate(-213.4 -1187.75)" fill="#17a2b8"/><path d="M761.27,1421.69a78.82,78.82,0,0,1-36.39,28.54c-12.84,5.71-27.83,8.56-43.17,8.56a120,120,0,0,1-25.32-2.85c-26-5-48.52-18.19-63.51-36.39a34.9,34.9,0,0,1,4.64-48.87,35.57,35.57,0,0,1,22.12-7.85,34.53,34.53,0,0,1,26.76,12.84c5,6.07,13.2,10.7,23.54,12.84a65.15,65.15,0,0,0,11.77,1.07,47.13,47.13,0,0,0,16.77-2.85c2.86-1.43,5-2.85,5.71-3.92a8.8,8.8,0,0,0,.36-3.21c-.36-1.43-.36-2.15-3.93-4.64-6.42-4.64-16.77-8.21-27.82-12.49-15.34-5.71-31-11.41-45-21.76a70.1,70.1,0,0,1-21.76-24.26c-6.06-10.7-8.92-22.48-8.92-35.68,0-17.83,5.36-33.53,15.7-46.73a81.64,81.64,0,0,1,36.39-26,112.71,112.71,0,0,1,36.39-6.07,120.4,120.4,0,0,1,22.47,2.14c21.77,4.64,40.67,15.34,53.52,30.33a34.56,34.56,0,0,1-3.93,48.87,33.28,33.28,0,0,1-22.12,8.21,34.92,34.92,0,0,1-26.4-12.13c-2.85-3.57-8.56-6.42-15-7.49a34.85,34.85,0,0,0-8.56-1.07,33.88,33.88,0,0,0-12.49,2.14c-3.92,1.42-5.35,2.85-5.71,3.56-.35.36-1.42,1.43-1.42,4.28a4.65,4.65,0,0,0,2.85,4.64c6.07,4.28,16.77,8.21,27.83,12.49,14.62,5.35,29.61,10.7,43.16,20a84,84,0,0,1,21.77,21.76A69.62,69.62,0,0,1,773,1372.1,72.36,72.36,0,0,1,761.27,1421.69Z" transform="translate(-213.4 -1187.75)" fill="#17a2b8"/><path d="M914.31,1387.8a33.5,33.5,0,0,1,33.54,33.54c0,18.55-15,33.89-33.54,33.89h-96a34.11,34.11,0,0,1-33.9-33.89V1235.47c0-18.55,15.35-33.54,33.9-33.54a33.5,33.5,0,0,1,33.53,33.54V1387.8Z" transform="translate(-213.4 -1187.75)" fill="#17a2b8"/><path d="M1187.23,1330.36a127.9,127.9,0,0,1-10,50.31,129,129,0,0,1-68.14,68.14,130.87,130.87,0,0,1-100.25,0,126.2,126.2,0,0,1-40.67-27.47,130.15,130.15,0,0,1-27.47-40.67,126.66,126.66,0,0,1,0-100.25,129,129,0,0,1,68.14-68.14,126.55,126.55,0,0,1,100.25,0,130,130,0,0,1,40.67,27.47,126,126,0,0,1,27.47,40.67A127.35,127.35,0,0,1,1187.23,1330.36Zm-57.44,0c0-18.9-7.49-36.39-20.69-49.94a71.9,71.9,0,0,0-50.3-20.69c-18.91,0-36.39,7.49-49.95,20.69-13.2,13.55-20.69,31-20.69,49.94a71.93,71.93,0,0,0,20.69,50.31c13.56,13.2,31,20.69,49.95,20.69a70.64,70.64,0,0,0,71-71Z" transform="translate(-213.4 -1187.75)" fill="#17a2b8"/><path d="M1376.66,1292.55c0,32.46-9.64,57.79-28.54,75.63-21.41,19.62-47.1,21.76-57.09,21.76h-2.49l-23.55-.36v35.68a33.54,33.54,0,0,1-67.07,0V1239a33.73,33.73,0,0,1,33.54-33.54H1291a92.49,92.49,0,0,1,23.19,3.57,82.48,82.48,0,0,1,38.53,21.76C1368.45,1246.53,1376.66,1267.22,1376.66,1292.55Zm-57.08,0c0-7.49-1.43-13.56-3.93-18.2a24,24,0,0,0-8.92-7.84,41.3,41.3,0,0,0-15.7-3.93h-36.38v70.28l35,.36H1291c1.79,0,11.42-.36,18.56-6.78C1316.36,1320,1319.58,1308.6,1319.58,1292.55Z" transform="translate(-213.4 -1187.75)" fill="#17a2b8"/><path d="M1549.32,1421.69a78.82,78.82,0,0,1-36.39,28.54c-12.84,5.71-27.83,8.56-43.17,8.56a120.13,120.13,0,0,1-25.33-2.85c-26-5-48.52-18.19-63.5-36.39a34.9,34.9,0,0,1,4.64-48.87,35.57,35.57,0,0,1,22.12-7.85,34.51,34.51,0,0,1,26.75,12.84c5,6.07,13.2,10.7,23.55,12.84a65.07,65.07,0,0,0,11.77,1.07,47.17,47.17,0,0,0,16.77-2.85c2.85-1.43,5-2.85,5.71-3.92a9,9,0,0,0,.35-3.21c-.35-1.43-.35-2.15-3.92-4.64-6.42-4.64-16.77-8.21-27.83-12.49-15.34-5.71-31-11.41-44.95-21.76a70.1,70.1,0,0,1-21.76-24.26c-6.06-10.7-8.92-22.48-8.92-35.68,0-17.83,5.35-33.53,15.7-46.73a81.58,81.58,0,0,1,36.39-26,112.66,112.66,0,0,1,36.39-6.07,120.4,120.4,0,0,1,22.47,2.14c21.76,4.64,40.67,15.34,53.51,30.33a34.55,34.55,0,0,1-3.92,48.87,33.28,33.28,0,0,1-22.12,8.21,34.91,34.91,0,0,1-26.4-12.13c-2.85-3.57-8.56-6.42-15-7.49a34.91,34.91,0,0,0-8.56-1.07,33.88,33.88,0,0,0-12.49,2.14c-3.92,1.42-5.35,2.85-5.71,3.56-.35.36-1.42,1.43-1.42,4.28a4.65,4.65,0,0,0,2.85,4.64c6.06,4.28,16.77,8.21,27.83,12.49,14.62,5.35,29.61,10.7,43.16,20a83.77,83.77,0,0,1,21.76,21.76,69.53,69.53,0,0,1,11.42,32.46A72.36,72.36,0,0,1,1549.32,1421.69Z" transform="translate(-213.4 -1187.75)" fill="#212529"/><path d="M1880.38,1249.74l-60.65,182.65a33.39,33.39,0,0,1-30.68,22.84H1788a33.14,33.14,0,0,1-31-20.69l-31.39-76.71-31.39,76.71a33.87,33.87,0,0,1-31,20.69h-1.43a33.39,33.39,0,0,1-30.68-22.84l-60.29-182.65a33.37,33.37,0,0,1,21-42.46,37.29,37.29,0,0,1,10.7-1.78,33.75,33.75,0,0,1,32.11,23.19l31.75,96,27.83-68.5a33.89,33.89,0,0,1,62.43,0l28.18,68.5,31.75-96a33.64,33.64,0,0,1,31.75-23.19,37.29,37.29,0,0,1,10.7,1.78,35,35,0,0,1,19.63,16.77A33.88,33.88,0,0,1,1880.38,1249.74Z" transform="translate(-213.4 -1187.75)" fill="#212529"/><path d="M2062.32,1408.85a33.59,33.59,0,0,1-18.2,43.88,31.75,31.75,0,0,1-12.84,2.5,33.49,33.49,0,0,1-31-20.69L1986,1400.29h-61l-13.56,33.89a33.85,33.85,0,0,1-31,20.69,30.52,30.52,0,0,1-12.85-2.5,33.46,33.46,0,0,1-18.55-43.88L1924.26,1228c0-.72.35-1.07.35-1.79a34.9,34.9,0,0,1,18.2-18.19,40.89,40.89,0,0,1,12.84-2.5,34,34,0,0,1,31.39,20.69Zm-113.63-75.63h14.16a6.68,6.68,0,0,0,6.27-9l-7.14-19.52a6.68,6.68,0,0,0-12.56,0l-7,19.53A6.68,6.68,0,0,0,1948.69,1333.22Z" transform="translate(-213.4 -1187.75)" fill="#212529"/><path d="M2254.24,1292.55c0,32.46-9.63,57.79-28.54,75.63-21.4,19.62-47.09,21.76-57.08,21.76h-2.49l-23.55-.36v35.68a33.54,33.54,0,0,1-67.07,0V1239a33.73,33.73,0,0,1,33.54-33.54h59.57a92.49,92.49,0,0,1,23.19,3.57,82.48,82.48,0,0,1,38.53,21.76C2246,1246.53,2254.24,1267.22,2254.24,1292.55Zm-57.08,0c0-7.49-1.42-13.56-3.92-18.2a24,24,0,0,0-8.92-7.84,41.3,41.3,0,0,0-15.7-3.93h-36.39v70.28l35,.36h1.42c1.79,0,11.42-.36,18.56-6.78C2194,1320,2197.16,1308.6,2197.16,1292.55Z" transform="translate(-213.4 -1187.75)" fill="#212529"/></svg>