<?xml version="1.0" encoding="utf-8"?>
<!-- Generator: Adobe Illustrator 26.0.1, SVG Export Plug-In . SVG Version: 6.00 Build 0)  -->
<!DOCTYPE svg PUBLIC "-//W3C//DTD SVG 1.1//EN" "http://www.w3.org/Graphics/SVG/1.1/DTD/svg11.dtd" [
	<!ENTITY ns_extend "http://ns.adobe.com/Extensibility/1.0/">
	<!ENTITY ns_ai "http://ns.adobe.com/AdobeIllustrator/10.0/">
	<!ENTITY ns_graphs "http://ns.adobe.com/Graphs/1.0/">
	<!ENTITY ns_vars "http://ns.adobe.com/Variables/1.0/">
	<!ENTITY ns_imrep "http://ns.adobe.com/ImageReplacement/1.0/">
	<!ENTITY ns_sfw "http://ns.adobe.com/SaveForWeb/1.0/">
	<!ENTITY ns_custom "http://ns.adobe.com/GenericCustomNamespace/1.0/">
	<!ENTITY ns_adobe_xpath "http://ns.adobe.com/XPath/1.0/">
]>
<svg version="1.1" id="Layer_1" xmlns:x="&ns_extend;" xmlns:i="&ns_ai;" xmlns:graph="&ns_graphs;"
	 xmlns="http://www.w3.org/2000/svg" xmlns:xlink="http://www.w3.org/1999/xlink" x="0px" y="0px" viewBox="0 0 1041.4 176.2"
	 style="enable-background:new 0 0 1041.4 176.2;" xml:space="preserve">
<style type="text/css">
	.st0{fill:url(#SVGID_1_);}
	.st1{fill:#FFFFFF;}
	.st2{fill:#FFA37E;}
	.st3{fill:#8A5846;}
</style>
<metadata>
	<sfw  xmlns="&ns_sfw;">
		<slices></slices>
		<sliceSourceBounds  bottomLeftOrigin="true" height="176.2" width="1041.3" x="0" y="0"></sliceSourceBounds>
	</sfw>
</metadata>
<linearGradient id="SVGID_1_" gradientUnits="userSpaceOnUse" x1="398.55" y1="-95.8258" x2="991" y2="-95.8258" gradientTransform="matrix(1 0 0 -1 -19.31 69.92)">
	<stop  offset="4.000000e-02" style="stop-color:#C49A6C"/>
	<stop  offset="0.61" style="stop-color:#C49A6C"/>
</linearGradient>
<path class="st0" d="M971.7,155.3c-0.3,11.6-9.8,20.7-21.4,20.5c-11.2-0.2-20.2-9.3-20.5-20.5H971.7z M379.2,155.3
	c0,11.6,9.4,20.9,20.9,20.9c11.5,0,20.9-9.4,20.9-20.9H379.2z"/>
<path class="st1" d="M110,152.8c-5.6,8.1-13.5,14.3-22.7,17.8c-8.5,3.6-17.7,5.4-26.9,5.3c-5.3,0-10.6-0.6-15.8-1.8
	c-16.2-3.1-30.3-11.4-39.6-22.7c-7.5-9.2-6.3-22.8,2.9-30.5c3.9-3.1,8.8-4.9,13.8-4.9c6.5,0,12.6,3,16.7,8c3.1,3.8,8.2,6.7,14.7,8
	c2.4,0.4,4.9,0.7,7.3,0.7c3.6,0,7.1-0.6,10.5-1.8c1.3-0.6,2.6-1.4,3.6-2.4c0.2-0.6,0.3-1.3,0.2-2c-0.2-0.9-0.2-1.3-2.4-2.9
	c-4-2.9-10.5-5.1-17.4-7.8c-9.6-3.6-19.4-7.1-28-13.6C14.6,93.7,7.4,79.8,7.6,64.9c-0.2-10.6,3.3-20.8,9.8-29.2
	c5.9-7.4,13.8-13.1,22.7-16.2c7.3-2.5,15-3.8,22.7-3.8c4.7,0,9.4,0.5,14,1.3c13.6,2.9,25.4,9.6,33.4,18.9c7.7,9,6.7,22.7-2.4,30.4
	c0,0-0.1,0.1-0.1,0.1c-3.8,3.3-8.7,5.2-13.8,5.1c-6.3,0-12.3-2.8-16.5-7.6c-1.8-2.2-5.3-4-9.3-4.7c-1.7-0.4-3.5-0.7-5.3-0.7
	c-2.7,0-5.3,0.4-7.8,1.3c-2.4,0.9-3.3,1.8-3.6,2.2c-0.7,0.7-1,1.7-0.9,2.7c0,0.5,0.1,0.9,0.2,1.3c0.4,0.6,0.9,1.2,1.6,1.6
	c3.8,2.7,10.5,5.1,17.4,7.8c9.1,3.3,18.5,6.7,26.9,12.5c5.3,3.6,9.9,8.2,13.6,13.6c4,6.1,6.5,13,7.1,20.3
	C118.7,132.8,116.1,143.7,110,152.8z M205.4,131.7c11.6,0,21,9.4,21,21c0,11.6-9.4,21-21,21h-59.9c-11.6-0.1-21.1-9.5-21.1-21.1
	v-116c0-11.6,9.4-21,21-21s21,9.4,21,21v95L205.4,131.7z M601.6,152.8c-5.6,8.1-13.5,14.3-22.7,17.8c-8.5,3.6-17.7,5.4-26.9,5.3
	c-5.3,0-10.6-0.6-15.8-1.8c-16.2-3.1-30.3-11.4-39.6-22.7c-7.6-9.2-6.3-22.8,2.9-30.5c3.9-3.1,8.8-4.9,13.8-4.9c6.5,0,12.6,3,16.7,8
	c3.1,3.8,8.2,6.7,14.7,8c2.4,0.4,4.9,0.7,7.3,0.7c3.6,0,7.1-0.6,10.5-1.8c1.3-0.6,2.6-1.4,3.6-2.4c0.2-0.6,0.3-1.3,0.2-2
	c-0.2-0.9-0.2-1.3-2.5-2.9c-4-2.9-10.5-5.1-17.4-7.8c-9.6-3.6-19.4-7.1-28-13.6c-12.2-8.5-19.3-22.5-19.2-37.3
	c-0.2-10.6,3.3-20.8,9.8-29.2c5.9-7.4,13.8-13.1,22.7-16.3c7.3-2.5,15-3.8,22.7-3.8c4.7,0,9.4,0.5,14,1.3
	c13.6,2.9,25.4,9.6,33.4,18.9c7.7,9,6.7,22.7-2.3,30.4c0,0-0.1,0.1-0.1,0.1c-3.8,3.3-8.7,5.2-13.8,5.1c-6.3,0-12.3-2.8-16.5-7.6
	c-1.8-2.2-5.3-4-9.3-4.7c-1.7-0.4-3.5-0.7-5.3-0.7c-2.7-0.1-5.3,0.4-7.8,1.3c-2.5,0.9-3.3,1.8-3.6,2.2c-0.7,0.7-1,1.7-0.9,2.7
	c0,0.5,0.1,0.9,0.2,1.3c0.4,0.6,0.9,1.2,1.6,1.6c3.8,2.7,10.5,5.1,17.4,7.8c9.1,3.3,18.5,6.7,26.9,12.5c5.3,3.6,9.9,8.2,13.6,13.6
	c4.1,6.1,6.5,13,7.2,20.3C610.3,132.8,607.7,143.7,601.6,152.8L601.6,152.8z M808.1,45.5l-37.8,114c-2.8,8.3-10.4,14-19.1,14.2h-0.7
	c-8.5,0.1-16.2-5-19.4-12.9L711.5,113L692,160.9c-3.3,7.8-10.9,12.9-19.4,12.9h-0.9c-8.7-0.3-16.4-5.9-19.2-14.2L615,45.5
	c-3.7-10.9,2.1-22.7,13-26.4c0,0,0.1,0,0.1,0c2.2-0.7,4.4-1.1,6.7-1.1c9.1,0,17.2,5.8,20,14.5l19.8,59.9l17.4-42.7
	c4.5-10.8,16.9-15.8,27.7-11.3c5.1,2.1,9.2,6.2,11.3,11.3l17.6,42.7l19.8-59.9c2.8-8.6,10.8-14.4,19.8-14.5c2.3,0,4.5,0.4,6.7,1.1
	c5.3,1.8,9.6,5.5,12.2,10.5C809.5,34.5,809.9,40.3,808.1,45.5z M921.7,144.8c4.4,10.7-0.7,22.9-11.3,27.4c-2.5,1.1-5.3,1.6-8,1.5
	c-8.5,0-16.1-5.1-19.4-12.9l-8.9-21.4H836l-8.5,21.1c-3.3,7.8-10.9,12.9-19.4,12.9c-2.7,0.1-5.5-0.5-8-1.6
	c-10.7-4.3-15.9-16.4-11.7-27.1c0-0.1,0.1-0.2,0.1-0.3l47-112.6c0-0.4,0.2-0.7,0.2-1.1c2.2-5.1,6.3-9.1,11.3-11.3
	c2.6-0.9,5.3-1.5,8-1.6c8.5,0,16.2,5.1,19.6,12.9L921.7,144.8z M849.5,97.6h11.3c2,0,3.6-1.6,3.6-3.6c0-0.6-0.1-1.1-0.4-1.6
	l-5.4-11.1c-0.9-2-3.3-2.8-5.3-1.8c-0.8,0.4-1.4,1-1.8,1.8l-5.3,11.1c-0.9,1.8-0.1,4,1.7,4.9C848.4,97.5,849,97.6,849.5,97.6z
	 M929.9,151.8V38.9c0-11.5,9.4-20.9,20.9-20.9H988c4.9,0.1,9.8,0.9,14.5,2.2c9.1,2.3,17.4,7,24,13.6c9.8,9.8,14.9,22.7,14.9,38.5
	c0,20.3-6,36.1-17.8,47.2c-13.3,12.2-29.4,13.6-35.6,13.6h-1.5l-14.7-0.2v18.7L929.9,151.8z M1005.8,72.2c0.1-3.9-0.7-7.8-2.5-11.4
	c-1.4-2.1-3.3-3.8-5.6-4.9c-3.1-1.5-6.4-2.3-9.8-2.4h-22.7v43.8l21.8,0.2h0.9c1.1,0,7.1-0.2,11.6-4.2
	C1003.8,89.4,1005.8,82.3,1005.8,72.2L1005.8,72.2z M379.3,151.8V38.9c0-11.5,9.4-20.9,20.9-20.9h37.2c4.9,0.1,9.8,0.9,14.5,2.2
	c9.1,2.3,17.4,7,24,13.6c9.8,9.8,14.9,22.7,14.9,38.5c0,20.3-6,36.1-17.8,47.2c-13.4,12.2-29.4,13.6-35.6,13.6h-1.6l-14.7-0.2v18.7
	L379.3,151.8z M455.2,72.2c0.1-3.9-0.7-7.8-2.5-11.3c-1.4-2.1-3.3-3.8-5.6-4.9c-3.1-1.5-6.4-2.3-9.8-2.4h-22.6v43.8l21.8,0.2h0.9
	c1.1,0,7.1-0.2,11.6-4.2C453.2,89.4,455.2,82.3,455.2,72.2L455.2,72.2z"/>
<path class="st2" d="M168.5,64.9c0.7,1.2,9,5.5,12.2,5.7c0.3,0.6,4.5,3.4,7.7,4.9c-3.5,22.6,4.9,43.4,16.8,54.8
	c18.8,17.8,27.6,21.7,27.6,21.7s-0.5,20.2,0.5,20.7s3,3.5,8.9,3.5h22c4.9,0,5.2-3,5.9-4.2s-0.7-7.4,0-7.7s28.1-0.5,31.3-0.5
	c-0.5,3.7,0.5,11.1,5.7,11.1s18.8,1.2,24.2,1.2c3.3,0.1,6.4-1.8,7.9-4.7c0.5-0.7-0.7-16.8,0-19.5l0.4-0.2
	c5.5-2.7,27.1-18.1,31.4-25.7c11.4-0.2,31.6-5.4,35-35.1c0-1,0-2-0.1-2.9c-0.1-5.5-0.2-9.9-0.4-13.3c-0.4-9.9-1.4-12-4.5-12.1
	c-4.2-0.1-19,0.5-20.5,0c-3-9.6-16.5-31.3-30.6-38.3c-1-20-1-22.7-1.5-23.9l0,0c-0.7-1.2-19.5-0.9-22.9,11.6h-0.1
	c-2.7-0.9-6.5-2-11.1-3.2c-15-3.6-39-6.8-65.1,2c-15,5.2-28.7,13.4-40.3,24.2c-0.6,0.5-1.2,1.1-1.8,1.6c-9.8,11.1-15.4,22.9-18,34.3
	c-1.4-0.4-2.5-1.3-3.2-2.5c0.9-0.4,2.6-3,3.5-7s-3.9-5.9-7.1-5.8s-4.4,6-4.8,9.4c-0.7,0.7-5.1-4.1-7.2-5.2S167.9,63.7,168.5,64.9z
	 M182.5,60.8c0.4-0.5,1-0.8,1.6-0.8c0.3-0.1,0.7-0.1,1,0.1c0.1,0.2,0.2,0.4,0.2,0.6c0.2,0.8,0.2,1.6,0,2.4c-0.2,0.4-0.4,0.7-0.7,1
	c-0.1,0.2-0.3,0.3-0.6,0.4c-0.2,0.1-0.5,0.1-0.7,0c-0.2-0.1-0.4-0.4-0.6-0.3c-0.1-0.5-0.2-1-0.3-1.6C182.2,62,182.3,61.4,182.5,60.8
	L182.5,60.8z M320.8,28.4c0.1-2.7,1.6-5,3.1-7.2c0.9-1.3,1.7-2.6,2.3-4.1c0.3-1,0.5-2,0.5-3h0.1C330.2,1.6,349,1.2,349.7,2.5
	c-5.1,2-9.8,5.3-12.6,10c-0.5,0.9-1,1.9-1.5,2.9c-2,4.4-3.9,8.8-5.6,13.3c-0.4,1.3-1.1,2.5-2.2,3.4c-1.2,0.6-2.6,0.8-4,0.4
	c-0.7-0.1-1.4-0.4-1.9-0.8C321.1,30.9,320.6,29.6,320.8,28.4L320.8,28.4z M168.5,64.9c0.7,1.2,9,5.5,12.2,5.7
	c0.3,0.6,4.5,3.4,7.7,4.9c-3.5,22.6,4.9,43.4,16.8,54.8c18.8,17.8,27.6,21.7,27.6,21.7s-0.5,20.2,0.5,20.7s3,3.5,8.9,3.5h22
	c4.9,0,5.2-3,5.9-4.2s-0.7-7.4,0-7.7s28.1-0.5,31.3-0.5c-0.5,3.7,0.5,11.1,5.7,11.1s18.8,1.2,24.2,1.2c3.3,0.1,6.4-1.8,7.9-4.7
	c0.5-0.7-0.7-16.8,0-19.5l0.4-0.2c-5.2-1.4-10.7-2.2-15.9-3.1C266,138.6,220.4,93.7,209.2,36c0-0.3-0.1-0.6-0.2-0.9
	c-0.6,0.5-1.2,1.1-1.8,1.6c-9.8,11.1-15.4,22.9-18,34.3c-1.4-0.4-2.5-1.3-3.2-2.5c0.9-0.4,2.6-3,3.5-7s-3.9-5.9-7.1-5.8
	s-4.4,6-4.8,9.4c-0.7,0.7-5.1-4.1-7.2-5.2S167.9,63.7,168.5,64.9z M182.5,60.8c0.4-0.5,1-0.8,1.6-0.8c0.3-0.1,0.7-0.1,1,0.1
	c0.1,0.2,0.2,0.4,0.2,0.6c0.2,0.8,0.2,1.6,0,2.4c-0.2,0.4-0.4,0.7-0.7,1c-0.1,0.2-0.3,0.3-0.6,0.4c-0.2,0.1-0.5,0.1-0.7,0
	c-0.2-0.1-0.4-0.4-0.6-0.3c-0.1-0.5-0.2-1-0.3-1.6C182.2,62,182.3,61.4,182.5,60.8L182.5,60.8z"/>
<path class="st3" d="M249.4,15.9c26.1-8.8,50.1-5.7,65.1-2c0.6,1.1,0.9,2.3,0.9,3.6c0,0.5,0,0.9-0.1,1.4c-0.6,3.5-3.4,5.7-6.3,5
	c-17.6-4.1-35.9-4.1-53.4,0c-2.8,0.7-5.6-1.5-6.3-5C249.2,17.9,249.2,16.9,249.4,15.9z M352.7,59.3c0,3.5,2.8,6.3,6.3,6.3
	c3.5,0,6.3-2.8,6.3-6.3c0-3.5-2.8-6.3-6.3-6.3S352.7,55.9,352.7,59.3L352.7,59.3z"/>
</svg>
