<svg xmlns="http://www.w3.org/2000/svg" viewBox="0 0 336.25 57.15"><path d="M69.48,97.68a15.91,15.91,0,0,1-7.31,5.73,21.64,21.64,0,0,1-8.67,1.72,24,24,0,0,1-5.09-.58,21.76,21.76,0,0,1-12.75-7.3,7,7,0,0,1,.93-9.82A7.17,7.17,0,0,1,41,85.85a6.91,6.91,0,0,1,5.37,2.58A8.24,8.24,0,0,0,51.13,91a12.67,12.67,0,0,0,2.37.22,9.45,9.45,0,0,0,3.37-.58A3.32,3.32,0,0,0,58,89.87a1.85,1.85,0,0,0,.07-.65c-.07-.29-.07-.43-.78-.93a27.94,27.94,0,0,0-5.59-2.51,34.67,34.67,0,0,1-9-4.37,14,14,0,0,1-4.37-4.87,14.19,14.19,0,0,1-1.79-7.17A14.81,14.81,0,0,1,39.67,60,16.29,16.29,0,0,1,47,54.76a22.6,22.6,0,0,1,7.31-1.22A23.75,23.75,0,0,1,58.8,54a19.39,19.39,0,0,1,10.75,6.09,6.94,6.94,0,0,1-.79,9.82,6.69,6.69,0,0,1-4.44,1.64A7,7,0,0,1,59,69.09a5,5,0,0,0-3-1.51,7.29,7.29,0,0,0-1.72-.21,6.74,6.74,0,0,0-2.51.43c-.79.28-1.08.57-1.15.71a1.13,1.13,0,0,0-.28.86,1.55,1.55,0,0,0,.07.43,1.52,1.52,0,0,0,.5.51,30.31,30.31,0,0,0,5.59,2.5,38,38,0,0,1,8.67,4,17,17,0,0,1,4.37,4.37,13.88,13.88,0,0,1,2.29,6.52A14.56,14.56,0,0,1,69.48,97.68Zm30.73-6.81a6.77,6.77,0,0,1,0,13.54H80.94a6.85,6.85,0,0,1-6.81-6.81V60.27a6.77,6.77,0,0,1,13.54,0v30.6Zm127.54,6.81a15.91,15.91,0,0,1-7.31,5.73,21.64,21.64,0,0,1-8.67,1.72,24,24,0,0,1-5.09-.58,21.76,21.76,0,0,1-12.75-7.3,7,7,0,0,1,.93-9.82,7.17,7.17,0,0,1,4.44-1.58,6.91,6.91,0,0,1,5.37,2.58A8.24,8.24,0,0,0,209.4,91a12.67,12.67,0,0,0,2.37.22,9.45,9.45,0,0,0,3.37-.58,3.32,3.32,0,0,0,1.14-.78,1.85,1.85,0,0,0,.07-.65c-.07-.29-.07-.43-.78-.93A27.94,27.94,0,0,0,210,85.78a34.67,34.67,0,0,1-9-4.37,14,14,0,0,1-4.37-4.87,14.19,14.19,0,0,1-1.79-7.17A14.81,14.81,0,0,1,197.94,60a16.29,16.29,0,0,1,7.31-5.23,22.6,22.6,0,0,1,7.31-1.22,23.75,23.75,0,0,1,4.51.43,19.39,19.39,0,0,1,10.75,6.09,6.94,6.94,0,0,1-.79,9.82,6.69,6.69,0,0,1-4.44,1.64,7,7,0,0,1-5.3-2.43,5,5,0,0,0-3-1.51,7.29,7.29,0,0,0-1.72-.21,6.77,6.77,0,0,0-2.51.43c-.79.28-1.08.57-1.15.71a1.13,1.13,0,0,0-.28.86,1.55,1.55,0,0,0,.07.43,1.52,1.52,0,0,0,.5.51,30.31,30.31,0,0,0,5.59,2.5,38,38,0,0,1,8.67,4,17,17,0,0,1,4.37,4.37,13.88,13.88,0,0,1,2.29,6.52A14.56,14.56,0,0,1,227.75,97.68Zm66.49-34.54L282.06,99.82a6.7,6.7,0,0,1-6.17,4.59h-.21a6.66,6.66,0,0,1-6.24-4.16l-6.3-15.4-6.31,15.4a6.79,6.79,0,0,1-6.23,4.16h-.29a6.7,6.7,0,0,1-6.16-4.59L232,63.14a6.72,6.72,0,0,1,4.23-8.53,7.67,7.67,0,0,1,2.15-.35,6.77,6.77,0,0,1,6.45,4.65l6.38,19.28,5.58-13.76a6.81,6.81,0,0,1,12.54,0L275,78.19l6.38-19.28a6.75,6.75,0,0,1,6.38-4.65,7.73,7.73,0,0,1,2.15.35A7.08,7.08,0,0,1,293.88,58,6.81,6.81,0,0,1,294.24,63.14Zm36.54,32a6.75,6.75,0,0,1-3.66,8.81,6.35,6.35,0,0,1-2.58.5,6.72,6.72,0,0,1-6.23-4.16l-2.87-6.87H303.19l-2.72,6.8a6.8,6.8,0,0,1-6.23,4.16,6.07,6.07,0,0,1-2.58-.5A6.73,6.73,0,0,1,287.93,95l15.12-36.25c0-.14.07-.22.07-.36a7,7,0,0,1,3.65-3.65,8.14,8.14,0,0,1,2.58-.5,6.82,6.82,0,0,1,6.31,4.15ZM307.56,79.91h3.64a1.17,1.17,0,0,0,1.05-1.68l-1.75-3.57a1.27,1.27,0,0,0-2.28,0l-1.71,3.56A1.17,1.17,0,0,0,307.56,79.91Zm25.87,17.43V61a6.77,6.77,0,0,1,6.73-6.73h12a18.63,18.63,0,0,1,4.65.71,16.69,16.69,0,0,1,7.74,4.37,16.88,16.88,0,0,1,4.8,12.4c0,6.52-1.93,11.61-5.73,15.19a17.28,17.28,0,0,1-11.46,4.37h-.51l-4.72-.07v6Zm24.43-25.6a7.73,7.73,0,0,0-.79-3.66,4.85,4.85,0,0,0-1.79-1.57,8.24,8.24,0,0,0-3.15-.79h-7.31V79.83l7,.08h.29a6,6,0,0,0,3.72-1.36C357.21,77.26,357.86,75,357.86,71.74ZM156.17,97.34V61a6.77,6.77,0,0,1,6.74-6.73h12a18.68,18.68,0,0,1,4.66.71,16.69,16.69,0,0,1,7.74,4.37,16.88,16.88,0,0,1,4.8,12.4c0,6.52-1.94,11.61-5.73,15.19a17.29,17.29,0,0,1-11.47,4.37h-.5l-4.73-.07v6Zm24.44-25.6a7.73,7.73,0,0,0-.79-3.66A4.93,4.93,0,0,0,178,66.51a8.27,8.27,0,0,0-3.16-.79h-7.31V79.83l7,.08h.28a6,6,0,0,0,3.73-1.36C180,77.26,180.61,75,180.61,71.74Z" transform="translate(-33.58 -48.48)" fill="#191228" stroke="#231f20" stroke-miterlimit="10"/><path d="M346.9,98.47a6.74,6.74,0,1,1-13.47,0Zm-190.73,0a6.74,6.74,0,1,0,13.47,0ZM88.32,69.37a10.26,10.26,0,0,0,3.94,1.85,10.13,10.13,0,0,0,2.49,1.57c-1.13,7.28,1.56,14,5.42,17.64,6,5.72,8.89,7,8.89,7s-.15,6.52.16,6.68a4,4,0,0,0,2.86,1.11h7.08c1.58,0,1.66-1,1.9-1.35s-.24-2.39,0-2.47,9.06-.15,10.09-.15c-.16,1.19.16,3.57,1.83,3.57s6,.4,7.78.4a2.82,2.82,0,0,0,2.55-1.51c.16-.24-.24-5.41,0-6.28l.14-.06c1.77-.86,8.72-5.81,10.11-8.28,3.65-.08,10.17-1.75,11.28-11.28,0-.33,0-.65,0-1,0-1.79-.07-3.19-.12-4.29-.14-3.2-.43-3.87-1.45-3.9-1.36,0-6.12.16-6.59,0-1-3.1-5.33-10.09-9.86-12.32-.31-6.43-.31-7.3-.47-7.7h0c-.23-.39-6.28-.29-7.38,3.74h0c-.87-.28-2.09-.66-3.58-1a37.75,37.75,0,0,0-21,.65,36.59,36.59,0,0,0-13,7.81c-.19.16-.38.34-.57.52a25,25,0,0,0-5.78,11,1.64,1.64,0,0,1-1-.81,4,4,0,0,0,1.13-2.25c.3-1.28-1.25-1.9-2.3-1.87s-1.43,1.93-1.54,3c-.23.23-1.64-1.32-2.33-1.68S88.12,69,88.32,69.37Zm4.51-1.32a.79.79,0,0,1,.51-.26.32.32,0,0,1,.33,0,.44.44,0,0,1,.07.17,1.44,1.44,0,0,1,0,.77,1.06,1.06,0,0,1-.22.33.52.52,0,0,1-.18.15.24.24,0,0,1-.23,0c-.06,0-.12-.12-.19-.1,0-.17-.07-.33-.1-.51A.82.82,0,0,1,92.83,68.05Zm44.51-10.44a4.8,4.8,0,0,1,1-2.33,5.42,5.42,0,0,0,.73-1.31,3.57,3.57,0,0,0,.15-1l0,0c1.1-4,7.16-4.14,7.39-3.75a7.81,7.81,0,0,0-4.05,3.24,8.1,8.1,0,0,0-.47.93q-1,2.12-1.8,4.29a2.11,2.11,0,0,1-.69,1.08,1.76,1.76,0,0,1-1.28.14,1.39,1.39,0,0,1-.62-.24A1.23,1.23,0,0,1,137.34,57.61Z" transform="translate(-33.58 -48.48)" fill="#ffa37e"/><path d="M114.35,53.6a37.75,37.75,0,0,1,21-.65,2.48,2.48,0,0,1,.29,1.15,3.42,3.42,0,0,1,0,.44,1.78,1.78,0,0,1-2,1.62,37.53,37.53,0,0,0-17.19,0,1.78,1.78,0,0,1-2-1.62A2.47,2.47,0,0,1,114.35,53.6Zm33.25,14a2,2,0,1,0,2-2A2,2,0,0,0,147.6,67.59Z" transform="translate(-33.58 -48.48)" fill="#191228" stroke="#231f20" stroke-miterlimit="10"/></svg>