<svg xmlns="http://www.w3.org/2000/svg" viewBox="0 0 2119.67 584.87"><circle cx="248.19" cy="248.19" r="234.19" fill="#333" stroke="#4d4d4d" stroke-miterlimit="10" stroke-width="28"/><path d="M495.17,1202.35s-24.78-4.78-30.46,18-16.36,15.6-16.36,15.6l12.72,20.87,34.1-49.37,3.05-4.71" transform="translate(-157.81 -1082.17)" fill="#17a2b8"/><path d="M229.64,1295.84c1,1.79,13.37,8.15,18.17,8.52.41,1,6.7,5.07,11.47,7.28-5.2,33.61,7.22,64.53,25,81.39,27.86,26.4,41.05,32.29,41.05,32.29s-.71,30,.74,30.8,4.46,5.12,13.21,5.12H372c7.34,0,7.71-4.45,8.81-6.22s-1.1-11,0-11.38,41.79-.73,46.56-.73c-.74,5.51.74,16.51,8.44,16.51s27.86,1.82,35.93,1.82a13,13,0,0,0,11.73-7c.75-1.1-1.1-24.94,0-29l.64-.28c8.17-4,40.25-26.84,46.67-38.23,16.86-.37,46.93-8.07,52-52.08,0-1.48,0-3-.09-4.38-.16-8.22-.3-14.69-.53-19.79-.66-14.74-2-17.83-6.7-18-6.29-.2-28.23.74-30.45,0-4.45-14.3-24.56-46.57-45.46-56.85-1.2-30.46-.9-35.24-2.2-35.55h0c-1.06-1.8-29-1.31-34.08,17.28h-.17c-4-1.3-9.65-3-16.56-4.71-22.29-5.41-58-10.11-96.75,3a168.8,168.8,0,0,0-59.92,36c-.88.78-1.74,1.59-2.62,2.41-14.52,16.51-22.9,33.95-26.74,50.92a7.76,7.76,0,0,1-4.73-3.73c1.32-.58,3.82-4.46,5.23-10.4s-5.75-8.77-10.61-8.61-6.58,8.92-7.13,14c-1,1.08-7.53-6.1-10.71-7.73S228.69,1294,229.64,1295.84Zm20.8-6.08a3.61,3.61,0,0,1,2.32-1.22,1.16,1.16,0,0,1,1.79,1,6.61,6.61,0,0,1,0,3.53,5,5,0,0,1-1.05,1.49,2.55,2.55,0,0,1-.82.67,1.12,1.12,0,0,1-1,0c-.3-.2-.55-.58-.89-.48-.16-.79-.31-1.49-.46-2.35a3.71,3.71,0,0,1,.16-2.7Z" transform="translate(-157.81 -1082.17)" fill="#17a2b8"/><path d="M349.76,1223c38.73-13.12,74.42-8.42,96.75-3a10.84,10.84,0,0,1,1.35,5.31,12.52,12.52,0,0,1-.17,2c-1,5.21-5.12,8.47-9.3,7.43a173.3,173.3,0,0,0-79.37,0c-4.19,1-8.35-2.28-9.3-7.43A11.22,11.22,0,0,1,349.76,1223Zm153.52,64.53a9.35,9.35,0,1,0,9.35-9.35,9.35,9.35,0,0,0-9.35,9.35Z" transform="translate(-157.81 -1082.17)" fill="#333"/><path d="M455.83,1241.59c.21-3.95,2.45-7.43,4.66-10.76a24.67,24.67,0,0,0,3.36-6.07,14.69,14.69,0,0,0,.7-4.46h.16c5.1-18.59,30.13-19,33.51-17.61a35.91,35.91,0,0,0-18.12,15.19c-.8,1.39-1.48,2.84-2.15,4.31q-4.45,9.75-8.3,19.8a9.88,9.88,0,0,1-3.21,5,8,8,0,0,1-5.87.64,6.88,6.88,0,0,1-2.89-1.12,5.8,5.8,0,0,1-1.84-5Z" transform="translate(-157.81 -1082.17)" fill="#333"/><path d="M761.27,1421.69a78.82,78.82,0,0,1-36.39,28.54c-12.84,5.71-27.83,8.56-43.17,8.56a120,120,0,0,1-25.32-2.85c-26-5-48.52-18.19-63.51-36.39a34.9,34.9,0,0,1,4.64-48.87,35.57,35.57,0,0,1,22.12-7.85,34.53,34.53,0,0,1,26.76,12.84c5,6.07,13.2,10.7,23.54,12.84a65.15,65.15,0,0,0,11.77,1.07,47.13,47.13,0,0,0,16.77-2.85c2.86-1.43,5-2.85,5.71-3.92a8.8,8.8,0,0,0,.36-3.21c-.36-1.43-.36-2.15-3.93-4.64-6.42-4.64-16.77-8.21-27.82-12.49-15.34-5.71-31-11.41-45-21.76a70.1,70.1,0,0,1-21.76-24.26c-6.06-10.7-8.92-22.48-8.92-35.68,0-17.83,5.36-33.53,15.7-46.73a81.64,81.64,0,0,1,36.39-26,112.71,112.71,0,0,1,36.39-6.07,120.4,120.4,0,0,1,22.47,2.14c21.77,4.64,40.67,15.34,53.52,30.33a34.56,34.56,0,0,1-3.93,48.87,33.28,33.28,0,0,1-22.12,8.21,34.92,34.92,0,0,1-26.4-12.13c-2.85-3.57-8.56-6.42-15-7.49a34.85,34.85,0,0,0-8.56-1.07,33.88,33.88,0,0,0-12.49,2.14c-3.92,1.42-5.35,2.85-5.71,3.56-.35.36-1.42,1.43-1.42,4.28a4.65,4.65,0,0,0,2.85,4.64c6.07,4.28,16.77,8.21,27.83,12.49,14.62,5.35,29.61,10.7,43.16,20a84,84,0,0,1,21.77,21.76A69.62,69.62,0,0,1,773,1372.1,72.36,72.36,0,0,1,761.27,1421.69Z" transform="translate(-157.81 -1082.17)" fill="#17a2b8"/><path d="M914.31,1387.8a33.5,33.5,0,0,1,33.54,33.54c0,18.55-15,33.89-33.54,33.89h-96a34.11,34.11,0,0,1-33.9-33.89V1235.47c0-18.55,15.35-33.54,33.9-33.54a33.5,33.5,0,0,1,33.53,33.54V1387.8Z" transform="translate(-157.81 -1082.17)" fill="#17a2b8"/><path d="M1187.23,1330.36a127.9,127.9,0,0,1-10,50.31,129,129,0,0,1-68.14,68.14,130.87,130.87,0,0,1-100.25,0,126.2,126.2,0,0,1-40.67-27.47,130.15,130.15,0,0,1-27.47-40.67,126.66,126.66,0,0,1,0-100.25,129,129,0,0,1,68.14-68.14,126.55,126.55,0,0,1,100.25,0,130,130,0,0,1,40.67,27.47,126,126,0,0,1,27.47,40.67A127.35,127.35,0,0,1,1187.23,1330.36Zm-57.44,0c0-18.9-7.49-36.39-20.69-49.94a71.9,71.9,0,0,0-50.3-20.69c-18.91,0-36.39,7.49-49.95,20.69-13.2,13.55-20.69,31-20.69,49.94a71.93,71.93,0,0,0,20.69,50.31c13.56,13.2,31,20.69,49.95,20.69a70.64,70.64,0,0,0,71-71Z" transform="translate(-157.81 -1082.17)" fill="#17a2b8"/><path d="M1376.66,1292.55c0,32.46-9.64,57.79-28.54,75.63-21.41,19.62-47.1,21.76-57.09,21.76h-2.49l-23.55-.36v35.68a33.54,33.54,0,0,1-67.07,0V1239a33.73,33.73,0,0,1,33.54-33.54H1291a92.49,92.49,0,0,1,23.19,3.57,82.48,82.48,0,0,1,38.53,21.76C1368.45,1246.53,1376.66,1267.22,1376.66,1292.55Zm-57.08,0c0-7.49-1.43-13.56-3.93-18.2a24,24,0,0,0-8.92-7.84,41.3,41.3,0,0,0-15.7-3.93h-36.38v70.28l35,.36H1291c1.79,0,11.42-.36,18.56-6.78C1316.36,1320,1319.58,1308.6,1319.58,1292.55Z" transform="translate(-157.81 -1082.17)" fill="#17a2b8"/><path d="M1549.32,1421.69a78.82,78.82,0,0,1-36.39,28.54c-12.84,5.71-27.83,8.56-43.17,8.56a120.13,120.13,0,0,1-25.33-2.85c-26-5-48.52-18.19-63.5-36.39a34.9,34.9,0,0,1,4.64-48.87,35.57,35.57,0,0,1,22.12-7.85,34.51,34.51,0,0,1,26.75,12.84c5,6.07,13.2,10.7,23.55,12.84a65.07,65.07,0,0,0,11.77,1.07,47.17,47.17,0,0,0,16.77-2.85c2.85-1.43,5-2.85,5.71-3.92a9,9,0,0,0,.35-3.21c-.35-1.43-.35-2.15-3.92-4.64-6.42-4.64-16.77-8.21-27.83-12.49-15.34-5.71-31-11.41-44.95-21.76a70.1,70.1,0,0,1-21.76-24.26c-6.06-10.7-8.92-22.48-8.92-35.68,0-17.83,5.35-33.53,15.7-46.73a81.58,81.58,0,0,1,36.39-26,112.66,112.66,0,0,1,36.39-6.07,120.4,120.4,0,0,1,22.47,2.14c21.76,4.64,40.67,15.34,53.51,30.33a34.55,34.55,0,0,1-3.92,48.87,33.28,33.28,0,0,1-22.12,8.21,34.91,34.91,0,0,1-26.4-12.13c-2.85-3.57-8.56-6.42-15-7.49a34.91,34.91,0,0,0-8.56-1.07,33.88,33.88,0,0,0-12.49,2.14c-3.92,1.42-5.35,2.85-5.71,3.56-.35.36-1.42,1.43-1.42,4.28a4.65,4.65,0,0,0,2.85,4.64c6.06,4.28,16.77,8.21,27.83,12.49,14.62,5.35,29.61,10.7,43.16,20a83.77,83.77,0,0,1,21.76,21.76,69.53,69.53,0,0,1,11.42,32.46A72.36,72.36,0,0,1,1549.32,1421.69Z" transform="translate(-157.81 -1082.17)" fill="#212529"/><path d="M1880.38,1249.74l-60.65,182.65a33.39,33.39,0,0,1-30.68,22.84H1788a33.14,33.14,0,0,1-31-20.69l-31.39-76.71-31.39,76.71a33.87,33.87,0,0,1-31,20.69h-1.43a33.39,33.39,0,0,1-30.68-22.84l-60.29-182.65a33.37,33.37,0,0,1,21-42.46,37.29,37.29,0,0,1,10.7-1.78,33.75,33.75,0,0,1,32.11,23.19l31.75,96,27.83-68.5a33.89,33.89,0,0,1,62.43,0l28.18,68.5,31.75-96a33.64,33.64,0,0,1,31.75-23.19,37.29,37.29,0,0,1,10.7,1.78,35,35,0,0,1,19.63,16.77A33.88,33.88,0,0,1,1880.38,1249.74Z" transform="translate(-157.81 -1082.17)" fill="#212529"/><path d="M2062.32,1408.85a33.59,33.59,0,0,1-18.2,43.88,31.75,31.75,0,0,1-12.84,2.5,33.49,33.49,0,0,1-31-20.69L1986,1400.29h-61l-13.56,33.89a33.85,33.85,0,0,1-31,20.69,30.52,30.52,0,0,1-12.85-2.5,33.46,33.46,0,0,1-18.55-43.88L1924.26,1228c0-.72.35-1.07.35-1.79a34.9,34.9,0,0,1,18.2-18.19,40.89,40.89,0,0,1,12.84-2.5,34,34,0,0,1,31.39,20.69Zm-113.63-75.63h14.16a6.68,6.68,0,0,0,6.27-9l-7.14-19.52a6.68,6.68,0,0,0-12.56,0l-7,19.53A6.68,6.68,0,0,0,1948.69,1333.22Z" transform="translate(-157.81 -1082.17)" fill="#212529"/><path d="M2254.24,1292.55c0,32.46-9.63,57.79-28.54,75.63-21.4,19.62-47.09,21.76-57.08,21.76h-2.49l-23.55-.36v35.68a33.54,33.54,0,0,1-67.07,0V1239a33.73,33.73,0,0,1,33.54-33.54h59.57a92.49,92.49,0,0,1,23.19,3.57,82.48,82.48,0,0,1,38.53,21.76C2246,1246.53,2254.24,1267.22,2254.24,1292.55Zm-57.08,0c0-7.49-1.42-13.56-3.92-18.2a24,24,0,0,0-8.92-7.84,41.3,41.3,0,0,0-15.7-3.93h-36.39v70.28l35,.36h1.42c1.79,0,11.42-.36,18.56-6.78C2194,1320,2197.16,1308.6,2197.16,1292.55Z" transform="translate(-157.81 -1082.17)" fill="#212529"/><text transform="matrix(1, -0.06, 0.06, 1, 1384.31, 516.07)" font-size="155.37" fill="#212529" font-family="Abdillah">Rise of the P<tspan x="611.97" y="0" letter-spacing="-0.02em">i</tspan><tspan x="637.92" y="0" letter-spacing="0.02em">g</tspan><tspan x="694.62" y="0" letter-spacing="0em">s</tspan></text></svg>