<svg xmlns="http://www.w3.org/2000/svg" viewBox="0 0 978.25 165.53"><path d="M154.17,571.19a46.17,46.17,0,0,1-21.32,16.72,62.76,62.76,0,0,1-25.3,5,70.62,70.62,0,0,1-14.85-1.67c-15.26-2.93-28.43-10.66-37.21-21.33a20.45,20.45,0,0,1,2.72-28.64,20.84,20.84,0,0,1,13-4.6,20.23,20.23,0,0,1,15.68,7.53c2.93,3.55,7.74,6.27,13.8,7.52a38.34,38.34,0,0,0,6.9.63,27.74,27.74,0,0,0,9.83-1.67,9.88,9.88,0,0,0,3.34-2.3,5.18,5.18,0,0,0,.21-1.88c-.21-.84-.21-1.26-2.3-2.72-3.76-2.72-9.83-4.81-16.31-7.32-9-3.34-18.19-6.69-26.34-12.75a40.88,40.88,0,0,1-12.75-14.22A41.34,41.34,0,0,1,58,488.6a43.24,43.24,0,0,1,9.2-27.38A47.84,47.84,0,0,1,88.52,446a66.14,66.14,0,0,1,21.33-3.55A70.76,70.76,0,0,1,123,443.65c12.75,2.72,23.83,9,31.36,17.78a20.25,20.25,0,0,1-2.3,28.64,19.52,19.52,0,0,1-13,4.81,20.45,20.45,0,0,1-15.47-7.11c-1.68-2.09-5-3.77-8.78-4.39a20.61,20.61,0,0,0-5-.63,20,20,0,0,0-7.32,1.25c-2.3.84-3.13,1.68-3.34,2.1a3.14,3.14,0,0,0-.84,2.5,4.58,4.58,0,0,0,.21,1.26,4.74,4.74,0,0,0,1.46,1.46c3.56,2.51,9.83,4.81,16.31,7.32,8.57,3.14,17.35,6.27,25.3,11.71a49.18,49.18,0,0,1,12.75,12.75,40.91,40.91,0,0,1,6.69,19A42.35,42.35,0,0,1,154.17,571.19Zm89.69-19.86a19.76,19.76,0,0,1,0,39.51H187.62A20,20,0,0,1,167.76,571V462.05a19.76,19.76,0,0,1,39.51,0v89.28ZM616,571.19a46.12,46.12,0,0,1-21.32,16.72,62.76,62.76,0,0,1-25.3,5,70.53,70.53,0,0,1-14.84-1.67c-15.26-2.93-28.44-10.66-37.22-21.33A20.45,20.45,0,0,1,520,541.29a20.84,20.84,0,0,1,13-4.6,20.21,20.21,0,0,1,15.68,7.53c2.93,3.55,7.74,6.27,13.8,7.52a38.34,38.34,0,0,0,6.9.63,27.7,27.7,0,0,0,9.83-1.67,9.77,9.77,0,0,0,3.34-2.3,5.18,5.18,0,0,0,.21-1.88c-.21-.84-.21-1.26-2.3-2.72-3.76-2.72-9.82-4.81-16.3-7.32-9-3.34-18.19-6.69-26.35-12.75a42.26,42.26,0,0,1-18-35.13,43.3,43.3,0,0,1,9.2-27.38A47.87,47.87,0,0,1,550.36,446a66.08,66.08,0,0,1,21.32-3.55,70.76,70.76,0,0,1,13.17,1.25c12.76,2.72,23.84,9,31.36,17.78a20.24,20.24,0,0,1-2.3,28.64,19.52,19.52,0,0,1-13,4.81,20.45,20.45,0,0,1-15.47-7.11c-1.67-2.09-5-3.77-8.78-4.39a20.55,20.55,0,0,0-5-.63,20.05,20.05,0,0,0-7.32,1.25c-2.3.84-3.13,1.68-3.34,2.1a3.14,3.14,0,0,0-.84,2.5,4.58,4.58,0,0,0,.21,1.26,4.69,4.69,0,0,0,1.47,1.46c3.55,2.51,9.82,4.81,16.3,7.32,8.58,3.14,17.36,6.27,25.3,11.71a49,49,0,0,1,12.75,12.75,40.81,40.81,0,0,1,6.7,19A42.41,42.41,0,0,1,616,571.19ZM810,470.41,774.48,577.46a19.56,19.56,0,0,1-18,13.38h-.63a19.42,19.42,0,0,1-18.19-12.12l-18.4-45-18.39,45a19.85,19.85,0,0,1-18.19,12.12h-.84a19.56,19.56,0,0,1-18-13.38l-35.33-107a19.54,19.54,0,0,1,12.33-24.87,21.79,21.79,0,0,1,6.27-1.05A19.78,19.78,0,0,1,666,458.08l18.61,56.24,16.31-40.14a19.85,19.85,0,0,1,36.58,0L754,514.32l18.61-56.24a19.71,19.71,0,0,1,18.61-13.59,21.79,21.79,0,0,1,6.27,1.05,20.48,20.48,0,0,1,11.5,9.82A19.83,19.83,0,0,1,810,470.41Zm106.63,93.25A19.69,19.69,0,0,1,906,589.38a18.6,18.6,0,0,1-7.52,1.46,19.62,19.62,0,0,1-18.19-12.12l-8.36-20.08H836.16l-7.95,19.87A19.84,19.84,0,0,1,810,590.63a18,18,0,0,1-7.53-1.46,19.62,19.62,0,0,1-10.87-25.72l44.12-105.79c0-.42.21-.63.21-1A20.43,20.43,0,0,1,846.61,446a24.21,24.21,0,0,1,7.53-1.46,19.89,19.89,0,0,1,18.39,12.13ZM848.9,519.34h10.64a3.4,3.4,0,0,0,3.05-4.9L857.48,504a3.69,3.69,0,0,0-6.64,0l-5,10.4A3.4,3.4,0,0,0,848.9,519.34Zm75.48,50.86V464.14A19.76,19.76,0,0,1,944,444.49H979a54.26,54.26,0,0,1,13.59,2.09,48.45,48.45,0,0,1,22.58,12.75c9.2,9.2,14,21.33,14,36.17,0,19-5.65,33.87-16.73,44.33-12.54,11.5-27.6,12.75-33.45,12.75h-1.47l-13.79-.21V570Zm71.29-74.7a22.31,22.31,0,0,0-2.3-10.66,14.11,14.11,0,0,0-5.22-4.6,24.23,24.23,0,0,0-9.2-2.3H957.62v41.19l20.49.21H979c1,0,6.69-.21,10.87-4C993.79,511.6,995.67,504.91,995.67,495.5ZM407.15,570.2V464.14a19.77,19.77,0,0,1,19.66-19.65h34.91a54.21,54.21,0,0,1,13.59,2.09,48.41,48.41,0,0,1,22.58,12.75c9.2,9.2,14,21.33,14,36.17,0,19-5.65,33.87-16.73,44.33-12.54,11.5-27.59,12.75-33.45,12.75h-1.46l-13.8-.21V570Zm71.3-74.7a22.43,22.43,0,0,0-2.3-10.66,14.23,14.23,0,0,0-5.23-4.6,24.23,24.23,0,0,0-9.2-2.3H440.4v41.19l20.49.21h.83c1,0,6.69-.21,10.87-4C476.57,511.6,478.45,504.91,478.45,495.5Z" transform="translate(-50.87 -427.64)" fill="#fff"/><path d="M963.69,573.51a19.66,19.66,0,1,1-39.31,0Zm-556.54,0a19.66,19.66,0,1,0,39.31,0Zm-198-84.92c.62,1.13,8.49,5.15,11.48,5.39.27.59,4.25,3.2,7.26,4.6-3.29,21.25,4.56,40.8,15.81,51.46,17.62,16.7,26,20.41,26,20.41s-.46,19,.46,19.48,2.79,3.24,8.35,3.24h20.64c4.63,0,4.87-2.79,5.56-3.94s-.69-7,0-7.19,26.43-.46,29.44-.46c-.46,3.48.47,10.43,5.34,10.43s17.62,1.16,22.71,1.16a8.22,8.22,0,0,0,7.43-4.41c.46-.69-.7-15.76,0-18.31l.4-.18c5.17-2.5,25.45-17,29.5-24.16,10.67-.24,29.68-5.11,32.92-32.93,0-1,0-1.88-.05-2.77-.11-5.2-.2-9.3-.34-12.51-.41-9.33-1.27-11.28-4.24-11.38-4-.12-17.85.47-19.24,0-2.79-9-15.54-29.44-28.75-35.94-.93-18.78-.93-21.32-1.39-22.48a0,0,0,0,0,0,0c-.66-1.15-18.32-.84-21.54,10.91l-.11,0c-2.55-.82-6.1-1.92-10.47-3-14.12-3.42-36.69-6.39-61.17,1.91a106.84,106.84,0,0,0-37.89,22.76l-1.65,1.53c-9.18,10.44-14.48,21.47-16.87,32.19a4.89,4.89,0,0,1-3-2.35c.84-.37,2.42-2.85,3.31-6.58s-3.64-5.55-6.71-5.44-4.16,5.61-4.5,8.88c-.67.69-4.78-3.85-6.79-4.88S208.56,487.45,209.17,488.59Zm13.16-3.84a2.29,2.29,0,0,1,1.47-.78,1,1,0,0,1,1,.12,1,1,0,0,1,.2.51,4.36,4.36,0,0,1,0,2.24,3.24,3.24,0,0,1-.67,1,1.63,1.63,0,0,1-.51.43.7.7,0,0,1-.66,0c-.19-.11-.35-.36-.56-.29l-.3-1.49A2.33,2.33,0,0,1,222.33,484.75Zm129.86-30.46c.13-2.5,1.55-4.72,2.95-6.8a15.83,15.83,0,0,0,2.12-3.84,9,9,0,0,0,.44-2.81l.11,0c3.22-11.75,20.88-12.06,21.54-10.92-4.82,1.85-9.23,5-11.81,9.44-.51.87-.94,1.79-1.37,2.71q-2.84,6.18-5.25,12.53a6.07,6.07,0,0,1-2,3.16,5.06,5.06,0,0,1-3.72.4,4.34,4.34,0,0,1-1.82-.69A3.72,3.72,0,0,1,352.19,454.29Z" transform="translate(-50.87 -427.64)" fill="#ffa37e"/><path d="M285.12,442.59c24.48-8.3,47.05-5.33,61.17-1.91a6.94,6.94,0,0,1,.74,4.63c-.6,3.3-3.23,5.35-5.88,4.73A109.62,109.62,0,0,0,291,450c-2.65.62-5.28-1.43-5.88-4.73A7.1,7.1,0,0,1,285.12,442.59Zm97,40.8a5.92,5.92,0,1,0,5.92-5.91A5.91,5.91,0,0,0,382.13,483.39Z" transform="translate(-50.87 -427.64)" fill="#191228" stroke="#231f20" stroke-miterlimit="10"/></svg>