<svg xmlns="http://www.w3.org/2000/svg" xmlns:xlink="http://www.w3.org/1999/xlink" viewBox="0 0 152.99 25.9"><defs><linearGradient id="a" x1="80.02" y1="1034.44" x2="167.07" y2="1034.44" gradientTransform="translate(-19.31 -1010.08)" gradientUnits="userSpaceOnUse"><stop offset="0.04" stop-color="#c49a6c"/><stop offset="0.61" stop-color="#c49a6c"/></linearGradient></defs><path d="M147.76,22.83a3.08,3.08,0,0,1-6.16,0Zm-87,0a3.07,3.07,0,1,0,6.14,0Z" transform="translate(-5.01)" fill="url(#a)"/><path d="M21.16,22.46a7.08,7.08,0,0,1-3.33,2.61,9.79,9.79,0,0,1-4,.78,10.78,10.78,0,0,1-2.32-.26,10,10,0,0,1-5.82-3.34,3.21,3.21,0,0,1,.43-4.48,3.31,3.31,0,0,1,2-.72,3.16,3.16,0,0,1,2.45,1.18A3.74,3.74,0,0,0,12.8,19.4a6.46,6.46,0,0,0,1.07.1,4.55,4.55,0,0,0,1.55-.26,2.12,2.12,0,0,0,.53-.35.74.74,0,0,0,0-.3c0-.13,0-.19-.35-.42A13,13,0,0,0,13.07,17,15.69,15.69,0,0,1,9,15,6.54,6.54,0,0,1,6.12,9.54,6.78,6.78,0,0,1,7.56,5.25a7.43,7.43,0,0,1,3.33-2.38,10.53,10.53,0,0,1,3.34-.55,11.67,11.67,0,0,1,2.05.19,8.86,8.86,0,0,1,4.91,2.77,3.18,3.18,0,0,1-.35,4.47h0a3,3,0,0,1-2,.75A3.25,3.25,0,0,1,16.37,9.4,2.26,2.26,0,0,0,15,8.71a3.23,3.23,0,0,0-1.93.08,1.27,1.27,0,0,0-.53.33.47.47,0,0,0-.13.39.6.6,0,0,0,0,.2.84.84,0,0,0,.23.23,14.1,14.1,0,0,0,2.56,1.15,16.61,16.61,0,0,1,4,1.83,7.61,7.61,0,0,1,2,2,6.28,6.28,0,0,1,1,3A6.6,6.6,0,0,1,21.16,22.46Zm14-3.1a3.09,3.09,0,0,1,0,6.17h-8.8a3.12,3.12,0,0,1-3.1-3.1v-17a3.09,3.09,0,1,1,6.17,0v14Zm58.21,3.1a7.16,7.16,0,0,1-3.34,2.61,9.77,9.77,0,0,1-4,.78,10.65,10.65,0,0,1-2.32-.26A10,10,0,0,1,78,22.25a3.18,3.18,0,0,1,.43-4.48,3.3,3.3,0,0,1,2-.72,3.18,3.18,0,0,1,2.46,1.18A3.68,3.68,0,0,0,85,19.4a6.46,6.46,0,0,0,1.07.1,4.49,4.49,0,0,0,1.54-.26,2.12,2.12,0,0,0,.53-.35.73.73,0,0,0,0-.3c0-.13,0-.19-.37-.42A13,13,0,0,0,85.28,17a15.69,15.69,0,0,1-4.12-2,6.62,6.62,0,0,1-2.82-5.48,6.83,6.83,0,0,1,1.44-4.29,7.62,7.62,0,0,1,3.34-2.39,10.21,10.21,0,0,1,3.33-.56,11.87,11.87,0,0,1,2.06.19,8.9,8.9,0,0,1,4.91,2.78,3.17,3.17,0,0,1-.34,4.46l0,0a3.07,3.07,0,0,1-2,.75,3.22,3.22,0,0,1-2.42-1.12,2.32,2.32,0,0,0-1.37-.69,3.32,3.32,0,0,0-.77-.1,3,3,0,0,0-1.15.19,1.07,1.07,0,0,0-.53.32.49.49,0,0,0-.13.4.58.58,0,0,0,0,.19.75.75,0,0,0,.23.24,14.16,14.16,0,0,0,2.56,1.14,17,17,0,0,1,4,1.84,7.46,7.46,0,0,1,2,2,6.49,6.49,0,0,1,1.06,3,6.91,6.91,0,0,1-1.1,4.57ZM123.72,6.69l-5.55,16.75a3,3,0,0,1-2.81,2.09h-.1a3,3,0,0,1-2.85-1.9l-2.88-7-2.86,7a3.1,3.1,0,0,1-2.85,1.89h-.14a3.09,3.09,0,0,1-2.82-2.08L95.35,6.69a3.06,3.06,0,0,1,1.91-3.88h0a3.3,3.3,0,0,1,1-.16,3.09,3.09,0,0,1,2.94,2.13l2.91,8.8,2.56-6.27a3.1,3.1,0,0,1,4.07-1.66,3.07,3.07,0,0,1,1.66,1.66L115,13.58l2.91-8.8a3.11,3.11,0,0,1,2.91-2.13,3.24,3.24,0,0,1,1,.16,3.16,3.16,0,0,1,1.8,1.55A3,3,0,0,1,123.72,6.69Zm16.69,14.59a3.1,3.1,0,0,1-1.66,4,2.74,2.74,0,0,1-1.17.22,3.09,3.09,0,0,1-2.85-1.9l-1.31-3.14h-5.6l-1.25,3.1a3.08,3.08,0,0,1-2.85,1.89,2.66,2.66,0,0,1-1.17-.23,3.08,3.08,0,0,1-1.72-4s0,0,0-.05l6.91-16.54c0-.06,0-.1,0-.16a3.17,3.17,0,0,1,1.66-1.66,4.35,4.35,0,0,1,1.17-.24,3.15,3.15,0,0,1,2.88,1.9Zm-10.6-6.93h1.66a.53.53,0,0,0,.53-.53.5.5,0,0,0-.06-.24l-.8-1.63a.57.57,0,0,0-.78-.26.65.65,0,0,0-.26.26l-.78,1.63a.55.55,0,0,0,.25.72A.64.64,0,0,0,129.81,14.35Zm11.81,8V5.72a3.08,3.08,0,0,1,3.07-3.07h5.46a9,9,0,0,1,2.13.33A7.52,7.52,0,0,1,158,10.63a9.09,9.09,0,0,1-2.62,6.94,7.89,7.89,0,0,1-5.23,2h-.22l-2.16,0v2.75Zm11.15-11.69a3.52,3.52,0,0,0-.37-1.68,2,2,0,0,0-.82-.72,3.47,3.47,0,0,0-1.44-.35H146.8V14.3l3.21,0h.13a2.75,2.75,0,0,0,1.7-.61,4.08,4.08,0,0,0,.93-3.1Zm-92,11.69V5.72A3.08,3.08,0,0,1,63.8,2.65h5.46A9,9,0,0,1,71.39,3a7.52,7.52,0,0,1,5.72,7.65,9.09,9.09,0,0,1-2.62,6.94,7.94,7.94,0,0,1-5.23,2H69l-2.16,0v2.75ZM71.88,10.62A3.51,3.51,0,0,0,71.51,9a2.1,2.1,0,0,0-.82-.72,3.64,3.64,0,0,0-1.44-.36H65.93v6.44l3.2,0h.13A2.75,2.75,0,0,0,71,13.73a4.25,4.25,0,0,0,.91-3.11Z" transform="translate(-5.01)" fill="#fff"/><path d="M29.76,9.54a4.46,4.46,0,0,0,1.79.84,4.67,4.67,0,0,0,1.13.72,9.38,9.38,0,0,0,2.47,8,17.72,17.72,0,0,0,4.05,3.19,20.83,20.83,0,0,0,.08,3,1.81,1.81,0,0,0,1.3.52h3.24a.8.8,0,0,0,.86-.62c.11-.18-.1-1.09,0-1.13s4.13-.08,4.6-.08c-.07.55.07,1.63.84,1.63s2.76.18,3.55.18a1.26,1.26,0,0,0,1.16-.69c.08-.1-.1-2.47,0-2.86l.06,0c.81-.4,4-2.66,4.62-3.78,1.67,0,4.64-.79,5.14-5.16a2.88,2.88,0,0,0,0-.42c0-.81,0-1.46,0-2-.06-1.45-.21-1.76-.67-1.77s-2.79.07-3,0c-.44-1.41-2.42-4.6-4.49-5.63A28.77,28.77,0,0,0,56.19.07h0c-.11-.18-2.87-.13-3.37,1.7h0c-.4-.13-1-.29-1.63-.47a17.23,17.23,0,0,0-9.57.3,16.66,16.66,0,0,0-5.92,3.55,3,3,0,0,0-.26.24,11.38,11.38,0,0,0-2.65,5,.83.83,0,0,1-.47-.37,1.8,1.8,0,0,0,.52-1c.13-.59-.58-.87-1-.85s-.64.88-.7,1.38c-.1.1-.75-.6-1.06-.77S29.67,9.37,29.76,9.54Zm2-.6a.33.33,0,0,1,.24-.12.18.18,0,0,1,.14,0,.16.16,0,0,1,0,.09.69.69,0,0,1,0,.35.49.49,0,0,1-.1.15s0,0-.09.06h-.1s-.06-.06-.09-.05,0-.15,0-.23a.42.42,0,0,1,0-.27ZM52.13,4.18a2.15,2.15,0,0,1,.46-1.06,2.69,2.69,0,0,0,.33-.6A1.36,1.36,0,0,0,53,2.08h0C53.51.24,56.27.19,56.38.38a3.59,3.59,0,0,0-1.85,1.47,4.13,4.13,0,0,0-.22.42c-.3.65-.58,1.29-.83,2a1,1,0,0,1-.32.49.8.8,0,0,1-.59.06.69.69,0,0,1-.28-.11.61.61,0,0,1-.16-.49ZM29.76,9.54a4.46,4.46,0,0,0,1.79.84,4.67,4.67,0,0,0,1.13.72,9.38,9.38,0,0,0,2.47,8,17.72,17.72,0,0,0,4.05,3.19,20.83,20.83,0,0,0,.08,3,1.81,1.81,0,0,0,1.3.52h3.24a.8.8,0,0,0,.86-.62c.11-.18-.1-1.09,0-1.13s4.13-.08,4.6-.08c-.07.55.07,1.63.84,1.63s2.76.18,3.55.18a1.26,1.26,0,0,0,1.16-.69c.08-.1-.1-2.47,0-2.86l.06,0c-.76-.21-1.57-.33-2.33-.46A20.78,20.78,0,0,1,35.74,5.3a.5.5,0,0,0,0-.13l-.27.23a11.41,11.41,0,0,0-2.64,5,.76.76,0,0,1-.47-.37,1.75,1.75,0,0,0,.51-1c.13-.58-.57-.86-1-.85s-.65.88-.71,1.38c-.1.11-.75-.6-1.06-.76S29.67,9.37,29.76,9.54Zm2-.6a.33.33,0,0,1,.24-.12.18.18,0,0,1,.14,0,.16.16,0,0,1,0,.09.69.69,0,0,1,0,.35.49.49,0,0,1-.1.15s0,0-.09.06h-.1s-.06-.06-.09-.05,0-.15,0-.23a.42.42,0,0,1,0-.27Z" transform="translate(-5.01)" fill="#ffa37e"/><path d="M41.64,2.34a17.21,17.21,0,0,1,9.57-.29,1.19,1.19,0,0,1,.13.53.78.78,0,0,1,0,.21.79.79,0,0,1-.92.73,17.34,17.34,0,0,0-7.85,0,.81.81,0,0,1-.92-.73A1.36,1.36,0,0,1,41.64,2.34ZM56.82,8.72a.93.93,0,1,0,.92-.92.92.92,0,0,0-.92.92Z" transform="translate(-5.01)" fill="#8a5846"/></svg>