<svg xmlns="http://www.w3.org/2000/svg" viewBox="0 0 485.8 360.12"><path d="M13.66,208.66c1.43,2.45,18.39,11.24,24.92,11.65.62,1.22,9.2,6.94,15.74,10-7.15,46.17,10,88.67,34.32,112C127.05,378.65,145,386.62,145,386.62s-1,41.27,1,42.29,6.13,7.15,18.19,7.15h44.94c10,0,10.63-6.13,12.06-8.58s-1.43-15.12,0-15.73,57.41-1,63.95-1c-1,7.56,1,22.67,11.64,22.67s38.42,2.46,49.45,2.46a17.8,17.8,0,0,0,16.14-9.61c1-1.43-1.43-34.32,0-39.84l.82-.41c11.23-5.51,55.37-37,64.15-52.5,23.29-.41,64.56-11,71.51-71.72a56.6,56.6,0,0,0-.2-5.92c-.21-11.24-.41-20.23-.82-27.18-.82-20.22-2.86-24.51-9.2-24.72-8.58-.2-38.82,1-41.88,0-6.13-19.61-33.71-64-62.52-78.25-2-40.86-2-46.38-3.06-48.83h0c-1.43-2.45-39.85-1.84-46.79,23.7h-.21c-5.51-1.84-13.28-4.09-22.67-6.54-30.65-7.35-79.69-13.89-133,4.09A232.22,232.22,0,0,0,96.2,147.57c-1.23,1-2.45,2.25-3.68,3.27-20,22.68-31.46,46.79-36.77,70.08a11,11,0,0,1-6.54-5.11c1.84-.82,5.31-6.13,7.15-14.3s-8-12-14.51-11.85-9,12.26-9.8,19.21c-1.43,1.43-10.42-8.38-14.71-10.63S12.43,206.21,13.66,208.66Zm28.6-8.38a4.27,4.27,0,0,1,3.27-1.63,2.46,2.46,0,0,1,2,.2,2.85,2.85,0,0,1,.41,1.23,9.91,9.91,0,0,1,0,4.9A7.32,7.32,0,0,1,46.55,207c-.2.41-.61.61-1.22.81a1.7,1.7,0,0,1-1.43,0c-.41-.2-.82-.81-1.23-.61-.2-1-.41-2-.61-3.27a5.69,5.69,0,0,1,.2-3.68Zm282.57-66.19c.2-5.52,3.26-10.22,6.33-14.71a42.42,42.42,0,0,0,4.7-8.38,21.5,21.5,0,0,0,1-6.13h.2c6.95-25.54,45.36-26.36,46.79-23.7-10.42,4.09-20,10.83-25.74,20.43-1,1.84-2,3.88-3.07,5.93-4.08,9-8,18-11.44,27.17a14.17,14.17,0,0,1-4.49,7,11.24,11.24,0,0,1-8.17.81,8.21,8.21,0,0,1-3.89-1.63,8.08,8.08,0,0,1-2.24-6.74ZM13.66,208.66c1.43,2.45,18.39,11.24,24.92,11.65.62,1.22,9.2,6.94,15.74,10-7.15,46.17,10,88.67,34.32,112C127.05,378.65,145,386.62,145,386.62s-1,41.27,1,42.29,6.13,7.15,18.19,7.15h44.94c10,0,10.63-6.13,12.06-8.58s-1.43-15.12,0-15.73,57.41-1,63.95-1c-1,7.56,1,22.67,11.64,22.67s38.42,2.46,49.45,2.46a17.8,17.8,0,0,0,16.14-9.61c1-1.43-1.43-34.32,0-39.84l.82-.41c-10.63-2.86-21.87-4.49-32.49-6.33C212.86,359.24,119.7,267.5,96.81,149.61a5.76,5.76,0,0,0-.41-1.83c-1.22,1-2.45,2.24-3.67,3.27-20,22.67-31.47,46.78-36.78,70.07a11,11,0,0,1-6.54-5.1c1.84-.82,5.31-6.13,7.15-14.31s-8-12.05-14.5-11.85-9,12.26-9.81,19.21c-1.43,1.43-10.42-8.38-14.71-10.62S12.43,206.21,13.66,208.66Zm28.6-8.38a4.27,4.27,0,0,1,3.27-1.63,2.46,2.46,0,0,1,2,.2,2.85,2.85,0,0,1,.41,1.23,9.91,9.91,0,0,1,0,4.9A7.32,7.32,0,0,1,46.55,207c-.2.41-.61.61-1.22.81a1.7,1.7,0,0,1-1.43,0c-.41-.2-.82-.81-1.23-.61-.2-1-.41-2-.61-3.27a5.69,5.69,0,0,1,.2-3.68Z" transform="translate(-13.1 -75.94)" fill="#ffa37e"/><path d="M179,108.55c53.32-18,102.36-11.65,133-4.09a15.08,15.08,0,0,1,1.84,7.36,13.77,13.77,0,0,1-.2,2.86c-1.23,7.15-6.95,11.64-12.87,10.21a240.2,240.2,0,0,0-109.11,0c-5.72,1.43-11.44-3.06-12.87-10.21A20.67,20.67,0,0,1,179,108.55ZM390,197.22a12.87,12.87,0,1,0,12.87-12.87A12.82,12.82,0,0,0,390,197.22Z" transform="translate(-13.1 -75.94)" fill="#8a5846"/></svg>