<svg xmlns="http://www.w3.org/2000/svg" viewBox="0 0 30.08 22.3"><path d="M1,13.07a3.88,3.88,0,0,0,1.54.72,4.14,4.14,0,0,0,1,.62,8.06,8.06,0,0,0,2.13,6.93,15.69,15.69,0,0,0,3.49,2.75,19.35,19.35,0,0,0,.06,2.62,1.61,1.61,0,0,0,1.13.44H13.1a.7.7,0,0,0,.75-.53c.09-.15-.09-.94,0-1s3.55-.06,4-.06c-.07.47.06,1.4.72,1.4s2.38.16,3.06.16a1.1,1.1,0,0,0,1-.6c.06-.09-.09-2.12,0-2.47l.05,0a15.19,15.19,0,0,0,4-3.25c1.44,0,4-.68,4.43-4.44,0-.13,0-.25,0-.37,0-.69,0-1.25-.05-1.68-.05-1.25-.18-1.52-.57-1.53s-2.41.06-2.6,0c-.38-1.22-2.08-4-3.87-4.85a20,20,0,0,0-.19-3h0c-.09-.15-2.46-.11-2.89,1.47h0c-.34-.12-.82-.26-1.4-.41a14.89,14.89,0,0,0-8.24.26A14.18,14.18,0,0,0,6.11,9.29l-.23.2A9.84,9.84,0,0,0,3.6,13.83a.68.68,0,0,1-.4-.32,1.5,1.5,0,0,0,.44-.88c.11-.51-.49-.75-.9-.74s-.56.76-.61,1.19c-.08.09-.64-.52-.91-.66S.92,12.92,1,13.07Zm1.77-.52a.26.26,0,0,1,.2-.1.2.2,0,0,1,.13,0,.24.24,0,0,1,0,.08.51.51,0,0,1,0,.3A.38.38,0,0,1,3,13,.13.13,0,0,1,3,13H2.87s-.05,0-.08,0a1.77,1.77,0,0,0,0-.2.37.37,0,0,1,0-.23Zm17.49-4.1a1.76,1.76,0,0,1,.39-.91A2,2,0,0,0,20.94,7,1.22,1.22,0,0,0,21,6.64h0c.43-1.58,2.81-1.63,2.9-1.46a3.18,3.18,0,0,0-1.6,1.26l-.19.37c-.25.55-.49,1.11-.7,1.68a1,1,0,0,1-.28.43.69.69,0,0,1-.51.05.47.47,0,0,1-.24-.1.53.53,0,0,1-.14-.42ZM1,13.07a3.88,3.88,0,0,0,1.54.72,4.14,4.14,0,0,0,1,.62,8.06,8.06,0,0,0,2.13,6.93,15.69,15.69,0,0,0,3.49,2.75,19.35,19.35,0,0,0,.06,2.62,1.61,1.61,0,0,0,1.13.44H13.1a.7.7,0,0,0,.75-.53c.09-.15-.09-.94,0-1s3.55-.06,4-.06c-.07.47.06,1.4.72,1.4s2.38.16,3.06.16a1.1,1.1,0,0,0,1-.6c.06-.09-.09-2.12,0-2.47l.05,0a20.35,20.35,0,0,0-2-.39A17.93,17.93,0,0,1,6.14,9.41a.52.52,0,0,0,0-.11l-.23.2a9.89,9.89,0,0,0-2.28,4.34.67.67,0,0,1-.4-.32,1.5,1.5,0,0,0,.44-.88c.12-.51-.49-.75-.9-.73s-.55.75-.6,1.18c-.09.09-.65-.51-.91-.65S.92,12.92,1,13.07Zm1.77-.52a.26.26,0,0,1,.2-.1.2.2,0,0,1,.13,0,.24.24,0,0,1,0,.08.51.51,0,0,1,0,.3A.38.38,0,0,1,3,13,.13.13,0,0,1,3,13H2.87s-.05,0-.08,0a1.77,1.77,0,0,0,0-.2.37.37,0,0,1,0-.23Z" transform="translate(-0.96 -4.85)" fill="#ffa37e"/><path d="M11.23,6.87a14.75,14.75,0,0,1,8.23-.25.89.89,0,0,1,.12.45,1,1,0,0,1,0,.18.69.69,0,0,1-.8.63,14.84,14.84,0,0,0-6.76,0,.69.69,0,0,1-.79-.63A1,1,0,0,1,11.23,6.87ZM24.3,12.36a.8.8,0,1,0,.79-.8.79.79,0,0,0-.79.8Z" transform="translate(-0.96 -4.85)" fill="#8a5846"/></svg>