<svg xmlns="http://www.w3.org/2000/svg" xmlns:xlink="http://www.w3.org/1999/xlink" viewBox="0 0 1920 1383.08"><defs><clipPath id="a" transform="translate(0 -195.59)"><rect width="1920" height="1080" fill="none"/></clipPath></defs><g clip-path="url(#a)"><path d="M0,1578.67V362.07c9.45-1,18.89-2.75,28.34-2.76,26.3,0,52.61.24,78.89,1.18,32.82,1.19,65.1,6.91,97.19,13.51,19.78,4.07,39.72,7.55,59.84,6.05,16.9-1.26,33.72-4.47,50.38-7.78,14.88-2.95,29.47-7.39,44.27-10.82,11.15-2.58,22.43-3.62,33.56.4a90.41,90.41,0,0,1,9.34,3.66c22,10.78,44.05,21.45,65.87,32.56,31,15.78,61.84,31.91,92.76,47.87,1.59.83,3.25,1.87,5,2.07,16.1,1.83,32.13,4.45,48.08-1.83,28.77-11.34,58-21.58,86.56-33.36a161.31,161.31,0,0,1,66.35-12.29A217.51,217.51,0,0,0,794.91,399a45.92,45.92,0,0,0,14-4.23c25.07-11.51,49.92-23.49,75-34.86,12.91-5.83,26.27-10.65,39.38-16,9.53-3.91,19-8,28.49-12a232.86,232.86,0,0,1,45.55-14.64c13.35-2.68,26.69-1.62,40.09-1,28.09,1.27,54.83,9.09,81.61,16.66,11.56,3.27,22.41,1.24,33-3.34,7.34-3.17,14.53-6.65,21.73-10.11,7.89-3.79,15.61-7.95,23.59-11.52,12-5.37,24.11-10.44,36.24-15.48,6.65-2.76,13.44-5.2,20.17-7.79.48-.19.91-.5,1.4-.64,15.55-4.55,30.84-10.73,46.7-13.24a213.49,213.49,0,0,1,76.17,1.94c16.41,3.32,32.85,6.53,49.14,10.35,8.24,1.93,16.13,5.32,24.3,7.64,3.64,1,7.56,1.08,9.51,1.33,4.44-3.74,7.19-7.1,10.73-8.83,12.6-6.16,23.7-14.46,35-22.62,12.32-8.89,25.53-16.51,38.08-25.11,10.59-7.25,22.15-11.79,34.45-15.16,8-2.18,15.77-2.21,23.74-1.39,20.17,2.09,39.43,7.8,58.2,15.2,17.5,6.9,35.16,13.51,52.2,21.44,12.69,5.9,25.12,4.09,37.86,2.12,4.32-.67,8.61-1.64,12.87-2.65,12.59-3,25-2,37.52.89,34,7.89,66.6,20,98.56,33.93,6.61,2.88,13.2,5.82,19.8,8.73V1578.67Z" transform="translate(0 -195.59)" fill="#736357"/><path d="M668.33,388.6l17.72-18.23c-7.42-4.39-13.95-8.3-20.51-12.13-4-2.34-8.16-4.4-12.07-6.86-3.65-2.29-6.62-2.19-9.61,2.12C651.73,364.8,659.74,376.28,668.33,388.6Z" transform="translate(0 -195.59)" fill="#ff9e2e"/><path d="M680.69,308.43,649.63,333l3,6.43c8.32.18,28.78-4.72,37.51-9.12C687.17,323.42,684.17,316.47,680.69,308.43Z" transform="translate(0 -195.59)" fill="#ff9e2e"/><path d="M632.83,331l9-.68c2.07-13,4.11-25.88,6.27-39.5H627C628.89,304.05,630.8,317.1,632.83,331Z" transform="translate(0 -195.59)" fill="#ff9e2e"/><path d="M600.38,303.07c-3.68,5.77-6.92,10.87-10.52,16.53,12,8.1,24.88,13.29,37.35,19.47,2.18-2.92,4-5.47,1-8.41C619.16,321.62,610,312.63,600.38,303.07Z" transform="translate(0 -195.59)" fill="#ff9e2e"/><path d="M621.05,392.28l19.6,3.73c-.48-14.54-.93-28-1.39-41.64l-5.85-2.23C628.57,365.12,624,377.78,621.05,392.28Z" transform="translate(0 -195.59)" fill="#ff9e2e"/><path d="M639.12,349a7.51,7.51,0,0,0,7.89-7.56c0-4.22-3.33-7.46-7.92-7.66a7.37,7.37,0,0,0-7.81,7.56A7.64,7.64,0,0,0,639.12,349Z" transform="translate(0 -195.59)" fill="#ff9e2e"/><path d="M1920,1548.67V483.81c-12-3.06-23.81-7.09-36-8.89-10.88-1.61-21.84-3-32.74-4.38-13-1.59-26-3.4-39-4.56-23.86-2.13-47.81-4.24-71.82-1.45a16.6,16.6,0,0,1-3.85-.14c-3.85-.44-4.47-2.7-3.6-5.56,5.45-.64,10.5-1.26,15.56-1.82,1-.1,2.38-.37,2.86.13,4.63,4.86,11.12,3.59,16.71,5,8,2,13.54-2.86,13.9-11.13.1-2.29,0-4.6,0-7.55-7-.52-7.55-5.47-7.52-10.68q.18-25.92.49-51.85a9.85,9.85,0,0,1,.94-2.82c2.28-.34,4.32-.57,6.33-1s3.82-.94,6.65-1.66c-18.24-24.35-36.89-47.15-57.34-68.41a16.17,16.17,0,0,0-2.65,1.64,579.11,579.11,0,0,0-51.7,61.6c-1.08,1.48-1.42,3.5-2.28,5.75l11.09,1.84a15.91,15.91,0,0,1,.59,2.81c0,17.54,0,35.08-.3,52.61a8.28,8.28,0,0,1-3,5.66c-2,1.47-3.26,2.72-3.72,5.3-1.12,6.27-2.69,12.45-4.16,19.05l-16.29.88a55.31,55.31,0,0,1-.34-6.41c.6-9.2,1.69-18.38,1.94-27.6.5-17.79.53-35.59.81-53.39q.32-19.32.84-38.65a7.43,7.43,0,0,1,1-4.24c2.76-3.42,2.51-7.27,1.83-11.06-4-22-16.29-36.8-37.92-43.43-34.4-10.54-60.49,14.44-67.42,37.55-1.19,4-2,9.73,0,12.66,2.86,4.21,2.46,8,2.44,12.23,0,7.22-.12,14.44-.19,21.67-.12,12.38.59,24.84-.56,37.13-2,21,.34,41.65,2.65,62.37a38.77,38.77,0,0,0,2,7.46c.75,2.34,1.72,4.61,2.85,7.56l-16.7,3c-.34-5.45-.62-10-.92-14.76l-13.35,5.87,7,12.43c-11.94,6.36-21.22,14.71-27.92,25.81-1.26,2.09-3,3.58-6.16,1.79a55.91,55.91,0,0,0-4.22-26.93c-1.07-2.55-.17-5.93-.17-10.19,3.92,1,7.2,1.33,10,2.64,3.19,1.48,5.62.84,7.55-1.56a37.73,37.73,0,0,0,4.38-7.24c2.23-4.63,3.5-9.89,6.41-14,11.12-15.71,13.77-33,11-51.56-.88-5.95-3.49-10.89-8.93-14.1.52-3,1.07-5.72,1.48-8.52a63.48,63.48,0,0,0,1-8.44c.15-9-1.86-10.82-11.36-10.19,0-4.93.29-9.84-.12-14.69-.21-2.38-1.1-5.85-2.77-6.7-3.14-1.6-2.73-3.83-3.05-6.32-1.07-8.42-2.18-16.84-3.53-25.23-.31-1.91-1.21-4.23-2.64-5.31-1.23-.93-3.6-.37-5.57-.47,0-2.29-.06-4.32,0-6.35a92.14,92.14,0,0,0-4-31.32c-2.09-6.53-5.33-12.29-13.18-13.47-1.73-7.21-1.33-15.13-8-20.61l-6,4.36c-2-14.59-1.81-29.12-11.54-40.37-13.87,5.85-13.87,5.85-16.56,26.55-5.16-2-8.22.39-10.12,5.14a4.17,4.17,0,0,1-2.82,2.12c-3.69.47-4.62,3.31-5,6-.68,5.61-.82,11.28-1.19,16.92-.16,2.62.8,5.45-1.46,8.54-1-1.66-1.37-2.93-2.23-3.66-1.25-1.08-3-2.59-4.22-2.39s-2.67,2.12-3.26,3.58a23.31,23.31,0,0,0-1,6.07c-.64,5.8,1.11,12.36-5.36,16.29-.5.31-.72,1.41-.72,2.14,0,2.66-1.59,3.94-3.67,5.3-1.61,1-2.58,3.09-3.26,3.95h-15.82c-1.82-6-5.41-7.91-11-5.24-2-4.95-4.71-8.67-10.53-6.92-4.72,1.42-7.89-5.3-12.84-2.31a6,6,0,0,1-2.08,1c-4.2.53-8.66,2.06-12.36-1.12s-6.67-2.54-11.05-.48c-5.53,2.6-11.2,7.34-18.43,3.3-2.71-1.52-6.05.34-6.91,3.25-1.24,4.2-4.75,4.94-7.75,6.68-5.58,3.24-11.12,6.56-17.43,10.3-3.76-6-6.24,1.72-9.9,2.07-5.79.55-6.63,4.82-8,8.64-3.71,1.89-8.9,1.48-8.91,7.41,0,.58-1.25,1.32-2,1.73-5.75,3-10.4,7-11.71,12.82-3.31,1.07-6.75,1.17-8.24,2.93-1.67,2-1.59,5.47-2.18,7.93-2,2-5.16,3.58-5.71,5.83-1.17,4.76-1.19,9.85-1.21,14.81,0,1.07,1.77,2.41,3,3.17a31.5,31.5,0,0,0,5.26,2.08c-10.61,2-11.1,2.69-10.45,13.87-5.4,5.18-5.48,5.19-4,11.86.57,2.67.75,5-1.53,7.06s-2.45,4.38-1.31,7.06c2.19,5.15,1.16,10.25-.27,15.36-.33,1.2-.82,2.78-.32,3.69,1.79,3.32,3.45,7,6.19,9.41,1.73,1.51,5.27,1,8.32,1.39,1.05,2.94,3,6.12,3.09,9.36.09,2.69-.36,4.95,2,6.85a3,3,0,0,1,1,2.53c-2.17,6.63,2.63,10.81,5.37,15.84-1.44,3.16-4.36,6.54-4.07,9.6a39.15,39.15,0,0,0,4.9,15.6A55.39,55.39,0,0,0,1251.85,513c3.42,2.95,6.67,7.43,12.42,6.06,7.16,4.18,15.78,1.06,23.15,4.61,1.4.67,3.84-1.11,5.54-.7,5.79,1.42,10.63-.39,15-3.35l19.47,5.35c0,5.28,0,10.41,0,15.54s1.51,10.38.12,16.09c-6.55-3.92-11.19-9.48-18.72-10.76,2.51,6.48,8.6,10.66,8.49,18.47l-14-10c-.31.31-.61.63-.92,1l7.32,11.51c-12.9-7.65-12.9-7.65-18.36-7.73l9.43,11.58-8.83-3.74c1.21,3.26,2,5.29,2.94,7.92-7.3-1.76-12.28-8-20.47-6.75l8.93,12.16c-9,.75-12.59-7.28-20.15-7.86,1,6.48,2,12.63,3.25,20.7-4.81-5.39-8.25-9.46-11.93-13.32-3.49-3.66-5.5-9-11.78-11,2.84,7.46,5.34,14,7.84,20.56-5.94-3-8.47-9.69-15.43-10.72-.48,4,2.87,7.09.27,11.52-4.59-5.16-5.93-12-11.9-16-1.37,6.41,4,12.51-1.47,19.27-2.51-5.63-4.63-10.38-7.4-16.57-1.37,4.15-2.11,6.82-3.14,9.38s-1.51,6.17-5.22,6.24c-4.62-10.38-9.09-20.42-13.26-29.77-.48-4.11-.1-8.07-1.51-11.23a106.8,106.8,0,0,0-9.81-17.33c-3.2-4.62-7.38-8.55-11.36-13,3.72-4.48,2.43-8.76-.69-12.66a75.28,75.28,0,0,0-8.78-9.73c-10.7-9.37-21.95-18-35-23.89-1.38-.62-3.78-1.95-3.66-2.44,1.4-5.58-3.72-5.26-6.24-7.15-2.23-1.67-6.11-2.57-6.78-4.62-2.1-6.4-7.37-7.6-12.49-9-6.14-1.65-12.45-2.68-19.11-4.06-.28-9.08-.57-17.82-.8-26.55-.24-9.29-.4-18.57-.67-27.86-.07-2.23.11-4.86-4.36-4.76-2.88,19.52-.77,39.34-2.39,59.2-3.29.64-6.32,1.07-9.26,1.85-2.22.59-5,1-6.36,2.55C1048,458.12,1041,462,1033.38,465c-4.58,1.79-8.1,4.24-7.37,9.49-4.08,2.13-7.6,3.76-10.91,5.74-7.94,4.77-13.88,10.53-15.92,20.59-1.2,5.93-4.54,12.39-11.4,15.46a38.5,38.5,0,0,0-18.32,17.19c-3.24,6-5.79,12.35-8.75,18.77-.5-.61-1.3-1.51-2-2.46-5.14-6.58-11.11-12.54-18.8-15.67-6.32-2.58-10.44-7.77-15.83-11.36-3.34-2.21-6.34-3.88-10.09-4.46-2.26-.35-4.58-.32-7.86-.52,0-2.73-.05-5.23,0-7.73.29-11.6.68-23.2.88-34.79,0-2.58.74-5.55-3-8.43-1,18.05-1.93,35.11-2.77,50.26-12.5,9.32-23.57,17.45-34.47,25.81-2.2,1.68-5,4.13-5.28,6.45-.73,7.26-6.83,10.41-10.37,15.46-2.07,3-4.59,5.61-6.45,8.68a16,16,0,0,0-1.79,6.29c-.55,4.73-.61,9.51-1.21,14.23-.42,3.22-1.41,6.36-2.17,9.61-4-3.14-5.6-9.23-12.2-11.57,1.65,5.08,3,9.09,4.63,14.23l-16.76-11.63c-.3,1.89-.43,2.74-.61,3.88L807.77,594c-6.94.55-4.36,8.65-9.83,10.67-.32-4.72-.62-9.11-.93-13.51l-1.68-.39c-1.43,3.31-2.85,6.61-4.32,10l-10.55-11.66-1.46,1c1.27,3.72,2.55,7.44,4.29,12.51-7.49-5-12-11.89-20.9-14.71l3.35,8.74c-5.22-2.35-9.1-6.32-15.18-5.52.3,2.05.54,3.74.79,5.43l-1.23.45L739.23,581.4c-.33,3.46-.58,6-.9,9.37l-7.12-6.37c-.55,1.43-.94,2.45-1.39,3.64-5.24-2.11-9.26-7.17-16.44-6.35l7.25,8.29L719,591.29,708.1,578.14c-.87,2.32-1.45,3.85-2.07,5.53-3.61-1.21-6.92-2.85-10.4-3.35-6.22-.89-10.83-3.27-13.15-10.09-1.31,3.47-2.63,6.94-4,10.57l-21.25-12.87c-.58,1.67-1.1,3.14-1.67,4.75l-8.26-6.26c-1.25,2.48-2.12,4.19-3.37,6.69l2.67,4.66c-5.11,1.08-7-.93-7.81-5.39-3-15.7-6.18-31.37-9.51-47-7.14-33.53-14.42-67-21.63-100.55-3.15-14.61-6.21-29.24-9.47-43.83-.82-3.7-.28-6.18,3.13-8.52,8.71-6,17.09-12.44,25.66-18.64a44.89,44.89,0,0,1,4.72-2.62c-.4-.52-.79-1.05-1.18-1.57l-3.72-6.59-47.26-3c-.19-3.37,0-5.75-.56-7.9-.4-1.42-2-2.49-3.08-3.72-1.07,1.17-2.64,2.17-3.11,3.54-.79,2.29-.87,4.82-1.29,7.49-9.31-.72-17.77-1.43-26.23-2-16.72-1.19-33.44-2.36-50.17-3.41-1.82-.11-3.69.6-5.9,1,2.92,11.7,8.39,20.64,19.77,22.52,10.62,1.75,20.6-1.41,26.67-11.54,1.81-3,4.25-3.34,7.21-3.12,8.48.62,17,1.18,25.44,1.9,1,.08,1.86,1,2.79,1.61-.1.37-.19.74-.28,1.11l-17.21.78c-1.57,6.95-2.94,13-4.31,19-6.53,28.64-13.28,57.24-19.53,85.94-6.87,31.48-13.76,62.95-23.68,93.65-.42,1.29-1.64,2.33-2.54,3.57l-10.79-6.56c1.21,4.28,1.9,6.76,2.91,10.36-3.22-3.1-5.38-5.29-7.68-7.35-1.73-1.54-2.83-2.73-6.19-1.5a12.74,12.74,0,0,1-13.11-2.33c-2.92-2.56-7.21-3.56-11.29-5.45-.13,2.12-.19,3.27-.26,4.52l-8.58-4.89-2,3c-4.87-.08-8.41-7.55-13.3-.87l-7.1-4.08c-4.25,2.83-4.25,2.83-9,.54,1.7-5.47,4-10.74,4.93-16.24,3-18.33-8.16-32.27-25.68-32.74-.42,0-.83-.41-1.64-.84-.06-1-.15-2.27-.19-3.52-.35-12.63-.54-25.27-1.1-37.89-.28-6.41-1-7.07-7.37-7.47q-12.34-.75-24.73-.68c-5.09,0-9.71-.77-14.14-4.5-.24-11.7,1.43-24.12-5-35.82-1,.34-3.56.77-3.57,1.22-.06,5.93-6,10.19-4.54,16.51.27,1.15-.22,2.48-.38,3.85-1.05-.06-1.79-.06-2.52-.15-8.46-1-10,1.12-7.17,9,.79,2.16.37,4.76.49,6.91h-26c7.46-4.29,11-8.9,8.88-16.08-1.81-6.08-6.41-8.8-15.29-9.3-1.67-.09-3.33-.41-5.34-.67,1.14-2.61,2.44-4.61,2.89-6.79,1.06-5.11-2-10-6.35-10.86s-8,1.75-9.52,7c-.71,2.45-1,5-1.62,8.11-6.52,1.29-7.68,6.5-7.84,12.23-.12,4.33,0,8.66,0,12.41-.82.71-1,1-1.2,1a9.4,9.4,0,0,1-2.3.14c-10-1.24-16.12,3.71-19.87,12.45-.31.71-.62,1.41-1,2.12-1.73,3.74-3.19,7.6-8,8.66-1,.22-2.53,2.73-2.2,3.41,2.87,5.94-.94,8.44-5.17,10.41.26,3.46,1,6.53.56,9.41s-2.13,5.62-3.41,8.79c4.63,3.91,1.53,8.14-.23,12.08,4.18,4.38,4.18,4.38,4,11.94-8.25-5-10.93-15.8-22-19.6l5.82,12.4-1,.7-7.09-6.48-.87.92c.7,2.27,1.41,4.54,2.61,8.41-8.22-8.35-13.65-17-23.49-22.8.8,3.55,1.38,6.14,2.14,9.54-1.8-1.35-3.4-2.94-3.71-2.71-3.64,2.59-4.35-.85-5.91-2.63-2.41-2.76-4.88-5.46-8.08-9-.86,3.89-1.39,6.25-2,9-5.36-3.65-7.79-10-14-12.45.45,4.13.85,7.68,1.28,11.57-7.8-1.44-11.4-8.78-18.39-9.17-3,5.52-3.62,5.71-7.94,2.66-1.47-1-2.85-2.2-4.33-3.22-.36-.24-1-.13-1.46-.18-.13,1.08-.26,2.16-.46,3.8l-4.47-2.71c2.75-8,4.82-15.58,2.07-23.67a11,11,0,0,1-.42-5.6c.82-3.71,2.71-7.24,3.16-11,1.18-9.66-4.19-16.2-11.43-21.48,2-20-2.61-23-15.61-26.53-1.85-7-4.23-13.71-11.16-18A55.81,55.81,0,0,1,66,361c-3.56-4.18-7.64-4.75-12.29-4.28a32.31,32.31,0,0,0-7.33,2c-4.36,1.56-8.2,1.7-11.32-2.53-.8-1.09-2.45-2.26-3.66-2.21-6.63.24-13.63-2.39-19.78,2.55-1,.81-3.3.19-5,0-2.21-.27-4.39-.79-6.59-1.19V1548.67ZM296.6,425.92l5.77-5,1.2,1.59C302.61,425.47,300.63,427,296.6,425.92Zm5.64,98.3-8.4-4.73c.22,2.54.38,4.4.62,7.16-4.39-2.24-8-3.91-11.39-6-.68-.41-.92-3.16-.66-3.29,4.45-2,2.25-5.35,1.38-8.19l16.88-1.73C301.17,512.8,301.68,518.19,302.24,524.22Zm31.51-91.46-1.61,0c.14-1.84.29-3.68.43-5.52l1.18.05Zm48.15,64c-1.11,2.64-2.1,5-3.08,7.28C377.59,497.55,377.59,497.55,381.9,496.76Zm.44,35.4-12-7.22-2,3.27c-3.55-2.58-7.35-3.6-11.82,1,2.13-6.45,3.7-11.25,5.36-16.27h15.62C379,519.12,380.43,524.69,382.34,532.16ZM563.9,559.5l13.81,10.87c-5.47-.37-12.34-2.68-13.28-4.56C563.77,564.51,564.11,562.71,563.9,559.5Zm-16.48,8.58c2.72-2.23,4.39-3.61,6.5-5.33C555.11,568.51,553,569.64,547.42,568.08ZM518,550.27l31.58,5.56-9.32,8-13-10-1.74,3.53-8-5.68Zm2.16-9.84,36.94-46.49,1.88.69c-.9,16.72-1.81,33.45-2.76,51.2Zm14.29-55.88,18.1,3.51c-9.75,11.85-18.62,22.65-27.49,33.44l-1.27-.65C527.34,508.89,530.85,496.93,534.48,484.55Zm.61-8.78c1.8-8.35,7.8-12.81,12.14-18.27s8.51-11.16,15.12-16.68c-.92,13.64-1.74,25.59-2.64,39Zm9.21-49.08,14.6,4.09-18.74,20.76-1.78-.59C540.33,443,542.28,435,544.3,426.69Zm20.73-28c-.55,9.05-1,16.51-1.5,24.64L546.93,419C552.7,411.64,557.17,404.89,565,398.71Zm-5-7.27-8.8,8.68C552.63,390.82,553,390.44,560,391.44Zm5.29-36.94c-3.06,4.58-4.05,9.33-8.38,12.71C557.19,355.08,557.85,354,565.33,354.5ZM567,368.64c-.24,4.51-.47,9-.74,14.35l-7.18-1.42c2.37-5,4.41-9.21,6.45-13.46Zm35.74,106.68-35.64,5.62,2.47-37.44C577,447,598.37,467.5,602.78,475.32Zm-9.41-51.11H572.16v-22.8l1.36-.32Zm-1.15-33.66c2.75,7.35,3.83,14.68,4.21,24L576.1,392.2Zm-5.61-23c-2.48-3.84-5-7.67-7.83-12.08C586.85,355.53,587.55,356.57,586.61,367.58Zm-.13,14.84H574.72V363.19A51.9,51.9,0,0,1,586.48,382.42Zm6.93-24.15c1.14-9.48-4.6-9-9.87-9.46a52.44,52.44,0,0,1-6.36-1.32c10.3-2.06,20.12,0,32,1.18Zm13.68,104.5a203.17,203.17,0,0,1-30.86-29.68h25.48C603.57,443.37,605.33,453.07,607.09,462.77Zm9.65,54.53-41.59-26.47.48-1.69c11.6-2.39,23-6,35.44-6.09,2.1,10.86,4.11,21.15,6.06,31.44A11,11,0,0,1,616.74,517.3Zm5.16,22-55.52,7.58V498.18c3.69,1.94,6,2.91,8.13,4.32q20.16,13.63,40.19,27.44a22.86,22.86,0,0,1,4.68,4C620.4,535.18,620.82,536.9,621.9,539.25Zm5.25,30.82-1.22.37Q623.48,564.72,621,559l-1.16.21c-.56,3.07-1.13,6.15-1.8,9.77l-15.14-3.3v3.56l-20.15-8.66,2.29,4.59-1.14.77-11.33-10.31c17.88-2.75,34.21-5.41,51.22-5.61C625,557.15,626.07,563.61,627.15,570.07Zm688.17-76.41,4.73-3c3,9.52,3.57,13.94,2.6,20.05l-8.6-4C1314.5,502.07,1314.87,498.32,1315.32,493.66Zm21-52.14h-2.14c-.27-1.2-.64-2.38-.8-3.59-.64-4.78-2.38-7.44-8-8.45-4-.72-8.27-4.26-9.92-8.57l17.59-4.56C1334,424.88,1339.69,432.64,1336.27,441.52Zm16.2-31.43c-1,2.13-2.4,5-4.19,8.71-4.14-6.85-4.35-13.39-4.89-19.81,0-.27,1.18-.64,1.56-.83Zm12,143,1.31-.2,1.84,8.44-1.9.3C1365.33,558.78,1364.92,555.94,1364.5,553.09Zm7.94-132.59-14,21.62-2.83-1c1.16-9.53,6.86-17.37,10.84-27.18Zm2.75,60.83c-.41,6.46-.58,12.07-1.16,17.64q-1,9.34-12.59,10c-1.35-9.56-.45-19.09-.23-29.37C1366.52,481.11,1369.78,485.6,1375.19,481.33Zm6.5,13.9c.41-4.48.82-9,1.29-14.13C1387.16,484.5,1387.16,484.5,1381.69,495.23Zm51.39,51.51-11-10.9c-5.38,3.37-2.66,7.19-2.41,11.49l-10.35-9.28c-.26,3.9-.43,6.49-.63,9.46l-7.65-6c.31,2.94.46,4.39.68,6.5l-8.61-6.35c-.4,5.57,3.74,10.16,1.28,15.93-4-3.1-7.53-6-11.23-8.66a37.72,37.72,0,0,0-12.21-6.27l5,14.53c-14.25-11.59-13.34-8.3-13-29.44l30.89-20.41c1.83,3,3.87,5,8,2.76,1.61-.86,5,.4,7,1.65,4.39,2.76,9.27,2.17,13.45,1.22,3.24-.75,5.23.06,8,1.1.75,5.41,1.57,10.76,2.22,16.12C1433.1,535.37,1434.6,540.51,1433.08,546.74Zm68.17-32.39c-3.12.6-5.59.89-8,1.57-4.4,1.27-8.81,2.56-13.07,4.23-5.66,2.21-5.52,7.17-5.63,12.25-.1,5.27,3.9,5.24,7.08,6.51a25.68,25.68,0,0,1,2.63,1.4c-2.35,4.82-6.54,1.41-9.9,2.44l1.91,3.52c-4.51,5.74-11.18,3.6-17.34,5.3-4.41-14.7-3.81-29.11-2.75-44.5a53.92,53.92,0,0,0,32.66-8.69Zm78.92-36.4-6.43-.32c2-8,3.85-15.19,5.67-22.4l.76,0ZM1640.84,467c-17.48,2.38-35.1,7-53.76,6.91.57-4.65,5.14-3.83,7.47-5.75,2.72-2.25,5.24-4.72,8.07-7.29a7.33,7.33,0,0,1,1.72.73c3.52,2.51,7.21,3.68,11.62,2.66,4.26-1,8.85-1.14,9.9-6.78.1-.53,1-1.06,1.7-1.31,2.38-.9,5.12-1.24,7.13-2.64s3.41-3.88,6.15-7.19Z" transform="translate(0 -195.59)" fill="#ff9e2e"/><path d="M156.71,620.46a36.23,36.23,0,0,0,20.43-10.76c1.93-2,4.6-4,3.37-7.2-1.34-3.53-4.59-5-8.1-4.71-4.31.39-8.55,1.51-12.82,2.31-1.24.24-2.48.46-4.24.78-.95-3.29-1.27-7.55-6.62-5.54-.7-4.89-1.06-9.25-2-13.49-1.71-7.84-6.32-9.46-12.81-4.61-9.39,7-11,16.85-9.53,27.62a39.55,39.55,0,0,0,1.49,5.35c-3.07,1.65-6.14,2.94-8.79,4.84-2.28,1.64-4.37,4-3,7.2s4.45,3.7,7.2,2.7c7.17-2.63,10.79,1.08,14.13,6.66,4.33,7.21,7.29,7.63,13,1.52C151.46,629.92,153.38,625.67,156.71,620.46Z" transform="translate(0 -195.59)" fill="#c7b299"/><path d="M1920,1318.67V709c-.83,1-2.09,1.82-2.43,2.94-2.83,9.36-5.5,18.77-8.21,28.17-.51,1.77-1,3.56-1.44,5.34l-1.86-.24c0-5-.23-9.93.06-14.87a127,127,0,0,1,1.7-14.54c.84-4.77,2.16-9.46,3.63-15.73-10.39,11.65-13.58,25.08-19.66,37-.82-6.83,2.65-13.37.3-21.43-6.41,9.69-6.62,19.88-10.27,30-.68-4.88-1.19-8.57-1.74-12.53-7.35,4-4.06,13.72-11.11,17.56-5-5.45-4.25-14.28-12.33-18.15-.35,5.27-.66,10-1,15-3.73-.91-6.89-1.9-10.12-2.42-6-1-8-3.44-5.83-9.29,2.53-7,6.68-13.14,13.77-15.92,7.87-3.09,10.43-8.59,9.65-16.39a42,42,0,0,0-1-7.65c-1.95-6.55-3.67-12.92,2.17-18.53.51-.49.46-1.51.91-2.11a42.76,42.76,0,0,1,4.63-5.64,23.65,23.65,0,0,1,4.45-2.77c-3-3.11-6-5.82-8.56-8.82-10.26-11.85-29.14-8.92-34.7,5.44-.75,1.92-1.89,3.73-2.34,5.71-.79,3.53-2.92,5.57-5.83,7.61-9.9,6.94-20,13.71-26.79,24.18-4.16,6.38-4.92,10.75-.4,16.77,3.53,4.69,7.93,8.76,12.17,12.86,3.45,3.33,5.81,7,6.27,12.31-9,4-18.22,1.27-27.2,1.68-3.1-6.19-4.17-13-10-17.17-.71,4.92-1.12,9-1.93,13-.45,2.23-1.37,5.1-4.29,4.35-1.3-.33-2.54-2.92-2.86-4.66-.85-4.69-1.19-9.47-2-16.14l-7.83,11.66c-1.45-3.49-2.67-6.41-3.89-9.33l-1.53.15c.37,6.14,1,12.33-2.86,18.78-1.41-5.59.92-10.57-1.69-15.15-4,4.12-2.93,10.59-8.81,14.76.82-5.58,1.43-9.79,2.3-15.75-4.35,4.25-7.65,7.47-11.26,11l-3.58-12.8h-1.6c-1.06,6.34-2.13,12.68-3.37,20.07l-10.55-4.14c.43-17.35,4.46-22.85,19.62-28.1,11.3-3.92,21.67-9.34,30.72-17.44,11.61-10.39,17.43-24.15,23.19-37.94,1.8-4.33,3.67-7.3,8.46-8.9,9.12-3,9.62-4.35,9.37-14.37,1.48-.63,3.07-1.37,4.71-2,4.35-1.63,8.8-3,13-4.87,5.86-2.54,7.45-6.17,5.88-12.45-.29-1.14-.68-2.26-1-3.46,4.31-2,9.34-2.27,9.66-8.16.31-5.64-4.24-6.87-8.43-8.77,1-1.56,1.45-2.89,2.37-3.61,3-2.35,6.18-4.6,9.41-6.68,5.86-3.77,6.71-6.23,4.16-12.9l-.87-2.3c3.7-3.84,7.54-7,10.32-10.89,3.46-4.89.66-9.77-2-13.92,8.07-10.08,8.18-10.5,5.92-18.12,1.34-4.39,3.55-7.75,2.81-10.22-.89-3-4.29-5.21-6.86-8,1-6.33,1.59-13.15-5-17.73-6.38-4.43-11.57-1.24-16,4a14.46,14.46,0,0,1-1.68-2.63c-1.39-4.58-4.17-8.16-9-8.35-4.48-.18-7.35,3.26-9.57,6.93a16.09,16.09,0,0,0-1.07,2.06c-3.35,8-8.93,14.23-14.48,20.76-15.19,17.91-35.2,26.46-57.31,31.14a234.65,234.65,0,0,1-28.32,4.07c-12.25,1.06-24.18-.36-35-7.12-7.24-4.51-11.9-11.27-16.74-18-5.71-7.92-11.16-16.15-17.79-23.26-6.41-6.88-14.18-12.51-21.82-19.1.17-1.77.61-4.33.63-6.88.08-10.27-4.4-13.42-14-10a2.41,2.41,0,0,1-.76,0c-6.8-5-6.38-4.58-12.07,1.21-4,4.05-10.2,5.91-11.58,12.45-.06.3-.87.46-1.34.67a7.6,7.6,0,0,0-4.19,9.78c2.57,7.08,0,12.25-3.78,17.86-2.45,3.61-4.81,8-2.54,12.5l9.36-.57c2.88,5.11,5,8.93,7.66,13.55-1.22,2.06-2.7,5.06-4.62,7.75-13.7,19.23-15.88,39.8-7.28,61.63,3.2,8.15,6.36,16.33,9.86,24.35,4,9.05,9,17.54,16.37,24.19,12.14,11,25.45,20.24,41.2,25.42a14.71,14.71,0,0,1,9.45,8.44c5.7,13,14.41,23.15,27.91,28.55,3.66,1.46,5.5,4.18,4.39,7.92-1.91,6.37-4.17,12.66-6.57,18.87a6.85,6.85,0,0,1-6.77,4.34c-5.38,0-10.77,0-16.16,0-1.77,0-4.28-.44-5.15.51-2.49,2.69-6.32,2.3-8.55,3.87-7,4.94-15.2,4.1-22.6,6.61-1.52.51-3.36.07-5.07.07.28-6.61.26-6.65,4.38-9.09a41.47,41.47,0,0,1,5.5-2.84c9.9-4,16.9-10.6,18.72-20.09l8-6.31c-3.2-2.82,1.1-5.56,0-9-7.32-1.47-12.76-6.6-18.48-11.36a28.29,28.29,0,0,0-16.21-6.7c-9.7-.71-19.44-1.31-29.16-1.29-9.48,0-32,12.74-37.12,20.32-4.09,6-5.16,12.47-1.29,18.89,3,4.88,6.55,9.37,9.86,14,3.32-4.86,3.53-4.45,10.47-7.93,4.94-2.49,8.62-1.91,12.64,1.48a35.46,35.46,0,0,0,7.34,4.22c5.8,2.82,5.83,2.77,4.55,10.27l-8.15-2.63c-1.82,2.24-3.42,4.34-5.16,6.32a6.8,6.8,0,0,1-2.84,2.3c-6.42,1.66-12.89,3.09-19,4.53-3.59-3.93-3.4-9.71-8.26-12.27l-1.32,12.28-2,.22c-1.39-5-2.79-10-4.4-15.83-1,3.09-1.75,5.22-2.81,8.36-2.38-6.24-4.26-11.15-6.13-16.06-1.54,8.16.09,16.27-3.52,24.74-4.4-7-4.42-15.24-10.86-21.69-1,7.6-1.8,13.87-2.74,21.13-4.19-8.3-5.48-17-11-25.41-1.85,11.61-3.45,21.64-5.19,32.58-4.47-3.34-5.75-7.15-6.44-11.18-.73-4.32-1-8.71-1.8-13-.51-2.83-.36-6.1-3.66-8.49-.38,3.9-.26,7.27-1.1,10.39-2.1,7.85-4.64,15.58-7.16,23.84a29,29,0,0,1-2.78-4c-.68-1.43-.91-3.07-1.72-6-2.62,5-4.47,8.55-6.48,12.41l-13.62-.76c-.28-2.65-.52-4.8-.75-7,3.16-1.38,6-2.13,8.27-3.72,4.36-3.07,8.85-6.19,12.46-10.07,6.87-7.37,4.35-18.82,10.91-26.66,1.54-1.84,1.11-5.43,1.3-8.24.18-2.56,0-5.15-.06-7.73,0-2.29,0-4.58,0-7l7.7-3.57c-2.82-3.15-6.07-5.53-7.6-8.73-3.38-7.1-8.82-10.94-16.31-11-7.8-.07-12.93,4.65-15.61,11.77-1.71,4.53-2.91,9.25-4.35,13.89-9,1.37-15.24,6.64-20.79,13-3.43,3.89-6.85,8.33-12.43,8.39s-9.55,3.17-13.66,5.73c2.1,4.93,3.82,9.7,6.18,14.14a18.14,18.14,0,0,0,5.58,6.23,116.57,116.57,0,0,0,12.68,7.24c2.82,1.45,4.57,3.34,4.17,6.65-.36,3-1.54,5.41-4.84,6.24s-6.3,1.74-9.67,2.67c-2.16-5.7-2.22-12.27-7.93-16.53-1.13,6.44,1.66,12.91-3.19,18.87-2.54-9.17-2.24-18.73-8.82-27.63-1.14,9.31,1,17.67-3,25.59l-5.16-3.94c-1.41,5-2.65,9.33-4,14h-34.64c-1.14-7.58-.84-8,5.93-9.73,14.09-3.55,27-8.62,33.73-23.15,2.26-4.86,3.7-9.43,2.83-14-4.32-1.86-8.12-3.24-11.68-5.09-4.51-2.35-8.6-5.62-13.27-7.55-7.73-3.19-16.63-3.5-23.28-9.43a1.58,1.58,0,0,0-.72-.28c-6.19-1.23-11.37-4.28-16.49-8-5.7-4.13-12.44-3.86-18.24-.09-5.31,3.45-7.84,8.86-6.37,15.42a8.55,8.55,0,0,1-2.06,7.85,48.42,48.42,0,0,0-3.15,5h11.62c.2,2.07.35,3.82.53,5.56,1.07,10.27,6.15,18.43,13.45,25.39,2.8,2.67,5.9,5,8.53,7.87,4,4.27,3.69,12.77-.45,14.17-6.27,2.11-12.72,3.7-19,5.47-10-14.21-27.94-28.74-36.5-30.67,16.51,24.1,17.85,27,15.72,34.26-4.24-1-6.07-4.23-7.69-7.86-2.52-5.64-5-11.31-8-16.7-2.35-4.23-5.43-8.07-8.18-12.08a104.18,104.18,0,0,1-4.27,51.08c-2.6-11.53-3.83-23.16-5.73-34.68s-4.45-22.74-6.71-34.1l-.88-.16-8.43,43c-1.24-3.95-1.46-8-1.91-12-.86-7.67-.83-15.61-3-22.92-6.12-21-13.12-41.79-19.82-62.64-.58-1.83-1.5-3.55-2.91-6.81,0,4.05-.19,6.36,0,8.63,2.26,24.14,4.81,48.25,6.78,72.41.72,8.89.12,17.9.12,26.85-1.43-24.13-9-46.66-17.94-69-1,7.61-1.92,15.24-1.5,22.79,1,19-1.94,37.55-6.08,56-2.4,10.64-3.95,21.25-2.49,32.2.56,4.26.09,8.66.09,13-4.88-7.75-6.88-16-7.56-24.48-1.8-22.2-10.23-42.67-16.61-63.93a44.49,44.49,0,0,0-3.32,8.58c-3.85,12-3.08,24.5-4.49,36.77-1,8.6-3.43,16.78-7,26.49-2.12-11.07-3.88-20.16-5.59-29.26s-3.34-18.25-5.1-27.36c-1.72-8.9-3.57-17.77-5.36-26.65-1.38.91-1.61,1.59-1.67,2.28-1.53,19.27-3.3,38.53-4.43,57.82-.51,8.71.3,17.48.45,26.22.2,11.85.41,23.7.44,35.55,0,1.79-.93,3.58-1.87,7-3.95-6.43-4.89-12-5.64-17.5-.77-5.75-1-11.58-1.58-18.9-2.87,11.92-5.16,22.12-7.88,32.19-.59,2.16-2.79,3.87-4.24,5.79-3.32-2.72-5.08.93-7.33,2-3.63,1.68-7,3.92-10.52,5.94-2-4.06-1.06-6.21,2.29-8.2,17.74-10.58,24.26-28.77,20.06-50.3-10.52,4.12-21,8-29.35,17.69-1.3-7.17-2.33-12.85-3.46-19.11,13,.83,23.5-2.45,31.41-11.86,7.37-8.79,13.14-18.33,13.89-30.45-6.17-1.74-11.57.44-17,1.59-11.23,2.4-21.6,6.48-28.82,18.49-1.89-10.34-2.69-18.53-2-27.26,22.6-.78,30.72-16.82,38.7-33.78-9.57-2.33-18,0-26.26,2.73-1.78-14.47,2.45-33,9.66-42.85,6.42,1.55,12.71,1.75,16.79-5.11.22-.37.88-.54,1.36-.69,4.68-1.48,7.47-4.46,7.2-9.5,1.38-.55,2.35-.86,3.25-1.33,6-3.17,6.77-5.92,3.35-11.67a15.94,15.94,0,0,1-2-4.76c-.83-3.91-3.3-4.93-6.84-4.35-3,.49-5.92,1.06-8.55,1.53-5.24-8.19-6.42-8.38-13.35-3a10.42,10.42,0,0,1-3.3,1.76c-8.14,2.37-8.31,2.36-7.24,11.1.38,3.09-.29,4.84-3.07,5.65-4-2.77-.88-5.23-.2-7.67,1.28-4.54-.31-7.81-4.89-8.61-2.44-.44-5.07.21-7.62.4-1.61.11-3.22.27-5.19.44,1.41-4.62,3.3-8.62-.29-12.27s-7.11-1.21-10.41.12c-6.6-5.8-9.09-6.46-12.86-3.74-4.73,3.42-3.8,8.91-4.44,13.77-15.21-4.1-19.4-.51-19.08,9.28-3.64,1.67-6.59,3.94-6.76,8.48-.25,6.5,6.44,6.52,9.44,9.78-4.1,10.37-2.08,14.18,8.13,15.86,4.24,7.49,4.69,7.63,12.66,5.36a15.92,15.92,0,0,1,5.21-.35c3.38.2,6.75.61,10.92,1,.16.44.62,1.74,1.35,3.83-9.21-1.82-17.7-3.08-27.16,1.51,9.5,7.92,18.54,13.31,30.48,13.94.62,4.63,1.22,9.09,2.06,15.27-12-7.35-23.2-11.48-35.75-10.27-.1.85-.23,1.14-.15,1.35.55,1.45,1.17,2.87,1.7,4.32,5.56,15.27,15.29,26.17,31.67,30,3.55.83,4.27,3.48,4.38,6.4.28,7.74.42,15.47.49,23.21,0,1.27-.62,2.55-1.17,4.66-10.32-13-24.53-15.46-39.9-19.49,3.77,11.39,7.17,21.21,14,29.49,6.6,8,15.77,10.21,25.22,11,2,7.3,2.24,10.72,1.23,15.91-10.81-4.41-30-8.08-36.45-6.83,5.38,10,9.3,20.76,17.18,29.25,7.28,7.84,17.68,9,26.76,12.41,2.28,11,2.28,11-4.09,14.3-12.08-10.57-26.71-13.35-42.42-12.49-2.94.16-5.89-.13-10.07-.25,7.65-24.23,9.77-47.27-1.75-69.71a6.45,6.45,0,0,0-.78,3.47,81.63,81.63,0,0,1-8.79,38.07,163.72,163.72,0,0,0-13.51,38.58,27.9,27.9,0,0,1-1.82,4.5A46,46,0,0,1,995.43,879a53.7,53.7,0,0,1,1.5-9.91c4.3-17.79,8.61-35.58,13.13-53.32,5.16-20.27,6-40.83,3.69-61.46-1-8.39-3.52-16.61-5.72-24.81a14.5,14.5,0,0,0-6.12-8.94c.24,3.21.3,5.52.6,7.8,1.49,11.12.58,22.08-1.42,33.08-4.66,25.6-15.65,49.12-23.85,74.94-.89-3.16-1.56-5.07-2-7C971.53,810.66,968,791.9,964,773.26c-4.49-20.92-9.3-41.77-14.26-62.58-1.57-6.6-1.9-12.42,3-18,3.71-4.24,4.27-9.79,4.22-15.33,0-4.1-3-2.72-6.15-2.7,6.63-8.89.08-17.49.93-26.09a2.39,2.39,0,0,0-1.15-1.89c-3.31-1.5-2.07-4.13-2-6.64a30.14,30.14,0,0,0-1-6.77c-.12-.57-1-1-1.8-1.63l-5.75,3.28c.4-4.42.81-8.24,1.06-12.06.17-2.63.06-5.33-2.89-6.54s-4,1.52-5.63,2.91c-.16.13-.8-.33-1.21-.52.25-5.76,4.17-11.85-1.6-17.59l-4.58,4c-2.15-2.28-2.64-6.08-7.1-5.67v7.1L911,604.25l7.5,19.09c-5.61-.62-6.85.34-5.35,4.68,1.24,3.57,3.44,6.82,5.53,10.82-5.19,4.77-.91,9.07,2.4,13.37l-7.57,1.31c2,3.11,3.29,5.47,4.89,7.61,1.82,2.42,3.9,4.64,5.73,6.78-3.29,5.29-3.24,5.27-1.78,9.62.44,1.33,1.12,3.1.61,4.15-1.28,2.67-.33,4.63,1.43,6.23,4.15,3.78,8.12,8,12.9,10.78a9.16,9.16,0,0,1,5,6.92c4.13,19.68,8.54,39.31,12.7,59,6,28.25,12.1,56.47,14.67,85.31.14,1.57,0,3.16,0,4.74a12.26,12.26,0,0,1-4.38-4.89c-5.31-10.87-9.87-22.15-18.17-31.32-1-1.14-1.41-3.3-1.34-5,.25-5.65.88-11.29,1.23-16.93.06-1-.54-2.12-1.06-4l-4.52,6-1.19-.43c.8-5.32,1.6-10.64,2.63-17.51l-7.06,6.13c-1.22-7.07,5.16-12.22,3.09-20.19-3.6,2.54-6.46,4.56-9.33,6.57l-1.3-.84L933.7,756c-5.82-.67-7.91,4.19-11.94,6.36-.55-7.45,5.11-12.39,6.79-19.66l-8.78,1.71c-3.52-5.1,2-11.62-2.63-17L911.32,731c.27-4.42.5-8.14.73-12-8.22-1.56-6.48,6.48-10.38,9-.92-1.89-1.56-3.92-2.79-5.49-.82-1.06-2.57-2.15-3.73-2s-2.95,1.82-3,2.89a46,46,0,0,0,.68,11.37c.69,3.18,2.49,6.13,3.72,9-4.07,6.07-4.07,6.65.14,11.55,1.35,1.57,2.89,3,4.15,4.6.72.94,1.75,2.46,1.44,3.26-2.11,5.59,2.43,8.49,4.71,12.25,1,1.73,3.73,3.37,3.55,4.78-.66,5.29,3.59,7,5.09,10.36.72,3.14,1.43,6.28,2.1,9.24L897,816a14.16,14.16,0,0,1,2.54-6.25c4-6.37,5.93-13.36,4.42-20.71-2.58-12.55-10-22.62-17.19-33.2-6.65,6.18-8.11,13.66-10.43,20.7-5.24,15.87-.89,29.17,12.51,38.66a36.28,36.28,0,0,1,4,3.84l-35-10.63c3.27,8.35,5.54,14.89,8.36,21.19,4.63,10.35,12.18,16.5,24.21,15.51a10.34,10.34,0,0,1,2.7.7v9.59L853,840.91l2.94,6.72-11.14,19c-3.82-7.26-7.49-13.77-10.68-20.5-1.52-3.2-2.14-6.84-3.18-10.28-1.14-3.8-.33-6.79,2.63-9.75,6-6,9.11-13.57,10.42-22,1.81-11.57-.88-22.74-2.08-35.06-13,9.69-16.91,23.16-20.28,37.78-3-3.2-4.87-5.66-5.09-9.27-.36-5.85-.86-11.7-1.55-17.52-.45-3.84-1.84-7.61-1.91-11.43-.11-5.6.56-11.16,6.9-13.83,4.1-1.73,5.54-5,5-9.44a9.57,9.57,0,0,1,.45-5c3.67-7.44,3.18-9.51-3.76-14.53-1.36-1-3.2-2.29-3.46-3.69-1.16-6.28-5.42-8.29-10.73-8.49-.8-10.42-1.74-20.41-2.21-30.43a11.74,11.74,0,0,1,2.32-6.84c5.14-7,10.64-13.71,16.68-21.4,10.09-1.7,20.41.17,28.05,10.49,5.18-16.87-2.07-26.25-25.62-33.64.21-3.59-.76-8.09,1-11,1.83-3.05,6.23-4.57,9.94-7a32.2,32.2,0,0,0-16.7-3.46c-7.95.33-8.9,8.53-14.13,12.76-4.2-3.13-8.22-6.27-12.4-9.19-2.55-1.78-5.34-3.55-8.52-1.34s-4,5.33-3.54,8.87c.26,2.19.84,4.34,1.34,6.82-7.76,2-15.21,3.59-19,11.26-3.66,7.47-4,16.33-.47,21.61,3.36-5.35,7-10.29,14.83-9.35,1,7.47,1.88,14.81,3.08,22.1,1.14,6.9,3.61,13.26,9,18.86,2.67-2.68,5-5,8.55-8.62,2.5,10.44,1.09,18.9.75,27.55a11.48,11.48,0,0,1-2.9-.21c-5-2.11-9.74-3.55-14.25,1.18-.82.86-2.85.72-4.33.78-8.4.31-8.5.26-10.93,8.54-.8,2.72-2.28,3-4.55,2.4-3-18.69-2.85-24.39,10.63-39.73l-10.15-.94c2.42-4.82,4.38-8.74,6.45-12.85-7.08-2.5-11.82,1.36-17.14,5.53l-5.66-14.07c-5.87,8.19-14.94,13-15.72,23.53L712,683.19c-.3.45-.61.9-.91,1.36,4.94,3.14,9.76,6.36,9.75,13.15l-12.12,10.78c15.91,2.43,20.09,4.49,27.18,13.14a53.28,53.28,0,0,1,4.52,6.27c3.23,5.41,6.9,10.26,12.9,11.41,1.38,6.1,3.12,11.48,3.7,17,.49,4.73,2.57,8.07,6.58,9.63,6.82,2.65,13.61,5.06,20.08,8.73,3.34,1.89,6.81,3.39,9.38,6.24,3.63,4,6.86,8.4,10.55,12.37a79.33,79.33,0,0,1,19.62,38.88,94.87,94.87,0,0,0,12.21,31.54c2.1,3.37,4.15,6.89,4.25,11.47-11.61-5.83-22.62-11.32-30.89-21a35.43,35.43,0,0,0-7.1-6c-2.64-1.8-5.58-3.14-9.16-5.11,5.53,9.76,10.55,18.33,15.27,27.06,5,9.22,12.27,15.58,21.74,20.07,6.22,3,11.94,7.06,17.65,11,4.89,3.37,5.67,8.42,5.09,13.58-6.77-3.33-12.93-7.11-19.6-9.43s-13.52-3.83-19.2-2.59c4.08,4.85,8.49,9.58,12.31,14.75,7.44,10.09,17.09,15.13,30.08,13.87.55,2.93,1.06,5.61,1.64,8.67-17.91-8.17-24.31-8.38-38.9-1.62,5,4.62,9.65,9.77,15.14,13.78s12,7.09,18.58,10.86c-8.17,3.09-16.14,2.68-23.77,1.63-3-5.57-2.09-11.8-7.25-17.48-1.12,7.28-1.14,14-8.26,17.76.22-2.1.29-3.34.5-4.56a45.06,45.06,0,0,0-2-23.59c-2.36-6.37-4.19-12.93-6.77-21-1.35,3.69-2.59,6.1-3.1,8.66a91.78,91.78,0,0,0-1.94,13.78c-.32,7.26-3.31,13.32-7,19.38-4,6.58-7.31,13.57-11,20.33a28.14,28.14,0,0,1-2.93,3.66l-1.72-.76c.9-3.89,1.64-7.83,2.72-11.68,4.51-16.17,8.86-32.35,8.77-49.34,0-6.18.31-12.37.15-18.55-.14-5.52.2-11.34-4.71-15.66-4,24.92-15.24,46.7-26.06,70.18-2.36-14.48-3.44-27.25.33-40a26.2,26.2,0,0,0,.78-7.67c-.19-15.74-.39-31.48-.82-47.21a93.18,93.18,0,0,0-1.67-13.8c-.37-2-1.68-3.87-2.57-5.79a25.87,25.87,0,0,0-1,9.38,60.57,60.57,0,0,1-8.81,34.77c-6.52,10.85-8.45,22.39-8.94,34.71-.62,15.31-2.15,30.59-3.29,45.88a9,9,0,0,1-2.2-5.66q0-12,.48-24c.12-3.44.64-6.86-2.75-11.48-2.57,20.94-9.29,39.63-5.87,59.79l-20.82,5.36c-1.53-8.14-2.05-14.39,5-20.09,5.72-4.63,9.16-11.84,10.7-19.32,1.2-5.79,1.32-11.68-1.41-17.16-9.84-2.17-15.15,5.44-22.29,9.86-1.15-9.08-2.2-17.41-3.37-26.69,3.28,0,6.3.12,9.32,0,7-.31,13.88-1.2,20.08-4.87,3.56-2.12,5.74-5.06,5.87-9.37.1-3.17-1.29-4.89-4.48-5-2.76-.07-5.52,0-8.07,0-.27-3.85-.14-7.48-.87-10.94-.79-3.73-1.85-7.79-6.49-8.73s-7.89,1.37-10.2,5.28c-.19.32-.9.34-1.05.39-2.91-2.69-5.36-5.83-8.56-7.73-5.53-3.29-9.44-1.24-10.72,5-.5,2.43-.69,4.93-1.06,7.7-2.94-1.08-5.29-2.5-7.73-2.68a8.39,8.39,0,0,0-6.06,2c-1,1-.74,3.89-.13,5.62.83,2.37,2.52,4.43,3.83,6.6-4,5.14-4,7.72,1.23,10.32a31.16,31.16,0,0,0,11.76,2.79c3.55.23,5.85,1.4,7.42,4.45,2.35,4.57,3.52,19.66,1.85,25.59a44.11,44.11,0,0,0-22.65-12.12c.27,21.67,8.23,37.52,28.53,46.24-1.06,5.25.65,10.59-1.57,16.09-4-4.91-7.61-9.19-11-13.63s-6.53-8.92-9.78-13.39c-.39,5.4,2.19,10.53-1.13,15.7-9.89-9-10.36-23.62-20.91-33-1.43,6.18-3,11.33-3.74,16.6s-.82,10.89-1.29,17.87c-3.7-7.17-6.44-13-9.63-18.5-3.86-6.69-9.66-11.48-14.05-12.29a81.37,81.37,0,0,1,8.29,34.6c-3.69-11.3-11.58-19.53-19.64-30-1.66,10.14,5,18.45.58,27.11l-9.15-15c-1.36,6.94-2.43,12.42-3.5,17.9-11.16-20.83-11.42-42.1-6.28-63.87a5.63,5.63,0,0,1,1.37.14c1.56.9,3.17,1.73,4.64,2.77,9.14,6.51,18.61,6.57,28.52,1.82,4.64-2.23,9.49-4,14.26-6,2.45-1,4.92-2,7-2.85-3.42-3.87-6.31-7.41-9.48-10.67-10.49-10.8-22.47-17.22-38.1-12.59a22.32,22.32,0,0,1-4.2.44l-.83-1.3A71.19,71.19,0,0,1,597.5,890c7.84-5.73,13-13.08,14.72-22.77s1.47-19-1.54-28.27c-4-12.5-7.91-25.05-11.93-37.56a35.21,35.21,0,0,0-2.47-4.81c-3.88,6.81-6.92,13.09-10.84,18.77A89.7,89.7,0,0,0,573.1,842.7a23.25,23.25,0,0,0-.84,9.88c2.29,13.21,4.63,26.46,12.34,38,.79,1.18.64,3,1,4.77-1.14-.16-1.49-.11-1.63-.25a11.85,11.85,0,0,1-1.53-1.72c-6.31-9.27-15.09-12.19-25.65-9.34-8.91,2.41-17.65,5.46-26.49,8.23,4,6,7.65,12.17,12.07,17.77,8.58,10.88,19.28,17,33.77,13.25,2.07-.53,4.34-.28,6.38-.39-1.73,17.67-3.37,34.49-5.1,51.3,0,.47-1.12.82-2.25,1.6-8.9-13.26-14.56-28.83-28.59-38.15,5.7,10.86,11.57,21.52,12.81,34a17.66,17.66,0,0,1-4.85-4.73,359.34,359.34,0,0,0-56.66-65.33,15.92,15.92,0,0,1-4-6.37c-6.12-17.51-12-35.09-18.07-52.63-.75-2.19-1.77-4.29-2.71-6.41s-1.9-4.1-2.86-6.15c2.82,18,6.88,35.6,8.21,55.22C467,877,457.28,869,445.53,864.46c9.23,10.3,18.66,20.2,28.38,29.81a19.38,19.38,0,0,1,6.16,13.65c.49,11.6,1.36,23.18,1.79,34.78.2,5.35-.26,10.73-.43,16.1-12.31-26.69-32.92-56.95-44.71-63.95,13.27,23.24,24.91,46.95,30.71,74.72-4.95-8.31-8.76-15.52-13.36-22.18-4.73-6.84-9.14-14.1-16.84-18.75,9.1,16.08,17.31,32.4,20.44,50.83-7.89-14.94-15.7-29.82-28-41.85A98.07,98.07,0,0,0,434,952.25q2.67,7.66,5.2,15.38c3.25,9.87,3.23,9.87,2.26,15.58a102.26,102.26,0,0,0-18.16-27.56c.31,4.16,1.51,8,2.49,11.8s2.34,7.77.26,12.29l-5.84-5.42v10.55c-2-1.07-3.9-1.43-4.36-2.45a28.22,28.22,0,0,1-2.73-8.76c-.86-9-1.4-18-1.84-27-1.09-22.66-2.3-45.32-3-68a309.37,309.37,0,0,1,5-66.21c1.78-9.6,4.67-19,7.16-28.46,2.1-8,.31-14.56-6.06-20.15-8.11-7.11-17-12.36-27.67-14.57-2.15-.44-4.19-1.37-7.92-2.63,6.39-5,11.89-9,16.92-13.49,5.61-5,12.7-.32,17.58-2.83,3.45-6.56,6.49-12.32,9.85-18.7-2.74,0-5.26-.35-7.63.07-4.56.81-9,2.32-13.58,3a16.58,16.58,0,0,1-7.23-.85c-7.07-2.3-13.88-5.64-21.09-7.17-6.5-1.38-10.38-3.48-12.16-10.6-2.53-10.1-14.22-13-22.35-6.46-2,1.57-3.95,3.11-6,4.72,6.81,7.56,13.15,15,15,25.92,2.15,12.59,10.12,21.22,23.64,23.28.58.09,1.08.75,3.21,2.3-4,0-6.39.19-8.72,0a63.17,63.17,0,0,0-24.51,2.26c-8,2.4-13.59,7.25-15,15.94-1.09,6.8-2.14,13.61-3.28,20.91-2-.25-4-.4-5.92-.78-11.9-2.3-23.74-5-35.69-6.92-28.25-4.62-56.56-8.86-84.82-13.35-27.5-4.38-55-9-82.48-13.28-15.79-2.46-31.69-4.26-47.47-6.81-22.4-3.62-44.72-7.65-67.08-11.51v60.39c4.59,0,9.22-.46,13.76,0,12.81,1.33,25.55,3.39,38.37,4.5,28.51,2.47,57.07,4.37,85.59,6.83,23.88,2.06,47.76,4.25,71.58,7,36.1,4.11,72.14,8.7,108.2,13.13,2.25.28,4.46.94,7.39,1.57,1.25,29.2,2.48,58.2,3.72,87.26-2.81.76-4.75,1.64-6.74,1.77-10.29.68-20.59,1.13-30.88,1.74a6.62,6.62,0,0,1-6.47-3.31c-1.11-1.74-2.39-3.37-3.66-5-5.39-6.92-10.7-13.9-16.29-20.65-1.92-2.34-3.81-5.36-9.24-5.22,8.26,11.62,16.81,21.55,22.61,34-2.1.28-3.53.6-5,.65-45.63,1.43-91.25,3-136.88,4.2-42.28,1.07-84.57,1.66-126.86,2.51-3.08.06-6.15.42-9.22.64v394.41ZM187.49,965.91,197,977.35l-6.12,1.48c1.74,2.73,2.61,5.33,4.41,6.68,3.95,3,4.73,7,6.08,13.54-12.76-4.46-20.59-14.67-31.8-19.07-2.32,5.09,2.34,7.84,3.29,13.7-4.37-3.73-7.49-6.18-10.36-8.89-2.33-2.2-4.43-4.28-7.37-1.45l6,10.45-1.3,1.09-15.38-9.19c-.37,2.6-.63,4.41-1,6.81-4.19-2.44-7.66-4.65-11.31-6.51-1.72-.88-4.18-2-5.6-1.43-4.27,1.84-7.4-.12-10.81-1.93-3.06-1.63-6.24-3-9.37-4.54l-.71,1.11,7.18,8.6c-8.78-2.32-14.94-7-23-6.95,1.49,2.17,3.79,3.48,5.32,5.4,1,1.31,1,3.49,1.45,5.28-1.86-.19-3.73-.37-5.58-.59a1.46,1.46,0,0,1-.65-.4c-5.08-4.31-11.17-6.28-17.52-7.68-6-1.33-12-2.73-18.07-4.05-4.17-.91-8.3-1.89-13-6.21C91.81,970.07,140,965.67,187.49,965.91Zm96.41,19.4c-6.06,3.15-6.54,3.37-8.91-1.77-3.07-6.65-10.05-8.19-14.93-12.4-1.9-1.63-5.61-1.16-9.58-1.82,1.76,9.17,9,14.34,11,22-5.54,1.47-5.35,1.28-8.55-1.81-5.34-5.16-10.75-10.29-16.53-14.94-1.89-1.51-5.11-3.56-7.6-.51-2.31,2.84.91,4.54,2,6.66a6.8,6.8,0,0,1,.26,1.73c-1.55.75-3.15,1.56-4.78,2.28-6.16,2.72-6.57,2.57-11.19-2a81.32,81.32,0,0,0-7.49-6.64c-4.19-3.25-8.55-6.28-14.49-10.61l86.06-4.86C274.81,970.61,283.09,977.12,283.9,985.31Zm30.61,15.11-1.09.1c-5.45-6.79-11.22-13.35-16.25-20.44-4.26-6-7.68-12.64-12.06-20l12.3-1.8C303.2,972.55,308.86,986.48,314.51,1000.42Zm17.95-7.49c-5.66-4.26-17-27.6-17.82-36.13,1.77-.09,3.55-.25,5.33-.24a31,31,0,0,1,4.62.34c5.3.84,6.45,2.08,6.9,7.46.38,4.63.78,9.26.93,13.89S332.46,987.79,332.46,992.93Zm157.69-8.22V962.85C491.29,970.49,493.13,977.52,490.15,984.71Zm32.2-7.75a111.21,111.21,0,0,0-13.93-27.63l-1.52.62c1.57,5.85,3.41,11.64,4.64,17.56s1.89,12.09,2.83,18.41l-5.73,1.48c-3.38-16.57-5.93-48.06-4.27-52.25C513.26,946.3,523.16,968.78,522.35,977ZM807.16,765.54c-.87,5.79-1.64,10.85-2.26,15l-9.31-9.25,4.39-7.51ZM903.31,877c6.46-4.44,11.16,1.69,17.67,1.88l-17.67,13.23Zm-33.44,78.35,19.48-6.07c-1.05,2.05-1.38,3.88-2.22,4.16-5.06,1.7-10.22,3.13-15.41,4.38C871.29,957.94,870.37,956.06,869.87,955.37Zm-7.56-66.8c1.23,1.9,2.31,3.9,3.71,6.3-2.35,3.57-4.35,6.6-7.13,10.8-1.37-5.81-2.61-10.14-3.3-14.55a5.49,5.49,0,0,1,1.78-4.25C859.48,885.15,861.14,886.75,862.31,888.57Zm34.15-10.25c-.55,3.65-1,6.32-1.51,9.93-10.66-6-21.8-4.87-33.29-5.47l5.65-14.44C875.06,878.79,885.77,878,896.46,878.32Zm-5,54.8c-6.69-1.06-12.75.45-18.55,3.65-1.66.93-3.37,1.79-6.3,3.34,1.25-12.37,9.68-20.36,11.56-30.5l19.13,2.4c.64,4.33,1.32,8.86,2,13.39C900.38,932.74,898.93,934.3,891.5,933.12ZM930,833.64c-4.79,3.11-9.53,6.05-14.13,9.19s-9.36,6.7-14.77,10.59c-.36-6.42-.7-12.37-1.08-19.19,10.56,1.78,19.69.64,26.42-10.15Zm6.43,14.48c6.18,10.55,12,20.42,18.56,31.65L922.16,871C932.4,865.88,931.12,855.7,936.42,848.12ZM974,885.83a49,49,0,0,1-12.57-13.22c-6.29-10.34-11.66-21.23-17.84-31.64-2.3-3.89-1.72-7.1.91-11.2-7.27,1.25-8.47-3.3-10-8.46,3.84-1.19,6.3-1.06,8.14,2,1.72,2.87,4.12,5.37,5.61,8.34,8.22,16.34,16.27,32.77,24.3,49.2A28.39,28.39,0,0,1,974,885.83Zm4.26,35.78c-6.14-3.61-9.87-10.51-17.83-12.58,2.89,6.68,8,11.5,8.92,19.8l-9-6.78c-.32,3.63-.52,5.9-.76,8.57l-10.44,4c4-6.55,7.34-12.42,2.72-19.1,1.76-2.17,3.13-3.87,4.85-6-9.5-1.39-17.68.78-25.38,4.22-7.93,3.54-15.45,8-24,12.5-.62-4.79-1.16-8.95-1.67-13,1.29-.38,1.8-.72,2.19-.62,10.42,2.62,18-1.19,23.76-9.94,3.36-5.09,7.4-9.74,11.5-15.06C957.29,897.23,970.48,906.57,978.26,921.61Zm58.33-14.73-19.54,5.59c2-8.87,3.6-16.36,5.48-24.9C1029.57,893,1032.84,899.43,1036.59,906.88Zm41-201.51-5.4,9.87-2.76-8.17Zm.26,44.31c-.94-6.58-1.88-13.17-2.78-19.5,9-9.41,13.84-20.08,13.72-34.88l-8.38,6.38L1078,692l9-3.18c2.8,2.29,4.85,4.24,7.17,5.79s2.71,3.52,1.76,6-1.61,4.92-2.73,7.23a110.19,110.19,0,0,0-9.32,29.34c-.77,4.36-2.52,8.55-3.83,12.82Zm264.56,35.62c-.11,1.16-1.87,2.17-2.88,3.25l-1.64-1.14v-8.16C1342.27,779.6,1342.7,782.52,1342.45,785.3Zm104.73-18.89c.21,2.92-1.91,4.71-6.23,5.27-3.26.87-4.83-.71-5.28-3.74a5.4,5.4,0,0,1,4.94-6.46C1443.82,761.08,1447,763.44,1447.18,766.41Zm158.31-11.56h-7.3v-7.39C1604.82,748.56,1604.91,748.65,1605.49,754.85Zm97.35-28.13a99.09,99.09,0,0,1-2.26,10.5c-1.79,6.45-4.81,8.3-12.64,7.9l7.65-24.65C1702.87,720.33,1703.75,721.07,1702.84,726.72Zm132.68,21c-4.11-.28-7.25,1.32-9.07-2.74-.42-.94-2-1.42-3.13-2-5.46-2.58-5.72-3.09-4.61-10.54l14.44,5C1833.88,740.66,1834.56,743.61,1835.52,747.75Z" transform="translate(0 -195.59)" fill="#3e3d40"/></g></svg>