<svg xmlns="http://www.w3.org/2000/svg" xmlns:xlink="http://www.w3.org/1999/xlink" viewBox="0 0 976.54 588.98"><defs><clipPath id="a" transform="translate(0.03 -11.61)"><circle cx="777.3" cy="311.15" r="286.65" fill="none"/></clipPath></defs><path d="M934.43,70.61c-9.8-18.51-46.67-54.92-59.5-59,0,3.19.07,6.33.19,9.44-5.31-3.51-10.32-6.49-11.27-6.71,4.3,4.7,8.18,9.32,11.61,13.53C880.84,112,925.53,165,948,172.45,950.1,142.36,945.56,91.64,934.43,70.61Z" transform="translate(0.03 -11.61)" fill="#e75113"/><path d="M934.43,70.61c-9.61-18.15-45.25-53.51-58.72-58.68,13.1,5.42,38.94,46.27,48.55,64.41,9.87,18.65,14.56,60.69,14,91a39.4,39.4,0,0,0,9.71,5.17C950.1,142.36,945.56,91.64,934.43,70.61Z" transform="translate(0.03 -11.61)" fill="#fff" opacity="0.4" style="isolation:isolate"/><path d="M586.24,196.25c24.49-6.26,67.28,13.41,89.66,25.53l-9.63,21.48c-21-11.4-55.28-32.3-78.19-25.47s-31.8,40.52-43.2,61.57l-9.35-5.06c12.76-23.55,21.25-69.37,46.89-77C583.69,196.93,585,196.58,586.24,196.25Z" transform="translate(0.03 -11.61)" fill="#e75113"/><path d="M585.23,213.37c-22.91,6.82-29,44.94-40.35,66,11.4-21,20.29-54.76,43.2-61.57s57.14,14.07,78.19,25.47l.72-1.62C643,228.3,604.71,207.57,585.23,213.37Z" transform="translate(0.03 -11.61)" opacity="0.1" style="isolation:isolate"/><path d="M582.34,204c1.27-.38,2.55-.73,3.82-1.06,23.66-6.05,64.41,12.11,87.32,24.28l2.42-5.4c-22.38-12.12-65.17-31.79-89.66-25.53-1.27.33-2.55.68-3.82,1.06-25.64,7.62-34.13,53.44-46.89,77l2.55,1.38C549.48,251.16,558.5,211.08,582.34,204Z" transform="translate(0.03 -11.61)" fill="#fff" opacity="0.4" style="isolation:isolate"/><path d="M525.7,275.83c-3.74,5.78-.37,23.83,5.77,26.93,4.7,2.38,14.62-4.25,16.31-8.53,2.1-5.32-1.51-22.81-1.51-22.81S528.56,271.41,525.7,275.83Z" transform="translate(0.03 -11.61)" fill="#e75113"/><path d="M303.28,503c-53.67-6.91-161.61-63.58-221.15-132.09a334.89,334.89,0,0,0,44,12.78C72.72,326.65,26.1,254.58,0,203c62.36-13.7,121.4-22.31,178.06-23.87-25.4-8.64-57.39-14.33-100.69-14.93,148.63-57.71,477,187.56,643,254.89C718.11,420.82,479,525.75,303.28,503Z" transform="translate(0.03 -11.61)" fill="#e75113"/><path d="M324.78,462.08c-41.65-2.27-150.69-32.54-228-75.55,61.28,61.33,157,110.06,206.52,116.47,126.13,16.34,284.88-33.1,365.28-63C548.89,454.29,410.71,466.74,324.78,462.08Z" transform="translate(0.03 -11.61)" opacity="0.1" style="isolation:isolate"/><path d="M10.19,200.8c72.46,6.9,187.22,47.95,235.12,49.86-24.76-10.33-51-40-93.64-57.32,112.06-35,351.48,125,562,228.73,4.12-1.79,6.4-2.86,6.61-3C554.37,351.75,226,106.48,77.37,164.19c43.3.6,75.29,6.29,100.69,14.93C124.5,180.6,68.8,188.38,10.19,200.8Z" transform="translate(0.03 -11.61)" fill="#fff" opacity="0.4" style="isolation:isolate"/><path d="M974.26,367.7c-7.69-21.64-44.21-43.93-64.68-54.66l-11.32,18.15c19.27,10.09,52.36,25.31,58.83,46S942.65,421.7,932.56,441l8.55,4.48c11.29-21.55,41.53-51.17,34.29-74.37C975,370,974.66,368.83,974.26,367.7Z" transform="translate(0.03 -11.61)" fill="#e75113"/><path d="M961.86,377.14c6.48,20.72-19.21,44.6-29.3,63.86,10.09-19.26,31-43,24.53-63.77s-39.56-36-58.83-46l.86-1.37C921.32,341.14,956.37,359.51,961.86,377.14Z" transform="translate(0.03 -11.61)" opacity="0.1" style="isolation:isolate"/><path d="M970.42,374.55q-.54-1.73-1.14-3.42c-7.43-20.91-41.76-42.42-62.55-53.53l2.85-4.56c20.47,10.73,57,33,64.68,54.66.4,1.13.78,2.27,1.14,3.41,7.24,23.2-23,52.82-34.29,74.37l-2.33-1.22C951.49,423.24,977.15,396.08,970.42,374.55Z" transform="translate(0.03 -11.61)" fill="#fff" opacity="0.4" style="isolation:isolate"/><path d="M945,453.67c-2.46,5.75-17.77,12.35-23.23,9.3-4.17-2.34-4.2-13.19-1.83-16.63,2.94-4.27,18-10.41,18-10.41S946.82,449.27,945,453.67Z" transform="translate(0.03 -11.61)" fill="#e75113"/><path d="M627.28,529.76c39.91-7.18,115.9-20.09,146.71-20.09,27.23,0,62,11.5,93,21.69l8,18.48a136.27,136.27,0,0,1,20.48,1.52c7.3,1.09,16.34,13,24.13,8.43,10.93-6.37,28.83-18.69,20.39-13.86-10,5.74-24.81-9.23-36.69-9.62-6.31-.21-11.14.42-15.09,1.88h0c4.15-18.34,10.32-109.28,16-145.41,3.46-21.94,15.05-67.43,18.69-86.88,1.1-5,24.79-112.82,30.93-138.93,8.7-32.43-28.2-89.7-86.11-110.06A353.21,353.21,0,0,0,762.57,38.48C702.67,37.62,659.2,88,665.7,129.61c4.49,34.79-7.61,134-21,225.55" transform="translate(0.03 -11.61)" fill="#e75113"/><path d="M890.08,67.08c35.71,27.62,55.76,69,49.11,95.13C933.05,189.7,903.77,298.35,897,344.67c-5.33,36.37-6.89,110-3.14,147,3.28-34,7-76.76,10.45-98.91,3.46-21.94,15.05-67.43,18.69-86.88,1.1-5,24.79-112.82,30.93-138.93C961.42,138.93,934.84,92.34,890.08,67.08Z" transform="translate(0.03 -11.61)" fill="#fff" opacity="0.4" style="isolation:isolate"/><path d="M665,187.35c-3.44,46.13-11.58,108.59-20.25,167.81C634.52,424.58,616,489.55,607,518.55c12.25-29,43-84.31,53.15-153.74C668.8,305.59,665.48,233.48,665,187.35Z" transform="translate(0.03 -11.61)" opacity="0.1" style="isolation:isolate"/><path d="M697.73,51.17C680.41,32.73,587.34,10.38,569.57,15.26q3.75,7.67,7.79,14.79c-12.4-2.48-21.88-4-24.11-3.69,11.35,5.8,22.21,11.7,32.5,17.48C636.83,122.21,713.34,145,743.21,137.29,730,103,717.16,71.88,697.73,51.17Z" transform="translate(0.03 -11.61)" fill="#e75113"/><path d="M696.37,58.33c10.77,11.47,23,28.46,34,47.15-9.29-21.39-19.43-40.25-32.61-54.31C680.44,32.73,587.37,10.38,569.6,15.26,587.34,10.38,679.05,39.88,696.37,58.33Z" transform="translate(0.03 -11.61)" fill="#fff" opacity="0.4" style="isolation:isolate"/><path d="M684.59,60.77C674.14,49.64,618,36.15,607.22,39.08c29.85,61.24,84.77,78.85,104.83,73.67C704.05,92.08,696.32,73.27,684.59,60.77Z" transform="translate(0.03 -11.61)" fill="#c12b00"/><path d="M774.26,117.94A73.77,73.77,0,1,0,847.72,192v-.31A73.62,73.62,0,0,0,774.26,117.94Z" transform="translate(0.03 -11.61)" fill="#c12b00"/><path d="M778.43,117.94a69.59,69.59,0,1,0,69.29,69.89v-.31A69.43,69.43,0,0,0,778.43,117.94Z" transform="translate(0.03 -11.61)" fill="#eceded"/><path d="M720.44,180a75.12,75.12,0,0,1,18.82-49.84,69.64,69.64,0,0,0,39.17,127,68.5,68.5,0,0,0,16.26-1.95A75,75,0,0,1,720.44,180Z" transform="translate(0.03 -11.61)" opacity="0.1" style="isolation:isolate"/><path d="M772.73,184.85a23.09,23.09,0,1,0,23,23.18v-.09a23,23,0,0,0-22.91-23.09Z" transform="translate(0.03 -11.61)" fill="#1a171b"/><path d="M745.84,227.3a2.65,2.65,0,1,0,2.64,2.66v0a2.64,2.64,0,0,0-2.64-2.64Z" transform="translate(0.03 -11.61)" fill="#fff"/><path d="M754.88,217.92a5.55,5.55,0,1,0,5.52,5.58v0a5.54,5.54,0,0,0-5.51-5.55Z" transform="translate(0.03 -11.61)" fill="#fff"/><path d="M708.84,313.85a44.65,44.65,0,0,1,15.59-18.59,26.82,26.82,0,0,0-19.35,31.82A45.85,45.85,0,0,1,708.84,313.85Z" transform="translate(0.03 -11.61)" fill="#c12b00"/><path d="M817.46,267.48c-6.16,15,5.66,28,26.41,28.92S886.45,286,892.61,271,823.62,252.46,817.46,267.48Z" transform="translate(0.03 -11.61)" fill="#1a171b"/><path d="M817.66,273.4c5-12.06,46.83-14.2,72-8.94-13.93-9.16-67-9.5-72.18,3a19.39,19.39,0,0,0-1.34,11A25.63,25.63,0,0,1,817.66,273.4Z" transform="translate(0.03 -11.61)" fill="#fff" opacity="0.4" style="isolation:isolate"/><path d="M808.7,96.38l-93.59,25.06-15.66,40.72s39.56,24.89,80,38.4c41.07,13.72,75.72,9.55,75.72,9.55l4.27-84.48Z" transform="translate(0.03 -11.61)" fill="#e75113"/><path d="M699.45,162.16s39.56,24.89,80,38.4c41.07,13.72,75.72,9.55,75.72,9.55s-34.65-1-75.72-14.68C739,181.92,699.45,162.16,699.45,162.16Z" transform="translate(0.03 -11.61)" fill="#c12b00"/><path d="M794.27,321.56c-12.92-4.27-31.49,2.62-41.47,15.38s-7.6,26.58,5.32,30.85,31.48-2.62,41.47-15.39S807.19,325.82,794.27,321.56Z" transform="translate(0.03 -11.61)" fill="#9b0500" fill-rule="evenodd"/><path d="M753.5,327.72C764,315.08,783.85,308.64,798,313.28c7,2.33,11.29,7,12.48,12.65,1.18-7.85-3-14.78-12-17.73-13.36-4.41-32.25,1.73-42.18,13.7a26.6,26.6,0,0,0-5,9A32.86,32.86,0,0,1,753.5,327.72Z" transform="translate(0.03 -11.61)" fill="#c12b00" fill-rule="evenodd"/><path d="M751.31,379c-8.73-2.87-13.17-9.34-12.8-16.84-2.83,9,1.24,17.36,11.3,20.68,13.38,4.41,32.29-1.72,42.22-13.7.65-.78,1.25-1.58,1.82-2.42C783,377.88,764.58,383.36,751.31,379Z" transform="translate(0.03 -11.61)" fill="#c12b00" fill-rule="evenodd"/><path d="M914,153.54A55.18,55.18,0,1,0,968.91,209v-.24A55.06,55.06,0,0,0,914,153.54Z" transform="translate(0.03 -11.61)" fill="#c12b00"/><path d="M911.06,152.58a52.27,52.27,0,1,0,52,52.54v-.28A52.14,52.14,0,0,0,911.06,152.58Z" transform="translate(0.03 -11.61)" fill="#eceded"/><path d="M955.34,177.39A52.07,52.07,0,0,1,863,224.7a52.08,52.08,0,1,0,96.22-39.88,51.47,51.47,0,0,0-3.8-7.43Z" transform="translate(0.03 -11.61)" opacity="0.1" style="isolation:isolate"/><path d="M906.18,196.44a19.3,19.3,0,1,0,19.21,19.39v-.09A19.27,19.27,0,0,0,906.18,196.44Z" transform="translate(0.03 -11.61)" fill="#1a171b"/><path d="M880,233.24a3.09,3.09,0,1,0,3.06,3.12v0A3.08,3.08,0,0,0,880,233.24Z" transform="translate(0.03 -11.61)" fill="#fff"/><path d="M890.54,222.32a6.46,6.46,0,1,0,6.43,6.49v0a6.44,6.44,0,0,0-6.42-6.46Z" transform="translate(0.03 -11.61)" fill="#fff"/><g clip-path="url(#a)"><path d="M722,534.18c-143,0-305,17.3-305,27.62s199.38,38.79,342.37,38.79,175.45-28.46,175.45-38.79S865,534.18,722,534.18Z" transform="translate(0.03 -11.61)" fill="#1a171b" opacity="0.08" style="isolation:isolate"/><path d="M934.43,70.61c-9.8-18.51-46.67-54.92-59.5-59,0,3.19.07,6.33.19,9.44-5.31-3.51-10.32-6.49-11.27-6.71,4.3,4.7,8.18,9.32,11.61,13.53C880.84,112,925.53,165,948,172.45,950.1,142.36,945.56,91.64,934.43,70.61Z" transform="translate(0.03 -11.61)" fill="#e75113"/><path d="M934.43,70.61c-9.61-18.15-45.25-53.51-58.72-58.68,13.1,5.42,38.94,46.27,48.55,64.41,9.87,18.65,14.56,60.69,14,91a39.4,39.4,0,0,0,9.71,5.17C950.1,142.36,945.56,91.64,934.43,70.61Z" transform="translate(0.03 -11.61)" fill="#fff" opacity="0.4" style="isolation:isolate"/><path d="M586.24,196.25c24.49-6.26,67.28,13.41,89.66,25.53l-9.63,21.48c-21-11.4-55.28-32.3-78.19-25.47s-31.8,40.52-43.2,61.57l-9.35-5.06c12.76-23.55,21.25-69.37,46.89-77C583.69,196.93,585,196.58,586.24,196.25Z" transform="translate(0.03 -11.61)" fill="#e75113"/><path d="M585.23,213.37c-22.91,6.82-29,44.94-40.35,66,11.4-21,20.29-54.76,43.2-61.57s57.14,14.07,78.19,25.47l.72-1.62C643,228.3,604.71,207.57,585.23,213.37Z" transform="translate(0.03 -11.61)" opacity="0.1" style="isolation:isolate"/><path d="M582.34,204c1.27-.38,2.55-.73,3.82-1.06,23.66-6.05,64.41,12.11,87.32,24.28l2.42-5.4c-22.38-12.12-65.17-31.79-89.66-25.53-1.27.33-2.55.68-3.82,1.06-25.64,7.62-34.13,53.44-46.89,77l2.55,1.38C549.48,251.16,558.5,211.08,582.34,204Z" transform="translate(0.03 -11.61)" fill="#fff" opacity="0.4" style="isolation:isolate"/><path d="M525.7,275.83c-3.74,5.78-.37,23.83,5.77,26.93,4.7,2.38,14.62-4.25,16.31-8.53,2.1-5.32-1.51-22.81-1.51-22.81S528.56,271.41,525.7,275.83Z" transform="translate(0.03 -11.61)" fill="#e75113"/><path d="M303.28,503c-53.67-6.91-161.61-63.58-221.15-132.09a334.89,334.89,0,0,0,44,12.78C72.72,326.65,26.1,254.58,0,203c62.36-13.7,121.4-22.31,178.06-23.87-25.4-8.64-57.39-14.33-100.69-14.93,148.63-57.71,477,187.56,643,254.89C718.11,420.82,479,525.75,303.28,503Z" transform="translate(0.03 -11.61)" fill="#e75113"/><path d="M324.78,462.08c-41.65-2.27-150.69-32.54-228-75.55,61.28,61.33,157,110.06,206.52,116.47,126.13,16.34,284.88-33.1,365.28-63C548.89,454.29,410.71,466.74,324.78,462.08Z" transform="translate(0.03 -11.61)" opacity="0.1" style="isolation:isolate"/><path d="M10.19,200.8c72.46,6.9,187.22,47.95,235.12,49.86-24.76-10.33-51-40-93.64-57.32,112.06-35,351.48,125,562,228.73,4.12-1.79,6.4-2.86,6.61-3C554.37,351.75,226,106.48,77.37,164.19c43.3.6,75.29,6.29,100.69,14.93C124.5,180.6,68.8,188.38,10.19,200.8Z" transform="translate(0.03 -11.61)" fill="#fff" opacity="0.4" style="isolation:isolate"/><path d="M974.26,367.7c-7.69-21.64-44.21-43.93-64.68-54.66l-11.32,18.15c19.27,10.09,52.36,25.31,58.83,46S942.65,421.7,932.56,441l8.55,4.48c11.29-21.55,41.53-51.17,34.29-74.37C975,370,974.66,368.83,974.26,367.7Z" transform="translate(0.03 -11.61)" fill="#e75113"/><path d="M961.86,377.14c6.48,20.72-19.21,44.6-29.3,63.86,10.09-19.26,31-43,24.53-63.77s-39.56-36-58.83-46l.86-1.37C921.32,341.14,956.37,359.51,961.86,377.14Z" transform="translate(0.03 -11.61)" opacity="0.1" style="isolation:isolate"/><path d="M970.42,374.55q-.54-1.73-1.14-3.42c-7.43-20.91-41.76-42.42-62.55-53.53l2.85-4.56c20.47,10.73,57,33,64.68,54.66.4,1.13.78,2.27,1.14,3.41,7.24,23.2-23,52.82-34.29,74.37l-2.33-1.22C951.49,423.24,977.15,396.08,970.42,374.55Z" transform="translate(0.03 -11.61)" fill="#fff" opacity="0.4" style="isolation:isolate"/><path d="M945,453.67c-2.46,5.75-17.77,12.35-23.23,9.3-4.17-2.34-4.2-13.19-1.83-16.63,2.94-4.27,18-10.41,18-10.41S946.82,449.27,945,453.67Z" transform="translate(0.03 -11.61)" fill="#e75113"/><path d="M904.28,392.78c3.46-21.94,15.05-67.43,18.69-86.88,1.1-5,24.79-112.82,30.93-138.93,8.7-32.43-28.2-89.7-86.11-110.06A353.21,353.21,0,0,0,762.57,38.48C702.67,37.62,659.2,88,665.7,129.61c4.49,34.79-7.61,134-21,225.55C632.81,436.34,609.4,511.42,603.36,530c-4.58-1.45-10.1-2-17.11-1.82-25.56.84-62.08,13.32-58.68,32.28,3.63,20.19,42.5-10,68.25-13.88a166,166,0,0,1,25-1.86l6.46-15c39.91-7.18,115.9-20.09,146.71-20.09,27.23,0,62,11.5,93,21.69l8,18.48a136.27,136.27,0,0,1,20.48,1.52c21.06,3.14,52.87,27.87,55.83,11.35,2.78-15.51-27.09-25.72-48-26.4-6.31-.21-11.14.42-15.09,1.88h0C892.41,519.85,898.58,428.91,904.28,392.78Z" transform="translate(0.03 -11.61)" fill="#e75113"/><path d="M890.08,67.08c35.71,27.62,55.76,69,49.11,95.13C933.05,189.7,903.77,298.35,897,344.67c-5.33,36.37-6.89,110-3.14,147,3.28-34,7-76.76,10.45-98.91,3.46-21.94,15.05-67.43,18.69-86.88,1.1-5,24.79-112.82,30.93-138.93C961.42,138.93,934.84,92.34,890.08,67.08Z" transform="translate(0.03 -11.61)" fill="#fff" opacity="0.4" style="isolation:isolate"/><path d="M665,187.35c-3.44,46.13-11.58,108.59-20.25,167.81C634.52,424.58,616,489.55,607,518.55c12.25-29,43-84.31,53.15-153.74C668.8,305.59,665.48,233.48,665,187.35Z" transform="translate(0.03 -11.61)" opacity="0.1" style="isolation:isolate"/><path d="M697.73,51.17C680.41,32.73,587.34,10.38,569.57,15.26q3.75,7.67,7.79,14.79c-12.4-2.48-21.88-4-24.11-3.69,11.35,5.8,22.21,11.7,32.5,17.48C636.83,122.21,713.34,145,743.21,137.29,730,103,717.16,71.88,697.73,51.17Z" transform="translate(0.03 -11.61)" fill="#e75113"/><path d="M696.37,58.33c10.77,11.47,23,28.46,34,47.15-9.29-21.39-19.43-40.25-32.61-54.31C680.44,32.73,587.37,10.38,569.6,15.26,587.34,10.38,679.05,39.88,696.37,58.33Z" transform="translate(0.03 -11.61)" fill="#fff" opacity="0.4" style="isolation:isolate"/><path d="M684.59,60.77C674.14,49.64,618,36.15,607.22,39.08c29.85,61.24,84.77,78.85,104.83,73.67C704.05,92.08,696.32,73.27,684.59,60.77Z" transform="translate(0.03 -11.61)" fill="#c12b00"/><path d="M774.26,117.94A73.77,73.77,0,1,0,847.72,192v-.31A73.62,73.62,0,0,0,774.26,117.94Z" transform="translate(0.03 -11.61)" fill="#c12b00"/><path d="M778.43,117.94a69.59,69.59,0,1,0,69.29,69.89v-.31A69.43,69.43,0,0,0,778.43,117.94Z" transform="translate(0.03 -11.61)" fill="#eceded"/><path d="M720.44,180a75.12,75.12,0,0,1,18.82-49.84,69.64,69.64,0,0,0,39.17,127,68.5,68.5,0,0,0,16.26-1.95A75,75,0,0,1,720.44,180Z" transform="translate(0.03 -11.61)" opacity="0.1" style="isolation:isolate"/><path d="M772.73,184.85a23.09,23.09,0,1,0,23,23.18v-.09a23,23,0,0,0-22.91-23.09Z" transform="translate(0.03 -11.61)" fill="#1a171b"/><path d="M745.84,227.3a2.65,2.65,0,1,0,2.64,2.66v0a2.64,2.64,0,0,0-2.64-2.64Z" transform="translate(0.03 -11.61)" fill="#fff"/><path d="M754.88,217.92a5.55,5.55,0,1,0,5.52,5.58v0a5.54,5.54,0,0,0-5.51-5.55Z" transform="translate(0.03 -11.61)" fill="#fff"/><path d="M708.84,313.85a44.65,44.65,0,0,1,15.59-18.59,26.82,26.82,0,0,0-19.35,31.82A45.85,45.85,0,0,1,708.84,313.85Z" transform="translate(0.03 -11.61)" fill="#c12b00"/><path d="M817.46,267.48c-6.16,15,5.66,28,26.41,28.92S886.45,286,892.61,271,823.62,252.46,817.46,267.48Z" transform="translate(0.03 -11.61)" fill="#1a171b"/><path d="M817.66,273.4c5-12.06,46.83-14.2,72-8.94-13.93-9.16-67-9.5-72.18,3a19.39,19.39,0,0,0-1.34,11A25.63,25.63,0,0,1,817.66,273.4Z" transform="translate(0.03 -11.61)" fill="#fff" opacity="0.4" style="isolation:isolate"/><path d="M808.7,96.38l-93.59,25.06-15.66,40.72s39.56,24.89,80,38.4c41.07,13.72,75.72,9.55,75.72,9.55l4.27-84.48Z" transform="translate(0.03 -11.61)" fill="#e75113"/><path d="M699.45,162.16s39.56,24.89,80,38.4c41.07,13.72,75.72,9.55,75.72,9.55s-34.65-1-75.72-14.68C739,181.92,699.45,162.16,699.45,162.16Z" transform="translate(0.03 -11.61)" fill="#c12b00"/><path d="M794.27,321.56c-12.92-4.27-31.49,2.62-41.47,15.38s-7.6,26.58,5.32,30.85,31.48-2.62,41.47-15.39S807.19,325.82,794.27,321.56Z" transform="translate(0.03 -11.61)" fill="#9b0500" fill-rule="evenodd"/><path d="M753.5,327.72C764,315.08,783.85,308.64,798,313.28c7,2.33,11.29,7,12.48,12.65,1.18-7.85-3-14.78-12-17.73-13.36-4.41-32.25,1.73-42.18,13.7a26.6,26.6,0,0,0-5,9A32.86,32.86,0,0,1,753.5,327.72Z" transform="translate(0.03 -11.61)" fill="#c12b00" fill-rule="evenodd"/><path d="M751.31,379c-8.73-2.87-13.17-9.34-12.8-16.84-2.83,9,1.24,17.36,11.3,20.68,13.38,4.41,32.29-1.72,42.22-13.7.65-.78,1.25-1.58,1.82-2.42C783,377.88,764.58,383.36,751.31,379Z" transform="translate(0.03 -11.61)" fill="#c12b00" fill-rule="evenodd"/><path d="M914,153.54A55.18,55.18,0,1,0,968.91,209v-.24A55.06,55.06,0,0,0,914,153.54Z" transform="translate(0.03 -11.61)" fill="#c12b00"/><path d="M911.06,152.58a52.27,52.27,0,1,0,52,52.54v-.28A52.14,52.14,0,0,0,911.06,152.58Z" transform="translate(0.03 -11.61)" fill="#eceded"/><path d="M955.34,177.39A52.07,52.07,0,0,1,863,224.7a52.08,52.08,0,1,0,96.22-39.88,51.47,51.47,0,0,0-3.8-7.43Z" transform="translate(0.03 -11.61)" opacity="0.1" style="isolation:isolate"/><path d="M906.18,196.44a19.3,19.3,0,1,0,19.21,19.39v-.09A19.27,19.27,0,0,0,906.18,196.44Z" transform="translate(0.03 -11.61)" fill="#1a171b"/><path d="M880,233.24a3.09,3.09,0,1,0,3.06,3.12v0A3.08,3.08,0,0,0,880,233.24Z" transform="translate(0.03 -11.61)" fill="#fff"/><path d="M890.54,222.32a6.46,6.46,0,1,0,6.43,6.49v0a6.44,6.44,0,0,0-6.42-6.46Z" transform="translate(0.03 -11.61)" fill="#fff"/></g></svg>