<svg xmlns="http://www.w3.org/2000/svg" viewBox="0 0 413.28 492.17"><path d="M252.87,434c-89.46,0-209.51,20.23-209.51,27.51s120.05,13.17,209.51,13.17,190.27-5.9,190.27-13.17S342.32,434,252.87,434Z" transform="translate(-43.36 -3.18)" opacity="0.1"/><path d="M152.85,339.68a45,45,0,0,1-14.3-1.46c-5.59-3.72-9.23-9.13-9.46-16.62a28.24,28.24,0,0,1,.26-4.54,24.33,24.33,0,0,0-2.63,10.6,11.57,11.57,0,0,0,2.07,6.45c-1.17-.69-2.31-1.44-3.44-2.25a48.18,48.18,0,0,1-7.41-6.73c2.89,7.81,6.78,14.22,11.78,18.5-8-2.6-14.62-6.41-18.55-11.8a55.56,55.56,0,0,1-5.51-9.44c.56,9.75,2.91,18.28,7.54,24.63a16.31,16.31,0,0,0,1.92,2.16c-12.14-1.49-22.49-5.1-29.27-11.75a73.93,73.93,0,0,1-9.23-11.15c2.84,12.62,7.74,23.26,15.16,30.55,5.15,5.05,13.17,7.39,22.79,7.77C92.9,372,74,381.53,68.23,392c-4.24,7.69-5.17,16.15-3.63,24.81A58.45,58.45,0,0,1,69.2,406c8-14.55,33.82-28.66,60.64-39.64-5.18,3.95-9,8-11,12.12-3.77,7.93-4.2,16.44-2.15,25a58.4,58.4,0,0,1,4-11c5.59-11.77,22.16-23.92,41.65-34.68Z" transform="translate(-43.36 -3.18)" fill="#6a4f4d"/><polygon points="299.13 373.55 264.53 446.09 267.37 447.52 310.03 373.55 299.13 373.55" fill="#ff9e2e"/><polygon points="266.12 446.89 267.37 447.52 310.03 373.55 266.12 446.89" fill="#fff" opacity="0.4"/><polygon points="285.57 411.01 282.63 409.9 299.13 373.55 271.5 431.48 271.5 431.48 271.14 432.22 271.14 432.22 268.31 438.17 268.31 438.17 268.07 438.66 264.53 446.09 265.89 446.78 269.51 438.81 270.12 438.85 269.58 438.65 272.46 432.31 273.98 432.41 272.64 431.91 274.82 427.09 276.99 427.24 275.08 426.52 277.31 421.61 280.56 421.83 277.7 420.75 279.76 416.21 282.92 416.42 280.14 415.37 282.23 410.79 285.57 411.01" fill="#d04000" opacity="0.4"/><path d="M346,366.09c-10.24-3.65-23.63-.2-27.28,10-2.35,6.57-1.6,18.47,1.94,27.14S335.12,415,342.33,409l.48-.42a52.25,52.25,0,0,0,13-19.23C359.43,379.12,356.22,369.74,346,366.09Z" transform="translate(-43.36 -3.18)" fill="#6a4f4d"/><path d="M338.09,407.31l-.82.7a23.18,23.18,0,0,1-6.46,3.8,13.47,13.47,0,0,0,11.52-2.8l.48-.42a52.25,52.25,0,0,0,13-19.23,23.56,23.56,0,0,0,1.45-7.89C352.85,390.29,345.9,400.31,338.09,407.31Z" transform="translate(-43.36 -3.18)" opacity="0.3"/><path d="M341.73,458.17c-10.8-15.71-34.55-14-57.74-5.5,11.62-1.48,22.6-1.26,32.25,1.19a32.44,32.44,0,0,1-3.69,19.78,43.36,43.36,0,0,1-4.59,6.91c6.59-4.1,11.7-8.79,14.45-14a19.88,19.88,0,0,0,2.06-6A39,39,0,0,1,327,483.81a52.45,52.45,0,0,1-2.79,9.54c6.08-7,10.24-14.22,11.54-21.15a23.5,23.5,0,0,0,.07-8.52,42.42,42.42,0,0,1,7.39,8.24,49.75,49.75,0,0,1,4.72,8.63C347.64,471.74,345.73,464,341.73,458.17Z" transform="translate(-43.36 -3.18)" fill="#ff9e2e"/><path d="M343.6,471.14a16.79,16.79,0,0,0-7.79-7.46,42.42,42.42,0,0,1,7.39,8.24,49.75,49.75,0,0,1,4.72,8.63C346.59,477.46,344.85,473.41,343.6,471.14Z" transform="translate(-43.36 -3.18)" fill="#d04000" opacity="0.4"/><path d="M324.2,493.35c1.26-3.2,3.52-7.07,4.23-9.59,1.58-5.66,1.7-15.43-4-23.17A39,39,0,0,1,327,483.81,52.45,52.45,0,0,1,324.2,493.35Z" transform="translate(-43.36 -3.18)" fill="#d04000" opacity="0.4"/><path d="M312.55,473.64c3.48-6.55,7-14.45,6.15-21-9.65-2.45-23.09-1.42-34.71.06,11.62-1.48,22.6-1.26,32.25,1.19A32.44,32.44,0,0,1,312.55,473.64Z" transform="translate(-43.36 -3.18)" fill="#d04000" opacity="0.4"/><path d="M341.73,458.17c-7.22-10.5-20.23-13.21-35-11.32,14.82.12,28.13,5,34.58,14.37,4,5.82,6.32,10.52,6.6,19.33C347.64,471.74,345.73,464,341.73,458.17Z" transform="translate(-43.36 -3.18)" fill="#fff" opacity="0.4"/><polygon points="161.29 375.54 126.7 448.08 129.54 449.51 172.2 375.54 161.29 375.54" fill="#ff9e2e"/><polygon points="128.29 448.88 129.54 449.51 172.2 375.54 128.29 448.88" fill="#fff" opacity="0.4"/><polygon points="147.74 413 144.8 411.89 161.29 375.54 133.67 433.47 133.67 433.47 133.31 434.21 133.31 434.21 130.48 440.16 130.48 440.16 130.24 440.65 126.7 448.08 128.06 448.77 131.68 440.8 132.29 440.84 131.75 440.64 134.62 434.3 136.15 434.4 134.81 433.9 136.99 429.08 139.15 429.23 137.25 428.51 139.48 423.6 142.73 423.82 139.87 422.74 141.93 418.2 145.09 418.41 142.31 417.36 144.39 412.78 147.74 413" fill="#d04000" opacity="0.4"/><path d="M144.1,460.16c10.8-15.71,34.55-14,57.74-5.5-11.62-1.48-22.6-1.26-32.25,1.19a32.5,32.5,0,0,0,3.68,19.78,44.13,44.13,0,0,0,4.6,6.91c-6.6-4.1-11.7-8.79-14.45-14a19.88,19.88,0,0,1-2.06-6,39,39,0,0,0-2.52,23.22,52.45,52.45,0,0,0,2.79,9.54c-6.08-7-10.24-14.22-11.54-21.15a23.28,23.28,0,0,1-.07-8.52,42.79,42.79,0,0,0-7.4,8.24,50.39,50.39,0,0,0-4.71,8.63C138.19,473.73,140.1,466,144.1,460.16Z" transform="translate(-43.36 -3.18)" fill="#ff9e2e"/><path d="M142.23,473.13a16.79,16.79,0,0,1,7.79-7.46,42.79,42.79,0,0,0-7.4,8.24,50.39,50.39,0,0,0-4.71,8.63C139.24,479.45,141,475.4,142.23,473.13Z" transform="translate(-43.36 -3.18)" fill="#d04000" opacity="0.4"/><path d="M161.63,495.34c-1.26-3.2-3.53-7.07-4.23-9.59-1.58-5.66-1.7-15.43,4-23.17a39,39,0,0,0-2.52,23.22A52.45,52.45,0,0,0,161.63,495.34Z" transform="translate(-43.36 -3.18)" fill="#d04000" opacity="0.4"/><path d="M173.27,475.63c-3.47-6.55-7-14.45-6.14-21,9.65-2.45,23.09-1.42,34.71.06-11.62-1.48-22.6-1.26-32.25,1.19A32.5,32.5,0,0,0,173.27,475.63Z" transform="translate(-43.36 -3.18)" fill="#d04000" opacity="0.4"/><path d="M137.91,482.54c.28-8.81,2.6-13.51,6.6-19.33,6.45-9.38,19.76-14.24,34.58-14.37-14.76-1.89-27.77.82-35,11.32C140.1,466,138.19,473.73,137.91,482.54Z" transform="translate(-43.36 -3.18)" fill="#fff" opacity="0.4"/><path d="M181.19,396.53c1.43,12.35,14.34,20.14,25.7,15.07l.76-.35a69.6,69.6,0,0,0,23.43-20c8.33-11.79,7.56-24.93-4.23-33.25s-30.14-8.68-38.47,3.11C183.05,368.71,179.76,384.19,181.19,396.53Z" transform="translate(-43.36 -3.18)" fill="#6a4f4d"/><path d="M196.35,362.55a27.79,27.79,0,0,1,14.43-10.38c-8.68-.82-17.37,1.86-22.4,9-5.33,7.56-8.62,23-7.19,35.38a18.73,18.73,0,0,0,5.45,11.21C185.22,391.69,189.52,372.23,196.35,362.55Z" transform="translate(-43.36 -3.18)" fill="#ffe7d4" opacity="0.2"/><path d="M234.68,367a37.89,37.89,0,0,1-5.92,16.71c-5.62,9.05-17,20.88-28.77,27.55l-1,.52a24.51,24.51,0,0,1-2.58,1.15,17.75,17.75,0,0,0,10.44-1.29l.76-.35a69.6,69.6,0,0,0,23.43-20C236.83,383.15,238.24,374.36,234.68,367Z" transform="translate(-43.36 -3.18)" opacity="0.3"/><path d="M377.91,129.18a34,34,0,0,0,8.5-21.07c1.09-21.91-19.41-43.63-46-43.59a47.58,47.58,0,0,0-14.15,2.11c-14.1-12.27-28.88-21.45-43.79-26.14a41.11,41.11,0,0,1,12.85-5.93,53.28,53.28,0,0,1,10-1.69c-9.21-2.46-17.68-3.09-24.64-1.19-.27.07-.52.16-.78.24a80.66,80.66,0,0,1,12.17-17.14,87.22,87.22,0,0,1,13.25-11.6c-14.79,3.27-27.33,9.29-36,18.68A48.3,48.3,0,0,0,259.8,37h-.22c-6.22-7.17-14.74-11.16-26-10.45-10.63.68-22.87,5.47-35.74,13.07a86.55,86.55,0,0,1,15.09-2.39,55.63,55.63,0,0,1,25.29,3.85C170.88,66,133.13,198.92,133.13,272.44c0,81.36,46.22,139.36,127.58,139.36s167-58,167-139.36C427.75,233.14,407.76,176.86,377.91,129.18Z" transform="translate(-43.36 -3.18)" fill="#6a4f4d"/><path d="M222.79,60.78c-42.71-.07-75.62,34.81-73.86,70,1.7,35.37,34.62,58.22,73.86,58.35,39.23-.13,72.15-23,73.86-58.35C298.4,95.59,265.5,60.71,222.79,60.78Z" transform="translate(-43.36 -3.18)" fill="#6a4f4d"/><path d="M229.15,64.49a87.74,87.74,0,0,1,29,4.84,76.36,76.36,0,0,0-35.33-8.55c-35.45-.06-64.14,24-71.87,52.23C163.57,85.77,193.36,64.43,229.15,64.49Z" transform="translate(-43.36 -3.18)" fill="#ffe7d4" opacity="0.2"/><path d="M378.87,335.74a61.22,61.22,0,0,1-9.64,11.12,63.44,63.44,0,0,1-10.51-7.62l-.54-.51-.72-.71a29.4,29.4,0,0,1-6.84-9.71,29.72,29.72,0,0,0,7,11.5,48.35,48.35,0,0,1-4.91,7.06c-6.42,8.11-15.52,14.35-15.39,14.35a106.34,106.34,0,0,1-8.88-7.35l-.13-.13a63.37,63.37,0,0,1-6.38-6.87,45.38,45.38,0,0,1-6.64-10.45,60,60,0,0,0,3.87-4.72c4.33-5.59,7.53-12,8.61-18a42.13,42.13,0,0,1-8.26,14.85,61.28,61.28,0,0,1-5.12,5.66l-.19.18a103.74,103.74,0,0,1-10.08,8.51c0-.06-3.47-2.47-7.64-6.22l-.34-.31a66.6,66.6,0,0,1-7.41-7.82,42.13,42.13,0,0,1-8.26-14.85c1.07,6,4.27,12.41,8.61,18a66.7,66.7,0,0,0,6,7,47.23,47.23,0,0,1-5.71,8.53,65.25,65.25,0,0,1-6.22,6.71c-.12.12-.26.24-.38.37a107.9,107.9,0,0,1-8.79,7.26c.13,0-9-6.23-15.39-14.34a50.93,50.93,0,0,1-4-5.47c-.15-.25-.3-.49-.43-.73a36.38,36.38,0,0,1-3.86-8.65,36.2,36.2,0,0,0,3.29,9.56,37.34,37.34,0,0,1-3,4.11,68.27,68.27,0,0,1-12.22,11.38A68.77,68.77,0,0,1,226.15,346a33.52,33.52,0,0,1-6.55-11.79,34.22,34.22,0,0,0,6.83,14.28,69.75,69.75,0,0,0,11.93,11.95,69.42,69.42,0,0,0,11.95-11.95,40.67,40.67,0,0,0,3.71-5.71,51.73,51.73,0,0,0,4.87,7.54c6.22,8.45,15,15,15,15.06a102.43,102.43,0,0,0,9.58-8.65,48.44,48.44,0,0,0,5.61,10.94c5.67,8.83,14.05,15.9,14.05,16,0-.09,9.22-6,16-14.07a46.44,46.44,0,0,0,8.42-13.33,100.84,100.84,0,0,0,9.73,8.81c0-.1,8.81-6.61,15-15.07a49.92,49.92,0,0,0,5.86-9.56,63,63,0,0,0,11.32,9.09A61.75,61.75,0,0,0,378.86,338a30.39,30.39,0,0,0,4.65-13.15A29.54,29.54,0,0,1,378.87,335.74ZM319.69,366.5c-6.92,7.68-16.4,13.31-16.28,13.33S294.85,373,289,364.52a46.78,46.78,0,0,1-4.91-8.35,64.68,64.68,0,0,0,4.91-5.84,48.77,48.77,0,0,0,6.56-11.17,101,101,0,0,0,8.56,7.6,96.81,96.81,0,0,0,10.81-10A47.41,47.41,0,0,0,322.24,350a65.79,65.79,0,0,0,5,5.95A45.71,45.71,0,0,1,319.69,366.5Z" transform="translate(-43.36 -3.18)" fill="#ffe7d4" opacity="0.2"/><path d="M326.19,354.8c-.35-.39-.71-.79-1.06-1.2l-.33-.37-.9-1.09-.41-.51c-.43-.53-.84-1.07-1.25-1.62s-.7-.92-1-1.39l-.27-.36c-.32-.45-.63-.9-.93-1.36l-.05-.07c-.32-.48-.62-1-.92-1.45-.08-.12-.15-.24-.22-.36-.27-.44-.52-.87-.77-1.31l-.11-.19q-.39-.7-.75-1.41l-.26-.53-.18-.36a45.91,45.91,0,0,0,7,13.45c.78,1.1,1.6,2.16,2.44,3.18.36-.63.71-1.26,1-1.89l-1-1.07Zm-31.63-13.45-.15.3-.33.66-.39.74-.28.53c-.23.42-.47.85-.72,1.27l-.1.17-.7,1.15-.2.3-.66,1-.21.3-.73,1-.18.24-.94,1.26c-1.11,1.5-2.3,2.94-3.5,4.3l-.35.39-.69.75-.37.4c.41.91.87,1.81,1.35,2.7,1-1.24,2.06-2.54,3-3.89a46.23,46.23,0,0,0,6.83-12.84,95.84,95.84,0,0,0,9.32,8.83,91.9,91.9,0,0,0,10.56-10.23c.3-.35.6-.72.89-1.08-.41-1-.8-1.9-1.13-2.85-1,1.08-2,2.1-3,3.05l-.05.05c-.31.31-.62.61-.92.89l-.05.05-.79.73-.18.18-.74.67-.24.21c-.18.17-.36.32-.53.47l-.23.21-.61.53-.27.23-.42.36-.31.26-.39.33-.2.17-.46.37-.12.1-.38.3,0,0-.69.56-.14.11,0,0-.06.05a101,101,0,0,1-8.56-7.6c-.3.73-.63,1.46-1,2.18Zm24-5c4.36-5.86,7.49-12.68,8.21-18.87l-.06.17c-.16.51-.33,1-.52,1.53l-.06.16c-.2.53-.41,1.06-.64,1.59l-.16.39c-.23.53-.47,1.05-.72,1.57l-.1.2c-.24.48-.48,1-.74,1.43l-.2.38c-.28.51-.57,1-.87,1.52a3.45,3.45,0,0,1-.2.32c-.27.46-.56.92-.85,1.37-.06.08-.11.17-.16.25-.34.51-.68,1-1,1.51l-.24.33c-.36.51-.73,1-1.12,1.5s-.55.73-.83,1.09l-.19.26-.85,1.05-.09.11c-.28.34-.57.69-.87,1l-.07.09-1,1.1q.58,1.31,1.29,2.61C317.25,338.16,317.93,337.28,318.59,336.35Zm-24.65,4.28c.38-.65.75-1.31,1.09-2l-.2-.22c-.4-.4-.8-.82-1.2-1.25l-.23-.26c-.46-.49-.91-1-1.37-1.52l-.12-.14c-.47-.55-.94-1.11-1.4-1.68l-.07-.08c-.47-.59-.94-1.19-1.39-1.81q-1.62-2.08-3-4.31a49,49,0,0,1-2.47-4.46,46,46,0,0,0,7,13.42C291.64,337.85,292.78,339.29,293.94,340.63Zm89.14-12.92c-.05.25-.11.51-.17.77s-.13.51-.2.76-.13.48-.21.73-.2.62-.3.93l-.26.75c-.15.41-.31.82-.49,1.24-.08.2-.17.41-.27.61s-.26.61-.41.91l-.3.63c-.16.31-.32.62-.49.93s-.19.36-.29.54c-.27.49-.54,1-.83,1.44a49.28,49.28,0,0,1-4.62,6.47l0,0-.74.87-.06.07-.66.75-.08.08c-.2.24-.41.46-.6.67L372,347c-.19.21-.37.41-.55.59l-.05.05c-1.13,1.2-1.89,1.91-1.89,1.94a4,4,0,0,0-.55-.37,58.59,58.59,0,0,1-10.77-8.72c-.14.3-.29.61-.44.91l0,.06h0l-.43.83c-.06.14-.13.27-.2.4l-.34.63c-.11.2-.22.4-.34.6s-.19.33-.28.49-.28.48-.43.72-.16.28-.25.41-.33.53-.5.79l-.22.35-.57.84-.19.29-.65.91-.15.21c-.28.37-.55.74-.84,1.11-6.23,8.46-15,15-15,15.07,0-.06-3.49-2.66-7.63-6.69l-.22-.22-.26-.25c-.51-.51-1-1-1.56-1.58h0l-.06-.07c-.28.7-.59,1.4-.92,2.1h0c-.13.29-.28.58-.43.87l-.27.55c-.27.52-.56,1-.85,1.55l-.3.51c-.22.36-.43.72-.65,1.07s-.27.43-.41.64l-.62.93-.45.65-.65.9-.47.63-.74.94c-.15.18-.29.37-.44.54-.4.49-.8,1-1.22,1.44-6.75,8-16,14-16,14.07s-.79-.71-2.05-1.9h0l-.27-.26-.16-.16-.16-.15-.28-.27-.1-.1-.37-.36,0,0a77.51,77.51,0,0,1-10.62-12.75c-.38-.56-.75-1.14-1.11-1.72l-.29-.46c-.34-.56-.68-1.14-1-1.72l0,0c-.34-.62-.67-1.24-1-1.87-.06-.11-.11-.22-.16-.33-.27-.54-.52-1.07-.76-1.61a2.56,2.56,0,0,1-.11-.24h0c-.43-1-.83-2-1.18-3-.61.64-1.22,1.25-1.81,1.83l0,0c-.58.57-1.15,1.1-1.7,1.61l-.09.09c-.53.48-1,.94-1.51,1.36l-.15.14-.6.52-.08.07-.59.51-.23.19-.34.29-.23.19-.41.34-.29.24-.12.1L274,365.33h0l-.05.05c0-.1-8.82-6.61-15-15.06-.44-.57-.86-1.14-1.27-1.72-.13-.18-.26-.36-.38-.55-.27-.39-.54-.78-.8-1.18l-.48-.75c-.21-.33-.41-.65-.61-1s-.35-.59-.51-.88c-.08-.13-.16-.26-.23-.39s-.3-.55-.44-.82l-.15-.26a.41.41,0,0,1-.05.09l-.07.15-.48.83-.26.45c-.21.35-.43.7-.65,1.05l-.24.39-.62.9-.34.51c-.33.45-.66.9-1,1.34a48.31,48.31,0,0,1-3.43,4.12l0,0-.45.49-.06.06-.4.42-.11.11-.38.39-.12.13-.34.34-.17.16-.3.3-.19.18-.29.29-.2.18-.25.24-.23.22-.2.18-.27.25-.15.14-.31.28-.09.08-.35.32,0,0c-2.1,1.87-3.61,3-3.61,3s-.51-.41-1.34-1.1l-.08-.07-.16-.13-.17-.14-.1-.08-.25-.21,0-.05-.32-.26,0,0-.35-.3,0,0-.39-.34h0l-.84-.76h0l-.44-.4,0,0-.43-.39-.07-.06-.41-.39-.06-.06-.42-.4-.12-.12-.37-.36-.15-.16-.35-.34-.14-.15-.36-.37-.18-.18-.32-.34-.23-.24c-.09-.1-.19-.2-.28-.31s-.19-.2-.28-.31l-.23-.24-.31-.36-.19-.21-.36-.41c0-.06-.09-.12-.14-.17l-.39-.46a1.34,1.34,0,0,0-.11-.14l-.46-.56,0,0-.45-.58,0,0-.47-.63a40,40,0,0,1-4.36-7,36.68,36.68,0,0,0,5.58,10.65,65.8,65.8,0,0,0,11.11,11.59,65.8,65.8,0,0,0,11.11-11.59,37.56,37.56,0,0,0,4.54-7.84,47.13,47.13,0,0,0,6,10.63c5.8,8.21,14,14.53,14,14.61a93,93,0,0,0,10.13-9.72,47.05,47.05,0,0,0,5.8,12.55c5.26,8.55,13,15.39,13,15.48,0-.09,8.6-5.87,14.91-13.69A44,44,0,0,0,327,358.8a92.47,92.47,0,0,0,10.77,10.48c0-.09,8.21-6.41,14-14.61a46.63,46.63,0,0,0,6.66-12.36c.3.34.59.67.89,1a58,58,0,0,0,10.82,9.12,57.77,57.77,0,0,0,8.66-11.19c2.6-4.41,4.27-9.38,4.31-13.74A2.25,2.25,0,0,1,383.08,327.71Z" transform="translate(-43.36 -3.18)" opacity="0.1"/><path d="M228.09,61c3.34-7.62,6.36-14.18,8.88-19.41-11.06,4.33-21.3,11.59-30.71,21a76.54,76.54,0,0,1,16.53-1.77C224.57,60.78,226.34,60.85,228.09,61ZM214.75,355.44a235.34,235.34,0,0,0,9.42,24.78c-17.71-19.11-33.33-54.31-37.8-85.32-2.9-20-2.32-39.46,1.42-56.52-1.55,4.3-2.93,8.71-4.1,13.24a143.26,143.26,0,0,0-3.84,51c-12.85-27.5-6.9-74.19,5.53-121.35C172,175.1,161.23,165.58,155,153.43c-14.31,41.58-21.82,86.21-21.82,119,0,81.36,46.22,139.36,127.58,139.36,5.19,0,10.4-.24,15.59-.7C250,400.14,229.33,380.89,214.75,355.44Z" transform="translate(-43.36 -3.18)" fill="#ffe7d4" opacity="0.2"/><path d="M236.68,41.66c-11,4.35-21.1,11.56-30.43,20.89A77.05,77.05,0,0,1,217.32,61,123,123,0,0,1,236.68,41.66ZM152.27,267.9c0-27.6,5-63.33,14.67-98.83a57.22,57.22,0,0,1-12-15.65c-14.31,41.59-21.82,86.22-21.82,119,0,81.36,46.22,139.36,127.58,139.36,4.59,0,9.2-.19,13.8-.56C196.48,408.67,152.27,349.79,152.27,267.9Z" transform="translate(-43.36 -3.18)" fill="#ffe7d4" opacity="0.2"/><path d="M222.79,60.78c-42.71-.07-75.62,34.81-73.86,70,1.7,35.37,34.62,58.22,73.86,58.35,39.23-.13,72.15-23,73.86-58.35C298.4,95.59,265.5,60.71,222.79,60.78Z" transform="translate(-43.36 -3.18)" fill="#6a4f4d"/><path d="M229.15,64.49a87.74,87.74,0,0,1,29,4.84,76.36,76.36,0,0,0-35.33-8.55c-35.45-.06-64.14,24-71.87,52.23C163.57,85.77,193.36,64.43,229.15,64.49Z" transform="translate(-43.36 -3.18)" fill="#ffe7d4" opacity="0.2"/><path d="M326.23,66.63a148.46,148.46,0,0,0-26.64-18.8,227.2,227.2,0,0,1,20.25,21.29A47.29,47.29,0,0,1,326.23,66.63Zm51.68,62.55a41.62,41.62,0,0,1-13,9.8,425,425,0,0,1,21.56,50.8c14.35,10.12,25.68,27,30.44,48C421.6,258.53,419,279.29,411,296a144.35,144.35,0,0,0-3-45.1q-1.37-6-3.18-11.71c2.91,15.09,3.35,32.27,1.11,50-3.47,27.44-15.57,58.59-29.29,75.5a231.46,231.46,0,0,0,8.73-27.29c-16.61,29.36-43.61,52.69-74.66,67.34,63-17.79,117.05-67.67,117.05-132.29C427.75,233.14,407.75,176.86,377.91,129.18Z" transform="translate(-43.36 -3.18)" opacity="0.3"/><path d="M344.35,66.83a54.51,54.51,0,0,1,18,3,47.5,47.5,0,0,0-22-5.33c-22.08,0-40,14.92-44.78,32.54C303.5,80.09,322.06,66.79,344.35,66.83Z" transform="translate(-43.36 -3.18)" fill="#ffe7d4" opacity="0.2"/><path d="M362.6,73.14c-31.74-.06-56.21,25.86-54.9,52s25.74,43.27,54.9,43.36c29.17-.09,53.64-17.07,54.91-43.36S394.35,73.08,362.6,73.14Z" transform="translate(-43.36 -3.18)" fill="#ffe7d4"/><path d="M369.64,73.56c23.35,7,39.58,28.22,38.51,49.64-1.26,26.29-25.74,43.28-54.9,43.37a72.86,72.86,0,0,1-9.66-.68,70.45,70.45,0,0,0,19,2.62c29.17-.09,53.64-17.07,54.91-43.36C418.71,101,397.88,77,369.64,73.56Z" transform="translate(-43.36 -3.18)" fill="#e75400" opacity="0.2"/><path d="M215.69,70.12c-42.71-.08-75.62,34.8-73.86,70,1.7,35.36,34.62,58.22,73.86,58.34,39.23-.12,72.15-23,73.86-58.34C291.31,104.92,258.4,70,215.69,70.12Z" transform="translate(-43.36 -3.18)" fill="#ffe7d4"/><path d="M233.72,192.73c-39.23-.13-72.15-24.35-73.86-61.83-.92-19.58,7.73-39.07,22.34-53.16-25.14,12.17-41.63,37.18-40.37,62.35,1.7,35.36,34.62,58.22,73.86,58.34a90.73,90.73,0,0,0,37.21-7.77A91.27,91.27,0,0,1,233.72,192.73Z" transform="translate(-43.36 -3.18)" fill="#e75400" opacity="0.2"/><path d="M242.85,119.31q.06.6.06,1.23a12.32,12.32,0,1,1-9.4-11.93,21.64,21.64,0,1,0,9.34,10.7Z" transform="translate(-43.36 -3.18)" fill="#51364d"/><path d="M207.33,147.21a5.86,5.86,0,1,0-5.86-5.86A5.87,5.87,0,0,0,207.33,147.21Z" transform="translate(-43.36 -3.18)" fill="#fff"/><path d="M199.64,149a1.83,1.83,0,1,0-1.83-1.82A1.82,1.82,0,0,0,199.64,149Z" transform="translate(-43.36 -3.18)" fill="#fff"/><path d="M335.43,122.18l.54-.11a5.54,5.54,0,1,1-4.64,6.31,5.24,5.24,0,0,1,0-1.31,9.72,9.72,0,1,0,4.14-4.89Z" transform="translate(-43.36 -3.18)" fill="#51364d"/><path d="M334.75,140.59a2.54,2.54,0,1,0-2.53-2.54A2.54,2.54,0,0,0,334.75,140.59Z" transform="translate(-43.36 -3.18)" fill="#fff"/><path d="M331.43,141.38a.79.79,0,1,0-.79-.79A.79.79,0,0,0,331.43,141.38Z" transform="translate(-43.36 -3.18)" fill="#fff"/><path d="M263.69,201.71c-.24.12-22.8,31.63,11.39,27.81,14.72-1.65,82.08-38,82.08-38S299,188,263.69,201.71Z" transform="translate(-43.36 -3.18)" fill="#ff9e2e"/><path d="M336.41,202.4c11.94-6.15,20.75-10.91,20.75-10.91S299,188,263.69,201.71C280.16,197.87,307.21,199.18,336.41,202.4Z" transform="translate(-43.36 -3.18)" opacity="0.1"/><path d="M397.92,350.45c-3-7.38-5.27-16.83-7.36-27.57-2.44-13.11-12.06-85.51-16.47-97.78-5.68-15.74-13.93-26.87-24.19-33.49-13.37-8.47-28.31-8.85-47.1,2.23-23,13.82-28.4,41.45-34.29,60.91-3,10.29-6.39,20-10.83,22.4-3.52,1.79-13.19,3.52-38.65-8.61-4.88-2.37-11.5.79-15,7.16s-2.7,13.3,2.11,15.38c26.11,11.33,43.5,12.11,57.42,4.91,14.7-7.66,20.25-22.31,24.51-36.72,5.34-17.63,9.27-49.86,26.63-60,13.24-7.67,23.1-8.9,29.41-5,11.7,7.25,24,107.88,27.45,130.65,2.85,17,5.3,31.14,11,41.3A153.12,153.12,0,0,0,397.92,350.45Z" transform="translate(-43.36 -3.18)" opacity="0.2"/><path d="M276.93,224.85C257.69,227,256.42,218,259,209.63c-4.28,9.09-6.9,22.45,16.05,19.89,7.83-.88,30.57-11.59,50.13-21.42C303.6,216.6,283.13,224.15,276.93,224.85Z" transform="translate(-43.36 -3.18)" opacity="0.1"/><path d="M456.45,356.81c-1.65-5.46-9.34-11.67-15.07-7.43-10.41,7.68-24,16.06-29.64,14-11.91-4.21-13.95-28.14-18.45-50.68-2.52-13.21-12.49-86.11-17.06-98.47-5.88-15.85-14.43-27.06-25.05-33.72-13.86-8.53-29.33-8.92-48.79,2.24-23.87,13.91-29.42,41.75-35.53,61.33-3.07,10.38-6.61,20.17-11.21,22.57-3.65,1.8-13.66,3.54-40-8.67-5.05-2.39-11.9.79-15.55,7.2s-2.8,13.4,2.18,15.49c27,11.42,45.06,12.2,59.48,4.95,15.23-7.71,21-22.47,25.39-37,5.53-17.75,9.6-36.6,27.59-46.82,13.71-7.71,23.92-9,30.45-5.08,12.13,7.3,24.86,95,28.43,118,5.06,29.19,5.71,57.22,27.13,63.87a35.64,35.64,0,0,0,9.08,1.64c10.53.62,23.34-2.55,37.71-8.54C452.55,369.52,457.72,361.05,456.45,356.81Z" transform="translate(-43.36 -3.18)" fill="#f08b7d"/><path d="M351.18,180.48c-13.86-8.53-29.33-8.92-48.79,2.24a55.31,55.31,0,0,0-17.87,16.87,286.89,286.89,0,0,1,31.32,1.57c13.13-7.15,23-8.22,29.31-4.45,1.91,1.15,3.84,4.31,5.74,8.89,7.8,1.16,15.64,2.43,23.37,3.72C368.5,196,360.67,186.43,351.18,180.48Z" transform="translate(-43.36 -3.18)" opacity="0.1"/><path d="M286,222.07a20.79,20.79,0,0,0-6.31-5.62c1.06-3.09,2.2-6.22,3.42-9.31a41.55,41.55,0,0,1,8.66,2.57,21.32,21.32,0,0,0-7.8-4.69c1.62-3.94,3.39-7.82,5.33-11.51a67.31,67.31,0,0,0-9,13.14l0,0h0a100,100,0,0,0-4.78,10.52h0c-2.3,5.88-4.11,11.81-5.77,17.42h0l-.06.2c-.18.63-.37,1.25-.55,1.88l-.15.5h0c-.69,2.36-1.36,4.65-2.05,6.83-1.2,4.06-2.48,8-3.86,11.51-.33.84-.67,1.65-1,2.42h0a24.19,24.19,0,0,1-4.63,7.38,8.71,8.71,0,0,1-.82.7h0l-.37.26-.06,0-.43.25-.48.21-.07,0-.54.21c-2.5.88-7,1.41-14.77-.34h0c-.44-.1-.9-.2-1.36-.32h0L237,266a107.4,107.4,0,0,1-11.75-4h0l-1.07-.43-1-.41-.67-.28c-2.15-.9-4.44-1.9-6.87-3-5.05-2.39-11.9.79-15.55,7.2a14.57,14.57,0,0,0-1.93,10.47,17,17,0,0,1,2-5.06c3.8-6.41,10.92-9.59,16.18-7.2q2.76,1.23,5.28,2.26a37,37,0,0,0,1.1,16.44,74.18,74.18,0,0,1,1.5-15.39c4.47,1.77,8.39,3.1,11.83,4.09a25.84,25.84,0,0,0,.73,10.74,51.16,51.16,0,0,1,1.6-10.1c7.73,2,12.76,2.15,16,1.66a39,39,0,0,1-1.17,6.65,20.52,20.52,0,0,0,3.27-7.11A11,11,0,0,0,258,272c3.22-1.61,5.93-6.56,8.34-12.79a24.59,24.59,0,0,0,8.2.45,49.77,49.77,0,0,1-7.49-2.34c.92-2.51,1.79-5.18,2.62-7.89,1-3.19,2.15-7.09,3.4-11.45,2.28.45,4.63.93,7,1.44a60.86,60.86,0,0,0-6.44-3.32c1.55-5.42,3.31-11.45,5.38-17.64A40.12,40.12,0,0,1,286,222.07Z" transform="translate(-43.36 -3.18)" fill="#fff" opacity="0.4"/><path d="M394.44,345.8c2.12.25,4,.39,5.69.44-.15-.51-.3-1-.44-1.54C398,345.08,396.21,345.45,394.44,345.8Z" transform="translate(-43.36 -3.18)" fill="#fff" opacity="0.4"/><path d="M396.49,330l-.33-1.8c-.92-5.08-1.83-10.35-2.87-15.54-.22-1.19-.51-2.86-.85-4.92-.05-.32-.11-.65-.16-1h0c0-.33-.11-.67-.17-1-.58-3.67-1.29-8.27-2.09-13.46h0l-.18-1.23h0c-1.79-11.67-4-26-6.13-39.29v0h0c-.89-5.44-1.78-10.7-2.64-15.5h0c-.13-.75-.27-1.48-.4-2.2h0c-1.2-6.62-2.34-12.22-3.32-16.06v0c-.1-.41-.21-.79-.31-1.16h0c-.28-1-.55-1.88-.79-2.56a91.78,91.78,0,0,0-4.72-10.65l-.27-.52h0a61.61,61.61,0,0,0-15.05-18.92,233,233,0,0,1,12.39,20.4,19.48,19.48,0,0,0-4.91,4.29,38.22,38.22,0,0,1,5.75-2.69c.85,1.62,1.57,3.11,2.12,4.36a55.53,55.53,0,0,1,2.41,7.4,20.64,20.64,0,0,0-6.87,4.65,39.38,39.38,0,0,1,7.42-2.59c1.07,4.19,2.22,9.29,3.4,14.95-1.61.56-3.37,1.26-5.33,2.15,1.9-.21,3.8-.39,5.66-.56,1,5,2.1,10.42,3.16,16-1.58.55-3.29,1.23-5.2,2.09,1.84-.19,3.68-.38,5.49-.54,1.27,6.73,2.54,13.67,3.76,20.43-1.86.41-3.77.81-5.68,1.2,2.24.26,4.21.4,6,.44.95,5.28,1.87,10.41,2.74,15.23l-2.77.58c1,.12,2,.21,2.92.28.91,5.06,1.77,9.75,2.54,13.83a63.82,63.82,0,0,0-6.25,2.45c2.22-.24,4.43-.45,6.59-.64.94,4.93,1.74,8.83,2.35,11.23.77,2.95,1.51,5.92,2.23,8.87-2.46.56-5,1.11-7.6,1.63A59.1,59.1,0,0,0,396.49,330Z" transform="translate(-43.36 -3.18)" fill="#fff" opacity="0.4"/><path d="M454.72,353.43c-3-4.2-8.79-7.41-13.34-4.05-2.87,2.11-6,4.28-9.1,6.27L430.11,357a58.65,58.65,0,0,1-12,5.88c-.34.11-.68.2-1,.29l-.34.09-.79.17a11.7,11.7,0,0,1-2.18.24,16.27,16.27,0,0,0,2.93,3.08,50,50,0,0,1,1.5,8.5,24,24,0,0,0,.73-7.08,11.65,11.65,0,0,0,1.41.59c3,1.09,8.41-.69,14.37-3.75,1,1.91,1.87,3.8,2.61,5.65a29.74,29.74,0,0,0-1.25-6.36,146.91,146.91,0,0,0,15.1-9.52A7.35,7.35,0,0,1,454.72,353.43Z" transform="translate(-43.36 -3.18)" fill="#fff" opacity="0.4"/><path d="M311.83,200.66A42.65,42.65,0,0,0,298.33,212c-1.29-.53-2.66-1-4.11-1.51l3.46,2.35a60.65,60.65,0,0,0-6.82,11.86c-1-.39-2-.77-3.14-1.12l2.8,1.9c-2.11,4.87-3.81,10-5.47,15.1-.9-.15-1.82-.3-2.77-.42.86.38,1.71.75,2.55,1.1-.64,2-1.27,3.92-1.92,5.87a126.66,126.66,0,0,1-5,13.24c-.78-.13-1.58-.25-2.4-.35l2.13.92c-4.37,9.36-10.6,17.74-21.26,22.83a45.4,45.4,0,0,1-4.61,1.88c.19-1,.36-2,.5-3.05-.52,1.15-1,2.28-1.5,3.38-11.86,3.78-26.12,2.85-45.1-3.91,25.16,10.05,42.26,10.48,56.06,3.54,15.23-7.71,21-22.47,25.39-37q.87-2.82,1.72-5.67h0l.45-1.48c1.41-4.65,2.86-9.29,4.63-13.74.19-.5.39-1,.6-1.48h0a62,62,0,0,1,6.1-11.47c.32-.45.64-.91,1-1.35a41.75,41.75,0,0,1,13.11-11.63c11.52-6.48,20.57-8.4,27-6.54C335.06,192.2,325,193.64,311.83,200.66Z" transform="translate(-43.36 -3.18)" opacity="0.1"/><path d="M397.77,377.41c-6.56-6.51-9.83-16.51-12.19-28.16,1.08-.42,2.18-.88,3.31-1.41l-3.48.53c-1.05-5.35-1.93-11-2.86-16.87,1.17-.44,2.36-.94,3.59-1.51l-3.74.56c-.54-3.45-1.11-7-1.75-10.48-.4-2.48-.91-5.71-1.52-9.52.75-.31,1.51-.64,2.29-1l-2.4.36c-.7-4.36-1.52-9.44-2.46-15,.54-.23,1.07-.46,1.61-.71l-1.68.25c-.91-5.41-1.93-11.23-3-17.24.64-.27,1.29-.56,1.95-.86l-2.05.3c-1.21-6.63-2.52-13.46-3.91-20.19l1.23-.55-1.3.19c-1.21-5.83-2.48-11.58-3.78-17,.76-.31,1.54-.64,2.33-1l-2.49.37c-1-4.29-2.1-8.38-3.18-12.18.46-.3.93-.62,1.4-.95l-1.53.52c-1.36-4.74-2.75-9-4.15-12.57.86-.6,1.74-1.24,2.63-1.94l-2.94,1.18c-2.18-5.4-4.4-9.13-6.6-10.4a15.35,15.35,0,0,0-2.36-1.08,75.08,75.08,0,0,1,5.43,13.78c.06.21.13.42.19.64,2.14,7,4.22,15.45,6.17,24.46,0,.12.05.24.08.35,2.7,12.5,5.17,26.06,7.26,38.39,0,.13,0,.26.07.38,1,6,1.94,11.73,2.76,16.88l.14.92c.86,5.45,1.59,10.23,2.18,14h0v.05c.22,1.39.41,2.65.58,3.75,1,5.73,1.82,11.4,2.66,16.89h0l.3,1.9h0c.87,5.57,1.79,10.91,2.95,15.86h0c.15.62.29,1.22.44,1.82h0C383,363.38,387.9,373,397.77,377.41Z" transform="translate(-43.36 -3.18)" opacity="0.1"/><path d="M401.85,137.74c-17.07-13.82-42.46,41.9-72.77,27.29s-65.22,36.76-65.39,36.68c41.3-9.62,122.33-.08,163.63,4.09C427.56,205.59,415.19,148.13,401.85,137.74Z" transform="translate(-43.36 -3.18)" fill="#ff9e2e"/><path d="M401.85,137.74c-17.07-13.82-42.46,41.9-72.77,27.29-15.61-7.53-32.42,2.43-45.09,13.85,13.84-9.08,31.34-15.94,44.94-9.39,30.31,14.62,53.85-25.83,70.92-12,13.34,10.38,27.71,48.1,27.47,48.31C427.56,205.59,415.19,148.13,401.85,137.74Z" transform="translate(-43.36 -3.18)" fill="#fff" opacity="0.4"/><path d="M401.85,137.74c-17.07-13.82-42.46,41.9-72.77,27.29-14.07-6.79-29.12.64-41.24,10.54,13-8.89,28.37-15.06,41.76-8.6,30.31,14.62,51.79-36.87,71.18-27,6.34,3.22,12.09,15.37,16.61,28.36C413,155,407.5,142.14,401.85,137.74Z" transform="translate(-43.36 -3.18)" fill="#fff" opacity="0.2"/><path d="M308.76,172.77s-3.05,3.44,1,3.4c1.74,0,10.09-3.47,10.09-3.47S313.08,171.59,308.76,172.77Z" transform="translate(-43.36 -3.18)" opacity="0.2"/><g opacity="0.8"><path d="M339.72,269.49c-2.29,2-2.14,6.06-.15,8.66s5.05,2.91,7.22,1.11a5.93,5.93,0,0,0,.82-8C345.74,268.52,342,267.49,339.72,269.49Z" transform="translate(-43.36 -3.18)" opacity="0.3"/><path d="M323.8,290.77a2.23,2.23,0,0,0-.23,3.05,1.86,1.86,0,0,0,2.65.54,2,2,0,0,0,.46-2.76A2.09,2.09,0,0,0,323.8,290.77Z" transform="translate(-43.36 -3.18)" opacity="0.3"/><path d="M353.78,255.79c-1-1.34-2.82-1.79-3.89-.73s-.9,3.11.14,4.36a2.33,2.33,0,0,0,3.55.35A3,3,0,0,0,353.78,255.79Z" transform="translate(-43.36 -3.18)" opacity="0.3"/><path d="M337.7,257.35c-1.22-1.62-3.55-2.16-4.91-.89s-1.16,3.73.15,5.24a3.06,3.06,0,0,0,4.49.44A3.5,3.5,0,0,0,337.7,257.35Z" transform="translate(-43.36 -3.18)" opacity="0.3"/><path d="M320.21,255.54a1.72,1.72,0,0,0,.1-2.43,1.89,1.89,0,0,0-2.63-.41,1.94,1.94,0,0,0,.12,2.67A1.7,1.7,0,0,0,320.21,255.54Z" transform="translate(-43.36 -3.18)" opacity="0.3"/><path d="M319.32,248.11a1.06,1.06,0,0,0,0-1.5,1.06,1.06,0,1,0-1.51,1.43A1,1,0,0,0,319.32,248.11Z" transform="translate(-43.36 -3.18)" opacity="0.3"/><path d="M326.41,268.87c-1.39-1.91-4.13-2.6-5.8-1.21s-1.53,4.2,0,6a3.71,3.71,0,0,0,5.3.71A3.92,3.92,0,0,0,326.41,268.87Z" transform="translate(-43.36 -3.18)" opacity="0.3"/></g></svg>