<svg xmlns="http://www.w3.org/2000/svg" viewBox="0 0 56.2 49.45"><g opacity="0.2"><path d="M44.45,20.39a3.72,3.72,0,0,0-3.52,0l-8.22,4.84-5.57,3.08-8.07,4.84a3.72,3.72,0,0,1-3.52,0L9.24,29.34a3.57,3.57,0,0,1-1.76-3.08V18.92a3.6,3.6,0,0,1,1.76-3.08l6.31-3.67a3.72,3.72,0,0,1,3.52,0L25.38,16a3.58,3.58,0,0,1,1.76,3.08v4.84l5.57-3.23v-5A3.61,3.61,0,0,0,31,12.61L19.21,5.72a3.72,3.72,0,0,0-3.52,0l-12,7A3.23,3.23,0,0,0,1.9,15.69v13.8a3.64,3.64,0,0,0,1.76,3.08l11.89,6.89a3.72,3.72,0,0,0,3.52,0l8.07-4.69,5.57-3.23,8.08-4.69a3.72,3.72,0,0,1,3.52,0l6.31,3.66a3.6,3.6,0,0,1,1.76,3.09v7.33A3.61,3.61,0,0,1,50.62,44l-6.17,3.67a3.72,3.72,0,0,1-3.52,0L34.62,44a3.58,3.58,0,0,1-1.76-3.08V36.24l-5.57,3.22v4.85a3.61,3.61,0,0,0,1.76,3.08l11.88,6.89a3.72,3.72,0,0,0,3.52,0l11.89-6.89a3.57,3.57,0,0,0,1.76-3.08V30.37a3.61,3.61,0,0,0-1.76-3.08Z" transform="translate(-1.9 -5.28)" fill="#8247e5"/></g></svg>