<?xml version="1.0" encoding="utf-8"?>
<!-- Generator: Adobe Illustrator 26.0.1, SVG Export Plug-In . SVG Version: 6.00 Build 0)  -->
<!DOCTYPE svg PUBLIC "-//W3C//DTD SVG 1.1//EN" "http://www.w3.org/Graphics/SVG/1.1/DTD/svg11.dtd" [
	<!ENTITY ns_extend "http://ns.adobe.com/Extensibility/1.0/">
	<!ENTITY ns_ai "http://ns.adobe.com/AdobeIllustrator/10.0/">
	<!ENTITY ns_graphs "http://ns.adobe.com/Graphs/1.0/">
	<!ENTITY ns_vars "http://ns.adobe.com/Variables/1.0/">
	<!ENTITY ns_imrep "http://ns.adobe.com/ImageReplacement/1.0/">
	<!ENTITY ns_sfw "http://ns.adobe.com/SaveForWeb/1.0/">
	<!ENTITY ns_custom "http://ns.adobe.com/GenericCustomNamespace/1.0/">
	<!ENTITY ns_adobe_xpath "http://ns.adobe.com/XPath/1.0/">
]>
<svg version="1.1" id="Layer_1" xmlns:x="&ns_extend;" xmlns:i="&ns_ai;" xmlns:graph="&ns_graphs;"
	 xmlns="http://www.w3.org/2000/svg" xmlns:xlink="http://www.w3.org/1999/xlink" x="0px" y="0px" viewBox="0 0 1970.8 273.5"
	 style="enable-background:new 0 0 1970.8 273.5;" xml:space="preserve">
<style type="text/css">
	.st0{fill:#212529;}
	.st1{fill:#D6A175;}
</style>
<metadata>
	<sfw  xmlns="&ns_sfw;">
		<slices></slices>
		<sliceSourceBounds  bottomLeftOrigin="true" height="273.5" width="1970.8" x="0" y="0.1"></sliceSourceBounds>
	</sfw>
</metadata>
<g>
	<path class="st0" d="M477.9,233.9c-9,12.9-21.7,22.9-36.4,28.5c-12.8,5.7-27.8,8.6-43.2,8.6c-8.5,0-17-1-25.3-2.8
		c-26-5-48.5-18.2-63.5-36.4c-12.1-14.8-10-36.6,4.6-48.9c6.3-5,14.1-7.8,22.1-7.8c10.4,0,20.2,4.7,26.8,12.8
		c5,6.1,13.2,10.7,23.5,12.8c3.9,0.7,7.8,1.1,11.8,1.1c5.7,0.1,11.4-0.9,16.8-2.8c2.9-1.4,5-2.8,5.7-3.9c0.3-1,0.4-2.1,0.4-3.2
		c-0.4-1.4-0.4-2.2-3.9-4.6c-6.4-4.6-16.8-8.2-27.8-12.5c-15.3-5.7-31-11.4-45-21.8c-9.1-6.3-16.5-14.6-21.8-24.3
		c-6.1-10.7-8.9-22.5-8.9-35.7c0-17.8,5.4-33.5,15.7-46.7c9.5-11.9,22.1-20.9,36.4-26c11.7-4,24-6.1,36.4-6.1
		c7.5,0,15.1,0.7,22.5,2.1c21.8,4.6,40.7,15.3,53.5,30.3c12.4,14.5,10.7,36.3-3.8,48.7c-0.1,0-0.1,0.1-0.2,0.1
		c-6.1,5.3-14,8.3-22.1,8.2c-10.1,0-19.8-4.4-26.4-12.1c-2.8-3.6-8.6-6.4-15-7.5c-2.8-0.7-5.7-1.1-8.6-1.1
		c-4.3-0.1-8.5,0.6-12.5,2.1c-3.9,1.4-5.3,2.8-5.7,3.6c-0.3,0.4-1.4,1.4-1.4,4.3c-0.1,2,1,3.9,2.8,4.6c6.1,4.3,16.8,8.2,27.8,12.5
		c14.6,5.3,29.6,10.7,43.2,20c8.5,5.9,15.9,13.2,21.8,21.8c6.5,9.7,10.4,20.8,11.4,32.4C491.8,201.8,487.7,219.4,477.9,233.9z"/>
	<path class="st0" d="M630.9,200.1c18.5,0,33.5,15,33.5,33.5v0.1c0,18.6-15,33.9-33.5,33.9h-96c-18.7-0.1-33.8-15.2-33.9-33.9v-186
		c0-18.6,15.4-33.5,33.9-33.5s33.5,15,33.5,33.5c0,0,0,0,0,0.1v152.3H630.9z"/>
	<path class="st0" d="M903.8,142.6c0.1,17.3-3.3,34.4-10,50.3c-13.1,30.7-37.5,55.1-68.1,68.1c-32.1,13.3-68.2,13.3-100.2,0
		c-15.2-6.4-29-15.7-40.7-27.5c-11.7-11.7-21-25.5-27.5-40.7c-13.8-32-13.8-68.3,0-100.2c13.1-30.7,37.5-55.1,68.1-68.1
		c32-13.8,68.3-13.8,100.2,0c15.2,6.5,29,15.8,40.7,27.5c11.7,11.6,21.1,25.4,27.5,40.7C900.5,108.5,903.9,125.5,903.8,142.6z
		 M846.4,142.6c0-18.9-7.5-36.4-20.7-49.9C812.3,79.5,794.2,72,775.4,72c-18.9,0-36.4,7.5-49.9,20.7c-13.2,13.6-20.7,31-20.7,49.9
		c0,18.8,7.5,36.9,20.7,50.3c13.6,13.2,31,20.7,49.9,20.7c39,0.2,70.8-31.3,71-70.3C846.4,143.1,846.4,142.9,846.4,142.6
		L846.4,142.6z"/>
	<path class="st0" d="M1093.3,104.8c0,32.5-9.6,57.8-28.5,75.6c-21.4,19.6-47.1,21.8-57.1,21.8h-2.5l-23.6-0.4v35.7
		c-0.3,18.5-15.6,33.3-34.1,33c-18.1-0.3-32.6-14.9-33-33V51.2c0.1-18.5,15.1-33.4,33.5-33.5h59.5c7.9,0.2,15.6,1.4,23.2,3.6
		c14.6,3.6,27.9,11.1,38.5,21.8C1085,58.8,1093.3,79.5,1093.3,104.8z M1036.2,104.8c0-7.5-1.4-13.6-3.9-18.2c-2.3-3.3-5.3-6-8.9-7.8
		c-4.9-2.3-10.3-3.7-15.7-3.9h-36.4v70.3l35,0.4h1.3c1.8,0,11.4-0.4,18.6-6.8C1033,132.2,1036.2,120.8,1036.2,104.8L1036.2,104.8z"
		/>
</g>
<path class="st1" d="M1265.9,233.9c-9,12.9-21.7,22.9-36.4,28.5c-12.8,5.7-27.8,8.6-43.2,8.6c-8.5,0-17-1-25.3-2.8
	c-26-5-48.5-18.2-63.5-36.4c-12.1-14.8-10-36.6,4.6-48.9c6.3-5,14.1-7.8,22.1-7.8c10.4,0,20.2,4.7,26.8,12.8
	c5,6.1,13.2,10.7,23.6,12.8c3.9,0.7,7.8,1.1,11.8,1.1c5.7,0.1,11.4-0.9,16.8-2.8c2.8-1.4,5-2.8,5.7-3.9c0.3-1,0.4-2.1,0.3-3.2
	c-0.3-1.4-0.3-2.2-3.9-4.6c-6.4-4.6-16.8-8.2-27.8-12.5c-15.3-5.7-31-11.4-44.9-21.8c-9.1-6.3-16.5-14.6-21.8-24.3
	c-6.1-10.7-8.9-22.5-8.9-35.7c0-17.8,5.3-33.5,15.7-46.7c9.5-11.9,22.1-20.9,36.4-26c11.7-4,24-6.1,36.4-6.1
	c7.5,0,15.1,0.7,22.5,2.1c21.8,4.6,40.7,15.3,53.5,30.3c12.4,14.5,10.7,36.3-3.7,48.7c-0.1,0.1-0.1,0.1-0.2,0.2
	c-6.1,5.3-14,8.3-22.1,8.2c-10.1,0-19.8-4.4-26.4-12.1c-2.8-3.6-8.6-6.4-15-7.5c-2.8-0.7-5.7-1.1-8.6-1.1c-4.3-0.1-8.5,0.6-12.5,2.1
	c-3.9,1.4-5.3,2.8-5.7,3.6c-0.3,0.4-1.4,1.4-1.4,4.3c-0.1,2,1,3.9,2.8,4.6c6.1,4.3,16.8,8.2,27.8,12.5c14.6,5.3,29.6,10.7,43.2,20
	c8.5,5.8,15.9,13.2,21.8,21.8c6.5,9.7,10.4,20.9,11.4,32.5C1279.9,201.8,1275.7,219.4,1265.9,233.9z"/>
<path class="st1" d="M1597,62l-60.7,182.7c-4.4,13.3-16.7,22.4-30.7,22.8h-1c-13.6,0.1-25.9-8.1-31-20.7l-31.4-76.7l-31.4,76.7
	c-5.3,12.5-17.5,20.6-31,20.7h-1.4c-14-0.4-26.3-9.5-30.7-22.8L1287.4,62c-6-17.4,3.3-36.4,20.8-42.4c0.1,0,0.2-0.1,0.2-0.1
	c3.5-1.1,7.1-1.7,10.7-1.8c14.6,0,27.5,9.3,32.1,23.2l31.8,96l27.8-68.5c7.3-17.2,27.2-25.3,44.4-18c8.1,3.4,14.6,9.9,18,18
	l28.2,68.5l31.8-96c4.5-13.8,17.3-23.1,31.8-23.2c3.6,0.1,7.2,0.7,10.7,1.8c8.4,2.9,15.5,8.9,19.6,16.8
	C1599.2,44.3,1599.8,53.5,1597,62z"/>
<path class="st1" d="M1778.9,221.1c7.1,17.1-1.1,36.8-18.2,43.9l0,0c-4.1,1.7-8.4,2.6-12.8,2.5c-13.6,0-25.8-8.1-31-20.7l-14.3-34.2
	h-61l-13.6,33.9c-5.3,12.5-17.5,20.6-31,20.7c-4.4,0.1-8.8-0.7-12.8-2.5c-17.2-6.8-25.6-26.3-18.7-43.5c0.1-0.1,0.1-0.3,0.2-0.4
	l75.2-180.5c0-0.7,0.3-1.1,0.3-1.8c3.5-8.2,10-14.7,18.2-18.2c4.1-1.5,8.5-2.4,12.8-2.5c13.7,0,26,8.1,31.4,20.7L1778.9,221.1z
	 M1665.3,145.5h14.2c3.7,0,6.7-3,6.7-6.7c0-0.8-0.1-1.6-0.4-2.3l-7.1-19.5c-1.3-3.5-5.1-5.3-8.6-4c-1.9,0.7-3.3,2.1-4,4l-7,19.5
	c-1.3,3.5,0.5,7.3,4,8.6C1663.7,145.3,1664.5,145.5,1665.3,145.5L1665.3,145.5z"/>
<path class="st1" d="M1970.8,104.8c0,32.5-9.6,57.8-28.5,75.6c-21.4,19.6-47.1,21.8-57.1,21.8h-2.5l-23.6-0.4v35.7
	c-0.3,18.5-15.6,33.3-34.1,33c-18.1-0.3-32.6-14.9-33-33V51.2c0.1-18.5,15.1-33.4,33.5-33.5h59.6c7.9,0.2,15.6,1.4,23.2,3.6
	c14.6,3.6,27.9,11.1,38.5,21.8C1962.6,58.8,1970.8,79.5,1970.8,104.8z M1913.8,104.8c0-7.5-1.4-13.6-3.9-18.2
	c-2.3-3.3-5.3-6-8.9-7.8c-4.9-2.3-10.3-3.7-15.7-3.9h-36.4v70.3l35,0.4h1.4c1.8,0,11.4-0.4,18.6-6.8
	C1910.6,132.2,1913.8,120.8,1913.8,104.8z"/>
<g>
	<path class="st0" d="M277.8,3c0,0-25.9-5-31.8,18.8s-17.1,16.3-17.1,16.3l13.3,21.8l35.6-51.6l3.2-4.9"/>
	<g>
		<path class="st1" d="M0.4,100.7c1,1.9,14,8.5,19,8.9c0.4,1,7,5.3,12,7.6c-5.4,35.1,7.5,67.4,26.1,85
			c29.1,27.6,42.9,33.7,42.9,33.7s-0.7,31.4,0.8,32.2s4.7,5.3,13.8,5.3h34.1c7.7,0,8.1-4.7,9.2-6.5s-1.1-11.5,0-11.9
			s43.7-0.8,48.6-0.8c-0.8,5.8,0.8,17.2,8.8,17.2s29.1,1.9,37.5,1.9c5.1,0.1,9.8-2.7,12.2-7.2c0.8-1.2-1.2-26,0-30.2l0.7-0.3
			c8.5-4.1,42-28,48.8-39.9c17.6-0.4,49-8.4,54.3-54.4c0-1.6,0-3.1-0.1-4.6c-0.2-8.6-0.3-15.3-0.6-20.7c-0.7-15.4-2.1-18.6-7-18.8
			c-6.6-0.2-29.5,0.8-31.8,0C325,82.3,304,48.5,282.2,37.8C281,6,281.3,1,279.9,0.6l0,0c-1.1-1.9-30.3-1.4-35.6,18h-0.2
			c-4.2-1.3-10.1-3.1-17.3-4.9C203.5,8,166.2,3.1,125.7,16.8c-23.3,8-44.6,20.8-62.6,37.6c-0.9,0.8-1.8,1.7-2.7,2.5
			c-15.2,17.2-23.9,35.5-27.9,53.2c-2.1-0.6-3.9-2-4.9-3.9c1.4-0.6,4-4.7,5.5-10.9c1.5-6.2-6-9.2-11.1-9s-6.9,9.3-7.5,14.7
			c-1.1,1.1-7.9-6.4-11.2-8.1S-0.6,98.7,0.4,100.7z M22.1,94.3c0.6-0.7,1.5-1.2,2.4-1.3c0.5-0.2,1.1-0.1,1.5,0.2
			c0.2,0.2,0.3,0.5,0.3,0.8c0.3,1.2,0.3,2.5,0,3.7c-0.3,0.6-0.7,1.1-1.1,1.6c-0.2,0.3-0.5,0.5-0.9,0.7c-0.3,0.2-0.7,0.2-1.1,0
			c-0.3-0.2-0.6-0.6-0.9-0.5c-0.2-0.8-0.3-1.6-0.5-2.4C21.7,96.2,21.8,95.1,22.1,94.3L22.1,94.3z"/>
		<g>
			<path class="st0" d="M125.9,24.6c40.5-13.7,77.8-8.8,101.1-3.1c0.9,1.7,1.4,3.6,1.4,5.6c0,0.7-0.1,1.4-0.2,2.1
				c-1,5.4-5.3,8.8-9.7,7.8c-27.3-6.4-55.7-6.4-82.9,0c-4.4,1-8.7-2.4-9.7-7.8C125.6,27.7,125.6,26.1,125.9,24.6z M286.3,92
				c0,5.4,4.4,9.8,9.8,9.8s9.8-4.4,9.8-9.8s-4.4-9.8-9.8-9.8l0,0C290.7,82.3,286.3,86.6,286.3,92L286.3,92z"/>
			<path class="st0" d="M236.7,44c0.2-4.1,2.6-7.8,4.9-11.2c1.5-1.9,2.6-4.1,3.5-6.3c0.5-1.5,0.7-3.1,0.7-4.7h0.2
				c5.3-19.4,31.5-19.9,35-18.4c-7.9,3-14.6,8.6-18.9,15.9c-0.8,1.5-1.5,3-2.2,4.5c-3.1,6.8-6,13.7-8.7,20.7
				c-0.5,2.1-1.7,3.9-3.4,5.2c-1.9,1-4.1,1.2-6.1,0.7c-1.1-0.2-2.1-0.6-3-1.2C237.2,47.9,236.5,45.9,236.7,44L236.7,44z"/>
		</g>
	</g>
</g>
</svg>
