<svg xmlns="http://www.w3.org/2000/svg" viewBox="0 0 490.36 418.09"><path d="M245,428.63C137,428.63-8.12,445.85-8.12,452S137,463.25,245,463.25,475,458.23,475,452,353.12,428.63,245,428.63Z" transform="translate(8.12 -51.54)" opacity="0.1"/><polygon points="263.37 318.77 266.79 387.08 269.5 387 271.53 314.36 263.37 318.77" fill="#ff9e2e"/><polygon points="268.31 387.03 269.5 387 271.53 314.36 268.31 387.03" fill="#fff" opacity="0.4"/><polygon points="268.37 352.3 265.71 352.66 263.37 318.77 266.1 373.32 266.1 373.32 266.13 374.02 266.13 374.02 266.42 379.61 266.42 379.61 266.44 380.08 266.79 387.08 268.09 387.04 267.57 379.61 268.05 379.39 267.56 379.46 267.15 373.55 268.34 373.01 267.13 373.18 266.82 368.69 268.5 367.92 266.78 368.15 266.46 363.58 268.99 362.43 266.41 362.78 266.12 358.54 268.57 357.43 266.06 357.76 265.77 353.49 268.37 352.3" fill="#d04000" opacity="0.4"/><path d="M288.28,436.75c-12.51-10.33-31.54-3.38-48.53,9,9.16-3.92,18.2-6.3,26.66-6.56A27.62,27.62,0,0,1,268,456.22a37.15,37.15,0,0,1-2.14,6.73c4.44-4.9,7.51-9.93,8.55-14.82a16.7,16.7,0,0,0,.29-5.37,33.11,33.11,0,0,1,7.49,18.41,44.37,44.37,0,0,1,0,8.46c3.33-7.19,5.06-14,4.5-20a20,20,0,0,0-1.93-7,36.27,36.27,0,0,1,8,5,41.93,41.93,0,0,1,5.87,6C296.29,446.46,292.92,440.57,288.28,436.75Z" transform="translate(8.12 -51.54)" fill="#ff9e2e"/><path d="M292.84,446.92a14.26,14.26,0,0,0-8.11-4.28,36.27,36.27,0,0,1,8,5,41.93,41.93,0,0,1,5.87,6C296.77,451.39,294.39,448.48,292.84,446.92Z" transform="translate(8.12 -51.54)" fill="#d04000" opacity="0.4"/><path d="M282.16,469.63c.28-2.92,1.23-6.61,1.22-8.84,0-5-2.22-13-8.66-18a33.11,33.11,0,0,1,7.49,18.41A44.37,44.37,0,0,1,282.16,469.63Z" transform="translate(8.12 -51.54)" fill="#d04000" opacity="0.4"/><path d="M268,456.22c1.31-6.17,2.35-13.46.12-18.65-8.47.26-19.23,4.24-28.39,8.16,9.16-3.92,18.2-6.3,26.66-6.56A27.62,27.62,0,0,1,268,456.22Z" transform="translate(8.12 -51.54)" fill="#d04000" opacity="0.4"/><path d="M288.28,436.75c-8.36-6.91-19.64-6.08-31.28-1.09,12.16-3.36,24.19-2.49,31.66,3.68,4.63,3.82,7.63,7.12,9.91,14.27C296.29,446.46,292.92,440.57,288.28,436.75Z" transform="translate(8.12 -51.54)" fill="#fff" opacity="0.4"/><polygon points="98.17 323.03 68.73 384.76 71.15 385.98 107.45 323.03 98.17 323.03" fill="#ff9e2e"/><polygon points="70.09 385.44 71.15 385.98 107.45 323.03 70.09 385.44" fill="#fff" opacity="0.4"/><polygon points="86.64 354.91 84.13 353.97 98.17 323.03 74.66 372.33 74.66 372.33 74.36 372.96 74.36 372.96 71.95 378.02 71.95 378.02 71.75 378.44 68.73 384.76 69.89 385.35 72.97 378.57 73.49 378.6 73.03 378.43 75.48 373.04 76.77 373.13 75.63 372.69 77.49 368.6 79.33 368.72 77.71 368.11 79.61 363.93 82.38 364.12 79.94 363.2 81.7 359.33 84.38 359.52 82.02 358.62 83.79 354.72 86.64 354.91" fill="#d04000" opacity="0.4"/><path d="M46.3,434.33c14.61-7.07,31.45,4.2,45,20.24-8-6-16.18-10.44-24.35-12.7a27.71,27.71,0,0,0-5.61,16.18,37,37,0,0,0,.49,7c-3.15-5.81-5-11.42-4.79-16.42a16.91,16.91,0,0,1,1-5.29,33.11,33.11,0,0,0-11.64,16.11,45,45,0,0,0-2,8.23c-1.53-7.77-1.58-14.83.38-20.5a20,20,0,0,1,3.53-6.33,36.43,36.43,0,0,0-8.94,3,42.17,42.17,0,0,0-7.11,4.4C36.22,441.87,40.89,436.94,46.3,434.33Z" transform="translate(8.12 -51.54)" fill="#ff9e2e"/><path d="M39.46,443.13a14.32,14.32,0,0,1,8.9-2.24,36.43,36.43,0,0,0-8.94,3,42.17,42.17,0,0,0-7.11,4.4C34.59,446.54,37.58,444.28,39.46,443.13Z" transform="translate(8.12 -51.54)" fill="#d04000" opacity="0.4"/><path d="M44.45,467.72c.42-2.9.37-6.71.91-8.87,1.22-4.85,5.25-12.13,12.69-15.47a33.11,33.11,0,0,0-11.64,16.11A45,45,0,0,0,44.45,467.72Z" transform="translate(8.12 -51.54)" fill="#d04000" opacity="0.4"/><path d="M61.36,458.05c.2-6.31.91-13.63,4.32-18.14,8.16,2.26,17.66,8.68,25.64,14.66-8-6-16.18-10.44-24.35-12.7A27.71,27.71,0,0,0,61.36,458.05Z" transform="translate(8.12 -51.54)" fill="#d04000" opacity="0.4"/><path d="M32.31,448.27c3.91-6.4,7.61-8.9,13-11.51,8.73-4.22,20.61-2.22,31.63,3.93-10.12-7.61-20.88-11.09-30.65-6.36C40.89,436.94,36.22,441.87,32.31,448.27Z" transform="translate(8.12 -51.54)" fill="#fff" opacity="0.4"/><path d="M78.22,375.89c-1.58,13.31,7.46,23.64,18.1,20.1.24-.08.47-.16.71-.26,8.85-3.38,18.6-11,24.08-17.36,9.6-11.14,11.91-25.18,3.93-35.89s-23.25-14.05-32.85-2.9C86,346.72,79.8,362.59,78.22,375.89Z" transform="translate(8.12 -51.54)" fill="#ba9476"/><path d="M98.53,342.35a25.47,25.47,0,0,1,14.4-8.68,18.88,18.88,0,0,0-20.74,5.91c-6.16,7.14-12.39,23-14,36.31a22.43,22.43,0,0,0,2,12.75C82.68,371.41,90.65,351.49,98.53,342.35Z" transform="translate(8.12 -51.54)" fill="#fff" opacity="0.3"/><path d="M129.58,353.19a49.42,49.42,0,0,1-8.7,16.74c-6.74,8.67-18.95,19.37-30.25,24.54-.3.14-.61.28-.91.4a19.56,19.56,0,0,1-2.42.8,12.28,12.28,0,0,0,9,.32c.24-.08.47-.16.71-.26,8.85-3.38,18.6-11,24.08-17.36C127.74,370.67,130.9,361.6,129.58,353.19Z" transform="translate(8.12 -51.54)" opacity="0.2"/><path d="M160.89,150.27c-4.84-9.58,16.59-37.67,37.66-48.31s42.45-3.3,47.29,6.28-8.7,17.77-29.77,28.41S165.73,159.85,160.89,150.27Z" transform="translate(8.12 -51.54)" fill="#7d593c"/><path d="M137.32,147.1c-8.22-6.9.43-41.15,15.61-59.23s37.73-19.73,45.95-12.82-1,19.75-16.19,37.82S145.54,154,137.32,147.1Z" transform="translate(8.12 -51.54)" fill="#7d593c"/><path d="M153.77,95.57c13.66-16.26,30.74-22.86,42-22.41-9.84-4.48-29.31-1.45-42.89,14.71-8.88,10.58-15.53,26.69-17.87,39.62C139.73,116.19,146.31,104.46,153.77,95.57Z" transform="translate(8.12 -51.54)" fill="#fff" opacity="0.4"/><path d="M119.37,156.59c-8.51-3.08-11.62-32.72-4.86-51.44s24.15-26.6,32.66-23.52,5,15.93-1.82,34.66S127.89,159.67,119.37,156.59Z" transform="translate(8.12 -51.54)" fill="#7d593c"/><path d="M120,107.26c4.61-12.77,12.64-21.52,20.24-26-8.91,1.45-20.49,9.44-25.73,23.93-5.67,15.7-4.4,39.09,1.19,48C113.67,140.49,114.89,121.39,120,107.26Z" transform="translate(8.12 -51.54)" fill="#fff" opacity="0.4"/><path d="M150,145.43c-4.84-9.58,51.88-72,72.95-82.62s42.45-3.3,47.29,6.28-8.7,17.77-29.76,28.41S154.87,155,150,145.43Z" transform="translate(8.12 -51.54)" fill="#7d593c"/><path d="M218,69.77c21.44-9.86,42.54-1.72,47,8a8.36,8.36,0,0,1,.79,4.51c4.91-4.37,6.8-8.63,4.49-13.22-4.84-9.58-26.22-16.92-47.29-6.28-8.11,4.09-21.5,15.86-34.63,29.33C199.88,81.64,210.94,73,218,69.77Z" transform="translate(8.12 -51.54)" fill="#fff" opacity="0.4"/><path d="M377.43,317.58c20.92-37.07-68.18-76.9-120.48-114.41-15-10.72-50-3.49-50.25-17.79-1.07-75.52-65.95-60.19-105.16-25.41S46.43,272.34,73.73,315C208.22,524.87,311.36,434.67,377.43,317.58Z" transform="translate(8.12 -51.54)" fill="#ba9476"/><path d="M85.25,178.66c-26.77,39-34.64,100.2-11.52,136.29q11.94,18.63,23.54,34.16c-8.74-17.91-17.34-38.06-25.76-60.65C59.05,255,66.51,212.09,85.25,178.66Z" transform="translate(8.12 -51.54)" fill="#fff" opacity="0.35"/><path d="M377.75,294.62a122.05,122.05,0,0,1-22.13,39,89.48,89.48,0,0,1-12.3,12,251,251,0,0,0-31.62,29.79c-.16.19-.33.37-.49.55a127.85,127.85,0,0,1-130.75,38.24,187.2,187.2,0,0,1-43.24-19c22.47,21.54,43.88,34.72,64.19,41.14h0c1.74.55,3.48,1.05,5.2,1.5h0q2.58.69,5.15,1.21h0c1.71.35,3.42.66,5.11.92h0c21,3.23,40.72-.69,59.18-9.82h0q2.24-1.11,4.46-2.32h0q2.22-1.22,4.41-2.52h0q2.91-1.74,5.79-3.66h0q2.15-1.43,4.27-2.94l0,0c1.41-1,2.81-2,4.21-3.1l0,0q2.08-1.59,4.14-3.27l.06-.05c1.37-1.11,2.72-2.25,4.07-3.42l.08-.06c1.34-1.17,2.68-2.35,4-3.57l.09-.07,1.31-1.21h0c.88-.82,1.76-1.65,2.63-2.49l.1-.09,1.28-1.24,0,0c.86-.84,1.72-1.69,2.57-2.55l.11-.11,1.24-1.27.07-.07c.84-.87,1.68-1.74,2.51-2.62l.11-.12,1.22-1.3.09-.1c.82-.89,1.64-1.78,2.46-2.69l.11-.12,1.19-1.34.11-.12c.81-.91,1.61-1.83,2.41-2.75l.12-.14,1.16-1.35a1.07,1.07,0,0,1,.14-.16c.78-.93,1.57-1.86,2.35-2.81l.12-.14,1.14-1.38.15-.19c.39-.47.77-.94,1.15-1.42h0c.39-.47.77-.95,1.15-1.42l.13-.16,1.1-1.4a1.84,1.84,0,0,0,.17-.22c.38-.47.75-1,1.12-1.42l.15-.19a9.9,9.9,0,0,0,.69-.88c.14-.2.29-.39.43-.58.37-.47.73-1,1.09-1.42l.18-.24,1.08-1.43a5.9,5.9,0,0,1,.37-.47,6,6,0,0,0,.48-.65c.13-.2.28-.39.42-.58l1.06-1.44.19-.27c.36-.47.71-1,1.06-1.44.12-.17.25-.36.39-.53a8.12,8.12,0,0,0,.48-.67l.38-.54,1-1.45.2-.29,1-1.45.3-.43c.28-.38.55-.78.82-1.17,0-.06.09-.12.13-.19.34-.48.68-1,1-1.46l.22-.32,1-1.45.27-.4.78-1.15.18-.28c.34-.49.67-1,1-1.48l.22-.33,1-1.46.54-.8.55-.86.14-.21,1-1.49.22-.35.94-1.46c.07-.12.15-.23.22-.34l.91-1.44.09-.14.95-1.5.22-.36.92-1.47.23-.37.9-1.46.12-.2c.3-.47.59-1,.88-1.43l.23-.37.76-1.25h0c3-4.88,5.85-9.84,8.67-14.84C381.69,310,381.39,302.36,377.75,294.62Z" transform="translate(8.12 -51.54)" opacity="0.15"/><path d="M180.6,133.83c6,8.68,9.37,21.54,9.09,39.54-.11,6.66,7.35,8.55,16.95,9.61C205.7,154.4,195.27,139.41,180.6,133.83Z" transform="translate(8.12 -51.54)" fill="#fff" opacity="0.35"/><path d="M399.84,135.52c-7.29-7.73,2.5-37.93,17.53-52.11s36.09-12,43.38-4.27-1.94,18.07-17,32.26S407.13,143.25,399.84,135.52Z" transform="translate(8.12 -51.54)" fill="#c1272d"/><path d="M460.75,79.14c3,3.14,3.2,6.72,1.43,10.8a9.1,9.1,0,0,0-2.42-4c-7.5-7.53-28.6-9.15-43.25,5.44-10.1,10-17.5,27.66-18.66,40.09-2.68-11.23,6.43-35.72,19.52-48.07C432.41,69.22,453.46,71.41,460.75,79.14Z" transform="translate(8.12 -51.54)" fill="#fff" opacity="0.4"/><path d="M399.24,141.06c-.25-10.62,27.21-26.54,47.88-27s34.86,15.2,35.11,25.82S468.71,152,448.05,152.48,399.5,151.68,399.24,141.06Z" transform="translate(8.12 -51.54)" fill="#c1272d"/><path d="M473.22,140.79c-.26-10.51-14.16-26-34.47-25.83a50.48,50.48,0,0,1,8.37-.94c20.66-.5,34.86,15.2,35.11,25.82.21,8.66-8.9,11.27-23.47,12.21C468,150.57,473.38,147.49,473.22,140.79Z" transform="translate(8.12 -51.54)" fill="#fff" opacity="0.4"/><path d="M409,153c4.18-6.75,27.85-5.48,41,2.66s15.58,23.74,11.4,30.48-13.42,2.06-26.53-6.07S404.77,159.78,409,153Z" transform="translate(8.12 -51.54)" fill="#c1272d"/><path d="M454.08,183.18c3.74-6,3.69-17.7-2.61-26.44,11.74,8.36,13.85,23,9.84,29.44-2.67,4.3-7.4,3.95-13.89,1A7.72,7.72,0,0,0,454.08,183.18Z" transform="translate(8.12 -51.54)" fill="#fff" opacity="0.4"/><path d="M364.43,109.74c-24.08-27.23-64.86-28.48-86.25-7.51-21.55,21.06-17.51,54.92,4.57,80,22.23,24.9,55.37,33,78.84,14.07S388.59,136.89,364.43,109.74Z" transform="translate(8.12 -51.54)" fill="#d6c6b6"/><path d="M377.64,324.52c13.08-21.89,23-50.69,30.84-77.41a28.94,28.94,0,0,0,18.21-6.49c14.57-11.67,16.82-37,1.77-53.9a40.4,40.4,0,0,0-9.34-7.82v-.48c-.22-16.91-3.49-32.83-11.12-47.49a58.42,58.42,0,0,0-7.6-11.11l-.06-.08c-5.35-6.33-10.64-8.92-14.68-11.32-9.23-4.92-20-7.51-31.7-8.21-24.16-17.63-57.25-16.15-75.78,2a46.72,46.72,0,0,0-11,16.64c-22.25,9.26-44.87,18.84-62.92,31-5.58,3.32-14.92,15.88-9,25.87,3.19,5.37,7.39,8.46,11.46,9.65-3.09,6.37-4.68,15.69,1.29,21.71s12.49,7.46,17.47,6.17c-4.11,3.84-6.8,10.64-3.83,18.82s14,12.47,21.77,13c-2.1,6.2-2,14.63,3.79,19.75a21,21,0,0,0,18,5.06,25.51,25.51,0,0,0,4.84,15c3.75,5.24,10.1,6.49,15.92,5.92a25.59,25.59,0,0,0,7.77,14.11c5.79,5.4,14.26,4.12,20.46,1.26a25.72,25.72,0,0,0,7.63,13.33c5.32,5,12.9,4.28,18.91,1.92.75,4.11,3.31,8.54,8.16,12.27,6.75,5.19,18-.45,23.6-3.87A15.42,15.42,0,0,0,377.64,324.52Z" transform="translate(8.12 -51.54)" fill="#ba9476"/><path d="M419.12,178.9v-.48c-.18-14.25-2.54-27.8-7.84-40.48,3.51,11.68,4.25,24.55,2.84,38.38a41.24,41.24,0,0,1,5.11,2.64Z" transform="translate(8.12 -51.54)" fill="#998675" opacity="0.2"/><path d="M354,100.21a65.6,65.6,0,0,1,6.77,5.69c9.51-.13,18.09,1.07,25.47,3.85,1.83.8,3.9,1.61,6.07,2.7-2.41-1.66-4.66-2.87-6.62-4C376.44,103.5,365.69,100.91,354,100.21Z" transform="translate(8.12 -51.54)" fill="#998675" opacity="0.2"/><path d="M278.18,102.23a46.72,46.72,0,0,0-11,16.64c-14.47,6-29.11,12.19-42.54,19.1h0L222,139.35l-.13.07c-.79.42-1.58.84-2.36,1.27l-.35.19q-2.46,1.34-4.83,2.72l-.49.28-2,1.17-.39.23-2.25,1.38-.44.28c-.6.37-1.19.75-1.78,1.13l-.6.38-2.14,1.41a14.7,14.7,0,0,0-1.59,1.12l-.11.09c-.26.21-.52.44-.79.68a27.3,27.3,0,0,0-2.39,2.49l-.29.35-.36.45c-.24.3-.47.62-.71.94l-.35.49a23.54,23.54,0,0,0-4.2,10.49,16.14,16.14,0,0,0-.09,2c0,.33,0,.66,0,1a14.67,14.67,0,0,0,.31,2,12.8,12.8,0,0,0,.43,1.46c0,.16.12.32.18.48a14,14,0,0,0,.94,1.9h0q.27.45.54.87l.15.23c.16.24.32.48.48.7l.09.14.57.76.17.21.45.56.17.2c.19.22.38.44.58.65l.18.19.44.46.22.21.59.55.2.17.43.38.27.21c.14.12.29.23.44.34l.34.25.44.32.3.19.38.24a16.73,16.73,0,0,0,4,1.82c-3.09,6.37-4.68,15.69,1.29,21.71,4.84,4.88,10.19,6.78,14.71,6.58a45.53,45.53,0,0,1-10.69-7c-6.28-5.69-3.4-15.12-.62-21.67l-.44-.11a12.16,12.16,0,0,1-7.81-16.85c2.3-5,6-9.19,8.86-11,18.37-13.42,41.45-24.46,64.16-35.16a50.49,50.49,0,0,1,11.13-17.6c8.62-9,20.41-14.55,33.06-16.34C304.45,86.81,288.89,91.73,278.18,102.23Z" transform="translate(8.12 -51.54)" fill="#fff" opacity="0.35"/><path d="M438.55,209.85A36.78,36.78,0,0,1,431,220.07a33.81,33.81,0,0,1-19,9.15c-7.56,29-17.24,60.41-30.43,85a19.09,19.09,0,0,1-5.33,6.22c-5.77,4.3-17.49,11.67-24.72,7.11-5.2-3.28-8-7.59-8.9-11.79-6.26,3.25-14.21,4.94-19.94.44a23.6,23.6,0,0,1-8.35-13,31.7,31.7,0,0,1-8,3.39,7.25,7.25,0,0,1-6.61-1.58l0,0c-4.81-4.32-8.16-12-8.87-16.74-6.58.3-13,1-17-4.36a23.7,23.7,0,0,1-4.85-15.21,25.77,25.77,0,0,1-20-5.89c-6.27-5.39-6.08-13.81-3.47-19.91-8.72-.88-20.93-5.53-24-14a19.51,19.51,0,0,1-1-4.35,19.64,19.64,0,0,0,1.24,7.47c3,8.32,14,12.47,21.77,13-2.1,6.2-2,14.63,3.79,19.75a21,21,0,0,0,18,5.06,25.51,25.51,0,0,0,4.84,15c3.75,5.24,10.1,6.49,15.92,5.92a25.59,25.59,0,0,0,7.77,14.11,13.3,13.3,0,0,0,2.4,1.78l.15.09.46.25.13.06a12.63,12.63,0,0,0,1.52.65l.19.07.45.15.19.05a15.14,15.14,0,0,0,1.48.35l.31.06.38.05.36,0,.35,0,.63,0,.27,0h1.53c.5,0,1-.06,1.51-.11H306a26.8,26.8,0,0,0,8.1-2.33,25.72,25.72,0,0,0,7.63,13.33c5.32,5,12.9,4.28,18.91,1.92.75,4.11,3.31,8.54,8.16,12.27,6.75,5.19,18-.45,23.6-3.87a15.42,15.42,0,0,0,5.2-5.3c13.08-21.89,23-50.69,30.84-77.41a28.94,28.94,0,0,0,18.21-6.49C435.38,233.66,439.69,221.84,438.55,209.85Z" transform="translate(8.12 -51.54)" opacity="0.15"/><path d="M365.66,115.88a74.65,74.65,0,0,1,13.27,21.18,65,65,0,0,0-14.5-27.32c-20-22.6-51.47-27.3-73.83-16.26C315.08,86.16,345.49,93.07,365.66,115.88Z" transform="translate(8.12 -51.54)" fill="#fff" opacity="0.3"/><path d="M429.22,190.54a46.72,46.72,0,0,1,8.28,13.19,40.53,40.53,0,0,0-9-17c-12.45-14.08-32.07-17-46-10.13C397.71,172,416.66,176.33,429.22,190.54Z" transform="translate(8.12 -51.54)" fill="#fff" opacity="0.3"/><path d="M435.52,205.72c-17.9-20.24-48.21-21.17-64.12-5.58s-13,40.82,3.4,59.44S416,284.08,433.41,270,453.48,225.9,435.52,205.72Z" transform="translate(8.12 -51.54)" fill="#ffe7d4"/><path d="M439.22,210.43c8.76,18.8,4.39,41.14-9.85,52.56-17.45,14-42.09,8.05-58.61-10.46a63.89,63.89,0,0,1-5-6.53,60.07,60.07,0,0,0,9.07,13.58c16.53,18.51,41.16,24.5,58.61,10.46C449.48,257.16,453,230.35,439.22,210.43Z" transform="translate(8.12 -51.54)" fill="#e75400" opacity="0.2"/><path d="M354.48,110.49C330.4,83.26,289.62,82,268.23,103c-21.55,21.05-17.51,54.92,4.57,80s55.37,33,78.84,14.07S378.64,137.64,354.48,110.49Z" transform="translate(8.12 -51.54)" fill="#ffe7d4"/><path d="M286.61,191.21c-22.07-25.05-25.25-59.68-2.35-81.93,11.94-11.65,29.24-17.15,46.45-15.8-21.94-9.13-47.17-5.5-62.48,9.51-21.55,21.05-17.51,54.92,4.57,80a77.23,77.23,0,0,0,25.95,19.3A77.56,77.56,0,0,1,286.61,191.21Z" transform="translate(8.12 -51.54)" fill="#e75400" opacity="0.2"/><path d="M335.47,175.14c-.24.26-.49.5-.75.74a10.45,10.45,0,1,1,.88-14.76,10.82,10.82,0,0,1,1.4,2,18.41,18.41,0,1,0-5.8,17.56A18.52,18.52,0,0,0,335.47,175.14Z" transform="translate(8.12 -51.54)" fill="#51364d"/><path d="M297.64,168.28a5,5,0,1,0,.42-7A5,5,0,0,0,297.64,168.28Z" transform="translate(8.12 -51.54)" fill="#fff"/><path d="M292.14,164.42a1.56,1.56,0,1,0,.13-2.19A1.55,1.55,0,0,0,292.14,164.42Z" transform="translate(8.12 -51.54)" fill="#fff"/><path d="M380.62,224.82a4.61,4.61,0,0,1,.38.28,4.71,4.71,0,1,1-6.64.61,4.44,4.44,0,0,1,.81-.76,8.19,8.19,0,0,0-3.47,2.46,8.3,8.3,0,1,0,11.69-1.07A8.21,8.21,0,0,0,380.62,224.82Z" transform="translate(8.12 -51.54)" fill="#51364d"/><path d="M368.52,234.78a2.16,2.16,0,1,0,.18-3A2.16,2.16,0,0,0,368.52,234.78Z" transform="translate(8.12 -51.54)" fill="#fff"/><path d="M366.14,233.11a.67.67,0,0,0,1-.89.67.67,0,0,0-.95-.06A.68.68,0,0,0,366.14,233.11Z" transform="translate(8.12 -51.54)" fill="#fff"/><path d="M305.8,254.38c-5.19-11-29.11-.92-46.15,8.09S231.81,278.72,237,289.72s24.41,21.59,41.45,12.59S311,265.38,305.8,254.38Z" transform="translate(8.12 -51.54)" fill="#c1272d"/><path d="M244.09,295.59c-5.23-11.86,6.24-21.91,24.28-35,3.06-2.21,6.32-4.49,9.66-6.69a177.85,177.85,0,0,0-18.38,8.54c-17,9-27.84,16.25-22.66,27.25,1.86,3.95,5.53,7.84,10.25,10.79A20.1,20.1,0,0,1,244.09,295.59Z" transform="translate(8.12 -51.54)" fill="#fff" opacity="0.4"/><path d="M353.67,327.76c3.9-15.81-4.88-40.56-14.65-43S322.18,303.22,318.27,319s-5.41,26.64,4.37,29.05S349.77,343.56,353.67,327.76Z" transform="translate(8.12 -51.54)" fill="#c1272d"/><path d="M324.54,318.93c2.52-8.65,5.27-21.51,8.5-32.71-6.71,5-11.71,20.43-14.77,32.8-3.58,14.54-5.15,24.86,2.22,28.31C318.47,341.61,320.83,331.64,324.54,318.93Z" transform="translate(8.12 -51.54)" fill="#fff" opacity="0.4"/><path d="M306.62,225.67c-.25,0-32.21,39.79-2.18,64.42,12.93,10.6,84.17,3.38,84.17,3.38S341.71,232.31,306.62,225.67Z" transform="translate(8.12 -51.54)" fill="#ff9e2e"/><path d="M307.93,282.79c-16.89-13.85-14.17-32.51-8.51-46.17-7.36,13.57-15.14,36.93,5,53.47,6.88,5.64,30.26,6.23,50.65,5.56C333.56,291.84,313.38,287.26,307.93,282.79Z" transform="translate(8.12 -51.54)" opacity="0.1"/><path d="M362.12,295.36c8.32-.4,15.66-.95,20.49-1.35-10.26-14.53-37.76-51.07-63.47-64a57.11,57.11,0,0,0-8.91-3.44C324.2,235.38,342.82,262.47,362.12,295.36Z" transform="translate(8.12 -51.54)" opacity="0.1"/><path d="M413.29,263.91c.65-17-46.94.8-52.11-23.76s-54.53-14.34-54.56-14.48c25.83,16.8,58.45,65.79,75.5,90.37C382.37,316.06,413.05,277,413.29,263.91Z" transform="translate(8.12 -51.54)" fill="#ff9e2e"/><path d="M413.29,263.91c.65-17-46.94.8-52.11-23.76-2.66-12.65-17-16.08-30.34-16.44,12.39,2.32,25.11,7.86,27.43,18.88,5.16,24.56,42.15,14.39,41.5,31.39-.24,13-17.4,42.08-17.65,42.06C382.37,316.06,413.05,277,413.29,263.91Z" transform="translate(8.12 -51.54)" fill="#fff" opacity="0.4"/><path d="M413.29,263.91c.65-17-46.94.8-52.11-23.76-2.39-11.41-14.31-15.31-26.39-16.24,11.87,2,23.12,6.77,25.4,17.61,5.17,24.57,48.2,7.06,51.18,23,1,5.24-4,15.19-10.12,25C407.64,279.61,413.19,269.42,413.29,263.91Z" transform="translate(8.12 -51.54)" fill="#fff" opacity="0.2"/><path d="M346.56,233.59s-3.65.29-1.69,2.46c.84.93,7,3.47,7,3.47S349.37,235.24,346.56,233.59Z" transform="translate(8.12 -51.54)" opacity="0.2"/><path d="M144,287.44c-10-1.85-40-21.93-46.21-33.77s-.6-23.22,5.84-25.52,11.29,5.35,17.48,17.19S150.65,288.66,144,287.44Z" transform="translate(8.12 -51.54)" fill="#7d593c"/><path d="M104.71,254.84c-5.64-10.31-5.85-19.58-3.5-25.36-5.25,3.93-8.78,13.89-3.4,24.19,3.62,6.94,15.42,16.69,26.58,24C115.72,269.46,108.12,261.06,104.71,254.84Z" transform="translate(8.12 -51.54)" fill="#fff" opacity="0.4"/><path d="M148.1,248.34c-8.29.07-18.29-20.49-16.87-35.83s14.88-25.68,23.17-25.75,8.28,10.18,6.86,25.51S156.4,248.28,148.1,248.34Z" transform="translate(8.12 -51.54)" fill="#7d593c"/><path d="M133.39,249.19c-7.88,2.81-27.1-12.08-33-26.12s2.1-27.66,10-30.47,12.69,6.27,18.57,20.31S141.27,246.39,133.39,249.19Z" transform="translate(8.12 -51.54)" fill="#7d593c"/><path d="M106.38,231.11c-8.1-18-.49-33.94,8.13-36.59a7.9,7.9,0,0,1,3.9-.22,7.53,7.53,0,0,0-8-1.7c-7.87,2.81-15.84,16.42-10,30.47a45.13,45.13,0,0,0,8.1,12.22C107.72,233.89,107,232.49,106.38,231.11Z" transform="translate(8.12 -51.54)" fill="#fff" opacity="0.4"/><path d="M140.54,253.29c-8.3.06-26.85-50.94-25.43-66.28s14.88-25.68,23.17-25.74,8.28,10.17,6.86,25.51S148.83,253.22,140.54,253.29Z" transform="translate(8.12 -51.54)" fill="#999"/><path d="M170.65,287.07C156,299.3,122.89,279,115.89,264.54s6-29.66,17.72-33.3c5.76-1.79,27.76-23.69,27.58-18.52-.47,13.69-4.85,30.9-1.29,38.26C166.89,265.46,180,279.23,170.65,287.07Z" transform="translate(8.12 -51.54)" fill="#7d593c"/><path d="M158,219.24a95.73,95.73,0,0,0,.56,25c-.34-8.44,2.18-20.59,2.61-30.9,0-.35.07-.7.1-1,1.42-15.33,1.44-25.57-6.86-25.51-7.23.06-18.4,7.94-22.07,20.13,3.46-7.65,9.08-14.22,16-14.92C160.83,190.72,159,211.54,158,219.24Z" transform="translate(8.12 -51.54)" fill="#fff" opacity="0.4"/><path d="M140.54,253.29c-8.3.06-26.85-50.94-25.43-66.28s14.88-25.68,23.17-25.74,8.28,10.17,6.86,25.51S148.83,253.22,140.54,253.29Z" transform="translate(8.12 -51.54)" fill="#7d593c"/><path d="M138.28,161.27c-8.29.06-21.76,10.41-23.17,25.74,0,.38-.06.78-.07,1.19,3.39-10.56,12.26-18,18.7-18.76,8.24-1,9.39,9.17,9.73,24.56a106.75,106.75,0,0,0,1.6,13.22c-.2-8.42-.34-16,.07-20.44C146.56,171.44,146.57,161.2,138.28,161.27Z" transform="translate(8.12 -51.54)" fill="#fff" opacity="0.4"/><path d="M156.18,278.66c-7.4,3.57-39.87-30.23-43.37-43.36s5.34-27.26,12.75-30.82,10.57,4.81,14.07,17.93S163.59,275.1,156.18,278.66Z" transform="translate(8.12 -51.54)" fill="#7d593c"/><path d="M125.56,204.48c-7.41,3.56-16.25,17.7-12.75,30.82.08.32.19.66.31,1-.25-10.06,5.39-19.86,10.92-23.23,7-4.31,11.25,3.51,16.34,15.94a80.33,80.33,0,0,0,5.55,10.12c-2.8-6.79-5.27-12.89-6.3-16.72C136.13,209.29,133,200.91,125.56,204.48Z" transform="translate(8.12 -51.54)" fill="#fff" opacity="0.4"/><path d="M275.53,380.7c6.6-6.92,11.86-20.11,9.33-22.8S273,364,266.38,371s-10.73,11.85-8.2,14.54S268.93,387.62,275.53,380.7Z" transform="translate(8.12 -51.54)" fill="#fff" opacity="0.4"/><path d="M261.82,356.17c-1.6-3.3-13.36,2.08-21.86,6.53s-14,7.8-12.4,11.1,9.72,5.31,18.22.86S263.43,359.47,261.82,356.17Z" transform="translate(8.12 -51.54)" fill="#fff" opacity="0.4"/><path d="M263.31,340.59c4.44-4.36,7.28-13.77,5.1-16.24s-8.56,3-13,7.32-7.16,7.55-5,10S258.87,345,263.31,340.59Z" transform="translate(8.12 -51.54)" fill="#fff" opacity="0.4"/><path d="M203.94,365.68c-.95-2.7-10.37.62-17.24,3.45s-11.34,5-10.39,7.74,7,4.9,13.83,2.06S204.88,368.39,203.94,365.68Z" transform="translate(8.12 -51.54)" fill="#fff" opacity="0.4"/><path d="M166.56,341.26c-7.41.48-12.35,1.12-12.24,4s5.2,6.8,12.6,6.32,17.24-5.21,17.14-8.05S174,340.78,166.56,341.26Z" transform="translate(8.12 -51.54)" fill="#fff" opacity="0.4"/><path d="M223.14,342.42c5.82-2.19,12.24-9.64,11.25-12.78s-9-.77-14.85,1.42-9.61,4-8.61,7.14S217.32,344.61,223.14,342.42Z" transform="translate(8.12 -51.54)" fill="#fff" opacity="0.4"/><path d="M237.86,173.1c4.65-3.42,13.15-5.36,14.71-3.5s-4.41,6.8-9,10.22-7.92,5.5-9.48,3.64S233.22,176.51,237.86,173.1Z" transform="translate(8.12 -51.54)" fill="#fff" opacity="0.4"/><path d="M256.43,195.12c1.93,2.24-3.72,8.76-8.18,13.3s-7.67,7.32-9.6,5.08-1.87-8.64,2.6-13.18S254.5,192.88,256.43,195.12Z" transform="translate(8.12 -51.54)" fill="#fff" opacity="0.4"/><path d="M220.44,161c4-3.17,11.85-4.55,13.64-2.55s-3.23,6.64-7.19,9.81-6.8,5.06-8.59,3S216.48,164.21,220.44,161Z" transform="translate(8.12 -51.54)" fill="#fff" opacity="0.4"/><path d="M215.06,193.37c2.33-4.5,9-9,11.43-7.86s-.26,7.38-2.59,11.88-4.18,7.38-6.62,6.27S212.72,197.87,215.06,193.37Z" transform="translate(8.12 -51.54)" fill="#fff" opacity="0.4"/><path d="M466.08,437.09a75.94,75.94,0,0,0-4.76-20.49,6.77,6.77,0,0,0-10.52-2.78c-2.85,2.12-1.95,6.32-1.07,8.29,3.1,6.89,7.25,11.46,7.72,15.81.31,2.92,0,5.18-.92,6.37-1.1,1.46-3.33,1.37-4.56,1.19-4.83-.71-8.73-3.38-12.5-6a41.16,41.16,0,0,0-7.08-4.22,13.24,13.24,0,0,0-9-.79c-4.08,1.14-6.15,4.32-7.8,6.87-2.12,3.27-3.08,5.45-6.68,5.5a15.93,15.93,0,0,1-6.91-1.79c-2.4-1.17-8.08-6.35-9.55-4.77s6,9.48,9.05,11.54a15.07,15.07,0,0,0,7.28,2.23,15.51,15.51,0,0,0,5-.85,13.33,13.33,0,0,0,3.88-2.2,22,22,0,0,0,4.46-5.41c1.34-2.07,2.16-3.26,3.34-3.59a5.52,5.52,0,0,1,3.84.45,36.29,36.29,0,0,1,5.73,3.48,68,68,0,0,0,6.83,4.25,28.2,28.2,0,0,0,8.95,3,16.9,16.9,0,0,0,3,.18,14,14,0,0,0,3.08-.46,10.92,10.92,0,0,0,5.88-3.92A16.56,16.56,0,0,0,466.08,437.09Z" transform="translate(8.12 -51.54)" fill="#ec9fb3"/><path d="M456.53,444.29c-1.1,1.46-3.33,1.37-4.56,1.19-4.83-.71-8.73-3.38-12.5-6a41.16,41.16,0,0,0-7.08-4.22,13.24,13.24,0,0,0-9-.79c-4.08,1.14-6.15,4.32-7.8,6.87-2.12,3.27-3.08,5.45-6.68,5.5a15.93,15.93,0,0,1-6.91-1.79c-1.31-.63-3.59-2.46-5.63-3.74a50.68,50.68,0,0,0,3.63,3.9c3.07,2.78,8.91,3,9.2,3,3.59-.05,4.29-2.87,6.42-5.92,1.66-2.38,3.73-5.34,7.82-6.41a14.14,14.14,0,0,1,9,.71,42.71,42.71,0,0,1,7.07,3.91c3.76,2.39,7.65,4.86,12.48,5.51,1.23.16,3.46.24,4.57-1.12.8-1,1.15-2.78,1-5.09A7.42,7.42,0,0,1,456.53,444.29Z" transform="translate(8.12 -51.54)" fill="#fff" opacity="0.6"/><path d="M466.18,438.86h0c0-.14,0-.28,0-.43h0c0-.07,0-.14,0-.22h0c0-.07,0-.14,0-.2v0c0-.06,0-.12,0-.19v-.06s0-.11,0-.16v-.11s0-.08,0-.12a1.64,1.64,0,0,1,0-.23c0-.24-.06-.49-.08-.74v0c0-.16,0-.32-.05-.48h0a74.67,74.67,0,0,0-4.62-19.24,6.77,6.77,0,0,0-10.52-2.78c-2,1.46-2.14,3.91-1.78,5.94a4.47,4.47,0,0,1,1.89-3.16c4.16-2.89,9.12-.89,10.5,2.56a64.44,64.44,0,0,1,4.38,16.36,17.21,17.21,0,0,1-.2,5.86c-1,4.79-4,8.81-8.37,10.35-7.6,1.95-16.17-1.23-22.21-5.89-4.61-3.25-9.62-9.55-13.5-2-4.95,8.41-12.4,11.21-21.18,6.42a23.63,23.63,0,0,1-2.81-1.85,30.8,30.8,0,0,0,4,3.5,15.07,15.07,0,0,0,7.28,2.23,15.51,15.51,0,0,0,5-.85,13.33,13.33,0,0,0,3.88-2.2,22,22,0,0,0,4.46-5.41c1.34-2.07,2.16-3.26,3.34-3.59a5.52,5.52,0,0,1,3.84.45,36.29,36.29,0,0,1,5.73,3.48,68,68,0,0,0,6.83,4.25,28.2,28.2,0,0,0,8.95,3,16.9,16.9,0,0,0,3,.18,14,14,0,0,0,3.08-.46,10.92,10.92,0,0,0,5.88-3.92A16.55,16.55,0,0,0,466.18,438.86Z" transform="translate(8.12 -51.54)" fill="#c6868d" opacity="0.4"/><path d="M457.39,437.46c0-.26-.06-.52-.1-.78-.18-6.26-12.18-15.07-7.09-22.33-2.11,2.24-1.28,5.95-.47,7.76C452.72,428.76,456.69,433.24,457.39,437.46Z" transform="translate(8.12 -51.54)" fill="#fff" opacity="0.6"/><path d="M452.63,417.41a5.16,5.16,0,0,0-5.24,3.81c-.53,2.31,1.43,4.6,4.41,4.85s5.34-1.75,5.26-4.18A4.68,4.68,0,0,0,452.63,417.41Z" transform="translate(8.12 -51.54)" fill="#ffe7d4"/><path d="M452.49,425.21c-3-.24-4.94-2.54-4.41-4.85a4.71,4.71,0,0,1,.6-1.42,4.6,4.6,0,0,0-1.29,2.28c-.53,2.31,1.43,4.6,4.41,4.85a4.93,4.93,0,0,0,4.72-2.16A5.17,5.17,0,0,1,452.49,425.21Z" transform="translate(8.12 -51.54)" fill="#e75400" opacity="0.2"/><path d="M461.87,416.18a4,4,0,0,0-3.46,4.08,3.91,3.91,0,0,0,4.49,3.51,3.59,3.59,0,0,0,3.44-4.35A4.22,4.22,0,0,0,461.87,416.18Z" transform="translate(8.12 -51.54)" fill="#ffe7d4"/><path d="M466.34,419.42a4.37,4.37,0,0,0-1.87-2.62,4.38,4.38,0,0,1,1.11,2,3.61,3.61,0,0,1-3.44,4.35,4.51,4.51,0,0,1-2.78-.64,4.3,4.3,0,0,0,3.54,1.26A3.59,3.59,0,0,0,466.34,419.42Z" transform="translate(8.12 -51.54)" fill="#e75400" opacity="0.2"/><path d="M451.08,419.33a1.48,1.48,0,1,0,1.48,1.48A1.48,1.48,0,0,0,451.08,419.33Z" transform="translate(8.12 -51.54)" fill="#51364d"/><path d="M450.2,422.46a.19.19,0,1,0,.22.13A.18.18,0,0,0,450.2,422.46Z" transform="translate(8.12 -51.54)" fill="#fff"/><path d="M450.55,421.73a.36.36,0,0,0-.25.42.35.35,0,0,0,.43.25A.37.37,0,0,0,451,422,.35.35,0,0,0,450.55,421.73Z" transform="translate(8.12 -51.54)" fill="#fff"/><path d="M460.44,418.18a.63.63,0,1,0,.63.63A.63.63,0,0,0,460.44,418.18Z" transform="translate(8.12 -51.54)" fill="#51364d"/><path d="M439.61,439.2c-1.52-1-4.29-2.64-5-3.09a.23.23,0,0,0-.32.08h0a32.54,32.54,0,0,0-3.31,7.17h0a.25.25,0,0,0,.08.28c.54.36,2.59,1.74,3.78,2.57a54.41,54.41,0,0,0,7,4.31c1.29.64,3.72,1.54,4.54,1.85a.24.24,0,0,0,.32-.19h0c.28-1.92.66-3.93,1.13-5.89.14-.6.3-1.2.46-1.8v0a.25.25,0,0,0-.1-.28C447.33,443.7,442.12,440.83,439.61,439.2Z" transform="translate(8.12 -51.54)" fill="#c6868d"/><path d="M446,451.14h0a.31.31,0,0,1-.38.16c-.86-.29-3.43-1.14-4.77-1.74a46.44,46.44,0,0,1-5.4-2.92,50.87,50.87,0,0,0,6.39,3.89c1.29.64,3.72,1.54,4.54,1.85a.24.24,0,0,0,.32-.19h0c.24-1.68.57-3.43,1-5.15C447,448.41,446.44,449.8,446,451.14Z" transform="translate(8.12 -51.54)" fill="#a87283" opacity="0.4"/><path d="M434.32,437a.3.3,0,0,1,.38-.08c.89.45,4.16,2.07,6,3.09.56.31,1.24.66,2,1-1.13-.66-2.22-1.32-3-1.84-1.52-1-4.29-2.64-5-3.09a.23.23,0,0,0-.32.08,29.72,29.72,0,0,0-2.52,5A27.32,27.32,0,0,1,434.32,437Z" transform="translate(8.12 -51.54)" fill="#fff" opacity="0.6"/><path d="M465.24,444.46a2,2,0,0,1,.08-.22l-1.62,0Zm.27-11.93-2.63,1.16,2.7-.74C465.56,432.81,465.54,432.67,465.51,432.53ZM461.92,450l.26-.27-2.57-2.08Zm4.25-11.46h-2.92l2.93.46C466.18,438.83,466.17,438.68,466.17,438.53Zm-8.56,14.17.2-.07-.88-1.65C457.16,451.55,457.38,452.13,457.61,452.7Zm-49.24,1.38h.4c-.15-1.07-.29-2.13-.44-3.2C408.34,452,408.35,453,408.37,454.08Zm42.1-.92c.06-1.05.13-2.1.19-3.15-.18,1-.37,2.06-.56,3.08Zm-23-11.23c.13-.82.26-1.65.38-2.47-.22.81-.45,1.62-.67,2.43Zm-12.94,11,.31-.14-1.6-2.43Zm4.41-3.07.31-.33c-1.21-.68-2.41-1.36-3.6-2.05Zm6.46-7.81.08,0,.22-.05-1.15-2.35Zm-24.27,9.53c.25-.52.5-1.05.74-1.57-.3.48-.61,1-.92,1.44Zm29-8.72c.26-1,.53-2,.79-3.05-.37,1-.75,1.93-1.12,2.89Zm-7.48,1.93c.07-.12.15-.23.22-.33l-3.16-1.78C420.71,443.4,421.69,444.11,422.68,444.81Z" transform="translate(8.12 -51.54)" fill="#c6868d" opacity="0.4"/><path d="M454.43,445.48l1.12,3.95-.55-4.1Zm3-3.66a6.32,6.32,0,0,1-.13.68l4.74,1Zm-30.56-7.77.55,3.45-.05-3.43Zm32.5,4.47-1.87-.09a2.45,2.45,0,0,0,0,.27Zm-3-4.19c.11.24.21.48.31.71l4.87-.46ZM450,448.45l.78-3.18-.45-.11Zm-18-13.28-1.46,3.42,1.95-3.22-.17-.07ZM399.3,446.69l1.48-2.31-.33-.22Zm6.15,2.84.39-3-.44-.11Zm6.69-3.62,1.39,2.43-1.06-2.7Zm4-5.32,2.69,1.87-2.43-2.27C416.27,440.32,416.18,440.45,416.1,440.59Zm5.65-5.48,1.63,2.91-1.19-3.1Z" transform="translate(8.12 -51.54)" fill="#fff" opacity="0.6"/><path d="M459.87,419.44a.07.07,0,0,0-.05.09.08.08,0,0,0,.09.06.08.08,0,0,0,0-.09A.08.08,0,0,0,459.87,419.44Z" transform="translate(8.12 -51.54)" fill="#fff"/><path d="M460,419.15a.16.16,0,0,0-.1.17.15.15,0,0,0,.17.1.14.14,0,0,0,.1-.17A.14.14,0,0,0,460,419.15Z" transform="translate(8.12 -51.54)" fill="#fff"/><path d="M444.74,419.05c-2.7,2.65-2.3,5.94,1,7.47a7.81,7.81,0,0,0,1.71.57C443.72,425.07,442.65,421.72,444.74,419.05Z" transform="translate(8.12 -51.54)" opacity="0.1"/><path d="M442.4,422.44c-1.34,1.33-1.15,3,.49,3.74a3.87,3.87,0,0,0,.85.29C441.89,425.45,441.36,423.78,442.4,422.44Z" transform="translate(8.12 -51.54)" opacity="0.1"/><path d="M394.66,437.77a3.36,3.36,0,0,0-4.62,2.05,3.7,3.7,0,0,0-.19,1C390.76,438.51,392.77,437.27,394.66,437.77Z" transform="translate(8.12 -51.54)" opacity="0.1"/><path d="M392.29,437.3a1.68,1.68,0,0,0-2.31,1,2.1,2.1,0,0,0-.09.5A2.13,2.13,0,0,1,392.29,437.3Z" transform="translate(8.12 -51.54)" opacity="0.1"/><g opacity="0.25"><path d="M117.71,254.57c-2.44-3.74-4.23-6.14-5.66-5.32s-2,4.56.48,8.3,7.77,7.6,9.2,6.78S120.14,258.31,117.71,254.57Z" transform="translate(8.12 -51.54)" opacity="0.4"/><path d="M124.67,254.23c1.62-.34.35-6.21-.81-10.52s-2.12-7.15-3.74-6.81-3.27,3.74-2.1,8S123.06,254.57,124.67,254.23Z" transform="translate(8.12 -51.54)" opacity="0.4"/><path d="M128.92,260.05c-1.51-2.48-2.66-4.06-4-3.37s-2.24,3.4-.73,5.88,5.4,4.83,6.7,4.14S130.43,262.53,128.92,260.05Z" transform="translate(8.12 -51.54)" opacity="0.4"/></g><path d="M115.64,54.34c-25-6.68-43.07,7.09-40.75,31.73a54.87,54.87,0,0,0,2.62,12.1C76.55,69.3,92.57,51.3,115.64,54.34Z" transform="translate(8.12 -51.54)" opacity="0.1"/><path d="M87.47,52.38C75,49,65.94,55.93,67.1,68.25a26.79,26.79,0,0,0,1.31,6C67.93,59.86,75.94,50.86,87.47,52.38Z" transform="translate(8.12 -51.54)" opacity="0.1"/></svg>