<svg xmlns="http://www.w3.org/2000/svg" viewBox="0 0 433.25 281.5"><path d="M142.56,383.31c-46.62,0-109.18,10.54-109.18,14.34s62.56,6.86,109.18,6.86,99.16-3.07,99.16-6.86S189.18,383.31,142.56,383.31Z" transform="translate(-33.38 -133.79)" opacity="0.1"/><path d="M90.44,334.16A23.43,23.43,0,0,1,83,333.4a10.35,10.35,0,0,1-4.92-8.66,13.67,13.67,0,0,1,.13-2.37,12.62,12.62,0,0,0-1.37,5.53,6.05,6.05,0,0,0,1.08,3.36c-.61-.36-1.21-.75-1.8-1.18a25.3,25.3,0,0,1-3.86-3.5,23.09,23.09,0,0,0,6.14,9.64c-4.19-1.36-7.62-3.34-9.67-6.15a29.07,29.07,0,0,1-2.87-4.92c.29,5.08,1.52,9.53,3.93,12.84a8.8,8.8,0,0,0,1,1.12c-6.32-.77-11.72-2.66-15.25-6.12a38.49,38.49,0,0,1-4.81-5.81c1.48,6.57,4,12.12,7.9,15.92,2.68,2.63,6.87,3.85,11.88,4C59.19,351,49.34,356,46.34,361.42a19.17,19.17,0,0,0-1.89,12.93,30.12,30.12,0,0,1,2.39-5.61c4.17-7.58,17.63-14.94,31.61-20.66a18.62,18.62,0,0,0-5.72,6.32,19.19,19.19,0,0,0-1.12,13,29.75,29.75,0,0,1,2.06-5.75c2.91-6.13,11.54-12.46,21.7-18.07Z" transform="translate(-33.38 -133.79)" fill="#6a4f4d"/><polygon points="155.89 219.68 137.86 257.49 139.34 258.23 161.57 219.68 155.89 219.68" fill="#ff9e2e"/><polygon points="138.69 257.9 139.34 258.23 161.57 219.68 138.69 257.9" fill="#fff" opacity="0.4"/><polygon points="148.83 239.21 147.29 238.63 155.89 219.68 141.49 249.87 141.49 249.87 141.31 250.26 141.31 250.26 139.83 253.36 139.83 253.36 139.71 253.61 137.86 257.49 138.57 257.84 140.45 253.69 140.77 253.71 140.49 253.61 141.99 250.31 142.78 250.36 142.09 250.09 143.22 247.59 144.35 247.66 143.36 247.29 144.52 244.73 146.21 244.84 144.72 244.28 145.8 241.91 147.44 242.02 146 241.48 147.08 239.09 148.83 239.21" fill="#d04000" opacity="0.4"/><path d="M191.08,347.93c-5.33-1.91-12.31-.11-14.22,5.23-1.22,3.42-.83,9.62,1,14.14a7.28,7.28,0,0,0,11.32,3l.25-.21a27.35,27.35,0,0,0,6.75-10C198.1,354.72,196.42,349.83,191.08,347.93Z" transform="translate(-33.38 -133.79)" fill="#6a4f4d"/><path d="M187,369.4l-.43.37a12.22,12.22,0,0,1-3.37,2,7,7,0,0,0,6-1.46l.25-.21a27.35,27.35,0,0,0,6.75-10,12.13,12.13,0,0,0,.76-4.11A47.09,47.09,0,0,1,187,369.4Z" transform="translate(-33.38 -133.79)" opacity="0.3"/><path d="M188.87,395.91c-5.63-8.18-18-7.29-30.09-2.87a46,46,0,0,1,16.81.62A16.94,16.94,0,0,1,173.67,404a23.08,23.08,0,0,1-2.4,3.61c3.44-2.14,6.1-4.58,7.53-7.29a10.26,10.26,0,0,0,1.08-3.12,20.32,20.32,0,0,1,1.31,12.1,27.24,27.24,0,0,1-1.46,5c3.17-3.67,5.34-7.42,6-11a12.29,12.29,0,0,0,0-4.44,22.07,22.07,0,0,1,3.85,4.29,26.27,26.27,0,0,1,2.46,4.5C192,403,191,399,188.87,395.91Z" transform="translate(-33.38 -133.79)" fill="#ff9e2e"/><path d="M189.84,402.67a8.64,8.64,0,0,0-4.05-3.88,22.07,22.07,0,0,1,3.85,4.29,26.27,26.27,0,0,1,2.46,4.5C191.4,406,190.5,403.85,189.84,402.67Z" transform="translate(-33.38 -133.79)" fill="#d04000" opacity="0.4"/><path d="M179.73,414.25c.66-1.67,1.84-3.69,2.21-5a14.69,14.69,0,0,0-2.06-12.08,20.32,20.32,0,0,1,1.31,12.1A27.24,27.24,0,0,1,179.73,414.25Z" transform="translate(-33.38 -133.79)" fill="#d04000" opacity="0.4"/><path d="M173.67,404c1.81-3.41,3.64-7.52,3.2-11-5-1.27-12-.73-18.09,0a46,46,0,0,1,16.81.62A16.94,16.94,0,0,1,173.67,404Z" transform="translate(-33.38 -133.79)" fill="#d04000" opacity="0.4"/><path d="M188.87,395.91c-3.76-5.47-10.54-6.88-18.24-5.9,7.73.07,14.66,2.6,18,7.49a16.61,16.61,0,0,1,3.44,10.08C192,403,191,399,188.87,395.91Z" transform="translate(-33.38 -133.79)" fill="#fff" opacity="0.4"/><polygon points="84.06 220.72 66.03 258.52 67.51 259.27 89.74 220.72 84.06 220.72" fill="#ff9e2e"/><polygon points="66.86 258.94 67.51 259.27 89.74 220.72 66.86 258.94" fill="#fff" opacity="0.4"/><polygon points="77 240.24 75.46 239.66 84.06 220.72 69.66 250.91 69.66 250.91 69.47 251.3 69.47 251.3 68 254.39 68 254.39 67.88 254.65 66.03 258.52 66.74 258.88 68.62 254.73 68.94 254.75 68.66 254.64 70.16 251.34 70.95 251.4 70.25 251.13 71.39 248.62 72.52 248.7 71.53 248.32 72.69 245.76 74.38 245.88 72.89 245.32 73.97 242.95 75.61 243.06 74.17 242.51 75.25 240.12 77 240.24" fill="#d04000" opacity="0.4"/><path d="M85.88,397c5.63-8.19,18-7.29,30.09-2.87a45.73,45.73,0,0,0-16.81.62A17,17,0,0,0,101.08,405a21.89,21.89,0,0,0,2.4,3.6c-3.44-2.13-6.1-4.58-7.53-7.29a10.3,10.3,0,0,1-1.08-3.11,20.25,20.25,0,0,0-1.31,12.1,28.15,28.15,0,0,0,1.45,5c-3.17-3.67-5.34-7.41-6-11a12.29,12.29,0,0,1,0-4.44,22.14,22.14,0,0,0-3.85,4.3,25.87,25.87,0,0,0-2.46,4.49C82.8,404,83.79,400,85.88,397Z" transform="translate(-33.38 -133.79)" fill="#ff9e2e"/><path d="M84.9,403.71A8.78,8.78,0,0,1,89,399.82a22.14,22.14,0,0,0-3.85,4.3,25.87,25.87,0,0,0-2.46,4.49C83.34,407,84.25,404.89,84.9,403.71Z" transform="translate(-33.38 -133.79)" fill="#d04000" opacity="0.4"/><path d="M95,415.28c-.65-1.67-1.84-3.68-2.2-5a14.65,14.65,0,0,1,2.06-12.08,20.25,20.25,0,0,0-1.31,12.1A28.15,28.15,0,0,0,95,415.28Z" transform="translate(-33.38 -133.79)" fill="#d04000" opacity="0.4"/><path d="M101.08,405c-1.81-3.41-3.65-7.53-3.2-11,5-1.27,12-.74,18.09,0a45.73,45.73,0,0,0-16.81.62A17,17,0,0,0,101.08,405Z" transform="translate(-33.38 -133.79)" fill="#d04000" opacity="0.4"/><path d="M82.65,408.61a16.58,16.58,0,0,1,3.44-10.07c3.36-4.89,10.3-7.42,18-7.49-7.69-1-14.47.43-18.23,5.9C83.79,400,82.8,404,82.65,408.61Z" transform="translate(-33.38 -133.79)" fill="#fff" opacity="0.4"/><path d="M105.21,363.79a9.64,9.64,0,0,0,13.39,7.85l.4-.18a36.48,36.48,0,0,0,12.21-10.4c4.33-6.15,3.94-13-2.21-17.33s-15.71-4.52-20,1.62C106.18,349.29,104.46,357.36,105.21,363.79Z" transform="translate(-33.38 -133.79)" fill="#6a4f4d"/><path d="M113.11,346.08a14.41,14.41,0,0,1,7.52-5.41c-4.53-.43-9.06,1-11.67,4.68-2.78,3.94-4.5,12-3.75,18.44a9.77,9.77,0,0,0,2.83,5.84C107.31,361.27,109.55,351.12,113.11,346.08Z" transform="translate(-33.38 -133.79)" fill="#ffe7d4" opacity="0.2"/><path d="M133.08,348.38a19.8,19.8,0,0,1-3.08,8.71,46.88,46.88,0,0,1-15,14.35c-.16.1-.33.19-.5.28a12.13,12.13,0,0,1-1.34.59,9.17,9.17,0,0,0,5.44-.67l.4-.18a36.48,36.48,0,0,0,12.21-10.4C134.2,356.81,134.94,352.24,133.08,348.38Z" transform="translate(-33.38 -133.79)" opacity="0.3"/><path d="M207.73,224.46a17.72,17.72,0,0,0,4.42-11c.58-11.42-10.11-22.74-24-22.72a25.07,25.07,0,0,0-7.37,1.1c-7.35-6.39-15.05-11.18-22.82-13.62a21.53,21.53,0,0,1,6.69-3.09,28,28,0,0,1,5.24-.88c-4.8-1.29-9.22-1.61-12.85-.63l-.4.13a42.21,42.21,0,0,1,6.34-8.93,45.54,45.54,0,0,1,6.91-6.05c-7.71,1.71-14.25,4.85-18.78,9.74a25.32,25.32,0,0,0-5,7.89h-.11A15.72,15.72,0,0,0,132.49,171c-5.54.35-11.92,2.85-18.62,6.81a45.57,45.57,0,0,1,7.86-1.25,29.16,29.16,0,0,1,13.18,2c-35.08,13-54.75,82.25-54.75,120.57,0,42.4,24.09,72.63,66.49,72.63s87-30.23,87-72.63C233.7,278.64,223.28,249.31,207.73,224.46Z" transform="translate(-33.38 -133.79)" fill="#6a4f4d"/><path d="M126.88,188.82c-22.25,0-39.4,18.13-38.49,36.46s18,30.34,38.49,30.4,37.61-12,38.5-30.4S149.14,188.78,126.88,188.82Z" transform="translate(-33.38 -133.79)" fill="#6a4f4d"/><path d="M130.2,190.75a45.65,45.65,0,0,1,15.1,2.52,39.75,39.75,0,0,0-18.42-4.45c-18.47,0-33.42,12.48-37.45,27.21C96,201.84,111.55,190.71,130.2,190.75Z" transform="translate(-33.38 -133.79)" fill="#ffe7d4" opacity="0.2"/><path d="M208.23,332.11a31.32,31.32,0,0,1-5,5.79,32.5,32.5,0,0,1-5.47-4l-.29-.26-.37-.37a15.59,15.59,0,0,1-3.57-5.06,15.44,15.44,0,0,0,3.64,6,25.58,25.58,0,0,1-2.56,3.68,45.74,45.74,0,0,1-8,7.48,53.59,53.59,0,0,1-4.63-3.83l-.07-.07a35.07,35.07,0,0,1-3.33-3.58,23.63,23.63,0,0,1-3.45-5.45c.69-.77,1.38-1.59,2-2.46a22.53,22.53,0,0,0,4.48-9.37,22.16,22.16,0,0,1-4.3,7.74,33.3,33.3,0,0,1-2.67,2.95l-.1.09a52.37,52.37,0,0,1-5.25,4.43s-1.81-1.28-4-3.24l-.18-.16a34.49,34.49,0,0,1-3.87-4.07,22.16,22.16,0,0,1-4.3-7.74,22.43,22.43,0,0,0,4.49,9.37,35.14,35.14,0,0,0,3.11,3.63,24.57,24.57,0,0,1-3,4.44,33.36,33.36,0,0,1-3.24,3.5l-.2.2a56.2,56.2,0,0,1-4.58,3.78,45.23,45.23,0,0,1-8-7.48,25.38,25.38,0,0,1-2.06-2.85c-.08-.12-.16-.25-.23-.38a19,19,0,0,1-2-4.51,18.51,18.51,0,0,0,1.72,5,19.78,19.78,0,0,1-1.56,2.14,35.83,35.83,0,0,1-6.37,5.93,36,36,0,0,1-6.36-5.93,17.62,17.62,0,0,1-3.42-6.14,18,18,0,0,0,3.56,7.44A36.41,36.41,0,0,0,135,345a36.67,36.67,0,0,0,6.23-6.23,21.63,21.63,0,0,0,1.93-3,26.3,26.3,0,0,0,2.54,3.93,45.36,45.36,0,0,0,7.84,7.85,51.7,51.7,0,0,0,5-4.51,25.41,25.41,0,0,0,2.92,5.7,45.66,45.66,0,0,0,7.32,8.34,45.52,45.52,0,0,0,8.33-7.34,24.4,24.4,0,0,0,4.39-6.94,52.37,52.37,0,0,0,5.07,4.59,46,46,0,0,0,7.84-7.86,25.81,25.81,0,0,0,3-5,32.29,32.29,0,0,0,5.9,4.74,32.19,32.19,0,0,0,4.87-6,15.78,15.78,0,0,0,2.42-6.85A15.52,15.52,0,0,1,208.23,332.11Zm-30.84,16a45,45,0,0,1-8.49,6.94,45.1,45.1,0,0,1-7.52-8,24.16,24.16,0,0,1-2.56-4.35,35.53,35.53,0,0,0,2.56-3.05,25.58,25.58,0,0,0,3.42-5.82,53.6,53.6,0,0,0,4.46,4,51,51,0,0,0,5.63-5.19,24.69,24.69,0,0,0,3.82,6.88,33.67,33.67,0,0,0,2.62,3.1A24.16,24.16,0,0,1,177.39,348.14Z" transform="translate(-33.38 -133.79)" fill="#ffe7d4" opacity="0.2"/><path d="M180.77,342l-.55-.62-.17-.2c-.16-.18-.31-.38-.47-.57l-.22-.26-.65-.85-.54-.72c0-.06-.09-.12-.13-.19-.17-.23-.33-.47-.49-.7l0,0c-.17-.25-.33-.5-.48-.76l-.12-.19c-.14-.22-.27-.45-.4-.68l-.06-.1-.39-.73c0-.1-.09-.19-.13-.28a1.14,1.14,0,0,1-.1-.19,23.83,23.83,0,0,0,3.67,7c.4.58.83,1.13,1.27,1.66q.28-.5.54-1c-.17-.18-.35-.36-.52-.55Zm-16.48-7-.08.16c-.06.11-.11.23-.17.34l-.2.39-.15.27-.37.67-.06.08-.36.6-.11.16-.34.53-.11.16-.38.54-.09.13-.49.65c-.58.78-1.2,1.54-1.83,2.24l-.18.21-.36.39-.19.21c.21.47.45.94.7,1.4.54-.64,1.08-1.32,1.57-2a24,24,0,0,0,3.57-6.68,48.56,48.56,0,0,0,4.85,4.59,47.14,47.14,0,0,0,5.51-5.33l.46-.56c-.22-.49-.42-1-.59-1.49-.52.57-1,1.1-1.54,1.59l0,0-.48.47,0,0-.4.38-.1.09-.39.36-.12.11-.28.24-.12.11-.31.27-.14.12-.22.19-.17.14-.2.17-.11.09-.23.19-.06,0-.2.16,0,0-.36.29-.07.06,0,0,0,0a53.6,53.6,0,0,1-4.46-4q-.24.57-.51,1.14Zm12.52-2.6a21.4,21.4,0,0,0,4.28-9.84l0,.09c-.08.26-.17.53-.27.8l0,.08-.33.83-.09.2c-.12.28-.25.55-.38.82a.54.54,0,0,1-.05.11c-.12.25-.25.49-.38.74l-.11.2c-.14.26-.29.53-.45.79l-.1.17-.45.71-.08.13-.54.79-.12.17-.58.78-.44.57a1.47,1.47,0,0,1-.1.13c-.14.19-.29.37-.44.55l-.05.06-.45.53,0,.05-.5.57c.2.46.43.91.67,1.36C176.11,333.37,176.47,332.91,176.81,332.43ZM164,334.66c.2-.34.39-.69.56-1l-.1-.11c-.21-.21-.42-.43-.62-.66l-.13-.13-.71-.79-.06-.08c-.25-.28-.49-.57-.73-.87l0,0c-.24-.31-.49-.63-.72-.95a24.38,24.38,0,0,1-1.57-2.24c-.48-.77-.91-1.54-1.3-2.33a23.9,23.9,0,0,0,3.67,7A27.75,27.75,0,0,0,164,334.66Zm46.45-6.74-.09.4c0,.14-.07.27-.1.4l-.11.38c-.05.16-.1.32-.16.49s-.09.25-.13.38-.17.44-.26.65a3.09,3.09,0,0,1-.14.32l-.21.48-.16.32c-.08.17-.17.33-.25.49l-.15.28c-.14.25-.29.5-.44.75a24.49,24.49,0,0,1-2.41,3.37h0l-.39.46,0,0-.35.4,0,0-.31.35,0,0-.29.3,0,0c-.6.62-1,1-1,1l-.29-.19a30.82,30.82,0,0,1-5.61-4.55l-.23.48v0h0c-.07.15-.14.29-.22.44a2.12,2.12,0,0,1-.11.21c-.05.11-.11.21-.17.32l-.18.32-.15.25-.22.38a2.39,2.39,0,0,1-.13.21c-.08.14-.17.28-.26.41a1.74,1.74,0,0,0-.11.18l-.3.44-.1.15-.34.48a1,1,0,0,0-.08.11l-.43.57a46,46,0,0,1-7.84,7.86s-1.82-1.39-4-3.49l-.11-.11-.14-.14c-.27-.26-.54-.53-.81-.82h0l0,0c-.15.36-.31.73-.48,1.09h0c-.07.16-.15.31-.23.46s-.09.19-.14.29c-.14.27-.29.54-.44.81l-.16.26c-.11.19-.22.38-.34.56l-.21.33-.32.48-.24.35c-.11.15-.22.31-.34.46l-.24.33-.39.49-.22.29c-.21.25-.42.5-.64.74a45.52,45.52,0,0,1-8.33,7.34s-.41-.37-1.06-1h0l-.14-.13-.08-.09-.09-.08-.14-.14-.05,0-.2-.19h0a40.5,40.5,0,0,1-5.54-6.65c-.2-.29-.39-.59-.58-.89l-.14-.24c-.18-.3-.36-.6-.53-.9h0c-.18-.32-.35-.65-.51-1a1.42,1.42,0,0,1-.08-.18c-.14-.28-.27-.55-.4-.83l-.06-.13h0c-.23-.51-.44-1-.62-1.55-.32.33-.63.65-.95,1h0l-.88.84-.05,0-.78.71-.08.07-.31.27-.05,0c-.1.1-.21.18-.31.27l-.11.1-.18.15-.12.1-.21.17-.15.13-.07,0-.7.57h0l0,0a45.36,45.36,0,0,1-7.84-7.85c-.23-.29-.45-.59-.66-.89-.07-.1-.14-.19-.2-.29l-.42-.61-.25-.4c-.11-.17-.21-.34-.31-.51s-.19-.31-.27-.46l-.12-.21c-.08-.14-.16-.28-.23-.42l-.08-.14,0,.05a.2.2,0,0,0,0,.08l-.25.43-.14.24-.33.54-.13.2c-.11.16-.21.32-.32.47l-.18.27-.52.7a27.19,27.19,0,0,1-1.79,2.15h0l-.24.25,0,0-.22.22,0,.06-.2.2-.06.07-.18.18-.09.08-.16.16-.09.09-.16.15-.1.1-.13.12-.12.11-.1.1-.14.13-.08.07-.16.15,0,0-.18.16,0,0c-1.09,1-1.88,1.56-1.88,1.58l-.7-.58,0,0-.08-.07-.09-.07-.05-.05-.14-.11,0,0-.17-.14h0l-.19-.16h0l-.2-.18h0l-.44-.39h0l-.23-.21h0l-.23-.21,0,0-.22-.2,0,0-.22-.21-.06-.06-.19-.19-.08-.08-.18-.18-.08-.08-.18-.19-.1-.1-.17-.17a.69.69,0,0,0-.11-.13l-.15-.16-.15-.16-.11-.13-.17-.18a.52.52,0,0,0-.1-.11l-.18-.22-.08-.09-.2-.24-.06-.07a3.25,3.25,0,0,1-.23-.29l0,0-.24-.3v0l-.25-.33a21.09,21.09,0,0,1-2.27-3.63,19.22,19.22,0,0,0,2.91,5.55,33.85,33.85,0,0,0,5.79,6,34.24,34.24,0,0,0,5.79-6,19.29,19.29,0,0,0,2.36-4.08,24.84,24.84,0,0,0,3.14,5.53,42.91,42.91,0,0,0,7.3,7.62,47.29,47.29,0,0,0,5.27-5.07,24,24,0,0,0,3,6.54,43.44,43.44,0,0,0,6.79,8.07,43.27,43.27,0,0,0,7.77-7.13,22.94,22.94,0,0,0,4.54-8,47.93,47.93,0,0,0,5.61,5.46,43.32,43.32,0,0,0,7.3-7.62,24.36,24.36,0,0,0,3.48-6.44c.15.18.3.35.46.52a30.21,30.21,0,0,0,5.64,4.75A30,30,0,0,0,208.2,335a15.11,15.11,0,0,0,2.25-7.16Z" transform="translate(-33.38 -133.79)" opacity="0.1"/><path d="M129.65,188.91c1.74-4,3.31-7.39,4.63-10.12a47.39,47.39,0,0,0-16,10.94,39.86,39.86,0,0,1,8.61-.91C127.82,188.81,128.74,188.85,129.65,188.91Zm-7,153.46a120.53,120.53,0,0,0,4.9,12.92c-9.22-10-17.37-28.3-19.7-44.46a83.28,83.28,0,0,1,.75-29.46c-.81,2.24-1.53,4.54-2.14,6.9a74.67,74.67,0,0,0-2,26.56c-6.7-14.33-3.6-38.66,2.88-63.24A32.89,32.89,0,0,1,91.53,237.1c-7.45,21.67-11.37,44.92-11.37,62,0,42.4,24.09,72.63,66.49,72.63,2.7,0,5.42-.13,8.12-.37C141.09,365.67,130.29,355.64,122.7,342.37Z" transform="translate(-33.38 -133.79)" fill="#ffe7d4" opacity="0.2"/><path d="M134.13,178.85a47.57,47.57,0,0,0-15.86,10.88,41.61,41.61,0,0,1,5.76-.82A64,64,0,0,1,134.13,178.85Zm-44,117.9c0-14.38,2.61-33,7.64-51.5a29.83,29.83,0,0,1-6.25-8.16c-7.45,21.68-11.37,44.93-11.37,62,0,42.4,24.09,72.63,66.49,72.63q3.58,0,7.19-.29C113.18,370.12,90.14,339.43,90.14,296.75Z" transform="translate(-33.38 -133.79)" fill="#ffe7d4" opacity="0.2"/><path d="M126.88,188.82c-22.25,0-39.4,18.13-38.49,36.46s18,30.34,38.49,30.4,37.61-12,38.5-30.4S149.14,188.78,126.88,188.82Z" transform="translate(-33.38 -133.79)" fill="#6a4f4d"/><path d="M130.2,190.75a45.65,45.65,0,0,1,15.1,2.52,39.75,39.75,0,0,0-18.42-4.45c-18.47,0-33.42,12.48-37.45,27.21C96,201.84,111.55,190.71,130.2,190.75Z" transform="translate(-33.38 -133.79)" fill="#ffe7d4" opacity="0.2"/><path d="M180.79,191.86a77.26,77.26,0,0,0-13.88-9.8,118.22,118.22,0,0,1,10.55,11.1A25.26,25.26,0,0,1,180.79,191.86Zm26.93,32.6a21.72,21.72,0,0,1-6.77,5.11A221.9,221.9,0,0,1,212.19,256c7.48,5.28,13.38,14.07,15.86,25a46.79,46.79,0,0,1-3.1,30.33,75,75,0,0,0-1.55-23.51c-.47-2.08-1-4.12-1.65-6.1a84,84,0,0,1,.57,26.06c-1.8,14.3-8.11,30.54-15.26,39.35A121.16,121.16,0,0,0,211.61,333c-8.66,15.3-22.73,27.45-38.91,35.09,32.83-9.27,61-35.26,61-68.94C233.7,278.64,223.28,249.31,207.72,224.46Z" transform="translate(-33.38 -133.79)" opacity="0.3"/><path d="M190.24,192a28.18,28.18,0,0,1,9.4,1.57,24.76,24.76,0,0,0-11.47-2.78c-11.51,0-20.82,7.78-23.33,17A28,28,0,0,1,190.24,192Z" transform="translate(-33.38 -133.79)" fill="#ffe7d4" opacity="0.2"/><path d="M199.75,195.25c-16.55,0-29.29,13.48-28.61,27.11s13.41,22.55,28.61,22.6,27.95-8.9,28.61-22.6S216.29,195.22,199.75,195.25Z" transform="translate(-33.38 -133.79)" fill="#ffe7d4"/><path d="M203.41,195.47c12.18,3.63,20.64,14.71,20.08,25.87-.66,13.7-13.42,22.56-28.62,22.6a36.21,36.21,0,0,1-5-.35,36.72,36.72,0,0,0,9.91,1.37c15.2-.05,27.95-8.9,28.61-22.6C229,209.76,218.14,197.26,203.41,195.47Z" transform="translate(-33.38 -133.79)" fill="#e75400" opacity="0.2"/><path d="M123.18,193.68c-22.25,0-39.4,18.14-38.49,36.46s18,30.35,38.49,30.41,37.61-12,38.5-30.41S145.44,193.64,123.18,193.68Z" transform="translate(-33.38 -133.79)" fill="#ffe7d4"/><path d="M132.58,257.58c-20.44-.07-37.6-12.69-38.49-32.22-.48-10.21,4-20.37,11.64-27.71C92.63,204,84,217,84.69,230.14c.89,18.44,18,30.35,38.49,30.41a47.23,47.23,0,0,0,19.4-4.05A47.43,47.43,0,0,1,132.58,257.58Z" transform="translate(-33.38 -133.79)" fill="#e75400" opacity="0.2"/><path d="M150.35,219.31c0,.21,0,.43,0,.64a6.4,6.4,0,1,1-6.4-6.39,6.22,6.22,0,0,1,1.5.18,11.28,11.28,0,1,0,5.68,9.79A11.4,11.4,0,0,0,150.35,219.31Z" transform="translate(-33.38 -133.79)" fill="#51364d"/><path d="M131.83,233.85a3,3,0,1,0-3.05-3A3,3,0,0,0,131.83,233.85Z" transform="translate(-33.38 -133.79)" fill="#fff"/><circle cx="94.45" cy="100.07" r="0.95" fill="#fff"/><path d="M198.59,220.81l.28-.05a2.88,2.88,0,1,1-2.42,3.28,3.89,3.89,0,0,1,0-.68,5.13,5.13,0,0,0-.28,2.59,5.08,5.08,0,1,0,4.26-5.79A5.14,5.14,0,0,0,198.59,220.81Z" transform="translate(-33.38 -133.79)" fill="#51364d"/><path d="M198.24,230.41a1.33,1.33,0,1,0-1.32-1.33A1.33,1.33,0,0,0,198.24,230.41Z" transform="translate(-33.38 -133.79)" fill="#fff"/><path d="M196.51,230.82a.42.42,0,1,0-.42-.41A.42.42,0,0,0,196.51,230.82Z" transform="translate(-33.38 -133.79)" fill="#fff"/><path d="M148.2,262.26c-.12.06-11.88,16.48,5.94,14.49,7.67-.86,42.77-19.82,42.77-19.82S166.6,255.13,148.2,262.26Z" transform="translate(-33.38 -133.79)" fill="#ff9e2e"/><path d="M186.1,262.62c6.22-3.21,10.81-5.69,10.81-5.69s-30.31-1.8-48.71,5.33C156.78,260.26,170.88,260.94,186.1,262.62Z" transform="translate(-33.38 -133.79)" opacity="0.1"/><path d="M155.1,274.32c-10,1.12-10.69-3.59-9.33-7.94-2.23,4.74-3.6,11.71,8.37,10.37,4.08-.46,15.93-6,26.12-11.16C169,270,158.33,274,155.1,274.32Z" transform="translate(-33.38 -133.79)" opacity="0.1"/><path d="M220.2,228.92c-8.89-7.2-22.13,21.84-37.92,14.22s-34,19.16-34.08,19.12c21.52-5,63.75-.05,85.28,2.13C233.6,264.28,227.16,234.33,220.2,228.92Z" transform="translate(-33.38 -133.79)" fill="#ff9e2e"/><path d="M220.2,228.92c-8.89-7.2-22.13,21.84-37.92,14.22-8.14-3.92-16.9,1.27-23.5,7.22,7.21-4.73,16.34-8.31,23.42-4.89,15.79,7.61,28.06-13.46,37-6.26,7,5.41,14.44,25.07,14.32,25.18C233.6,264.28,227.16,234.33,220.2,228.92Z" transform="translate(-33.38 -133.79)" fill="#fff" opacity="0.4"/><path d="M220.2,228.92c-8.89-7.2-22.13,21.84-37.92,14.22-7.33-3.54-15.18.34-21.49,5.5,6.78-4.64,14.78-7.85,21.76-4.49,15.79,7.62,27-19.21,37.09-14.08,3.31,1.68,6.31,8,8.66,14.78C226,237.9,223.15,231.21,220.2,228.92Z" transform="translate(-33.38 -133.79)" fill="#fff" opacity="0.2"/><path d="M171.69,247.18s-1.59,1.79.52,1.77c.91,0,5.27-1.81,5.27-1.81A17,17,0,0,0,171.69,247.18Z" transform="translate(-33.38 -133.79)" opacity="0.2"/><g opacity="0.8"><path d="M187.82,297.58c-1.19,1-1.11,3.16-.07,4.51a2.54,2.54,0,0,0,3.76.59,3.11,3.11,0,0,0,.43-4.15C191,297.08,189,296.54,187.82,297.58Z" transform="translate(-33.38 -133.79)" opacity="0.3"/><path d="M179.53,308.67a1.17,1.17,0,0,0-.13,1.59,1,1,0,0,0,1.39.28,1,1,0,0,0,.24-1.44A1.09,1.09,0,0,0,179.53,308.67Z" transform="translate(-33.38 -133.79)" opacity="0.3"/><path d="M195.15,290.44a1.38,1.38,0,0,0-2-.38,1.76,1.76,0,0,0,.08,2.27,1.21,1.21,0,0,0,1.85.19A1.58,1.58,0,0,0,195.15,290.44Z" transform="translate(-33.38 -133.79)" opacity="0.3"/><path d="M186.77,291.25a1.79,1.79,0,0,0-2.56-.46,2.05,2.05,0,0,0,.08,2.73,1.59,1.59,0,0,0,2.34.23A1.83,1.83,0,0,0,186.77,291.25Z" transform="translate(-33.38 -133.79)" opacity="0.3"/><path d="M177.65,290.31a.9.9,0,0,0,.06-1.27,1,1,0,0,0-1.37-.21,1,1,0,0,0,.06,1.39A.87.87,0,0,0,177.65,290.31Z" transform="translate(-33.38 -133.79)" opacity="0.3"/><path d="M177.19,286.44a.55.55,0,0,0,0-.78.55.55,0,1,0-.79.74A.53.53,0,0,0,177.19,286.44Z" transform="translate(-33.38 -133.79)" opacity="0.3"/><path d="M180.89,297.26a2.17,2.17,0,0,0-3-.63,2.25,2.25,0,0,0,0,3.11,1.94,1.94,0,0,0,2.76.37A2,2,0,0,0,180.89,297.26Z" transform="translate(-33.38 -133.79)" opacity="0.3"/></g><path d="M348.78,383.31c46.62,0,109.19,10.54,109.19,14.34s-62.57,6.86-109.19,6.86-99.16-3.07-99.16-6.86S302.16,383.31,348.78,383.31Z" transform="translate(-33.38 -133.79)" opacity="0.1"/><path d="M380.84,312.07a45.12,45.12,0,0,1,2.81,12.85c-1.41,5.82-4.69,10.36-10.58,12.45a22.13,22.13,0,0,1-3.69.92,18.76,18.76,0,0,0,9.16-.39,9,9,0,0,0,4.55-3.43c-.22,1.19-.5,2.38-.83,3.57a43.5,43.5,0,0,1-3.29,8.17c5.4-4.5,9.42-9.52,11.43-15,.16,7.67-1,14.37-4.23,19.17a45.13,45.13,0,0,1-6,7.19c7.59-2.95,13.72-7.16,17.48-12.8a14,14,0,0,0,1.19-2.23c2.18,11,2.18,20.92-1.22,28.51a62.77,62.77,0,0,1-6.3,10.87c9.24-5.66,16.34-12.63,20.07-20.95,2.59-5.77,2.22-13.36-.15-21.84,11.88,17,24.72,31.12,34.63,33.5a28.38,28.38,0,0,0,20.72-3.11,46.14,46.14,0,0,1-9.83-1.29C443,365,424.63,346,408.45,325.39c4.58,3.52,8.89,5.85,12.68,6.51,7.35,1.28,14.23-.5,20.45-4.45a46,46,0,0,1-9.86-.65c-10.9-1.91-25.16-13.28-39.12-27.57Z" transform="translate(-33.38 -133.79)" fill="#d03942"/><polygon points="268.7 219.68 286.73 257.49 285.25 258.23 263.02 219.68 268.7 219.68" fill="#787878"/><polygon points="285.9 257.9 285.25 258.23 263.02 219.68 285.9 257.9" fill="#fff" opacity="0.4"/><polygon points="275.76 239.21 277.3 238.63 268.7 219.68 283.1 249.87 283.1 249.87 283.29 250.26 283.29 250.26 284.76 253.36 284.76 253.36 284.88 253.61 286.73 257.49 286.02 257.84 284.14 253.69 283.82 253.71 284.1 253.61 282.6 250.31 281.81 250.36 282.5 250.09 281.37 247.59 280.24 247.66 281.23 247.29 280.07 244.73 278.38 244.84 279.87 244.28 278.79 241.91 277.15 242.02 278.59 241.48 277.51 239.09 275.76 239.21" opacity="0.4"/><path d="M300.26,347.93c5.34-1.91,12.31-.11,14.22,5.23,1.22,3.42.83,9.62-1,14.14a7.27,7.27,0,0,1-11.31,3l-.25-.21a27.26,27.26,0,0,1-6.76-10C293.24,354.72,294.92,349.83,300.26,347.93Z" transform="translate(-33.38 -133.79)" fill="#d03942"/><path d="M304.36,369.4l.43.37a12.22,12.22,0,0,0,3.37,2,7,7,0,0,1-6-1.46l-.25-.21a27.26,27.26,0,0,1-6.76-10,12.13,12.13,0,0,1-.76-4.11A47.09,47.09,0,0,0,304.36,369.4Z" transform="translate(-33.38 -133.79)" fill="#ffe7d4" opacity="0.2"/><path d="M302.47,395.91c5.63-8.18,18-7.29,30.09-2.87a46,46,0,0,0-16.81.62A16.94,16.94,0,0,0,317.67,404a23.08,23.08,0,0,0,2.4,3.61c-3.44-2.14-6.1-4.58-7.53-7.29a10,10,0,0,1-1.07-3.12,20.25,20.25,0,0,0-1.32,12.1,27.24,27.24,0,0,0,1.46,5c-3.17-3.67-5.34-7.42-6-11a12.29,12.29,0,0,1,0-4.44,22.07,22.07,0,0,0-3.85,4.29,26.27,26.27,0,0,0-2.46,4.5C299.39,403,300.38,399,302.47,395.91Z" transform="translate(-33.38 -133.79)" fill="#787878"/><path d="M301.5,402.67a8.64,8.64,0,0,1,4.05-3.88,22.07,22.07,0,0,0-3.85,4.29,26.27,26.27,0,0,0-2.46,4.5C299.94,406,300.85,403.85,301.5,402.67Z" transform="translate(-33.38 -133.79)" opacity="0.4"/><path d="M311.61,414.25c-.66-1.67-1.84-3.69-2.21-5a14.7,14.7,0,0,1,2.07-12.08,20.25,20.25,0,0,0-1.32,12.1A27.24,27.24,0,0,0,311.61,414.25Z" transform="translate(-33.38 -133.79)" opacity="0.4"/><path d="M317.67,404c-1.81-3.41-3.64-7.52-3.2-11,5-1.27,12-.73,18.09,0a46,46,0,0,0-16.81.62A16.94,16.94,0,0,0,317.67,404Z" transform="translate(-33.38 -133.79)" opacity="0.4"/><path d="M299.24,407.58a16.61,16.61,0,0,1,3.44-10.08c3.37-4.89,10.3-7.42,18-7.49-7.7-1-14.48.43-18.24,5.9C300.38,399,299.39,403,299.24,407.58Z" transform="translate(-33.38 -133.79)" fill="#fff" opacity="0.4"/><polygon points="340.53 220.72 358.56 258.52 357.08 259.27 334.85 220.72 340.53 220.72" fill="#787878"/><polygon points="357.73 258.94 357.08 259.27 334.85 220.72 357.73 258.94" fill="#fff" opacity="0.4"/><polygon points="347.6 240.24 349.13 239.66 340.53 220.72 354.93 250.91 354.93 250.91 355.12 251.3 355.12 251.3 356.59 254.39 356.59 254.39 356.71 254.65 358.56 258.52 357.85 258.88 355.97 254.73 355.65 254.75 355.93 254.64 354.43 251.34 353.64 251.4 354.33 251.13 353.2 248.62 352.07 248.7 353.06 248.32 351.9 245.76 350.21 245.88 351.7 245.32 350.62 242.95 348.98 243.06 350.42 242.51 349.34 240.12 347.6 240.24" opacity="0.4"/><path d="M405.46,397c-5.63-8.19-18-7.29-30.09-2.87a45.73,45.73,0,0,1,16.81.62A17,17,0,0,1,390.26,405a21.89,21.89,0,0,1-2.4,3.6c3.44-2.13,6.1-4.58,7.53-7.29a10.3,10.3,0,0,0,1.08-3.11,20.25,20.25,0,0,1,1.31,12.1,28.15,28.15,0,0,1-1.45,5c3.17-3.67,5.34-7.41,6-11a12.29,12.29,0,0,0,0-4.44,22.14,22.14,0,0,1,3.85,4.3,25.87,25.87,0,0,1,2.46,4.49C408.54,404,407.55,400,405.46,397Z" transform="translate(-33.38 -133.79)" fill="#787878"/><path d="M406.44,403.71a8.78,8.78,0,0,0-4.06-3.89,22.14,22.14,0,0,1,3.85,4.3,25.87,25.87,0,0,1,2.46,4.49C408,407,407.09,404.89,406.44,403.71Z" transform="translate(-33.38 -133.79)" opacity="0.4"/><path d="M396.33,415.28c.65-1.67,1.84-3.68,2.2-5a14.65,14.65,0,0,0-2.06-12.08,20.25,20.25,0,0,1,1.31,12.1A28.15,28.15,0,0,1,396.33,415.28Z" transform="translate(-33.38 -133.79)" opacity="0.4"/><path d="M390.26,405c1.81-3.41,3.65-7.53,3.2-11-5-1.27-12-.74-18.09,0a45.73,45.73,0,0,1,16.81.62A17,17,0,0,1,390.26,405Z" transform="translate(-33.38 -133.79)" opacity="0.4"/><path d="M405.46,397c-3.76-5.47-10.54-6.88-18.23-5.9,7.72.07,14.66,2.6,18,7.49a16.58,16.58,0,0,1,3.44,10.07C408.54,404,407.55,400,405.46,397Z" transform="translate(-33.38 -133.79)" fill="#fff" opacity="0.4"/><path d="M386.13,363.79a9.64,9.64,0,0,1-13.39,7.85l-.39-.18a36.43,36.43,0,0,1-12.22-10.4c-4.33-6.15-3.93-13,2.21-17.33s15.71-4.52,20.05,1.62C385.16,349.29,386.88,357.36,386.13,363.79Z" transform="translate(-33.38 -133.79)" fill="#d03942"/><path d="M378.23,346.08a14.41,14.41,0,0,0-7.52-5.41c4.53-.43,9.06,1,11.68,4.68,2.77,3.94,4.49,12,3.74,18.44a9.77,9.77,0,0,1-2.83,5.84C384,361.27,381.79,351.12,378.23,346.08Z" transform="translate(-33.38 -133.79)" opacity="0.3"/><path d="M358.26,348.38a19.8,19.8,0,0,0,3.08,8.71,46.88,46.88,0,0,0,15,14.35c.16.1.33.19.5.28a12.13,12.13,0,0,0,1.34.59,9.17,9.17,0,0,1-5.44-.67l-.39-.18a36.43,36.43,0,0,1-12.22-10.4C357.14,356.81,356.4,352.24,358.26,348.38Z" transform="translate(-33.38 -133.79)" fill="#ffe7d4" opacity="0.2"/><path d="M356.43,178.55a29.16,29.16,0,0,1,13.18-2,45.57,45.57,0,0,1,7.86,1.25c-6.7-4-13.08-6.46-18.62-6.81a19.36,19.36,0,0,0-4.22.18c15.84-9.58,36.08-10.92,52.84-1.82A47.84,47.84,0,0,1,418,177a49.53,49.53,0,0,0-58.55-17.3,97.4,97.4,0,0,1,22.38-18.19,49.52,49.52,0,0,0-50.89,24,51.68,51.68,0,0,1,19.69-26,48.28,48.28,0,0,1,11.68-5.82,49.54,49.54,0,0,0-42.44,51,83.76,83.76,0,0,0-9.33,7.08,25.07,25.07,0,0,0-7.37-1.1c-13.87,0-24.55,11.3-24,22.72a17.72,17.72,0,0,0,4.42,11c-15.55,24.85-26,54.18-26,74.66,0,42.4,44.65,72.63,87.05,72.63s66.49-30.23,66.49-72.63C411.18,260.8,391.51,191.54,356.43,178.55Z" transform="translate(-33.38 -133.79)" fill="#d03942"/><path d="M397.66,196.87c-1.34-6.31-41.33-11.91-57.89-11.66-17.22.27-46.88,5.45-49.62,8.2-4.74,4.74-11.33,12.71-11,20.07a17.72,17.72,0,0,0,4.42,11,193,193,0,0,0-21.71,48.09c42,7.41,53.28,34.71,53.28,34.71s9.25-27.25,89.64-53.4C403.35,248.13,401.7,216,397.66,196.87Z" transform="translate(-33.38 -133.79)" fill="#5a5a5a"/><path d="M397.66,196.87c-1.05-5-26-9.48-44.63-11.06,17.61,2.67,38.47,8.58,40,14.47,2.51,9.76,6.61,26.25,10.24,40.93C402,228.56,400.38,209.75,397.66,196.87Z" transform="translate(-33.38 -133.79)" opacity="0.2"/><path d="M290.15,193.41a55.33,55.33,0,0,0-6.31,7.42c3.67-2.16,7-4,9.18-5.1,2.93-1.52,21.66-7.09,39.19-10.16C315,186.84,292.52,191,290.15,193.41Z" transform="translate(-33.38 -133.79)" fill="#ffe7d4" opacity="0.2"/><path d="M280.7,326.41a15.78,15.78,0,0,0,2.42,6.85,32.19,32.19,0,0,0,4.87,6,32.29,32.29,0,0,0,5.9-4.74,26.32,26.32,0,0,0,3.05,5,46,46,0,0,0,7.84,7.86,52.37,52.37,0,0,0,5.07-4.59,24.4,24.4,0,0,0,4.39,6.94,45.52,45.52,0,0,0,8.33,7.34,45.66,45.66,0,0,0,7.32-8.34,25,25,0,0,0,2.92-5.7,51.7,51.7,0,0,0,5,4.51,45.36,45.36,0,0,0,7.84-7.85,26.3,26.3,0,0,0,2.54-3.93,21.63,21.63,0,0,0,1.93,3,36.67,36.67,0,0,0,6.23,6.23,36.41,36.41,0,0,0,6.22-6.23,18,18,0,0,0,3.56-7.44,17.46,17.46,0,0,1-3.42,6.14,36,36,0,0,1-6.36,5.93,35.83,35.83,0,0,1-6.37-5.93,19.78,19.78,0,0,1-1.56-2.14,18.51,18.51,0,0,0,1.72-5,19,19,0,0,1-2,4.51c-.07.13-.15.26-.23.38a25.38,25.38,0,0,1-2.06,2.85,45.23,45.23,0,0,1-8,7.48,56.2,56.2,0,0,1-4.58-3.78l-.2-.2a33.36,33.36,0,0,1-3.24-3.5,24.57,24.57,0,0,1-3-4.44,35.14,35.14,0,0,0,3.11-3.63,22.43,22.43,0,0,0,4.49-9.37,22.16,22.16,0,0,1-4.3,7.74,34.49,34.49,0,0,1-3.87,4.07l-.18.16c-2.16,2-4,3.21-4,3.24a52.37,52.37,0,0,1-5.25-4.43l-.1-.09a33.3,33.3,0,0,1-2.67-2.95,22.16,22.16,0,0,1-4.3-7.74,22.53,22.53,0,0,0,4.48,9.37c.64.87,1.33,1.69,2,2.46a23.63,23.63,0,0,1-3.45,5.45,35.07,35.07,0,0,1-3.33,3.58.46.46,0,0,0-.07.07,53.59,53.59,0,0,1-4.63,3.83,45.74,45.74,0,0,1-8-7.48,25.58,25.58,0,0,1-2.56-3.68,15.44,15.44,0,0,0,3.64-6,15.59,15.59,0,0,1-3.57,5.06l-.37.37-.29.26a32.5,32.5,0,0,1-5.47,4,31.74,31.74,0,0,1-5-5.79A15.52,15.52,0,0,1,280.7,326.41ZM310,342.64a32.17,32.17,0,0,0,2.62-3.1,24.69,24.69,0,0,0,3.82-6.88,51,51,0,0,0,5.63,5.19,54.59,54.59,0,0,0,4.47-4,25.17,25.17,0,0,0,3.41,5.82,35.53,35.53,0,0,0,2.56,3.05,24.16,24.16,0,0,1-2.56,4.35,45.1,45.1,0,0,1-7.52,8,45,45,0,0,1-8.49-6.94A24.16,24.16,0,0,1,310,342.64Z" transform="translate(-33.38 -133.79)" fill="#ffe7d4" opacity="0.2"/><path d="M310.53,342.09c-.17.19-.35.37-.52.55q.25.5.54,1c.44-.53.87-1.08,1.27-1.66a23.83,23.83,0,0,0,3.67-7,1.14,1.14,0,0,1-.1.19c0,.09-.09.18-.13.28l-.39.73-.06.1c-.13.23-.26.46-.4.68l-.12.19c-.15.26-.31.51-.48.76l0,0c-.16.23-.32.47-.49.7,0,.07-.09.13-.13.19l-.54.72-.65.85-.22.26c-.16.19-.31.39-.47.57l-.17.2-.55.62ZM327.05,335c-.18-.38-.35-.76-.5-1.14a54.59,54.59,0,0,1-4.47,4l0,0,0,0-.07-.06-.36-.29,0,0-.2-.16-.06,0-.23-.19L321,337l-.2-.17-.17-.14-.22-.19-.14-.12-.31-.27-.12-.11-.28-.24-.12-.11-.39-.36-.09-.09-.41-.38,0,0-.48-.47,0,0c-.5-.49-1-1-1.54-1.59-.17.5-.37,1-.59,1.49l.46.56a47.14,47.14,0,0,0,5.51,5.33,48.56,48.56,0,0,0,4.85-4.59,24,24,0,0,0,3.57,6.68c.49.71,1,1.39,1.57,2,.25-.46.49-.93.7-1.4l-.19-.21-.36-.39-.18-.21c-.63-.7-1.25-1.46-1.83-2.24l-.49-.65-.09-.13-.38-.54-.11-.16-.34-.53-.11-.16-.36-.6-.05-.08-.38-.67-.15-.27c-.06-.13-.13-.26-.2-.39s-.11-.23-.17-.34l-.08-.16Zm-11.46-1.21c.25-.45.47-.9.67-1.36l-.5-.57,0-.05-.45-.53,0-.06-.44-.55a1.47,1.47,0,0,1-.1-.13l-.44-.57-.58-.78-.12-.17-.54-.79-.08-.13-.45-.71-.1-.17c-.16-.26-.31-.53-.45-.79l-.11-.2c-.13-.25-.26-.49-.38-.74a.54.54,0,0,1-.05-.11c-.13-.27-.26-.54-.38-.82a1.19,1.19,0,0,1-.08-.2c-.12-.28-.23-.55-.34-.83l0-.08c-.1-.27-.19-.54-.27-.8l0-.09a21.51,21.51,0,0,0,4.28,9.84C314.87,332.91,315.23,333.37,315.59,333.82Zm13.54-1.39a24.11,24.11,0,0,0,3.66-7c-.39.79-.82,1.56-1.29,2.33a26.61,26.61,0,0,1-1.58,2.24c-.23.32-.48.64-.72.95l0,0c-.24.3-.48.59-.73.87l-.06.08-.71.79-.13.13c-.2.23-.41.45-.62.66l-.1.11c.17.34.37.69.56,1C328,334,328.57,333.21,329.13,332.43Zm-48.24-4.62a15.11,15.11,0,0,0,2.25,7.16,30.39,30.39,0,0,0,4.51,5.83,30.21,30.21,0,0,0,5.64-4.75c.16-.17.31-.34.46-.52a24.36,24.36,0,0,0,3.48,6.44,43.32,43.32,0,0,0,7.3,7.62,47.93,47.93,0,0,0,5.61-5.46,22.94,22.94,0,0,0,4.54,8,43.27,43.27,0,0,0,7.77,7.13,43,43,0,0,0,6.79-8.07,24,24,0,0,0,3-6.54,46.85,46.85,0,0,0,5.28,5.07,43,43,0,0,0,7.29-7.62A24.84,24.84,0,0,0,348,336.6a19.29,19.29,0,0,0,2.36,4.08,34.24,34.24,0,0,0,5.79,6,33.85,33.85,0,0,0,5.79-6,19.22,19.22,0,0,0,2.91-5.55,21.09,21.09,0,0,1-2.27,3.63l-.25.33v0l-.24.3,0,0a3.25,3.25,0,0,1-.23.29l-.06.07-.2.24-.08.09-.18.22a.52.52,0,0,0-.1.11l-.17.18-.11.13-.15.16-.15.16-.11.13-.17.17a.94.94,0,0,1-.1.1l-.18.19-.08.08-.18.18-.08.08-.19.19-.06.06-.22.21,0,0-.22.2,0,0-.23.21h0l-.23.21h0l-.44.39h0l-.2.18h0l-.19.16h0l-.17.14,0,0-.14.11-.05.05-.09.07-.08.07,0,0-.7.58s-.78-.61-1.88-1.58l0,0-.18-.16-.05,0-.16-.15L354,343l-.14-.13-.1-.1-.12-.11-.13-.12-.1-.1-.16-.15-.09-.09L353,342l-.09-.08-.18-.18-.06-.07-.2-.2-.05-.06-.21-.22,0,0-.24-.25h0a27.19,27.19,0,0,1-1.79-2.15l-.52-.7-.18-.27c-.11-.15-.21-.31-.32-.47l-.13-.2-.33-.54-.14-.24-.25-.43a.2.2,0,0,0,0-.08l0-.05-.08.14c-.07.14-.15.28-.23.42l-.12.21c-.08.15-.17.31-.27.46s-.2.34-.31.51l-.25.4-.42.61-.19.29c-.22.3-.44.6-.67.89a45.36,45.36,0,0,1-7.84,7.85l0,0h0l-.7-.57-.06,0-.16-.13-.21-.17-.12-.1-.18-.15-.11-.1c-.1-.09-.21-.17-.31-.27l-.05,0-.31-.27-.08-.07-.78-.71-.05,0-.88-.84h0l-.95-1c-.18.52-.39,1-.62,1.55h0l-.06.13c-.13.28-.26.55-.4.83a1.42,1.42,0,0,1-.08.18c-.16.32-.33.65-.51,1h0c-.17.3-.35.6-.53.9,0,.08-.09.16-.14.24-.19.3-.38.6-.58.89a40.5,40.5,0,0,1-5.54,6.65h0l-.2.19-.05,0-.14.14-.09.08-.08.09-.14.13h0c-.65.62-1.06,1-1.06,1a45.52,45.52,0,0,1-8.33-7.34c-.22-.24-.43-.49-.64-.74l-.22-.29-.39-.49-.24-.33c-.12-.15-.23-.31-.34-.46l-.24-.35c-.11-.16-.22-.32-.32-.48l-.21-.33c-.12-.18-.23-.37-.34-.56l-.16-.26c-.15-.27-.3-.54-.44-.81-.05-.1-.1-.19-.14-.29s-.16-.3-.23-.46h0c-.17-.36-.33-.73-.48-1.09l0,0h0c-.27.29-.54.56-.81.82l-.14.14-.11.11c-2.16,2.1-4,3.46-4,3.49a46,46,0,0,1-7.84-7.86l-.43-.57a1,1,0,0,0-.08-.11l-.34-.48-.1-.15-.3-.44a1.74,1.74,0,0,0-.11-.18c-.09-.13-.18-.27-.26-.41a2.39,2.39,0,0,1-.13-.21l-.22-.38-.15-.25-.18-.32c-.06-.11-.12-.21-.17-.32a2.12,2.12,0,0,1-.11-.21c-.08-.15-.15-.29-.22-.44h0v0l-.23-.48a30.82,30.82,0,0,1-5.61,4.55l-.29.19s-.39-.39-1-1l0,0-.29-.3,0,0-.31-.35,0,0-.35-.4,0,0-.39-.46h0a24.49,24.49,0,0,1-2.41-3.37c-.15-.25-.3-.5-.44-.75l-.15-.28c-.08-.16-.17-.32-.25-.49s-.11-.22-.16-.32l-.21-.48a3.09,3.09,0,0,1-.14-.32c-.09-.21-.18-.43-.26-.65s-.09-.25-.13-.38-.11-.33-.16-.49l-.11-.38c0-.13-.07-.26-.1-.4l-.09-.4Z" transform="translate(-33.38 -133.79)" opacity="0.1"/><g opacity="0.4"><path d="M353.28,307.25c1.9,1.66,1.78,5,.12,7.19s-4.19,2.42-6,.93a4.93,4.93,0,0,1-.68-6.61C348.28,306.45,351.38,305.59,353.28,307.25Z" transform="translate(-33.38 -133.79)" opacity="0.3"/><path d="M366.49,324.92a1.84,1.84,0,0,1,.2,2.53,1.56,1.56,0,0,1-2.21.45,1.66,1.66,0,0,1-.38-2.29A1.74,1.74,0,0,1,366.49,324.92Z" transform="translate(-33.38 -133.79)" opacity="0.3"/><path d="M341.61,295.89a2.19,2.19,0,0,1,3.23-.62,2.82,2.82,0,0,1-.12,3.62,1.94,1.94,0,0,1-3,.3A2.5,2.5,0,0,1,341.61,295.89Z" transform="translate(-33.38 -133.79)" opacity="0.3"/><path d="M355,297.18c1-1.35,2.95-1.79,4.08-.74s1,3.1-.12,4.35a2.55,2.55,0,0,1-3.73.37A2.92,2.92,0,0,1,355,297.18Z" transform="translate(-33.38 -133.79)" opacity="0.3"/><path d="M369.48,295.67a1.41,1.41,0,0,1-.09-2,1.56,1.56,0,0,1,2.18-.34,1.59,1.59,0,0,1-.1,2.21A1.39,1.39,0,0,1,369.48,295.67Z" transform="translate(-33.38 -133.79)" opacity="0.3"/><path d="M370.21,289.51a.89.89,0,0,1,0-1.25.88.88,0,1,1,1.26,1.19A.86.86,0,0,1,370.21,289.51Z" transform="translate(-33.38 -133.79)" opacity="0.3"/><path d="M364.33,306.74c1.15-1.58,3.43-2.16,4.81-1s1.27,3.49,0,5a3.09,3.09,0,0,1-4.4.59A3.24,3.24,0,0,1,364.33,306.74Z" transform="translate(-33.38 -133.79)" opacity="0.3"/></g><path d="M365.9,187.25c1.82.25,3.64.52,5.43.81a45.84,45.84,0,0,0-14.12-9.21A61.69,61.69,0,0,1,365.9,187.25Zm33.91,49.84a29.83,29.83,0,0,1-6.25,8.16c5,18.5,7.64,37.12,7.64,51.5,0,42.68-23,73.37-63.7,74.71q3.6.29,7.19.29c42.4,0,66.49-30.23,66.49-72.63C411.18,282,407.27,258.77,399.81,237.09Z" transform="translate(-33.38 -133.79)" opacity="0.1"/><path d="M371.33,188.06a46,46,0,0,0-14.27-9.27c1.05,2.18,2.27,4.8,3.6,7.79C364.2,187,367.81,187.49,371.33,188.06Zm28.48,49A32.85,32.85,0,0,1,384,251.59c6.48,24.58,9.58,48.91,2.88,63.24a74.67,74.67,0,0,0-2-26.56c-.61-2.36-1.33-4.66-2.14-6.9a83.28,83.28,0,0,1,.75,29.46c-2.33,16.16-10.48,34.5-19.7,44.46a122.74,122.74,0,0,0,4.91-12.92c-7.6,13.27-18.4,23.3-32.08,29,2.71.24,5.42.37,8.12.37,42.4,0,66.49-30.23,66.49-72.63C411.18,282,407.27,258.77,399.81,237.1Z" transform="translate(-33.38 -133.79)" opacity="0.1"/><path d="M316.17,187.35l3.33-.46c1.63-1.69,3.27-3.31,4.93-4.83A69.51,69.51,0,0,0,316.17,187.35ZM279.73,333a121.16,121.16,0,0,0,4.55,14.22c-7.15-8.81-13.46-25.05-15.26-39.35a84,84,0,0,1,.57-26.06c-.62,2-1.18,4-1.65,6.1a75,75,0,0,0-1.55,23.51,46.79,46.79,0,0,1-3.1-30.33c2.48-10.95,8.38-19.74,15.86-25a221.9,221.9,0,0,1,11.24-26.47,21.83,21.83,0,0,1-6.77-5.11c-15.56,24.85-26,54.18-26,74.66,0,33.68,28.17,59.67,61,68.94C302.46,360.42,288.39,348.27,279.73,333Z" transform="translate(-33.38 -133.79)" fill="#ffe7d4" opacity="0.2"/><path d="M291.59,195.25c16.55,0,29.29,13.48,28.61,27.11s-13.41,22.55-28.61,22.6-27.95-8.9-28.61-22.6S275.05,195.22,291.59,195.25Z" transform="translate(-33.38 -133.79)" fill="#ffe7d4"/><path d="M287.93,195.47c-12.18,3.63-20.63,14.71-20.08,25.87.66,13.7,13.42,22.56,28.62,22.6a36.21,36.21,0,0,0,5-.35,36.72,36.72,0,0,1-9.91,1.37c-15.2-.05-27.95-8.9-28.61-22.6C262.35,209.76,273.2,197.26,287.93,195.47Z" transform="translate(-33.38 -133.79)" fill="#e75400" opacity="0.2"/><path d="M305.75,220.81l-.28-.05a2.88,2.88,0,1,0,2.42,3.28,2.6,2.6,0,0,0,0-.68,5.08,5.08,0,0,1-5.51,6.85,5.08,5.08,0,0,1,1.53-10.05A5,5,0,0,1,305.75,220.81Z" transform="translate(-33.38 -133.79)" fill="#51364d"/><path d="M306.11,230.41a1.33,1.33,0,1,1,1.32-1.33A1.33,1.33,0,0,1,306.11,230.41Z" transform="translate(-33.38 -133.79)" fill="#fff"/><path d="M307.84,230.82a.42.42,0,1,1,.41-.41A.41.41,0,0,1,307.84,230.82Z" transform="translate(-33.38 -133.79)" fill="#fff"/><path d="M368.16,193.68c22.25,0,39.4,18.14,38.49,36.46s-18,30.35-38.49,30.41-37.61-12-38.5-30.41S345.9,193.64,368.16,193.68Z" transform="translate(-33.38 -133.79)" fill="#ffe7d4"/><path d="M358.76,257.58c20.44-.07,37.6-12.69,38.49-32.22.48-10.21-4-20.37-11.64-27.71,13.1,6.34,21.69,19.38,21,32.49-.89,18.44-18,30.35-38.49,30.41a47.23,47.23,0,0,1-19.4-4.05A47.43,47.43,0,0,0,358.76,257.58Z" transform="translate(-33.38 -133.79)" fill="#e75400" opacity="0.2"/><path d="M354,219.31c0,.21,0,.43,0,.64a6.4,6.4,0,1,0,6.4-6.39,6.16,6.16,0,0,0-1.5.18,11.27,11.27,0,1,1-4.87,5.57Z" transform="translate(-33.38 -133.79)" fill="#51364d"/><circle cx="339.14" cy="97.01" r="3.05" fill="#fff"/><path d="M376.52,234.81a1,1,0,1,1,1-1A1,1,0,0,1,376.52,234.81Z" transform="translate(-33.38 -133.79)" fill="#fff"/><path d="M338.66,259.43c.14.06,13.65,16.48-6.83,14.49-8.81-.86-49.16-19.82-49.16-19.82S317.51,252.3,338.66,259.43Z" transform="translate(-33.38 -133.79)" fill="#d03942"/><path d="M292,253.9c-5.65,0-9.3.2-9.3.2s5.17,2.43,12.2,5.59c17.08-1.61,32.82-2.22,42.48-.26C323.56,254.78,304,253.93,292,253.9Z" transform="translate(-33.38 -133.79)" opacity="0.1"/><path d="M330.73,271.49c11.52,1.12,12.28-3.59,10.72-7.93,2.56,4.74,4.13,11.7-9.62,10.36-4.69-.46-18.3-6-30-11.16C314.75,267.19,327,271.13,330.73,271.49Z" transform="translate(-33.38 -133.79)" opacity="0.1"/><path d="M312.92,232.9c-10.45.31-44,28.55-43.87,28.66,17.57-2.17,52-7.14,69.61-2.13C338.58,259.47,322.26,232.63,312.92,232.9Z" transform="translate(-33.38 -133.79)" fill="#d03942"/><path d="M313.82,238.41c5.63,0,11.44,4.06,16.26,8.72-5.4-7-12.25-14.37-17.16-14.23-10.45.31-44,28.55-43.87,28.66C269,261.45,303.36,238.41,313.82,238.41Z" transform="translate(-33.38 -133.79)" fill="#ffe7d4" opacity="0.2"/><path d="M320.78,251.08s1.3,1.79-.42,1.78c-.75,0-4.3-1.81-4.3-1.81A11.49,11.49,0,0,1,320.78,251.08Z" transform="translate(-33.38 -133.79)" opacity="0.2"/><path d="M319.87,184.78c1.33-.86,2.66-1.66,4-2.41.15-16.73,7.78-33.05,21.67-42.78q.72-.5,1.44-1a50.19,50.19,0,0,0-4.42,2.53A49.48,49.48,0,0,0,319.87,184.78Zm93.71-13.1a48.79,48.79,0,0,1,3.28,4.3c.39.34.77.7,1.14,1.06A47.82,47.82,0,0,0,413.58,171.68Z" transform="translate(-33.38 -133.79)" fill="#ffe7d4" opacity="0.2"/><path d="M367.24,165.55a52.33,52.33,0,0,1,40.23,3.79,47.87,47.87,0,0,1,6.71,4.39,45.71,45.71,0,0,0-6.78-4.89A46.38,46.38,0,0,0,367.24,165.55Z" transform="translate(-33.38 -133.79)" opacity="0.1"/></svg>