<svg xmlns="http://www.w3.org/2000/svg" viewBox="0 0 413.42 354.27"><path d="M465.23,263A27.23,27.23,0,0,0,432,236.74a50.74,50.74,0,0,0-95.63-20.43,49.9,49.9,0,0,0-51.84-12.89A77.59,77.59,0,0,0,132.22,187a54.34,54.34,0,0,0-70.41,76Z" transform="translate(-52.26 -87.5)" fill="#6c8030"/><path d="M207.06,130A77.62,77.62,0,0,0,132.22,187a54.34,54.34,0,0,0-77.5,49.16,55.21,55.21,0,0,0,.9,9.86,55.32,55.32,0,0,1,78.77-46.77,79,79,0,0,1,147-13.92A77.62,77.62,0,0,0,207.06,130Z" transform="translate(-52.26 -87.5)" fill="#bfd13b" opacity="0.3"/><circle cx="129.97" cy="109.17" r="4.82" fill="#ccccb6"/><path d="M146.87,194.8a4.82,4.82,0,1,0,4.82,4.82A4.82,4.82,0,0,0,146.87,194.8Z" transform="translate(-52.26 -87.5)" fill="#ccccb6"/><path d="M243.84,213a4.82,4.82,0,1,0,4.82,4.82A4.82,4.82,0,0,0,243.84,213Z" transform="translate(-52.26 -87.5)" fill="#ccccb6"/><circle cx="44.79" cy="137.84" r="4.82" fill="#ccccb6"/><path d="M234.46,176.58a4.82,4.82,0,1,0,4.83,4.82A4.82,4.82,0,0,0,234.46,176.58Z" transform="translate(-52.26 -87.5)" fill="#ccccb6"/><circle cx="137.2" cy="70.6" r="4.82" fill="#ccccb6"/><circle cx="339.98" cy="133.01" r="4.82" fill="#ccccb6"/><circle cx="309.98" cy="138.91" r="4.82" fill="#ccccb6"/><circle cx="250.78" cy="146.94" r="4.82" fill="#ccccb6"/><circle cx="175.8" cy="242.48" r="4.82" transform="translate(-88.97 -56.07) rotate(-9.25)" fill="#ccccb6"/><path d="M269.27,344.27c-72.38,0-169.51,33.41-169.51,45.42s97.13,21.75,169.51,21.75,153.94-9.73,153.94-21.75S341.64,344.27,269.27,344.27Z" transform="translate(-52.26 -87.5)" opacity="0.1"/><path d="M404.06,366.58C419.87,355.51,430,342,432,327.5a60.54,60.54,0,0,1-9,15.81,30.67,30.67,0,0,0,2.42-11.65c0-13.12-9.54-25.22-26.07-35.4a44.66,44.66,0,0,1,17.3,6.35,32.71,32.71,0,0,0-8.36-8.65,29.74,29.74,0,0,0-22-5.3,20.7,20.7,0,0,1,4.55-5.35,15,15,0,0,0-4.95,2.39A14.29,14.29,0,0,0,383.4,288a205.41,205.41,0,0,0-23.44-8.6,21.42,21.42,0,0,1,4.35-4.69,16,16,0,0,0-2.7.94,15,15,0,0,0-4.33,3l-1.49-.43a21.24,21.24,0,0,1,2.55-9.87,17.51,17.51,0,0,0-2.12,1.93,14.87,14.87,0,0,0-3.62,7c-28.66-7.78-63.82-12.3-101.81-12.3a436.24,436.24,0,0,0-68.21,5.18c-21.56-.51-45.79,3.86-70,13.48q-7.52,3-14.56,6.46a221.82,221.82,0,0,1,57.21-14.44c-8,2-15.58,4.21-22.61,6.66-35,9.89-59.95,28.74-64.6,51.45A63.35,63.35,0,0,1,81.52,315a30.16,30.16,0,0,0-5.33,16.67c0,.67,0,1.34.07,2a14,14,0,0,0-5,8.59A15.09,15.09,0,0,0,71,345a20.31,20.31,0,0,1,5.77-7.53c1.78,8.52,7.39,17.06,16.13,25.13a91,91,0,0,1-17.86-16.9c5.25,15,22.61,29.06,47.92,39.71a45.51,45.51,0,0,1-5.88,6.43,33,33,0,0,0,8-3.77,45.3,45.3,0,0,1-3.4,10.46,32.75,32.75,0,0,0,7.57-9.36c.19-.34.36-.69.53-1a236.34,236.34,0,0,0,33,9.61,324.46,324.46,0,0,0,87.91,11.8,339.39,339.39,0,0,0,50-3.69,239.83,239.83,0,0,0,52-12.56q8.29-2.86,15.84-6.13a335.77,335.77,0,0,0,54.3-29q3.93-2.58,7.76-5.25c-10.71,6.64-21.51,12.58-32.27,17.85Q401.42,368.72,404.06,366.58Z" transform="translate(-52.26 -87.5)" fill="#e3bb94"/><path d="M120.27,378c-10.63-9.39-17.54-19.41-19.89-29.51a24.22,24.22,0,0,0-6.68,9.13,19.19,19.19,0,0,1,.2-3.29A16.75,16.75,0,0,1,99.63,344c-.08-.81-.13-1.61-.15-2.41a35.86,35.86,0,0,1,5.91-20A75.6,75.6,0,0,0,89.82,344.3c2.78-15.37,13.33-29.43,29.45-41.05a85.28,85.28,0,0,0-24,16.86c8.2-17.12,28.88-29.25,57-34.32q6.33-2.44,13.13-4.54c8.31-3.1,17.27-6,26.77-8.53a264.48,264.48,0,0,0-67.78,18.74q8.28-4.31,17.17-8.09a235.35,235.35,0,0,1,41.64-13.32l-.62.1c-21.56-.51-45.79,3.86-70,13.48q-7.52,3-14.56,6.46a221.82,221.82,0,0,1,57.21-14.44c-8,2-15.58,4.21-22.61,6.66-35,9.89-59.95,28.74-64.6,51.45A63.35,63.35,0,0,1,81.52,315a30.16,30.16,0,0,0-5.33,16.67c0,.67,0,1.34.07,2a14,14,0,0,0-5,8.59A15.09,15.09,0,0,0,71,345a20.31,20.31,0,0,1,5.77-7.53c1.78,8.52,7.39,17.06,16.13,25.13a91,91,0,0,1-17.86-16.9c5,14.13,20.73,27.49,43.78,37.91-10-7.83-17-16.38-20.32-25.27A108.36,108.36,0,0,0,120.27,378Z" transform="translate(-52.26 -87.5)" fill="#fff" opacity="0.2"/><path d="M343.06,306a36.34,36.34,0,0,1,4.23,3.9,34,34,0,0,1,2.35,2.87c3-2.54,4.67-5.16,4.67-7.73,0-13.87-47.32-24.62-105.69-24.62-49.41,0-90.9,7.71-102.47,18.48a6.57,6.57,0,0,0,.14,9.75c4.29,3.75,10.94,7.12,19.9,9.81-2.43-.53-4.78-1.13-7-1.8a56.91,56.91,0,0,1-13.51-5.74c10.85,11.89,52.83,22.87,103,22.87,44.33,0,82.28-8.59,98-18.79A36.38,36.38,0,0,0,343.06,306Z" transform="translate(-52.26 -87.5)" opacity="0.3"/><path d="M156.3,266.37c0,22.4,5.28,42.12,15.3,57.55,19.28,5.82,46.65,9.85,77,9.85,31.38,0,59.56-4.3,78.92-10.43,15-15.34,24.48-34.86,24.48-57,0-26.11-13.28-63.5-33.11-95.17a22.64,22.64,0,0,0,5.65-14c.73-14.56-12.89-29-30.57-29a31.48,31.48,0,0,0-9.4,1.4c-9.37-8.15-19.19-14.25-29.09-17.36a27.19,27.19,0,0,1,8.53-4,36.28,36.28,0,0,1,6.67-1.12c-6.11-1.63-11.74-2-16.37-.79l-.51.16a54.07,54.07,0,0,1,8.08-11.38,57.54,57.54,0,0,1,8.8-7.71c-9.82,2.17-18.15,6.17-23.93,12.41A32,32,0,0,0,240.45,110h-.14c-4.14-4.76-9.8-7.41-17.3-6.94-7.06.45-15.19,3.63-23.73,8.68a58.65,58.65,0,0,1,10-1.59,37,37,0,0,1,16.8,2.56C181.38,129.24,156.3,217.53,156.3,266.37Z" transform="translate(-52.26 -87.5)" fill="#6a4f4d"/><path d="M215.86,125.77c-28.37,0-50.23,23.11-49.06,46.48s23,38.67,49.06,38.75c26.07-.08,47.94-15.26,49.07-38.75S244.24,125.72,215.86,125.77Z" transform="translate(-52.26 -87.5)" fill="#6a4f4d"/><path d="M220.09,128.23a58.35,58.35,0,0,1,19.24,3.21,50.7,50.7,0,0,0-23.47-5.67c-23.54,0-42.6,15.91-47.74,34.69C176.53,142.37,196.31,128.19,220.09,128.23Z" transform="translate(-52.26 -87.5)" fill="#ffe7d4" opacity="0.2"/><path d="M214.27,332l3.48.34a94.33,94.33,0,0,1-7.22-10.86Q212.23,326.89,214.27,332Zm-9.38-205.08a50.59,50.59,0,0,1,11-1.17c1.19,0,2.37,0,3.53.11,2.22-5.06,4.23-9.42,5.9-12.89A60.32,60.32,0,0,0,204.89,126.94ZM192.62,243.75c-1,2.85-2,5.78-2.72,8.79a95.16,95.16,0,0,0-2.56,33.86c-8.53-18.27-4.58-49.29,3.68-80.62-8.9-4.07-16.05-10.4-20.22-18.47-9.5,27.62-14.5,57.27-14.5,79.06,0,22.4,5.28,42.12,15.3,57.55a232,232,0,0,0,40.12,7.82c-9.58-13.26-17.52-32.87-20.05-50.45A106.11,106.11,0,0,1,192.62,243.75Z" transform="translate(-52.26 -87.5)" fill="#ffe7d4" opacity="0.2"/><path d="M215.86,125.77c-28.37,0-50.23,23.11-49.06,46.48s23,38.67,49.06,38.75c26.07-.08,47.94-15.26,49.07-38.75S244.24,125.72,215.86,125.77Z" transform="translate(-52.26 -87.5)" fill="#6a4f4d"/><path d="M220.09,128.23a58.35,58.35,0,0,1,19.24,3.21,50.7,50.7,0,0,0-23.47-5.67c-23.54,0-42.6,15.91-47.74,34.69C176.53,142.37,196.31,128.19,220.09,128.23Z" transform="translate(-52.26 -87.5)" fill="#ffe7d4" opacity="0.2"/><path d="M310.56,327.75c2.84-.61,5.57-1.24,8.19-1.91a154,154,0,0,0,5.11-16.33A100.55,100.55,0,0,1,310.56,327.75Zm8.35-156.55a27.42,27.42,0,0,1-8.64,6.51,281.78,281.78,0,0,1,14.33,33.75c9.53,6.72,17.06,17.93,20.22,31.89A59.62,59.62,0,0,1,340.87,282a95.54,95.54,0,0,0-2-30c-.6-2.66-1.31-5.26-2.11-7.78a106.91,106.91,0,0,1,.74,33.22c-2.17,17.18-9.44,36.55-17.9,48.12q4.17-1.08,7.92-2.27c15-15.34,24.48-34.86,24.48-57C352,240.26,338.74,202.88,318.91,171.2Zm-38.58-39.89a30.7,30.7,0,0,1,4.25-1.66,98.23,98.23,0,0,0-17.7-12.49A148.39,148.39,0,0,1,280.33,131.31Z" transform="translate(-52.26 -87.5)" opacity="0.3"/><path d="M296.62,129.78a36.52,36.52,0,0,1,12,2A31.49,31.49,0,0,0,294,128.25c-14.67,0-26.55,9.91-29.75,21.61C269.48,138.59,281.81,129.76,296.62,129.78Z" transform="translate(-52.26 -87.5)" fill="#ffe7d4" opacity="0.2"/><path d="M308.75,134c-21.1,0-37.34,17.19-36.48,34.55s17.1,28.75,36.48,28.81,35.63-11.34,36.47-28.81S329.84,133.94,308.75,134Z" transform="translate(-52.26 -87.5)" fill="#ffe7d4"/><path d="M313.42,134.25c15.51,4.62,26.29,18.75,25.58,33-.84,17.46-17.1,28.75-36.47,28.81a49.85,49.85,0,0,1-6.41-.45,46.7,46.7,0,0,0,12.63,1.74c19.37-.06,35.63-11.34,36.47-28.81C346,152.46,332.18,136.53,313.42,134.25Z" transform="translate(-52.26 -87.5)" fill="#e75400" opacity="0.2"/><path d="M211.15,132c-28.37-.05-50.23,23.11-49.07,46.48s23,38.67,49.07,38.75c26.06-.08,47.93-15.26,49.06-38.75S239.52,131.92,211.15,132Z" transform="translate(-52.26 -87.5)" fill="#ffe7d4"/><path d="M223.13,213.42c-26.06-.09-47.93-16.18-49.07-41.08-.61-13,5.14-26,14.84-35.31-16.69,8.08-27.65,24.7-26.82,41.42,1.14,23.49,23,38.67,49.07,38.75A60.17,60.17,0,0,0,235.87,212,61.09,61.09,0,0,1,223.13,213.42Z" transform="translate(-52.26 -87.5)" fill="#e75400" opacity="0.2"/><path d="M229.19,164.64a7.37,7.37,0,0,1,.05.82,8.16,8.16,0,1,1-8.16-8.16,8.06,8.06,0,0,1,1.91.24A14.37,14.37,0,1,0,230.24,170,14.17,14.17,0,0,0,229.19,164.64Z" transform="translate(-52.26 -87.5)" fill="#51364d"/><circle cx="153.34" cy="91.79" r="3.89" fill="#fff"/><circle cx="148.23" cy="95.68" r="1.21" fill="#fff"/><path d="M290.69,166.55l.36-.07a3.68,3.68,0,1,1-3.08,4.19,3.62,3.62,0,0,1,0-.87,6.48,6.48,0,0,0,7,8.74A6.48,6.48,0,0,0,293,165.73,6.35,6.35,0,0,0,290.69,166.55Z" transform="translate(-52.26 -87.5)" fill="#51364d"/><path d="M290.24,178.78a1.69,1.69,0,1,0-1.68-1.68A1.69,1.69,0,0,0,290.24,178.78Z" transform="translate(-52.26 -87.5)" fill="#fff"/><path d="M288,179.31a.53.53,0,0,0,.53-.53.52.52,0,0,0-.53-.52.52.52,0,0,0-.52.52A.52.52,0,0,0,288,179.31Z" transform="translate(-52.26 -87.5)" fill="#fff"/><path d="M243,219.38c-.16.08-15.15,21,7.56,18.47,9.78-1.09,54.53-25.26,54.53-25.26S266.49,210.3,243,219.38Z" transform="translate(-52.26 -87.5)" fill="#ff9e2e"/><path d="M291.34,219.84c7.94-4.08,13.79-7.25,13.79-7.25s-38.64-2.29-62.09,6.79C254,216.83,272,217.7,291.34,219.84Z" transform="translate(-52.26 -87.5)" opacity="0.1"/><path d="M251.83,234.75c-12.78,1.43-13.62-4.57-11.89-10.11-2.84,6.05-4.58,14.92,10.66,13.21,5.21-.58,20.31-7.69,33.3-14.22C269.55,229.28,256,234.29,251.83,234.75Z" transform="translate(-52.26 -87.5)" opacity="0.1"/><path d="M334.82,176.89c-11.34-9.18-28.21,27.83-48.35,18.12S243.15,219.44,243,219.38c27.43-6.38,81.26,0,108.69,2.72C351.9,222,343.68,183.79,334.82,176.89Z" transform="translate(-52.26 -87.5)" fill="#ff9e2e"/><path d="M334.82,176.89c-11.34-9.18-28.21,27.83-48.35,18.12-10.36-5-21.53,1.62-30,9.21,9.2-6,20.82-10.59,29.85-6.24,20.14,9.71,35.78-17.16,47.12-8,8.86,6.89,18.41,32,18.24,32.09C351.9,222,343.68,183.79,334.82,176.89Z" transform="translate(-52.26 -87.5)" fill="#fff" opacity="0.4"/><path d="M334.82,176.89c-11.34-9.18-28.21,27.83-48.35,18.12-9.34-4.5-19.34.43-27.39,7,8.64-5.91,18.85-10,27.74-5.72C307,206,321.23,171.81,334.1,178.36c4.22,2.14,8,10.2,11,18.84C342.2,188.33,338.57,179.81,334.82,176.89Z" transform="translate(-52.26 -87.5)" fill="#fff" opacity="0.2"/><path d="M273,200.16s-2,2.28.67,2.26c1.16,0,6.7-2.31,6.7-2.31S275.84,199.37,273,200.16Z" transform="translate(-52.26 -87.5)" opacity="0.2"/><g opacity="0.8"><path d="M293.54,264.41c-1.52,1.32-1.42,4-.09,5.75a3.23,3.23,0,0,0,4.79.74,4,4,0,0,0,.55-5.29C297.54,263.76,295.06,263.08,293.54,264.41Z" transform="translate(-52.26 -87.5)" opacity="0.3"/><path d="M283,278.54a1.49,1.49,0,0,0-.16,2,1.25,1.25,0,0,0,1.77.36,1.33,1.33,0,0,0,.3-1.83A1.39,1.39,0,0,0,283,278.54Z" transform="translate(-52.26 -87.5)" opacity="0.3"/><path d="M302.88,255.31a1.75,1.75,0,0,0-2.58-.49,2.26,2.26,0,0,0,.09,2.9,1.56,1.56,0,0,0,2.36.24A2,2,0,0,0,302.88,255.31Z" transform="translate(-52.26 -87.5)" opacity="0.3"/><path d="M292.2,256.34a2.28,2.28,0,0,0-3.26-.59,2.61,2.61,0,0,0,.1,3.48,2,2,0,0,0,3,.3A2.34,2.34,0,0,0,292.2,256.34Z" transform="translate(-52.26 -87.5)" opacity="0.3"/><path d="M280.58,255.14a1.13,1.13,0,0,0,.07-1.61,1.25,1.25,0,0,0-1.75-.27A1.27,1.27,0,0,0,279,255,1.11,1.11,0,0,0,280.58,255.14Z" transform="translate(-52.26 -87.5)" opacity="0.3"/><path d="M280,250.21a.7.7,0,0,0,0-1,.7.7,0,1,0-1,.95A.68.68,0,0,0,280,250.21Z" transform="translate(-52.26 -87.5)" opacity="0.3"/><path d="M284.7,264a2.78,2.78,0,0,0-3.85-.8,2.89,2.89,0,0,0,0,4,2.47,2.47,0,0,0,3.52.47A2.6,2.6,0,0,0,284.7,264Z" transform="translate(-52.26 -87.5)" opacity="0.3"/></g><path d="M259.19,328.5c-.06-.1-.12-.21-.19-.31-.23-.38-.45-.76-.67-1.14v0c-.22-.41-.44-.82-.65-1.24,0-.07-.07-.15-.11-.22-.17-.35-.34-.71-.5-1.07,0-.05-.05-.1-.07-.16h0c-.29-.65-.55-1.31-.79-2-.4.42-.81.83-1.2,1.22h0c-.38.38-.76.73-1.12,1.07l-.06.06-1,.9-.11.09-.39.35-.06.05-.39.34-.15.12-.23.19-.15.13-.27.23-.19.16-.08.06-.9.72h0l0,0a58.55,58.55,0,0,1-10-10L239,317l-.25-.36c-.18-.26-.36-.52-.53-.79s-.21-.33-.32-.5l-.4-.65c-.12-.2-.23-.4-.35-.59s-.1-.17-.15-.26l-.29-.55-.09-.17a.21.21,0,0,0,0,.06.47.47,0,0,1-.05.1c-.1.19-.21.37-.32.55a2.91,2.91,0,0,1-.17.3c-.14.24-.28.47-.43.7l-.16.26c-.13.2-.27.4-.41.59l-.23.34-.66.9a34.49,34.49,0,0,1-2.28,2.74h0l-.3.32,0,0-.27.28-.07.08-.25.26-.08.08-.23.22-.11.11-.2.2-.13.12-.19.19-.13.12-.17.16-.15.15-.13.12-.18.16-.11.1-.2.18-.06,0-.23.22h0c-1.4,1.24-2.4,2-2.4,2l-.89-.73,0,0-.11-.09-.11-.09-.07-.06-.17-.14,0,0-.21-.17,0,0-.23-.2,0,0-.25-.22h0l-.56-.5h0l-.29-.27h0l-.29-.27,0,0-.27-.26,0,0a3.45,3.45,0,0,1-.28-.26l-.08-.08-.25-.24-.1-.1-.23-.23a.47.47,0,0,0-.1-.1l-.23-.24-.12-.13-.22-.22-.15-.16-.18-.2-.19-.21-.15-.16-.21-.24-.13-.14-.23-.28-.1-.11-.25-.3-.08-.09-.3-.38,0,0-.3-.38,0,0c-.11-.13-.22-.27-.32-.41a26.6,26.6,0,0,1-2.89-4.63,24.53,24.53,0,0,0,3.7,7.08,44.25,44.25,0,0,0,7.38,7.7,44.11,44.11,0,0,0,7.39-7.7,25.32,25.32,0,0,0,3-5.21,31.82,31.82,0,0,0,4,7.06,55.57,55.57,0,0,0,9.31,9.71,61.57,61.57,0,0,0,6.72-6.46,31.39,31.39,0,0,0,3.86,8.34c.15.25.32.5.48.75l1.52-.06a40,40,0,0,1-2.82-3.84C259.67,329.26,259.43,328.88,259.19,328.5ZM285,296.29a.49.49,0,0,1,0,.11c-.1.34-.22.68-.35,1l0,.1c-.13.36-.28.71-.43,1.06,0,.09-.07.17-.11.26q-.22.53-.48,1.05l-.06.13c-.16.31-.32.63-.49.94l-.13.26-.58,1-.13.21-.57.91-.11.17c-.22.34-.45.67-.68,1l-.16.22-.74,1-.55.72-.13.17-.56.7-.06.07-.58.68-.05.06-.65.73c.26.58.55,1.16.86,1.74.47-.58.92-1.17,1.35-1.78A27.46,27.46,0,0,0,285,296.29Zm37.39,6.79-.12.52c0,.16-.08.33-.13.5s-.09.32-.14.48-.13.42-.2.62-.11.33-.17.5-.21.55-.32.82l-.18.41-.27.61-.21.41c-.1.21-.21.42-.32.62l-.19.36c-.18.32-.37.64-.56,1a32,32,0,0,1-3.07,4.3h0c-.16.2-.33.39-.49.58l0,0-.44.5-.05.06-.4.44-.05.05-.37.4,0,0c-.75.79-1.25,1.27-1.25,1.29a3.23,3.23,0,0,0-.37-.25,39.3,39.3,0,0,1-7.16-5.79c-.09.2-.19.4-.29.6l0,0h0l-.28.55-.14.27-.22.41-.23.4c-.06.11-.12.22-.19.33s-.18.32-.28.48-.11.18-.17.27l-.33.53-.15.22-.37.57a1.27,1.27,0,0,0-.13.19l-.43.6-.1.14c-.19.25-.37.5-.56.74a58.68,58.68,0,0,1-10,10s-2.32-1.77-5.07-4.45l-.15-.14-.17-.17c-.34-.34-.68-.68-1-1h0l0,0c-.19.46-.4.93-.62,1.39h0l-.29.58-.18.36c-.18.35-.37.69-.57,1-.06.11-.13.22-.2.33s-.28.48-.43.71-.18.28-.27.42-.27.42-.41.62l-.3.44-.43.59-.32.42-.49.63-.29.36c-.26.32-.53.64-.81,1-.44.53-.9,1-1.36,1.54l2.18-.2a27.93,27.93,0,0,0,4.41-8.51,61.91,61.91,0,0,0,7.15,7,55.17,55.17,0,0,0,9.31-9.71,31.12,31.12,0,0,0,4.43-8.21c.19.23.39.45.59.66a38.35,38.35,0,0,0,7.19,6.06,38.48,38.48,0,0,0,5.75-7.44,19.22,19.22,0,0,0,2.86-9.12Zm-37.78,20q.38-.63.69-1.26c-.22-.23-.43-.47-.65-.71l-.05-.06-.71-.79a2.62,2.62,0,0,0-.22-.25c-.2-.24-.4-.48-.59-.73l-.28-.33-.83-1.08-.69-.92-.17-.25c-.21-.29-.42-.59-.62-.89l0,0c-.21-.32-.42-.64-.61-1l-.15-.25c-.18-.29-.35-.57-.51-.87l-.07-.12c-.18-.32-.34-.63-.5-.94l-.18-.35-.12-.24A30.49,30.49,0,0,0,283,321C283.47,321.73,284,322.43,284.57,323.11Zm-21.44-11.44c.26-.44.5-.87.73-1.31l-.14-.15c-.26-.26-.53-.54-.79-.83l-.16-.17-.91-1-.08-.09-.93-1.12,0-.05q-.48-.58-.93-1.2a34.35,34.35,0,0,1-2-2.87,32.08,32.08,0,0,1-1.65-3,30.8,30.8,0,0,0,4.67,8.92C261.6,309.82,262.36,310.78,263.13,311.67Zm12-.51,0,0-.62.59,0,0-.52.49-.13.12-.49.44-.15.15-.35.31-.16.13-.4.35L272,314l-.28.24-.21.17-.26.22-.13.11-.31.25-.07.06-.25.21,0,0-.46.37-.1.08,0,0,0,0a69.13,69.13,0,0,1-5.69-5.05c-.2.49-.42,1-.65,1.45h0a1.24,1.24,0,0,1-.1.2l-.21.44c-.09.17-.18.33-.26.5l-.19.35q-.22.42-.48.84a.41.41,0,0,1-.07.11l-.46.77-.13.2-.44.67-.14.21c-.16.23-.32.46-.49.68a1.63,1.63,0,0,1-.11.17l-.63.83c-.73,1-1.53,2-2.33,2.86l-.23.26c-.15.17-.3.33-.46.49l-.24.27c.27.6.57,1.2.89,1.79.7-.82,1.38-1.68,2-2.58a30.88,30.88,0,0,0,4.54-8.53,64.47,64.47,0,0,0,6.19,5.87,62.63,62.63,0,0,0,7-6.8c.2-.23.39-.48.59-.72q-.42-.94-.75-1.89C276.4,309.85,275.73,310.53,275.09,311.16Z" transform="translate(-52.26 -87.5)" opacity="0.1"/><path d="M226.21,324.83a46,46,0,0,0,7.94-7.93,28.7,28.7,0,0,0,2.47-3.8,33.53,33.53,0,0,0,3.22,5,58.55,58.55,0,0,0,10,10,68.21,68.21,0,0,0,6.36-5.75,32.31,32.31,0,0,0,3.73,7.27,40,40,0,0,0,2.82,3.84l2-.09a45.14,45.14,0,0,1-4.92-5.85,31.71,31.71,0,0,1-3.26-5.55,42,42,0,0,0,3.26-3.88,32.27,32.27,0,0,0,4.36-7.42,69.13,69.13,0,0,0,5.69,5.05,65.66,65.66,0,0,0,7.18-6.61,31.38,31.38,0,0,0,4.87,8.77,45.3,45.3,0,0,0,3.33,4,30,30,0,0,1-5,7,41.11,41.11,0,0,1-3.94,3.79l2.21-.19c.46-.5.92-1,1.36-1.54a31.08,31.08,0,0,0,5.6-8.85,67.41,67.41,0,0,0,6.46,5.85,58.68,58.68,0,0,0,10-10,33.13,33.13,0,0,0,3.89-6.35,41.28,41.28,0,0,0,7.53,6,41.78,41.78,0,0,0,6.2-7.7,20,20,0,0,0,3.09-8.74,19.64,19.64,0,0,1-3.08,7.27,41.3,41.3,0,0,1-6.4,7.39,42.75,42.75,0,0,1-7-5.06l-.36-.34-.48-.48a19.6,19.6,0,0,1-4.55-6.45,19.94,19.94,0,0,0,4.63,7.64,30.35,30.35,0,0,1-3.26,4.69,58.21,58.21,0,0,1-10.22,9.54,69.71,69.71,0,0,1-5.9-4.89l-.09-.08a42.78,42.78,0,0,1-4.24-4.57,30.48,30.48,0,0,1-4.41-6.94,39.75,39.75,0,0,0,2.58-3.13,28.77,28.77,0,0,0,5.71-11.95,28,28,0,0,1-5.48,9.86,43,43,0,0,1-3.4,3.76l-.13.12a67.94,67.94,0,0,1-6.69,5.65s-2.31-1.64-5.08-4.13l-.23-.2a44.14,44.14,0,0,1-4.92-5.2,28,28,0,0,1-5.49-9.86,28.74,28.74,0,0,0,5.72,11.95,44.44,44.44,0,0,0,4,4.62,31.39,31.39,0,0,1-3.8,5.67,42.33,42.33,0,0,1-4.13,4.45l-.25.25a68.46,68.46,0,0,1-5.84,4.82A57.6,57.6,0,0,1,239.61,316a33.5,33.5,0,0,1-2.63-3.64c-.1-.16-.2-.32-.29-.48a23.83,23.83,0,0,1-2.56-5.75,23.63,23.63,0,0,0,2.19,6.35,24.67,24.67,0,0,1-2,2.73,45.21,45.21,0,0,1-8.12,7.56,45.71,45.71,0,0,1-8.11-7.56,22,22,0,0,1-4.35-7.83,22.77,22.77,0,0,0,4.53,9.49A46.15,46.15,0,0,0,226.21,324.83Z" transform="translate(-52.26 -87.5)" fill="#ffe7d4" opacity="0.2"/><path d="M131.89,360.84c16.71,32.42,96.32,51.5,184.24,33.06,3.07-.64,6.12-1.33,9.14-2C240.18,407.4,163,391,131.89,360.84Z" transform="translate(-52.26 -87.5)" opacity="0.05"/><path d="M195.07,368.8C217,394,297.52,392.74,379.49,356Q383.8,354,388,352C308.26,385.55,230.52,388.6,195.07,368.8Z" transform="translate(-52.26 -87.5)" opacity="0.05"/><path d="M370.05,303.73c-14,29.54-72.4,48.58-134.56,34.08q-3.27-.76-6.46-1.63C289.33,348.15,345.87,331.54,370.05,303.73Z" transform="translate(-52.26 -87.5)" opacity="0.05"/><path d="M204.88,126.94a50.62,50.62,0,0,1,7.35-1,81.57,81.57,0,0,1,12.87-12.82C217.82,116,211.08,120.74,204.88,126.94ZM176.62,206.1a39.81,39.81,0,0,1-8.8-9.59c-7.56,24.86-11.52,50.47-11.52,69.86,0,22.4,5.28,42.12,15.3,57.55,5,1.51,10.51,2.89,16.48,4.12C175.62,311.48,169,289.13,169,263.35,169,247.19,171.62,226.84,176.62,206.1Z" transform="translate(-52.26 -87.5)" fill="#ffe7d4" opacity="0.2"/><path d="M404.06,366.58C419.87,355.51,430,342,432,327.5a60.54,60.54,0,0,1-9,15.81,30.67,30.67,0,0,0,2.42-11.65c0-13.12-9.54-25.22-26.07-35.4a44.66,44.66,0,0,1,17.3,6.35,32.71,32.71,0,0,0-8.36-8.65,29.74,29.74,0,0,0-22-5.3,20.7,20.7,0,0,1,4.55-5.35,15,15,0,0,0-4.95,2.39A14.29,14.29,0,0,0,383.4,288a205.64,205.64,0,0,0-23.6-8.65c9.54,9.69,14.85,20.47,14.85,31.92a41,41,0,0,1-2.43,13.64,74.43,74.43,0,0,0,9-18.5c-2,17-12.1,32.79-27.92,45.75-1.75,1.67-3.61,3.32-5.56,4.94A355.92,355.92,0,0,0,380,336.19q-3.81,3.1-7.76,6.14A322.34,322.34,0,0,1,318,376.28c-5,2.53-10.3,4.93-15.83,7.17-18.47,7.67-36.13,12.56-52,14.71a290.2,290.2,0,0,1-50,4.31q-11.13,0-21.91-.82a331.4,331.4,0,0,0,72.65,7.92,339.39,339.39,0,0,0,50-3.69,239.83,239.83,0,0,0,52-12.56q8.29-2.86,15.84-6.13a335.77,335.77,0,0,0,54.3-29q3.93-2.58,7.76-5.25c-10.71,6.64-21.51,12.58-32.27,17.85Q401.42,368.72,404.06,366.58Z" transform="translate(-52.26 -87.5)" opacity="0.05"/><path d="M194.22,331.75a45.25,45.25,0,0,1,13.29-2.58,33,33,0,0,0-11.79-2.44,31.84,31.84,0,0,0-5.9.45,45,45,0,0,1-2.17-14.69,32.74,32.74,0,0,0-3.13,11.62,30.78,30.78,0,0,0,0,4.5q-.59.21-1.14.45Q188.81,330.59,194.22,331.75Z" transform="translate(-52.26 -87.5)" fill="#e3bb94"/><path d="M132.35,303.17c8,38.92,85.5,53.9,167.24,42.3,2.86-.41,5.69-.85,8.49-1.34C228.79,353.09,153.81,338.45,132.35,303.17Z" transform="translate(-52.26 -87.5)" fill="#fff" opacity="0.2"/><path d="M404.06,366.58C419.87,355.51,430,342,432,327.5a60.54,60.54,0,0,1-9,15.81,30.67,30.67,0,0,0,2.42-11.65c0-13.12-9.54-25.22-26.07-35.4a44.66,44.66,0,0,1,17.3,6.35,32.71,32.71,0,0,0-8.36-8.65,29.81,29.81,0,0,0-19.38-5.59c8.75,10.17,13.59,21.42,13.59,33.33a48.47,48.47,0,0,1-2.42,14.85,84.31,84.31,0,0,0,9-20.15c-2,18.49-12.09,35.71-27.91,49.82q-2.64,2.73-5.56,5.38a356.18,356.18,0,0,0,32.26-22.75q-3.82,3.39-7.76,6.69a319.94,319.94,0,0,1-54.3,37q-7.53,4.14-15.83,7.81l-.21.1c7.51-1.93,15.24-4.29,23.12-7.09q8.29-2.86,15.84-6.13a335.77,335.77,0,0,0,54.3-29q3.93-2.58,7.76-5.25c-10.71,6.64-21.51,12.58-32.27,17.85Q401.42,368.72,404.06,366.58Z" transform="translate(-52.26 -87.5)" opacity="0.05"/><path d="M384.55,418c34.64,0,81.13,7.84,81.13,10.66s-46.49,5.1-81.13,5.1-73.68-2.29-73.68-5.1S349.91,418,384.55,418Z" transform="translate(-52.26 -87.5)" opacity="0.1"/><path d="M415.86,391.64a11.34,11.34,0,0,0,3.91-.43,6.05,6.05,0,0,0,2.57-4.95,8.86,8.86,0,0,0-.07-1.35,7.56,7.56,0,0,1,.72,3.15,3.62,3.62,0,0,1-.56,1.92,9.44,9.44,0,0,0,.93-.67,13.67,13.67,0,0,0,2-2,13.3,13.3,0,0,1-3.22,5.51,9.81,9.81,0,0,0,5.06-3.52,16,16,0,0,0,1.5-2.81,14.6,14.6,0,0,1-2.05,7.34,4.62,4.62,0,0,1-.53.64c3.31-.44,6.14-1.52,8-3.5a21.15,21.15,0,0,0,2.52-3.32,18.79,18.79,0,0,1-4.13,9.1c-1.41,1.51-3.59,2.2-6.22,2.31,5.91,2.2,11.07,5.05,12.64,8.16a11.92,11.92,0,0,1,1,7.39,18.86,18.86,0,0,0-1.25-3.21c-2.19-4.33-9.23-8.53-16.54-11.8a10.47,10.47,0,0,1,3,3.61,11.9,11.9,0,0,1,.59,7.44,19.17,19.17,0,0,0-1.08-3.29c-1.53-3.5-6-7.12-11.36-10.32Z" transform="translate(-52.26 -87.5)" fill="#da0a17"/><polygon points="297.58 308.33 310.98 336.43 309.88 336.98 293.36 308.33 297.58 308.33" fill="#ff9e2e"/><polygon points="310.37 336.74 309.88 336.98 293.36 308.33 310.37 336.74" fill="#fff" opacity="0.4"/><polygon points="302.83 322.84 303.97 322.41 297.58 308.33 308.28 330.76 308.28 330.76 308.42 331.05 308.42 331.05 309.52 333.36 309.52 333.36 309.61 333.55 310.98 336.43 310.45 336.69 309.06 333.6 308.82 333.62 309.03 333.54 307.91 331.09 307.32 331.13 307.84 330.93 307 329.07 306.16 329.12 306.89 328.85 306.03 326.94 304.77 327.03 305.88 326.61 305.08 324.85 303.86 324.94 304.94 324.53 304.13 322.75 302.83 322.84" fill="#d04000" opacity="0.4"/><path d="M350.81,398.31c4-1.42,9.15-.08,10.57,3.88.9,2.55.61,7.16-.76,10.51a5.4,5.4,0,0,1-8.4,2.22l-.19-.16a20.38,20.38,0,0,1-5-7.44C345.6,403.35,346.84,399.72,350.81,398.31Z" transform="translate(-52.26 -87.5)" fill="#da0a17"/><path d="M353.86,414.27l.32.27a8.88,8.88,0,0,0,2.5,1.47,5.2,5.2,0,0,1-4.46-1.09l-.19-.16a20.38,20.38,0,0,1-5-7.44,9.08,9.08,0,0,1-.56-3.06A35.27,35.27,0,0,0,353.86,414.27Z" transform="translate(-52.26 -87.5)" fill="#fff" opacity="0.6"/><path d="M350.13,427.37c4.19-6.08,13.38-5.42,22.37-2.13a33.87,33.87,0,0,0-12.49.46,12.61,12.61,0,0,0,1.42,7.66,17.79,17.79,0,0,0,1.78,2.68,15.26,15.26,0,0,1-5.59-5.42,7.57,7.57,0,0,1-.8-2.31,15.08,15.08,0,0,0-1,9,21.07,21.07,0,0,0,1.08,3.69,18.26,18.26,0,0,1-4.46-8.19,9,9,0,0,1,0-3.3,16.58,16.58,0,0,0-2.87,3.19,19.57,19.57,0,0,0-1.82,3.35A16.13,16.13,0,0,1,350.13,427.37Z" transform="translate(-52.26 -87.5)" fill="#ff9e2e"/><path d="M349.41,432.39a6.6,6.6,0,0,1,3-2.89,16.58,16.58,0,0,0-2.87,3.19,19.57,19.57,0,0,0-1.82,3.35C348.25,434.84,348.93,433.27,349.41,432.39Z" transform="translate(-52.26 -87.5)" fill="#d04000" opacity="0.4"/><path d="M356.92,441c-.48-1.24-1.36-2.73-1.64-3.71a10.91,10.91,0,0,1,1.54-9,15.08,15.08,0,0,0-1,9A21.07,21.07,0,0,0,356.92,441Z" transform="translate(-52.26 -87.5)" fill="#d04000" opacity="0.4"/><path d="M361.43,433.36c-1.34-2.54-2.71-5.59-2.38-8.15,3.74-.94,8.94-.54,13.45,0a33.87,33.87,0,0,0-12.49.46A12.61,12.61,0,0,0,361.43,433.36Z" transform="translate(-52.26 -87.5)" fill="#d04000" opacity="0.4"/><path d="M347.74,436a12.34,12.34,0,0,1,2.55-7.49c2.5-3.63,7.66-5.52,13.4-5.56-5.72-.74-10.76.31-13.56,4.38A16.13,16.13,0,0,0,347.74,436Z" transform="translate(-52.26 -87.5)" fill="#fff" opacity="0.4"/><polygon points="350.96 309.1 364.36 337.2 363.26 337.75 346.74 309.1 350.96 309.1" fill="#ff9e2e"/><polygon points="363.74 337.5 363.26 337.75 346.74 309.1 363.74 337.5" fill="#fff" opacity="0.4"/><polygon points="356.21 323.61 357.35 323.18 350.96 309.1 361.66 331.54 361.66 331.54 361.8 331.82 361.8 331.82 362.89 334.13 362.89 334.13 362.99 334.32 364.36 337.2 363.83 337.46 362.43 334.38 362.19 334.39 362.4 334.31 361.29 331.86 360.7 331.9 361.22 331.7 360.37 329.84 359.53 329.89 360.27 329.62 359.41 327.71 358.15 327.8 359.26 327.38 358.46 325.62 357.24 325.7 358.31 325.3 357.5 323.52 356.21 323.61" fill="#d04000" opacity="0.4"/><path d="M426.67,428.14c-4.19-6.08-13.38-5.42-22.36-2.13a33.89,33.89,0,0,1,12.49.46,12.69,12.69,0,0,1-1.43,7.66,17.06,17.06,0,0,1-1.78,2.68,15.26,15.26,0,0,0,5.59-5.42,7.57,7.57,0,0,0,.8-2.31,15.08,15.08,0,0,1,1,9,21.07,21.07,0,0,1-1.08,3.69,18.34,18.34,0,0,0,4.47-8.19,9.4,9.4,0,0,0,0-3.3,16.87,16.87,0,0,1,2.86,3.19,19.57,19.57,0,0,1,1.82,3.35A16.13,16.13,0,0,0,426.67,428.14Z" transform="translate(-52.26 -87.5)" fill="#ff9e2e"/><path d="M427.39,433.16a6.52,6.52,0,0,0-3-2.89,16.87,16.87,0,0,1,2.86,3.19,19.57,19.57,0,0,1,1.82,3.35C428.55,435.61,427.87,434,427.39,433.16Z" transform="translate(-52.26 -87.5)" fill="#d04000" opacity="0.4"/><path d="M419.88,441.76c.48-1.24,1.36-2.73,1.64-3.71a10.91,10.91,0,0,0-1.54-9,15.08,15.08,0,0,1,1,9A21.07,21.07,0,0,1,419.88,441.76Z" transform="translate(-52.26 -87.5)" fill="#d04000" opacity="0.4"/><path d="M415.37,434.13c1.34-2.54,2.71-5.59,2.38-8.15-3.74-.94-8.94-.54-13.44,0a33.89,33.89,0,0,1,12.49.46A12.69,12.69,0,0,1,415.37,434.13Z" transform="translate(-52.26 -87.5)" fill="#d04000" opacity="0.4"/><path d="M426.67,428.14c-2.8-4.07-7.84-5.11-13.55-4.38,5.74,0,10.89,1.93,13.39,5.56a12.3,12.3,0,0,1,2.55,7.49A16.13,16.13,0,0,0,426.67,428.14Z" transform="translate(-52.26 -87.5)" fill="#fff" opacity="0.4"/><path d="M415.15,410.09a7.17,7.17,0,0,1-9.95,5.84l-.29-.14a26.92,26.92,0,0,1-9.08-7.73c-3.22-4.56-2.92-9.65,1.64-12.87s11.68-3.36,14.9,1.2C414.43,399.32,415.71,405.31,415.15,410.09Z" transform="translate(-52.26 -87.5)" fill="#da0a17"/><path d="M409.28,396.94a10.73,10.73,0,0,0-5.58-4c3.36-.31,6.72.72,8.67,3.48,2.06,2.93,3.34,8.92,2.78,13.7a7.31,7.31,0,0,1-2.1,4.35C413.59,408.22,411.93,400.68,409.28,396.94Z" transform="translate(-52.26 -87.5)" opacity="0.1"/><path d="M394.44,398.64a14.67,14.67,0,0,0,2.29,6.47,34.81,34.81,0,0,0,11.15,10.67c.12.07.24.14.37.2a9.88,9.88,0,0,0,1,.45,6.92,6.92,0,0,1-4.05-.5l-.29-.14a26.92,26.92,0,0,1-9.08-7.73C393.61,404.91,393.06,401.51,394.44,398.64Z" transform="translate(-52.26 -87.5)" fill="#fff" opacity="0.6"/><path d="M334.36,305.61a13.16,13.16,0,0,1-3.29-8.15c-.42-8.49,7.52-16.9,17.82-16.88a18.26,18.26,0,0,1,5.48.81c5.46-4.75,11.19-8.3,17-10.12a16.17,16.17,0,0,0-5-2.3,20.68,20.68,0,0,0-3.88-.65,18.68,18.68,0,0,1,9.54-.46l.3.09a32,32,0,0,0-4.71-6.64,35,35,0,0,0-5.13-4.49c5.72,1.27,10.58,3.6,13.95,7.24a18.75,18.75,0,0,1,3.68,5.86h.08a11.69,11.69,0,0,1,10.08-4c4.12.26,8.86,2.11,13.84,5.06a32.9,32.9,0,0,0-5.84-.93,21.69,21.69,0,0,0-9.79,1.49c26.06,9.65,40.68,61.12,40.68,89.59,0,31.51-17.9,54-49.4,54s-64.69-22.46-64.69-54C315.06,345.87,322.8,324.08,334.36,305.61Z" transform="translate(-52.26 -87.5)" fill="#da0a17"/><path d="M392,280.56a34.13,34.13,0,0,0-11.22,1.88,29.57,29.57,0,0,1,13.68-3.31c13.73,0,24.84,9.27,27.83,20.22A33.44,33.44,0,0,0,392,280.56Z" transform="translate(-52.26 -87.5)" fill="#ffe7d4" opacity="0.2"/><path d="M394.43,279.13a30.46,30.46,0,0,1,6.4.68,35.28,35.28,0,0,0-11.89-8.13c1,2,2.14,4.57,3.44,7.52C393.06,279.15,393.74,279.13,394.43,279.13ZM373.71,414.79c2,.18,4,.27,6,.27,31.5,0,49.4-22.46,49.4-54,0-12.7-2.91-30-8.45-46.09a24.37,24.37,0,0,1-11.78,10.77c4.81,18.27,7.12,36.35,2.14,47A55.27,55.27,0,0,0,409.57,353q-.68-2.62-1.59-5.13a61.67,61.67,0,0,1,.56,21.89c-1.73,12-7.79,25.64-14.64,33a92.93,92.93,0,0,0,3.65-9.6C391.9,403.09,383.88,410.54,373.71,414.79Z" transform="translate(-52.26 -87.5)" opacity="0.1"/><path d="M394.43,279.13c16.54,0,29.29,13.48,28.6,27.09s-13.4,22.55-28.6,22.6-27.94-8.9-28.6-22.6S377.89,279.1,394.43,279.13Z" transform="translate(-52.26 -87.5)" fill="#da0a17"/><path d="M392,280.56a34.13,34.13,0,0,0-11.22,1.88,29.57,29.57,0,0,1,13.68-3.31c13.73,0,24.84,9.27,27.83,20.22A33.44,33.44,0,0,0,392,280.56Z" transform="translate(-52.26 -87.5)" fill="#fff" opacity="0.6"/><path d="M331.48,386.24a87.61,87.61,0,0,0,3.38,10.57c-5.31-6.55-10-18.61-11.34-29.23a62.47,62.47,0,0,1,.42-19.37q-.69,2.21-1.23,4.53a56.19,56.19,0,0,0-1.15,17.47,34.77,34.77,0,0,1-2.3-22.54c1.84-8.13,16.89-31.8,20.14-38.26a16.27,16.27,0,0,1-5-3.79c-11.55,18.46-19.3,40.25-19.3,55.47,0,25,20.93,44.34,45.33,51.23C348.36,406.65,337.91,397.61,331.48,386.24Z" transform="translate(-52.26 -87.5)" fill="#fff" opacity="0.6"/><path d="M354.37,281.39a18.5,18.5,0,0,1,2.48,1,88.67,88.67,0,0,1,7.84-8.25A57.77,57.77,0,0,0,354.37,281.39Z" transform="translate(-52.26 -87.5)" fill="#fff" opacity="0.6"/><path d="M347.36,281.47a21.36,21.36,0,0,0-7,1.17,18.36,18.36,0,0,1,8.52-2.06c8.55,0,15.48,5.77,17.34,12.6A20.84,20.84,0,0,0,347.36,281.47Z" transform="translate(-52.26 -87.5)" fill="#fff" opacity="0.6"/><path d="M340.29,283.91c12.29,0,21.77,10,21.26,20.14s-10,16.76-21.26,16.8-20.77-6.62-21.26-16.8S328,283.89,340.29,283.91Z" transform="translate(-52.26 -87.5)" fill="#ffe7d4"/><path d="M337.57,284.08c-9.05,2.69-15.33,10.93-14.92,19.22.49,10.18,10,16.76,21.26,16.79a27,27,0,0,0,3.74-.26,27.09,27.09,0,0,1-7.36,1c-11.29,0-20.77-6.62-21.26-16.8C318.56,294.69,326.63,285.4,337.57,284.08Z" transform="translate(-52.26 -87.5)" fill="#e75400" opacity="0.2"/><path d="M397.18,282.74c16.54,0,29.28,13.48,28.6,27.1s-13.41,22.54-28.6,22.59-27.94-8.9-28.6-22.59S380.64,282.71,397.18,282.74Z" transform="translate(-52.26 -87.5)" fill="#ffe7d4"/><path d="M390.2,330.22c15.19-.05,27.94-9.42,28.6-23.94a27.25,27.25,0,0,0-8.65-20.58c9.73,4.71,16.12,14.39,15.63,24.14-.66,13.69-13.41,22.54-28.6,22.59a35,35,0,0,1-14.41-3A34.81,34.81,0,0,0,390.2,330.22Z" transform="translate(-52.26 -87.5)" fill="#e75400" opacity="0.2"/><path d="M381.14,299.11a7.92,7.92,0,0,0-.05.85,8.53,8.53,0,1,0,8.52-8.52,8.74,8.74,0,0,0-2,.24,15,15,0,1,1-6.48,7.43Z" transform="translate(-52.26 -87.5)" fill="#51364d"/><path d="M404,318.41a2.27,2.27,0,1,1,2.27-2.27A2.27,2.27,0,0,1,404,318.41Z" transform="translate(-52.26 -87.5)" fill="#fff"/><circle cx="354.67" cy="230.91" r="0.71" fill="#fff"/><path d="M348.86,296.54l-.38-.08a3.84,3.84,0,1,0,3.22,4.38,4,4,0,0,0,0-.91,6.69,6.69,0,0,1,.37,3.45,6.77,6.77,0,1,1-5.67-7.71A6.92,6.92,0,0,1,348.86,296.54Z" transform="translate(-52.26 -87.5)" fill="#51364d"/><circle cx="297.95" cy="219.59" r="0.98" fill="#fff"/><path d="M351.5,308.37a.3.3,0,0,1-.31-.3.31.31,0,0,1,.31-.31.3.3,0,0,1,.3.31A.29.29,0,0,1,351.5,308.37Z" transform="translate(-52.26 -87.5)" fill="#fff"/><path d="M376.24,331.19c.06,0,5.57,7.72-2.78,6.79-3.59-.4-20-9.29-20-9.29S367.62,327.84,376.24,331.19Z" transform="translate(-52.26 -87.5)" fill="#ff9e2e"/><path d="M358.48,331.35c-2.92-1.5-5.07-2.66-5.07-2.66s14.21-.85,22.83,2.5C372.22,330.25,365.61,330.57,358.48,331.35Z" transform="translate(-52.26 -87.5)" opacity="0.1"/><path d="M373,336.84c4.7.52,5-1.68,4.37-3.72,1.05,2.22,1.69,5.49-3.92,4.86-1.91-.22-7.46-2.83-12.24-5.23C366.5,334.82,371.5,336.67,373,336.84Z" transform="translate(-52.26 -87.5)" opacity="0.1"/><path d="M342.49,315.56c4.17-3.38,10.38,10.24,17.78,6.67s15.93,9,16,9c-10.08-2.35-29.88,0-40,1C336.21,332.14,339.23,318.1,342.49,315.56Z" transform="translate(-52.26 -87.5)" fill="#ff9e2e"/><path d="M342.49,315.56c4.17-3.38,10.38,10.24,17.78,6.67,3.81-1.84,7.92.59,11,3.38-3.39-2.22-7.66-3.9-11-2.29-7.41,3.57-13.16-6.31-17.33-2.94-3.26,2.54-6.77,11.76-6.71,11.81S339.23,318.1,342.49,315.56Z" transform="translate(-52.26 -87.5)" fill="#fff" opacity="0.4"/><path d="M338.7,323c1.1-3.18,2.51-6.14,4.06-6.93,4.73-2.41,10,10.17,17.38,6.6,3.27-1.58,7-.07,10.2,2.1-2.95-2.42-6.63-4.23-10.07-2.57-7.4,3.57-13.61-10.05-17.78-6.67C341.11,316.63,339.78,319.77,338.7,323Z" transform="translate(-52.26 -87.5)" fill="#fff" opacity="0.2"/><path d="M365.23,324.12s.75.84-.24.83a17.22,17.22,0,0,1-2.47-.85A8,8,0,0,1,365.23,324.12Z" transform="translate(-52.26 -87.5)" opacity="0.2"/><path d="M130.5,416.58c-33.41,0-78.24,7.55-78.24,10.27s44.83,4.92,78.24,4.92,71.06-2.2,71.06-4.92S163.91,416.58,130.5,416.58Z" transform="translate(-52.26 -87.5)" opacity="0.1"/><path d="M100.3,391.16a11,11,0,0,1-3.76-.42A5.85,5.85,0,0,1,94.05,386a8.22,8.22,0,0,1,.07-1.3,7.34,7.34,0,0,0-.69,3,3.48,3.48,0,0,0,.54,1.85,10.73,10.73,0,0,1-.91-.64A13.1,13.1,0,0,1,91.12,387a12.82,12.82,0,0,0,3.1,5.31,9.42,9.42,0,0,1-4.88-3.39,15.91,15.91,0,0,1-1.45-2.71,14,14,0,0,0,2,7.07,4.31,4.31,0,0,0,.51.62c-3.2-.42-5.92-1.46-7.7-3.37a20.8,20.8,0,0,1-2.43-3.21,18.16,18.16,0,0,0,4,8.78c1.35,1.45,3.46,2.12,6,2.23-5.7,2.12-10.67,4.86-12.19,7.87a11.53,11.53,0,0,0-1,7.13,17.3,17.3,0,0,1,1.21-3.1c2.1-4.18,8.89-8.23,16-11.38a9.9,9.9,0,0,0-2.89,3.48,11.49,11.49,0,0,0-.56,7.17,17.4,17.4,0,0,1,1-3.16c1.48-3.38,5.83-6.87,11-10Z" transform="translate(-52.26 -87.5)" fill="#ffc82e"/><polygon points="111.71 307.69 98.79 334.79 99.85 335.32 115.78 307.69 111.71 307.69" fill="#ff9e2e"/><polygon points="99.39 335.09 99.85 335.32 115.78 307.69 99.39 335.09" fill="#fff" opacity="0.4"/><polygon points="106.65 321.69 105.55 321.27 111.71 307.69 101.39 329.33 101.39 329.33 101.26 329.61 101.26 329.61 100.2 331.83 100.2 331.83 100.11 332.01 98.79 334.79 99.3 335.04 100.65 332.07 100.88 332.08 100.68 332.01 101.75 329.64 102.32 329.68 101.82 329.49 102.64 327.69 103.44 327.75 102.73 327.48 103.56 325.64 104.78 325.73 103.71 325.32 104.48 323.63 105.66 323.71 104.62 323.31 105.4 321.6 106.65 321.69" fill="#d04000" opacity="0.4"/><path d="M163,397.58c-3.83-1.36-8.83-.07-10.19,3.75-.88,2.45-.6,6.9.72,10.13a5.21,5.21,0,0,0,8.11,2.15l.18-.16a19.66,19.66,0,0,0,4.84-7.18C168.06,402.45,166.86,398.94,163,397.58Z" transform="translate(-52.26 -87.5)" fill="#ffc82e"/><path d="M160.09,413l-.3.27a8.5,8.5,0,0,1-2.42,1.41,5,5,0,0,0,4.31-1l.18-.16a19.66,19.66,0,0,0,4.84-7.18,8.88,8.88,0,0,0,.54-2.95A33.67,33.67,0,0,1,160.09,413Z" transform="translate(-52.26 -87.5)" fill="#fff" opacity="0.6"/><path d="M163.69,425.61c-4-5.87-12.91-5.23-21.57-2.06a32.62,32.62,0,0,1,12,.45,12.18,12.18,0,0,1-1.38,7.39,16.31,16.31,0,0,1-1.72,2.58,14.77,14.77,0,0,0,5.4-5.23,7.49,7.49,0,0,0,.77-2.23,14.52,14.52,0,0,1,.94,8.67,19.7,19.7,0,0,1-1,3.57,17.69,17.69,0,0,0,4.31-7.9,8.74,8.74,0,0,0,0-3.18,16.29,16.29,0,0,1,2.76,3.07A18.88,18.88,0,0,1,166,434,15.65,15.65,0,0,0,163.69,425.61Z" transform="translate(-52.26 -87.5)" fill="#ff9e2e"/><path d="M164.38,430.45a6.19,6.19,0,0,0-2.9-2.78,16.29,16.29,0,0,1,2.76,3.07A18.88,18.88,0,0,1,166,434C165.5,432.81,164.85,431.3,164.38,430.45Z" transform="translate(-52.26 -87.5)" fill="#d04000" opacity="0.4"/><path d="M157.14,438.75c.47-1.2,1.32-2.64,1.58-3.58a10.54,10.54,0,0,0-1.48-8.66,14.52,14.52,0,0,1,.94,8.67A19.7,19.7,0,0,1,157.14,438.75Z" transform="translate(-52.26 -87.5)" fill="#d04000" opacity="0.4"/><path d="M152.79,431.39c1.3-2.45,2.61-5.4,2.3-7.86-3.61-.91-8.63-.53-13,0a32.62,32.62,0,0,1,12,.45A12.18,12.18,0,0,1,152.79,431.39Z" transform="translate(-52.26 -87.5)" fill="#d04000" opacity="0.4"/><path d="M163.69,425.61c-2.7-3.92-7.56-4.93-13.07-4.23,5.53.05,10.5,1.86,12.91,5.37A11.84,11.84,0,0,1,166,434,15.65,15.65,0,0,0,163.69,425.61Z" transform="translate(-52.26 -87.5)" fill="#fff" opacity="0.4"/><polygon points="60.24 308.44 47.31 335.53 48.38 336.06 64.31 308.44 60.24 308.44" fill="#ff9e2e"/><polygon points="47.91 335.83 48.38 336.06 64.31 308.44 47.91 335.83" fill="#fff" opacity="0.4"/><polygon points="55.17 322.43 54.08 322.01 60.24 308.44 49.92 330.07 49.92 330.07 49.79 330.35 49.79 330.35 48.73 332.57 48.73 332.57 48.64 332.75 47.31 335.53 47.83 335.79 49.17 332.81 49.4 332.83 49.2 332.75 50.28 330.38 50.84 330.42 50.34 330.23 51.16 328.44 51.97 328.49 51.26 328.22 52.09 326.39 53.3 326.47 52.24 326.07 53.01 324.37 54.19 324.45 53.15 324.06 53.92 322.35 55.17 322.43" fill="#d04000" opacity="0.4"/><path d="M89.88,426.35c4-5.86,12.9-5.22,21.56-2.05a32.78,32.78,0,0,0-12,.44,12.11,12.11,0,0,0,1.38,7.39,16.23,16.23,0,0,0,1.71,2.58,14.64,14.64,0,0,1-5.39-5.22,7.05,7.05,0,0,1-.77-2.23,14.5,14.5,0,0,0-1,8.67,20.75,20.75,0,0,0,1.05,3.56,17.59,17.59,0,0,1-4.31-7.9,8.74,8.74,0,0,1,0-3.18,15.73,15.73,0,0,0-2.76,3.08,18.12,18.12,0,0,0-1.76,3.22A15.59,15.59,0,0,1,89.88,426.35Z" transform="translate(-52.26 -87.5)" fill="#ff9e2e"/><path d="M89.18,431.2a6.24,6.24,0,0,1,2.91-2.79,15.73,15.73,0,0,0-2.76,3.08,18.12,18.12,0,0,0-1.76,3.22C88.06,433.55,88.72,432,89.18,431.2Z" transform="translate(-52.26 -87.5)" fill="#d04000" opacity="0.4"/><path d="M96.43,439.49c-.47-1.2-1.32-2.64-1.58-3.58a10.48,10.48,0,0,1,1.48-8.65,14.5,14.5,0,0,0-1,8.67A20.75,20.75,0,0,0,96.43,439.49Z" transform="translate(-52.26 -87.5)" fill="#d04000" opacity="0.4"/><path d="M100.78,432.13c-1.3-2.45-2.62-5.4-2.3-7.86,3.6-.91,8.62-.52,13,0a32.78,32.78,0,0,0-12,.44A12.11,12.11,0,0,0,100.78,432.13Z" transform="translate(-52.26 -87.5)" fill="#d04000" opacity="0.4"/><path d="M87.57,434.71A11.84,11.84,0,0,1,90,427.49c2.41-3.5,7.38-5.32,12.92-5.36-5.51-.71-10.37.3-13.07,4.22A15.59,15.59,0,0,0,87.57,434.71Z" transform="translate(-52.26 -87.5)" fill="#fff" opacity="0.4"/><path d="M101,409a6.92,6.92,0,0,0,9.6,5.63l.28-.14a25.9,25.9,0,0,0,8.75-7.45c3.11-4.4,2.83-9.31-1.58-12.42s-11.25-3.24-14.36,1.16C101.68,398.56,100.45,404.34,101,409Z" transform="translate(-52.26 -87.5)" fill="#ffc82e"/><path d="M106.64,396.26a10.38,10.38,0,0,1,5.39-3.88c-3.24-.31-6.48.7-8.36,3.35-2,2.83-3.22,8.61-2.69,13.22a7,7,0,0,0,2,4.19C102.49,407.14,104.09,399.87,106.64,396.26Z" transform="translate(-52.26 -87.5)" opacity="0.1"/><path d="M121,397.91a14.1,14.1,0,0,1-2.21,6.23A33.59,33.59,0,0,1,108,414.43l-.35.2c-.32.16-.65.3-1,.43a6.74,6.74,0,0,0,3.9-.48l.28-.14a25.9,25.9,0,0,0,8.75-7.45C121.76,404,122.29,400.67,121,397.91Z" transform="translate(-52.26 -87.5)" fill="#fff" opacity="0.6"/><path d="M178.9,308.19a12.77,12.77,0,0,0,3.17-7.87c.41-8.18-7.25-16.29-17.18-16.28a18,18,0,0,0-5.29.79c-5.27-4.58-10.79-8-16.35-9.76a15.51,15.51,0,0,1,4.79-2.22,20.39,20.39,0,0,1,3.75-.63,18,18,0,0,0-9.2-.44c-.1,0-.19.06-.29.09a30.09,30.09,0,0,1,4.55-6.4,32.6,32.6,0,0,1,4.94-4.34c-5.52,1.23-10.2,3.48-13.45,7a18.06,18.06,0,0,0-3.55,5.66h-.08a11.26,11.26,0,0,0-9.72-3.9c-4,.25-8.55,2-13.35,4.88a32.39,32.39,0,0,1,5.63-.9,20.93,20.93,0,0,1,9.45,1.44c-25.14,9.31-39.24,58.95-39.24,86.4,0,30.39,17.27,52.05,47.65,52.05s62.38-21.66,62.38-52.05C197.51,347,190,326,178.9,308.19Z" transform="translate(-52.26 -87.5)" fill="#ffc82e"/><path d="M123.34,284a32.84,32.84,0,0,1,10.82,1.81A28.43,28.43,0,0,0,121,282.65c-13.24,0-24,8.94-26.84,19.5A32.24,32.24,0,0,1,123.34,284Z" transform="translate(-52.26 -87.5)" fill="#ffe7d4" opacity="0.2"/><path d="M123,282.71c1.24-2.84,2.37-5.29,3.31-7.24a33.82,33.82,0,0,0-11.47,7.84,28.48,28.48,0,0,1,6.18-.66Q122,282.65,123,282.71Zm-5,110a89.33,89.33,0,0,0,3.52,9.25c-6.61-7.13-12.45-20.28-14.12-31.86A59.66,59.66,0,0,1,107.9,349c-.58,1.61-1.1,3.26-1.53,4.95a53.36,53.36,0,0,0-1.44,19c-4.8-10.27-2.58-27.71,2.07-45.32a23.6,23.6,0,0,1-11.37-10.38c-5.34,15.52-8.15,32.19-8.15,44.44,0,30.39,17.27,52.05,47.65,52.05q2.91,0,5.82-.27A47.49,47.49,0,0,1,118,392.69Z" transform="translate(-52.26 -87.5)" fill="#fff" opacity="0.6"/><path d="M121,282.65c-16,0-28.24,13-27.59,26.13s12.93,21.74,27.59,21.79,26.94-8.58,27.58-21.79S136.92,282.62,121,282.65Z" transform="translate(-52.26 -87.5)" fill="#ffc82e"/><path d="M123.34,284a32.84,32.84,0,0,1,10.82,1.81A28.43,28.43,0,0,0,121,282.65c-13.24,0-24,8.94-26.84,19.5A32.24,32.24,0,0,1,123.34,284Z" transform="translate(-52.26 -87.5)" fill="#fff" opacity="0.6"/><g opacity="0.1"><path d="M181.68,386a86,86,0,0,1-3.26,10.19c5.12-6.32,9.64-17.95,10.94-28.2a60.15,60.15,0,0,0-.42-18.67c.45,1.42.85,2.88,1.19,4.37a53.69,53.69,0,0,1,1.11,16.84,33.53,33.53,0,0,0,2.22-21.73c-1.77-7.84-16.29-30.67-19.42-36.9a15.53,15.53,0,0,0,4.86-3.66C190,326,197.51,347,197.51,361.69c0,24.13-20.18,42.76-43.71,49.41C165.4,405.62,175.48,396.91,181.68,386Z" transform="translate(-52.26 -87.5)" opacity="0.6"/><path d="M159.6,284.83a18.51,18.51,0,0,0-2.39.93,86.08,86.08,0,0,0-7.56-7.95A55.18,55.18,0,0,1,159.6,284.83Z" transform="translate(-52.26 -87.5)" opacity="0.6"/></g><path d="M166.37,284.91a20.45,20.45,0,0,1,6.74,1.12,17.92,17.92,0,0,0-8.22-2c-8.25,0-14.93,5.58-16.73,12.15A20.1,20.1,0,0,1,166.37,284.91Z" transform="translate(-52.26 -87.5)" fill="#fff" opacity="0.6"/><path d="M173.18,287.26c-11.86,0-21,9.66-20.5,19.42s9.61,16.17,20.5,16.2,20-6.38,20.51-16.2S185,287.24,173.18,287.26Z" transform="translate(-52.26 -87.5)" fill="#ffe7d4"/><path d="M175.81,287.42C184.53,290,190.59,298,190.19,306c-.47,9.82-9.61,16.16-20.5,16.19a26.8,26.8,0,0,1-3.61-.25,26.47,26.47,0,0,0,7.1,1c10.89,0,20-6.38,20.51-16.2C194.14,297.66,186.36,288.7,175.81,287.42Z" transform="translate(-52.26 -87.5)" fill="#e75400" opacity="0.2"/><path d="M118.31,286.13c-16,0-28.23,13-27.58,26.13s12.93,21.75,27.58,21.79,26.95-8.58,27.59-21.79S134.27,286.11,118.31,286.13Z" transform="translate(-52.26 -87.5)" fill="#ffe7d4"/><path d="M125.05,331.92c-14.65,0-26.95-9.09-27.58-23.09A26.27,26.27,0,0,1,105.81,289c-9.39,4.54-15.55,13.89-15.08,23.28.64,13.21,12.93,21.75,27.58,21.79a33.74,33.74,0,0,0,13.9-2.9A33.57,33.57,0,0,1,125.05,331.92Z" transform="translate(-52.26 -87.5)" fill="#e75400" opacity="0.2"/><path d="M133.79,301.92c0,.27,0,.54,0,.82a8.22,8.22,0,1,1-8.22-8.22,8,8,0,0,1,1.92.24,14.46,14.46,0,1,0,6.26,7.16Z" transform="translate(-52.26 -87.5)" fill="#51364d"/><path d="M111.79,320.53a2.19,2.19,0,1,0-2.19-2.19A2.19,2.19,0,0,0,111.79,320.53Z" transform="translate(-52.26 -87.5)" fill="#fff"/><circle cx="56.66" cy="233.03" r="0.68" fill="#fff"/><path d="M164.92,299.44l.36-.08a3.71,3.71,0,1,1-3.1,4.22,3.62,3.62,0,0,1,0-.87,6.43,6.43,0,0,0-.36,3.33,6.52,6.52,0,1,0,5.47-7.44A6.43,6.43,0,0,0,164.92,299.44Z" transform="translate(-52.26 -87.5)" fill="#51364d"/><path d="M163.62,310.56a.95.95,0,1,0-1-.95A.95.95,0,0,0,163.62,310.56Z" transform="translate(-52.26 -87.5)" fill="#fff"/><path d="M162.37,310.85a.3.3,0,1,0-.29-.29A.29.29,0,0,0,162.37,310.85Z" transform="translate(-52.26 -87.5)" fill="#fff"/><path d="M138.51,332.85c-.06,0-5.38,7.45,2.68,6.55,3.47-.39,19.34-9,19.34-9S146.82,329.63,138.51,332.85Z" transform="translate(-52.26 -87.5)" fill="#ff9e2e"/><path d="M155.64,333c2.81-1.45,4.89-2.57,4.89-2.57s-13.71-.81-22,2.41C142.39,332,148.76,332.25,155.64,333Z" transform="translate(-52.26 -87.5)" opacity="0.1"/><path d="M141.63,338.3c-4.54.51-4.84-1.62-4.22-3.58-1,2.14-1.63,5.29,3.78,4.68,1.85-.2,7.2-2.73,11.81-5C147.91,336.36,143.09,338.14,141.63,338.3Z" transform="translate(-52.26 -87.5)" opacity="0.1"/><path d="M171.06,317.78c-4-3.26-10,9.87-17.15,6.43s-15.36,8.66-15.4,8.64c9.73-2.26,28.81,0,38.54,1C177.11,333.77,174.2,320.23,171.06,317.78Z" transform="translate(-52.26 -87.5)" fill="#ff9e2e"/><path d="M171.06,317.78c-4-3.26-10,9.87-17.15,6.43-3.68-1.77-7.64.57-10.62,3.26,3.26-2.14,7.38-3.75,10.58-2.21,7.15,3.44,12.69-6.08,16.71-2.83,3.15,2.45,6.53,11.34,6.47,11.38S174.2,320.23,171.06,317.78Z" transform="translate(-52.26 -87.5)" fill="#fff" opacity="0.4"/><path d="M171.06,317.78c-4-3.26-10,9.87-17.15,6.43-3.31-1.6-6.86.15-9.71,2.48,3.06-2.09,6.68-3.54,9.83-2,7.14,3.44,12.21-8.69,16.77-6.37,1.5.76,2.85,3.62,3.91,6.68C173.67,321.84,172.39,318.82,171.06,317.78Z" transform="translate(-52.26 -87.5)" fill="#fff" opacity="0.2"/><path d="M149.13,326s-.73.81.23.8a15.76,15.76,0,0,0,2.38-.81A7.87,7.87,0,0,0,149.13,326Z" transform="translate(-52.26 -87.5)" opacity="0.2"/><path d="M141.35,371.6l-5.18,5.89L131,371.6l5.22-5.88ZM154,357.37l8.92,10.06,5.22-5.88-8.93-10L154,345.65l-5.22,5.88-8.89,10,5.22,5.88Zm17.81,8.35-5.18,5.88,5.21,5.89L177,371.6ZM154,385.84l-8.93-10.06-5.18,5.88,8.93,10.06,5.18,5.84,5.21-5.88,8.93-10.06-5.22-5.84Zm0-8.35,5.21-5.89L154,365.72l-5.22,5.88Z" transform="translate(-52.26 -87.5)" fill="#fffdfa"/><path d="M378.06,354.64l-33.91-7L362,397.87,386.86,364Zm-.55,3.07,5.19,5.52-14.19,2.87Zm-12.08,7.81-14.95-13.87,24.44,5ZM364.37,368l-2.44,22.54-13.14-37Zm2.26,1.19,15.7-3.18-18,24.56Z" transform="translate(-52.26 -87.5)" fill="#fff"/></svg>