<svg xmlns="http://www.w3.org/2000/svg" xmlns:xlink="http://www.w3.org/1999/xlink" viewBox="0 0 582.01 541.33"><defs><clipPath id="a" transform="translate(-8.99 -29.34)"><rect width="600" height="600" fill="none"/></clipPath></defs><g clip-path="url(#a)"><path d="M421.78,546.28c91.16-2,169.46-56.49,169.23-67.19s-284.48-21.23-375.64-19.2-198.13,19-197.89,29.68S330.62,548.31,421.78,546.28Z" transform="translate(-8.99 -29.34)" opacity="0.1"/><ellipse cx="459.39" cy="451.48" rx="45.63" ry="15.49" fill="#e37e70"/><path d="M579.84,487c-3-2.94-10.25-4.18-12.44.63-4,8.74-9.78,19.08-14.16,19.75-2.92.5-5.92-.64-9-2.84a35,35,0,0,1-10.74,11.38c5.46,4.4,11.26,6.71,18.06,5.28a27.16,27.16,0,0,0,6.48-2.21c7.05-3.41,14.2-10.08,21.35-19.16C581.91,496.65,582.2,489.29,579.84,487Z" transform="translate(-8.99 -29.34)" fill="#f08b7d"/><path d="M577.51,485.44c-3.47-1.63-8.38-1.63-10.11,2.19-1.09,2.41-2.33,4.93-3.63,7.35-.3.56-.61,1.11-.92,1.66a43.92,43.92,0,0,1-5.66,8.14c-.18.19-.36.38-.55.55a1.62,1.62,0,0,1-.19.18l-.44.4a8.66,8.66,0,0,1-1.34.94,11.87,11.87,0,0,0,3,.94,37,37,0,0,1,4.05,5,17.9,17.9,0,0,0-2.09-4.86,8.49,8.49,0,0,0,1.13-.12c2.37-.39,5.2-3.48,8-7.62,1.33.89,2.58,1.79,3.73,2.72a21.9,21.9,0,0,0-3.1-3.67,110,110,0,0,0,6.34-11.61A5.45,5.45,0,0,1,577.51,485.44Z" transform="translate(-8.99 -29.34)" fill="#fff" opacity="0.4"/><path d="M526.23,479.66a50.79,50.79,0,0,0-13.44-8.13,96,96,0,0,0-16.57-5.29,133,133,0,0,0-18.28-2.79c-3.92-.32-7.89-.49-11.85-.49-2.54,0-5.09.07-7.62.21a127,127,0,0,0-18.92,2.38,89.46,89.46,0,0,0-16.47,4.95,47.48,47.48,0,0,0-12.85,7.61c-3.57,3.12-5.77,6.48-6.52,10a19.58,19.58,0,0,1,6-7.77A47.91,47.91,0,0,1,422.58,473a93.24,93.24,0,0,1,16.52-4.77,132.26,132.26,0,0,1,19-2.3q3.82-.19,7.65-.19,6,0,11.89.47A137.14,137.14,0,0,1,496,468.89,98.63,98.63,0,0,1,512.58,474a51.8,51.8,0,0,1,13.49,7.84c3.79,3.19,6.12,6.57,6.93,10a12.16,12.16,0,0,1,.32,2.92,12.63,12.63,0,0,0-.18-4.7C532.34,486.48,530,483,526.23,479.66Z" transform="translate(-8.99 -29.34)" opacity="0.1"/><path d="M547.34,488.52c-1.8-4.72-5.41-9.22-10.73-13.37a71.11,71.11,0,0,0-17.08-9.53,118.91,118.91,0,0,0-19.48-5.91,157.56,157.56,0,0,0-20.74-3.06,170,170,0,0,0-21.89-.33,152.77,152.77,0,0,0-21.54,2.56,113.85,113.85,0,0,0-19.48,5.52,67.09,67.09,0,0,0-16.52,8.93c-5.29,4.06-8.83,8.55-10.51,13.35-2,5.65-1.3,11.32,2,16.86,3.59,6,10.29,11.58,19.35,16.18,10,5.07,22.58,8.82,36.42,10.85a165.74,165.74,0,0,0,24,1.73,163,163,0,0,0,21.4-1.39c14.14-1.87,26.71-5.56,36.35-10.65,8.39-4.44,14.42-9.89,17.46-15.78A19.1,19.1,0,0,0,547.34,488.52ZM476,471.32a110.29,110.29,0,0,1,14.29,2,80.43,80.43,0,0,1,12.95,3.79,40.6,40.6,0,0,1,10.51,5.82c3,2.37,4.77,4.88,5.4,7.46a9.26,9.26,0,0,1-2.08,8.15c-2.34,3-6.4,5.73-11.74,7.94A82.4,82.4,0,0,1,483,511.72a121.77,121.77,0,0,1-27.12-.21,89.8,89.8,0,0,1-22.31-5.44c-5.73-2.32-10.18-5.16-12.84-8.22-2.44-2.81-3.38-5.71-2.78-8.63.54-2.61,2.27-5.1,5.16-7.41a38.11,38.11,0,0,1,10-5.45A75.75,75.75,0,0,1,446,472.81a109.66,109.66,0,0,1,14.79-1.7c2-.1,4-.14,6-.14C469.87,471,473,471.08,476,471.32Z" transform="translate(-8.99 -29.34)" fill="#f08b7d"/><path d="M542.81,482.74a27.57,27.57,0,0,1,5.19,7.84,19.7,19.7,0,0,0-.66-2.06c-1.8-4.72-5.41-9.22-10.73-13.37a71.11,71.11,0,0,0-17.08-9.53,118.91,118.91,0,0,0-19.48-5.91,157.56,157.56,0,0,0-20.74-3.06,170,170,0,0,0-21.89-.33,152.77,152.77,0,0,0-21.54,2.56,113.85,113.85,0,0,0-19.48,5.52,67.09,67.09,0,0,0-16.52,8.93c-5.29,4.06-8.83,8.55-10.51,13.35a18.6,18.6,0,0,0,.49,13.85,18.36,18.36,0,0,1,.47-11.06,23.09,23.09,0,0,1,2.23-4.59,20.27,20.27,0,0,1,4.78.75,28.31,28.31,0,0,0-4-1.86,33.53,33.53,0,0,1,5.86-6.29,19.76,19.76,0,0,1,4.43,1.56,29.38,29.38,0,0,0-3.4-2.41l.65-.51a54.92,54.92,0,0,1,5.27-3.54,17.49,17.49,0,0,1,1.81,2c-.36-.78-.77-1.56-1.22-2.34a76.56,76.56,0,0,1,10.66-5.05,114.76,114.76,0,0,1,19.48-5.52,152.77,152.77,0,0,1,21.54-2.56,170,170,0,0,1,21.89.33A157.56,157.56,0,0,1,501,462.5a118.91,118.91,0,0,1,19.48,5.91,76.42,76.42,0,0,1,13.59,7,30.67,30.67,0,0,0-2.57,2.14,19.27,19.27,0,0,1,3.43-1.55c.91.62,1.8,1.26,2.63,1.91a44.09,44.09,0,0,1,4.31,3.81,28.68,28.68,0,0,0-3.73,2A19.4,19.4,0,0,1,542.81,482.74Z" transform="translate(-8.99 -29.34)" fill="#fff" opacity="0.4"/><path d="M538.65,512a23.65,23.65,0,0,0-2.9-2.24,13.08,13.08,0,0,1,1.85,2.94q-2.36,1.54-5,3a83.51,83.51,0,0,1-9.51,4.24,25.27,25.27,0,0,0-2.37-1.78,12.82,12.82,0,0,1,1.44,2.13A115.66,115.66,0,0,1,509.58,524c-.42-.87-.87-1.71-1.36-2.52a16.2,16.2,0,0,1,.45,2.73c-4.4,1-9,1.87-13.83,2.5l-1.44.18c-.22-1.09-.49-2.16-.8-3.22a17.68,17.68,0,0,1-.09,3.33,169.25,169.25,0,0,1-19.57,1.15l-.53-3.61-.53,3.61a171,171,0,0,1-22.34-1.55,16.26,16.26,0,0,1,.44-5.26,28.92,28.92,0,0,0-2.37,5,147.62,147.62,0,0,1-18.68-4,16,16,0,0,1,1-3.3,29.2,29.2,0,0,0-2.15,3,114.37,114.37,0,0,1-12.23-4.35,16.3,16.3,0,0,1,2-4.09A28.93,28.93,0,0,0,414,517c-1.37-.62-2.71-1.25-4-1.9a68.25,68.25,0,0,1-8.61-5.14,16.43,16.43,0,0,1,3.05-3.58,29,29,0,0,0-4.49,2.54,38.46,38.46,0,0,1-10-10.61,24.68,24.68,0,0,1-1.49-2.88,21.09,21.09,0,0,0,3,8.15c3.59,6,10.29,11.58,19.35,16.18,10,5.07,22.58,8.82,36.42,10.85a165.74,165.74,0,0,0,24,1.73,163,163,0,0,0,21.4-1.39c14.14-1.87,26.71-5.56,36.35-10.65,7.28-3.85,12.78-8.47,16.1-13.47A47.19,47.19,0,0,1,538.65,512Z" transform="translate(-8.99 -29.34)" opacity="0.1"/><path d="M530.31,477.08a27.31,27.31,0,0,0-8.2-11.53,53.09,53.09,0,0,0-13.05-8.22,84.34,84.34,0,0,0-14.88-5.09,106.11,106.11,0,0,0-15.85-2.63,113.75,113.75,0,0,0-16.72-.29,103.56,103.56,0,0,0-16.45,2.21,79.71,79.71,0,0,0-14.89,4.75,50,50,0,0,0-12.62,7.7,25.31,25.31,0,0,0-8,11.51A18.34,18.34,0,0,0,411.17,490c2.74,5.16,7.86,10,14.78,14,7.64,4.37,17.26,7.61,27.83,9.36a112.62,112.62,0,0,0,18.31,1.49,110.68,110.68,0,0,0,16.34-1.2c10.8-1.61,20.41-4.79,27.78-9.18,6.4-3.82,11-8.53,13.34-13.6A18.4,18.4,0,0,0,530.31,477.08Zm-54.48-14.83A75.66,75.66,0,0,1,486.75,464a55.15,55.15,0,0,1,9.89,3.26,30.29,30.29,0,0,1,8,5,12.49,12.49,0,0,1,4.13,6.43,8.75,8.75,0,0,1-1.6,7c-1.78,2.57-4.88,4.94-9,6.85a57.23,57.23,0,0,1-17.1,4.52,82,82,0,0,1-20.71-.19,62,62,0,0,1-17.05-4.68c-4.38-2-7.77-4.45-9.81-7.09a9.2,9.2,0,0,1-2.12-7.44,11.46,11.46,0,0,1,3.94-6.38,27.81,27.81,0,0,1,7.68-4.7,52.32,52.32,0,0,1,9.83-3.06,74,74,0,0,1,11.3-1.47c1.51-.08,3-.13,4.55-.13C471.12,461.94,473.49,462.05,475.83,462.25Z" transform="translate(-8.99 -29.34)" fill="#f08b7d"/><path d="M524.41,469.42a26.23,26.23,0,0,1,6.4,9.43,16.75,16.75,0,0,0-.5-1.77,27.31,27.31,0,0,0-8.2-11.53,53.09,53.09,0,0,0-13.05-8.22,84.34,84.34,0,0,0-14.88-5.09,106.11,106.11,0,0,0-15.85-2.63,113.75,113.75,0,0,0-16.72-.29,103.56,103.56,0,0,0-16.45,2.21,79.71,79.71,0,0,0-14.89,4.75,50,50,0,0,0-12.62,7.7,25.31,25.31,0,0,0-8,11.51,18,18,0,0,0,.37,11.94,17.87,17.87,0,0,1,.36-9.53,22.42,22.42,0,0,1,4-7.41,19.25,19.25,0,0,1,4.44,1,29.64,29.64,0,0,0-3.62-2,33.56,33.56,0,0,1,3.17-3.13,41,41,0,0,1,3.51-2.69,19.89,19.89,0,0,1,3.58,1.6,26.94,26.94,0,0,0-2.68-2.21,55.15,55.15,0,0,1,8.21-4.4,80.7,80.7,0,0,1,14.89-4.76,104.89,104.89,0,0,1,16.45-2.21,115.31,115.31,0,0,1,16.73.29,107.5,107.5,0,0,1,15.84,2.63,84.07,84.07,0,0,1,14.88,5.1A53.06,53.06,0,0,1,522.85,468l.52.49a28.64,28.64,0,0,0-3.57,1.46A19.29,19.29,0,0,1,524.41,469.42Z" transform="translate(-8.99 -29.34)" fill="#fff" opacity="0.4"/><path d="M523.62,497.31a23,23,0,0,0-3.36-2.67,13.43,13.43,0,0,1,2.13,3.59c-1.07.76-2.18,1.5-3.37,2.21a64.88,64.88,0,0,1-10.66,5,28.65,28.65,0,0,0-1.82-3.53,16.23,16.23,0,0,1,.51,4,91.68,91.68,0,0,1-13.12,3.43,39,39,0,0,0-1.05-4.55,18,18,0,0,1-.33,4.8l-2.35.38a114.14,114.14,0,0,1-14.4,1.21l-.6-4.12-.61,4.14h-1.35a116.5,116.5,0,0,1-19-1.54l-1.9-.34a16.68,16.68,0,0,1,.42-5.47,28.64,28.64,0,0,0-2.41,5.09,95.25,95.25,0,0,1-15.43-4.48,16.28,16.28,0,0,1,2.44-4,29.35,29.35,0,0,0-4.16,3.35,69.44,69.44,0,0,1-7.83-3.82c-1.18-.68-2.3-1.38-3.38-2.1a16.56,16.56,0,0,1,2.53-4.27,30,30,0,0,0-4,3.23A34.46,34.46,0,0,1,410,485.48,22,22,0,0,1,408.9,483a19.76,19.76,0,0,0,2.27,7c2.74,5.16,7.86,10,14.78,14,7.64,4.37,17.26,7.61,27.83,9.36a112.62,112.62,0,0,0,18.31,1.49,110.68,110.68,0,0,0,16.34-1.2c10.8-1.61,20.41-4.79,27.78-9.18,5.56-3.32,9.76-7.3,12.3-11.61A37.29,37.29,0,0,1,523.62,497.31Z" transform="translate(-8.99 -29.34)" opacity="0.1"/><path d="M517.51,470a22.06,22.06,0,0,0-6.2-9.29,39.66,39.66,0,0,0-9.87-6.62A61.09,61.09,0,0,0,490.19,450a76.29,76.29,0,0,0-12-2.12,82.18,82.18,0,0,0-12.65-.23,74.7,74.7,0,0,0-12.44,1.78,57.5,57.5,0,0,0-11.26,3.83,37.28,37.28,0,0,0-9.54,6.21,20.52,20.52,0,0,0-6.08,9.27,15.7,15.7,0,0,0,1.18,11.71c2.07,4.16,5.94,8,11.18,11.24a61.19,61.19,0,0,0,21,7.54,80.24,80.24,0,0,0,26.2.24c8.17-1.3,15.43-3.86,21-7.41,4.84-3.07,8.33-6.86,10.08-10.95A15.73,15.73,0,0,0,517.51,470ZM476.4,459.42a47.62,47.62,0,0,1,7.15,1.2,34.5,34.5,0,0,1,6.49,2.29,19.64,19.64,0,0,1,5.27,3.5,8.75,8.75,0,0,1,2.7,4.49,6.44,6.44,0,0,1-1,4.91,14.77,14.77,0,0,1-5.88,4.79,35.68,35.68,0,0,1-11.21,3.16,50.63,50.63,0,0,1-13.58-.13,38.82,38.82,0,0,1-11.18-3.27,17.07,17.07,0,0,1-6.43-5,6.76,6.76,0,0,1-1.39-5.2,8.2,8.2,0,0,1,2.58-4.46,18.47,18.47,0,0,1,5-3.28,32.87,32.87,0,0,1,6.44-2.14,46.61,46.61,0,0,1,7.41-1c1-.06,2-.09,3-.09C473.31,459.21,474.86,459.28,476.4,459.42Z" transform="translate(-8.99 -29.34)" fill="#f08b7d"/><path d="M517.51,470a22.06,22.06,0,0,0-6.2-9.29,39.66,39.66,0,0,0-9.87-6.62A61.09,61.09,0,0,0,490.19,450a76.29,76.29,0,0,0-12-2.12,82.18,82.18,0,0,0-12.65-.23,74.7,74.7,0,0,0-12.44,1.78,57.5,57.5,0,0,0-11.26,3.83,37.28,37.28,0,0,0-9.54,6.21,20.52,20.52,0,0,0-6.08,9.27,15.37,15.37,0,0,0,.29,9.62,15.29,15.29,0,0,1,.27-7.68,20.41,20.41,0,0,1,6.07-9.27c.42-.39.87-.77,1.33-1.15a16.73,16.73,0,0,1,4.88,2.66,28.57,28.57,0,0,0-3.25-3.91,41.45,41.45,0,0,1,6.58-3.81,53.37,53.37,0,0,1,6.08-2.38,16.27,16.27,0,0,1,2.74,4.16,29.81,29.81,0,0,0-1-4.69c1.13-.34,2.29-.64,3.47-.92a74.73,74.73,0,0,1,12.43-1.78l.87,5.91.88-6a81,81,0,0,1,10.91.3,75.88,75.88,0,0,1,12,2.12c.79.21,1.56.43,2.32.66a29.65,29.65,0,0,0-1.29,5.5,16.51,16.51,0,0,1,3.38-4.84A55.66,55.66,0,0,1,502,456c1.21.59,2.36,1.21,3.46,1.87a23.84,23.84,0,0,0-2.79,3.35,13.94,13.94,0,0,1,4.4-2.35,36.26,36.26,0,0,1,4.8,3.75,22.35,22.35,0,0,1,6,8.78A14.35,14.35,0,0,0,517.51,470Z" transform="translate(-8.99 -29.34)" fill="#fff" opacity="0.4"/><path d="M509,488.8c-.62.4-1.28.79-1.94,1.16a29.14,29.14,0,0,0-2.16-4.33,16.58,16.58,0,0,1,.47,5.23,56.81,56.81,0,0,1-11.5,4.24,35.06,35.06,0,0,0-1-4.08,17.44,17.44,0,0,1-.25,4.38q-2.64.63-5.45,1.08a80.87,80.87,0,0,1-11.37,1l-.61-4.17-.61,4.19h-.23A82.9,82.9,0,0,1,460,496.24a75.92,75.92,0,0,1-7.7-1.78,16,16,0,0,1,.48-4.37,29.31,29.31,0,0,0-2,3.92,57.08,57.08,0,0,1-12.64-5.6l-.58-.36a16.1,16.1,0,0,1,2.21-3.53,29.67,29.67,0,0,0-3.47,2.7,28.72,28.72,0,0,1-9.76-10.47,20.41,20.41,0,0,1-.86-2,16.62,16.62,0,0,0,1.72,5.66c2.07,4.16,5.94,8,11.18,11.24a61.19,61.19,0,0,0,21,7.54,80.24,80.24,0,0,0,26.2.24c8.17-1.3,15.43-3.86,21-7.41a26.9,26.9,0,0,0,9.3-9.35A31.5,31.5,0,0,1,509,488.8Z" transform="translate(-8.99 -29.34)" opacity="0.1"/><path d="M454.92,462.46a32.87,32.87,0,0,1,6.44-2.14,46.61,46.61,0,0,1,7.41-1c1-.06,2-.09,3-.09,1.55,0,3.1.07,4.64.21a47.62,47.62,0,0,1,7.15,1.2,34.5,34.5,0,0,1,6.49,2.29,19.64,19.64,0,0,1,5.27,3.5,10.37,10.37,0,0,1,2.06,2.7,5,5,0,0,0-.1-.66,7.56,7.56,0,0,0-2.61-3.92,19.44,19.44,0,0,0-5.09-3.06,36.78,36.78,0,0,0-6.28-2,51.6,51.6,0,0,0-6.92-1.05c-1.48-.12-3-.18-4.48-.18-1,0-1.93,0-2.89.08a48.47,48.47,0,0,0-7.16.89,34.22,34.22,0,0,0-6.24,1.87,17.83,17.83,0,0,0-4.86,2.87,7,7,0,0,0-2.47,3.77,10.29,10.29,0,0,1,1.61-2A18.47,18.47,0,0,1,454.92,462.46Z" transform="translate(-8.99 -29.34)" opacity="0.1"/><path d="M494.55,478.4a72,72,0,0,1-3.32-8.41c-6.1-18.84,3.19-34.79,10.74-50.9,6.26-13.11,11.73-27.24,5.95-42.53-5.51-14.43-18.74-25.51-45.22-34.91-4.87-1.74-10,2.64-11.55,9.53s1.23,13.56,6.34,15.14c26.52,8.4,32.47,16.1,33.88,19.73,1.71,4.66-2.12,13.87-6.64,23.18-8.34,17.79-22.39,41-14.51,66.29a77.37,77.37,0,0,0,3.32,8.63,49.17,49.17,0,0,0,6.34-.39,35.68,35.68,0,0,0,11.21-3.16A18.67,18.67,0,0,0,494.55,478.4Z" transform="translate(-8.99 -29.34)" fill="#f08b7d"/><path d="M484,437.09a19.93,19.93,0,0,1-8.09-.1c-1.25,2.87-2.46,5.81-3.6,8.79a39.24,39.24,0,0,0,7.78,3.77,20.27,20.27,0,0,1-8.54-1.72c-1.4,3.83-2.65,7.71-3.66,11.57A64.4,64.4,0,0,1,470,444.31v0h0a97.12,97.12,0,0,1,3.41-10.52v0h0c2.17-5.63,4.72-11,7.17-16h0l.09-.18.82-1.68.22-.45h0c1-2.12,2-4.17,3-6.15,1.77-3.65,3.43-7.28,4.7-10.63.3-.81.59-1.6.84-2.37h0a22.82,22.82,0,0,0,1.49-8.2,6.74,6.74,0,0,0-.13-1v0c0-.14-.06-.28-.1-.42s0-.05,0-.07-.09-.31-.15-.45-.12-.3-.19-.46l0-.07c-.07-.16-.15-.32-.24-.49-1.2-2.24-4-5.5-10.66-9.3h0c-.37-.22-.76-.44-1.16-.65h0l-1.23-.66A103.45,103.45,0,0,0,467,369.62h0l-1-.4-1-.36-.66-.24c-2.1-.76-4.36-1.53-6.8-2.3-5.11-1.58-7.9-8.25-6.34-15.14a13.92,13.92,0,0,1,5.4-8.64,16.56,16.56,0,0,0-1.85,4.88c-1.45,7,1.53,13.83,6.79,15.54q2.73.92,5.19,1.81a35.54,35.54,0,0,1,11.39-10.91,70.9,70.9,0,0,0-8.87,11.85c4.29,1.64,7.93,3.23,11,4.75a24.78,24.78,0,0,1,7.46-7.12,48.8,48.8,0,0,0-5.39,8.17c6.75,3.58,10.4,6.72,12.37,9.15a38,38,0,0,0,3.46-5.45,19.48,19.48,0,0,1-2.28,7.13,11.31,11.31,0,0,1,.7,1.39c1.23,3.21-.05,8.46-2.36,14.42a23.53,23.53,0,0,1,6.08,5,47,47,0,0,0-6.81-3.17c-1,2.36-2.08,4.8-3.24,7.26-1.33,2.92-3.06,6.4-5,10.28,1.9,1.16,3.87,2.34,5.86,3.49a59.13,59.13,0,0,1-6.7-1.81c-2.4,4.83-5.05,10.23-7.59,15.94A37.81,37.81,0,0,0,484,437.09Z" transform="translate(-8.99 -29.34)" fill="#fff" opacity="0.4"/><path d="M489.48,453.3c0-.53.11-1.05.19-1.58a58.82,58.82,0,0,1,3.08-12l.54-1.44c1.63-4.29,3.6-8.5,5.6-12.7.22-.44.43-.89.64-1.33.82-1.71,1.64-3.41,2.44-5.12,6.26-13.11,11.73-27.24,5.95-42.53-5.27-13.81-17.63-24.55-41.9-33.69,17.78,7.47,28.45,16,34.39,26.36-.37,1.09-.74,2.2-1.12,3.35.58-.84,1.11-1.66,1.61-2.47a41.24,41.24,0,0,1,2.05,4.3c4.24,10.48,3.23,20.42.28,29.86l-2.11-.72c.65.46,1.29.89,1.93,1.3a123.08,123.08,0,0,1-5,12.59c-.8,1.79-1.62,3.58-2.44,5.38l-2.51-.87c.76.54,1.5,1,2.23,1.5-2.13,4.69-4.23,9.4-5.89,14.2l-3.2-.46c1,.46,2,.86,2.94,1.23a58.09,58.09,0,0,0-2.84,12.79c-1.28-.2-2.6-.39-4-.58,1.33.61,2.62,1.13,3.88,1.59a40.72,40.72,0,0,0,2.23,16.71,69.2,69.2,0,0,0,4.64,10.5,16.05,16.05,0,0,0,1.44-1,70.88,70.88,0,0,1-3.33-8.41A40,40,0,0,1,489.48,453.3Z" transform="translate(-8.99 -29.34)" opacity="0.1"/><path d="M497.4,478.86a16.11,16.11,0,0,1,3.92,2.3,28.86,28.86,0,0,0-2.86-3.51l.07-.09a5.73,5.73,0,0,0,1.11-4.73,7.8,7.8,0,0,0-2.32-3.8,6.84,6.84,0,0,1,.69,1.87,6.44,6.44,0,0,1-1,4.91,14.77,14.77,0,0,1-5.88,4.79,35.68,35.68,0,0,1-11.21,3.16,50.63,50.63,0,0,1-13.58-.13,38.82,38.82,0,0,1-11.18-3.27,17.07,17.07,0,0,1-6.43-5,6.76,6.76,0,0,1-1.39-5.2,6.62,6.62,0,0,1,.63-1.88,7.41,7.41,0,0,0-2.26,3.84,6.06,6.06,0,0,0,1.48,5s0,0,.05.05a29,29,0,0,0-3.28,3.94,16.39,16.39,0,0,1,4.62-2.56,21.32,21.32,0,0,0,5.46,3.34c.24.11.5.21.75.31a28.68,28.68,0,0,0-1.21,5.25,16.58,16.58,0,0,1,3.08-4.54,47.94,47.94,0,0,0,9.27,2.13,59.28,59.28,0,0,0,8.45.5l.86,5.87.87-5.92c1.44-.06,2.87-.16,4.28-.32A45.7,45.7,0,0,0,489,483.4a16.61,16.61,0,0,1,2.68,4.1,29.57,29.57,0,0,0-1-4.67c.55-.21,1.09-.43,1.6-.66A17.62,17.62,0,0,0,497.4,478.86Z" transform="translate(-8.99 -29.34)" fill="#fff" opacity="0.4"/><path d="M373.14,496.55c-16.05-11-38-.61-56.93,16,10.51-5.67,21-9.49,31.1-10.72A33.15,33.15,0,0,1,351.08,522a45.19,45.19,0,0,1-1.84,8.26c4.77-6.32,7.9-12.66,8.61-18.61a20.22,20.22,0,0,0-.24-6.44,39.68,39.68,0,0,1,10.93,21.15,54.34,54.34,0,0,1,.85,10.1c3.19-8.93,4.51-17.28,3.2-24.34a24.05,24.05,0,0,0-3.06-8.14,43.8,43.8,0,0,1,10.06,5.12,50.93,50.93,0,0,1,7.65,6.48C383.74,507.28,379.08,500.62,373.14,496.55Z" transform="translate(-8.99 -29.34)" fill="#ff9e2e"/><path d="M379.67,508.2A17.09,17.09,0,0,0,369.53,504a43.8,43.8,0,0,1,10.06,5.12,50.93,50.93,0,0,1,7.65,6.48C384.84,513.1,381.7,509.89,379.67,508.2Z" transform="translate(-8.99 -29.34)" fill="#d04000" opacity="0.4"/><path d="M369.39,536.44c0-3.5.76-8,.5-10.67-.57-6-4.06-15.3-12.28-20.58a39.68,39.68,0,0,1,10.93,21.15A54.34,54.34,0,0,1,369.39,536.44Z" transform="translate(-8.99 -29.34)" fill="#d04000" opacity="0.4"/><path d="M351.08,522c.89-7.51,1.34-16.31-1.89-22.26-10.07,1.22-22.47,7.14-33,12.81,10.51-5.67,21-9.49,31.1-10.72A33.15,33.15,0,0,1,351.08,522Z" transform="translate(-8.99 -29.34)" fill="#d04000" opacity="0.4"/><path d="M373.14,496.55c-10.73-7.33-24.1-5.12-37.44,2.1,14.14-5.33,28.58-5.6,38.16,1,5.95,4.06,9.88,7.67,13.38,15.95C383.74,507.28,379.08,500.62,373.14,496.55Z" transform="translate(-8.99 -29.34)" fill="#fff" opacity="0.4"/><polygon points="286.35 439.32 317.93 426.64 319.53 417.67 281.63 429.68 286.35 439.32" fill="#ff9e2e"/><polygon points="317.93 426.64 345.28 475.04 347.41 472.92 319.53 417.67 316.82 422.02 317.93 426.64" fill="#ff9e2e"/><polygon points="317.93 426.64 331.04 449.85 318.39 425.03 305.11 431.79 317.93 426.64" fill="#fff" opacity="0.4"/><polygon points="306.2 422.61 309.59 425.64 307.24 422.38 312.29 421.26 315.53 424.15 313.29 421.04 318.6 419.86 318.82 423.91 319.3 420.33 322.41 426.08 321.49 429.96 322.87 426.93 325.93 432.6 325.27 435.38 326.26 433.2 328.45 437.26 327.73 440.29 328.8 437.92 331.38 442.68 330.64 445.8 331.74 443.36 343.16 464.49 319.53 417.67 298.58 424.31 306.2 422.61" fill="#d04000" opacity="0.4"/><path d="M101.42,444.39a46.2,46.2,0,0,1-14.54-1.85c-5.61-3.94-9.18-9.54-9.21-17.18a27.33,27.33,0,0,1,.38-4.62,24.8,24.8,0,0,0-3,10.74,11.8,11.8,0,0,0,2,6.62c-1.17-.73-2.32-1.52-3.45-2.39a48.86,48.86,0,0,1-7.38-7c2.74,8,6.55,14.67,11.54,19.15C69.62,445,63,440.92,59.14,435.33a56.36,56.36,0,0,1-5.37-9.76c.32,9.95,2.49,18.7,7,25.29a16.25,16.25,0,0,0,1.91,2.25c-12.34-1.83-22.8-5.77-29.53-12.73a73.76,73.76,0,0,1-9.12-11.59c2.56,12.93,7.29,23.9,14.67,31.52,5.11,5.28,13.23,7.87,23,8.5C39.5,475.78,20,485,13.85,495.54c-4.51,7.72-5.68,16.33-4.33,25.19a59.72,59.72,0,0,1,5-10.86C23,495.25,49.68,481.53,77.29,471c-5.38,3.9-9.41,8-11.5,12.07-4,8-4.69,16.64-2.82,25.41a59.84,59.84,0,0,1,4.31-11.14c6-11.85,23.19-23.81,43.33-34.28Z" transform="translate(-8.99 -29.34)" fill="#6a4f4d"/><path d="M310.34,215.67A34.69,34.69,0,0,0,319,194.2c1.12-22.34-19.78-44.49-46.91-44.44a48.32,48.32,0,0,0-14.42,2.15,147.14,147.14,0,0,0-29.78-20.53l-.15-.08a77.91,77.91,0,0,0-23.2-7.34l-14.6-2.25h-.22c-6.35-7.31-15-11.37-26.54-10.65-10.83.69-23.31,5.57-36.43,13.32A88.9,88.9,0,0,1,142.13,122a56.71,56.71,0,0,1,25.78,3.92C99.29,151.28,60.81,286.76,60.81,361.71c0,82.93,47.13,142.06,130.06,142.06s170.28-59.13,170.28-142.06C361.15,321.64,340.76,264.27,310.34,215.67Z" transform="translate(-8.99 -29.34)" fill="#6a4f4d"/><path d="M257.66,151.91a150.88,150.88,0,0,0-27.16-19.17,231.09,231.09,0,0,1,20.64,21.71A48.7,48.7,0,0,1,257.66,151.91Zm52.67,63.76a42.18,42.18,0,0,1-13.25,10,434,434,0,0,1,22,51.78c14.62,10.32,26.18,27.53,31,48.94,4.78,21.14,2.11,42.31-6,59.33a147,147,0,0,0-3-46c-.92-4.08-2-8.06-3.24-11.94,3,15.39,3.41,32.89,1.13,51-3.53,28-15.87,59.72-29.86,77a233.69,233.69,0,0,0,8.9-27.82c-16.93,29.93-44.45,53.71-76.1,68.65,64.22-18.14,119.32-69,119.32-134.85C361.15,321.64,340.76,264.27,310.33,215.67Z" transform="translate(-8.99 -29.34)" opacity="0.3"/><path d="M152.21,146c-43.54-.08-77.08,35.47-75.29,71.32,1.74,36.06,35.3,59.35,75.29,59.48,40-.13,73.55-23.42,75.29-59.48C229.29,181.42,195.75,145.87,152.21,146Z" transform="translate(-8.99 -29.34)" fill="#6a4f4d"/><path d="M158.69,149.73a89.34,89.34,0,0,1,29.53,4.93,77.84,77.84,0,0,0-36-8.71c-36.13-.06-65.38,24.41-73.26,53.23C91.85,171.42,122.21,149.66,158.69,149.73Z" transform="translate(-8.99 -29.34)" fill="#ffe7d4" opacity="0.2"/><path d="M311.32,426.23a62.57,62.57,0,0,1-9.83,11.34,65.56,65.56,0,0,1-10.71-7.77c-.18-.16-.37-.34-.55-.52l-.74-.72a30.14,30.14,0,0,1-7-9.9,30.4,30.4,0,0,0,7.1,11.72,48.15,48.15,0,0,1-5,7.2c-6.54,8.27-15.82,14.63-15.69,14.63a108.05,108.05,0,0,1-9.05-7.5l-.13-.13a65.91,65.91,0,0,1-6.51-7,46.51,46.51,0,0,1-6.77-10.66,56.82,56.82,0,0,0,3.95-4.81c4.42-5.69,7.68-12.24,8.77-18.33a43,43,0,0,1-8.41,15.14,65,65,0,0,1-5.22,5.76l-.2.19a103.59,103.59,0,0,1-10.27,8.67c0-.06-3.54-2.52-7.78-6.34l-.35-.31a69.21,69.21,0,0,1-7.56-8A42.9,42.9,0,0,1,211,403.78c1.09,6.09,4.36,12.65,8.77,18.33a67.35,67.35,0,0,0,6.1,7.09,47.35,47.35,0,0,1-5.82,8.7,65.65,65.65,0,0,1-6.33,6.84l-.4.38a103.87,103.87,0,0,1-9,7.4c.13,0-9.15-6.35-15.69-14.62a50.9,50.9,0,0,1-4-5.58,8,8,0,0,1-.44-.74,36.42,36.42,0,0,1-3.93-8.82,36.9,36.9,0,0,0,3.35,9.75,37.86,37.86,0,0,1-3.05,4.19c-5.19,6.56-12.55,11.6-12.45,11.6s-7.26-5-12.45-11.6a34.11,34.11,0,0,1-6.68-12,35,35,0,0,0,7,14.56,71,71,0,0,0,12.17,12.18,70.59,70.59,0,0,0,12.17-12.18,41.1,41.1,0,0,0,3.79-5.82,52.28,52.28,0,0,0,5,7.68c6.35,8.62,15.33,15.26,15.33,15.35a102,102,0,0,0,9.77-8.81,49.49,49.49,0,0,0,5.72,11.15c5.78,9,14.32,16.21,14.32,16.3,0-.09,9.4-6.14,16.28-14.34A47.57,47.57,0,0,0,259,447.16a103.09,103.09,0,0,0,9.92,9c0-.1,9-6.74,15.34-15.36a51.31,51.31,0,0,0,6-9.75,63.5,63.5,0,0,0,11.55,9.27,62.84,62.84,0,0,0,9.52-11.82,30.71,30.71,0,0,0,4.74-13.4A30.14,30.14,0,0,1,311.32,426.23ZM251,457.58c-7.05,7.83-16.72,13.58-16.59,13.59s-8.73-6.93-14.72-15.6a48.36,48.36,0,0,1-5-8.51,65.94,65.94,0,0,0,5-6,49.29,49.29,0,0,0,6.68-11.38,107.18,107.18,0,0,0,8.73,7.75,100.68,100.68,0,0,0,11-10.15,48.44,48.44,0,0,0,7.48,13.46,66.9,66.9,0,0,0,5.11,6.06A46.23,46.23,0,0,1,251,457.58Z" transform="translate(-8.99 -29.34)" fill="#ffe7d4" opacity="0.2"/><path d="M257.62,445.66c-.36-.4-.72-.8-1.08-1.22l-.34-.38-.92-1.11-.42-.52c-.43-.54-.86-1.09-1.27-1.65s-.71-.94-1.05-1.42l-.27-.37c-.33-.45-.65-.91-1-1.38l0-.07c-.33-.49-.64-1-.94-1.48l-.23-.37c-.27-.44-.53-.89-.78-1.33a2,2,0,0,0-.11-.2c-.27-.48-.52-1-.77-1.44-.09-.18-.18-.36-.26-.54s-.13-.24-.19-.36a46.68,46.68,0,0,0,7.17,13.7c.79,1.13,1.63,2.21,2.49,3.25.37-.64.72-1.28,1.05-1.93-.33-.35-.67-.72-1-1.09ZM225.37,432l-.15.3-.33.68c-.13.25-.27.5-.4.76l-.28.53-.74,1.3-.1.17-.72,1.17-.2.31c-.22.35-.45.69-.68,1l-.21.31-.74,1.05-.18.25-1,1.28c-1.13,1.54-2.35,3-3.58,4.39l-.35.4c-.24.25-.47.51-.7.76s-.25.28-.38.41c.42.92.88,1.84,1.37,2.75,1.07-1.26,2.11-2.59,3.09-4a47.44,47.44,0,0,0,7-13.08,98.85,98.85,0,0,0,9.5,9,95.11,95.11,0,0,0,10.77-10.43l.9-1.1c-.42-1-.81-1.94-1.15-2.91-1,1.1-2,2.15-3,3.11l-.06.06-.94.9,0,.05-.8.75-.19.18-.76.68-.24.22-.53.48-.24.21-.62.53-.27.24-.44.37-.31.27-.4.33-.21.17-.46.38-.12.1-.39.31,0,0-.71.57-.14.12,0,0s-.06,0-.06.06a107.18,107.18,0,0,1-8.73-7.75c-.3.75-.64,1.49-1,2.22Zm24.5-5.09c4.45-6,7.64-12.93,8.37-19.24l-.06.17c-.16.52-.34,1-.53,1.56l-.06.16c-.2.54-.42,1.09-.65,1.63-.06.13-.12.26-.17.39-.24.54-.48,1.07-.74,1.61l-.1.2c-.24.49-.49,1-.75,1.45l-.2.39c-.29.52-.58,1-.89,1.55-.06.11-.13.22-.2.33-.28.47-.57.93-.87,1.39-.06.09-.11.18-.17.26-.34.52-.69,1-1,1.53l-.25.34q-.56.78-1.14,1.53c-.27.38-.56.75-.84,1.12-.07.09-.14.17-.2.26-.29.36-.57.72-.86,1.07l-.09.11-.89,1.05-.08.08c-.33.38-.66.76-1,1.12q.6,1.33,1.32,2.67C248.5,428.7,249.2,427.8,249.87,426.86Zm-25.13,4.36c.39-.67.77-1.34,1.11-2l-.2-.21c-.41-.42-.81-.84-1.22-1.28l-.24-.26c-.47-.5-.93-1-1.39-1.55l-.13-.15c-.48-.55-1-1.12-1.43-1.71l-.06-.08c-.49-.6-1-1.22-1.43-1.85a52.39,52.39,0,0,1-3.07-4.39,47.39,47.39,0,0,1-2.52-4.55,46.84,46.84,0,0,0,7.16,13.69C222.4,428.39,223.56,429.85,224.74,431.22ZM315.61,418c-.05.27-.11.53-.18.79s-.13.52-.2.78-.13.49-.21.74-.2.63-.31.95-.17.5-.26.76c-.16.42-.32.84-.5,1.26l-.27.63-.42.93-.31.63c-.16.32-.33.64-.5,1l-.29.55c-.28.49-.56,1-.86,1.46a49.62,49.62,0,0,1-4.7,6.6l0,0-.76.89-.06.07-.67.77-.08.08-.62.68-.07.08-.57.6,0,.05c-1.16,1.22-1.93,1.95-1.93,2a4.74,4.74,0,0,0-.57-.38,59.92,59.92,0,0,1-11-8.89c-.14.31-.29.62-.44.93l0,.06h0l-.44.85-.21.41c-.11.21-.23.42-.34.64s-.23.41-.34.61l-.29.5-.44.74c-.08.14-.17.27-.26.41s-.33.54-.51.81l-.22.35-.58.86c-.07.1-.13.2-.2.29l-.66.93a1.77,1.77,0,0,1-.16.22c-.27.38-.56.75-.84,1.13-6.35,8.62-15.34,15.26-15.34,15.36,0-.06-3.56-2.71-7.78-6.82l-.22-.22-.27-.26c-.52-.52-1.05-1-1.58-1.61h0a.46.46,0,0,0-.07-.07c-.28.71-.6,1.43-.94,2.14h0l-.44.89c-.1.18-.18.37-.28.55q-.41.81-.87,1.59l-.3.52-.66,1.09-.42.65c-.21.31-.41.63-.63.94s-.31.45-.46.67l-.67.92c-.15.21-.31.43-.48.64s-.5.65-.75,1l-.44.55c-.41.5-.82,1-1.25,1.47-6.88,8.2-16.28,14.25-16.28,14.34s-.81-.73-2.08-1.94h0l-.27-.26-.17-.16-.16-.16-.29-.28-.1-.09-.38-.37,0,0a79.37,79.37,0,0,1-10.82-13c-.39-.57-.77-1.16-1.14-1.75l-.28-.47c-.36-.58-.7-1.16-1-1.75l0,0c-.35-.63-.68-1.26-1-1.9l-.17-.34c-.26-.54-.52-1.09-.76-1.64l-.12-.24h0q-.66-1.51-1.2-3c-.62.65-1.24,1.27-1.85,1.86l0,0c-.59.57-1.17,1.12-1.73,1.64l-.09.09-1.54,1.39-.16.14-.6.53-.09.07-.6.52-.23.19-.35.3-.23.19-.42.35-.3.24-.11.1-1.38,1.11,0,0,0,0c0-.09-9-6.73-15.33-15.35-.45-.57-.88-1.16-1.3-1.75l-.38-.55c-.28-.4-.55-.8-.82-1.21l-.48-.77c-.21-.33-.42-.66-.62-1s-.36-.6-.53-.91c-.08-.13-.16-.26-.23-.39s-.31-.56-.45-.84l-.15-.26a.41.41,0,0,1-.05.09,1.09,1.09,0,0,1-.08.15c-.15.29-.32.57-.48.85l-.27.46c-.21.36-.43.71-.66,1.06-.08.14-.16.27-.25.4-.2.31-.41.61-.62.92l-.36.52c-.33.46-.67.92-1,1.37a48.28,48.28,0,0,1-3.49,4.2l0,0-.46.5-.06.06-.41.43-.11.11-.39.4-.12.13-.35.35-.17.16-.31.31-.19.18-.3.29-.2.19-.25.24-.24.22a1.8,1.8,0,0,1-.2.19l-.27.25-.16.15-.31.28-.09.08-.37.33,0,0c-2.15,1.91-3.68,3.06-3.68,3.09s-.52-.42-1.37-1.12l-.09-.07-.15-.13-.18-.15-.1-.08-.26-.22-.05,0-.32-.27,0,0-.35-.31,0,0-.39-.34h0l-.87-.77h0l-.46-.41,0,0L163,447l-.07-.06-.42-.4-.06-.06-.43-.41a1.36,1.36,0,0,1-.12-.12l-.38-.36-.15-.16-.36-.35-.15-.16-.36-.37-.18-.19L160,444l-.23-.25-.29-.31-.29-.31a2.73,2.73,0,0,0-.23-.25l-.32-.37-.19-.21-.36-.42-.15-.18-.39-.46-.12-.14c-.15-.19-.31-.38-.46-.58l0,0-.46-.59,0,0-.48-.64a40.57,40.57,0,0,1-4.44-7.1A37.11,37.11,0,0,0,157.16,443a67,67,0,0,0,11.33,11.82A67,67,0,0,0,179.82,443a38.52,38.52,0,0,0,4.62-8,48.72,48.72,0,0,0,6.13,10.83c5.92,8.37,14.28,14.81,14.28,14.9a95.41,95.41,0,0,0,10.32-9.91,47.77,47.77,0,0,0,5.91,12.79c5.36,8.72,13.3,15.69,13.3,15.79,0-.1,8.77-6,15.19-14a44.67,44.67,0,0,0,8.88-15.71,93.62,93.62,0,0,0,11,10.68c0-.09,8.37-6.53,14.28-14.9a48,48,0,0,0,6.8-12.59c.29.34.59.68.9,1a58.53,58.53,0,0,0,11,9.29,58.42,58.42,0,0,0,8.82-11.41c2.66-4.48,4.36-9.55,4.4-14A1.74,1.74,0,0,1,315.61,418Z" transform="translate(-8.99 -29.34)" opacity="0.1"/><path d="M157.62,146.13c3.4-7.77,6.48-14.46,9-19.78-11.27,4.41-21.72,11.8-31.31,21.4a78.24,78.24,0,0,1,16.85-1.8C154,146,155.83,146,157.62,146.13ZM144,446.31a239.37,239.37,0,0,0,9.6,25.27c-18.05-19.48-34-55.36-38.54-87-2.94-20.44-2.36-40.23,1.46-57.61q-2.39,6.57-4.18,13.49a146.05,146.05,0,0,0-3.92,52c-13.1-28-7-75.63,5.64-123.71-13.65-6.25-24.62-16-31-28.34-14.58,42.38-22.25,87.88-22.25,121.32,0,82.93,47.13,142.06,130.06,142.06,5.29,0,10.59-.25,15.89-.72C180,491.88,158.88,472.25,144,446.31Z" transform="translate(-8.99 -29.34)" fill="#ffe7d4" opacity="0.2"/><path d="M166.38,126.46c-11.17,4.43-21.52,11.77-31,21.29a78.16,78.16,0,0,1,11.28-1.61A124.8,124.8,0,0,1,166.38,126.46Zm-86,230.61c0-28.13,5.12-64.55,15-100.73a58.36,58.36,0,0,1-12.22-16c-14.58,42.39-22.25,87.89-22.25,121.33,0,82.93,47.13,142.06,130.06,142.06,4.68,0,9.38-.2,14.07-.57C125.4,500.58,80.33,440.55,80.33,357.07Z" transform="translate(-8.99 -29.34)" fill="#ffe7d4" opacity="0.2"/><path d="M258.65,43C226.16,18.73,132.74,29.09,110.83,56c-22.78,26.81,33.48,43.25,68,69.14,33.73,26.84,90.31,40,110,10.68C308.11,107.83,290.2,67.58,258.65,43Z" transform="translate(-8.99 -29.34)" fill="#dae7de"/><path d="M296.71,113.42a53.75,53.75,0,0,0-.64-12.8c-.14-.8-.29-1.61-.47-2.42s-.31-1.43-.49-2.14h0c-4.84-19.25-17.76-39-36.46-53.06a44.33,44.33,0,0,0-3.89-2.56C269.42,57.71,279,78.38,281,98.18a96.44,96.44,0,0,1-25.6-1.43,95.81,95.81,0,0,0,25.83,4.38,64.61,64.61,0,0,1-.47,12.46,98.26,98.26,0,0,1-25.5-1.25,96.94,96.94,0,0,0,25,4.13A57.27,57.27,0,0,1,271,138.59a43.56,43.56,0,0,1-15.88,13.85c14.26-.86,26.48-6.16,33.67-16.58a44.83,44.83,0,0,0,7.66-20h0C296.58,115.05,296.65,114.24,296.71,113.42Z" transform="translate(-8.99 -29.34)" opacity="0.1"/><path d="M233.66,45.69C207.86,23,136.17,28.07,107.79,57.84,79.23,88,68.27,128.54,94.89,153.73c12.88,12.66,38.72,18.7,64.67,15.77,26-2.65,52.08-14.26,65.9-30.43C253.48,106.57,258.94,68.45,233.66,45.69Z" transform="translate(-8.99 -29.34)" fill="#dae7de"/><path d="M125.18,160.66c-27.08-27.93-18.05-72.81,9.42-104.8C145,44,161.34,35.89,179.3,31.65c-27.16.87-55.65,9.78-71.51,26.19C79.23,88,68.27,128.54,94.89,153.73c9.38,9.09,25.22,14.8,43.14,16.17A47.6,47.6,0,0,1,125.18,160.66Z" transform="translate(-8.99 -29.34)" fill="#fff" opacity="0.1"/><path d="M246.6,64.22a78.56,78.56,0,0,1-3.49,24.29c-15.57,9.19-38,13.89-58.49,13.51,18.23,1.87,39.55-.5,56.11-6.53a118.51,118.51,0,0,1-9.53,19.2q-2.53,1.29-5.18,2.52c-18,8.37-44.07,9.81-66.24,5.53,20.33,5.73,46,6.57,65.15,1.31a153.79,153.79,0,0,1-12.68,15.2,78.33,78.33,0,0,1-7,6.54q-4.38,1.11-9,2c-20.65,3.81-46.9-1.88-67.26-11.73,18.1,10.74,43.14,18.6,64,18.3-16.6,9.77-37.25,15.25-56.66,15.44,32.33,3.32,71.09-9.42,89.15-30.68C246.92,114.27,255,86.26,246.6,64.22Z" transform="translate(-8.99 -29.34)" opacity="0.1"/><path d="M135.26,88.56a87.67,87.67,0,0,1-19.95-24.18,115.57,115.57,0,0,1,8.81-9.55c10.3-10,25.38-17.42,42.34-22.18-21.5,2.67-42.38,10.28-55.94,22.56h0c-.47.41-.92.84-1.37,1.27l0,0c-.46.44-.9.88-1.34,1.33A112.09,112.09,0,0,0,90,82h0c-.47.88-.92,1.75-1.37,2.63l-.44.87c-.34.68-.66,1.37-1,2.06-.24.51-.47,1-.7,1.52h0A78,78,0,0,0,80.13,111h0c-.11.85-.19,1.69-.25,2.53,0,.42-.07.84-.09,1.27s0,.76-.05,1.14c0,1.16-.07,2.31,0,3.46h0a48.28,48.28,0,0,0,15.19,34.37c9.11,8.83,24.31,14.47,41.59,16-10.19-2.84-18.88-7.13-25.14-12.67-10-8.84-15.68-19.45-17.49-30.76a64,64,0,0,0,17.48,3.92,91.64,91.64,0,0,1-18-9.19,63.45,63.45,0,0,1,2.88-22,54.36,54.36,0,0,0,13.93,8.41A76.38,76.38,0,0,1,97.74,94.33a103.14,103.14,0,0,1,13.39-24.57C117.75,78.17,125.88,84.76,135.26,88.56Z" transform="translate(-8.99 -29.34)" fill="#fff" opacity="0.4"/><path d="M152.21,146c-43.54-.08-77.08,35.47-75.29,71.32,1.74,36.06,35.3,59.35,75.29,59.48,40-.13,73.55-23.42,75.29-59.48C229.29,181.42,195.75,145.87,152.21,146Z" transform="translate(-8.99 -29.34)" fill="#6a4f4d"/><path d="M158.69,149.73a89.34,89.34,0,0,1,29.53,4.93,77.84,77.84,0,0,0-36-8.71c-36.13-.06-65.38,24.41-73.26,53.23C91.85,171.42,122.21,149.66,158.69,149.73Z" transform="translate(-8.99 -29.34)" fill="#ffe7d4" opacity="0.2"/><path d="M276.13,152.11a55.8,55.8,0,0,1,18.4,3.08,48.37,48.37,0,0,0-22.44-5.43c-22.51,0-40.73,15.21-45.64,33.17C234.49,165.63,253.4,152.07,276.13,152.11Z" transform="translate(-8.99 -29.34)" fill="#ffe7d4" opacity="0.2"/><path d="M294.74,158.54c-32.37-.06-57.3,26.37-56,53,1.29,26.8,26.24,44.11,56,44.21,29.72-.1,54.67-17.41,56-44.21C352,184.91,327.1,158.48,294.74,158.54Z" transform="translate(-8.99 -29.34)" fill="#ffe7d4"/><path d="M301.9,159c23.82,7.09,40.36,28.77,39.27,50.6-1.29,26.8-26.24,44.12-56,44.21a73.88,73.88,0,0,1-9.84-.69,71.44,71.44,0,0,0,19.38,2.68c29.72-.1,54.67-17.41,56-44.21C351.93,186.91,330.7,162.46,301.9,159Z" transform="translate(-8.99 -29.34)" fill="#e75400" opacity="0.2"/><path d="M145,155.46c-43.53-.07-77.08,35.48-75.29,71.33,1.74,36,35.3,59.35,75.29,59.47,40-.12,73.56-23.42,75.3-59.47C222.06,190.94,188.51,155.39,145,155.46Z" transform="translate(-8.99 -29.34)" fill="#ffe7d4"/><path d="M163.36,280.45c-40-.13-73.55-24.82-75.29-63-.94-20,7.87-39.83,22.76-54.18-25.62,12.4-42.43,37.89-41.15,63.55,1.74,36,35.3,59.35,75.29,59.47a92.34,92.34,0,0,0,37.93-7.92A92.56,92.56,0,0,1,163.36,280.45Z" transform="translate(-8.99 -29.34)" fill="#e75400" opacity="0.2"/><path d="M172.66,205.6a10.64,10.64,0,0,1,.07,1.26,12.52,12.52,0,1,1-12.52-12.52,12.31,12.31,0,0,1,2.93.36,22.09,22.09,0,1,0,9.52,10.9Z" transform="translate(-8.99 -29.34)" fill="#51364d"/><circle cx="127.46" cy="198.74" r="5.97" fill="#fff"/><circle cx="119.62" cy="204.71" r="1.86" fill="#fff"/><path d="M267,208.54a3.47,3.47,0,0,1,.56-.11,5.64,5.64,0,1,1-4.74,6.42,5.93,5.93,0,0,1,0-1.33,9.83,9.83,0,0,0-.56,5.07,9.94,9.94,0,1,0,8.34-11.32A9.83,9.83,0,0,0,267,208.54Z" transform="translate(-8.99 -29.34)" fill="#51364d"/><path d="M266.34,227.3a2.59,2.59,0,1,0-2.58-2.58A2.59,2.59,0,0,0,266.34,227.3Z" transform="translate(-8.99 -29.34)" fill="#fff"/><path d="M263,228.1a.81.81,0,1,0-.8-.8A.8.8,0,0,0,263,228.1Z" transform="translate(-8.99 -29.34)" fill="#fff"/><g opacity="0.8"><path d="M293.56,394c-2.82,1.26-3.88,5.28-2.71,8.4s4.06,4.34,6.71,3.23a6.06,6.06,0,0,0,3.16-7.52C299.72,394.78,296.38,392.67,293.56,394Z" transform="translate(-8.99 -29.34)" opacity="0.3"/><path d="M271.73,410a2.29,2.29,0,0,0-1.13,2.91A1.9,1.9,0,0,0,273,414.2a2,2,0,0,0,1.27-2.55A2.16,2.16,0,0,0,271.73,410Z" transform="translate(-8.99 -29.34)" opacity="0.3"/><path d="M311.34,384.75c-.56-1.59-2.22-2.58-3.58-1.87s-1.8,2.77-1.15,4.3a2.38,2.38,0,0,0,3.35,1.4A3.1,3.1,0,0,0,311.34,384.75Z" transform="translate(-8.99 -29.34)" opacity="0.3"/><path d="M295.19,381.51c-.71-1.94-2.82-3.16-4.53-2.33s-2.24,3.3-1.4,5.16a3.11,3.11,0,0,0,4.24,1.76A3.57,3.57,0,0,0,295.19,381.51Z" transform="translate(-8.99 -29.34)" opacity="0.3"/><path d="M278.66,374.56a1.76,1.76,0,0,0,.83-2.34A1.93,1.93,0,0,0,277,371a2,2,0,0,0-.67,2.64A1.72,1.72,0,0,0,278.66,374.56Z" transform="translate(-8.99 -29.34)" opacity="0.3"/><path d="M280,367.05a1.07,1.07,0,0,0,.48-1.45,1.09,1.09,0,1,0-1.91.94A1.05,1.05,0,0,0,280,367.05Z" transform="translate(-8.99 -29.34)" opacity="0.3"/><path d="M280.76,389.39c-.79-2.26-3.25-3.76-5.29-2.89s-2.74,3.64-1.82,5.81a3.79,3.79,0,0,0,5,2.26A4,4,0,0,0,280.76,389.39Z" transform="translate(-8.99 -29.34)" opacity="0.3"/></g><path d="M192.26,283.29c-.26.09-26.63,29.51,8.44,29.45,15.1,0,87.41-29.37,87.41-29.37S229.56,273.37,192.26,283.29Z" transform="translate(-8.99 -29.34)" fill="#ff9e2e"/><path d="M265.86,292.1c12.79-4.9,22.25-8.73,22.25-8.73s-58.55-10-95.85-.08C209.37,281.24,236.64,285.58,265.86,292.1Z" transform="translate(-8.99 -29.34)" opacity="0.1"/><path d="M203.09,308.21c-19.73,0-20-9.26-16.44-17.42-5.35,8.74-9.5,22,14,21.95,8,0,32.26-8.33,53.18-16.11C231,302.84,209.45,308.2,203.09,308.21Z" transform="translate(-8.99 -29.34)" opacity="0.1"/><path d="M388.34,376.2c-30.81-1.42-76.22-38.56-76.22-38.56s-56.88-49.43-76.64-67.58q-2.08,2.19-4.3,4.23c17.87,20,66.48,77.61,66.48,77.61s36.48,45.94,37.46,76.76c.09,3-.11,5.16,1.39,6.69,2.83,2.86,8.22,2.09,16-2.29,6.8-3.83,14.68-10,22.21-17.44s13.83-15.22,17.75-22c4.5-7.73,5.35-13.11,2.52-16C393.5,376.16,391.32,376.34,388.34,376.2Z" transform="translate(-8.99 -29.34)" fill="#edd1a5"/><path d="M359.11,399.78c-14.95,14.73-23.82,30-19.8,34.05s19.38-4.58,34.33-19.32,23.82-30,19.81-34.05S374.06,385,359.11,399.78Z" transform="translate(-8.99 -29.34)" fill="#bc7329" fill-rule="evenodd" opacity="0.4"/><path d="M310,340.84a2.11,2.11,0,1,0,3-.11A2.09,2.09,0,0,0,310,340.84Z" transform="translate(-8.99 -29.34)" fill="#bc7329" fill-rule="evenodd" opacity="0.4"/><path d="M301.61,333.26a2.12,2.12,0,1,0,3-.1A2.1,2.1,0,0,0,301.61,333.26Z" transform="translate(-8.99 -29.34)" fill="#bc7329" fill-rule="evenodd" opacity="0.4"/><path d="M293.27,325.68a2.12,2.12,0,1,0,3-.1A2.08,2.08,0,0,0,293.27,325.68Z" transform="translate(-8.99 -29.34)" fill="#bc7329" fill-rule="evenodd" opacity="0.4"/><path d="M288.05,321a2.11,2.11,0,1,0-2.95.1A2.08,2.08,0,0,0,288.05,321Z" transform="translate(-8.99 -29.34)" fill="#bc7329" fill-rule="evenodd" opacity="0.4"/><path d="M335.13,429.22c.53-3.48,2.43-7.56,5.06-11.75-10.7-29.29-36.87-61.8-36.87-61.8s-51.92-60.91-71.14-82.33c-.33.32-.66.64-1,1,17.87,20,66.48,77.61,66.48,77.61s36.48,45.94,37.46,76.76C335.13,428.85,335.13,429,335.13,429.22Z" transform="translate(-8.99 -29.34)" fill="#bc7329" opacity="0.2"/><path d="M388.92,376.22l-.58,0c-30.81-1.42-76.22-38.56-76.22-38.56s-56.88-49.43-76.64-67.58l-.25.26c15.49,14.54,35.87,33.36,50.85,47.16a2.13,2.13,0,0,1,2.48,2.28l5.77,5.31a2.12,2.12,0,0,1,1.89.51,2.16,2.16,0,0,1,.69,1.86l5.69,5.23a2.1,2.1,0,0,1,2,.49,2.13,2.13,0,0,1,.67,1.92l1.21,1.11s1.75,1.52,4.82,4a2.16,2.16,0,0,1,1.64.54,2.1,2.1,0,0,1,.68,1.32c12.72,10.1,40.26,30.44,64.66,38.36C382.07,378.2,385.76,376.64,388.92,376.22Z" transform="translate(-8.99 -29.34)" fill="#fff" opacity="0.4"/><path d="M157.41,349.1c7.47,24.67,17.52,48.76,24.71,51.68,16.72,7.47,40.1,1.58,58-7A159.08,159.08,0,0,0,271,374.55a162,162,0,0,1-25.17,7.87,232.45,232.45,0,0,0,39.63-35.18,174.82,174.82,0,0,1-20.92,6,295.55,295.55,0,0,0,23.06-34.85c.08,0-20.08,13.14-41.33,18.91A177.13,177.13,0,0,0,278,318.1a168.47,168.47,0,0,1-26.73,12.5c-15,5.51-33.41,9-44.38,5.64a78.87,78.87,0,0,1-8.43-3.05c-10.94-4.79-22.77-12.47-31.78-19.13a22.54,22.54,0,0,0-11.83,8l-3.63,4.77C153,333.86,155.07,341.51,157.41,349.1Z" transform="translate(-8.99 -29.34)" fill="#6a4f4d"/><path d="M240.78,383.45a179.36,179.36,0,0,0,27.52-26.27,151.89,151.89,0,0,1-28.7,2.69c-15.64.08-33.91-3.07-43.48-9.13,11.58,7.53,42.46,8.33,64.36,3.4a297.68,297.68,0,0,0,18.09-26.9A161.78,161.78,0,0,1,253,338.48c-14.39,4.94-32.16,8-43.25,4.9-5.51-1.47-20.36-10.19-37.15-25.07,14.34,10.12,33.41,19.21,44.1,21.56,11.06,2.85,29.49-1.48,44.4-7.68a172.82,172.82,0,0,0,26.53-13.76,295.55,295.55,0,0,1-23.06,34.85,174.82,174.82,0,0,0,20.92-6,232.29,232.29,0,0,1-39.64,35.18A161.41,161.41,0,0,0,271,374.53,161.54,161.54,0,0,1,242,393a88.09,88.09,0,0,0,8.51-7.7c.27.54-38.6,10.48-58.82-2-5.08-2.91-11.42-13.52-17.54-27.35,7.38,12.12,15,21.8,20.7,25C204.76,386.63,224.23,386.72,240.78,383.45Z" transform="translate(-8.99 -29.34)" fill="#ffe7d4" opacity="0.2"/><path d="M205.12,335.7l-.14-.05-.55-.18-.46-.16-.34-.12-.7-.24-.26-.1-.82-.3-.22-.09-.88-.33-.17-.07-1-.39-.35-.14-.8-.33h0c-9.62-4.21-19.92-10.65-28.39-16.67,4.43,6.8,9.54,13.2,15.26,17.6,2.22,1.71,4.38,3.48,6.47,5.34a29.79,29.79,0,0,0,6.54,4.75c12.14,5.77,32,4.26,48.06,0a150.51,150.51,0,0,0,28.68-10.76s-3.31,7.47-9,17.92c3.2-4.21,6.13-8.34,8.73-12.19l.1-.14.75-1.12.24-.37.64-1c.11-.16.22-.32.32-.49l.56-.84.37-.57.5-.77.39-.6.45-.7.41-.64c.13-.22.27-.43.4-.64l.41-.64.38-.61c.13-.21.27-.42.39-.63l.36-.58c.13-.2.25-.4.37-.6s.24-.38.35-.57.23-.37.34-.55.23-.38.35-.56l.3-.5.34-.56.26-.44.34-.56c.07-.13.15-.25.22-.37s.23-.39.34-.57.11-.19.16-.28.24-.4.35-.6l.12-.19.35-.61.05-.09c1.25-2.15,1.93-3.38,1.93-3.37s-20.08,13.14-41.33,18.91A177.13,177.13,0,0,0,278,318.1a168.47,168.47,0,0,1-26.73,12.5c-15,5.51-33.41,9-44.38,5.64L206,336Z" transform="translate(-8.99 -29.34)" fill="#ffe7d4" opacity="0.2"/><path d="M355.1,370.86c5.59-6,9.22-7.88,16-11.91-20.56,4.48-42.26,7.27-63.49,6.77a82.13,82.13,0,0,1,15.82-9.37A165.11,165.11,0,0,1,291,350c13.81-5.15,26.47-9.3,41-13.19-12.41,2.21-24.84,4.31-37.2,6.77,18-6.67,67.91-13.24,73.07-28.72.57-1.71-.46-4.26-.83-6-8.27-14.11-20.65-21-25.85-37a6.28,6.28,0,0,0,.14-3.5l-.6-1.58c22.49-2,81.59,48.23,79,61.39C413.78,359,378.51,360,355.1,370.86Z" transform="translate(-8.99 -29.34)" fill="#6a4f4d"/><path d="M419.51,325.17C415,309,363,265.88,341.45,266.69c.12.13.23.26.35.38a54,54,0,0,0,15.41,11C383.37,290.75,401.67,301.46,419.51,325.17Z" transform="translate(-8.99 -29.34)" opacity="0.3"/><path d="M382.29,313.72q.19.5.36,1Q382.49,314.22,382.29,313.72Zm24.81,12.33C407,321,396,305.68,389.51,301.92c6.27,6,14.84,17.2,15.4,25.2,1,14.09-18.05,22.48-28.26,29.2-17.49,2.79-35,5.07-52.73,4.52,17.07-8.72,65.75-24.53,58.73-46.13,6.17,19.32-40,33.83-54.52,39.68a187.62,187.62,0,0,1-28.43-4.73c20.75-9.77,61.63-11.6,72.62-31.67,2.49-4.54-11.48-22.44-19.91-27.57l1.46,1.68a44.64,44.64,0,0,1,8,9.24,64.64,64.64,0,0,1,5.18,7.49c.37,1.76,1.4,4.31.83,6-1,3-3.63,5.61-7.37,8-7.39,6-17.78,10.31-28.85,14l.35-.06-.86.23c-13.81,4.62-28.61,8.31-39.87,13a163.62,163.62,0,0,0,32.18,6.3,82.13,82.13,0,0,0-15.82,9.37c21.23.5,42.93-2.29,63.49-6.77-6.78,4-10.41,5.95-16,11.91,7.7-3.57,16.67-6.07,25.46-8.92l1.88-.68c-3.87.82-7.9,1.3-11.75,1.93C385.52,353.78,407.63,346.1,407.1,326.05Z" transform="translate(-8.99 -29.34)" fill="#ffe7d4" opacity="0.2"/><path d="M370.93,304.69c2.25,2.21,5,6,5.26,7.68,3.57,22.38-53.32,30.51-71.62,38.61a86.59,86.59,0,0,0,15.26,5A172.44,172.44,0,0,1,291,350c13.81-5.15,26.47-9.3,41-13.19h0l-1.65.29-12.2,2.15c-4.87.86-9.74,1.73-14.6,2.65-2.89.54-5.78,1.09-8.67,1.67,1-.38,2.13-.76,3.33-1.14,7.41-2.31,18.11-4.68,28.93-7.47,12.69-3.26,25.54-7.09,33.41-12.14,3.71-2.37,6.34-5,7.32-8,.57-1.71-.46-4.26-.83-6-8.27-14.11-20.65-21-25.85-37,0,0,0,0,0-.06,4.33,12.42,15.71,17.94,26,29.09Q369,302.82,370.93,304.69Z" transform="translate(-8.99 -29.34)" fill="#ffe7d4" opacity="0.2"/><path d="M339.39,233.89c-15.76-15.91-47.7,37.72-76.78,19.53s-70.18,30-70.35,29.87c42.92-5.13,124,13.56,165.34,22.4C357.87,305.51,351.75,245.9,339.39,233.89Z" transform="translate(-8.99 -29.34)" fill="#ff9e2e"/><path d="M339.39,233.89c-15.76-15.91-47.7,37.72-76.78,19.53-15-9.37-33.12-1.16-47.24,9,15-7.67,33.55-12.66,46.58-4.51,29.09,18.19,57.45-20.16,73.21-4.24,12.36,12,22.71,51.83,22.44,52C357.87,305.51,351.75,245.9,339.39,233.89Z" transform="translate(-8.99 -29.34)" fill="#fff" opacity="0.4"/><path d="M339.39,233.89c-15.76-15.91-47.7,37.72-76.78,19.53-13.5-8.45-29.58-2.6-43,6.08,14.17-7.56,30.42-12.09,43.27-4.06,29.08,18.2,56.59-31.57,75.13-19.43,6.07,4,10.55,16.92,13.67,30.59C348.73,252.58,344.62,239,339.39,233.89Z" transform="translate(-8.99 -29.34)" fill="#fff" opacity="0.2"/><path d="M241.16,259s-3.48,3.14.64,3.56c1.77.18,10.61-2.4,10.61-2.4S245.66,258.28,241.16,259Z" transform="translate(-8.99 -29.34)" opacity="0.2"/><path d="M190.8,399.36c-8-2.18-20.92-22.85-32-45.8,7.29,23.05,16.57,44.48,23.33,47.22,15,6.69,35.28,2.67,52.25-4.39C219.56,401.27,203.91,403.37,190.8,399.36Z" transform="translate(-8.99 -29.34)" opacity="0.3"/><polygon points="158.14 459.58 153.5 450.7 193.67 447.08 192.91 452.1 190.17 453.76 158.14 459.58" fill="#ff9e2e"/><polygon points="223.97 515.74 190.17 453.76 193.67 447.08 226.33 513.8 223.97 515.74" fill="#ff9e2e"/><polygon points="190.92 452.47 198.46 468.96 190.17 453.76 182.73 455.12 190.92 452.47" fill="#fff" opacity="0.4"/><polygon points="204.15 470.11 202.61 472.29 203.81 469.49 201.54 465.28 200.16 467.24 201.24 464.72 199.36 461.22 198.01 463.15 199.06 460.67 196.38 455.69 194.5 458.36 195.97 454.92 193.07 449.55 192.21 452.43 192.5 448.71 187.1 448.6 189.16 451.84 185.83 448.57 182.28 448.49 183.69 450.71 181.41 448.47 178.83 448.42 193.67 447.08 212.94 486.44 204.15 470.11" fill="#d04000" opacity="0.4"/><path d="M242.54,530.63c-16.61-10.09-38,1.43-56,19C196.74,543.41,207,539,217,537.27a33.14,33.14,0,0,1,4.84,19.93,44.75,44.75,0,0,1-1.38,8.35c4.42-6.57,7.2-13.06,7.59-19a20.71,20.71,0,0,0-.58-6.42,39.72,39.72,0,0,1,12,20.53,52.94,52.94,0,0,1,1.39,10c2.72-9.08,3.59-17.5,1.9-24.48a24.06,24.06,0,0,0-3.49-8,43.61,43.61,0,0,1,10.31,4.58,51.05,51.05,0,0,1,8,6.05C253.7,540.77,248.69,534.37,242.54,530.63Z" transform="translate(-8.99 -29.34)" fill="#ff9e2e"/><path d="M249.69,541.91a17.11,17.11,0,0,0-10.35-3.69,43.61,43.61,0,0,1,10.31,4.58,51.05,51.05,0,0,1,8,6.05C255.11,546.53,251.8,543.49,249.69,541.91Z" transform="translate(-8.99 -29.34)" fill="#d04000" opacity="0.4"/><path d="M240.93,570.66c-.16-3.5.33-8-.07-10.68-.89-5.92-4.87-15.06-13.36-19.89a39.72,39.72,0,0,1,12,20.53A52.94,52.94,0,0,1,240.93,570.66Z" transform="translate(-8.99 -29.34)" fill="#d04000" opacity="0.4"/><path d="M221.87,557.2c.49-7.54.47-16.35-3.07-22.12-10,1.76-22.06,8.33-32.25,14.56C196.74,543.41,207,539,217,537.27A33.14,33.14,0,0,1,221.87,557.2Z" transform="translate(-8.99 -29.34)" fill="#d04000" opacity="0.4"/><path d="M242.54,530.63c-11.11-6.75-24.34-3.83-37.27,4.1,13.83-6.08,28.24-7.12,38.15-1.09,6.16,3.74,10.28,7.13,14.22,15.21C253.7,540.77,248.69,534.37,242.54,530.63Z" transform="translate(-8.99 -29.34)" fill="#fff" opacity="0.4"/><path d="M180.14,485.29a2.69,2.69,0,0,0,.63-.46,8.66,8.66,0,0,0,2.15-4.18,10.55,10.55,0,0,1-1.27,1.52,6.71,6.71,0,0,1-3.94,1.59,1.48,1.48,0,0,0,.26-.3,6.59,6.59,0,0,0,1.12-3.37,8.35,8.35,0,0,1-.78,1.29,3.7,3.7,0,0,1-1,.93c-3.89-10.73-37.44-8-44.39-7.19-11.69,1.63-14.7,9.87-10.47,19.53s20.33,13,35.58,7.84A32.26,32.26,0,0,0,175.1,490c.1.29.18.6.26.91a11.93,11.93,0,0,0,.11-1.43c.26-.37.52-.74.76-1.12a5.16,5.16,0,0,1,.76,2,10.3,10.3,0,0,1,.06,2,9,9,0,0,0,.92-4.69,2.36,2.36,0,0,0-.12-.51,8.77,8.77,0,0,1,3.59,4.39,13,13,0,0,1,.49,2.61,11.52,11.52,0,0,0,.23-6.31A5.17,5.17,0,0,0,180.14,485.29Z" transform="translate(-8.99 -29.34)" fill="#6a4f4d"/><path d="M131.43,478.76c6.54-.69,33.84-2.67,45.52,2.78-5.18-9.83-37.28-7.23-44.06-6.42-6.08.85-9.81,3.49-11.4,7.19C123.78,480.54,127.07,479.29,131.43,478.76Z" transform="translate(-8.99 -29.34)" fill="#ffe7d4" opacity="0.2"/><path d="M161.4,498.64c-17.13,5.14-35.35,1.68-40-7.83-.22-.45-.42-.9-.61-1.35a22,22,0,0,0,1.6,5.19c4.11,9.51,20.33,13,35.58,7.84a31.4,31.4,0,0,0,13.52-8.21A37.23,37.23,0,0,1,161.4,498.64Z" transform="translate(-8.99 -29.34)" opacity="0.3"/></g></svg>