<svg xmlns="http://www.w3.org/2000/svg" xmlns:xlink="http://www.w3.org/1999/xlink" viewBox="0 0 447.04 565.77"><defs><clipPath id="a" transform="translate(-76.48 -17.12)"><rect width="600" height="600" fill="none"/></clipPath></defs><g clip-path="url(#a)"><path d="M511.79,380.4,227.73,353.9,222,324.09l64.52-8.63a437.81,437.81,0,0,1,180.37,14l56.68,16.71Z" transform="translate(-76.48 -17.12)" fill="#e63800"/><path d="M497,270.49s-79.9,31.41-108,36.18c-38.18,6.49-154.9,2.1-154.9,2.1l7.65-13.89C289.65,208,405.93,188.41,479.6,254.77Z" transform="translate(-76.48 -17.12)" fill="#006da7"/><path d="M339.63,528.28c-79.61,0-186.45,18-186.45,24.49S260,564.49,339.63,564.49,509,559.24,509,552.77,419.23,528.28,339.63,528.28Z" transform="translate(-76.48 -17.12)" opacity="0.1"/><path d="M263.2,446.29a40.49,40.49,0,0,1-11.28,6,17.69,17.69,0,0,1-15.24-7.57,25.17,25.17,0,0,1-2.07-3.48,21.56,21.56,0,0,0,3.33,9.13,10.22,10.22,0,0,0,4.73,3.73,34.24,34.24,0,0,1-3.66.05,42.49,42.49,0,0,1-8.81-1.28c6,4.33,12.08,7.13,17.9,7.8-7.23,2.07-14,2.54-19.57.51a49.56,49.56,0,0,1-8.76-4.22c5.27,6.92,11.24,12,17.82,14.42a14.68,14.68,0,0,0,2.49.65c-9.7,4.93-19.14,7.41-27.45,5.87a65,65,0,0,1-12.35-3.64c8.36,7.91,17.28,13.32,26.38,15,6.31,1.18,13.39-1.09,20.68-5.59C235,499.93,225.8,516.38,226.75,527c.7,7.78,4.22,14.5,9.66,20.12a52,52,0,0,1-2-10.24c-1.32-14.71,10.72-38,25.05-59.41-1.86,5.5-2.67,10.42-2.07,14.41,1.16,7.72,5.07,14.21,10.83,19.5a51.37,51.37,0,0,1-2.56-10.1c-1.73-11.46,4.46-28.67,13.5-46.3Z" transform="translate(-76.48 -17.12)" fill="#6a4f4d"/><polygon points="345.42 457.52 349 528.96 351.82 528.87 353.95 452.91 345.42 457.52" fill="#ff9e2e"/><polygon points="350.58 528.91 351.82 528.87 353.95 452.91 350.58 528.91" fill="#fff" opacity="0.4"/><polygon points="350.64 492.59 347.87 492.96 345.42 457.52 348.27 514.57 348.27 514.57 348.31 515.3 348.31 515.3 348.6 521.15 348.6 521.15 348.63 521.63 349 528.96 350.35 528.92 349.81 521.15 350.31 520.92 349.8 520.99 349.38 514.81 350.61 514.25 349.35 514.42 349.02 509.73 350.78 508.93 348.99 509.17 348.66 504.38 351.29 503.18 348.6 503.54 348.29 499.11 350.85 497.95 348.24 498.3 347.93 493.83 350.64 492.59" fill="#d04000" opacity="0.4"/><path d="M420.14,464.84c-9.57,1.47-18.6,9.83-17.13,19.4.95,6.13,6.56,15.14,13,20.43s16.3,3.05,19.42-4.69c.07-.17.14-.35.2-.52a46.64,46.64,0,0,0,2-20.54C436.18,469.35,429.7,463.37,420.14,464.84Z" transform="translate(-76.48 -17.12)" fill="#6a4f4d"/><path d="M431.39,500.44c-.11.31-.22.61-.34.91a20.68,20.68,0,0,1-3.46,5.7,12,12,0,0,0,7.84-7.07c.07-.17.14-.35.2-.52a46.64,46.64,0,0,0,2-20.54,20.75,20.75,0,0,0-2.2-6.8C435.75,480.88,434.54,491.66,431.39,500.44Z" transform="translate(-76.48 -17.12)" opacity="0.3"/><path d="M456.45,544.12c-13.09-10.81-33-3.54-50.76,9.39,9.59-4.1,19-6.59,27.89-6.86a28.9,28.9,0,0,1,1.68,17.83,39,39,0,0,1-2.24,7c4.64-5.12,7.86-10.38,8.94-15.5a17.69,17.69,0,0,0,.31-5.62,34.62,34.62,0,0,1,7.83,19.25,47.68,47.68,0,0,1-.06,8.85c3.48-7.51,5.29-14.67,4.71-20.92a21.14,21.14,0,0,0-2-7.31,38.31,38.31,0,0,1,8.34,5.25,44.71,44.71,0,0,1,6.14,6.23C464.82,554.28,461.29,548.12,456.45,544.12Z" transform="translate(-76.48 -17.12)" fill="#ff9e2e"/><path d="M461.21,554.75a15,15,0,0,0-8.48-4.48,38.31,38.31,0,0,1,8.34,5.25,44.71,44.71,0,0,1,6.14,6.23C465.32,559.43,462.84,556.39,461.21,554.75Z" transform="translate(-76.48 -17.12)" fill="#d04000" opacity="0.4"/><path d="M450,578.5c.29-3,1.29-6.91,1.28-9.24,0-5.23-2.32-13.62-9.05-18.86a34.62,34.62,0,0,1,7.83,19.25A47.68,47.68,0,0,1,450,578.5Z" transform="translate(-76.48 -17.12)" fill="#d04000" opacity="0.4"/><path d="M435.26,564.48c1.37-6.46,2.46-14.07.12-19.5-8.86.27-20.1,4.43-29.69,8.53,9.59-4.1,19-6.59,27.89-6.86A28.9,28.9,0,0,1,435.26,564.48Z" transform="translate(-76.48 -17.12)" fill="#d04000" opacity="0.4"/><path d="M456.45,544.12c-8.75-7.23-20.55-6.36-32.71-1.14,12.71-3.52,25.29-2.6,33.1,3.85,4.84,4,8,7.45,10.37,14.92C464.82,554.28,461.29,548.12,456.45,544.12Z" transform="translate(-76.48 -17.12)" fill="#fff" opacity="0.4"/><polygon points="227.85 461.98 197.06 526.54 199.59 527.81 237.55 461.98 227.85 461.98" fill="#ff9e2e"/><polygon points="198.48 527.25 199.59 527.81 237.55 461.98 198.48 527.25" fill="#fff" opacity="0.4"/><polygon points="215.78 495.32 213.16 494.33 227.85 461.98 203.26 513.53 203.26 513.53 202.94 514.2 202.94 514.2 200.42 519.48 200.42 519.48 200.21 519.92 197.06 526.54 198.27 527.15 201.49 520.06 202.03 520.09 201.55 519.91 204.11 514.27 205.47 514.37 204.28 513.91 206.22 509.63 208.14 509.76 206.45 509.12 208.44 504.75 211.33 504.95 208.78 503.99 210.62 499.94 213.43 500.13 210.96 499.2 212.81 495.12 215.78 495.32" fill="#d04000" opacity="0.4"/><path d="M296.32,551.58c-9.61-14-30.75-12.46-51.38-4.9,10.34-1.31,20.11-1.12,28.7,1.06a29,29,0,0,1-3.28,17.6,39.09,39.09,0,0,1-4.09,6.15c5.87-3.65,10.41-7.82,12.86-12.44a17.71,17.71,0,0,0,1.83-5.32,34.64,34.64,0,0,1,2.24,20.66,46.27,46.27,0,0,1-2.48,8.49c5.41-6.26,9.12-12.65,10.27-18.82a21,21,0,0,0,.07-7.58,38.28,38.28,0,0,1,6.57,7.33,44,44,0,0,1,4.2,7.68C301.58,563.65,299.88,556.76,296.32,551.58Z" transform="translate(-76.48 -17.12)" fill="#ff9e2e"/><path d="M298,563.12a15,15,0,0,0-6.92-6.64,38.28,38.28,0,0,1,6.57,7.33,44,44,0,0,1,4.2,7.68C300.65,568.74,299.09,565.14,298,563.12Z" transform="translate(-76.48 -17.12)" fill="#d04000" opacity="0.4"/><path d="M280.72,582.88c1.12-2.85,3.14-6.28,3.77-8.53,1.4-5,1.51-13.73-3.53-20.62a34.64,34.64,0,0,1,2.24,20.66A46.27,46.27,0,0,1,280.72,582.88Z" transform="translate(-76.48 -17.12)" fill="#d04000" opacity="0.4"/><path d="M270.36,565.34c3.09-5.83,6.22-12.85,5.47-18.72-8.59-2.17-20.55-1.25-30.89.06,10.34-1.31,20.11-1.12,28.7,1.06A29,29,0,0,1,270.36,565.34Z" transform="translate(-76.48 -17.12)" fill="#d04000" opacity="0.4"/><path d="M296.32,551.58c-6.43-9.35-18-11.76-31.14-10.07,13.19.1,25,4.43,30.77,12.78,3.56,5.18,5.63,9.36,5.88,17.2C301.58,563.65,299.88,556.76,296.32,551.58Z" transform="translate(-76.48 -17.12)" fill="#fff" opacity="0.4"/><path d="M283.45,495c1.27,11,12.76,17.93,22.87,13.41l.68-.31a62.05,62.05,0,0,0,20.85-17.76c7.41-10.5,6.72-22.18-3.77-29.59s-26.82-7.73-34.23,2.77C285.11,470.19,282.18,484,283.45,495Z" transform="translate(-76.48 -17.12)" fill="#6a4f4d"/><path d="M296.94,464.72a24.74,24.74,0,0,1,12.84-9.25c-7.73-.73-15.46,1.66-19.93,8-4.74,6.72-7.67,20.5-6.4,31.48a16.69,16.69,0,0,0,4.84,10C287,490.64,290.86,473.32,296.94,464.72Z" transform="translate(-76.48 -17.12)" fill="#ffe7d4" opacity="0.2"/><path d="M331.05,468.64a33.86,33.86,0,0,1-5.26,14.87A80.13,80.13,0,0,1,300.18,508l-.85.47a22.12,22.12,0,0,1-2.3,1,15.75,15.75,0,0,0,9.29-1.15l.68-.31a62.05,62.05,0,0,0,20.85-17.76C333,483,334.22,475.22,331.05,468.64Z" transform="translate(-76.48 -17.12)" opacity="0.3"/><path d="M450.9,257a30.31,30.31,0,0,0,7.57-18.74c1-19.5-17.27-38.84-41-38.8a42.62,42.62,0,0,0-12.6,1.88c-12.55-10.92-25.7-19.09-39-23.26a36.6,36.6,0,0,1,11.43-5.28,47.71,47.71,0,0,1,8.93-1.5c-8.19-2.19-15.73-2.75-21.93-1.07l-.69.22a72.24,72.24,0,0,1,10.83-15.25,78.34,78.34,0,0,1,11.79-10.33c-13.16,2.92-24.32,8.28-32.07,16.63A43.19,43.19,0,0,0,345.8,175h-.2c-5.54-6.38-13.12-9.93-23.16-9.3-9.46.6-20.35,4.87-31.8,11.63a77.92,77.92,0,0,1,13.42-2.13,49.54,49.54,0,0,1,22.5,3.43c-59.9,22.18-93.49,140.46-93.49,205.88,0,72.41,41.14,124,113.54,124s148.65-51.61,148.65-124C495.26,349.55,477.46,299.46,450.9,257Z" transform="translate(-76.48 -17.12)" fill="#6a4f4d"/><path d="M312.86,196.17c-38-.07-67.29,31-65.73,62.26,1.52,31.48,30.81,51.82,65.73,51.92,34.91-.1,64.21-20.44,65.73-51.92C380.15,227.14,350.87,196.1,312.86,196.17Z" transform="translate(-76.48 -17.12)" fill="#6a4f4d"/><path d="M318.52,199.47a78.12,78.12,0,0,1,25.78,4.3,68,68,0,0,0-31.44-7.6c-31.55-.06-57.08,21.31-64,46.47C260.16,218.41,286.67,199.41,318.52,199.47Z" transform="translate(-76.48 -17.12)" fill="#ffe7d4" opacity="0.2"/><path d="M317.58,196.33c3-6.78,5.66-12.62,7.9-17.28-9.84,3.86-19,10.31-27.33,18.69a68.22,68.22,0,0,1,14.71-1.57C314.45,196.17,316,196.22,317.58,196.33Zm-11.87,262a209.4,209.4,0,0,0,8.38,22.06c-15.76-17-29.66-48.33-33.64-75.93-2.58-17.84-2.07-35.12,1.27-50.29Q279.64,360,278.07,366a127.45,127.45,0,0,0-3.42,45.36c-11.43-24.47-6.14-66,4.92-108-11.91-5.46-21.49-13.94-27.08-24.75-12.73,37-19.42,76.72-19.42,105.91,0,72.41,41.14,124,113.54,124q6.93,0,13.88-.62C337.12,498.16,318.68,481,305.71,458.38Z" transform="translate(-76.48 -17.12)" fill="#ffe7d4" opacity="0.2"/><path d="M325.23,179.15c-9.75,3.87-18.78,10.28-27.08,18.59a67.39,67.39,0,0,1,9.84-1.4A109.34,109.34,0,0,1,325.23,179.15ZM250.11,380.48c0-24.56,4.47-56.35,13.05-88a50.71,50.71,0,0,1-10.67-13.92c-12.73,37-19.42,76.72-19.42,105.91,0,72.41,41.14,124,113.54,124q6.13,0,12.28-.5C289.45,505.76,250.11,453.35,250.11,380.48Z" transform="translate(-76.48 -17.12)" fill="#ffe7d4" opacity="0.2"/><path d="M318.52,199.47a78.12,78.12,0,0,1,25.78,4.3,68,68,0,0,0-31.44-7.6c-31.55-.06-57.08,21.31-64,46.47C260.16,218.41,286.67,199.41,318.52,199.47Z" transform="translate(-76.48 -17.12)" fill="#ffe7d4" opacity="0.2"/><path d="M404.92,201.37a132,132,0,0,0-23.72-16.73,199.69,199.69,0,0,1,18,19A41.58,41.58,0,0,1,404.92,201.37Zm46,55.67a37.12,37.12,0,0,1-11.57,8.72,379.29,379.29,0,0,1,19.2,45.2c12.76,9,22.85,24,27.08,42.72,4.17,18.46,1.84,36.94-5.29,51.8a128.21,128.21,0,0,0-2.65-40.14q-1.21-5.35-2.83-10.42a143.26,143.26,0,0,1,1,44.5c-3.08,24.42-13.86,52.14-26.06,67.18a205.65,205.65,0,0,0,7.76-24.28c-14.78,26.13-38.8,46.89-66.44,59.93C447.16,486.41,495.26,442,495.26,384.52,495.26,349.55,477.46,299.47,450.9,257Z" transform="translate(-76.48 -17.12)" opacity="0.3"/><path d="M421,201.55a48.58,48.58,0,0,1,16.06,2.68,42.36,42.36,0,0,0-19.58-4.74c-19.66,0-35.57,13.28-39.85,29C384.69,213.35,401.2,201.52,421,201.55Z" transform="translate(-76.48 -17.12)" fill="#ffe7d4" opacity="0.2"/><path d="M437.28,207.16c-28.25,0-50,23-48.86,46.28S411.33,292,437.28,292c26-.08,47.73-15.2,48.86-38.6S465.54,207.11,437.28,207.16Z" transform="translate(-76.48 -17.12)" fill="#ffe7d4"/><path d="M443.54,207.53c20.79,6.2,35.23,25.12,34.28,44.18-1.13,23.4-22.91,38.52-48.86,38.6a63.89,63.89,0,0,1-8.6-.61A62.58,62.58,0,0,0,437.28,292c26-.08,47.73-15.2,48.86-38.6C487.22,231.93,468.68,210.59,443.54,207.53Z" transform="translate(-76.48 -17.12)" fill="#e75400" opacity="0.2"/><path d="M306.54,204.47c-38-.06-67.29,31-65.73,62.27,1.52,31.47,30.82,51.81,65.73,51.92,34.92-.11,64.21-20.45,65.73-51.92C373.83,235.44,344.55,204.41,306.54,204.47Z" transform="translate(-76.48 -17.12)" fill="#ffe7d4"/><path d="M297.26,327.33c-14.73-1.65-27.92-7.6-37.76-16.77,7.94,12.86,22.11,21.39,38.68,23.24,19.52,2,37.78-5.68,47.83-20.74C333.3,324.05,315.74,329.26,297.26,327.33Z" transform="translate(-76.48 -17.12)" opacity="0.3"/><path d="M483,323.36c-.44-1.24-.89-2.48-1.34-3.73a53,53,0,0,1-21,7.13,51,51,0,0,1-31.39-6.13c8.21,8.33,20.38,12.32,33.2,10.85A42.43,42.43,0,0,0,483,323.36Z" transform="translate(-76.48 -17.12)" opacity="0.3"/><path d="M322.59,313.59c-34.91-.12-64.21-21.67-65.73-55-.82-17.42,6.88-34.77,19.88-47.3-22.37,10.83-37.05,33.09-35.93,55.48,1.52,31.47,30.82,51.81,65.73,51.92a80.73,80.73,0,0,0,33.11-6.91A81.37,81.37,0,0,1,322.59,313.59Z" transform="translate(-76.48 -17.12)" fill="#e75400" opacity="0.2"/><path d="M338.24,256.14a10,10,0,0,1,.06,1.09,10.93,10.93,0,1,1-10.93-10.92,10.73,10.73,0,0,1,2.55.31,19.25,19.25,0,1,0,8.32,9.52Z" transform="translate(-76.48 -17.12)" fill="#51364d"/><path d="M306.62,281a5.22,5.22,0,1,0-5.21-5.21A5.22,5.22,0,0,0,306.62,281Z" transform="translate(-76.48 -17.12)" fill="#fff"/><path d="M299.79,282.6a1.63,1.63,0,1,0-1.63-1.63A1.63,1.63,0,0,0,299.79,282.6Z" transform="translate(-76.48 -17.12)" fill="#fff"/><path d="M408.44,255.29l.48-.1a4.93,4.93,0,1,1-4.13,5.61,5,5,0,0,1,0-1.16,8.57,8.57,0,0,0-.48,4.43,8.68,8.68,0,1,0,4.16-8.78Z" transform="translate(-76.48 -17.12)" fill="#51364d"/><path d="M407.84,271.67a2.26,2.26,0,1,0-2.26-2.26A2.26,2.26,0,0,0,407.84,271.67Z" transform="translate(-76.48 -17.12)" fill="#fff"/><path d="M404.88,272.37a.7.7,0,1,0-.7-.7A.7.7,0,0,0,404.88,272.37Z" transform="translate(-76.48 -17.12)" fill="#fff"/><path d="M349.26,321.58c-.21.1-20.29,28.15,10.14,24.74,13.09-1.46,73-33.83,73-33.83S380.68,309.4,349.26,321.58Z" transform="translate(-76.48 -17.12)" fill="#ff9e2e"/><path d="M414,322.19c10.63-5.47,18.47-9.7,18.47-9.7s-51.76-3.09-83.18,9.09C363.91,318.16,388,319.33,414,322.19Z" transform="translate(-76.48 -17.12)" opacity="0.1"/><path d="M361,342.17c-17.12,1.91-18.25-6.13-15.93-13.54-3.81,8.09-6.14,20,14.29,17.69,7-.78,27.2-10.31,44.6-19.05C384.77,334.83,366.56,341.55,361,342.17Z" transform="translate(-76.48 -17.12)" opacity="0.1"/><path d="M472.21,264.65c-15.19-12.3-37.79,37.29-64.76,24.28s-58,32.72-58.19,32.65c36.75-8.56,108.86-.08,145.61,3.64C495.09,325,484.08,273.89,472.21,264.65Z" transform="translate(-76.48 -17.12)" fill="#ff9e2e"/><path d="M389.37,295.83s-2.72,3.06.89,3c1.56,0,9-3.09,9-3.09S393.21,294.78,389.37,295.83Z" transform="translate(-76.48 -17.12)" opacity="0.2"/><path d="M366.29,49.34a78.28,78.28,0,0,1,4.47,32C367,63.13,358.9,46.12,346,32.32q-2.31-2.47-4.73-4.69c6,6.91,10.57,15.75,13.5,25.62-8.8-14.11-20.63-25-35.25-30.58l-.1,0a34,34,0,0,0-17.36-1.83,103.78,103.78,0,0,0-31.23,10.1A73.53,73.53,0,0,1,285,20.11a106.48,106.48,0,0,0-40.18,21.12,74.65,74.65,0,0,1,25.73-24.11c-28.8,7.85-50.28,27.38-60.15,50a101.79,101.79,0,0,1,4-19.89,66,66,0,0,0-11.61,45,77,77,0,0,0,2.42,12.93c.33,2,.75,3.93,1.28,5.88,11.14,41.53,52.3,67.46,92.56,66.13,40.15-1.79,75.61-34.78,79.26-81.93A72.33,72.33,0,0,0,366.29,49.34Z" transform="translate(-76.48 -17.12)" fill="#617f00"/><path d="M341.28,27.63c.54.63,1.06,1.29,1.59,1.94l.77.31C342.86,29.11,342.07,28.36,341.28,27.63Zm-21.85-5a34,34,0,0,0-17.36-1.83,103.78,103.78,0,0,0-31.23,10.1A73.53,73.53,0,0,1,285,20.11a106.48,106.48,0,0,0-40.18,21.12,74.65,74.65,0,0,1,25.73-24.11c-28.8,7.85-50.28,27.38-60.15,50a101.79,101.79,0,0,1,4-19.89,66,66,0,0,0-11.61,45,77,77,0,0,0,2.42,12.93c.33,2,.75,3.93,1.28,5.88a84.06,84.06,0,0,0,14.54,29.39,75,75,0,0,1-5.38-36.62,117.9,117.9,0,0,0,6.88,22c-2.68-27.82,7.67-58.63,31.53-81.64a83.07,83.07,0,0,0-12,37.63,116.4,116.4,0,0,1,27.74-42.24,81.4,81.4,0,0,0-7.95,18.24,112.28,112.28,0,0,1,25-26.53,37,37,0,0,1,18-7.3h.11a70.35,70.35,0,0,1,18.28.22c-1.21-.56-2.44-1.09-3.69-1.57Z" transform="translate(-76.48 -17.12)" fill="#fff" opacity="0.3"/><path d="M233.27,305.48c118-85.73,186.73-73.3,263.5-38.57,0-.86.06-1.71.07-2.58.61-70.64-81.07-167.65-156.79-170.64s-116.83,89.2-117.44,159.84C222.42,275.06,226,292.1,233.27,305.48Z" transform="translate(-76.48 -17.12)" fill="#00718b"/><path d="M496.84,264.33c.47-55-48.91-125.94-106.54-156.1,45.12,36.55,79.79,97.62,79.9,147.58,8.81,3.32,17.64,7.06,26.57,11.1C496.8,266.05,496.83,265.2,496.84,264.33Z" transform="translate(-76.48 -17.12)" opacity="0.1"/><path d="M222.61,253.53c-.19,21.53,3.42,38.57,10.66,52,4.5-3.27,8.91-6.37,13.27-9.36-4.37-13.1-6.39-28.92-5.95-47.94,1-45.63,15.92-99.57,43.06-136.37C244.11,141.75,223,203.12,222.61,253.53Z" transform="translate(-76.48 -17.12)" fill="#fff" opacity="0.3"/><path d="M368.86,114.05a283.37,283.37,0,0,1,44.92,100.14q6.36.69,12.66,1.72C415.34,178.88,394.44,142,368.86,114.05Z" transform="translate(-76.48 -17.12)" opacity="0.1"/><path d="M356.53,215.13q5.55-.8,11-1.3c-3.68-37.68-14.91-76.28-31.54-108A322.87,322.87,0,0,1,356.53,215.13Z" transform="translate(-76.48 -17.12)" opacity="0.1"/><path d="M304.16,137.15c-12.14,30-18.77,64.92-18.86,98.51q5.13-2.17,10.17-4.14A285.39,285.39,0,0,1,304.16,137.15Z" transform="translate(-76.48 -17.12)" opacity="0.1"/><path d="M513.85,254.17a15.62,15.62,0,0,1-7.92,1.73,19.1,19.1,0,0,0,.16-7.27,28.29,28.29,0,0,0-17.67-20.45,365,365,0,0,0-34.87-11.37,15.47,15.47,0,0,0-7.92-7.54,15.46,15.46,0,0,1,5,6.78A245.07,245.07,0,0,0,390.78,208a15.67,15.67,0,0,0,.94-9.37A15.75,15.75,0,0,1,388,208c-2.64,0-5.31.08-8,.19a15.46,15.46,0,0,0-9.85-6.11,15.69,15.69,0,0,1,6.92,6.25C332.18,210.77,282.7,226.83,222.9,264a19.65,19.65,0,0,0-9.17,19.46,105.48,105.48,0,0,0,4.82,20.31,10,10,0,0,0,3.44,4.71,15.35,15.35,0,0,0-1.45,12.57,16,16,0,0,1,3.92-11.2,9.78,9.78,0,0,0,9.72-1.08c118.11-94.24,259.9-39.53,262.86-38.28,2.6,1.09,6.61-5.48,8.4-12.41A15.6,15.6,0,0,0,513.85,254.17Z" transform="translate(-76.48 -17.12)" opacity="0.3"/><path d="M513.85,254.17a15.62,15.62,0,0,1-7.92,1.73,19.1,19.1,0,0,0,.16-7.27,28.29,28.29,0,0,0-17.67-20.45,365,365,0,0,0-34.87-11.37,15.47,15.47,0,0,0-7.92-7.54,15.46,15.46,0,0,1,5,6.78A245.07,245.07,0,0,0,390.78,208a15.67,15.67,0,0,0,.94-9.37A15.75,15.75,0,0,1,388,208c-2.64,0-5.31.08-8,.19a15.46,15.46,0,0,0-9.85-6.11,15.69,15.69,0,0,1,6.92,6.25C332.18,210.77,282.7,226.83,222.9,264a19.65,19.65,0,0,0-9.17,19.46,105.48,105.48,0,0,0,4.82,20.31,10,10,0,0,0,3.44,4.71,15.35,15.35,0,0,0-1.45,12.57,16,16,0,0,1,3.92-11.2,10.36,10.36,0,0,0,9.72-1.08c110.8-76,181-71,254-41.93q4.44,1.77,8.88,3.65c2.6,1.09,6.61-5.48,8.4-12.41A15.6,15.6,0,0,0,513.85,254.17Z" transform="translate(-76.48 -17.12)" fill="#2ba0da"/><path d="M213.73,283.46a108.51,108.51,0,0,0,3.74,17c-1.06-10.5,3.3-21.24,11.11-27.19,52.49-39.07,97.53-57.84,138.4-64.14-42.21,4.18-88.72,20.49-144.08,54.9A19.65,19.65,0,0,0,213.73,283.46Z" transform="translate(-76.48 -17.12)" fill="#fff" opacity="0.3"/><path d="M276.92,375.48a176.32,176.32,0,0,0-96.09-37.06c-27.49-2.06-58.12,5.38-84,23.47.9,1.63,1.8,3.23,2.69,4.84a133.43,133.43,0,0,0-23,14.23l4.59,7.42a135.29,135.29,0,0,1,22.62-14.14q2.84,5.08,5.58,10.07A132.64,132.64,0,0,0,87.3,398l4.58,7.41a135.78,135.78,0,0,1,21.53-13.58c1.83,3.32,3.61,6.6,5.37,9.83a132.73,132.73,0,0,0-20.54,13q2.31,3.74,4.58,7.42a135.62,135.62,0,0,1,20.05-12.82c1.61,3,3.2,6,4.73,8.89a96.49,96.49,0,0,1,81.74-21.07c26.8,5.23,52.9,18.59,74.75,40.15A441.77,441.77,0,0,0,276.92,375.48Z" transform="translate(-76.48 -17.12)" fill="#ff5117"/><path d="M202.16,394.3a97.37,97.37,0,0,0-76.41,20.34c.62,1.16,1.25,2.33,1.85,3.48a96.49,96.49,0,0,1,81.74-21.07c3.84.75,7.65,1.68,11.45,2.76l0-1.31A137.62,137.62,0,0,0,202.16,394.3Z" transform="translate(-76.48 -17.12)" opacity="0.1"/><path d="M180.83,338.42c-27.49-2.06-58.12,5.38-84,23.47l.94,1.7a133,133,0,0,1,84.52-23.14A179.67,179.67,0,0,1,277,376c0-.18-.07-.36-.1-.54A176.32,176.32,0,0,0,180.83,338.42ZM284.08,437q-1.89-1.75-3.8-3.43c1.28,1.19,2.55,2.39,3.81,3.63A1.34,1.34,0,0,1,284.08,437Z" transform="translate(-76.48 -17.12)" fill="#fff" opacity="0.3"/><path d="M459.23,387c-57.18-20.29-240.09-39.8-240.09-39.8l3.75,48.14L504.7,437.08l13.24-33.63Z" transform="translate(-76.48 -17.12)" fill="#e63800"/><path d="M280.15,409.68,223.06,382.6l-3.33,59.51,60,24.78c42.11,17.38,100.63,26.51,146.94,18.49l49-5.95,18.35-49.28-105.71,2.43A238.49,238.49,0,0,1,280.15,409.68Z" transform="translate(-76.48 -17.12)" fill="#ff5117"/><path d="M287.56,347.53,222,324.09l2.46,59.71L293,404.75c48.13,14.7,113.48,20.1,163.62,9.14L510,404.83l13.56-58.65L409,363.55A291.89,291.89,0,0,1,287.56,347.53Z" transform="translate(-76.48 -17.12)" fill="#ff5117"/><path d="M523.52,346.18l-108.7,16.48,103.23-8.49-3.24,29.67Z" transform="translate(-76.48 -17.12)" fill="#fff" opacity="0.3"/><path d="M287.56,347.53,222,324.09l2.46,59.71,5.89,1.8-4.06-53.7,66.49,20.77a292.39,292.39,0,0,0,112.81,12.08,161.32,161.32,0,0,0,16.72-2.38l20.75-4-34,5.16A291.89,291.89,0,0,1,287.56,347.53Z" transform="translate(-76.48 -17.12)" fill="#fff" opacity="0.3"/><path d="M280.15,409.68,223.06,382.6l-1.69,30.21,61.41,22.93c47.16,17.62,111.85,27.37,162.18,20.13l41-4,8.1-21.75-105.71,2.43A238.49,238.49,0,0,1,280.15,409.68Z" transform="translate(-76.48 -17.12)" opacity="0.1"/><path d="M282.59,376.27,219.14,347.2l-1.88,60L283.88,434c46.73,18.82,111.22,29.82,161.8,23.13l53.6-4.51,18.66-49.18L402,402.68A290.71,290.71,0,0,1,282.59,376.27Z" transform="translate(-76.48 -17.12)" fill="#ff5117"/><path d="M510.34,419.4c-10.69,18.76-28.94,31.06-48.8,32.9l-24.93,2.3c-37.84,5-83.46.11-123.6-10.55,42.22,12.39,91.95,18.48,132.67,13.09l53.6-4.51L515,411.25Z" transform="translate(-76.48 -17.12)" opacity="0.1"/><path d="M222.53,354,288,383.66c38,17,89,20.93,138.35,19.18l-24.3-.16a290.71,290.71,0,0,1-119.42-26.41L219.14,347.2l-1.73,55.25Z" transform="translate(-76.48 -17.12)" fill="#fff" opacity="0.3"/><g opacity="0.4"><path d="M411.34,340.2c.12,0-4.21,5.91-4.52,8.33s1.82,4.39,4.52,4.39,4.72-2,4.52-4.39S411.22,340.2,411.34,340.2Z" transform="translate(-76.48 -17.12)" fill="#f0ebe1" fill-rule="evenodd"/></g><path d="M408.59,350.85a.53.53,0,0,1-.36-.66.54.54,0,0,1,.67-.35.53.53,0,0,1-.31,1Zm1.64-1.07a.89.89,0,0,1-.6-1.12.91.91,0,0,1,1.75.52A.92.92,0,0,1,410.23,349.78Z" transform="translate(-76.48 -17.12)" fill="#fff" fill-rule="evenodd" opacity="0.3"/><g opacity="0.4"><path d="M325.74,337c.11,0-4.21,5.91-4.52,8.33s1.83,4.38,4.52,4.38,4.72-2,4.52-4.38S325.62,337,325.74,337Z" transform="translate(-76.48 -17.12)" fill="#f0ebe1" fill-rule="evenodd"/></g><path d="M323,347.6a.54.54,0,0,1-.35-.66.53.53,0,0,1,.66-.35.54.54,0,0,1,.35.66.53.53,0,0,1-.66.35Zm1.65-1.07a.9.9,0,1,1,1.14-.61A.9.9,0,0,1,324.64,346.53Z" transform="translate(-76.48 -17.12)" fill="#fff" fill-rule="evenodd" opacity="0.3"/><g opacity="0.4"><path d="M379.34,261.11c.11,0-4.21,5.91-4.52,8.33s1.82,4.38,4.52,4.38,4.72-2,4.52-4.38S379.22,261.11,379.34,261.11Z" transform="translate(-76.48 -17.12)" fill="#f0ebe1" fill-rule="evenodd"/></g><path d="M376.59,271.75a.52.52,0,0,1-.35-.65.52.52,0,1,1,1,.3.51.51,0,0,1-.65.35Zm1.65-1.06a.91.91,0,1,1,1.13-.61A.9.9,0,0,1,378.24,270.69Z" transform="translate(-76.48 -17.12)" fill="#fff" fill-rule="evenodd" opacity="0.3"/><path d="M378.52,318.15l-53.49,63a10,10,0,0,0-1.76,3.1,9.53,9.53,0,0,0-.5,3.44,9.75,9.75,0,0,0,.21,1.71,8.68,8.68,0,0,0,.52,1.64,8.44,8.44,0,0,0,.82,1.5,8.92,8.92,0,0,0,1.13,1.34,7.83,7.83,0,0,0,6,2.18,8.17,8.17,0,0,0,3.13-.88,8.72,8.72,0,0,0,2.7-2.18l63.22-75C392.93,317.82,385.52,317.86,378.52,318.15Z" transform="translate(-76.48 -17.12)" fill="#b5dee1"/><path d="M386.69,317.92,329.92,385a2.63,2.63,0,0,0-.28.4,3,3,0,0,0-.2.45,2.31,2.31,0,0,0-.11.47,2.37,2.37,0,0,0,0,.47,2.42,2.42,0,0,0,.06.46,3,3,0,0,0,.14.45,4.1,4.1,0,0,0,.22.41,2.67,2.67,0,0,0,.31.36,2.29,2.29,0,0,0,.78.48,2,2,0,0,0,.87.12,2.17,2.17,0,0,0,.86-.24,2.41,2.41,0,0,0,.74-.59l59.42-70.35C390.68,317.88,388.67,317.89,386.69,317.92Z" transform="translate(-76.48 -17.12)" fill="#992945"/><path d="M381,318.06l-54.62,64.4a8.15,8.15,0,0,0-.82,1.16,8.4,8.4,0,0,0-.55,1.27,8.75,8.75,0,0,0-.32,1.32,8.89,8.89,0,0,0-.08,1.35,10.38,10.38,0,0,0,.17,1.35,6.71,6.71,0,0,0,.41,1.27,5.78,5.78,0,0,0,.64,1.17,7.24,7.24,0,0,0,.87,1,5.87,5.87,0,0,0,2.23,1.37,6.21,6.21,0,0,0,2.49.34,6.45,6.45,0,0,0,2.44-.7,6.8,6.8,0,0,0,2.11-1.7l62.22-73.78C392.3,317.84,386.54,317.88,381,318.06Z" transform="translate(-76.48 -17.12)" fill="#fff" opacity="0.3"/><path d="M406.1,288.34c-.36-.15-.72-.29-1.07-.41l-.28-.1-1.05-.33-.27-.07c-.28-.08-.55-.15-.83-.21l-.38-.09-.91-.17-.51-.09-.63-.08-.82-.09-.36,0-1.21-.05h-.15c-.74,0-1.49,0-2.23.07,2,10.8,12,10.86,21.74,10.34A30.88,30.88,0,0,0,434,290.71c5.61-4.21,31.07-10.36,23.52,6.17-1.74,3.81-2.44,7.31,1,9.75,6.33,3.41,15.1,5.36,15.59,13.15a28.26,28.26,0,0,1-.48,3.26c7.86.79,15.05,1.55,21.23,2.18.21-.18-10.11-48.16-21.54-59.57a12.42,12.42,0,0,0-1.12-1c-15.19-12.3-37.79,37.29-64.76,24.28q-.57-.27-1.14-.51Z" transform="translate(-76.48 -17.12)" fill="#b9000f" opacity="0.3"/><path d="M472.21,264.65c-15.19-12.3-37.79,37.29-64.76,24.28-13.89-6.69-28.85,2.17-40.13,12.34,12.32-8.09,27.9-14.2,40-8.36,27,13,47.93-23,63.12-10.68,11.87,9.24,24.66,42.81,24.44,43C495.09,325,484.08,273.89,472.21,264.65Z" transform="translate(-76.48 -17.12)" fill="#fff" opacity="0.4"/><path d="M472.21,264.65c-15.19-12.3-37.79,37.29-64.76,24.28-12.52-6-25.92.58-36.7,9.39,11.58-7.92,25.25-13.4,37.16-7.66,27,13,46.09-32.81,63.34-24,5.65,2.87,10.77,13.67,14.78,25.24C482.1,280,477.24,268.57,472.21,264.65Z" transform="translate(-76.48 -17.12)" fill="#fff" opacity="0.2"/><path d="M487.21,295.5c0,5.47-.09,10.55-.23,14.67a9.84,9.84,0,0,1-10.32,9.48c-11.77-.57-27.72-.64-45.45-.29,15.74,1.08,26.55,3.5,34.09,6.25,4.85,1.77,2.67,26.32,3.86,23.41,12.59-30.53,12.32-4.8,25.71-23.8A283.6,283.6,0,0,0,487.21,295.5Z" transform="translate(-76.48 -17.12)" fill="#44a200" opacity="0.4"/><path d="M470.59,341.1c-1.2,2.91-.44-13.72-5.29-15.49,4.85,1.77,2.67,26.32,3.86,23.41,12.59-30.53,12.32-4.8,25.71-23.8C481.48,344.22,483.18,310.57,470.59,341.1Z" transform="translate(-76.48 -17.12)" fill="#fff" opacity="0.3"/></g></svg>