<svg xmlns="http://www.w3.org/2000/svg" xmlns:xlink="http://www.w3.org/1999/xlink" viewBox="0 0 413.79 536.76"><defs><clipPath id="a" transform="translate(-93.11 -31.62)"><rect width="600" height="600" fill="none"/></clipPath></defs><g clip-path="url(#a)"><path d="M282.19,507.41c88.89,0,208.19,20.11,208.19,27.34s-119.3,13.09-208.19,13.09S93.11,542,93.11,534.75,193.29,507.41,282.19,507.41Z" transform="translate(-93.11 -31.62)" opacity="0.1"/><path d="M343.32,371.57a86.42,86.42,0,0,1,5.36,24.5c-2.69,11.1-8.95,19.76-20.18,23.74a40.39,40.39,0,0,1-7,1.76c6.61,1.08,12.63,1,17.47-.74a17.28,17.28,0,0,0,8.67-6.54c-.42,2.27-.95,4.53-1.59,6.8a82.56,82.56,0,0,1-6.27,15.58c10.3-8.58,18-18.14,21.79-28.53.31,14.63-2,27.41-8.05,36.56a86.91,86.91,0,0,1-11.39,13.71c14.48-5.63,26.16-13.65,33.32-24.42a25.25,25.25,0,0,0,2.27-4.24c4.16,20.92,4.17,39.89-2.33,54.36a119.07,119.07,0,0,1-12,20.73c17.62-10.79,31.15-24.09,38.27-39.95,4.94-11,4.23-25.47-.29-41.65,22.66,32.48,47.13,59.35,66,63.89,13.9,3.33,27.22.8,39.52-5.93a88.79,88.79,0,0,1-18.76-2.46c-26.27-6.3-61.32-42.45-92.16-81.77,8.73,6.71,16.94,11.15,24.18,12.41,14,2.45,27.12-.94,39-8.47a87.8,87.8,0,0,1-18.8-1.26c-20.79-3.63-48-25.32-74.59-52.57Z" transform="translate(-93.11 -31.62)" fill="#d03942"/><polygon points="100.02 418.89 134.4 490.98 131.58 492.4 89.19 418.89 100.02 418.89" fill="#787878"/><polygon points="132.82 491.77 131.58 492.4 89.19 418.89 132.82 491.77" fill="#fff" opacity="0.4"/><polygon points="113.49 456.12 116.42 455.01 100.02 418.89 127.48 476.45 127.48 476.45 127.83 477.2 127.83 477.2 130.65 483.1 130.65 483.1 130.88 483.59 134.4 490.98 133.05 491.66 129.46 483.74 128.85 483.78 129.38 483.58 126.53 477.28 125.01 477.39 126.34 476.88 124.17 472.1 122.02 472.24 123.91 471.53 121.7 466.65 118.47 466.87 121.31 465.8 119.26 461.28 116.13 461.49 118.89 460.45 116.82 455.89 113.49 456.12" opacity="0.4"/><path d="M189.66,439.94c10.18-3.63,23.49-.2,27.12,10,2.33,6.53,1.58,18.36-1.93,27s-14.4,11.64-21.57,5.7l-.48-.41a52.1,52.1,0,0,1-12.88-19.11C176.29,452.89,179.48,443.57,189.66,439.94Z" transform="translate(-93.11 -31.62)" fill="#d03942"/><path d="M197.49,480.9l.82.7a23,23,0,0,0,6.42,3.77,13.38,13.38,0,0,1-11.45-2.78l-.48-.41a52.1,52.1,0,0,1-12.88-19.11,23.06,23.06,0,0,1-1.44-7.84C182.83,464,189.74,473.94,197.49,480.9Z" transform="translate(-93.11 -31.62)" fill="#ffe7d4" opacity="0.2"/><path d="M193.88,531.45c10.73-15.61,34.33-13.91,57.38-5.48-11.55-1.46-22.46-1.24-32,1.19a32.27,32.27,0,0,0,3.66,19.66,43.52,43.52,0,0,0,4.57,6.86c-6.56-4.07-11.62-8.73-14.36-13.89a19.9,19.9,0,0,1-2.05-5.94,38.7,38.7,0,0,0-2.5,23.07,51.56,51.56,0,0,0,2.77,9.48c-6-7-10.18-14.13-11.47-21a23.45,23.45,0,0,1-.07-8.47,42.58,42.58,0,0,0-7.35,8.19,49.7,49.7,0,0,0-4.68,8.57C188,544.93,189.9,537.23,193.88,531.45Z" transform="translate(-93.11 -31.62)" fill="#787878"/><path d="M192,544.33a16.77,16.77,0,0,1,7.74-7.41,42.58,42.58,0,0,0-7.35,8.19,49.7,49.7,0,0,0-4.68,8.57C189.05,550.61,190.78,546.58,192,544.33Z" transform="translate(-93.11 -31.62)" opacity="0.4"/><path d="M211.3,566.4c-1.25-3.18-3.5-7-4.21-9.53-1.57-5.62-1.68-15.33,3.94-23a38.7,38.7,0,0,0-2.5,23.07A51.56,51.56,0,0,0,211.3,566.4Z" transform="translate(-93.11 -31.62)" opacity="0.4"/><path d="M222.87,546.82c-3.45-6.52-7-14.36-6.11-20.91,9.59-2.42,23-1.4,34.5.06-11.55-1.46-22.46-1.24-32,1.19A32.27,32.27,0,0,0,222.87,546.82Z" transform="translate(-93.11 -31.62)" opacity="0.4"/><path d="M187.73,553.68c.28-8.75,2.58-13.42,6.56-19.2,6.41-9.32,19.63-14.16,34.36-14.28-14.66-1.88-27.59.81-34.77,11.25C189.9,537.23,188,544.93,187.73,553.68Z" transform="translate(-93.11 -31.62)" fill="#fff" opacity="0.4"/><polygon points="236.99 420.87 271.37 492.96 268.55 494.38 226.16 420.87 236.99 420.87" fill="#787878"/><polygon points="269.79 493.75 268.55 494.38 226.16 420.87 269.79 493.75" fill="#fff" opacity="0.4"/><polygon points="250.46 458.1 253.38 456.99 236.99 420.87 264.44 478.43 264.44 478.43 264.8 479.17 264.8 479.17 267.62 485.08 267.62 485.08 267.85 485.57 271.37 492.96 270.02 493.64 266.42 485.72 265.81 485.76 266.35 485.56 263.49 479.26 261.98 479.37 263.31 478.86 261.14 474.08 258.99 474.22 260.88 473.51 258.67 468.63 255.44 468.85 258.28 467.77 256.23 463.26 253.09 463.47 255.85 462.43 253.78 457.87 250.46 458.1" opacity="0.4"/><path d="M390.27,533.43c-10.73-15.62-34.33-13.91-57.38-5.48,11.55-1.46,22.46-1.24,32.05,1.18a32.25,32.25,0,0,1-3.66,19.66,43.14,43.14,0,0,1-4.57,6.87c6.56-4.07,11.62-8.73,14.36-13.9a19.75,19.75,0,0,0,2.05-5.93,38.7,38.7,0,0,1,2.5,23.07,51.79,51.79,0,0,1-2.77,9.48c6-7,10.18-14.13,11.47-21a23.45,23.45,0,0,0,.07-8.47,42.28,42.28,0,0,1,7.35,8.19,49.7,49.7,0,0,1,4.68,8.57C396.14,546.91,394.25,539.21,390.27,533.43Z" transform="translate(-93.11 -31.62)" fill="#787878"/><path d="M392.13,546.31a16.73,16.73,0,0,0-7.74-7.41,42.28,42.28,0,0,1,7.35,8.19,49.7,49.7,0,0,1,4.68,8.57C395.1,552.59,393.37,548.56,392.13,546.31Z" transform="translate(-93.11 -31.62)" opacity="0.4"/><path d="M372.85,568.38c1.25-3.18,3.5-7,4.21-9.53,1.57-5.62,1.68-15.33-3.94-23a38.7,38.7,0,0,1,2.5,23.07A51.79,51.79,0,0,1,372.85,568.38Z" transform="translate(-93.11 -31.62)" opacity="0.4"/><path d="M361.28,548.79c3.45-6.51,7-14.35,6.11-20.9-9.59-2.43-22.95-1.4-34.5.06,11.55-1.46,22.46-1.24,32.05,1.18A32.25,32.25,0,0,1,361.28,548.79Z" transform="translate(-93.11 -31.62)" opacity="0.4"/><path d="M390.27,533.43c-7.18-10.44-20.11-13.13-34.77-11.25,14.73.12,27.95,5,34.36,14.28,4,5.78,6.28,10.45,6.56,19.2C396.14,546.91,394.25,539.21,390.27,533.43Z" transform="translate(-93.11 -31.62)" fill="#fff" opacity="0.4"/><path d="M353.41,470.19c-1.42,12.28-14.25,20-25.53,15-.26-.12-.51-.23-.76-.36A69.26,69.26,0,0,1,303.83,465c-8.27-11.71-7.51-24.77,4.21-33S338,423.32,346.26,435C351.56,442.54,354.83,457.93,353.41,470.19Z" transform="translate(-93.11 -31.62)" fill="#d03942"/><path d="M338.35,436.43A27.69,27.69,0,0,0,324,426.1c8.63-.81,17.26,1.86,22.25,8.93,5.3,7.51,8.57,22.9,7.15,35.16A18.58,18.58,0,0,1,348,481.33C349.4,465.38,345.13,446,338.35,436.43Z" transform="translate(-93.11 -31.62)" opacity="0.3"/><path d="M300.26,440.81a37.65,37.65,0,0,0,5.88,16.6c5.59,9,16.94,20.75,28.59,27.38.32.18.63.35.95.51a23.18,23.18,0,0,0,2.57,1.14,17.58,17.58,0,0,1-10.37-1.27c-.26-.12-.51-.23-.76-.36A69.26,69.26,0,0,1,303.83,465C298.12,456.89,296.72,448.16,300.26,440.81Z" transform="translate(-93.11 -31.62)" fill="#ffe7d4" opacity="0.2"/><path d="M296.77,117a55.49,55.49,0,0,1,25.13-3.82,86,86,0,0,1,15,2.37c-12.78-7.55-24.95-12.31-35.51-13a36.35,36.35,0,0,0-8,.35c30.21-18.27,68.79-20.84,100.76-3.49a92.42,92.42,0,0,1,20.08,14.69,94.49,94.49,0,0,0-111.64-33A185.93,185.93,0,0,1,345.2,46.43a94.45,94.45,0,0,0-97,45.81,98.49,98.49,0,0,1,37.56-49.51A92.1,92.1,0,0,1,308,31.62a94.48,94.48,0,0,0-80.93,97.24,157.94,157.94,0,0,0-17.78,13.5,47.31,47.31,0,0,0-14.06-2.1c-26.44,0-46.82,21.55-45.73,43.32a33.75,33.75,0,0,0,8.45,20.93c-29.66,47.38-49.54,103.31-49.54,142.37,0,80.85,85.15,138.48,166,138.48s126.79-57.63,126.79-138.48C401.18,273.82,363.66,141.75,296.77,117Z" transform="translate(-93.11 -31.62)" fill="#d03942"/><path d="M375.38,151.91c-2.55-12-78.8-22.72-110.37-22.23-32.83.51-89.4,10.39-94.63,15.63-9,9-21.6,24.24-20.9,38.27a33.75,33.75,0,0,0,8.45,20.93c-18.35,29.3-32.94,61.87-41.41,91.7,80,14.13,101.6,66.18,101.6,66.18S235.76,310.44,389,260.59C386.25,249.66,383.09,188.33,375.38,151.91Z" transform="translate(-93.11 -31.62)" fill="#5a5a5a"/><path d="M375.38,151.91c-2-9.45-49.51-18.08-85.09-21.1,33.58,5.09,73.35,16.36,76.23,27.6,4.79,18.61,12.6,50.05,19.53,78.05C383.71,212.34,380.58,176.46,375.38,151.91Z" transform="translate(-93.11 -31.62)" opacity="0.2"/><path d="M170.38,145.31a108.81,108.81,0,0,0-12,14.14c7-4.12,13.28-7.52,17.5-9.71,5.6-2.91,41.3-13.53,74.74-19.37C217.83,132.78,174.9,140.78,170.38,145.31Z" transform="translate(-93.11 -31.62)" fill="#ffe7d4" opacity="0.2"/><path d="M152.36,398.91A30.17,30.17,0,0,0,157,412a60.71,60.71,0,0,0,9.28,11.51,61.73,61.73,0,0,0,11.26-9,49.73,49.73,0,0,0,5.81,9.5c6.19,8.4,14.95,14.88,14.95,15a97.93,97.93,0,0,0,9.67-8.75,46.1,46.1,0,0,0,8.37,13.25c6.71,8,15.87,13.89,15.87,14,0-.09,8.32-7.11,14-15.89a48.22,48.22,0,0,0,5.57-10.87,98.71,98.71,0,0,0,9.53,8.59c0-.09,8.75-6.56,14.94-15a51.9,51.9,0,0,0,4.84-7.49,40.73,40.73,0,0,0,3.69,5.67,68.76,68.76,0,0,0,11.87,11.88,69.75,69.75,0,0,0,11.86-11.88,34,34,0,0,0,6.79-14.19A33.19,33.19,0,0,1,308.73,420a68.5,68.5,0,0,1-12.13,11.31A68,68,0,0,1,284.46,420a35.13,35.13,0,0,1-3-4.08,35.4,35.4,0,0,0,3.27-9.5,36.1,36.1,0,0,1-3.83,8.6c-.13.24-.28.48-.43.72a49.32,49.32,0,0,1-3.94,5.44c-6.37,8-15.42,14.25-15.29,14.25a106.7,106.7,0,0,1-8.74-7.21l-.38-.38a62.27,62.27,0,0,1-6.18-6.66,46.64,46.64,0,0,1-5.67-8.48,66.8,66.8,0,0,0,5.94-6.91c4.31-5.55,7.49-11.94,8.56-17.88a42,42,0,0,1-8.21,14.76,66.57,66.57,0,0,1-7.37,7.77l-.34.3c-4.14,3.73-7.59,6.13-7.59,6.18a99.94,99.94,0,0,1-10-8.45l-.19-.18a61.77,61.77,0,0,1-5.09-5.62,42,42,0,0,1-8.21-14.76c1.07,5.94,4.25,12.32,8.55,17.88,1.22,1.65,2.53,3.21,3.85,4.68a45.14,45.14,0,0,1-6.59,10.39,64.66,64.66,0,0,1-6.34,6.83l-.14.13a104.19,104.19,0,0,1-8.82,7.3c.13,0-8.91-6.2-15.29-14.26a47.27,47.27,0,0,1-4.88-7A29.55,29.55,0,0,0,185,402.4a29.41,29.41,0,0,1-6.79,9.65l-.72.7-.54.51a63.18,63.18,0,0,1-10.44,7.57A60.69,60.69,0,0,1,157,409.78,29.57,29.57,0,0,1,152.36,398.91Zm55.9,31a62.16,62.16,0,0,0,5-5.91,47.16,47.16,0,0,0,7.29-13.12,97.75,97.75,0,0,0,10.74,9.89,101.63,101.63,0,0,0,8.51-7.55,48.38,48.38,0,0,0,6.52,11.1,65.38,65.38,0,0,0,4.88,5.81,47.72,47.72,0,0,1-4.88,8.29c-5.85,8.45-14.48,15.22-14.35,15.21s-9.3-5.61-16.18-13.25A45.54,45.54,0,0,1,208.26,429.87Z" transform="translate(-93.11 -31.62)" fill="#ffe7d4" opacity="0.2"/><path d="M209.24,428.81c-.32.36-.65.72-1,1.06.32.63.67,1.26,1,1.88.83-1,1.65-2.07,2.43-3.16a45.53,45.53,0,0,0,7-13.36c0,.12-.12.23-.17.35l-.27.53c-.24.47-.48.93-.74,1.4l-.11.19c-.25.44-.5.87-.76,1.3l-.22.36c-.3.49-.6,1-.92,1.44a.18.18,0,0,1,0,.07c-.3.46-.61.9-.92,1.35l-.27.36q-.5.71-1,1.38c-.41.55-.82,1.08-1.24,1.61l-.41.51-.9,1.08-.33.37c-.35.41-.7.8-1.05,1.19Zm31.52-13.46c-.35-.72-.68-1.44-1-2.17a101.63,101.63,0,0,1-8.51,7.55l-.05-.05,0,0-.14-.12-.69-.55-.05,0-.37-.31-.12-.09-.45-.37-.2-.17q-.19-.15-.39-.33l-.31-.26-.42-.35-.27-.24c-.2-.16-.4-.34-.6-.52l-.23-.2-.53-.47-.23-.21-.74-.67-.18-.17-.78-.73-.05-.05-.92-.88-.05-.06c-1-.94-1.95-1.95-2.94-3-.33.94-.71,1.89-1.13,2.83.3.36.59.73.89,1.08a91.22,91.22,0,0,0,10.5,10.16,93.83,93.83,0,0,0,9.25-8.77,46.34,46.34,0,0,0,6.79,12.76c1,1.34,2,2.64,3,3.86.48-.88.93-1.78,1.34-2.67l-.37-.41c-.23-.24-.46-.49-.68-.74l-.35-.39c-1.2-1.35-2.38-2.78-3.48-4.27-.32-.41-.63-.83-.94-1.25l-.18-.25-.72-1-.2-.31c-.23-.33-.45-.67-.67-1-.06-.11-.13-.21-.19-.31-.24-.38-.47-.76-.7-1.14l-.1-.17q-.37-.63-.72-1.26c-.09-.18-.18-.35-.28-.52s-.26-.49-.38-.74l-.33-.66-.15-.3Zm-21.86-2.3c.47-.86.9-1.73,1.28-2.6-.32-.35-.64-.72-1-1.09l-.07-.08-.87-1-.09-.11-.84-1c-.06-.08-.13-.16-.19-.25l-.83-1.08c-.38-.49-.74-1-1.11-1.5l-.23-.33c-.35-.49-.69-1-1-1.49l-.17-.25c-.29-.45-.57-.9-.85-1.36l-.19-.32c-.3-.5-.59-1-.87-1.52l-.2-.37c-.25-.47-.49-.94-.72-1.42a1.24,1.24,0,0,1-.1-.2c-.26-.52-.49-1-.72-1.56l-.17-.39c-.22-.52-.43-1.05-.63-1.58l-.06-.15c-.18-.51-.36-1-.52-1.53l-.06-.17c.72,6.16,3.83,12.93,8.17,18.76C217.53,411.31,218.21,412.19,218.9,413.05Zm25.81-2.66a46,46,0,0,0,7-13.34,49.53,49.53,0,0,1-2.46,4.43,51.65,51.65,0,0,1-3,4.29c-.45.61-.91,1.21-1.39,1.8l-.06.07c-.46.57-.92,1.13-1.39,1.67l-.13.15c-.45.51-.9,1-1.35,1.51l-.24.25c-.39.43-.79.84-1.18,1.25l-.2.21c.34.66.7,1.31,1.08,2C242.52,413.3,243.65,411.88,244.71,410.39Zm-92-8.81A28.66,28.66,0,0,0,157,415.23a58,58,0,0,0,8.6,11.13,57.68,57.68,0,0,0,10.75-9.07c.31-.32.6-.65.89-1a46.08,46.08,0,0,0,6.63,12.28c5.76,8.15,13.91,14.43,13.91,14.52a91.28,91.28,0,0,0,10.7-10.41A43.86,43.86,0,0,0,217.16,448c6.27,7.77,14.82,13.52,14.82,13.61,0-.1,7.73-6.89,13-15.39a46.18,46.18,0,0,0,5.77-12.47,92.31,92.31,0,0,0,10.06,9.66c0-.09,8.15-6.36,13.92-14.52a47.55,47.55,0,0,0,6-10.56,37.73,37.73,0,0,0,4.5,7.79,65.27,65.27,0,0,0,11,11.52,65.4,65.4,0,0,0,11-11.52,36.73,36.73,0,0,0,5.54-10.59,40.09,40.09,0,0,1-4.33,6.92c-.15.21-.31.42-.47.62l0,0-.45.58,0,0-.45.56-.12.14-.38.45-.14.17-.36.41-.18.21-.32.36-.22.24-.28.31-.28.3-.22.24-.33.34-.18.18-.35.36-.14.15-.35.35-.15.15-.37.36-.12.11-.41.4-.07.06-.41.39-.06.06-.42.39,0,0-.43.4h0l-.84.75h0l-.38.33,0,0-.35.3,0,0-.31.26-.05,0-.25.21-.1.09-.17.14-.16.13-.08.06c-.83.69-1.33,1.08-1.33,1.1s-1.5-1.16-3.59-3l0,0-.36-.32-.09-.08c-.1-.08-.2-.18-.3-.27l-.15-.14-.27-.25-.2-.18-.23-.22-.25-.23-.19-.19-.29-.28-.19-.18-.3-.3-.16-.16-.34-.34-.12-.12-.38-.39-.11-.11-.4-.42-.06-.06-.45-.48,0,0a49.32,49.32,0,0,1-3.4-4.1c-.34-.44-.67-.88-1-1.33l-.35-.51-.61-.9-.24-.38c-.22-.35-.44-.69-.65-1-.09-.15-.17-.3-.25-.45s-.33-.55-.48-.83a1.09,1.09,0,0,0-.08-.15l0-.08-.15.25c-.14.28-.28.55-.44.82l-.22.38-.52.89c-.19.32-.39.65-.6,1s-.31.5-.47.74c-.26.4-.53.79-.8,1.18l-.37.54c-.41.58-.83,1.15-1.27,1.71-6.19,8.4-14.94,14.87-14.94,15l-.05,0,0,0-1.34-1.08-.12-.1-.29-.24-.41-.34-.22-.18-.34-.29-.22-.19-.59-.5-.08-.08-.6-.51-.15-.14q-.72-.63-1.5-1.35l-.09-.09c-.54-.51-1.11-1-1.68-1.6l0,0c-.6-.58-1.2-1.19-1.81-1.82-.35,1-.74,2-1.17,3h0a2.56,2.56,0,0,1-.11.24c-.24.53-.49,1.07-.75,1.6l-.16.33c-.31.62-.64,1.24-1,1.85v0c-.32.57-.66,1.14-1,1.71l-.29.46c-.35.57-.72,1.14-1.1,1.7a77.46,77.46,0,0,1-10.55,12.67l0,0-.37.36-.1.09-.28.28-.16.15-.16.16-.27.25h0c-1.25,1.18-2,1.86-2,1.89s-9.16-6-15.87-14c-.42-.47-.82-.95-1.22-1.43l-.43-.54-.73-.93-.47-.63c-.22-.3-.44-.59-.65-.89l-.45-.65-.62-.93-.4-.63c-.22-.35-.43-.7-.64-1.06-.1-.17-.21-.34-.3-.51-.3-.51-.58-1-.85-1.54l-.27-.55-.43-.87h0c-.33-.7-.64-1.39-.92-2.09l-.06.07h0c-.52.54-1,1.06-1.55,1.57l-.26.25-.22.22c-4.11,4-7.58,6.59-7.58,6.64s-8.76-6.57-14.95-15c-.28-.36-.55-.73-.83-1.1l-.14-.21c-.22-.3-.44-.6-.65-.91a2.75,2.75,0,0,1-.19-.28l-.57-.84c-.07-.12-.15-.23-.22-.34l-.5-.79-.25-.41-.42-.71-.28-.49q-.18-.3-.33-.6l-.34-.62-.21-.4-.42-.83h0l0-.06c-.15-.3-.3-.6-.43-.9a58.88,58.88,0,0,1-10.71,8.67c-.36.23-.57.36-.55.36s-.75-.74-1.88-1.92l0-.05-.54-.59-.08-.08-.6-.66-.07-.08-.66-.75-.06-.07c-.25-.28-.49-.57-.74-.87h0A49.31,49.31,0,0,1,157,412c-.29-.47-.57-1-.84-1.43l-.29-.54-.48-.93-.3-.62c-.14-.3-.28-.6-.41-.9l-.27-.62q-.26-.62-.48-1.23l-.26-.74c-.1-.31-.21-.62-.3-.93s-.14-.48-.2-.72-.14-.5-.2-.75-.12-.52-.17-.77A1.74,1.74,0,0,1,152.74,401.58Z" transform="translate(-93.11 -31.62)" opacity="0.1"/><g opacity="0.4"><path d="M290.76,362.39c3.63,3.15,3.39,9.6.23,13.7s-8,4.62-11.42,1.77-4.28-8.18-1.3-12.6S287.15,359.22,290.76,362.39Z" transform="translate(-93.11 -31.62)" opacity="0.3"/><path d="M316,396.07c1.42,1,1.47,3.32.37,4.84a3,3,0,0,1-4.2.84,3.17,3.17,0,0,1-.73-4.37C312.39,395.78,314.54,395,316,396.07Z" transform="translate(-93.11 -31.62)" opacity="0.3"/><path d="M268.51,340.71c1.54-2.12,4.46-2.84,6.16-1.17s1.43,4.93-.23,6.91-4,2.07-5.62.56A4.77,4.77,0,0,1,268.51,340.71Z" transform="translate(-93.11 -31.62)" opacity="0.3"/><path d="M294,343.17c1.94-2.56,5.63-3.41,7.78-1.4s1.84,5.9-.24,8.29-5.07,2.52-7.1.7A5.56,5.56,0,0,1,294,343.17Z" transform="translate(-93.11 -31.62)" opacity="0.3"/><path d="M321.65,340.31a2.72,2.72,0,0,1-.17-3.85,3,3,0,0,1,4.17-.64c1.14,1,.94,3-.2,4.22A2.67,2.67,0,0,1,321.65,340.31Z" transform="translate(-93.11 -31.62)" opacity="0.3"/><path d="M323.05,328.55a1.67,1.67,0,0,1-.05-2.37,1.86,1.86,0,0,1,2.58-.35,1.89,1.89,0,0,1-.18,2.61A1.64,1.64,0,0,1,323.05,328.55Z" transform="translate(-93.11 -31.62)" opacity="0.3"/><path d="M311.83,361.4c2.2-3,6.54-4.11,9.18-1.91s2.43,6.65.07,9.46-5.91,3.1-8.39,1.11A6.19,6.19,0,0,1,311.83,361.4Z" transform="translate(-93.11 -31.62)" opacity="0.3"/></g><path d="M314.82,133.56c3.48.48,6.95,1,10.36,1.55-8.34-7.73-17.32-13.76-26.91-17.56A117.25,117.25,0,0,1,314.82,133.56Zm64.67,95.05a56.87,56.87,0,0,1-11.92,15.55c9.59,35.28,14.58,70.78,14.58,98.2,0,81.38-43.93,139.9-121.48,142.45q6.87.54,13.72.55c80.85,0,126.79-57.63,126.79-138.48C401.18,314.28,393.71,269.93,379.49,228.61Z" transform="translate(-93.11 -31.62)" opacity="0.1"/><path d="M325.18,135.11c-8.43-7.81-17.5-13.87-27.2-17.67,2,4.14,4.32,9.15,6.86,14.84C311.59,133.07,318.48,134,325.18,135.11Zm54.31,93.5c-6.25,12.07-16.94,21.53-30.24,27.63,12.35,46.87,18.26,93.27,5.5,120.6a142.48,142.48,0,0,0-3.83-50.66q-1.74-6.74-4.07-13.15c3.73,17,4.29,36.24,1.42,56.17C343.83,400,328.3,435,310.71,454a234.65,234.65,0,0,0,9.35-24.63c-14.48,25.29-35.07,44.42-61.17,55.32q7.75.69,15.5.69c80.85,0,126.79-57.63,126.79-138.48C401.18,314.28,393.71,269.93,379.49,228.61Z" transform="translate(-93.11 -31.62)" opacity="0.1"/><path d="M220,133.75c2.1-.3,4.23-.59,6.35-.86,3.1-3.23,6.24-6.32,9.41-9.22A132.43,132.43,0,0,0,220,133.75ZM150.53,411.42a227.33,227.33,0,0,0,8.67,27.12c-13.63-16.81-25.66-47.76-29.11-75-2.22-17.63-1.78-34.7,1.1-49.69-1.19,3.78-2.25,7.65-3.15,11.63a143.17,143.17,0,0,0-3,44.82c-8-16.58-10.57-37.22-5.91-57.83,4.73-20.87,16-37.64,30.25-47.71a421.84,421.84,0,0,1,21.43-50.47,41.3,41.3,0,0,1-12.92-9.74c-29.66,47.38-49.54,103.3-49.54,142.36,0,64.21,53.72,113.78,116.33,131.46C193.85,463.78,167,440.6,150.53,411.42Z" transform="translate(-93.11 -31.62)" fill="#ffe7d4" opacity="0.2"/><path d="M173.14,148.82c31.54,0,55.85,25.71,54.55,51.69s-25.57,43-54.55,43.09c-29-.09-53.3-17-54.56-43.09S141.59,148.77,173.14,148.82Z" transform="translate(-93.11 -31.62)" fill="#ffe7d4"/><path d="M166.15,149.24c-23.21,6.91-39.34,28-38.28,49.33,1.26,26.13,25.58,43,54.56,43.1A73.67,73.67,0,0,0,192,241a70,70,0,0,1-18.89,2.6c-29-.09-53.3-17-54.56-43.09C117.38,176.48,138.08,152.65,166.15,149.24Z" transform="translate(-93.11 -31.62)" fill="#e75400" opacity="0.2"/><path d="M200.14,197.56l-.54-.11a5.5,5.5,0,1,0,4.62,6.27,5.67,5.67,0,0,0,0-1.3,9.69,9.69,0,1,1-7.58-6.1A9.92,9.92,0,0,1,200.14,197.56Z" transform="translate(-93.11 -31.62)" fill="#51364d"/><path d="M200.81,215.85a2.52,2.52,0,1,1,2.52-2.52A2.52,2.52,0,0,1,200.81,215.85Z" transform="translate(-93.11 -31.62)" fill="#fff"/><path d="M204.12,216.64a.79.79,0,1,1,.78-.79A.79.79,0,0,1,204.12,216.64Z" transform="translate(-93.11 -31.62)" fill="#fff"/><path d="M319.13,145.82c42.44-.07,75.14,34.58,73.4,69.53-1.7,35.15-34.41,57.86-73.4,58-39-.12-71.7-22.83-73.4-58C244,180.4,276.69,145.75,319.13,145.82Z" transform="translate(-93.11 -31.62)" fill="#ffe7d4"/><path d="M301.21,267.67c39-.13,71.7-24.2,73.4-61.45.91-19.46-7.68-38.83-22.2-52.82,25,12.09,41.37,36.95,40.12,61.95-1.7,35.15-34.41,57.86-73.4,58a90.05,90.05,0,0,1-37-7.72A91.29,91.29,0,0,0,301.21,267.67Z" transform="translate(-93.11 -31.62)" fill="#e75400" opacity="0.2"/><path d="M292.14,194.7c0,.4-.07.81-.07,1.22a12.26,12.26,0,1,0,9.35-11.85,21.5,21.5,0,1,1-9.28,10.63Z" transform="translate(-93.11 -31.62)" fill="#51364d"/><circle cx="234.33" cy="184.99" r="5.82" fill="#fff"/><path d="M335.08,224.24a1.82,1.82,0,1,1,1.81-1.81A1.82,1.82,0,0,1,335.08,224.24Z" transform="translate(-93.11 -31.62)" fill="#fff"/><path d="M262.88,271.19c.27.12,26,31.44-13,27.64C233.06,297.19,156.13,261,156.13,261S222.55,257.6,262.88,271.19Z" transform="translate(-93.11 -31.62)" fill="#d03942"/><path d="M173.86,260.65c-10.77,0-17.73.39-17.73.39s9.85,4.63,23.27,10.65c32.55-3.06,62.57-4.23,81-.5C234.09,262.33,196.7,260.71,173.86,260.65Z" transform="translate(-93.11 -31.62)" opacity="0.1"/><path d="M247.76,294.19c22,2.14,23.42-6.84,20.44-15.13,4.89,9,7.88,22.32-18.33,19.77-9-.87-34.91-11.51-57.25-21.28C217.3,286,240.68,293.5,247.76,294.19Z" transform="translate(-93.11 -31.62)" opacity="0.1"/><path d="M213.8,220.62c-19.92.59-83.84,54.44-83.64,54.64,33.5-4.15,99.22-13.62,132.72-4.07C262.74,271.28,231.62,220.09,213.8,220.62Z" transform="translate(-93.11 -31.62)" fill="#d03942"/><path d="M215.52,231.12c10.74,0,21.81,7.74,31,16.63-10.29-13.36-23.35-27.41-32.73-27.13-19.92.59-83.84,54.44-83.64,54.64C130,275.06,195.58,231.12,215.52,231.12Z" transform="translate(-93.11 -31.62)" fill="#ffe7d4" opacity="0.2"/><path d="M228.8,255.28s2.48,3.42-.81,3.38c-1.42,0-8.19-3.45-8.19-3.45S225.3,254.11,228.8,255.28Z" transform="translate(-93.11 -31.62)" opacity="0.2"/><path d="M227.05,128.86q3.81-2.48,7.65-4.6c.29-31.9,14.84-63,41.32-81.57.91-.64,1.83-1.25,2.76-1.84a94.37,94.37,0,0,0-51.73,88Zm178.7-25a96.88,96.88,0,0,1,6.26,8.19c.74.67,1.46,1.35,2.17,2A92.75,92.75,0,0,0,405.75,103.87Z" transform="translate(-93.11 -31.62)" fill="#ffe7d4" opacity="0.2"/><path d="M317.39,92.18c25.08-7.59,52.75-5.78,76.71,7.22a93.79,93.79,0,0,1,12.8,8.38A89.17,89.17,0,0,0,394,98.46C370,84.31,342.19,82.92,317.39,92.18Z" transform="translate(-93.11 -31.62)" opacity="0.1"/></g></svg>