<svg xmlns="http://www.w3.org/2000/svg" xmlns:xlink="http://www.w3.org/1999/xlink" viewBox="0 0 447.06 532.39"><defs><clipPath id="a" transform="translate(-76.47 -33.81)"><rect width="600" height="600" fill="none"/></clipPath></defs><g clip-path="url(#a)"><path d="M303.1,499.83c-96.76,0-226.63,21.88-226.63,29.75s129.87,14.25,226.63,14.25,205.82-6.38,205.82-14.25S399.86,499.83,303.1,499.83Z" transform="translate(-76.47 -33.81)" opacity="0.1"/><path d="M194.91,397.82a49.12,49.12,0,0,1-15.47-1.59c-6.05-4-10-9.87-10.23-18a30.72,30.72,0,0,1,.28-4.92,26.16,26.16,0,0,0-2.84,11.47,12.43,12.43,0,0,0,2.23,7q-1.89-1.11-3.72-2.43a53.06,53.06,0,0,1-8-7.28c3.13,8.45,7.34,15.39,12.75,20-8.69-2.81-15.81-6.93-20.07-12.76a60.4,60.4,0,0,1-6-10.21c.61,10.55,3.15,19.78,8.16,26.64a17,17,0,0,0,2.08,2.34c-13.13-1.61-24.34-5.52-31.66-12.72a79.06,79.06,0,0,1-10-12.06c3.07,13.66,8.37,25.17,16.4,33.05,5.57,5.47,14.25,8,24.65,8.41-23.44,8-43.9,18.31-50.13,29.62-4.58,8.32-5.58,17.48-3.92,26.84a63.57,63.57,0,0,1,5-11.65c8.66-15.73,36.59-31,65.6-42.88-5.6,4.28-9.77,8.69-11.87,13.11-4.08,8.58-4.54,17.78-2.32,27a62.86,62.86,0,0,1,4.27-11.93c6.05-12.73,24-25.87,45.06-37.51Z" transform="translate(-76.47 -33.81)" fill="#6a4f4d"/><polygon points="323.57 404.08 286.15 482.55 289.22 484.09 335.37 404.08 323.57 404.08" fill="#ff9e2e"/><polygon points="287.87 483.42 289.22 484.09 335.37 404.08 287.87 483.42" fill="#fff" opacity="0.4"/><polygon points="308.91 444.6 305.73 443.4 323.57 404.08 293.69 466.74 293.69 466.74 293.3 467.55 293.3 467.55 290.24 473.98 290.24 473.98 289.98 474.5 286.15 482.55 287.62 483.29 291.53 474.67 292.2 474.72 291.61 474.5 294.72 467.64 296.37 467.75 294.92 467.21 297.28 462 299.62 462.15 297.56 461.38 299.98 456.07 303.49 456.3 300.4 455.14 302.63 450.22 306.04 450.45 303.04 449.32 305.29 444.36 308.91 444.6" fill="#d04000" opacity="0.4"/><path d="M403.82,426.38c-11.08-3.95-25.57-.22-29.52,10.87-2.53,7.1-1.72,20,2.1,29.35s15.67,12.68,23.48,6.21l.52-.45a56.82,56.82,0,0,0,14-20.8C418.38,440.48,414.9,430.33,403.82,426.38Z" transform="translate(-76.47 -33.81)" fill="#6a4f4d"/><path d="M395.29,471c-.29.27-.59.52-.89.77a24.8,24.8,0,0,1-7,4.1,14.61,14.61,0,0,0,12.47-3l.52-.45a56.82,56.82,0,0,0,14-20.8A25.29,25.29,0,0,0,416,443C411.26,452.56,403.73,463.39,395.29,471Z" transform="translate(-76.47 -33.81)" opacity="0.3"/><path d="M399.23,526c-11.69-17-37.38-15.14-62.46-6,12.57-1.59,24.44-1.35,34.88,1.29a35.19,35.19,0,0,1-4,21.4,48,48,0,0,1-5,7.47c7.13-4.43,12.65-9.5,15.62-15.12a21.2,21.2,0,0,0,2.23-6.47,42.07,42.07,0,0,1,2.73,25.12,57,57,0,0,1-3,10.32c6.58-7.62,11.08-15.38,12.48-22.88a25.29,25.29,0,0,0,.09-9.21,46.28,46.28,0,0,1,8,8.91,54,54,0,0,1,5.1,9.33C405.62,540.66,403.56,532.28,399.23,526Z" transform="translate(-76.47 -33.81)" fill="#ff9e2e"/><path d="M401.25,540a18.2,18.2,0,0,0-8.42-8.06,46.28,46.28,0,0,1,8,8.91,54,54,0,0,1,5.1,9.33C404.49,546.85,402.6,542.47,401.25,540Z" transform="translate(-76.47 -33.81)" fill="#d04000" opacity="0.4"/><path d="M380.26,564c1.36-3.46,3.82-7.64,4.58-10.37,1.71-6.13,1.84-16.7-4.29-25.07a42.07,42.07,0,0,1,2.73,25.12A57,57,0,0,1,380.26,564Z" transform="translate(-76.47 -33.81)" fill="#d04000" opacity="0.4"/><path d="M367.67,542.72c3.75-7.09,7.57-15.63,6.64-22.75-10.43-2.65-25-1.53-37.54.06,12.57-1.59,24.44-1.35,34.88,1.29A35.19,35.19,0,0,1,367.67,542.72Z" transform="translate(-76.47 -33.81)" fill="#d04000" opacity="0.4"/><path d="M399.23,526c-7.82-11.36-21.89-14.29-37.86-12.25,16,.13,30.43,5.4,37.41,15.55,4.33,6.29,6.84,11.37,7.14,20.9C405.62,540.66,403.56,532.28,399.23,526Z" transform="translate(-76.47 -33.81)" fill="#fff" opacity="0.4"/><polygon points="174.47 406.23 137.05 484.7 140.13 486.25 186.27 406.23 174.47 406.23" fill="#ff9e2e"/><polygon points="138.78 485.57 140.13 486.25 186.27 406.23 138.78 485.57" fill="#fff" opacity="0.4"/><polygon points="159.81 446.76 156.63 445.55 174.47 406.23 144.59 468.89 144.59 468.89 144.21 469.7 144.21 469.7 141.14 476.13 141.14 476.13 140.89 476.66 137.05 484.7 138.53 485.44 142.44 476.82 143.1 476.87 142.52 476.65 145.63 469.8 147.28 469.91 145.82 469.36 148.19 464.15 150.53 464.31 148.47 463.53 150.88 458.22 154.39 458.46 151.3 457.29 153.53 452.38 156.95 452.61 153.94 451.47 156.19 446.51 159.81 446.76" fill="#d04000" opacity="0.4"/><path d="M185.44,528.14c11.69-17,37.38-15.14,62.47-6-12.58-1.59-24.45-1.35-34.89,1.29a35.18,35.18,0,0,0,4,21.4,47.89,47.89,0,0,0,5,7.48c-7.14-4.44-12.66-9.51-15.63-15.13a21.06,21.06,0,0,1-2.23-6.46,42,42,0,0,0-2.73,25.11,57,57,0,0,0,3,10.32c-6.58-7.61-11.08-15.38-12.48-22.87a25.34,25.34,0,0,1-.09-9.22,46.28,46.28,0,0,0-8,8.91,54.42,54.42,0,0,0-5.1,9.34C179.05,542.82,181.12,534.44,185.44,528.14Z" transform="translate(-76.47 -33.81)" fill="#ff9e2e"/><path d="M183.43,542.17a18.09,18.09,0,0,1,8.41-8.07,46.28,46.28,0,0,0-8,8.91,54.42,54.42,0,0,0-5.1,9.34C180.19,549,182.07,544.62,183.43,542.17Z" transform="translate(-76.47 -33.81)" fill="#d04000" opacity="0.4"/><path d="M204.41,566.19c-1.36-3.46-3.82-7.64-4.58-10.37-1.71-6.12-1.83-16.69,4.29-25.06a42,42,0,0,0-2.73,25.11A57,57,0,0,0,204.41,566.19Z" transform="translate(-76.47 -33.81)" fill="#d04000" opacity="0.4"/><path d="M217,544.87c-3.75-7.09-7.56-15.62-6.64-22.75,10.44-2.64,25-1.53,37.55.06-12.58-1.59-24.45-1.35-34.89,1.29A35.18,35.18,0,0,0,217,544.87Z" transform="translate(-76.47 -33.81)" fill="#d04000" opacity="0.4"/><path d="M178.75,552.35c.3-9.53,2.81-14.62,7.14-20.91,7-10.15,21.37-15.41,37.41-15.54-16-2-30,.88-37.86,12.24C181.12,534.44,179.05,542.82,178.75,552.35Z" transform="translate(-76.47 -33.81)" fill="#fff" opacity="0.4"/><path d="M225.57,459.31c1.54,13.36,15.51,21.79,27.8,16.3l.82-.38a75.48,75.48,0,0,0,25.35-21.59c9-12.76,8.17-27-4.58-36s-32.61-9.39-41.61,3.37C227.58,429.21,224,446,225.57,459.31Z" transform="translate(-76.47 -33.81)" fill="#6a4f4d"/><path d="M242,422.56a30,30,0,0,1,15.62-11.24c-9.4-.89-18.79,2-24.23,9.72-5.77,8.17-9.33,24.92-7.78,38.27a20.32,20.32,0,0,0,5.89,12.13C229.93,454.07,234.58,433,242,422.56Z" transform="translate(-76.47 -33.81)" fill="#ffe7d4" opacity="0.2"/><path d="M283.43,427.32A41,41,0,0,1,277,445.4c-6.09,9.78-18.45,22.58-31.13,29.8l-1,.56a24.64,24.64,0,0,1-2.8,1.24,19.19,19.19,0,0,0,11.3-1.39l.82-.38a75.48,75.48,0,0,0,25.35-21.59C285.76,444.83,287.28,435.33,283.43,427.32Z" transform="translate(-76.47 -33.81)" opacity="0.3"/><path d="M438.36,170.11a36.81,36.81,0,0,0,9.2-22.79c1.18-23.7-21-47.2-49.78-47.15a51.55,51.55,0,0,0-15.31,2.28c-15.26-13.28-31.24-23.2-47.36-28.28A44.78,44.78,0,0,1,349,67.75a58.49,58.49,0,0,1,10.86-1.82c-10-2.66-19.13-3.35-26.66-1.29-.28.07-.56.17-.84.26a87.78,87.78,0,0,1,13.17-18.54,93.74,93.74,0,0,1,14.33-12.55c-16,3.54-29.56,10.06-39,20.21A52.49,52.49,0,0,0,310.6,70.4h-.23c-6.74-7.76-15.95-12.08-28.16-11.31-11.5.73-24.74,5.92-38.66,14.14a93.43,93.43,0,0,1,16.31-2.59,60.28,60.28,0,0,1,27.36,4.17c-72.81,27-113.65,170.73-113.65,250.26,0,88,50,150.75,138,150.75s180.69-62.74,180.69-150.75C492.28,282.56,470.65,221.68,438.36,170.11Z" transform="translate(-76.47 -33.81)" fill="#6a4f4d"/><path d="M270.56,96.12c-46.2-.08-81.79,37.65-79.89,75.69,1.84,38.26,37.45,63,79.89,63.11,42.44-.13,78.06-24.85,79.9-63.11C352.36,133.77,316.76,96,270.56,96.12Z" transform="translate(-76.47 -33.81)" fill="#6a4f4d"/><path d="M277.44,100.13a94.75,94.75,0,0,1,31.34,5.24,82.62,82.62,0,0,0-38.22-9.25c-38.34-.06-69.38,25.91-77.74,56.5C206.51,123.15,238.73,100.07,277.44,100.13Z" transform="translate(-76.47 -33.81)" fill="#ffe7d4" opacity="0.2"/><path d="M439.4,393.55c-4.18,6.62-10.53,12-10.43,12a70.31,70.31,0,0,1-11.36-8.24l-.59-.55-.78-.77a31.88,31.88,0,0,1-7.4-10.51A32.3,32.3,0,0,0,416.38,398a50.82,50.82,0,0,1-5.31,7.64c-6.94,8.78-16.78,15.52-16.65,15.52a113.37,113.37,0,0,1-9.6-7.95l-.14-.14a68.1,68.1,0,0,1-6.91-7.43,49.13,49.13,0,0,1-7.18-11.31,63.9,63.9,0,0,0,4.19-5.1c4.68-6,8.15-13,9.31-19.46a45.56,45.56,0,0,1-8.93,16.07,68.76,68.76,0,0,1-5.54,6.12l-.2.2a111,111,0,0,1-10.91,9.19c0-.06-3.76-2.67-8.26-6.72l-.37-.33a72.75,72.75,0,0,1-8-8.46,45.56,45.56,0,0,1-8.93-16.07c1.16,6.47,4.62,13.42,9.31,19.46a71.14,71.14,0,0,0,6.47,7.52,51.24,51.24,0,0,1-6.17,9.23,68.67,68.67,0,0,1-6.73,7.26l-.42.41a113.89,113.89,0,0,1-9.51,7.85c.14,0-9.71-6.75-16.65-15.52a54.87,54.87,0,0,1-4.29-5.92c-.16-.26-.32-.52-.46-.78a39.33,39.33,0,0,1-4.18-9.36,39.22,39.22,0,0,0,3.56,10.34,38,38,0,0,1-3.23,4.44c-5.51,7-13.32,12.32-13.22,12.32s-7.7-5.35-13.21-12.32a36.13,36.13,0,0,1-7.09-12.74c.92,5.13,3.67,10.64,7.39,15.44,5.34,7.25,12.91,12.85,12.91,12.93,0-.08,7.57-5.67,12.92-12.93a44.63,44.63,0,0,0,4-6.17,56.49,56.49,0,0,0,5.26,8.15c6.74,9.15,16.27,16.19,16.27,16.29a109.78,109.78,0,0,0,10.37-9.35,53,53,0,0,0,6.06,11.83c6.14,9.55,15.2,17.2,15.2,17.3,0-.1,10-6.52,17.28-15.22a50.42,50.42,0,0,0,9.11-14.42,109,109,0,0,0,10.52,9.52c0-.1,9.54-7.15,16.28-16.3A54.57,54.57,0,0,0,417,398.64a67,67,0,0,0,12.25,9.83,66.22,66.22,0,0,0,10.11-12.53,32.82,32.82,0,0,0,5-14.22A32,32,0,0,1,439.4,393.55Zm-64,33.27c-7.49,8.31-17.75,14.41-17.61,14.42s-9.26-7.36-15.62-16.56a51.1,51.1,0,0,1-5.32-9,69.56,69.56,0,0,0,5.32-6.32,52.41,52.41,0,0,0,7.09-12.08,110.68,110.68,0,0,0,9.26,8.22,105.88,105.88,0,0,0,11.7-10.77A51.17,51.17,0,0,0,378.14,409a69.56,69.56,0,0,0,5.43,6.44A49.6,49.6,0,0,1,375.39,426.82Z" transform="translate(-76.47 -33.81)" fill="#ffe7d4" opacity="0.2"/><path d="M382.42,414.17c-.39-.42-.77-.86-1.15-1.3-.12-.13-.24-.27-.35-.41-.33-.38-.66-.78-1-1.17l-.45-.55c-.46-.57-.91-1.16-1.35-1.76s-.75-1-1.12-1.5l-.28-.39c-.34-.48-.68-1-1-1.46a.56.56,0,0,0-.05-.08c-.34-.52-.67-1-1-1.57l-.24-.4c-.28-.46-.56-.94-.83-1.41,0-.07-.08-.14-.11-.21-.29-.5-.55-1-.82-1.52l-.28-.57-.2-.39A49.87,49.87,0,0,0,379.81,414c.84,1.2,1.73,2.34,2.64,3.44.39-.68.77-1.36,1.12-2-.36-.38-.71-.77-1.07-1.16ZM348.2,399.62c-.05.1-.11.21-.16.32l-.36.72c-.13.26-.27.53-.42.8s-.19.38-.3.57c-.25.46-.51.92-.78,1.37l-.11.19c-.25.41-.5.83-.76,1.24l-.21.33-.72,1.1-.23.33c-.25.37-.52.74-.78,1.11l-.2.27c-.33.46-.67.91-1,1.36-1.2,1.63-2.49,3.19-3.8,4.65-.12.15-.25.29-.37.43l-.75.81c-.13.14-.26.29-.4.43.44,1,.94,2,1.46,2.92,1.13-1.34,2.24-2.74,3.27-4.21A50.27,50.27,0,0,0,349,400.48,104.69,104.69,0,0,0,359,410,98.58,98.58,0,0,0,370.47,399c.32-.37.64-.77,1-1.16-.45-1-.86-2.06-1.22-3.09-1.08,1.18-2.16,2.28-3.2,3.3l-.06.06-1,1-.05.05-.85.79-.21.19-.79.73-.26.23-.57.51-.25.22-.66.57-.29.25-.46.39-.33.28-.43.36-.22.18-.49.41-.13.1-.41.33-.05,0-.74.6-.16.13,0,0-.06.05a110.68,110.68,0,0,1-9.26-8.22c-.32.79-.68,1.58-1.05,2.36Zm26-5.41c4.72-6.34,8.11-13.72,8.89-20.41L383,374c-.18.55-.37,1.1-.57,1.66l-.06.17c-.22.57-.45,1.15-.69,1.72-.06.14-.12.28-.19.42-.24.57-.5,1.14-.77,1.7l-.11.22c-.26.51-.52,1-.8,1.54l-.21.41c-.31.55-.62,1.1-.94,1.65l-.22.35c-.3.49-.6,1-.92,1.48l-.18.27q-.54.82-1.11,1.62l-.26.37c-.39.54-.79,1.09-1.21,1.62s-.59.79-.89,1.18l-.22.28c-.3.38-.6.76-.91,1.13l-.1.12c-.31.38-.62.75-.94,1.11l-.08.1-1.05,1.18c.43,1,.89,1.89,1.4,2.83C372.74,396.17,373.49,395.21,374.19,394.21Zm-26.66,4.63c.42-.71.81-1.42,1.18-2.14l-.22-.23-1.29-1.35-.26-.28c-.49-.53-1-1.08-1.47-1.64l-.13-.16c-.52-.59-1-1.2-1.52-1.82a.27.27,0,0,1-.07-.08c-.51-.64-1-1.29-1.51-2a56.51,56.51,0,0,1-3.26-4.66,51.11,51.11,0,0,1-2.68-4.83,49.61,49.61,0,0,0,7.6,14.52A58.41,58.41,0,0,0,347.53,398.84Zm96.43-14c-.06.28-.12.56-.19.84s-.14.54-.22.82-.14.52-.22.78-.21.68-.33,1-.18.54-.28.81c-.16.45-.34.9-.52,1.34-.1.23-.2.45-.29.67s-.29.66-.45,1l-.33.68-.52,1-.32.59c-.29.52-.59,1-.9,1.55a53.07,53.07,0,0,1-5,7v0c-.28.32-.54.64-.81.94l-.06.08-.72.81-.08.09-.66.72-.08.09-.59.64-.05.05c-1.23,1.29-2.05,2.06-2.05,2.09a6.54,6.54,0,0,0-.6-.39A63.59,63.59,0,0,1,417,398.64c-.15.33-.31.66-.47,1l0,.06h0c-.15.3-.3.6-.46.9l-.22.44c-.12.22-.24.45-.37.67l-.36.66-.31.53c-.15.26-.3.52-.46.78l-.27.44-.54.86-.24.37-.62.91-.21.31-.7,1a1.88,1.88,0,0,0-.16.23l-.9,1.19c-6.74,9.15-16.28,16.2-16.28,16.3,0-.06-3.78-2.87-8.25-7.23l-.24-.23-.28-.28c-.55-.55-1.12-1.12-1.68-1.71h0l-.07-.07c-.3.75-.64,1.51-1,2.27h0c-.15.31-.31.63-.47.94s-.19.4-.29.59c-.3.57-.6,1.13-.92,1.69l-.33.55-.7,1.16c-.15.23-.3.45-.44.68s-.44.67-.67,1l-.49.71c-.23.33-.47.65-.71,1s-.33.45-.51.68l-.8,1-.47.58q-.64.79-1.32,1.56c-7.3,8.7-17.28,15.12-17.28,15.22s-.85-.77-2.21-2.06h0l-.29-.28-.18-.17-.17-.17-.31-.29-.1-.1-.4-.4,0,0a84.68,84.68,0,0,1-11.49-13.79q-.62-.92-1.2-1.86l-.3-.49c-.38-.62-.74-1.24-1.09-1.86l0,0c-.37-.67-.72-1.35-1.06-2l-.18-.36c-.28-.58-.56-1.16-.82-1.74,0-.09-.08-.17-.12-.26h0c-.47-1.07-.9-2.14-1.28-3.21-.66.69-1.32,1.35-2,2l0,0c-.62.61-1.24,1.19-1.83,1.74l-.1.09c-.57.53-1.11,1-1.63,1.48l-.17.15-.64.56-.09.08-.64.55-.24.2-.37.32-.25.2-.44.37-.32.26-.12.1L326,425.55l0,0-.06.05c0-.1-9.53-7.14-16.27-16.29-.47-.61-.93-1.23-1.37-1.86-.14-.19-.27-.39-.41-.59L307,405.6l-.51-.81c-.23-.36-.45-.71-.66-1.07s-.38-.64-.56-1c-.08-.14-.17-.28-.24-.42s-.33-.59-.48-.88c-.05-.1-.11-.19-.16-.28a.41.41,0,0,1-.05.09l-.09.16c-.16.3-.34.6-.51.9s-.18.33-.28.49c-.23.38-.46.76-.7,1.13l-.27.42c-.21.33-.44.65-.66,1l-.38.55c-.35.49-.71,1-1.08,1.45a52.75,52.75,0,0,1-3.7,4.46l0,0c-.16.17-.32.35-.49.52l-.06.07-.43.45-.12.12-.41.43-.13.13-.37.37-.18.17-.33.33-.2.2-.32.3-.21.2-.27.26-.25.23-.21.2-.3.27-.17.16-.32.29-.1.09-.39.35,0,0c-2.28,2-3.91,3.24-3.91,3.28s-.55-.45-1.45-1.19l-.09-.07-.17-.14-.19-.16-.1-.09-.27-.23-.06,0-.34-.29,0,0-.38-.33,0,0-.41-.36h0l-.92-.82h0l-.48-.44,0,0-.46-.43-.07-.06-.45-.43-.07-.06-.45-.43a.8.8,0,0,0-.13-.13l-.4-.39-.16-.17-.38-.37-.16-.16c-.12-.14-.25-.27-.38-.4a1.8,1.8,0,0,1-.19-.2l-.36-.37-.24-.26-.3-.32c-.11-.11-.21-.23-.31-.34l-.24-.26-.35-.39c-.06-.08-.13-.15-.2-.23l-.38-.45-.16-.18-.42-.5-.12-.15-.49-.6,0-.05-.49-.62,0-.05-.51-.68a43.33,43.33,0,0,1-4.71-7.53,39.44,39.44,0,0,0,6,11.52,71.49,71.49,0,0,0,12,12.55,71.1,71.1,0,0,0,12-12.55,41,41,0,0,0,4.91-8.48,51.07,51.07,0,0,0,6.5,11.5c6.28,8.88,15.15,15.71,15.15,15.81a99.24,99.24,0,0,0,10.95-10.52,50.74,50.74,0,0,0,6.28,13.58c5.69,9.25,14.1,16.64,14.1,16.74,0-.09,9.31-6.35,16.13-14.8a47.66,47.66,0,0,0,9.43-16.67A99.77,99.77,0,0,0,395,429.83c0-.1,8.88-6.93,15.15-15.81a50.5,50.5,0,0,0,7.22-13.37q.46.56,1,1.08a63,63,0,0,0,11.7,9.86,61.87,61.87,0,0,0,9.36-12.11c2.82-4.76,4.62-10.14,4.67-14.86C444,384.7,444,384.78,444,384.86Z" transform="translate(-76.47 -33.81)" opacity="0.1"/><path d="M276.3,96.31c3.62-8.24,6.88-15.34,9.61-21C274,80,262.86,87.85,252.69,98a83,83,0,0,1,17.87-1.91C272.5,96.12,274.41,96.19,276.3,96.31ZM261.87,414.86a254.24,254.24,0,0,0,10.19,26.81c-19.15-20.67-36.06-58.75-40.9-92.3-3.12-21.69-2.5-42.68,1.55-61.13-1.68,4.64-3.17,9.42-4.43,14.31a155.18,155.18,0,0,0-4.17,55.14c-13.89-29.75-7.46-80.25,6-131.27-14.48-6.64-26.12-16.94-32.92-30.08-15.47,45-23.61,93.25-23.61,128.74,0,88,50,150.75,138,150.75,5.61,0,11.24-.26,16.86-.76C300.05,463.21,277.64,442.38,261.87,414.86Z" transform="translate(-76.47 -33.81)" fill="#ffe7d4" opacity="0.2"/><path d="M285.59,75.44c-11.84,4.7-22.82,12.5-32.91,22.59a83.54,83.54,0,0,1,12-1.7A132.44,132.44,0,0,1,285.59,75.44Zm-91.3,244.72c0-29.85,5.43-68.5,15.86-106.9a61.92,61.92,0,0,1-13-16.93c-15.47,45-23.61,93.26-23.61,128.75,0,88,50,150.75,138,150.75q7.46,0,14.93-.61C242.11,472.44,194.29,408.74,194.29,320.16Z" transform="translate(-76.47 -33.81)" fill="#ffe7d4" opacity="0.2"/><path d="M270.56,96.12c-46.2-.08-81.79,37.65-79.89,75.69,1.84,38.26,37.45,63,79.89,63.11,42.44-.13,78.06-24.85,79.9-63.11C352.36,133.77,316.76,96,270.56,96.12Z" transform="translate(-76.47 -33.81)" fill="#6a4f4d"/><path d="M277.44,100.13a94.75,94.75,0,0,1,31.34,5.24,82.62,82.62,0,0,0-38.22-9.25c-38.34-.06-69.38,25.91-77.74,56.5C206.51,123.15,238.73,100.07,277.44,100.13Z" transform="translate(-76.47 -33.81)" fill="#ffe7d4" opacity="0.2"/><path d="M382.46,102.45a160.54,160.54,0,0,0-28.82-20.34,244.29,244.29,0,0,1,21.9,23A52.48,52.48,0,0,1,382.46,102.45Zm55.9,67.66a45.06,45.06,0,0,1-14.06,10.6,461,461,0,0,1,23.33,54.95c15.52,11,27.78,29.21,32.92,51.93,5.07,22.44,2.24,44.9-6.43,63a155.91,155.91,0,0,0-3.22-48.79q-1.47-6.51-3.44-12.67c3.14,16.32,3.62,34.9,1.2,54.1-3.75,29.68-16.84,63.37-31.68,81.66a248.36,248.36,0,0,0,9.44-29.52c-18,31.76-47.17,57-80.76,72.85,68.15-19.25,126.62-73.2,126.62-143.1C492.28,282.56,470.64,221.69,438.36,170.11Z" transform="translate(-76.47 -33.81)" opacity="0.3"/><path d="M402.07,102.66a59,59,0,0,1,19.52,3.27,51.38,51.38,0,0,0-23.81-5.76c-23.89,0-43.23,16.14-48.44,35.19C357.87,117,377.94,102.62,402.07,102.66Z" transform="translate(-76.47 -33.81)" fill="#ffe7d4" opacity="0.2"/><path d="M421.81,109.48c-34.35,0-60.81,28-59.39,56.26,1.37,28.44,27.84,46.82,59.39,46.92,31.54-.1,58-18.48,59.39-46.92C482.61,137.47,456.15,109.42,421.81,109.48Z" transform="translate(-76.47 -33.81)" fill="#ffe7d4"/><path d="M429.41,109.94c25.27,7.53,42.82,30.53,41.67,53.7-1.37,28.44-27.84,46.81-59.39,46.91a79.59,79.59,0,0,1-10.45-.73,76.38,76.38,0,0,0,20.57,2.84c31.54-.1,58-18.48,59.39-46.92C482.5,139.59,460,113.65,429.41,109.94Z" transform="translate(-76.47 -33.81)" fill="#e75400" opacity="0.2"/><path d="M262.88,106.22c-46.2-.08-81.79,37.64-79.89,75.69,1.84,38.25,37.45,63,79.89,63.11,42.44-.13,78.06-24.86,79.9-63.11C344.68,143.86,309.09,106.14,262.88,106.22Z" transform="translate(-76.47 -33.81)" fill="#ffe7d4"/><path d="M282.39,238.85c-42.44-.14-78-26.34-79.89-66.88-1-21.18,8.35-42.27,24.16-57.5-27.19,13.16-45,40.21-43.67,67.44,1.84,38.25,37.45,63,79.89,63.11a98.17,98.17,0,0,0,40.25-8.41A98.43,98.43,0,0,1,282.39,238.85Z" transform="translate(-76.47 -33.81)" fill="#e75400" opacity="0.2"/><path d="M292.27,159.43c0,.44.07.88.07,1.33a13.39,13.39,0,1,1-10.18-12.9,23.39,23.39,0,1,0,10.11,11.57Z" transform="translate(-76.47 -33.81)" fill="#51364d"/><path d="M253.84,189.61a6.34,6.34,0,1,0-6.34-6.34A6.34,6.34,0,0,0,253.84,189.61Z" transform="translate(-76.47 -33.81)" fill="#fff"/><path d="M245.52,191.58a2,2,0,1,0-2-2A2,2,0,0,0,245.52,191.58Z" transform="translate(-76.47 -33.81)" fill="#fff"/><path d="M392.41,162.54a5.6,5.6,0,0,1,.59-.12,6,6,0,1,1-5,6.82,6.08,6.08,0,0,1,0-1.41,10.57,10.57,0,1,0,4.48-5.29Z" transform="translate(-76.47 -33.81)" fill="#51364d"/><path d="M391.68,182.45a2.74,2.74,0,1,0-2.74-2.74A2.74,2.74,0,0,0,391.68,182.45Z" transform="translate(-76.47 -33.81)" fill="#fff"/><path d="M388.08,183.3a.86.86,0,1,0-.85-.85A.85.85,0,0,0,388.08,183.3Z" transform="translate(-76.47 -33.81)" fill="#fff"/><path d="M314.81,248.56c-.26.13-24.66,34.22,12.32,30.08,15.92-1.78,88.79-41.13,88.79-41.13S353,233.77,314.81,248.56Z" transform="translate(-76.47 -33.81)" fill="#ff9e2e"/><path d="M393.47,249.31c12.92-6.65,22.45-11.8,22.45-11.8S353,233.77,314.81,248.56C332.62,244.41,361.89,245.83,393.47,249.31Z" transform="translate(-76.47 -33.81)" opacity="0.1"/><path d="M460,409.46c-3.28-8-5.7-18.2-8-29.82-2.64-14.19-13-92.5-17.82-105.77-6.14-17-15.07-29.07-26.16-36.23-14.47-9.16-30.63-9.57-50.95,2.41C332.19,255,326.39,284.89,320,305.94c-3.22,11.14-6.91,21.66-11.72,24.23-3.8,1.93-14.26,3.81-41.8-9.31-5.28-2.56-12.44.85-16.25,7.74s-2.92,14.39,2.28,16.64c28.25,12.26,47.06,13.09,62.12,5.31,15.9-8.29,21.9-24.13,26.51-39.72,5.77-19.07,10-53.94,28.81-64.92,14.32-8.29,25-9.62,31.8-5.46,12.67,7.84,26,116.7,29.7,141.33,3.09,18.36,5.73,33.68,11.88,44.67A164.78,164.78,0,0,0,460,409.46Z" transform="translate(-76.47 -33.81)" opacity="0.2"/><path d="M329.13,273.59c-20.81,2.33-22.19-7.44-19.36-16.46-4.63,9.84-7.47,24.29,17.36,21.51,8.47-.94,33.06-12.53,54.22-23.16C358,264.68,335.84,272.84,329.13,273.59Z" transform="translate(-76.47 -33.81)" opacity="0.1"/><path d="M523.32,416.34c-1.78-5.91-10.1-12.62-16.3-8-11.26,8.32-26,17.37-32.06,15.12-12.88-4.56-15.09-30.45-20-54.83-2.73-14.28-13.51-93.15-18.46-106.51-6.36-17.15-15.61-29.28-27.1-36.48-15-9.23-31.72-9.64-52.77,2.42-25.82,15.06-31.82,45.16-38.43,66.35-3.33,11.22-7.15,21.82-12.13,24.41-3.94,1.94-14.78,3.83-43.31-9.38-5.46-2.58-12.87.85-16.83,7.79s-3,14.5,2.37,16.76c29.26,12.35,48.74,13.19,64.34,5.35,16.47-8.34,22.69-24.3,27.46-40,6-19.21,10.39-39.59,29.84-50.65,14.83-8.34,25.88-9.69,32.95-5.49,13.12,7.89,26.89,102.79,30.75,127.59,5.47,31.58,6.18,61.89,29.35,69.09a38.93,38.93,0,0,0,9.82,1.77c11.39.67,25.25-2.76,40.79-9.24C519.11,430.09,524.7,420.92,523.32,416.34Z" transform="translate(-76.47 -33.81)" fill="#f08b7d"/><path d="M409.44,225.6c-15-9.23-31.72-9.64-52.77,2.42a59.82,59.82,0,0,0-19.33,18.25,315.83,315.83,0,0,1,33.88,1.7c14.21-7.73,24.84-8.89,31.71-4.81,2.06,1.24,4.15,4.65,6.21,9.61,8.43,1.26,16.91,2.63,25.27,4C428.19,242.42,419.71,232,409.44,225.6Z" transform="translate(-76.47 -33.81)" opacity="0.1"/><path d="M338.89,270.59a22.71,22.71,0,0,0-6.83-6.08c1.15-3.35,2.38-6.72,3.71-10.07a44.51,44.51,0,0,1,9.36,2.78,23,23,0,0,0-8.44-5.08c1.75-4.26,3.67-8.45,5.77-12.44a72.06,72.06,0,0,0-9.73,14.21l0,0h0a107.29,107.29,0,0,0-5.17,11.38v0h0c-2.49,6.35-4.45,12.77-6.24,18.83h0l-.06.22-.6,2c-.05.18-.11.36-.16.54h0c-.75,2.56-1.48,5-2.22,7.4-1.3,4.39-2.68,8.69-4.18,12.44-.36.91-.73,1.79-1.1,2.63h0a25.94,25.94,0,0,1-5,8,8.77,8.77,0,0,1-.89.76l0,0-.4.28-.06,0-.47.27-.52.23-.08,0-.58.23c-2.7,1-7.53,1.52-16-.37h0l-1.46-.34h0l-1.53-.39a115.92,115.92,0,0,1-12.71-4.28h0l-1.16-.46L271,313l-.73-.3c-2.33-1-4.8-2.05-7.43-3.27-5.46-2.58-12.87.85-16.83,7.79-2.23,3.94-2.9,8.07-2.08,11.33a18.5,18.5,0,0,1,2.18-5.47c4.11-6.94,11.82-10.38,17.51-7.8,2,.89,3.89,1.7,5.71,2.45a40,40,0,0,0,1.19,17.78,81.14,81.14,0,0,1,1.62-16.64c4.84,1.91,9.08,3.35,12.8,4.42a28,28,0,0,0,.79,11.62A56,56,0,0,1,287.42,324c8.36,2.17,13.8,2.33,17.3,1.8a42.82,42.82,0,0,1-1.27,7.19,22.05,22.05,0,0,0,3.53-7.69,11.41,11.41,0,0,0,1.64-.62c3.48-1.74,6.42-7.1,9-13.83a26.45,26.45,0,0,0,8.86.49,53.59,53.59,0,0,1-8.09-2.54c1-2.71,1.92-5.6,2.83-8.53,1.12-3.45,2.32-7.67,3.67-12.39,2.47.49,5,1,7.55,1.56a64.31,64.31,0,0,0-7-3.59c1.69-5.87,3.59-12.39,5.82-19.09A44.68,44.68,0,0,1,338.89,270.59Z" transform="translate(-76.47 -33.81)" fill="#fff" opacity="0.4"/><path d="M456.25,404.44c2.29.27,4.31.41,6.15.47-.16-.55-.32-1.1-.47-1.67C460.06,403.65,458.15,404.05,456.25,404.44Z" transform="translate(-76.47 -33.81)" fill="#fff" opacity="0.4"/><path d="M458.47,387.35l-.36-1.94c-1-5.5-2-11.2-3.11-16.82-.24-1.28-.55-3.09-.92-5.32-.06-.35-.11-.7-.17-1.07h0q-.09-.54-.18-1.11c-.64-4-1.4-8.94-2.26-14.55h0l-.21-1.34h0c-1.92-12.61-4.28-28.15-6.63-42.49v0h0c-1-5.89-1.93-11.58-2.86-16.78h0c-.14-.8-.29-1.59-.43-2.38h0c-1.3-7.15-2.53-13.21-3.6-17.37v0c-.12-.45-.23-.87-.34-1.27h0c-.3-1.1-.59-2-.86-2.76a97.91,97.91,0,0,0-5.1-11.52c-.1-.19-.19-.38-.29-.56h0a66.65,66.65,0,0,0-16.28-20.48,253.49,253.49,0,0,1,13.4,22.07,21.38,21.38,0,0,0-5.31,4.64,42.11,42.11,0,0,1,6.22-2.91c.91,1.76,1.7,3.37,2.3,4.72a62.13,62.13,0,0,1,2.6,8,22.7,22.7,0,0,0-7.44,5,43.71,43.71,0,0,1,8-2.8c1.16,4.53,2.4,10.05,3.69,16.18-1.75.6-3.65,1.36-5.77,2.32,2.05-.22,4.11-.42,6.12-.61,1.12,5.43,2.27,11.28,3.42,17.32-1.71.6-3.56,1.34-5.63,2.27,2-.21,4-.41,5.94-.59,1.38,7.28,2.75,14.79,4.07,22.1-2,.44-4.08.88-6.14,1.3,2.42.28,4.55.43,6.46.48,1,5.7,2,11.26,3,16.47l-3,.62c1.12.13,2.16.23,3.16.31,1,5.48,1.91,10.55,2.74,15a69,69,0,0,0-6.75,2.65c2.39-.25,4.79-.48,7.13-.69,1,5.33,1.88,9.55,2.54,12.15.83,3.19,1.63,6.4,2.41,9.6-2.66.59-5.44,1.19-8.22,1.75A64.56,64.56,0,0,0,458.47,387.35Z" transform="translate(-76.47 -33.81)" fill="#fff" opacity="0.4"/><path d="M521.45,412.68c-3.26-4.54-9.51-8-14.43-4.38-3.1,2.29-6.47,4.64-9.84,6.79-.79.5-1.57,1-2.35,1.46a63.85,63.85,0,0,1-13,6.36c-.36.11-.73.22-1.08.31l-.37.1-.85.18a12.16,12.16,0,0,1-2.37.26,18.34,18.34,0,0,0,3.17,3.33,52.86,52.86,0,0,1,1.62,9.2,25.91,25.91,0,0,0,.8-7.67,11.39,11.39,0,0,0,1.52.65c3.3,1.18,9.1-.75,15.55-4,1.07,2.06,2,4.11,2.82,6.1a31.56,31.56,0,0,0-1.35-6.87,161.25,161.25,0,0,0,16.33-10.3A8,8,0,0,1,521.45,412.68Z" transform="translate(-76.47 -33.81)" fill="#fff" opacity="0.4"/><path d="M366.88,247.43a46.36,46.36,0,0,0-14.6,12.24c-1.4-.57-2.87-1.12-4.45-1.63q1.92,1.32,3.75,2.54a65.33,65.33,0,0,0-7.38,12.83c-1.08-.42-2.21-.83-3.39-1.21l3,2.06c-2.28,5.26-4.12,10.79-5.92,16.33-1-.17-2-.32-3-.45l2.75,1.19c-.69,2.12-1.37,4.24-2.07,6.35A136.66,136.66,0,0,1,330.18,312c-.85-.14-1.7-.28-2.6-.39l2.31,1c-4.73,10.13-11.47,19.2-23,24.7a49,49,0,0,1-5,2c.2-1.06.38-2.15.53-3.29-.55,1.24-1.09,2.46-1.61,3.65-12.84,4.09-28.26,3.08-48.79-4.23,27.21,10.88,45.71,11.33,60.64,3.83,16.47-8.34,22.69-24.3,27.46-40q.94-3.06,1.87-6.13h0l.48-1.6c1.53-5,3.1-10.05,5-14.87l.66-1.6h0a66.31,66.31,0,0,1,6.6-12.4q.51-.75,1.05-1.47A45.4,45.4,0,0,1,370,248.65c12.47-7,22.26-9.08,29.26-7.07C392,238.28,381.17,239.84,366.88,247.43Z" transform="translate(-76.47 -33.81)" opacity="0.1"/><path d="M459.85,438.62c-7.1-7-10.63-17.85-13.18-30.46,1.16-.45,2.35-1,3.57-1.52l-3.76.57c-1.14-5.78-2.09-11.92-3.09-18.24,1.26-.49,2.55-1,3.88-1.64l-4,.61c-.59-3.74-1.2-7.53-1.89-11.34l-1.65-10.3c.81-.33,1.64-.69,2.48-1.08l-2.59.39c-.76-4.72-1.65-10.21-2.66-16.2.57-.24,1.15-.49,1.73-.76l-1.82.27c-1-5.85-2.08-12.15-3.26-18.65.69-.29,1.4-.6,2.11-.93l-2.22.33c-1.31-7.18-2.73-14.57-4.23-21.85.44-.19.89-.38,1.34-.59l-1.42.21c-1.3-6.32-2.67-12.53-4.09-18.43.83-.34,1.67-.69,2.53-1.09l-2.69.4c-1.13-4.64-2.28-9.07-3.45-13.17.5-.33,1-.68,1.52-1l-1.65.56c-1.47-5.12-3-9.72-4.5-13.59.94-.65,1.89-1.34,2.85-2.09l-3.18,1.27c-2.36-5.84-4.76-9.88-7.14-11.25a15.56,15.56,0,0,0-2.55-1.17,81.28,81.28,0,0,1,5.87,14.9l.21.7c2.31,7.59,4.56,16.72,6.67,26.46,0,.13.06.25.08.38,2.93,13.52,5.61,28.18,7.87,41.53,0,.14,0,.27.07.41,1.1,6.5,2.1,12.68,3,18.26l.16,1c.93,5.9,1.72,11.07,2.35,15.17h0v.05c.23,1.5.44,2.86.62,4.06,1.08,6.19,2,12.33,2.88,18.26h0c.1.69.21,1.38.32,2.07h0c.94,6,1.94,11.8,3.2,17.15h0c.16.67.32,1.32.48,2h0C443.92,423.45,449.16,433.87,459.85,438.62Z" transform="translate(-76.47 -33.81)" opacity="0.1"/><path d="M464.26,179.37c-18.47-15-45.93,45.33-78.72,29.52S315,248.65,314.81,248.56c44.67-10.4,132.32-.09,177,4.43C492.07,252.77,478.69,190.6,464.26,179.37Z" transform="translate(-76.47 -33.81)" fill="#ff9e2e"/><path d="M464.26,179.37c-18.47-15-45.93,45.33-78.72,29.52-16.88-8.15-35.07,2.62-48.77,15,15-9.83,33.9-17.25,48.61-10.16,32.78,15.81,58.25-27.93,76.72-13,14.43,11.23,30,52,29.71,52.26C492.07,252.77,478.69,190.6,464.26,179.37Z" transform="translate(-76.47 -33.81)" fill="#fff" opacity="0.4"/><path d="M464.26,179.37c-18.47-15-45.93,45.33-78.72,29.52-15.22-7.35-31.5.69-44.6,11.4C355,210.67,371.62,204,386.1,211c32.79,15.81,56-39.88,77-29.23,6.86,3.48,13.08,16.62,18,30.68C476.29,198,470.37,184.12,464.26,179.37Z" transform="translate(-76.47 -33.81)" fill="#fff" opacity="0.2"/><path d="M363.57,217.26s-3.31,3.72,1.08,3.68c1.89,0,10.92-3.76,10.92-3.76S368.23,216,363.57,217.26Z" transform="translate(-76.47 -33.81)" opacity="0.2"/><g opacity="0.8"><path d="M397.05,321.89c-2.47,2.15-2.31,6.55-.16,9.36s5.46,3.15,7.81,1.21a6.43,6.43,0,0,0,.89-8.61C403.56,320.83,399.52,319.72,397.05,321.89Z" transform="translate(-76.47 -33.81)" opacity="0.3"/><path d="M379.83,344.9a2.43,2.43,0,0,0-.25,3.31,2,2,0,0,0,2.87.57,2.16,2.16,0,0,0,.5-3A2.28,2.28,0,0,0,379.83,344.9Z" transform="translate(-76.47 -33.81)" opacity="0.3"/><path d="M412.26,307.07c-1.05-1.45-3.05-1.94-4.21-.8s-1,3.37.16,4.72a2.53,2.53,0,0,0,3.84.38A3.26,3.26,0,0,0,412.26,307.07Z" transform="translate(-76.47 -33.81)" opacity="0.3"/><path d="M394.87,308.75c-1.32-1.75-3.84-2.33-5.32-1s-1.25,4,.17,5.67a3.31,3.31,0,0,0,4.85.48A3.79,3.79,0,0,0,394.87,308.75Z" transform="translate(-76.47 -33.81)" opacity="0.3"/><path d="M375.94,306.79a1.85,1.85,0,0,0,.12-2.63,2.06,2.06,0,0,0-2.85-.44,2.09,2.09,0,0,0,.14,2.89A1.81,1.81,0,0,0,375.94,306.79Z" transform="translate(-76.47 -33.81)" opacity="0.3"/><path d="M375,298.76a1.15,1.15,0,0,0,0-1.62,1.26,1.26,0,0,0-1.76-.24,1.29,1.29,0,0,0,.12,1.79A1.13,1.13,0,0,0,375,298.76Z" transform="translate(-76.47 -33.81)" opacity="0.3"/><path d="M382.65,321.21c-1.5-2.06-4.47-2.81-6.27-1.31s-1.66,4.55-.05,6.47a4,4,0,0,0,5.74.76A4.23,4.23,0,0,0,382.65,321.21Z" transform="translate(-76.47 -33.81)" opacity="0.3"/></g></g></svg>