<svg xmlns="http://www.w3.org/2000/svg" xmlns:xlink="http://www.w3.org/1999/xlink" viewBox="0 0 524.03 544.97"><defs><clipPath id="a" transform="translate(-37.98 -27.51)"><rect width="600" height="600" fill="none"/></clipPath></defs><g clip-path="url(#a)"><path d="M370.51,299.4c-25,0-52.51-2.92-82.57-9.48l3.12-15.06C424.79,304,504.3,258.76,534.12,206.69c16.11-28.12,17.16-58.51,2.63-75.6-12.62-14.85-31.63-6.65-58.76,5.45a15.53,15.53,0,0,1-20.94-8.89h0a15.54,15.54,0,0,1,9.79-20.08c15.6-5,29.93-7,42.76-5.67,15.91,1.59,29.2,8.18,38.46,19.06,9.41,11.07,14.23,25.9,14,42.86-.28,16.55-5.45,34.07-15,50.67C521.48,259.15,463.23,299.4,370.51,299.4Z" transform="translate(-37.98 -27.51)" fill="#f08b7d"/><path d="M163.38,406.61a49.81,49.81,0,0,1-15.74.7c-6.66-3.15-11.47-8.42-12.9-16.51a30.71,30.71,0,0,1-.45-5,26.69,26.69,0,0,0-1.16,11.92,12.75,12.75,0,0,0,3.27,6.66q-2.06-.84-4.09-1.9a53.34,53.34,0,0,1-9.11-6.11c4.38,8,9.63,14.34,15.74,18.18-9.14-1.54-16.88-4.61-22-9.83a61.18,61.18,0,0,1-7.48-9.36c2.17,10.49,6.08,19.36,12.11,25.5a17,17,0,0,0,2.43,2c-13.4.32-25.2-1.94-33.61-8.07a80.89,80.89,0,0,1-11.79-10.61c5.09,13.23,12.11,24,21.32,30.7,6.39,4.66,15.46,5.91,25.94,4.79C103.54,451.2,84.56,464.57,80,476.83c-3.37,9-3,18.34,0,27.48a64.25,64.25,0,0,1,3.27-12.41c6.36-17,32.1-36.47,59.42-52.66-5,5.11-8.51,10.14-10,14.89-2.82,9.2-1.93,18.49,1.66,27.43A64.18,64.18,0,0,1,136.92,469c4.19-13.66,20.2-29.48,39.62-44.25Z" transform="translate(-37.98 -27.51)" fill="#6a4f4d"/><path d="M267.58,505.25c-98,0-229.6,22.17-229.6,30.15s131.57,14.43,229.6,14.43S476.1,543.37,476.1,535.4,365.61,505.25,267.58,505.25Z" transform="translate(-37.98 -27.51)" opacity="0.1"/><polygon points="340.64 415.39 355.26 502.25 358.71 501.74 350.42 408.52 340.64 415.39" fill="#ff9e2e"/><polygon points="357.2 501.96 358.71 501.74 350.42 408.52 357.2 501.96" fill="#fff" opacity="0.4"/><polygon points="352.06 457.53 348.72 458.38 340.64 415.39 352.32 484.75 352.32 484.75 352.47 485.64 352.47 485.64 353.67 492.75 353.67 492.75 353.76 493.34 355.26 502.25 356.92 502 355.15 492.58 355.72 492.23 355.11 492.38 353.7 484.89 355.13 484.02 353.61 484.41 352.54 478.72 354.57 477.49 352.42 478.04 351.32 472.23 354.38 470.39 351.13 471.22 350.12 465.84 353.09 464.05 349.94 464.86 348.92 459.43 352.06 457.53" fill="#d04000" opacity="0.4"/><path d="M375.06,431.16c-11.49,3.17-21.33,14.7-18.16,26.19,2,7.37,10.2,17.57,18.82,23.12s20.38,1.4,23.09-8.51c.06-.22.12-.45.17-.67a57.66,57.66,0,0,0-.47-25.42C395.34,434.38,386.55,428,375.06,431.16Z" transform="translate(-37.98 -27.51)" fill="#6a4f4d"/><path d="M393.93,473.1c-.09.39-.18.77-.29,1.15a25,25,0,0,1-3.41,7.47,14.75,14.75,0,0,0,8.58-9.76c.06-.22.12-.45.17-.67a57.66,57.66,0,0,0-.47-25.42,26,26,0,0,0-3.67-8C396.46,448.54,396.53,461.91,393.93,473.1Z" transform="translate(-37.98 -27.51)" opacity="0.3"/><path d="M429.22,516.44c-19.59-7.29-39.81,9.2-55.27,31.41,9.5-8.64,19.48-15.35,29.68-19.23a35.59,35.59,0,0,1,9.15,20.06,48.09,48.09,0,0,1,.22,9.1c3.34-7.83,5-15.25,4.16-21.64a21.57,21.57,0,0,0-1.91-6.66,42.65,42.65,0,0,1,16.88,19.24,58.21,58.21,0,0,1,3.5,10.32c1-10.15.24-19.21-3-26.24a25.71,25.71,0,0,0-5.3-7.69,46.63,46.63,0,0,1,11.82,2.74,54.81,54.81,0,0,1,9.66,4.77C443.05,524.89,436.47,519.15,429.22,516.44Z" transform="translate(-37.98 -27.51)" fill="#ff9e2e"/><path d="M439.05,526.9a18.38,18.38,0,0,0-11.68-1.79,46.63,46.63,0,0,1,11.82,2.74,54.81,54.81,0,0,1,9.66,4.77C445.71,530.68,441.6,528.15,439.05,526.9Z" transform="translate(-37.98 -27.51)" fill="#d04000" opacity="0.4"/><path d="M435.63,559c-.89-3.67-1.28-8.56-2.24-11.27-2.14-6.07-8.19-14.91-18.14-18.29a42.65,42.65,0,0,1,16.88,19.24A58.21,58.21,0,0,1,435.63,559Z" transform="translate(-37.98 -27.51)" fill="#d04000" opacity="0.4"/><path d="M412.78,548.68c-1-8.06-2.82-17.36-7.73-22.73-10.2,3.88-21.6,13.26-31.1,21.9,9.5-8.64,19.48-15.35,29.68-19.23A35.59,35.59,0,0,1,412.78,548.68Z" transform="translate(-37.98 -27.51)" fill="#d04000" opacity="0.4"/><path d="M429.22,516.44c-13.1-4.87-26.47.89-38.52,11.88,13.37-9.22,28.37-13.23,40.06-8.88,7.26,2.7,12.29,5.45,18.09,13.18C443.05,524.89,436.47,519.15,429.22,516.44Z" transform="translate(-37.98 -27.51)" fill="#fff" opacity="0.4"/><polygon points="176.76 417.16 138.85 496.66 141.96 498.23 188.71 417.16 176.76 417.16" fill="#ff9e2e"/><polygon points="140.59 497.54 141.96 498.23 188.71 417.16 140.59 497.54" fill="#fff" opacity="0.4"/><polygon points="161.91 458.22 158.68 457 176.76 417.16 146.49 480.64 146.49 480.64 146.1 481.46 146.1 481.46 142.99 487.98 142.99 487.98 142.73 488.51 138.85 496.66 140.34 497.41 144.3 488.68 144.98 488.73 144.38 488.5 147.53 481.56 149.21 481.67 147.74 481.12 150.13 475.84 152.5 476 150.41 475.21 152.86 469.83 156.42 470.07 153.28 468.89 155.54 463.91 159 464.14 155.96 463 158.24 457.97 161.91 458.22" fill="#d04000" opacity="0.4"/><path d="M148.38,533.94c11.84-17.22,37.87-15.34,63.28-6-12.73-1.61-24.76-1.37-35.34,1.3a35.58,35.58,0,0,0,4,21.68,47.87,47.87,0,0,0,5,7.58c-7.22-4.5-12.81-9.63-15.83-15.33a21.64,21.64,0,0,1-2.26-6.55A42.67,42.67,0,0,0,164.54,562a58,58,0,0,0,3.06,10.46c-6.67-7.72-11.23-15.59-12.65-23.18a25.77,25.77,0,0,1-.08-9.34,46.58,46.58,0,0,0-8.1,9,54.78,54.78,0,0,0-5.17,9.46C141.91,548.8,144,540.31,148.38,533.94Z" transform="translate(-37.98 -27.51)" fill="#ff9e2e"/><path d="M146.34,548.14a18.43,18.43,0,0,1,8.53-8.17,46.58,46.58,0,0,0-8.1,9,54.78,54.78,0,0,0-5.17,9.46C143.06,555.07,145,550.63,146.34,548.14Z" transform="translate(-37.98 -27.51)" fill="#d04000" opacity="0.4"/><path d="M167.6,572.49c-1.38-3.51-3.87-7.75-4.64-10.51-1.73-6.21-1.86-16.92,4.34-25.4A42.67,42.67,0,0,0,164.54,562,58,58,0,0,0,167.6,572.49Z" transform="translate(-37.98 -27.51)" fill="#d04000" opacity="0.4"/><path d="M180.36,550.88c-3.81-7.18-7.67-15.83-6.74-23,10.58-2.67,25.31-1.54,38,.07-12.73-1.61-24.76-1.37-35.34,1.3A35.58,35.58,0,0,0,180.36,550.88Z" transform="translate(-37.98 -27.51)" fill="#d04000" opacity="0.4"/><path d="M141.6,558.46c.31-9.66,2.85-14.81,7.24-21.18,7.07-10.28,21.65-15.62,37.89-15.75-16.17-2.07-30.43.89-38.35,12.41C144,540.31,141.91,548.8,141.6,558.46Z" transform="translate(-37.98 -27.51)" fill="#fff" opacity="0.4"/><path d="M189,464.2c1.57,13.54,15.72,22.08,28.17,16.52l.83-.4a76.29,76.29,0,0,0,25.68-21.86c9.12-12.93,8.28-27.32-4.64-36.44s-33-9.52-42.15,3.41C191.07,433.71,187.47,450.68,189,464.2Z" transform="translate(-37.98 -27.51)" fill="#6a4f4d"/><path d="M205.65,427a30.45,30.45,0,0,1,15.81-11.38c-9.52-.9-19,2-24.54,9.85-5.85,8.28-9.45,25.25-7.89,38.77a20.62,20.62,0,0,0,6,12.29C193.45,458.89,198.16,437.56,205.65,427Z" transform="translate(-37.98 -27.51)" fill="#ffe7d4" opacity="0.2"/><path d="M247.65,431.8a41.4,41.4,0,0,1-6.48,18.3C235,460,222.48,473,209.63,480.3l-1,.57a25.28,25.28,0,0,1-2.84,1.25,19.44,19.44,0,0,0,11.45-1.4l.83-.4a76.29,76.29,0,0,0,25.68-21.86C250,449.53,251.55,439.9,247.65,431.8Z" transform="translate(-37.98 -27.51)" opacity="0.3"/><path d="M402.16,152.13a37.06,37.06,0,0,0,3.64-25.86c-5.23-25.75-36.09-46.19-65.25-40.52A49.54,49.54,0,0,0,325.79,91c-20-10.62-39.81-17.25-58-19a38.48,38.48,0,0,1,11.61-9.06,55.2,55.2,0,0,1,10.26-4c-11.08-.57-20.58.68-27.39,4.21-.26.13-.5.28-.75.42a78.22,78.22,0,0,1,5.85-20.69,79.3,79.3,0,0,1,9-15.32C262,34.56,251.17,43.77,245.74,55.43a44.67,44.67,0,0,0-4.08,17.76l-.24,0a40.05,40.05,0,0,0-32.69-5c-11.32,3-22.7,10.49-33.9,20.67a97.31,97.31,0,0,1,15.6-5.51A69.31,69.31,0,0,1,219.61,82c-32,19.93-46.34,64.07-57.19,112-10.17,48-16.86,99.77-18,136.48-1.5,80.27,30.88,140.48,120.67,146.66,44.6,2.51,95.66-10.83,136.55-39.09,40.78-28,71.39-70.86,72.48-120.64C475.87,269.39,410.1,272,402.16,152.13Z" transform="translate(-37.98 -27.51)" fill="#6a4f4d"/><path d="M413.38,394.93A82.49,82.49,0,0,1,400.75,408a60.67,60.67,0,0,1-10.44-8.84l-.52-.58-.69-.83a29.3,29.3,0,0,1-6.18-11.17,30.41,30.41,0,0,0,6,13.24,64.52,64.52,0,0,1-6.68,8.17c-8.6,9.35-20,16.3-19.88,16.3a97.21,97.21,0,0,1-8.45-8.46l-.13-.14a62.16,62.16,0,0,1-5.87-7.83,45.47,45.47,0,0,1-5.7-11.82c1.71-1.66,3.42-3.45,5-5.33,5.63-6.34,10-13.69,11.88-20.53a53,53,0,0,1-11,17,81.71,81.71,0,0,1-6.52,6.41l-.24.21a126.84,126.84,0,0,1-12.57,9.52c0-.06-3.46-2.78-7.54-7l-.33-.34a66.76,66.76,0,0,1-7.16-8.68,42.94,42.94,0,0,1-7.44-16.37c.58,6.6,3.35,13.67,7.4,19.85a66.63,66.63,0,0,0,5.64,7.73,59.81,59.81,0,0,1-7.74,9.42,81.88,81.88,0,0,1-8.1,7.31l-.5.41a134.84,134.84,0,0,1-11.15,7.78c.14,0-8.73-7-14.52-15.88a47.71,47.71,0,0,1-3.53-6c-.13-.26-.26-.52-.37-.79a35.79,35.79,0,0,1-3-9.37,36.22,36.22,0,0,0,2.26,10.35,45.34,45.34,0,0,1-4,4.39c-6.72,6.87-15.66,12-15.55,12s-7-5.44-11.62-12.34A31.33,31.33,0,0,1,236,393.23a32.45,32.45,0,0,0,5.44,15.19c4.39,7.19,11.17,12.88,11.15,13s8.78-5.39,15.4-12.54a50.51,50.51,0,0,0,5.06-6.1,49.52,49.52,0,0,0,4.17,8.21c5.48,9.25,13.91,16.57,13.9,16.68a127.57,127.57,0,0,0,12.34-9.26,47.81,47.81,0,0,0,4.06,12.16c4.46,9.86,12,18,12,18.08,0-.1,11.71-6.33,21-15.21a62.32,62.32,0,0,0,12.1-14.88,95.44,95.44,0,0,0,9.06,10.14c0-.1,11.23-7.35,19.73-17.08a66.87,66.87,0,0,0,8.19-11,59.16,59.16,0,0,0,11.06,10.55A82.61,82.61,0,0,0,413,397.52,40.27,40.27,0,0,0,420.17,382,40,40,0,0,1,413.38,394.93Zm-71.66,35c-9.32,8.5-21.2,14.43-21.06,14.44s-7.87-7.82-12.68-17.31a45.22,45.22,0,0,1-3.84-9.29,83,83,0,0,0,6.53-6.37,61.23,61.23,0,0,0,9.16-12.32,103.47,103.47,0,0,0,8.29,8.52,121.7,121.7,0,0,0,13.67-11.13,48.52,48.52,0,0,0,6,14.93,63.68,63.68,0,0,0,4.48,6.78A61.38,61.38,0,0,1,341.72,429.92Z" transform="translate(-37.98 -27.51)" fill="#ffe7d4" opacity="0.2"/><path d="M351.29,416.84c-.32-.44-.63-.9-1-1.36l-.3-.43-.8-1.24c-.12-.2-.25-.38-.37-.58-.37-.6-.74-1.22-1.09-1.84s-.61-1.05-.91-1.58l-.23-.41c-.27-.51-.54-1-.8-1.54a.2.2,0,0,1,0-.08c-.27-.54-.53-1.09-.78-1.64-.06-.13-.13-.27-.19-.41-.22-.49-.43-1-.63-1.48l-.09-.22q-.32-.79-.6-1.59c-.08-.2-.14-.4-.21-.6l-.15-.4a47.46,47.46,0,0,0,5.48,15.22c.66,1.26,1.38,2.46,2.11,3.63.53-.71,1-1.41,1.52-2.12-.3-.4-.6-.81-.89-1.23ZM318.4,401.49l-.22.33c-.15.25-.31.5-.47.74s-.37.55-.55.82-.26.39-.4.58l-1,1.41-.15.18c-.31.43-.64.85-1,1.27l-.27.34-.91,1.11-.29.34c-.32.38-.65.76-1,1.13-.09.1-.16.19-.25.28-.41.46-.83.92-1.26,1.37-1.5,1.65-3.09,3.22-4.68,4.7l-.46.42-.9.81-.49.44c.29,1,.63,2,1,3,1.39-1.34,2.78-2.75,4.1-4.23a58.51,58.51,0,0,0,9.83-14.14,93.43,93.43,0,0,0,8.87,9.91,115.67,115.67,0,0,0,13.51-11.4c.39-.39.78-.81,1.17-1.21-.31-1.07-.59-2.15-.82-3.22-1.27,1.23-2.55,2.37-3.77,3.44l-.08.06q-.58.51-1.17,1l-.06.05c-.33.29-.66.56-1,.83l-.24.19-.93.75-.3.24-.67.53-.28.22-.77.59-.34.26-.53.4-.39.29-.49.37-.26.18-.57.42-.14.11-.48.34-.06,0-.86.61-.18.13,0,0-.07.06a103.47,103.47,0,0,1-8.29-8.52c-.45.81-.93,1.62-1.44,2.42ZM346,396c5.77-6.63,10.19-14.42,11.71-21.48,0,.06-.05.12-.08.19-.24.58-.5,1.17-.77,1.75l-.08.18c-.29.61-.59,1.22-.91,1.82l-.24.45c-.32.6-.65,1.2-1,1.8l-.13.22c-.33.55-.66,1.09-1,1.63l-.27.43q-.57.88-1.17,1.74l-.27.37q-.56.78-1.14,1.56l-.21.29c-.44.57-.9,1.14-1.36,1.7l-.31.38c-.48.58-1,1.15-1.46,1.71s-.72.83-1.09,1.24l-.25.28c-.36.41-.73.8-1.1,1.19a.69.69,0,0,0-.11.13c-.38.39-.75.78-1.13,1.16l-.09.1L342.25,396c.3,1,.65,2,1,3C344.2,398,345.1,397,346,396Zm-28.15,4.75c.53-.73,1-1.46,1.52-2.19a2.23,2.23,0,0,0-.19-.24c-.38-.45-.76-.92-1.14-1.4l-.22-.28c-.44-.55-.87-1.12-1.3-1.69l-.11-.16c-.45-.61-.89-1.23-1.32-1.87l-.06-.08c-.45-.66-.88-1.33-1.3-2a52.9,52.9,0,0,1-2.78-4.77,49.89,49.89,0,0,1-2.19-4.92,47.14,47.14,0,0,0,6,14.85A54.68,54.68,0,0,0,317.82,400.7Zm101.47-15.28c-.1.3-.2.61-.31.91s-.21.6-.33.9-.21.57-.33.86-.31.74-.48,1.1-.26.59-.4.89c-.23.49-.47,1-.73,1.46l-.39.73-.6,1.07c-.15.25-.29.5-.44.74s-.45.74-.69,1.11l-.41.64c-.38.57-.76,1.13-1.17,1.69a65,65,0,0,1-6.24,7.61l0,0-1,1-.08.08-.87.88-.1.09c-.27.28-.54.54-.8.79l-.09.09-.73.69-.06,0c-1.48,1.4-2.45,2.23-2.46,2.26a6.09,6.09,0,0,0-.55-.43,55.82,55.82,0,0,1-10.51-10.12c-.21.35-.42.7-.64,1.05a.25.25,0,0,1,0,.07h0l-.62,1-.3.46-.48.73-.48.69-.4.57-.6.83-.35.48c-.23.3-.46.61-.7.91l-.31.39c-.25.33-.52.66-.78,1l-.27.33-.89,1.05-.2.24-1.13,1.27c-8.5,9.73-19.72,17-19.73,17.08a103.5,103.5,0,0,1-7.13-7.71l-.21-.25-.24-.29c-.47-.58-.94-1.18-1.42-1.81h0l-.06-.08c-.45.79-.93,1.58-1.43,2.37h0c-.21.33-.44.66-.66,1l-.4.61c-.41.58-.83,1.17-1.26,1.74l-.44.57c-.31.41-.62.8-.94,1.2-.19.24-.39.47-.59.71s-.58.69-.88,1-.42.49-.64.73-.6.67-.91,1l-.66.7-1,1.05-.6.59c-.55.54-1.1,1.07-1.67,1.59-9.26,8.88-20.95,15.11-21,15.21s-.7-.82-1.81-2.18h0a3.25,3.25,0,0,1-.23-.29l-.15-.18-.14-.18c-.08-.1-.17-.2-.25-.31l-.08-.1-.33-.42,0,0a73.74,73.74,0,0,1-8.95-14.38c-.31-.63-.6-1.27-.88-1.92l-.22-.51c-.27-.63-.53-1.27-.77-1.91v0c-.26-.69-.5-1.39-.72-2.08l-.12-.37c-.19-.59-.36-1.19-.52-1.78a2.76,2.76,0,0,1-.08-.27h0c-.29-1.09-.54-2.19-.74-3.29-.8.69-1.6,1.35-2.37,2l0,0c-.75.61-1.48,1.19-2.19,1.73l-.12.1-1.94,1.46-.2.14-.76.56-.11.08L295,425l-.28.2-.44.31-.29.2-.52.36-.38.26-.15.1c-.89.61-1.5,1-1.71,1.15l0,0-.06.05c0-.11-8.42-7.43-13.9-16.68-.39-.61-.76-1.24-1.12-1.87l-.33-.6c-.23-.43-.47-.86-.69-1.29l-.41-.82c-.17-.36-.35-.71-.51-1.07s-.3-.65-.44-1l-.19-.42-.36-.89-.12-.28-.06.09-.12.16c-.21.3-.44.6-.66.9l-.36.48c-.29.38-.59.75-.89,1.12l-.33.41c-.27.33-.55.65-.83,1s-.31.36-.48.54c-.43.48-.88,1-1.33,1.43a61.62,61.62,0,0,1-4.51,4.37l0,0-.59.51-.07.06-.52.44-.14.12-.5.41-.15.13-.44.36-.21.17-.4.32-.24.19-.38.29-.24.2-.32.24-.3.23-.25.19-.35.26-.2.15-.38.29-.12.09-.45.33,0,0c-2.68,1.95-4.56,3.11-4.57,3.14s-.48-.45-1.28-1.2l-.08-.07-.15-.15-.17-.15-.09-.09-.24-.24-.05,0-.3-.29,0,0-.33-.33,0,0-.37-.36h0l-.8-.82h0l-.42-.44,0,0-.41-.43-.06-.07-.39-.42-.06-.07-.39-.43-.11-.13-.35-.39-.14-.17-.32-.37a2.09,2.09,0,0,1-.14-.17l-.33-.39-.17-.2-.3-.37-.21-.26-.26-.32-.26-.34-.21-.26-.29-.39-.17-.23-.33-.44-.13-.19-.35-.49-.1-.15-.41-.6,0-.05c-.14-.2-.28-.41-.41-.62l0,0-.42-.68a37.77,37.77,0,0,1-3.74-7.43,34.34,34.34,0,0,0,4.48,11.37,61.77,61.77,0,0,0,10.21,12.58,83.08,83.08,0,0,0,14.49-12.13,47.21,47.21,0,0,0,6.35-8.38A46.66,46.66,0,0,0,278.07,416c5,9,12.71,16.11,12.7,16.21A119.56,119.56,0,0,0,304,421.84a47,47,0,0,0,3.86,13.94c4,9.55,10.86,17.41,10.84,17.52,0-.1,11-6.15,19.8-14.75a58.83,58.83,0,0,0,13-17.17,86.75,86.75,0,0,0,9.8,12.06c0-.09,10.56-7.1,18.6-16.5a62.36,62.36,0,0,0,9.67-14.24c.27.39.54.77.83,1.15a54.58,54.58,0,0,0,10.43,10.61,78.18,78.18,0,0,0,11.66-13.09c3.65-5.18,6.28-11.06,6.95-16.21Z" transform="translate(-37.98 -27.51)" opacity="0.1"/><path d="M215.87,104.33c1-8.45,1.86-15.77,2.59-21.63-10.43,6.73-18.93,16.15-26.05,27.43A87.65,87.65,0,0,1,210,105.18C211.94,104.83,213.91,104.55,215.87,104.33Zm11.4,311.14q2.26,13.57,5.5,26.33c-15.11-20.89-26.63-57.62-29.9-89.62-1.94-20.73-1.2-40.79,2.37-58.72q-2.38,6.82-4.26,13.94a179,179,0,0,0-5.91,52.81c-12-28.2-4.68-75.79,2.56-125.7-15.79-5-29.17-13.52-38.37-24.95-8.22,43.36-14,88.16-14.86,120.89-1.5,80.27,30.88,140.48,120.67,146.66,5.71.31,11.52.38,17.39.18C256.67,463.9,239,442.5,227.27,415.47Z" transform="translate(-37.98 -27.51)" fill="#ffe7d4" opacity="0.2"/><path d="M218.19,82.87C207.88,89.59,199.46,99,192.4,110.13A86.36,86.36,0,0,1,204,106.42,119.41,119.41,0,0,1,218.19,82.87ZM165.86,325.33c.47-27.94,4.25-64.29,9.41-101.34a70,70,0,0,1-16-14.43c-8.22,43.36-14,88.16-14.86,120.89-1.5,80.27,30.88,140.48,120.67,146.66q7.59.42,15.37.23C195,468.86,164.89,407.38,165.86,325.33Z" transform="translate(-37.98 -27.51)" fill="#ffe7d4" opacity="0.2"/><path d="M323.78,89.9l-.44-.22c-2.11-1.09-4.23-2.14-6.34-3.14l-1-.46c-.95-.44-1.89-.88-2.84-1.3-.49-.22-1-.45-1.49-.66l-1.58-.69-2.47-1-1.25-.5L304.1,81l-.94-.37c-1-.38-2-.76-3-1.12l-.73-.26q-3.34-1.17-6.63-2.18l-.44-.13c-.95-.28-1.88-.55-2.82-.81A253.59,253.59,0,0,1,319.64,95a46.27,46.27,0,0,1,6.14-4Zm78.38,62.23h0a41.11,41.11,0,0,1-12.07,13.38c13.2,17.94-6.82,22.32,2,41.58,17.4,10.22,14.17,38.79,58.18,70.3,20.68,14.81,14,49,3.69,69.4a146.6,146.6,0,0,0-1.88-54.14,142.31,142.31,0,0,0-3.86-13.82c3.83,17.87,4.23,38.58.57,60-5.45,33.22-24.25,70.52-43.34,90a232.16,232.16,0,0,0,14.88-32c-23.29,34.82-59.58,60.82-98,75.39a227.7,227.7,0,0,0,71.39-29l.48-.3c1-.61,1.94-1.23,2.9-1.86l1.47-1,2-1.33a190.09,190.09,0,0,0,44.11-41.23l.24-.31c.57-.75,1.13-1.51,1.69-2.27l.89-1.23.66-.93c.72-1,1.43-2,2.12-3.07l0,0a147.71,147.71,0,0,0,14.57-27.45l.48-1.22c.2-.53.41-1.06.6-1.59.3-.8.59-1.61.88-2.41l.28-.81a128.58,128.58,0,0,0,7-38.81C475.87,269.39,410.11,272,402.16,152.13Z" transform="translate(-37.98 -27.51)" opacity="0.3"/><path d="M345.76,87.5a62.32,62.32,0,0,1,20.92-.3,55.93,55.93,0,0,0-26.13-1.45C316.31,90.32,302.19,110,302.1,130,305.76,110.19,321.26,92.07,345.76,87.5Z" transform="translate(-37.98 -27.51)" fill="#ffe7d4" opacity="0.2"/><g opacity="0.8"><path d="M411.24,344.08c-2.6,2.41-2.56,7.08-.44,10a5.24,5.24,0,0,0,8,.95,7.15,7.15,0,0,0,1.2-9.26C418,342.62,413.84,341.65,411.24,344.08Z" transform="translate(-37.98 -27.51)" opacity="0.3"/><path d="M392.48,369.17a2.68,2.68,0,0,0-.47,3.5,2,2,0,0,0,2.94.51,2.4,2.4,0,0,0,.7-3.16A2.21,2.21,0,0,0,392.48,369.17Z" transform="translate(-37.98 -27.51)" opacity="0.3"/><path d="M427.14,327.38c-1.1-1.5-3.17-1.9-4.36-.6a4,4,0,0,0,.16,5.05,2.54,2.54,0,0,0,4,.19A3.63,3.63,0,0,0,427.14,327.38Z" transform="translate(-37.98 -27.51)" opacity="0.3"/><path d="M409.13,330.21c-1.38-1.79-4-2.25-5.51-.71s-1.3,4.35.15,6a3.35,3.35,0,0,0,5,.25A4.16,4.16,0,0,0,409.13,330.21Z" transform="translate(-37.98 -27.51)" opacity="0.3"/><path d="M381.12,329.23a2,2,0,0,0,.11-2.77,2.08,2.08,0,0,0-3-.3,2.22,2.22,0,0,0,.16,3A1.86,1.86,0,0,0,381.12,329.23Z" transform="translate(-37.98 -27.51)" opacity="0.3"/><path d="M380.05,320.84a1.22,1.22,0,0,0,0-1.71,1.28,1.28,0,0,0-1.83-.13,1.34,1.34,0,0,0,.16,1.86A1.14,1.14,0,0,0,380.05,320.84Z" transform="translate(-37.98 -27.51)" opacity="0.3"/><path d="M396.35,344.07c-1.52-2.1-4.58-2.74-6.47-1.07s-1.81,4.85-.2,6.8a4,4,0,0,0,5.91.55A4.6,4.6,0,0,0,396.35,344.07Z" transform="translate(-37.98 -27.51)" opacity="0.3"/></g><path d="M208.5,103.45c-45.77,9.79-73,54.76-62.94,92,10,37.49,50.55,54.36,92.61,45.42,42-9.2,72-41.29,65.63-79.58C297.55,123.24,254.24,93.49,208.5,103.45Z" transform="translate(-37.98 -27.51)" fill="#6a4f4d"/><path d="M216.17,106a96.11,96.11,0,0,1,32.15-1.52,83.63,83.63,0,0,0-39.82-1c-38,8.13-63.17,40.48-64.91,72.56C150.85,143.9,177.82,114.15,216.17,106Z" transform="translate(-37.98 -27.51)" fill="#ffe7d4" opacity="0.2"/><path d="M208.5,103.45c-45.77,9.79-73,54.76-62.94,92,10,37.49,50.55,54.36,92.61,45.42,42-9.2,72-41.29,65.63-79.58C297.55,123.24,254.24,93.49,208.5,103.45Z" transform="translate(-37.98 -27.51)" fill="#6a4f4d"/><path d="M216.17,106a96.11,96.11,0,0,1,32.15-1.52,83.63,83.63,0,0,0-39.82-1c-38,8.13-63.17,40.48-64.91,72.56C150.85,143.9,177.82,114.15,216.17,106Z" transform="translate(-37.98 -27.51)" fill="#ffe7d4" opacity="0.2"/><path d="M361.13,84.36c-34,7.28-54.23,40.7-46.79,68.4,7.44,27.87,37.58,40.41,68.84,33.77,31.23-6.84,53.51-30.7,48.79-59.15S395.13,77,361.13,84.36Z" transform="translate(-37.98 -27.51)" fill="#ffe7d4"/><path d="M368.76,83.18c26.64,2,48.94,21.08,52.74,44.27,4.72,28.46-17.56,52.32-48.79,59.15a78.57,78.57,0,0,1-10.5,1.51,77.24,77.24,0,0,0,21-1.58c31.23-6.84,53.51-30.7,48.79-59.15C427.68,101.2,399.82,80.32,368.76,83.18Z" transform="translate(-37.98 -27.51)" fill="#e75400" opacity="0.2"/><path d="M203.06,115.09c-45.77,9.79-73,54.76-62.95,92,10,37.5,50.55,54.37,92.61,45.43,42-9.2,72-41.29,65.63-79.58C292.11,134.88,248.79,105.13,203.06,115.09Z" transform="translate(-37.98 -27.51)" fill="#ffe7d4"/><path d="M250.72,242.26c-42.06,8.94-82.92-9.4-93.41-49.16-5.52-20.76-.76-43.64,11.63-62.1-24.11,18.84-36,49.45-28.83,76.11,10,37.5,50.55,54.37,92.61,45.43a99.41,99.41,0,0,0,38.06-16.92A100,100,0,0,1,250.72,242.26Z" transform="translate(-37.98 -27.51)" fill="#e75400" opacity="0.2"/><path d="M278.49,179.12a11.47,11.47,0,0,1,.35,1.31,13.45,13.45,0,1,1-16-10.32,13.63,13.63,0,0,1,3.16-.29,23.74,23.74,0,1,0,12.48,9.3Z" transform="translate(-37.98 -27.51)" fill="#51364d"/><path d="M336.16,156.06a5.55,5.55,0,0,1,.56-.24,6.07,6.07,0,1,1-3.51,7.82,5.79,5.79,0,0,1-.35-1.39,10.66,10.66,0,1,0,3.3-6.19Z" transform="translate(-37.98 -27.51)" fill="#51364d"/><path d="M269.53,305.43h-1.38a376.13,376.13,0,0,1-76-8.41,320.16,320.16,0,0,0,81.38,11.48h1.38c32,0,61.4-5.64,87.31-16.76a198.78,198.78,0,0,0,40.81-23.57,208.55,208.55,0,0,1-46.22,23.24C330.93,300.71,301.56,305.43,269.53,305.43Z" transform="translate(-37.98 -27.51)" opacity="0.2"/><path d="M269.53,306h-1.38c-53.42-.22-101-13.39-123.57-22.08a7.38,7.38,0,0,1-4.53-8.6h0a7.86,7.86,0,0,1,10.39-5.54c22.79,8.46,68.5,21,117.77,21.22h1.38c64.07,0,116.6-25,151.69-63.25a6.94,6.94,0,0,1,10.88.83h0a13.62,13.62,0,0,1-1.48,17.06C410.79,266.32,385,281.88,356.83,292,330.93,301.31,301.56,306,269.53,306Z" transform="translate(-37.98 -27.51)" fill="#f08b7d"/><path d="M140.05,275.34a7.4,7.4,0,0,0,.16,4,9.63,9.63,0,0,1,11.86-6.67c8.05,2.23,18.32,4.68,30.27,6.94a321.85,321.85,0,0,1-31.9-9.78A7.86,7.86,0,0,0,140.05,275.34Z" transform="translate(-37.98 -27.51)" fill="#fff" opacity="0.4"/><path d="M243.09,338.73c-12.63,0-24.77-.56-36.13-1.51,10.12,1.45,20.86,2.55,32,3.14,10.27.54,20.89.65,31.7.23,46.11-1.81,107.36-10.81,156.5-54.13C380.74,324,320.47,334,274.75,337.54,264,338.36,253.37,338.73,243.09,338.73Z" transform="translate(-37.98 -27.51)" opacity="0.2"/><path d="M243.09,339.33c-48.3,0-89.46-8.13-107-15.44a1.55,1.55,0,0,1-.95-1.42h0a9.43,9.43,0,0,1,11.89-9.11c25.95,7,76.87,13.62,126.53,9.82,48.68-3.72,114.65-18.22,159.22-65.31a9.45,9.45,0,0,1,14,.34h0a7.79,7.79,0,0,1-.06,10.34c-47.87,52.94-119.53,65.58-172,69.59C264,339,253.37,339.33,243.09,339.33Z" transform="translate(-37.98 -27.51)" fill="#f08b7d"/><path d="M252.7,219.45a5.83,5.83,0,0,0,4.79-7.26,7,7,0,0,0-8.15-4.68,5.81,5.81,0,0,0-4.74,7.24A7,7,0,0,0,252.7,219.45Z" transform="translate(-37.98 -27.51)" fill="#fff"/><path d="M244.73,223a1.82,1.82,0,0,0,1.51-2.25,2.16,2.16,0,0,0-2.51-1.46,1.82,1.82,0,0,0-1.51,2.24A2.18,2.18,0,0,0,244.73,223Z" transform="translate(-37.98 -27.51)" fill="#fff"/><path d="M348.66,179.09a2.67,2.67,0,0,0,2-3.41,3.11,3.11,0,0,0-3.59-2.21,2.67,2.67,0,0,0-2,3.41A3.11,3.11,0,0,0,348.66,179.09Z" transform="translate(-37.98 -27.51)" fill="#fff"/><path d="M345.26,180.75a.83.83,0,0,0,.62-1.06,1,1,0,0,0-1.11-.69.82.82,0,0,0-.62,1.06A1,1,0,0,0,345.26,180.75Z" transform="translate(-37.98 -27.51)" fill="#fff"/><path d="M303.51,360.9h0a7.52,7.52,0,0,0-9.84,3.23c-33.18,61.59-86.2,46.55-108,36.91-15.14-6.71-29.56-16.85-39.55-27.81-9.66-10.6-11.67-18.08-10.67-20.52.49-1.2,3.11-2.69,9.25-2.75-.27-4.89-.39-9.88-.38-14.94-14.75.25-20.53,6.57-22.75,12-7.13,17.37,15.2,43.36,43.21,60.05a139.76,139.76,0,0,0,14.81,7.69c16.73,7.4,42.27,14.68,69,7.28,24.19-6.7,45.47-19.43,60-46.47C310.63,371.8,307.37,362.74,303.51,360.9Z" transform="translate(-37.98 -27.51)" fill="#f08b7d"/><path d="M162.88,403.07c-23.94-16.46-42.9-40-40.91-56.88-.13.28-.25.55-.36.83-7.13,17.37,15.2,43.36,43.21,60.05a139.76,139.76,0,0,0,14.81,7.69c11.25,5,26.48,9.89,43.36,10.33-18.15-1-34.24-7.32-45.83-13.38A138,138,0,0,1,162.88,403.07Z" transform="translate(-37.98 -27.51)" fill="#fff" opacity="0.4"/><path d="M187.74,416.09a138.5,138.5,0,0,1-14.82-7.64c-21.47-12.73-39.6-30.89-43.69-46.45a38.36,38.36,0,0,0,4.57-2.31c-1.59.47-3.2.88-4.83,1.21a20.09,20.09,0,0,1,.74-12.19,15.39,15.39,0,0,1,.76-1.6,37.1,37.1,0,0,0,5.63,1.1,53.81,53.81,0,0,1-5-2.18,17.56,17.56,0,0,1,6.81-6.09,36,36,0,0,0,3.9,3.81c-1-1.39-1.95-2.85-2.82-4.34a26.85,26.85,0,0,1,5.37-1.76c0-.88,0-1.75,0-2.63a41.56,41.56,0,0,0-7.34.72h0l-1,.22h0c-6.16,1.42-9.92,4.23-12.22,7.26h0a16.91,16.91,0,0,0-2.16,3.8c-2,4.79-1.69,10.25.33,16l0,0c5.32,15,22.6,32,42.86,44a139.76,139.76,0,0,0,14.81,7.69,121.31,121.31,0,0,0,34.15,9.65A125.08,125.08,0,0,1,187.74,416.09Z" transform="translate(-37.98 -27.51)" fill="#fff" opacity="0.4"/><path d="M446.81,258.21h0a9.45,9.45,0,0,0-13.4-.89,7.44,7.44,0,0,0-.58.55c-3.56,3.76-7.27,7.32-11.09,10.68l-.85.75h0a183.33,183.33,0,0,1-23.84,17.47h0l-.5.3a223.89,223.89,0,0,1-45.54,21A239.31,239.31,0,0,0,374.24,300c.71.78,1.41,1.56,2.07,2.37-.42-.9-.89-1.78-1.39-2.65a206.13,206.13,0,0,0,22.6-10.86c.66.72,1.3,1.45,1.92,2.21-.41-.87-.85-1.71-1.32-2.55a181.67,181.67,0,0,0,25-16.94c.73.79,1.44,1.6,2.12,2.44-.46-1-1-2-1.53-2.93q5.4-4.41,10.52-9.33a9.19,9.19,0,0,1,.75-.65,55.55,55.55,0,0,1,5.88,6.12,37.07,37.07,0,0,0-4.36-7.08,9.48,9.48,0,0,1,11.68,2.58h0a7.85,7.85,0,0,1,.52.76A7.83,7.83,0,0,0,446.81,258.21Z" transform="translate(-37.98 -27.51)" fill="#fff" opacity="0.4"/><path d="M430.13,282.33a36.93,36.93,0,0,0-3.18-5.74,55,55,0,0,1,2,6.71,201.84,201.84,0,0,1-22.61,15.45A37.4,37.4,0,0,0,400,292a53.89,53.89,0,0,1,4.65,7.73,229.71,229.71,0,0,1-23.47,11.78,37.57,37.57,0,0,0-4-7.06,54,54,0,0,1,2.44,7.74c-7,2.95-14,5.57-21,7.88a37.32,37.32,0,0,0-4.68-8.74,54.46,54.46,0,0,1,2.8,9.35c-9.68,3.1-19.39,5.64-29,7.73a37.74,37.74,0,0,0-4.46-7.52,55.33,55.33,0,0,1,2.71,7.9c-8.26,1.75-16.42,3.18-24.39,4.35a37.19,37.19,0,0,0-2.6-8.89,53.81,53.81,0,0,1,.72,9.16c-11.09,1.58-21.79,2.66-31.83,3.44-1.57.12-3.14.24-4.7.34a54.43,54.43,0,0,1,.69-7.34,38,38,0,0,0-2.33,7.44c-7.77.49-15.44.76-23,.84a55.29,55.29,0,0,1,.69-10.92,37.51,37.51,0,0,0-2.86,10.94h-2.63c-15.64,0-30.59-.81-44.35-2.15a428.11,428.11,0,0,0,46.87,3.3h0l2.33,0h0l4.45,0q8.94,0,18.16-.39h0q6.69-.29,13.49-.8c8.6-.66,17.72-1.55,27.16-2.81h0c8.71-1.16,17.7-2.64,26.82-4.55h0a272.16,272.16,0,0,0,52.4-16.24l1.09-.46h0A211.22,211.22,0,0,0,405.76,302h0a184.18,184.18,0,0,0,25.08-18h0a172.45,172.45,0,0,0,15.91-15.45,7.72,7.72,0,0,0,1.65-2.93A187.85,187.85,0,0,1,430.13,282.33Z" transform="translate(-37.98 -27.51)" opacity="0.1"/><path d="M391.69,272.85a37.4,37.4,0,0,0-2-5.75,57.46,57.46,0,0,1,.77,6.44,230.43,230.43,0,0,1-24.76,11.53c-.49-.67-1-1.33-1.54-2,.35.72.68,1.45,1,2.19q-3.44,1.36-6.93,2.63a246.94,246.94,0,0,1-41,10.73,37.22,37.22,0,0,0-1.77-4.29c.32,1.48.56,3,.76,4.47q-8.75,1.5-17.82,2.47a37.32,37.32,0,0,0-2.57-6.94,54.59,54.59,0,0,1,1,7.11q-5.67.57-11.47.95a38.35,38.35,0,0,0-1.73-3.81c.31,1.28.57,2.57.79,3.88q-10.26.63-20.89.64H262l-2,0a37.91,37.91,0,0,0-.88-5.29c0,1.76-.12,3.52-.3,5.28-12.5-.16-24.68-1-36.33-2.22.32-1.18.67-2.33,1.07-3.48a34.51,34.51,0,0,0-2,3.38c-8.2-.9-16.13-2-23.73-3.3a57.14,57.14,0,0,1,1.88-6.84,36.92,36.92,0,0,0-3.4,6.58c-12.59-2.16-24.22-4.74-34.56-7.42,9.65,2.94,21.19,5.95,34.11,8.58h0l1.72.34h0c7.31,1.45,15,2.77,23.1,3.88h0l1.28.17h0c11.58,1.55,23.83,2.65,36.48,3.07h0l1.43.05c2.74.07,5.49.12,8.26.13h1.38a289.38,289.38,0,0,0,47-3.7h0l1.67-.29h0a228,228,0,0,0,38.66-10,214.85,214.85,0,0,0,33.7-15.46h0l1.78-1h0a177.09,177.09,0,0,0,38.37-29.86,12.8,12.8,0,0,0,1.66-2.12A198.21,198.21,0,0,1,391.69,272.85Z" transform="translate(-37.98 -27.51)" opacity="0.1"/><path d="M157.36,282.23a55.17,55.17,0,0,1,1.62-9.44l-1.91-.64A36.9,36.9,0,0,0,157.36,282.23Z" transform="translate(-37.98 -27.51)" fill="#fff" opacity="0.4"/><path d="M187.6,290.08a55.74,55.74,0,0,1,1.48-8.86l-1.85-.44A37,37,0,0,0,187.6,290.08Z" transform="translate(-37.98 -27.51)" fill="#fff" opacity="0.4"/><path d="M172,288.25a54.71,54.71,0,0,1,2-10.9l-2.14-.6A37.24,37.24,0,0,0,172,288.25Z" transform="translate(-37.98 -27.51)" fill="#fff" opacity="0.4"/><path d="M216.05,295a54.21,54.21,0,0,1,1.31-8.2l-1.75-.28A36.85,36.85,0,0,0,216.05,295Z" transform="translate(-37.98 -27.51)" fill="#fff" opacity="0.4"/><path d="M434.45,235.31a13.46,13.46,0,0,0-2.29-6.71h0a6.94,6.94,0,0,0-10.88-.83c-.94,1-1.9,2-2.87,3.06l-1.7,1.74q-4.6,4.67-9.56,9L405,243.44q-4.89,4.17-10.11,8.05c-.76.56-1.52,1.12-2.29,1.67a195.85,195.85,0,0,1-53.1,26.94l-1.88.61A222.72,222.72,0,0,1,269.59,291h-1.38a334.66,334.66,0,0,1-46.57-3.6,333.39,333.39,0,0,0,46.56,4.76l1.37,0a222.45,222.45,0,0,0,68.92-8.81,55.37,55.37,0,0,1,1.41,6.52,37.52,37.52,0,0,0,0-6.95,196,196,0,0,0,55.93-27.2,54.68,54.68,0,0,1,7.94,8.63,36.89,36.89,0,0,0-6.06-10q5.49-4,10.64-8.28a54.69,54.69,0,0,1,7.75,8.47,36.62,36.62,0,0,0-6-9.93q5.13-4.41,9.89-9.13a55,55,0,0,1,5.41,6.26,36.91,36.91,0,0,0-4.16-7.52l1.56-1.59a7,7,0,0,1,10.86,1.09h0A13.64,13.64,0,0,1,434.45,235.31Z" transform="translate(-37.98 -27.51)" fill="#fff" opacity="0.4"/><path d="M233.22,324.17a458.94,458.94,0,0,1-51.39-4.11l-1-.14c-5-.71-9.79-1.48-14.25-2.28l-1.37-.25c-5.05-.94-9.68-1.93-13.82-2.94l-1.19-.29c-1.06-.27-2.1-.53-3.09-.8a9.43,9.43,0,0,0-11.89,9.11h0a1.62,1.62,0,0,0,.16.69,10.3,10.3,0,0,1,11.58-5.92c.9.2,1.84.39,2.79.57a37.51,37.51,0,0,0,.49,5.2c.14-1.66.36-3.31.66-5,4.08.78,8.62,1.52,13.54,2.2a37.35,37.35,0,0,0,.41,8.79,56.06,56.06,0,0,1,1.39-8.54q6.53.87,13.84,1.57a36.91,36.91,0,0,0,.4,8.8,54.87,54.87,0,0,1,1.42-8.63A496.68,496.68,0,0,0,233.22,324.17Z" transform="translate(-37.98 -27.51)" fill="#fff" opacity="0.4"/><path d="M303.51,360.9h0a7.52,7.52,0,0,0-9.84,3.23c-.67,1.24-1.34,2.44-2,3.62h0c-.46.78-.92,1.56-1.38,2.32h0a104.64,104.64,0,0,1-11.05,15.09h0q-.82.93-1.68,1.83h0a78.92,78.92,0,0,1-11.9,10.41h0q-1.14.8-2.28,1.53h0a69,69,0,0,1-39.59,11A68.52,68.52,0,0,0,265,399.47,37.24,37.24,0,0,0,276,401.13a53.34,53.34,0,0,1-8.94-3.07,82.12,82.12,0,0,0,12.56-10.61,37.13,37.13,0,0,0,10.14.56,55.43,55.43,0,0,1-8.62-2.15,110.5,110.5,0,0,0,11.15-14.24A54.18,54.18,0,0,1,301,380a37,37,0,0,0-7.33-10.41c.21-.33.42-.66.62-1a7.5,7.5,0,0,1,10-2.58h0c2.21,1.23,4,5,4.7,8.56C310.11,370.44,307.07,362.6,303.51,360.9Z" transform="translate(-37.98 -27.51)" fill="#fff" opacity="0.4"/><path d="M178.64,405.52a37,37,0,0,0,6.85-4.58l-1.62-.75A56.07,56.07,0,0,1,178.64,405.52Z" transform="translate(-37.98 -27.51)" fill="#fff" opacity="0.4"/><path d="M149.88,384.64a36.5,36.5,0,0,0,7.39-1l-1.38-1.14A53.18,53.18,0,0,1,149.88,384.64Z" transform="translate(-37.98 -27.51)" fill="#fff" opacity="0.4"/><path d="M209.14,414.63a37.27,37.27,0,0,0,3.49-5.63l-1.43-.23A54.1,54.1,0,0,1,209.14,414.63Z" transform="translate(-37.98 -27.51)" fill="#fff" opacity="0.4"/><path d="M452.84,270.77a163.1,163.1,0,0,0,43.39-22.66A172.89,172.89,0,0,1,452.84,270.77Z" transform="translate(-37.98 -27.51)" fill="#fff" opacity="0.4"/><path d="M560,181.18a92.33,92.33,0,0,0,2-17.36,79.4,79.4,0,0,0-.7-12h0c-.12-.85-.26-1.69-.4-2.52h0A58.79,58.79,0,0,0,548.06,121a53,53,0,0,0-21.27-15h0a64.43,64.43,0,0,0-17.19-4c-1.09-.11-2.19-.19-3.31-.25h0a98.66,98.66,0,0,0-27.39,2.59h0c-3.93.9-7.94,2-12.05,3.33a15.54,15.54,0,0,0-9.79,20.08c.12.33.25.64.38,1a14.65,14.65,0,0,1,10-12.17,127,127,0,0,1,14.68-3.83,54.87,54.87,0,0,1,2,10.17,36.61,36.61,0,0,0,.08-10.56,86.44,86.44,0,0,1,23.15-1.16,55,55,0,0,1-.32,7.39,37.23,37.23,0,0,0,1.9-7.22,61.91,61.91,0,0,1,12.72,2.84q-1,2.46-2.15,4.8a37.67,37.67,0,0,0,3.3-4.4A50.16,50.16,0,0,1,544,129.06a54.74,54.74,0,0,1,11.58,24,56.55,56.55,0,0,1-5.11,2.8,37.65,37.65,0,0,0,5.37-1.52,71.28,71.28,0,0,1,1.3,15.11A83.89,83.89,0,0,1,556,181.88c-.9.21-1.8.39-2.7.55.86.07,1.72.09,2.59.1A106.91,106.91,0,0,1,543,217.22c-15.12,26.41-42.38,51.19-82.18,66l.57.7c41.38-15.76,69.78-41.74,85.63-69.41a115.75,115.75,0,0,0,12.68-32.13h0C559.83,182,559.91,181.57,560,181.18Z" transform="translate(-37.98 -27.51)" fill="#fff" opacity="0.4"/><path d="M473.25,262.05a54.26,54.26,0,0,1,6.49,8.22,36.76,36.76,0,0,0-4.59-9.19Z" transform="translate(-37.98 -27.51)" opacity="0.1"/><path d="M499.54,245.63a55.31,55.31,0,0,1,5.21,6.83,37.08,37.08,0,0,0-3.78-8C500.5,244.89,500,245.26,499.54,245.63Z" transform="translate(-37.98 -27.51)" opacity="0.1"/><path d="M522.8,223.13l-1.12,1.35a55.93,55.93,0,0,1,6.7,4.83A37.49,37.49,0,0,0,522.8,223.13Z" transform="translate(-37.98 -27.51)" opacity="0.1"/><path d="M544.63,188.21c9.9-24.53,7.58-48.56-6.69-62-14.06-13.21-33.32-4.11-60.77,9.24A17.58,17.58,0,0,1,466.38,137a15.46,15.46,0,0,0,11.61-.43c27.13-12.1,46.14-20.3,58.76-5.45,11.2,13.17,13.13,34.23,6.06,56.07h0c-.15.48-.31,1-.47,1.44a104.74,104.74,0,0,1-8.22,18.09q-2.24,3.9-4.85,7.75A117.84,117.84,0,0,0,540,198.11a97.69,97.69,0,0,0,4.22-8.87,37.15,37.15,0,0,0,4.89,1.21Q546.81,189.43,544.63,188.21Z" transform="translate(-37.98 -27.51)" opacity="0.1"/><path d="M380.17,248.65c-3.37-9.73-12.43-19-27.61-23.6-.22.49-12.68-2.47-21.67-2.31-20.18.36-46,22.21-46,22.21s28.75,1.25,40.67,4.61c12.24,3,22.91,10,28.17,18.5a28.79,28.79,0,0,1,3.16,25.1c-2.26,7-7.12,11-6.08,11.08-.41,0,16.56-9.32,26.09-26.9C381.47,268.77,383.67,258.46,380.17,248.65Z" transform="translate(-37.98 -27.51)" fill="#ff9e2e"/><path d="M356.9,293.16a28,28,0,0,1-3.55,7.09,28.5,28.5,0,0,0,4.69-8,26.34,26.34,0,0,0-2.72-24.35c-5.23-8.25-16.07-15.1-28.61-18.13-1-.27-2.13-.53-3.34-.78.79.18,1.52.36,2.2.56,12.24,3,22.91,10,28.17,18.5A28.79,28.79,0,0,1,356.9,293.16Z" transform="translate(-37.98 -27.51)" fill="#fff" opacity="0.4"/><path d="M380.17,248.65c-3.37-9.73-12.43-19-27.61-23.6-.17.39-8.18-1.42-16-2.08,5.72.85,10.45,1.93,10.59,1.61,15.21,5,24.34,14.74,27.78,25s1.44,21.16-3.08,30.15c-5.86,11.46-14.62,19.52-20.31,24,3.34-2.19,17.11-11.18,25.34-26.37C381.47,268.77,383.67,258.46,380.17,248.65Z" transform="translate(-37.98 -27.51)" opacity="0.1"/><path d="M345.37,223.38c-.57-.33-1.15-.65-1.75-1-16.56,4.84-32.69,10.15-46.84,15.88l-1.79,2a109,109,0,0,1,21.77-3.77c16-1.26,30.8,1.64,39.41,5.42,9,3.66,11.82,8.2,12.65,7.52C368.52,249.68,365.49,235.23,345.37,223.38Z" transform="translate(-37.98 -27.51)" fill="#a20052"/><path d="M315.1,230.5c-6.41,7.36-8.4,41.5-8.4,41.5s13.5-40.07,34.44-45.66C332.29,223.4,319.36,225.61,315.1,230.5Z" transform="translate(-37.98 -27.51)" fill="#f08b7d"/><path d="M418.12,144.49c-21.49-10.86-35.81,54.7-71.65,46S285.1,245,284.9,245c42-19.84,131-28.37,176.23-33.44C461.35,211.23,434.81,152.53,418.12,144.49Z" transform="translate(-37.98 -27.51)" fill="#ff9e2e"/><path d="M418.12,144.49c-21.49-10.86-35.81,54.7-71.65,46-18.46-4.45-34.17,10.1-45.1,25.27,12.72-12.93,29.89-24.33,46-20.45,35.85,8.65,51.72-40.12,73.21-29.26,16.69,8,40.81,45.13,40.59,45.41C461.35,211.23,434.81,152.53,418.12,144.49Z" transform="translate(-37.98 -27.51)" fill="#fff" opacity="0.4"/><path d="M418.12,144.49c-21.49-10.86-35.81,54.7-71.65,46-16.65-4-31.05,7.42-41.74,20.83,11.88-12.53,26.91-22.69,42.74-18.87,35.85,8.65,47-51.47,70-45.4,7.55,2,16.51,13.67,24.35,26.55C434,160.37,425.18,147.89,418.12,144.49Z" transform="translate(-37.98 -27.51)" fill="#fff" opacity="0.2"/><path d="M326.49,203.53s-2.48,4.39,1.86,3.42c1.87-.42,10-6.06,10-6.06S330.84,201.27,326.49,203.53Z" transform="translate(-37.98 -27.51)" opacity="0.2"/></g></svg>