<svg xmlns="http://www.w3.org/2000/svg" xmlns:xlink="http://www.w3.org/1999/xlink" viewBox="0 0 598.7 545.9"><defs><clipPath id="a" transform="translate(-0.65 -27.05)"><rect width="600" height="600" fill="none"/></clipPath></defs><g clip-path="url(#a)"><polygon points="371.88 376.15 430.72 329.11 428.9 326.74 362.69 371.69 371.88 376.15" fill="#ff9e2e"/><polygon points="429.7 327.78 428.9 326.74 362.69 371.69 429.7 327.78" fill="#fff" opacity="0.4"/><polygon points="398.63 350.09 400.66 352.24 371.88 376.15 418.86 338.59 418.86 338.59 419.47 338.1 419.47 338.1 424.29 334.25 424.29 334.25 424.69 333.93 430.72 329.11 429.85 327.98 423.54 333.22 423.04 332.93 423.41 333.32 418.39 337.49 417.15 336.78 418.08 337.76 414.26 340.93 412.5 339.92 413.81 341.3 409.93 344.53 407.27 343.02 409.24 345.1 405.65 348.09 403.07 346.62 404.99 348.64 401.36 351.65 398.63 350.09" fill="#d04000" opacity="0.4"/><path d="M447.28,360.75c-16.95,5.66-33.76-9-46.32-28.46,7.86,7.66,16.2,13.69,24.8,17.3a30.42,30.42,0,0,0,8.41-16.88,41.06,41.06,0,0,0,.46-7.76c2.62,6.79,3.79,13.17,2.92,18.61a18.59,18.59,0,0,1-1.83,5.64,36.51,36.51,0,0,0,15-15.95,48.86,48.86,0,0,0,3.29-8.72c.58,8.7-.35,16.42-3.29,22.34a22.35,22.35,0,0,1-4.75,6.42,40.07,40.07,0,0,0,10.18-2,45.84,45.84,0,0,0,8.39-3.8C459.35,353.93,453.55,358.65,447.28,360.75Z" transform="translate(-0.65 -27.05)" fill="#ff9e2e"/><path d="M456,352.1a15.77,15.77,0,0,1-10,1.19,40.07,40.07,0,0,0,10.18-2,45.84,45.84,0,0,0,8.39-3.8C461.8,349.06,458.2,351.11,456,352.1Z" transform="translate(-0.65 -27.05)" fill="#d04000" opacity="0.4"/><path d="M454,324.53c-.86,3.11-1.34,7.28-2.24,9.56-2,5.13-7.44,12.51-16,15.11a36.51,36.51,0,0,0,15-15.95A48.86,48.86,0,0,0,454,324.53Z" transform="translate(-0.65 -27.05)" fill="#d04000" opacity="0.4"/><path d="M434.17,332.71c-1.1,6.86-2.92,14.76-7.27,19.21-8.6-3.62-18.08-12-25.94-19.63,7.86,7.66,16.2,13.69,24.8,17.3A30.42,30.42,0,0,0,434.17,332.71Z" transform="translate(-0.65 -27.05)" fill="#d04000" opacity="0.4"/><path d="M464.53,347.49c-5.18,6.44-9.56,8.64-15.84,10.74-10.12,3.38-22.83-.48-34-8.76,10,9.75,21.24,15.06,32.58,11.28C453.55,358.65,459.35,353.93,464.53,347.49Z" transform="translate(-0.65 -27.05)" fill="#fff" opacity="0.4"/><path d="M127,448.59C122.74,458,97.22,480.47,85.21,482s-20.48-8.72-20.79-16.19S72.1,456.48,84.1,455,129.85,442.34,127,448.59Z" transform="translate(-0.65 -27.05)" fill="#999"/><path d="M88.06,475.45c-10.52,1.6-18.68-1.91-23.12-6.63,2,6.92,9.83,14.52,20.27,13.18,7-.89,18.7-9,28-17.4C103.78,470.14,94.42,474.49,88.06,475.45Z" transform="translate(-0.65 -27.05)" fill="#fff" opacity="0.4"/><path d="M93.88,428.73c-2.14,8.46-22.79,10.36-35.84,2.76S39.5,406,41.64,397.58s11.11-4.33,24.15,3.28S96,420.27,93.88,428.73Z" transform="translate(-0.65 -27.05)" fill="#999"/><path d="M90.72,444c.37,9.14-17.76,22.7-31.61,23s-23.65-13.24-24-22.38S43.94,434.3,57.79,434,90.36,434.89,90.72,444Z" transform="translate(-0.65 -27.05)" fill="#999"/><path d="M67.74,464.22c-17.86,1-29.84-13.13-29.87-23a9.11,9.11,0,0,1,.84-4.05c-2.46,1.57-3.76,3.93-3.62,7.47.37,9.14,10.18,22.71,24,22.38A33.59,33.59,0,0,0,72,463.74,39.53,39.53,0,0,1,67.74,464.22Z" transform="translate(-0.65 -27.05)" fill="#fff" opacity="0.4"/><path d="M96.2,438.41c-2.14,8.46-51.7,6.83-64.75-.77s-18.54-25.45-16.39-33.91,11.1-4.33,24.15,3.27S98.34,430,96.2,438.41Z" transform="translate(-0.65 -27.05)" fill="#999"/><path d="M133.75,421.37C140.59,441.14,114,466.69,99.52,468s-24.37-18-24.46-31.39c0-6.57-13.38-37.74-8.9-35.48,11.87,6,25.77,17.34,33.16,16.69C113.84,416.5,129.37,408.7,133.75,421.37Z" transform="translate(-0.65 -27.05)" fill="#999"/><path d="M71,407a84.36,84.36,0,0,0,22,9.47C85.56,413.4,75.59,406,66.69,401.38l-.9-.52c-13-7.61-22-11.74-24.15-3.28-1.86,7.38,2.08,21.9,11.77,30.53-5.77-6.6-10-14.94-8.8-22.29C46.81,392.63,64.54,402.9,71,407Z" transform="translate(-0.65 -27.05)" fill="#fff" opacity="0.4"/><path d="M96.2,438.41c-2.14,8.46-51.7,6.83-64.75-.77s-18.54-25.45-16.39-33.91,11.1-4.33,24.15,3.27S98.34,430,96.2,438.41Z" transform="translate(-0.65 -27.05)" fill="#999"/><path d="M15.06,403.73c-2.15,8.46,3.34,26.3,16.39,33.91q.48.27,1,.54C24.12,430.49,20,418.49,21,411.62c1.29-8.77,10.51-5.85,24.07,0a91.14,91.14,0,0,0,12,3.68C49.65,412.11,43,409.22,39.21,407,26.16,399.4,17.2,395.27,15.06,403.73Z" transform="translate(-0.65 -27.05)" fill="#fff" opacity="0.4"/><path d="M122.56,432.7c1.15,9-37,28.39-49.45,26.68S50.66,443,49.51,434s7-8.83,19.42-7.11S121.41,423.73,122.56,432.7Z" transform="translate(-0.65 -27.05)" fill="#999"/><path d="M49.51,434c1.15,9,11.19,23.63,23.6,25.35.3,0,.62.06,1,.08-8.88-3.79-16-13.46-17.45-20.43-1.9-8.91,6.06-10,18.29-10.22a59,59,0,0,0,10.33-1.57c-6.69.12-12.68.18-16.31-.32C56.52,425.2,48.35,425.06,49.51,434Z" transform="translate(-0.65 -27.05)" fill="#fff" opacity="0.4"/><g opacity="0.2"><path d="M91.28,462.14c-3.92,1-6.5,1.82-6.16,3.61s3.47,3.82,7.39,2.85,8.71-4.85,8.37-6.63S95.19,461.16,91.28,462.14Z" transform="translate(-0.65 -27.05)" opacity="0.4"/><path d="M92.82,454.92c.13-1.78-5.34-2.85-9.42-3.4s-6.82-.72-7,1.06,2.4,4.83,6.48,5.37S92.69,456.69,92.82,454.92Z" transform="translate(-0.65 -27.05)" opacity="0.4"/><path d="M99,452.94c-2.57.53-4.26,1.07-4,2.67a4.3,4.3,0,0,0,5,3.11c2.57-.54,5.66-3.55,5.39-5.15S101.62,452.4,99,452.94Z" transform="translate(-0.65 -27.05)" opacity="0.4"/></g><path d="M329.7,243.53c10.63-5.17,10.55-44.09-.84-67.45s-35-31.18-45.66-26-4.21,21.38,7.18,44.75S319.07,248.71,329.7,243.53Z" transform="translate(-0.65 -27.05)" fill="#b8b6b7"/><path d="M352.48,256.47c11.81-.58,27-36.39,25.77-62.35s-19.94-42.44-31.75-41.87-12.28,18-11,44S340.68,257.05,352.48,256.47Z" transform="translate(-0.65 -27.05)" fill="#b8b6b7"/><path d="M372.38,200.31c-1.14-23.37-11.73-40.53-21.95-47.68,11.62,2.63,26.68,18.26,27.82,41.49.75,15.19-4.16,33.74-10.72,46.65C371,227.75,373,213.07,372.38,200.31Z" transform="translate(-0.65 -27.05)" fill="#fff" opacity="0.4"/><path d="M361.9,276.74c9.52,3,32-21,38.54-41.88s-3.46-39.41-13-42.39-15,10.68-21.5,31.61S352.38,273.77,361.9,276.74Z" transform="translate(-0.65 -27.05)" fill="#b8b6b7"/><path d="M394.22,233.06c4.46-14.27,3.25-27.31-.41-36.33,6.85,7.22,11.69,21.94,6.63,38.13-5.49,17.55-22.18,37.21-33,41.34C377.63,266.42,389.29,248.86,394.22,233.06Z" transform="translate(-0.65 -27.05)" fill="#fff" opacity="0.4"/><path d="M342.45,246.54c10.63-5.18,2.45-97.71-8.94-121.08s-35-31.17-45.66-26-4.21,21.37,7.18,44.74S331.82,251.71,342.45,246.54Z" transform="translate(-0.65 -27.05)" fill="#b8b6b7"/><path d="M333.27,134.9C321,112,297.1,105.05,286.68,110.62a9.07,9.07,0,0,0-3.7,3.43c-1.4-7.1-.22-12.1,4.87-14.58,10.63-5.18,34.28,2.62,45.66,26,4.39,9,8.29,28.24,10.84,48.8C341.22,157.36,337.28,142.42,333.27,134.9Z" transform="translate(-0.65 -27.05)" fill="#fff" opacity="0.4"/><path d="M239.43,527.8c85.86,0,201.1,19,201.1,25.78s-115.24,12.35-201.1,12.35S56.79,560.4,56.79,553.58,153.56,527.8,239.43,527.8Z" transform="translate(-0.65 -27.05)" opacity="0.1"/><polygon points="136.74 442.97 168.74 511.17 166.07 512.49 126.52 442.91 136.74 442.97" fill="#ff9e2e"/><polygon points="167.24 511.91 166.07 512.49 126.52 442.91 167.24 511.91" fill="#fff" opacity="0.4"/><polygon points="149.22 478.16 151.99 477.14 136.74 442.97 162.29 497.43 162.29 497.43 162.62 498.13 162.62 498.13 165.25 503.71 165.25 503.71 165.46 504.18 168.74 511.17 167.46 511.8 164.12 504.31 163.54 504.35 164.05 504.16 161.39 498.2 159.96 498.29 161.22 497.82 159.2 493.3 157.18 493.42 158.96 492.76 156.9 488.14 153.86 488.33 156.54 487.34 154.64 483.07 151.68 483.25 154.29 482.28 152.36 477.97 149.22 478.16" fill="#d04000" opacity="0.4"/><path d="M140.28,471.5c9.62-3.37,22.15-.05,25.51,9.57,2.16,6.17,1.39,17.32-2,25.42s-13.65,10.9-20.38,5.25l-.45-.39a49.12,49.12,0,0,1-12-18.1C127.59,483.63,130.66,474.86,140.28,471.5Z" transform="translate(-0.65 -27.05)" fill="#b8b6b7"/><path d="M147.42,510.17c.25.23.51.45.77.67a21.63,21.63,0,0,0,6,3.59,12.62,12.62,0,0,1-10.78-2.69l-.45-.39a49.12,49.12,0,0,1-12-18.1,22,22,0,0,1-1.31-7.4C133.69,494.14,140.15,503.56,147.42,510.17Z" transform="translate(-0.65 -27.05)" opacity="0.2"/><path d="M137.26,536.73C151,525.36,172,533,190.72,546.63c-10.1-4.31-20.05-6.94-29.37-7.23a30.42,30.42,0,0,0-1.78,18.78,41.32,41.32,0,0,0,2.37,7.41c-4.89-5.39-8.28-10.93-9.42-16.32a18.37,18.37,0,0,1-.32-5.91A36.46,36.46,0,0,0,144,563.63,49.29,49.29,0,0,0,144,573c-3.67-7.91-5.57-15.46-5-22a22,22,0,0,1,2.13-7.7,40.07,40.07,0,0,0-8.78,5.52,46.26,46.26,0,0,0-6.47,6.57C128.45,547.44,132.16,541,137.26,536.73Z" transform="translate(-0.65 -27.05)" fill="#ff9e2e"/><path d="M132.24,547.94a15.79,15.79,0,0,1,8.94-4.72,40.07,40.07,0,0,0-8.78,5.52,46.26,46.26,0,0,0-6.47,6.57C127.92,552.86,130.53,549.66,132.24,547.94Z" transform="translate(-0.65 -27.05)" fill="#d04000" opacity="0.4"/><path d="M144,573c-.31-3.21-1.36-7.28-1.35-9.73,0-5.51,2.44-14.35,9.54-19.86A36.46,36.46,0,0,0,144,563.63,49.29,49.29,0,0,0,144,573Z" transform="translate(-0.65 -27.05)" fill="#d04000" opacity="0.4"/><path d="M159.57,558.18c-1.44-6.8-2.58-14.82-.12-20.54,9.33.29,21.17,4.68,31.27,9-10.1-4.31-20.05-6.94-29.37-7.23A30.42,30.42,0,0,0,159.57,558.18Z" transform="translate(-0.65 -27.05)" fill="#d04000" opacity="0.4"/><path d="M125.93,555.31c2.52-7.87,5.82-11.51,10.92-15.72,8.23-6.79,21.47-7.76,34.86-4.05-12.81-5.5-25.24-6.41-34.45,1.19C132.16,541,128.45,547.44,125.93,555.31Z" transform="translate(-0.65 -27.05)" fill="#fff" opacity="0.4"/><path d="M394.64,400.64c7.56-12.83-2.9-22.68-15.55-23.16-.28,0-.57,0-.86,0-10.75-.15-22,.48-28.82,1.68-11.65,2.15-19.52,10-21.3,24.95-.64,7.36,1,15,6,20.07s12.88,7.72,22.57,5.26C369.12,426.55,387.45,413.22,394.64,400.64Z" transform="translate(-0.65 -27.05)" fill="#b8b6b7"/><path d="M351.83,423.18c-7.94,1.78-15.07.62-20.4-2.52,4.25,7.3,13.49,11.71,25.21,8.75,12.48-2.86,30.81-16.19,38-28.77,2.72-4.5,3.12-8.87,1.88-12.45C388.87,403.83,367,420.19,351.83,423.18Z" transform="translate(-0.65 -27.05)" opacity="0.15"/><path d="M331.43,392.2a42.65,42.65,0,0,1,15-6.41c9.26-2,24.29-3.83,38.92-5.27l1.17-.08c1-.07,2.07-.09,3.09-.07a24.2,24.2,0,0,0-10.5-2.89c-.28,0-.57,0-.86,0-10.75-.15-22,.48-28.82,1.68C341.17,380.69,335.3,384.74,331.43,392.2Z" transform="translate(-0.65 -27.05)" fill="#fff" opacity="0.3"/><path d="M33.93,289.65c-1.3-46.86,106-39.8,176.2-49.41,20.09-2.75,50.54,22.35,58.1,8.53,39.89-73,95.19-24.68,115.47,29.36S379.54,415.93,331,443.38C92,578.6,38,437.68,33.93,289.65Z" transform="translate(-0.65 -27.05)" fill="#b8b6b7"/><path d="M346.82,418.72c-19.82,17.66-38.56,32.86-56.29,45.81q19.32-9.18,40.5-21.15c41.09-23.25,64.91-86.89,58.92-138.66C391,346.92,376.16,392.58,346.82,418.72Z" transform="translate(-0.65 -27.05)" opacity="0.15"/><path d="M33.93,289.65c-.26-9.55,4-16.86,11.5-22.53a134.58,134.58,0,0,0,1.5,49.34,100.05,100.05,0,0,0,5.87,18.1,280.3,280.3,0,0,1,15.61,46c13.07,53.25,37.33,97,79.87,115.92C61.5,483.56,36.65,388.18,33.93,289.65Z" transform="translate(-0.65 -27.05)" opacity="0.15"/><path d="M320.16,212C309.9,217.39,300,228.16,291,245.83c-3.33,6.54-11.56,4.54-21.46.64C285.14,219.11,303,209.88,320.16,212Z" transform="translate(-0.65 -27.05)" fill="#fff" opacity="0.35"/><path d="M123.53,105.93c-9.67,4.71-35.9-13.87-45.07-32.68s-.7-38.51,9-43.22,16.89,7.34,26.05,26.15S133.2,101.22,123.53,105.93Z" transform="translate(-0.65 -27.05)" fill="#c1272d"/><path d="M87.43,30c3.94-1.91,7.46-1.06,10.87,1.89a9.15,9.15,0,0,0-4.58,1.13c-9.55,5-17.48,24.88-7.81,43.44,6.67,12.8,21.45,25.27,33.11,30.15-11.66-.81-32.58-17-40.56-33.39C69.29,54.43,77.76,34.74,87.43,30Z" transform="translate(-0.65 -27.05)" fill="#fff" opacity="0.4"/><path d="M128.7,108.18c-10.34-3-17.43-34.31-11.67-54.44s25.21-29.1,35.56-26.14,7.65,16.74,1.89,36.86S139.05,111.14,128.7,108.18Z" transform="translate(-0.65 -27.05)" fill="#c1272d"/><path d="M150.78,36.6c-10.23-2.93-29.39,5.84-35.37,25.51A50.84,50.84,0,0,1,117,53.74c5.75-20.12,25.21-29.1,35.56-26.14,8.43,2.42,8.2,12,4.71,26.38C158.64,44.64,157.3,38.47,150.78,36.6Z" transform="translate(-0.65 -27.05)" fill="#fff" opacity="0.4"/><path d="M143.21,102.42c-5.26-6.08,3.12-28.57,14.94-38.79s27.65-7.89,32.9-1.81S189,75.41,177.18,85.63,148.46,108.49,143.21,102.42Z" transform="translate(-0.65 -27.05)" fill="#c1272d"/><path d="M186,67.9c-4.7-5.43-16-8.92-26.34-5.46,11.63-8.83,26.39-6.45,31.42-.62,3.36,3.88,1.59,8.34-3.21,13.73A7.79,7.79,0,0,0,186,67.9Z" transform="translate(-0.65 -27.05)" fill="#fff" opacity="0.4"/><path d="M153.54,94C191,79.81,231.36,99.58,241.4,131s-11.21,62.49-45.6,75.52c-34.47,12.81-70.88,3.6-84-26.87C98.65,149.39,116,108,153.54,94Z" transform="translate(-0.65 -27.05)" fill="#d6c6b6"/><path d="M30.15,296.3c-1.47-28.05,3.7-61.19,9.8-91.25a31.86,31.86,0,0,1-14.39-15.69c-8.18-18.86,2.66-44.68,26-53.4a44.4,44.4,0,0,1,13.11-2.81l.25-.47c8.91-16.35,20.3-30.17,35.27-40.52a64.94,64.94,0,0,1,13.11-6.92l.11,0c8.47-3.41,14.95-3.21,20.11-3.47,11.52,0,23.33,3,35.1,8.32,32.6-4.74,64.06,13.73,72.76,41a51.14,51.14,0,0,1,2.18,21.87c16.91,20.47,34,41.45,45.33,62.57,3.73,6.1,6.36,23.14-4.56,29.81-5.88,3.59-11.55,4.43-16.12,3.5-.28,7.79-3.53,17.69-12.44,20.48-8.76,2.74-16,.83-20.18-3,2,5.84,1.14,13.86-6,20.29s-20.06,4.93-27.88,1.45c-1.15,7.11-5.63,15.25-13.87,17.28A23,23,0,0,1,167.82,301a28.18,28.18,0,0,1-12.44,12.12c-6.34,3.17-13.18,1.12-18.55-2.43A28.14,28.14,0,0,1,122,320.41c-8.41,2.28-16-3.32-20.57-9.3a28.24,28.24,0,0,1-14.28,9.05c-7.73,2.1-14.77-2.46-19.4-7.86-2.86,3.61-7.63,6.61-14.27,7.75-9.24,1.58-17.33-9.72-21-15.91A17.08,17.08,0,0,1,30.15,296.3Z" transform="translate(-0.65 -27.05)" fill="#dcdcde"/><path d="M64.69,133.15l.25-.47c7.51-13.78,16.78-25.76,28.47-35.38C84,106.86,76.63,119,70.89,133.21a43.09,43.09,0,0,0-6.33-.05Z" transform="translate(-0.65 -27.05)" fill="#998675" opacity="0.2"/><path d="M168.63,90.05a71.94,71.94,0,0,0-9.52,2c-9.19-5-18.17-8.26-26.79-9.36-2.19-.15-4.62-.44-7.3-.49,3.2-.37,6-.39,8.52-.52C145.06,81.68,156.86,84.7,168.63,90.05Z" transform="translate(-0.65 -27.05)" fill="#998675" opacity="0.2"/><path d="M233.27,151.17a55.66,55.66,0,0,0-1.79-22.87c-3.78-13.18-12.39-24.67-23.78-32.93,16.05,7.1,28.67,19.91,33.7,35.65a51.14,51.14,0,0,1,2.18,21.87c16.91,20.47,34,41.45,45.33,62.57,3.73,6.1,6.36,23.14-4.56,29.81a24.61,24.61,0,0,1-11.63,3.82c10.85-6.52,8.54-24.18,4.93-30.67C266.67,195.91,249.87,173.27,233.27,151.17Z" transform="translate(-0.65 -27.05)" fill="#fff" opacity="0.35"/><path d="M138.45,311.58l0,.06.38.21Zm-106-7.44c3.66,6.19,11.75,17.49,21,15.91,6.64-1.14,11.41-4.14,14.27-7.75,4.63,5.4,11.67,10,19.4,7.86a28.24,28.24,0,0,0,14.28-9.05c4.22,5.52,11,10.71,18.64,9.69-7.3-.29-13.49-6.41-17.3-12.6A26.06,26.06,0,0,1,88,316.52c-7.89,1.44-14.77-4.3-19.19-10.69-3,3.63-8,6.38-14.73,6.9-9.39.72-17-12.49-20.42-19.64a21,21,0,0,1-2-8.8c-.17-30.76,6.58-66.35,14.12-98.47A37.25,37.25,0,0,1,32,167.14a40.72,40.72,0,0,1-2.13-13.85c-7.27,11.1-9.16,24.82-4.28,36.07A31.86,31.86,0,0,0,40,205.05c-6.1,30.06-11.27,63.2-9.8,91.25A17.08,17.08,0,0,0,32.49,304.14Z" transform="translate(-0.65 -27.05)" fill="#998675" opacity="0.2"/><path d="M149.18,99.29a82.35,82.35,0,0,0-23.82,13.79A71.47,71.47,0,0,1,153.54,94c31.09-11.73,64.17-.11,80.27,22.15C213.73,96.37,180.57,87.45,149.18,99.29Z" transform="translate(-0.65 -27.05)" fill="#fff" opacity="0.3"/><path d="M48.86,139.29A51.26,51.26,0,0,0,34,147.88,44.49,44.49,0,0,1,51.58,136c19.37-7.31,40-.07,50,13.8C89.08,137.47,68.42,131.91,48.86,139.29Z" transform="translate(-0.65 -27.05)" fill="#fff" opacity="0.3"/><path d="M34.93,150.83c27.84-10.5,57.84,4.19,65.3,27.56s-8.33,46.45-33.89,56.13c-25.62,9.53-52.69,2.68-62.46-20S7.05,161.24,34.93,150.83Z" transform="translate(-0.65 -27.05)" fill="#ffe7d4"/><path d="M28.89,153.51c-18.2,13.8-25.44,37.81-17.45,56.25,9.77,22.65,36.84,29.5,62.46,20A68.22,68.22,0,0,0,82.16,226a66.29,66.29,0,0,1-15.82,8.56c-25.62,9.53-52.69,2.68-62.46-20C-5.14,193.73,5.23,165.83,28.89,153.51Z" transform="translate(-0.65 -27.05)" fill="#e75400" opacity="0.2"/><path d="M162.85,99.8c37.45-14.13,77.81,5.63,87.85,37.07,10.15,31.6-11.21,62.49-45.6,75.52-34.46,12.81-70.88,3.6-84-26.87C108,155.24,125.35,113.8,162.85,99.8Z" transform="translate(-0.65 -27.05)" fill="#ffe7d4"/><path d="M187.4,213.33c34.39-13,55.3-45.13,44.45-78.58-5.64-17.49-19.65-31.74-37.1-39.29,26.06,2.4,48.77,18.91,55.95,41.41,10.15,31.6-11.21,62.49-45.6,75.52a85.05,85.05,0,0,1-35.2,5.44A86.49,86.49,0,0,0,187.4,213.33Z" transform="translate(-0.65 -27.05)" fill="#e75400" opacity="0.2"/><path d="M147.75,156.49c.1.37.22.74.35,1.1A11.59,11.59,0,1,0,152.43,144,20.27,20.27,0,0,1,187,149.86a20.28,20.28,0,1,1-39.26,6.63Z" transform="translate(-0.65 -27.05)" fill="#51364d"/><path d="M188.11,169.27a5.49,5.49,0,1,1,3.22-7.07A5.49,5.49,0,0,1,188.11,169.27Z" transform="translate(-0.65 -27.05)" fill="#fff"/><path d="M195.46,168.35a1.71,1.71,0,1,1,1-2.21A1.71,1.71,0,0,1,195.46,168.35Z" transform="translate(-0.65 -27.05)" fill="#fff"/><path d="M78.22,181.63l-.52.08a5.19,5.19,0,1,0,6.15,4,5,5,0,0,0-.39-1.16,9.13,9.13,0,1,1-5.24-2.93Z" transform="translate(-0.65 -27.05)" fill="#51364d"/><path d="M84.87,197.56a2.38,2.38,0,1,1,1.39-3.06A2.38,2.38,0,0,1,84.87,197.56Z" transform="translate(-0.65 -27.05)" fill="#fff"/><path d="M88.05,197.16a.74.74,0,1,1,.43-1A.74.74,0,0,1,88.05,197.16Z" transform="translate(-0.65 -27.05)" fill="#fff"/><path d="M142.22,253.63c6.79-11.55,32,1.91,49.81,13.49s28.91,20.62,22.12,32.16-28.94,21.24-46.72,9.66S135.43,265.18,142.22,253.63Z" transform="translate(-0.65 -27.05)" fill="#c1272d"/><path d="M205.78,305c6.92-12.49-4.65-24.66-23.13-40.79-3.13-2.73-6.49-5.56-9.93-8.31A196.1,196.1,0,0,1,192,267.12c17.78,11.58,28.91,20.62,22.12,32.16-2.44,4.15-6.85,8.05-12.32,10.82A22.1,22.1,0,0,0,205.78,305Z" transform="translate(-0.65 -27.05)" fill="#fff" opacity="0.4"/><path d="M71.77,305.75c-.94-17.91,13.68-42.86,24.76-43.44s14.39,23.43,15.33,41.33.33,29.94-10.74,30.52S72.71,323.65,71.77,305.75Z" transform="translate(-0.65 -27.05)" fill="#c1272d"/><path d="M105.11,302.24c-.94-9.88-1.24-24.36-2.41-37.15,6.23,6.77,8.43,24.53,9.16,38.55.87,16.47.42,28-8.27,30.16C107,328,106.48,316.76,105.11,302.24Z" transform="translate(-0.65 -27.05)" fill="#fff" opacity="0.4"/><path d="M164.06,231.07c.24.14,10.89,55.32-31,63.85-18,3.68-83.71-40-83.71-40S126.48,219.48,164.06,231.07Z" transform="translate(-0.65 -27.05)" fill="#ff9e2e"/><path d="M133.39,286c23.58-4.8,30.53-24.36,32.05-40.59.19,17-4.26,43.77-32.4,49.49-9.6,2-32.68-9.5-52.18-20.65C103.78,281.65,125.79,287.57,133.39,286Z" transform="translate(-0.65 -27.05)" opacity="0.1"/><path d="M74.15,270.37c-7.89-4.66-14.76-9-19.25-11.85,17.46-8.87,63.05-30.31,94.76-29.71a63,63,0,0,1,10.44,1.24C141.94,231.47,109.87,248.28,74.15,270.37Z" transform="translate(-0.65 -27.05)" opacity="0.1"/><path d="M40.51,213.41c8.11-16.88,45.3,25,63,3.68s60.48,14.11,60.58,14c-33.8,3.07-90.76,34-120,49.15C43.78,280.11,34,226.24,40.51,213.41Z" transform="translate(-0.65 -27.05)" fill="#ff9e2e"/><path d="M40.51,213.41c8.11-16.88,45.3,25,63,3.68,9.1-11,24.85-6.89,38-.39-13.26-4.12-28.51-5.27-36.43,4.26-17.67,21.27-48.45-7.66-56.57,9.22C42,243,43.78,280.11,44,280.22,43.78,280.11,34,226.24,40.51,213.41Z" transform="translate(-0.65 -27.05)" fill="#fff" opacity="0.4"/><path d="M39.05,244.56c-.93-12.66-.66-24.92,3-29.51,11.14-14,44,25.15,61.7,3.89,7.81-9.39,21.23-8.26,33.81-4.08-12.25-5.31-25.86-7.64-34.06,2.23-17.67,21.27-54.86-20.56-63-3.68C37.77,218.84,37.93,231.62,39.05,244.56Z" transform="translate(-0.65 -27.05)" fill="#fff" opacity="0.2"/><path d="M121.1,218.23s3.4,2.17.37,3.27c-1.3.47-8.63-.24-8.63-.24S117.51,218.4,121.1,218.23Z" transform="translate(-0.65 -27.05)" opacity="0.2"/><path d="M282.59,380.41c10,5.13,49.65,7.84,63,1.69s16.17-19.83,12.11-26.17-13.45-2.94-26.82,3.21S276,377,282.59,380.41Z" transform="translate(-0.65 -27.05)" fill="#999"/><path d="M338.8,378.47c11.86-5.19,18.29-13.12,20.13-19.74,1.93,7-1.69,18-13.33,23.37-7.83,3.6-24.68,4.17-39.3,3C319.36,383.8,331.64,381.6,338.8,378.47Z" transform="translate(-0.65 -27.05)" fill="#fff" opacity="0.4"/><path d="M305.36,343.59c7.18,5.64,29.75-5.55,38.84-19.87s4.33-32.4-2.86-38.05-14.06,3.3-23.16,17.62S298.17,337.94,305.36,343.59Z" transform="translate(-0.65 -27.05)" fill="#999"/><path d="M317.61,354.24c5,7.75,31.76,7.72,46.34-.57s16.8-25.51,11.82-33.26-15.27-3.08-29.85,5.2S312.63,346.49,317.61,354.24Z" transform="translate(-0.65 -27.05)" fill="#999"/><path d="M353.33,356.66c19.15-10.18,23.29-29.24,17.55-37.36a8.58,8.58,0,0,0-3.24-2.81,8.26,8.26,0,0,1,8.13,3.92c5,7.75,2.75,25-11.82,33.26a49.58,49.58,0,0,1-15.3,5.21Q351.11,357.85,353.33,356.66Z" transform="translate(-0.65 -27.05)" fill="#fff" opacity="0.4"/><path d="M308.63,353c7.18,5.64,57.7-26.31,66.79-40.63s4.33-32.41-2.86-38.05-14.06,3.3-23.16,17.62S301.44,347.35,308.63,353Z" transform="translate(-0.65 -27.05)" fill="#999"/><path d="M259.63,362.15c4.5,20.51,47.05,25.15,62.89,17.24s14.74-29.89,7-40.95C325.7,333,321.27,299.1,318,303.72c-8.82,12.26-16.59,30.2-24.65,34.22C277.45,345.85,256.75,349,259.63,362.15Z" transform="translate(-0.65 -27.05)" fill="#999"/><path d="M343.1,294.28c5.59,5.3,6.06,14.8,3.93,23.8,5-13.1.58-27.48-5.69-32.41-7.18-5.64-14.06,3.3-23.16,17.62l-.62,1C311,313.55,305,325.83,299,333a105.42,105.42,0,0,0,17.31-21.4C320.68,304.2,333.07,284.79,343.1,294.28Z" transform="translate(-0.65 -27.05)" fill="#fff" opacity="0.4"/><path d="M308.63,353c7.18,5.64,57.7-26.31,66.79-40.63s4.33-32.41-2.86-38.05-14.06,3.3-23.16,17.62S301.44,347.35,308.63,353Z" transform="translate(-0.65 -27.05)" fill="#999"/><path d="M349.4,291.93c-2.65,4.18-7.86,10.65-13.71,17.86A116.81,116.81,0,0,0,346,299.35c10.66-13.19,18.52-21.29,25-14.86,5.09,5,7.83,17.46,3.67,28.95.27-.37.52-.73.74-1.08,9.1-14.32,4.33-32.41-2.86-38.05S358.5,277.61,349.4,291.93Z" transform="translate(-0.65 -27.05)" fill="#fff" opacity="0.4"/><path d="M277.9,364.57c4.05,8.09,55.12.5,67-8.58s13.71-27.36,9.65-35.45-12.45-2.93-24.34,6.15S273.84,356.48,277.9,364.57Z" transform="translate(-0.65 -27.05)" fill="#999"/><path d="M330.21,326.69c-3.48,2.65-9.73,6.3-16.75,10.33a88,88,0,0,0,11.65-5.08c12.81-7.4,21.73-11.4,25-2.89,2.55,6.66.86,19-6.13,27.6.33-.22.65-.44.94-.66,11.89-9.08,13.71-27.36,9.65-35.45S342.1,317.61,330.21,326.69Z" transform="translate(-0.65 -27.05)" fill="#fff" opacity="0.4"/><g opacity="0.2"><path d="M327.66,369.49c4.64-1.62,7.82-2.51,8.51-.84s-1.37,5.3-6,6.92-11.89,1.39-12.58-.29S323,371.11,327.66,369.49Z" transform="translate(-0.65 -27.05)" opacity="0.4"/><path d="M321.81,364.5c-1.17-1.39,3.88-5.65,7.8-8.62s6.66-4.8,7.84-3.42.33,5.46-3.58,8.43S323,365.88,321.81,364.5Z" transform="translate(-0.65 -27.05)" opacity="0.4"/><path d="M314.19,366.71c3-1.15,5.06-1.75,5.72-.27s-.33,4.47-3.32,5.62-8,.57-8.62-.91S311.2,367.86,314.19,366.71Z" transform="translate(-0.65 -27.05)" opacity="0.4"/></g><path d="M100.68,403.55c-2.86-10.13-1.2-25.68,2.65-27s8.42,12.08,11.28,22.22,4.35,17.05.5,18.37S103.55,413.69,100.68,403.55Z" transform="translate(-0.65 -27.05)" fill="#fff" opacity="0.4"/><path d="M126.65,386.72c3.27-2.39,11.94,8.9,17.93,17.61s9.63,14.8,6.37,17.19-12.2.17-18.19-8.54S123.39,389.11,126.65,386.72Z" transform="translate(-0.65 -27.05)" fill="#fff" opacity="0.4"/><path d="M133.22,370.79c-2.07-6.53,0-17.16,3.39-18.44s6.82,7.28,8.89,13.81,3.09,11-.3,12.32S135.3,377.32,133.22,370.79Z" transform="translate(-0.65 -27.05)" fill="#fff" opacity="0.4"/><path d="M178.13,425.78c2.31-2.15,9.78,5.93,15,12.22s8.45,10.74,6.14,12.89-9.31,1.18-14.53-5.11S175.81,427.92,178.13,425.78Z" transform="translate(-0.65 -27.05)" fill="#fff" opacity="0.4"/><path d="M227.1,421.22c7,4.28,11.44,7.44,9.88,10.16s-8.56,3.94-15.53-.34-14.1-13.93-12.54-16.64S220.14,416.94,227.1,421.22Z" transform="translate(-0.65 -27.05)" fill="#fff" opacity="0.4"/><path d="M171.4,393.24c-4.55-5.13-7-15.69-4.38-18.23s9.19,3.89,13.73,9,7.3,8.84,4.71,11.38S175.94,398.36,171.4,393.24Z" transform="translate(-0.65 -27.05)" fill="#fff" opacity="0.4"/><path d="M244.19,220.77c-2.76-5.72-10-12-12.52-11s.79,8.89,3.55,14.61,4.89,9.42,7.37,8.42S247,226.49,244.19,220.77Z" transform="translate(-0.65 -27.05)" fill="#fff" opacity="0.4"/><path d="M214.78,232.66c-3,1.18-.89,10.45,1.13,17.16s3.69,11.08,6.73,9.89,6.26-7.45,4.25-14.17S217.81,231.48,214.78,232.66Z" transform="translate(-0.65 -27.05)" fill="#fff" opacity="0.4"/><path d="M267.36,218c-2.22-5.12-9.2-10.53-12-9.5s-.28,8.13,2,13.25,4,8.43,6.79,7.4S269.59,223.12,267.36,218Z" transform="translate(-0.65 -27.05)" fill="#fff" opacity="0.4"/><path d="M256,252.25c0-5.59-4.14-13.36-7.09-13.54s-3.55,7.32-3.59,12.9.27,9.34,3.21,9.52S255.93,257.83,256,252.25Z" transform="translate(-0.65 -27.05)" fill="#fff" opacity="0.4"/><g opacity="0.2"><path d="M423.34,319.48C438.76,265.24,500.17,214.42,563,202.59c-62.69,25-118.44,74.78-142.39,129.59A95.45,95.45,0,0,1,423.34,319.48Z" transform="translate(-0.65 -27.05)" fill="#c7b299"/></g><g opacity="0.2"><path d="M491.63,292.93C521.9,254,569,239.47,599.35,258.79c-36.12-8.07-80.52,8.24-114.45,43.68Q488,297.61,491.63,292.93Z" transform="translate(-0.65 -27.05)" fill="#c7b299"/></g><g opacity="0.2"><path d="M475.06,346.37c39.93-29,89.22-29.77,113-2.75-32.44-17.82-79.63-14.54-122.1,10Q470.27,349.86,475.06,346.37Z" transform="translate(-0.65 -27.05)" fill="#c7b299"/></g><g opacity="0.2"><path d="M458.48,383.51c34.27-35.47,82.67-44.86,110.76-22.4-35-11.9-80.94-.44-118.47,31.16C453.17,389.28,455.74,386.35,458.48,383.51Z" transform="translate(-0.65 -27.05)" fill="#c7b299"/></g><path d="M508,260.71a9.55,9.55,0,0,1,3.27-3.79,9.74,9.74,0,0,1,4.75-1.8,10.32,10.32,0,0,1,9.16,3.72,8.89,8.89,0,0,1,1.71,4.59,9.09,9.09,0,0,1-.25,5,10,10,0,0,1-3.24,3.92,11.18,11.18,0,0,1-10,1.09,9.67,9.67,0,0,1-4-3.2,9.13,9.13,0,0,1-1.8-4.55A9.32,9.32,0,0,1,508,260.71Z" transform="translate(-0.65 -27.05)" fill="#c7b299"/><path d="M479.74,279.56a5,5,0,0,1,3.45-1.49,4.77,4.77,0,0,1,3.36,1.7,4.62,4.62,0,0,1,1.12,3.55,5.15,5.15,0,0,1-1.56,3.47,5.32,5.32,0,0,1-3.59,1.41,4.64,4.64,0,0,1-3.31-1.8,4.74,4.74,0,0,1-1.27-3.53A5.14,5.14,0,0,1,479.74,279.56Z" transform="translate(-0.65 -27.05)" fill="#c7b299"/><path d="M511.62,293.75a6.55,6.55,0,0,1,4.71-1.37,6.69,6.69,0,0,1,4.3,2.38,6.11,6.11,0,0,1,1.6,4.66,6,6,0,0,1-2.72,4.1,6.92,6.92,0,0,1-4.75,1.44,7.07,7.07,0,0,1-4.52-2.28,6.29,6.29,0,0,1-1.34-4.84A6.14,6.14,0,0,1,511.62,293.75Z" transform="translate(-0.65 -27.05)" fill="#c7b299"/><path d="M564.86,273.38a3.64,3.64,0,0,1,3.08,3.63,3,3,0,0,1-3.64,2.55,3.66,3.66,0,0,1-3.08-3.68A3,3,0,0,1,564.86,273.38Z" transform="translate(-0.65 -27.05)" fill="#c7b299"/><path d="M488.29,248.58a4.56,4.56,0,0,1,6.45.64,4.39,4.39,0,0,1-.54,6.33,4.57,4.57,0,0,1-5.91-7Z" transform="translate(-0.65 -27.05)" fill="#c7b299"/><path d="M435.41,292.41a2.29,2.29,0,0,1,3.29.11,2.41,2.41,0,0,1-.38,3.34,2.32,2.32,0,0,1-3.31-.11A2.42,2.42,0,0,1,435.41,292.41Z" transform="translate(-0.65 -27.05)" fill="#c7b299"/><path d="M453.25,292.12a2.82,2.82,0,0,1,3.64,2.07,3.34,3.34,0,0,1-2.45,3.77,2.74,2.74,0,0,1-3.55-2.08A3.28,3.28,0,0,1,453.25,292.12Z" transform="translate(-0.65 -27.05)" fill="#c7b299"/><path d="M471.7,274.16a1.49,1.49,0,0,1,1.83,1.11,1.62,1.62,0,0,1-1.18,1.88,1.45,1.45,0,0,1-1.79-1.11A1.59,1.59,0,0,1,471.7,274.16Z" transform="translate(-0.65 -27.05)" fill="#c7b299"/><path d="M508,260.71a9.55,9.55,0,0,1,3.27-3.79,8.36,8.36,0,0,1,1-.66c-.23,3.74,1.15,8,2.75,11.2a9.15,9.15,0,0,0,4.49,4.86,14.17,14.17,0,0,0,2.47.79,12.1,12.1,0,0,1-3.53.95,10.59,10.59,0,0,1-5.12-.65,9.67,9.67,0,0,1-4-3.2,9.13,9.13,0,0,1-1.8-4.55A9.32,9.32,0,0,1,508,260.71Z" transform="translate(-0.65 -27.05)" fill="#865b23" opacity="0.3"/><path d="M477.94,282.87a4.87,4.87,0,0,1,1.4-2.91,17.77,17.77,0,0,0,4.86,8,5,5,0,0,1-1.68.28,4.64,4.64,0,0,1-3.31-1.8A4.74,4.74,0,0,1,477.94,282.87Z" transform="translate(-0.65 -27.05)" fill="#865b23" opacity="0.3"/><path d="M511.62,293.75a6.61,6.61,0,0,1,.55-.37c-.33,4.15,1.33,8.32,3.42,11.61a7.68,7.68,0,0,1-.83,0,7.07,7.07,0,0,1-4.52-2.28,6.29,6.29,0,0,1-1.34-4.84A6.14,6.14,0,0,1,511.62,293.75Z" transform="translate(-0.65 -27.05)" fill="#865b23" opacity="0.3"/><path d="M562.84,273.65a14.74,14.74,0,0,0,1.3,5.88,3.66,3.66,0,0,1-2.92-3.65A2.75,2.75,0,0,1,562.84,273.65Z" transform="translate(-0.65 -27.05)" fill="#865b23" opacity="0.3"/><path d="M521.88,263.91a1.46,1.46,0,0,1,1.24,1.47,1.22,1.22,0,0,1-1.46,1,1.48,1.48,0,0,1-1.25-1.49A1.22,1.22,0,0,1,521.88,263.91Z" transform="translate(-0.65 -27.05)" fill="#d9c9b2"/><path d="M519.2,261a.92.92,0,0,1,.78.92.77.77,0,0,1-.92.65.93.93,0,0,1-.79-.93A.77.77,0,0,1,519.2,261Z" transform="translate(-0.65 -27.05)" fill="#d9c9b2"/><path d="M519.63,301.13a.94.94,0,0,1-.65,1.06.8.8,0,0,1-.93-.7,1,1,0,0,1,.67-1.06A.77.77,0,0,1,519.63,301.13Z" transform="translate(-0.65 -27.05)" fill="#d9c9b2"/><path d="M518,297.66a2.1,2.1,0,0,1-1.43,2.35,1.76,1.76,0,0,1-2.06-1.54,2.11,2.11,0,0,1,1.46-2.35A1.73,1.73,0,0,1,518,297.66Z" transform="translate(-0.65 -27.05)" fill="#d9c9b2"/><path d="M485.82,280.81a.3.3,0,0,1-.21.34.26.26,0,0,1-.3-.22.31.31,0,0,1,.22-.34A.25.25,0,0,1,485.82,280.81Z" transform="translate(-0.65 -27.05)" fill="#d9c9b2"/><path d="M483.34,281.5a.68.68,0,0,1-.46.75.57.57,0,0,1-.66-.49.68.68,0,0,1,.47-.75A.56.56,0,0,1,483.34,281.5Z" transform="translate(-0.65 -27.05)" fill="#d9c9b2"/><path d="M520.89,298.88a.59.59,0,0,1-.41.67.48.48,0,0,1-.58-.43.61.61,0,0,1,.41-.68A.5.5,0,0,1,520.89,298.88Z" transform="translate(-0.65 -27.05)" fill="#d9c9b2"/></g></svg>