<svg xmlns="http://www.w3.org/2000/svg" xmlns:xlink="http://www.w3.org/1999/xlink" viewBox="0 0 581.47 560.18"><defs><clipPath id="a" transform="translate(-9.27 -19.91)"><rect width="600" height="600" fill="none"/></clipPath></defs><g clip-path="url(#a)"><path d="M326.45,337.58l1.33-17.74c1.57-.8,3.2-1.54,4.86-2.23l-.65-.71c7.49-15.59,19.87-30.87,38.67-43.23,34.28-23.59,83.33-29.47,123.66-19.8,40.89,9.19,73.06,33.92,86.83,60.68,8.22,15.45,10.57,29.93,9.23,42.17q-1.35-2.61-2.91-5.28c-15.5-27.36-47.59-53-87.29-63.23-39.14-10.68-85.91-5.86-117.85,16.3a110.45,110.45,0,0,0-12.68,9.94c20.22,4.33,38.33,19.07,48.67,37.22,12.16,20.6,14.29,45.58,8.33,64.39-3.33,11-8.56,19.15-14.29,24.77.39-1.23.76-2.49,1.1-3.79,5.53-19.79,3.84-45.22-7.43-65.84-10.73-20.46-30.86-36.2-52.57-37.84q-1.35,2.07-2.55,4.15l-4-4.35A55.82,55.82,0,0,0,326.45,337.58Z" transform="translate(-9.27 -19.91)" fill="#40433a"/><path d="M305.49,348.21l1.28-1.75C273.32,357,246.71,377,233.51,394.09c2.57-15,16.82-34.28,42.43-51.49a189.72,189.72,0,0,1,58.78-26,179.91,179.91,0,0,1,61.75-35c44-15.05,88.24-7.75,114.9,13.23,27.44,20.66,37.3,55,30.67,86.42a112.75,112.75,0,0,1-20.69,46.11c.43-2.05.82-4.13,1.15-6.25,3.68-21.31,1-43.82-8.53-62.81,6.79,23.29,2.42,49.08-9.79,69.61A104.08,104.08,0,0,1,474,461.14c1-1.64,1.91-3.31,2.82-5,14.44-26.29,18.54-59.68,5.62-86.36-7-15.36-19.63-28.49-35.86-37.06a79,79,0,0,1,22.8,25.17c15.41,26.38,10.87,59.45-6.47,85a118.34,118.34,0,0,1-34.67,34.2c1.12-1.66,2.23-3.38,3.3-5.13,16.88-26.83,22.37-60.53,8.61-87C427.23,358.34,395,339,355.07,339c-4.76,0-9.46.16-14.09.56-31,22.48-50.32,52.53-56.58,74.57C280.47,398.43,286.68,374.29,305.49,348.21Z" transform="translate(-9.27 -19.91)" fill="#415055"/><path d="M509.14,378.74c-1.62-31.51-19.73-62.08-50.22-74.87-28.08-12.62-59.19-8.32-82.89,1.52-17.82,7.44-31.56,17.93-40.26,28.82,8.86-11.21,22.79-22.06,40.79-29.85,23.94-10.3,55.27-15,83.37-2.44,30.52,12.73,48.4,43.74,49.7,75.88A109,109,0,0,1,503.69,419v0A104.34,104.34,0,0,0,509.14,378.74Z" transform="translate(-9.27 -19.91)" fill="#fff" opacity="0.3"/><path d="M324,326.54A201.37,201.37,0,0,1,390,290c46.69-16,93.23-9.5,121,11.11,21.24,15.08,32.06,38,33.08,61.79.19-25.78-10.5-51.36-32.65-68-26.66-21-70.91-28.28-114.9-13.23C366.82,291.18,342.34,308.18,324,326.54Z" transform="translate(-9.27 -19.91)" fill="#008b32" opacity="0.3"/><path d="M323.88,360.13a73.43,73.43,0,0,1,2-22.39,139.48,139.48,0,0,1,2-22.53q-2.23,1.14-4.4,2.34c-5.81-20-5.08-42.81,1.13-62.05,8-26.18,25.92-46,44.26-53.77,10.59-4.66,20.27-5.55,28.29-4.14-1.2.51-2.41,1.06-3.63,1.66-18.81,8.87-37.32,28.6-46,54a100.17,100.17,0,0,0-3.95,14.49,144.51,144.51,0,0,1,33.18-43.1c30.54-27.84,70.36-35.47,101.07-25a85.2,85.2,0,0,1,34.69,21.53A88.36,88.36,0,0,0,497,215.18c-33-10-76.18-1.59-109.7,26.92a155.62,155.62,0,0,0-40.22,50.6,162.76,162.76,0,0,1,71.85-57c41.78-17.59,87.23-13.11,117.16,6a91.59,91.59,0,0,1,30.74,30.83A101.64,101.64,0,0,0,552,262.28c-32.56-19.29-81.89-24-127.08-6.69-42.45,15.43-71.6,44.52-87.38,71q-2.81,4.74-5.06,9.34a119,119,0,0,0-1.69,33,79.93,79.93,0,0,1-4.23-18.67A89.73,89.73,0,0,0,323.88,360.13Z" transform="translate(-9.27 -19.91)" fill="#415055"/><path d="M536.47,242.71c-29.69-18.42-75-22.43-116.78-4.9a165.3,165.3,0,0,0-81.32,70.46c-11.15,19.62-15.51,37.72-14.49,51.86-1.14-14.47,3.09-33,14.1-53,14.71-26.53,41.75-55.77,81-71.44,41.78-17.59,87.23-13.11,117.16,6a91.59,91.59,0,0,1,30.74,30.83l0,0A88.31,88.31,0,0,0,536.47,242.71Z" transform="translate(-9.27 -19.91)" fill="#fff" opacity="0.3"/><path d="M94.15,436.46c-6.69,6.7-35.76,17.72-46.53,15.17S32.88,437.58,35,431.09s9.58-5.53,20.35-3S98.59,432,94.15,436.46Z" transform="translate(-9.27 -19.91)" fill="#62958c"/><path d="M52.17,446.94c-9.52-2-15.39-7.64-17.67-13.11-.47,6.58,3.75,15.59,13.12,17.8,6.31,1.49,18.9-1.67,29.58-5.89C67.34,447.44,57.92,448.15,52.17,446.94Z" transform="translate(-9.27 -19.91)" fill="#fff" opacity="0.4"/><path d="M72.16,408.8c-4.55,6.55-22.84,1.55-31.57-9.15s-7.69-27.75-3.14-34.31,10.89-.13,19.62,10.57S76.72,402.25,72.16,408.8Z" transform="translate(-9.27 -19.91)" fill="#62958c"/><path d="M64.55,420.89c-2.63,7.94-22.51,13.73-34.47,9.56s-16-18.94-13.38-26.88,10.91-6.05,22.88-1.88S67.17,413,64.55,420.89Z" transform="translate(-9.27 -19.91)" fill="#62958c"/><path d="M38.37,430.79C22.75,425.93,17,410,20.18,401.53a8.33,8.33,0,0,1,2-3.2c-2.61.56-4.48,2.16-5.5,5.24-2.62,7.94,1.42,22.71,13.38,26.88a30.8,30.8,0,0,0,12.07,1.28A33.67,33.67,0,0,1,38.37,430.79Z" transform="translate(-9.27 -19.91)" fill="#fff" opacity="0.4"/><path d="M71,417.84c-4.55,6.55-46.46-10.77-55.19-21.47s-7.7-27.75-3.14-34.31,10.89-.13,19.62,10.57S75.59,411.28,71,417.84Z" transform="translate(-9.27 -19.91)" fill="#999"/><path d="M108.67,415.31c-.5,19.13-31.44,32.48-44.29,28.91S49.31,421,53.53,409.48c2.07-5.63.67-36.61,3.78-33.24,8.23,8.94,16.48,23.13,23,24.95C93.19,404.75,109,403.05,108.67,415.31Z" transform="translate(-9.27 -19.91)" fill="#62958c"/><path d="M59.58,382.84A77.77,77.77,0,0,0,75.39,398c-5.42-5-11.57-14.59-17.72-21.38l-.6-.73c-8.73-10.7-15.07-17.12-19.62-10.57-4,5.72-5.27,19.42.26,29.93-2.82-7.51-3.79-16-.37-21.92C43.46,362.77,55.35,377.26,59.58,382.84Z" transform="translate(-9.27 -19.91)" fill="#fff" opacity="0.4"/><path d="M71,417.84c-4.55,6.55-46.46-10.77-55.19-21.47s-7.7-27.75-3.14-34.31,10.89-.13,19.62,10.57S75.59,411.28,71,417.84Z" transform="translate(-9.27 -19.91)" fill="#62958c"/><path d="M12.71,362.06c-4.56,6.56-5.59,23.6,3.14,34.31.21.26.45.52.7.79-4.68-9.27-4.36-20.87-1.29-26.42,3.94-7.1,10.89-1.64,20.63,7.72a82.33,82.33,0,0,0,9.09,7c-5.34-5.11-10.1-9.71-12.65-12.84C23.6,361.93,17.26,355.51,12.71,362.06Z" transform="translate(-9.27 -19.91)" fill="#fff" opacity="0.4"/><path d="M95.45,421.41c-1.9,8-40.84,12.42-50.92,7s-14-21.25-12.06-29.29,8.84-5.3,18.91.15S97.34,413.37,95.45,421.41Z" transform="translate(-9.27 -19.91)" fill="#62958c"/><path d="M32.47,399.08c-1.89,8,2,23.83,12.06,29.29.25.13.51.26.79.38-6.38-6.1-9.33-16.66-8.37-23.11,1.24-8.23,8.42-6.63,18.95-2.86a55,55,0,0,0,9.34,2c-5.76-2.05-10.91-3.92-13.86-5.52C41.31,393.78,34.36,391,32.47,399.08Z" transform="translate(-9.27 -19.91)" fill="#fff" opacity="0.4"/><g opacity="0.2"><path d="M59.2,436.57c-3.67-.43-6.15-.53-6.43,1.11s1.74,4.39,5.41,4.82,9-1.35,9.29-3S62.87,437,59.2,436.57Z" transform="translate(-9.27 -19.91)" opacity="0.4"/><path d="M62.84,430.88c.68-1.48-3.66-4.15-7-5.93s-5.61-2.81-6.29-1.33.5,4.91,3.82,6.69S62.16,432.36,62.84,430.88Z" transform="translate(-9.27 -19.91)" opacity="0.4"/><path d="M68.81,431.19c-2.38-.37-4-.45-4.28,1a3.91,3.91,0,0,0,3.24,4.25c2.37.37,6-1.22,6.27-2.67S71.18,431.55,68.81,431.19Z" transform="translate(-9.27 -19.91)" opacity="0.4"/></g><path d="M327.6,336.67c7.14-2.12,11.09-26.34,6.41-42s-18.6-23-25.74-20.86-4.81,12.86-.13,28.57S320.46,338.8,327.6,336.67Z" transform="translate(-9.27 -19.91)" fill="#a6734b"/><path d="M341.86,347.06c7.4.85,20.56-19.86,22.43-36.14s-8-28.44-15.45-29.3-9.48,9.94-11.36,26.22S334.46,346.21,341.86,347.06Z" transform="translate(-9.27 -19.91)" fill="#a6734b"/><path d="M360,314.17c1.68-14.65-3.14-26.41-8.76-31.91,7,2.83,14.72,14.1,13,28.66-1.09,9.53-6.05,20.57-11.46,27.92A87.51,87.51,0,0,0,360,314.17Z" transform="translate(-9.27 -19.91)" fill="#fff" opacity="0.4"/><path d="M345.64,360.64c5.61,2.82,22.05-9.75,28.27-22.1s1.9-24.87-3.72-27.69-10.4,5.1-16.62,17.45S340,357.81,345.64,360.64Z" transform="translate(-9.27 -19.91)" fill="#a6734b"/><path d="M370.23,336.78c4.24-8.41,4.82-16.64,3.47-22.63,3.52,5.19,5,14.84.21,24.39-5.22,10.36-17.62,20.87-24.8,22.33C356.48,355.83,365.53,346.11,370.23,336.78Z" transform="translate(-9.27 -19.91)" fill="#fff" opacity="0.4"/><path d="M336.64,339.85c7.14-2.13,11.56-60.52,6.88-76.23s-18.6-23-25.74-20.85-4.81,12.86-.13,28.57S329.5,342,336.64,339.85Z" transform="translate(-9.27 -19.91)" fill="#a6734b"/><path d="M342.4,269.47C337.14,254,323,247.19,315.91,249.58a5.77,5.77,0,0,0-2.65,1.75c-.14-4.56,1.11-7.54,4.52-8.56,7.14-2.13,21.05,5.15,25.74,20.85,1.8,6.05,2.25,18.42,1.72,31.47C345,284.26,344.12,274.56,342.4,269.47Z" transform="translate(-9.27 -19.91)" fill="#fff" opacity="0.4"/><path d="M212.62,538.79c76.68,0,179.59,17.35,179.59,23.58s-102.91,11.3-179.59,11.3-163.09-5.06-163.09-11.3S136,538.79,212.62,538.79Z" transform="translate(-9.27 -19.91)" opacity="0.1"/><polygon points="138.86 460.14 135.42 528.95 132.69 528.86 130.64 455.7 138.86 460.14" fill="#ff9e2e"/><polygon points="133.89 528.9 132.69 528.86 130.64 455.7 133.89 528.9" fill="#fff" opacity="0.4"/><polygon points="133.83 493.92 136.5 494.27 138.86 460.14 136.11 515.08 136.11 515.08 136.07 515.79 136.07 515.79 135.79 521.43 135.79 521.43 135.77 521.89 135.42 528.95 134.11 528.9 134.63 521.42 134.15 521.21 134.64 521.27 135.05 515.32 133.86 514.78 135.07 514.94 135.39 510.42 133.7 509.65 135.42 509.88 135.74 505.27 133.2 504.12 135.8 504.46 136.09 500.2 133.63 499.07 136.15 499.41 136.45 495.11 133.83 493.92" fill="#d04000" opacity="0.4"/><path d="M149.83,482.48c9.21,1.41,17.9,9.47,16.49,18.69-.91,5.9-6.32,14.58-12.52,19.67a12,12,0,0,1-18.7-4.51c-.07-.17-.14-.33-.2-.51A44.94,44.94,0,0,1,133,496C134.37,486.83,140.61,481.06,149.83,482.48Z" transform="translate(-9.27 -19.91)" fill="#a6734b"/><path d="M139,516.78c.1.29.21.58.33.86a19.65,19.65,0,0,0,3.33,5.49,11.5,11.5,0,0,1-7.55-6.8c-.07-.17-.14-.33-.2-.51A44.94,44.94,0,0,1,133,496a20.28,20.28,0,0,1,2.12-6.54C134.79,497.93,136,508.32,139,516.78Z" transform="translate(-9.27 -19.91)" opacity="0.2"/><path d="M114.85,547c12.6-10.41,31.77-3.4,48.89,9-9.23-3.95-18.33-6.35-26.86-6.61a27.85,27.85,0,0,0-1.62,17.17,36.7,36.7,0,0,0,2.16,6.78c-4.47-4.93-7.57-10-8.62-14.93a16.93,16.93,0,0,1-.29-5.41A33.35,33.35,0,0,0,121,571.57a45,45,0,0,0,0,8.52c-3.35-7.24-5.09-14.13-4.53-20.15a20.08,20.08,0,0,1,1.94-7,36.82,36.82,0,0,0-8,5.05,43.18,43.18,0,0,0-5.92,6C106.79,556.76,110.18,550.82,114.85,547Z" transform="translate(-9.27 -19.91)" fill="#ff9e2e"/><path d="M110.26,557.22a14.4,14.4,0,0,1,8.17-4.32,36.82,36.82,0,0,0-8,5.05,43.18,43.18,0,0,0-5.92,6C106.31,561.72,108.7,558.79,110.26,557.22Z" transform="translate(-9.27 -19.91)" fill="#d04000" opacity="0.4"/><path d="M121,580.09c-.28-2.94-1.24-6.66-1.23-8.9,0-5,2.23-13.12,8.72-18.17A33.35,33.35,0,0,0,121,571.57,45,45,0,0,0,121,580.09Z" transform="translate(-9.27 -19.91)" fill="#d04000" opacity="0.4"/><path d="M135.26,566.58c-1.32-6.21-2.37-13.55-.12-18.78,8.53.26,19.37,4.27,28.6,8.22-9.23-3.95-18.33-6.35-26.86-6.61A27.85,27.85,0,0,0,135.26,566.58Z" transform="translate(-9.27 -19.91)" fill="#d04000" opacity="0.4"/><path d="M104.48,564c2.31-7.2,5.33-10.53,10-14.38,7.53-6.21,19.64-7.09,31.89-3.7-11.72-5-23.08-5.87-31.51,1.09C110.18,550.82,106.79,556.76,104.48,564Z" transform="translate(-9.27 -19.91)" fill="#fff" opacity="0.4"/><polygon points="259.44 464.43 289.09 526.61 286.65 527.84 250.09 464.43 259.44 464.43" fill="#ff9e2e"/><polygon points="287.73 527.3 286.65 527.84 250.09 464.43 287.73 527.3" fill="#fff" opacity="0.4"/><polygon points="271.05 496.55 273.58 495.59 259.44 464.43 283.12 514.09 283.12 514.09 283.42 514.73 283.42 514.73 285.85 519.82 285.85 519.82 286.05 520.24 289.09 526.61 287.92 527.2 284.82 520.37 284.3 520.41 284.76 520.23 282.3 514.8 280.99 514.89 282.14 514.46 280.27 510.33 278.41 510.45 280.04 509.84 278.13 505.63 275.35 505.82 277.8 504.89 276.03 501 273.33 501.18 275.71 500.28 273.92 496.35 271.05 496.55" fill="#d04000" opacity="0.4"/><path d="M312.77,544.53c-14.71-7.12-31.67,4.23-45.35,20.39,8-6,16.31-10.52,24.53-12.79a27.86,27.86,0,0,1,5.65,16.3,37.55,37.55,0,0,1-.49,7.09c3.17-5.85,5-11.5,4.83-16.54a17.22,17.22,0,0,0-1-5.33,33.37,33.37,0,0,1,11.72,16.23,44.82,44.82,0,0,1,2,8.29c1.55-7.82,1.6-14.94-.37-20.65a20.36,20.36,0,0,0-3.56-6.38,36.92,36.92,0,0,1,9,3,43.5,43.5,0,0,1,7.17,4.43C322.92,552.13,318.22,547.17,312.77,544.53Z" transform="translate(-9.27 -19.91)" fill="#ff9e2e"/><path d="M319.66,553.4a14.4,14.4,0,0,0-9-2.26,36.92,36.92,0,0,1,9,3,43.5,43.5,0,0,1,7.17,4.43C324.57,556.83,321.55,554.56,319.66,553.4Z" transform="translate(-9.27 -19.91)" fill="#d04000" opacity="0.4"/><path d="M314.63,578.17c-.42-2.92-.37-6.76-.91-8.94-1.22-4.89-5.28-12.21-12.78-15.58a33.37,33.37,0,0,1,11.72,16.23A44.82,44.82,0,0,1,314.63,578.17Z" transform="translate(-9.27 -19.91)" fill="#d04000" opacity="0.4"/><path d="M297.6,568.43c-.2-6.36-.92-13.73-4.35-18.28-8.22,2.28-17.79,8.75-25.83,14.77,8-6,16.31-10.52,24.53-12.79A27.86,27.86,0,0,1,297.6,568.43Z" transform="translate(-9.27 -19.91)" fill="#d04000" opacity="0.4"/><path d="M312.77,544.53c-9.84-4.76-20.68-1.26-30.87,6.41,11.09-6.19,23.07-8.21,31.86-4,5.44,2.63,9.16,5.15,13.11,11.59C322.92,552.13,318.22,547.17,312.77,544.53Z" transform="translate(-9.27 -19.91)" fill="#fff" opacity="0.4"/><path d="M296.46,516.05c-1.63,10.54-12.95,16.79-22.51,12.06-.21-.1-.43-.21-.64-.33a59.62,59.62,0,0,1-19.41-17.87c-6.73-10.37-5.64-21.6,4.73-28.33s26.11-6.44,32.85,3.93C295.79,492.16,298.1,505.53,296.46,516.05Z" transform="translate(-9.27 -19.91)" fill="#a6734b"/><path d="M284.61,486.45a23.83,23.83,0,0,0-12-9.37c7.47-.42,14.82,2.17,18.89,8.43,4.31,6.65,6.62,20,5,30.54a16.09,16.09,0,0,1-5,9.43C293.17,511.78,290.13,495,284.61,486.45Z" transform="translate(-9.27 -19.91)" fill="#fff" opacity="0.3"/><path d="M251.63,489a32.53,32.53,0,0,0,4.51,14.5A77.15,77.15,0,0,0,279.88,528c.26.17.53.33.8.48a19.82,19.82,0,0,0,2.17,1.07,15.18,15.18,0,0,1-8.9-1.45c-.21-.1-.43-.21-.64-.33a59.62,59.62,0,0,1-19.41-17.87C249.25,502.75,248.33,495.18,251.63,489Z" transform="translate(-9.27 -19.91)" opacity="0.2"/><path d="M65.09,275.84c14-40.54,103.52,0,166.75,14.32,18.08,4.1,36.09,35.38,47,26,57.62-49.68,89.44,9.46,89.44,62.25S320.44,495,270.08,502.94C22,541.93,21,403.91,65.09,275.84Z" transform="translate(-9.27 -19.91)" fill="#a6734b"/><path d="M291.53,486.91c-22.65,8.75-43.59,15.74-62.92,21.13q19.48-1.65,41.47-5.1c42.66-6.7,83.5-53.53,95-99.79C352.42,439.63,325.05,474,291.53,486.91Z" transform="translate(-9.27 -19.91)" opacity="0.15"/><path d="M65.41,364.73q.87-7.35,1.32-14.74a220,220,0,0,0-10.16,57.36c-5.58-40.92-.59-77,11.74-108.82a124.33,124.33,0,0,1,13.87-38.28c-8.26,2.44-14.25,7.33-17.09,15.59C35.76,361.08,26.38,450.73,96.55,489.66,66.21,459.77,59.49,414.53,65.41,364.73Z" transform="translate(-9.27 -19.91)" fill="#fff" opacity="0.4"/><path d="M335.13,301.33c-10.52,1.33-22.5,7.35-35.87,19.59-4.95,4.54-11.36.18-18.57-6.35C302.85,296.17,321.12,294,335.13,301.33Z" transform="translate(-9.27 -19.91)" opacity="0.15"/><path d="M196.73,139.89c-15.35-2.85-29.89-47.17-24.33-77s32.44-45.48,47.78-42.63,13.35,23.13,7.79,53S212.07,142.75,196.73,139.89Z" transform="translate(-9.27 -19.91)" fill="#c1272d"/><path d="M220.18,20.24c6.24,1.16,9.61,5.2,11,11.59a13.21,13.21,0,0,0-6.32-2.65C209.48,26.74,183,43.1,178.29,73.09c-3.28,20.68,3.19,48,12.57,63.73-12.9-11-23.3-47.95-18.46-73.95C178,33,204.84,17.39,220.18,20.24Z" transform="translate(-9.27 -19.91)" fill="#fff" opacity="0.4"/><path d="M200.81,147c-9.5-12.38,9.31-55.06,33.4-73.54s54.53-12.15,64,.23-5.53,26.12-29.62,44.61S210.32,159.37,200.81,147Z" transform="translate(-9.27 -19.91)" fill="#c1272d"/><path d="M288.36,82.6c-9.4-12.25-39.3-18.58-63.27-.8a75.27,75.27,0,0,1,9.12-8.36c24.08-18.49,54.53-12.15,64,.23,7.74,10.09-.81,21.09-17.29,34.82C290.59,98.76,294.35,90.41,288.36,82.6Z" transform="translate(-9.27 -19.91)" fill="#fff" opacity="0.4"/><path d="M222.7,152.79c-.88-11.62,28.31-30.61,50.91-32.32s39.05,14.69,39.92,26.31-14.12,14.06-36.73,15.77S223.58,164.41,222.7,152.79Z" transform="translate(-9.27 -19.91)" fill="#c1272d"/><path d="M302.36,149.48c-.79-10.4-10.95-24.21-26-29.12,21.17-.25,36.32,15.27,37.16,26.42.57,7.42-5.36,11.09-15.59,13.23C301.12,157.53,302.71,154.16,302.36,149.48Z" transform="translate(-9.27 -19.91)" fill="#fff" opacity="0.4"/><path d="M230.4,146.71c36.61-.06,64.82,29.83,63.31,60-1.46,30.31-29.68,49.9-63.31,50-33.63-.11-61.85-19.7-63.31-50C165.59,176.54,193.79,146.65,230.4,146.71Z" transform="translate(-9.27 -19.91)" fill="#d6c6b6"/><path d="M59.72,280.32c7.75-24.49,22.83-51.21,37.72-75a29.17,29.17,0,0,1-7.29-18.06c-.94-18.78,16.64-37.41,39.45-37.37a41.13,41.13,0,0,1,12.12,1.81l.37-.31C155,140.26,169.17,132.09,185.31,128a59.71,59.71,0,0,1,13.45-1.71h.1c8.35-.2,13.84,2,18.34,3.5,9.88,3.66,19,10,27.38,18.39,29.44,6.43,50.44,32.35,49.13,58.47a46.79,46.79,0,0,1-5.16,19.43c7.9,23,15.8,46.41,18.71,68.13,1.23,6.43-2,21.86-13.49,24.06-6.18,1.19-11.31.09-14.93-2.18-2.74,6.59-8.7,14-17.23,13.54s-14-4.43-16.32-9c-.15,5.66-3.48,12.23-11.62,15.46s-18.76-2.22-24.34-7.72c-3.27,5.73-9.72,11.25-17.43,10.35a21.11,21.11,0,0,1-15.81-10.15A25.84,25.84,0,0,1,161.55,335c-6.45.67-11.64-3.28-15.11-8a25.72,25.72,0,0,1-15.82,3.57c-7.94-.75-12.63-8-14.63-14.57a25.82,25.82,0,0,1-15.14,3.16c-7.29-.69-11.85-6.85-14.08-13-3.61,2.17-8.65,3.2-14.71,2-8.42-1.61-11.72-13.89-12.86-20.37A15.6,15.6,0,0,1,59.72,280.32Z" transform="translate(-9.27 -19.91)" fill="#c7734b"/><path d="M141.72,151.72l.37-.31c10.85-9.39,22.64-16.67,35.74-21.16-11.14,5.17-21.34,13.2-30.82,23.52a40.75,40.75,0,0,0-5.4-2.08Z" transform="translate(-9.27 -19.91)" fill="#998675" opacity="0.2"/><path d="M244.57,148.22a66.52,66.52,0,0,0-8.81-1.3c-6.26-7.25-12.9-12.92-19.93-16.63-1.82-.83-3.81-1.86-6.09-2.76,2.86.71,5.28,1.6,7.46,2.3C227.08,133.48,236.22,139.86,244.57,148.22Z" transform="translate(-9.27 -19.91)" fill="#998675" opacity="0.2"/><path d="M280.28,221.32a50.78,50.78,0,0,0,5.81-20.15c1-12.5-2.68-25.1-9.78-35.83,11.47,11.23,18.16,26.26,17.4,41.35a46.79,46.79,0,0,1-5.16,19.43c7.9,23,15.8,46.41,18.71,68.13,1.23,6.43-2,21.86-13.49,24.06a22.37,22.37,0,0,1-11.18-.46c11.39-2.09,15.08-18,14.07-24.68C294.5,270.37,287.39,245.59,280.28,221.32Z" transform="translate(-9.27 -19.91)" fill="#fff" opacity="0.35"/><path d="M147.54,328.2l-.06,0,.25.3C147.67,328.43,147.6,328.32,147.54,328.2ZM59.2,287.78c1.14,6.48,4.44,18.76,12.86,20.37,6.06,1.16,11.1.13,14.71-2,2.23,6.11,6.79,12.27,14.08,13A25.82,25.82,0,0,0,116,315.91c1.84,6.08,6,12.7,12.85,14.28-6.16-2.59-9.49-9.82-10.77-16.34a23.91,23.91,0,0,1-15.35,2.36c-7.22-1.3-11.26-8.42-13-15.31-3.77,2.12-8.89,2.89-14.83,1.16-8.27-2.39-10.55-16.15-11.16-23.37a19,19,0,0,1,1.12-8.18c9.73-26.39,27-54.69,43.73-79.77a34,34,0,0,1-5.79-20.42,37,37,0,0,1,2.62-12.55c-9.79,7.16-15.82,18.31-15.26,29.51a29.17,29.17,0,0,0,7.29,18.06c-14.89,23.77-30,50.49-37.72,75A15.6,15.6,0,0,0,59.2,287.78Z" transform="translate(-9.27 -19.91)" fill="#998675" opacity="0.2"/><path d="M225,149.89A75,75,0,0,0,200.12,154a65.38,65.38,0,0,1,30.28-7.33c30.39-.05,55,20.53,61.61,44.77C281.16,168.13,255.63,149.83,225,149.89Z" transform="translate(-9.27 -19.91)" fill="#fff" opacity="0.3"/><path d="M126.2,151.89a46.71,46.71,0,0,0-15.47,2.59,40.72,40.72,0,0,1,18.87-4.57c18.93,0,34.25,12.79,38.38,27.89C161.22,163.26,145.31,151.86,126.2,151.89Z" transform="translate(-9.27 -19.91)" fill="#fff" opacity="0.3"/><path d="M110.56,157.3c27.21-.05,48.18,22.17,47.06,44.58s-22.07,37.1-47.06,37.17-46-14.63-47.07-37.17S83.34,157.25,110.56,157.3Z" transform="translate(-9.27 -19.91)" fill="#ffe7d4"/><path d="M104.53,157.66c-20,6-33.94,24.19-33,42.55,1.09,22.54,22.06,37.1,47.06,37.17a62.44,62.44,0,0,0,8.28-.57,60,60,0,0,1-16.29,2.24c-25-.07-46-14.63-47.07-37.17C62.46,181.16,80.31,160.6,104.53,157.66Z" transform="translate(-9.27 -19.91)" fill="#e75400" opacity="0.2"/><path d="M236.49,154.71c36.61-.06,64.81,29.83,63.31,60-1.46,30.31-29.68,49.9-63.31,50-33.63-.11-61.85-19.7-63.31-50C171.67,184.54,199.88,154.65,236.49,154.71Z" transform="translate(-9.27 -19.91)" fill="#ffe7d4"/><path d="M221,259.81c33.63-.11,61.85-20.87,63.31-53,.79-16.78-6.62-33.49-19.14-45.56,21.54,10.43,35.68,31.86,34.6,53.44-1.46,30.31-29.68,49.9-63.31,50a78,78,0,0,1-31.9-6.66A78.94,78.94,0,0,0,221,259.81Z" transform="translate(-9.27 -19.91)" fill="#e75400" opacity="0.2"/><path d="M205.34,198.4c0,.35-.05.7-.05,1.06a10.56,10.56,0,1,0,8.06-10.23,18.51,18.51,0,1,1-8,9.17Z" transform="translate(-9.27 -19.91)" fill="#51364d"/><path d="M235.79,222.32a5,5,0,1,1,5-5A5,5,0,0,1,235.79,222.32Z" transform="translate(-9.27 -19.91)" fill="#fff"/><path d="M242.38,223.88a1.57,1.57,0,1,1,1.57-1.56A1.56,1.56,0,0,1,242.38,223.88Z" transform="translate(-9.27 -19.91)" fill="#fff"/><path d="M137.73,197.59a3.94,3.94,0,0,0-.47-.1,4.74,4.74,0,1,0,4,5.4,4.61,4.61,0,0,0,0-1.11,8.36,8.36,0,1,1-6.54-5.26A8.1,8.1,0,0,1,137.73,197.59Z" transform="translate(-9.27 -19.91)" fill="#51364d"/><path d="M138.3,213.36a2.18,2.18,0,1,1,2.18-2.17A2.17,2.17,0,0,1,138.3,213.36Z" transform="translate(-9.27 -19.91)" fill="#fff"/><path d="M141.15,214a.68.68,0,1,1,.68-.68A.68.68,0,0,1,141.15,214Z" transform="translate(-9.27 -19.91)" fill="#fff"/><path d="M92.69,311.06c6.5-20.53,33.49-42.42,46.19-38.4s6.3,32.43-.2,53-12.27,33.81-25,29.79S86.19,331.6,92.69,311.06Z" transform="translate(-9.27 -19.91)" fill="#c1272d"/><path d="M97.23,316.85c5.51-17.94,23.14-36.7,38.51-44.67-13.55-.21-37,19.91-43.05,38.88-3.4,10.77-1,21.32,4,29.51A44,44,0,0,1,97.23,316.85Z" transform="translate(-9.27 -19.91)" fill="#fff" opacity="0.4"/><path d="M131.67,321.19c3.12-11.51,8.89-27.92,13-42.79,4.15,10.24-.87,31.14-6,47.22-6,18.88-11.34,31.62-22,30.43C122.87,351,127.09,338.11,131.67,321.19Z" transform="translate(-9.27 -19.91)" opacity="0.15"/><path d="M140.1,289.64c10.32-8.35,29,12.91,41.49,29.84s19.64,29.18,9.32,37.52-34.22,9.63-46.68-7.3S129.79,298,140.1,289.64Z" transform="translate(-9.27 -19.91)" fill="#c1272d"/><path d="M145.75,345.93c-5.7-10.45-9.79-25.68-11.92-40.85-1.57,14,2.07,33.31,10.4,44.62a31.79,31.79,0,0,0,15,11.13C154.27,357.83,149.6,353,145.75,345.93Z" transform="translate(-9.27 -19.91)" fill="#fff" opacity="0.4"/><path d="M181.16,359.4c10.76-9.17,4.27-24.49-7.26-45.87-2-3.63-4.07-7.41-6.31-11.16a193.74,193.74,0,0,1,14,17.11c12.46,16.93,19.64,29.18,9.32,37.52-3.7,3-9.15,5.08-15.19,5.74A21.8,21.8,0,0,0,181.16,359.4Z" transform="translate(-9.27 -19.91)" opacity="0.15"/><path d="M195.34,267.5c.16.2-8.45,50.87-47.08,44.71C131.62,309.55,89.45,251,89.45,251S166.89,245.5,195.34,267.5Z" transform="translate(-9.27 -19.91)" fill="#ff9e2e"/><path d="M151.42,304.7c21.74,3.47,34-11.06,40.48-24.46-5.3,14.63-17.71,36.1-43.64,32-8.85-1.42-24.93-18.64-38-34.45C127.47,291.44,144.41,303.58,151.42,304.7Z" transform="translate(-9.27 -19.91)" opacity="0.1"/><path d="M105.73,272.26c-5.26-6.53-9.76-12.43-12.68-16.34,17.8-2,63.73-5.68,90.68,5a58.12,58.12,0,0,1,8.55,4.42C176.27,260.74,143.41,264.82,105.73,272.26Z" transform="translate(-9.27 -19.91)" opacity="0.1"/><path d="M95.22,212.68C107.6,200.83,126,248.59,148,236.06s47.26,31.52,47.38,31.44c-29.92-8.24-88.64-.07-118.57,3.51C76.59,270.84,85.56,221.58,95.22,212.68Z" transform="translate(-9.27 -19.91)" fill="#ff9e2e"/><path d="M95.22,212.68C107.6,200.83,126,248.59,148,236.06c11.31-6.45,23.49,2.09,32.67,11.88-10-7.79-22.71-13.67-32.56-8.05-22,12.53-39-22.14-51.4-10.29C87,238.5,76.59,270.84,76.77,271,76.59,270.84,85.56,221.58,95.22,212.68Z" transform="translate(-9.27 -19.91)" fill="#fff" opacity="0.4"/><path d="M84,238.88c3.27-11.14,7.44-21.55,12-24.31,14-8.44,29.62,35.69,51.58,23.16,9.7-5.53,20.84-.25,30.26,7.37-8.78-8.49-19.69-14.85-29.88-9-22,12.53-40.36-35.23-52.74-23.38C91.13,216.44,87.17,227.44,84,238.88Z" transform="translate(-9.27 -19.91)" fill="#fff" opacity="0.2"/><path d="M162.68,242.7s2.22,3-.73,2.92c-1.26,0-7.31-3-7.31-3S159.55,241.69,162.68,242.7Z" transform="translate(-9.27 -19.91)" opacity="0.2"/><path d="M248.84,433.46c6.89,7.6,40,22.67,53.41,21.7s20.21-11.79,18.77-18.52-10.57-6.84-24-5.87S244.27,428.43,248.84,433.46Z" transform="translate(-9.27 -19.91)" fill="#62958c"/><path d="M297.59,449.86c11.83-.63,19.88-5.35,23.58-10.43-.58,6.58-7.24,14.88-18.92,15.73-7.86.57-22.47-4.37-34.61-10.08C279.23,448.18,290.45,450.24,297.59,449.86Z" transform="translate(-9.27 -19.91)" fill="#fff" opacity="0.4"/><path d="M280.17,409.25c4.33,7.14,27.25,4.81,39.64-4.53s14.12-26.35,9.78-33.49-13.1-1.7-25.49,7.64S275.83,402.11,280.17,409.25Z" transform="translate(-9.27 -19.91)" fill="#62958c"/><path d="M287.23,422.31c1.78,8.23,24.72,16.81,39.86,14.4s22.59-16.44,20.82-24.68-12.09-7.55-27.24-5.14S285.46,414.07,287.23,422.31Z" transform="translate(-9.27 -19.91)" fill="#62958c"/><path d="M317,435.86c19.67-2.57,29.34-17.55,27-26.34a7.87,7.87,0,0,0-1.88-3.46,7.59,7.59,0,0,1,5.71,6c1.77,8.24-5.68,22.28-20.82,24.68a44.91,44.91,0,0,1-14.77-.46C313.94,436.19,315.52,436.06,317,435.86Z" transform="translate(-9.27 -19.91)" fill="#fff" opacity="0.4"/><path d="M279.94,418.35c4.34,7.14,57.86-4,70.25-13.32s14.12-26.36,9.78-33.5-13.1-1.7-25.49,7.64S275.6,411.21,279.94,418.35Z" transform="translate(-9.27 -19.91)" fill="#999"/><path d="M235.05,410.45c-2.74,19,32.2,36.65,48.31,35s22.22-20.85,19.14-32.82c-1.51-5.88,5.59-36.33,1.26-33.44-11.49,7.66-23.91,20.53-32.1,21.38C255.55,402.22,236.8,398.28,235.05,410.45Z" transform="translate(-9.27 -19.91)" fill="#62958c"/><path d="M328.32,379.16c3.09,6.33.44,14.62-4.28,21.64,8.5-9.6,9.33-23.34,5.55-29.57-4.34-7.14-13.1-1.7-25.49,7.64l-.85.64c-8.6,5.83-17.68,14.42-25.08,18.6a96.29,96.29,0,0,0,21.69-12.75C305.94,380.45,322.79,367.81,328.32,379.16Z" transform="translate(-9.27 -19.91)" fill="#fff" opacity="0.4"/><path d="M279.94,418.35c4.34,7.14,57.86-4,70.25-13.32s14.12-26.36,9.78-33.5-13.1-1.7-25.49,7.64S275.6,411.21,279.94,418.35Z" transform="translate(-9.27 -19.91)" fill="#62958c"/><path d="M334.48,379.17c-3.62,2.73-10.15,6.6-17.48,10.89a108.65,108.65,0,0,0,12.18-5.63c13.37-7.86,22.7-12.27,26.2-4.68,2.73,5.94,1.09,17.46-6.17,26,.35-.23.68-.46,1-.68,12.39-9.34,14.12-26.36,9.78-33.5S346.87,369.83,334.48,379.17Z" transform="translate(-9.27 -19.91)" fill="#fff" opacity="0.4"/><path d="M249.91,418.39c.87,8.23,47,18.15,60.13,14.19s20.53-19,19.65-27.26-9.72-6.51-22.81-2.56S249,410.16,249.91,418.39Z" transform="translate(-9.27 -19.91)" fill="#62958c"/><path d="M306.88,402.76c-3.83,1.16-10.36,2.27-17.67,3.47a80.78,80.78,0,0,0,11.61-.6c13.35-2.23,22.27-2.78,22.32,5.55,0,6.52-5.37,16.55-14.12,21.66.36-.08.7-.16,1-.26,13.1-3.95,20.53-19,19.65-27.26S320,398.81,306.88,402.76Z" transform="translate(-9.27 -19.91)" fill="#fff" opacity="0.4"/><g opacity="0.2"><path d="M290.93,438.59c4.5.11,7.51.37,7.56,2s-2.87,4.1-7.36,4-10.63-2.63-10.68-4.29S286.44,438.49,290.93,438.59Z" transform="translate(-9.27 -19.91)" opacity="0.4"/><path d="M287.54,432.44c-.57-1.56,5.13-3.58,9.44-4.87s7.25-2,7.81-.41-1.47,4.78-5.77,6.07S288.1,434,287.54,432.44Z" transform="translate(-9.27 -19.91)" opacity="0.4"/><path d="M280.3,431.89c2.92,0,4.89.13,5,1.6s-1.72,3.73-4.65,3.75-7-2.07-7.09-3.55S277.37,431.91,280.3,431.89Z" transform="translate(-9.27 -19.91)" opacity="0.4"/></g><path d="M85.64,394.82c.81-9.6,7.23-22.37,11-22.26s3.32,13.05,2.52,22.65-1.76,16-5.48,15.89S84.84,404.42,85.64,394.82Z" transform="translate(-9.27 -19.91)" fill="#fff" opacity="0.4"/><path d="M113.29,388.76c3.56-1,7.36,11.45,9.69,20.84s3.49,15.76-.07,16.76-10.5-3.78-12.83-13.16S109.72,389.75,113.29,388.76Z" transform="translate(-9.27 -19.91)" fill="#fff" opacity="0.4"/><path d="M124,377.22c.32-6.26,5.51-14.69,8.82-14.7s3.5,8.43,3.18,14.69-.91,10.44-4.22,10.44S123.71,383.48,124,377.22Z" transform="translate(-9.27 -19.91)" fill="#fff" opacity="0.4"/><path d="M144.82,438.74c2.67-1.1,6.47,8.22,8.92,15.29s3.78,11.91,1.11,13-8.34-2-10.79-9.05S142.14,439.83,144.82,438.74Z" transform="translate(-9.27 -19.91)" fill="#fff" opacity="0.4"/><path d="M188.21,450.58c4.59,5.9,7.41,10.05,5.2,11.87s-8.6.62-13.19-5.28-7.6-16.46-5.39-18.28S183.62,444.68,188.21,450.58Z" transform="translate(-9.27 -19.91)" fill="#fff" opacity="0.4"/><path d="M149.51,408.71c-2.24-5.85-.92-15.66,2.11-17s6.61,6.28,8.86,12.14,3.4,9.91.37,11.26S151.75,414.56,149.51,408.71Z" transform="translate(-9.27 -19.91)" fill="#fff" opacity="0.4"/><path d="M267.26,284.43c-.53-5.78-4.75-13.48-7.19-13.42s-2.19,7.87-1.66,13.65,1.16,9.65,3.6,9.58S267.79,290.22,267.26,284.43Z" transform="translate(-9.27 -19.91)" fill="#fff" opacity="0.4"/><path d="M238.26,285.16c-3,0-4.12,8.66-4.55,15.06s-.4,10.67,2.58,10.63,7.76-4.37,8.19-10.77S241.23,285.13,238.26,285.16Z" transform="translate(-9.27 -19.91)" fill="#fff" opacity="0.4"/><path d="M288,289.5c-.26-5.1-4.49-12-7.19-12s-2.85,6.87-2.59,12S279,298,281.65,298,288.26,294.6,288,289.5Z" transform="translate(-9.27 -19.91)" fill="#fff" opacity="0.4"/><path d="M267.23,315.17c1.83-4.77.75-12.77-1.72-13.87s-5.39,5.13-7.22,9.9-2.77,8.08-.3,9.17S265.4,319.94,267.23,315.17Z" transform="translate(-9.27 -19.91)" fill="#fff" opacity="0.4"/><g opacity="0.4"><path d="M66.33,292.13c1.38-21.83,9.2-46.73,21.72-71.38C76.51,240.3,65.84,261,59.72,280.32a15.6,15.6,0,0,0-.52,7.46c.87,4.91,3,13.15,7.6,17.55A67.21,67.21,0,0,1,66.33,292.13Z" transform="translate(-9.27 -19.91)" fill="#fff"/></g></g></svg>