<svg xmlns="http://www.w3.org/2000/svg" xmlns:xlink="http://www.w3.org/1999/xlink" viewBox="0 0 557.2 475.11"><defs><clipPath id="a" transform="translate(-21.4 -62.45)"><rect width="600" height="600" fill="none"/></clipPath></defs><g clip-path="url(#a)"><path d="M309,491C186.3,491,21.4,510.53,21.4,517.52S186.3,530.3,309,530.3s261.35-5.7,261.35-12.78S431.89,491,309,491Z" transform="translate(-21.4 -62.45)" opacity="0.1" style="isolation:isolate"/><polygon points="299.28 362.25 303.16 439.87 306.24 439.78 308.55 357.23 299.28 362.25" fill="#ff9e2e"/><polygon points="304.89 439.81 306.24 439.78 308.55 357.23 304.89 439.81" fill="#fff" opacity="0.4" style="isolation:isolate"/><polygon points="304.96 400.35 301.94 400.75 299.28 362.25 302.38 424.23 302.38 424.23 302.41 425.03 302.41 425.03 302.74 431.38 302.74 431.38 302.76 431.91 303.16 439.87 304.64 439.82 304.05 431.38 304.59 431.13 304.04 431.21 303.57 424.49 304.92 423.88 303.55 424.07 303.2 418.97 305.11 418.1 303.15 418.36 302.79 413.16 305.66 411.86 302.73 412.25 302.4 407.44 305.19 406.18 302.33 406.55 302 401.7 304.96 400.35" fill="#d04000" opacity="0.4" style="isolation:isolate"/><path d="M358.21,500.19c-14.22-11.74-35.84-3.84-55.15,10.23,10.41-4.46,20.68-7.16,30.3-7.46a31.42,31.42,0,0,1,1.8,19.35,41.52,41.52,0,0,1-2.43,7.65c5-5.57,8.53-11.28,9.72-16.84a19.22,19.22,0,0,0,.33-6.1,37.67,37.67,0,0,1,8.51,20.92,51.42,51.42,0,0,1,0,9.61c3.78-8.17,5.75-15.91,5.11-22.72a22.75,22.75,0,0,0-2.19-8,41.37,41.37,0,0,1,9.09,5.68,48.32,48.32,0,0,1,6.67,6.82C367.31,511.22,363.48,504.53,358.21,500.19Z" transform="translate(-21.4 -62.45)" fill="#ff9e2e"/><path d="M363.39,511.75a16.19,16.19,0,0,0-9.22-4.87,41.14,41.14,0,0,1,9.09,5.68,47.78,47.78,0,0,1,6.67,6.82C367.85,516.83,365.15,513.52,363.39,511.75Z" transform="translate(-21.4 -62.45)" fill="#d04000" opacity="0.4" style="isolation:isolate"/><path d="M351.25,537.55c.32-3.32,1.4-7.51,1.39-10,0-5.68-2.52-14.77-9.84-20.46A37.67,37.67,0,0,1,351.31,528,50.26,50.26,0,0,1,351.25,537.55Z" transform="translate(-21.4 -62.45)" fill="#d04000" opacity="0.4" style="isolation:isolate"/><path d="M335.16,522.31c1.49-7,2.67-15.29.14-21.19-9.63.3-21.85,4.82-32.26,9.27,10.41-4.45,20.68-7.15,30.29-7.45A31.34,31.34,0,0,1,335.16,522.31Z" transform="translate(-21.4 -62.45)" fill="#d04000" opacity="0.4" style="isolation:isolate"/><path d="M358.21,500.19c-9.5-7.85-22.32-6.91-35.55-1.24,13.82-3.82,27.49-2.83,36,4.18,5.26,4.34,8.67,8.09,11.26,16.22C367.31,511.22,363.48,504.53,358.21,500.19Z" transform="translate(-21.4 -62.45)" fill="#fff" opacity="0.4" style="isolation:isolate"/><polygon points="111.55 367.09 78.1 437.23 80.85 438.62 122.1 367.09 111.55 367.09" fill="#ff9e2e"/><polygon points="79.65 438 80.85 438.62 122.1 367.09 79.65 438" fill="#fff" opacity="0.4" style="isolation:isolate"/><polygon points="98.45 403.31 95.6 402.24 111.55 367.09 84.84 423.11 84.84 423.11 84.5 423.82 84.5 423.82 81.76 429.57 81.76 429.57 81.53 430.05 78.1 437.23 79.42 437.9 82.92 430.2 83.51 430.23 82.99 430.04 85.77 423.91 87.24 424.02 85.94 423.52 88.05 418.87 90.14 419 88.3 418.31 90.46 413.56 93.61 413.78 90.84 412.73 92.84 408.33 95.88 408.55 93.2 407.53 95.21 403.1 98.45 403.31" fill="#d04000" opacity="0.4" style="isolation:isolate"/><path d="M83.24,497.44c16.6-8,35.73,4.77,51.13,23C125.28,513.62,116,508.58,106.7,506a31.5,31.5,0,0,0-6.37,18.38,42.4,42.4,0,0,0,.55,8c-3.58-6.6-5.68-13-5.44-18.66a19.28,19.28,0,0,1,1.14-6A37.6,37.6,0,0,0,83.35,526a50.91,50.91,0,0,0-2.27,9.36c-1.74-8.83-1.8-16.86.43-23.3a22.81,22.81,0,0,1,4-7.19,41.49,41.49,0,0,0-10.16,3.41,47.67,47.67,0,0,0-8.08,5C71.78,506,77.09,500.41,83.24,497.44Z" transform="translate(-21.4 -62.45)" fill="#ff9e2e"/><path d="M75.46,507.44a16.29,16.29,0,0,1,10.12-2.55,41.78,41.78,0,0,0-10.16,3.41,48.32,48.32,0,0,0-8.08,5C69.93,511.31,73.33,508.75,75.46,507.44Z" transform="translate(-21.4 -62.45)" fill="#d04000" opacity="0.4" style="isolation:isolate"/><path d="M81.13,535.38c.48-3.29.43-7.62,1-10.08,1.39-5.51,6-13.78,14.42-17.58A37.68,37.68,0,0,0,83.36,526,51.73,51.73,0,0,0,81.13,535.38Z" transform="translate(-21.4 -62.45)" fill="#d04000" opacity="0.4" style="isolation:isolate"/><path d="M100.35,524.39c.23-7.17,1-15.48,4.91-20.61,9.27,2.57,20.07,9.86,29.13,16.66C125.3,513.62,116,508.58,106.72,506A31.5,31.5,0,0,0,100.35,524.39Z" transform="translate(-21.4 -62.45)" fill="#d04000" opacity="0.4" style="isolation:isolate"/><path d="M67.34,513.28C71.78,506,76,503.17,82.11,500.2c9.92-4.79,23.42-2.52,35.94,4.47-11.5-8.65-23.72-12.6-34.82-7.23C77.09,500.41,71.78,506,67.34,513.28Z" transform="translate(-21.4 -62.45)" fill="#fff" opacity="0.4" style="isolation:isolate"/><path d="M119.51,431c-1.8,15.13,8.48,26.87,20.57,22.84.27-.09.53-.18.8-.29,10.06-3.84,21.14-12.5,27.37-19.73,10.9-12.66,13.53-28.61,4.46-40.78s-26.42-16-37.33-3.3C128.35,397.89,121.3,415.92,119.51,431Z" transform="translate(-21.4 -62.45)" fill="#ba9476"/><path d="M142.59,392.92A29,29,0,0,1,159,383.06a21.46,21.46,0,0,0-23.57,6.71c-7,8.12-14.08,26.14-15.91,41.26a25.57,25.57,0,0,0,2.28,14.49C124.58,425.94,133.63,403.31,142.59,392.92Z" transform="translate(-21.4 -62.45)" fill="#fff" opacity="0.3" style="isolation:isolate"/><path d="M177.87,405.24a56.12,56.12,0,0,1-9.89,19c-7.65,9.85-21.53,22-34.37,27.89-.34.16-.69.31-1,.45a22.7,22.7,0,0,1-2.75.91,13.94,13.94,0,0,0,10.22.36c.28-.09.54-.18.81-.29,10.06-3.84,21.14-12.5,27.36-19.73C175.78,425.1,179.37,414.79,177.87,405.24Z" transform="translate(-21.4 -62.45)" opacity="0.2" style="isolation:isolate"/><path d="M213.45,174.65c-5.5-10.88,18.85-42.8,42.79-54.89S304.48,116,310,126.89s-9.89,20.2-33.83,32.29S219,185.54,213.45,174.65Z" transform="translate(-21.4 -62.45)" fill="#7d593c"/><path d="M186.67,171.05c-9.34-7.84.48-46.76,17.73-67.3s42.88-22.42,52.22-14.57-1.14,22.44-18.4,43S196,178.89,186.67,171.05Z" transform="translate(-21.4 -62.45)" fill="#7d593c"/><path d="M205.36,112.5C220.88,94,240.29,86.52,253.08,87c-11.18-5.09-33.3-1.65-48.73,16.72-10.09,12-17.65,30.33-20.31,45C189.4,135.93,196.88,122.6,205.36,112.5Z" transform="translate(-21.4 -62.45)" fill="#fff" opacity="0.4" style="isolation:isolate"/><path d="M166.27,181.84c-9.67-3.5-13.21-37.19-5.52-58.46s27.44-30.22,37.11-26.72,5.68,18.1-2.07,39.38S176,185.34,166.27,181.84Z" transform="translate(-21.4 -62.45)" fill="#7d593c"/><path d="M167,125.78c5.24-14.51,14.37-24.45,23-29.54-10.12,1.64-23.28,10.72-29.23,27.19-6.45,17.84-5,44.42,1.35,54.54C159.79,163.54,161.18,141.84,167,125.78Z" transform="translate(-21.4 -62.45)" fill="#fff" opacity="0.4" style="isolation:isolate"/><path d="M201.07,169.15c-5.5-10.88,59-81.81,82.9-93.88s48.24-3.75,53.74,7.14-9.89,20.19-33.82,32.28S206.61,180,201.07,169.15Z" transform="translate(-21.4 -62.45)" fill="#7d593c"/><path d="M278.35,83.18c24.36-11.21,48.33-2,53.4,9.09a9.53,9.53,0,0,1,.9,5.12c5.58-5,7.73-9.8,5.1-15C332.25,71.49,308,63.15,284,75.24c-9.22,4.64-24.44,18-39.36,33.32C257.75,96.67,270.32,86.85,278.35,83.18Z" transform="translate(-21.4 -62.45)" fill="#fff" opacity="0.4" style="isolation:isolate"/><path d="M459.51,364.77c23.77-42.12-77.47-87.38-136.9-130-17.05-12.19-56.82-4-57.11-20.22-1.21-85.82-74.94-68.4-119.49-28.87s-62.63,127.69-31.6,176.16C267.23,600.32,384.43,497.83,459.51,364.77Z" transform="translate(-21.4 -62.45)" fill="#ba9476"/><path d="M127.5,206.91c-30.42,44.32-39.37,113.86-13.09,154.87Q128,383,141.16,400.6c-9.94-20.35-19.71-43.25-29.28-68.92C97.73,293.66,106.2,244.9,127.5,206.91Z" transform="translate(-21.4 -62.45)" fill="#fff" opacity="0.35" style="isolation:isolate"/><path d="M459.87,338.68A138.72,138.72,0,0,1,434.73,383a101.84,101.84,0,0,1-14,13.64,285.43,285.43,0,0,0-35.93,33.85c-.18.21-.38.42-.56.62a145.28,145.28,0,0,1-148.57,43.46A213,213,0,0,1,186.55,453c25.54,24.47,49.86,39.45,72.94,46.74h0c2,.63,4,1.2,5.91,1.71h0q2.94.78,5.85,1.37h0q2.92.6,5.81,1.05h0c23.86,3.67,46.27-.79,67.25-11.16h0q2.55-1.26,5.07-2.64h0q2.52-1.38,5-2.86h0c2.2-1.32,4.4-2.7,6.58-4.16h0c1.63-1.08,3.24-2.2,4.85-3.34h0c1.6-1.14,3.19-2.27,4.78-3.52h0q2.37-1.82,4.71-3.72l.07-.05c1.55-1.27,3.09-2.56,4.62-3.89l.09-.07c1.53-1.33,3.05-2.67,4.55-4.06l.1-.08,1.49-1.37h0c1-.93,2-1.88,3-2.83l.11-.1,1.46-1.41h0c1-1,1.95-1.92,2.92-2.9l.12-.12,1.41-1.45.08-.08c.95-1,1.91-2,2.85-3l.13-.14,1.38-1.48.11-.11c.93-1,1.86-2,2.79-3.06l.13-.13,1.35-1.53.12-.13c.92-1,1.83-2.08,2.74-3.13l.14-.16,1.32-1.53a.9.9,0,0,1,.15-.18c.89-1.06,1.79-2.12,2.68-3.2l.13-.16,1.3-1.56.17-.22c.44-.53.87-1.07,1.3-1.61h0c.45-.54.88-1.08,1.31-1.62l.15-.18,1.25-1.59a2.35,2.35,0,0,0,.19-.25c.43-.53.85-1.14,1.27-1.61l.17-.22a10.84,10.84,0,0,0,.79-1c.16-.23.33-.44.49-.66.42-.53.83-1.13,1.24-1.61l.2-.27,1.23-1.63c.13-.18.27-.36.42-.53a6.35,6.35,0,0,0,.54-.74c.15-.23.32-.44.48-.66l1.21-1.64.21-.3c.41-.54.81-1.14,1.21-1.64.13-.19.28-.41.44-.6s.38-.5.54-.76l.44-.62L429,413l.23-.33,1.14-1.65.34-.49c.32-.43.62-.89.93-1.33,0-.07.1-.14.15-.22.38-.54.77-1.13,1.13-1.66l.25-.36,1.14-1.65.31-.45.88-1.31.21-.32c.38-.55.76-1.13,1.13-1.68l.25-.37,1.14-1.66.61-.91.63-1,.16-.24,1.13-1.69.25-.4,1.07-1.66.25-.38,1-1.64.1-.16,1.08-1.7.25-.41,1-1.67.26-.42,1-1.66.13-.23c.34-.53.67-1.14,1-1.62l.27-.42.86-1.42h0c3.41-5.55,6.65-11.19,9.85-16.87C464.35,356.16,464,347.48,459.87,338.68Z" transform="translate(-21.4 -62.45)" opacity="0.15" style="isolation:isolate"/><path d="M235.85,156c6.81,9.87,10.64,24.48,10.33,44.93-.13,7.57,8.35,9.72,19.26,10.92C264.37,179.35,252.52,162.31,235.85,156Z" transform="translate(-21.4 -62.45)" fill="#fff" opacity="0.35" style="isolation:isolate"/><path d="M485,157.89c-8.29-8.78,2.84-43.1,19.92-59.21s41-13.64,49.29-4.85-2.2,20.53-19.32,36.65S493.26,166.68,485,157.89Z" transform="translate(-21.4 -62.45)" fill="#c1272d"/><path d="M554.19,93.83c3.41,3.56,3.64,7.63,1.62,12.27a10.27,10.27,0,0,0-2.75-4.55c-8.52-8.55-32.49-10.39-49.14,6.18-11.48,11.37-19.89,31.44-21.21,45.56-3-12.76,7.31-40.59,22.19-54.62C522,82.55,545.91,85,554.19,93.83Z" transform="translate(-21.4 -62.45)" fill="#fff" opacity="0.4" style="isolation:isolate"/><path d="M484.29,164.19C484,152.12,515.21,134,538.7,133.51s39.61,17.27,39.9,29.34-15.36,13.77-38.84,14.31S484.59,176.26,484.29,164.19Z" transform="translate(-21.4 -62.45)" fill="#c1272d"/><path d="M568.36,163.88c-.3-11.94-16.09-29.54-39.17-29.35a57.46,57.46,0,0,1,9.51-1.07c23.48-.57,39.61,17.27,39.9,29.34.24,9.84-10.12,12.81-26.67,13.88C562.43,175,568.54,171.49,568.36,163.88Z" transform="translate(-21.4 -62.45)" fill="#fff" opacity="0.4" style="isolation:isolate"/><path d="M495.38,177.76c4.75-7.67,31.65-6.23,46.59,3s17.71,27,13,34.63-15.25,2.34-30.15-6.89S490.58,185.46,495.38,177.76Z" transform="translate(-21.4 -62.45)" fill="#c1272d"/><path d="M546.61,212.05c4.25-6.82,4.19-20.11-3-30,13.35,9.5,15.74,26.13,11.19,33.45-3,4.89-8.41,4.49-15.79,1.14A8.78,8.78,0,0,0,546.61,212.05Z" transform="translate(-21.4 -62.45)" fill="#fff" opacity="0.4" style="isolation:isolate"/><path d="M444.74,128.6c-27.36-30.94-73.7-32.36-98-8.54-24.49,23.94-19.9,62.41,5.19,90.91,25.26,28.3,62.92,37.5,89.59,16S472.19,159.45,444.74,128.6Z" transform="translate(-21.4 -62.45)" fill="#d6c6b6"/><path d="M459.75,372.66c14.86-24.87,26.13-57.6,35-88a32.93,32.93,0,0,0,20.7-7.38c16.55-13.26,19.11-42,2-61.25a46,46,0,0,0-10.62-8.88v-.55c-.25-19.21-4-37.3-12.63-54a66,66,0,0,0-8.64-12.63l-.07-.09c-6.08-7.19-12.09-10.13-16.68-12.86-10.49-5.59-22.72-8.54-36-9.33-27.45-20-65-18.35-86.11,2.27A53.12,53.12,0,0,0,334.23,139c-25.28,10.52-51,21.41-71.5,35.23-6.34,3.77-17,18-10.23,29.39,3.63,6.11,8.4,9.62,13,11-3.51,7.24-5.32,17.83,1.46,24.67s14.2,8.48,19.85,7c-4.67,4.36-7.72,12.09-4.35,21.39s15.91,14.17,24.74,14.77c-2.39,7-2.27,16.62,4.31,22.44A23.87,23.87,0,0,0,332,310.57a29,29,0,0,0,5.5,17.05c4.26,5.95,11.48,7.37,18.09,6.72a29.11,29.11,0,0,0,8.83,16c6.58,6.13,16.21,4.68,23.25,1.43A29.23,29.23,0,0,0,396.33,367c6.05,5.69,14.66,4.87,21.49,2.19.85,4.67,3.76,9.7,9.27,13.94,7.67,5.9,20.46-.51,26.82-4.4A17.53,17.53,0,0,0,459.75,372.66Z" transform="translate(-21.4 -62.45)" fill="#ba9476"/><path d="M506.88,207.19v-.55c-.2-16.19-2.88-31.59-8.9-46,4,13.27,4.82,27.9,3.22,43.61a47.59,47.59,0,0,1,5.81,3Z" transform="translate(-21.4 -62.45)" fill="#998675" opacity="0.2" style="isolation:isolate"/><path d="M432.89,117.77a76.42,76.42,0,0,1,7.69,6.46c10.81-.14,20.56,1.22,28.94,4.38,2.08.91,4.43,1.83,6.9,3.07-2.74-1.89-5.3-3.26-7.52-4.55C458.39,121.51,446.17,118.56,432.89,117.77Z" transform="translate(-21.4 -62.45)" fill="#998675" opacity="0.2" style="isolation:isolate"/><path d="M346.73,120.06A53.12,53.12,0,0,0,334.23,139c-16.44,6.82-33.08,13.85-48.34,21.71h0l-3,1.56-.15.08-2.68,1.45-.4.21q-2.79,1.53-5.49,3.09l-.55.32-2.27,1.33-.45.26-2.55,1.57-.5.32c-.69.42-1.36.85-2,1.28l-.68.44-2.43,1.6a17.32,17.32,0,0,0-1.81,1.27l-.12.1c-.3.24-.59.5-.9.78a32.93,32.93,0,0,0-2.72,2.82l-.33.4-.4.51c-.28.34-.54.71-.81,1.07l-.4.56a26.83,26.83,0,0,0-4.77,11.92,17.17,17.17,0,0,0-.1,2.27V197a16,16,0,0,0,.35,2.27,13.73,13.73,0,0,0,.49,1.66,1.84,1.84,0,0,0,.2.55,15.94,15.94,0,0,0,1.07,2.15h0c.2.34.41.67.61,1l.17.26c.19.28.37.55.55.8l.1.16.65.86.19.24.51.64.2.22c.21.25.43.5.66.74l.2.22.5.52.25.24.67.63.23.19.49.43.3.24c.16.14.33.26.5.39l.39.28.5.36.34.22.43.27a19.07,19.07,0,0,0,4.55,2.07c-3.51,7.24-5.32,17.83,1.46,24.67,5.5,5.54,11.58,7.7,16.72,7.48a52,52,0,0,1-12.15-8c-7.13-6.46-3.86-17.18-.7-24.62l-.5-.13a13.82,13.82,0,0,1-9.67-17,13.6,13.6,0,0,1,.79-2.16c2.62-5.69,6.82-10.45,10.07-12.5,20.87-15.25,47.1-27.8,72.91-40a57.56,57.56,0,0,1,12.64-20c9.8-10.22,23.2-16.53,37.57-18.56C376.58,102.54,358.9,108.13,346.73,120.06Z" transform="translate(-21.4 -62.45)" fill="#fff" opacity="0.35" style="isolation:isolate"/><path d="M529,242.36A41.47,41.47,0,0,1,520.38,254a38.44,38.44,0,0,1-21.59,10.4C490.2,297.32,479.2,333,464.22,361a21.9,21.9,0,0,1-6.06,7.06c-6.56,4.89-19.88,13.26-28.09,8.08-5.91-3.72-9.09-8.62-10.12-13.39-7.11,3.69-16.14,5.61-22.65.5a26.81,26.81,0,0,1-9.49-14.78,35.87,35.87,0,0,1-9.09,3.85,8.21,8.21,0,0,1-7.51-1.79h0c-5.47-4.91-9.28-13.64-10.08-19-7.48.34-14.78,1.13-19.32-5a26.91,26.91,0,0,1-5.51-17.28,29.31,29.31,0,0,1-22.73-6.69c-7.12-6.13-6.91-15.7-3.94-22.63-9.91-1-23.78-6.28-27.27-15.91a22,22,0,0,1-1.14-4.94,22.17,22.17,0,0,0,1.41,8.49c3.41,9.45,15.91,14.17,24.74,14.77-2.39,7.05-2.28,16.63,4.3,22.44a23.84,23.84,0,0,0,20.46,5.75,29,29,0,0,0,5.5,17.05c4.26,5.95,11.47,7.37,18.09,6.73a29.12,29.12,0,0,0,8.83,16,15.35,15.35,0,0,0,2.72,2l.18.1.52.29.15.07a13.05,13.05,0,0,0,1.72.73l.22.08.51.17.22.06a15.79,15.79,0,0,0,1.68.4l.35.07.43.05h3.57a16.76,16.76,0,0,0,1.72-.12h-.2a30.51,30.51,0,0,0,9.21-2.65,29.19,29.19,0,0,0,8.67,15.15c6,5.68,14.66,4.86,21.49,2.18.85,4.67,3.76,9.71,9.27,13.94,7.67,5.9,20.45-.51,26.81-4.39a17.49,17.49,0,0,0,5.91-6c14.87-24.87,26.14-57.6,35.05-88a32.9,32.9,0,0,0,20.69-7.37C525.36,269.41,530.26,256,529,242.36Z" transform="translate(-21.4 -62.45)" opacity="0.15" style="isolation:isolate"/><path d="M446.14,135.57a85,85,0,0,1,15.08,24.07,73.92,73.92,0,0,0-16.48-31c-22.73-25.68-58.49-31-83.9-18.48C388.66,101.8,423.22,109.66,446.14,135.57Z" transform="translate(-21.4 -62.45)" fill="#fff" opacity="0.3" style="isolation:isolate"/><path d="M518.36,220.41a53.3,53.3,0,0,1,9.41,15,46.14,46.14,0,0,0-10.23-19.32c-14.14-16-36.44-19.31-52.27-11.51C482.56,199.35,504.09,204.27,518.36,220.41Z" transform="translate(-21.4 -62.45)" fill="#fff" opacity="0.3" style="isolation:isolate"/><path d="M525.52,237.66c-20.34-23-54.78-24-72.86-6.34s-14.77,46.39,3.86,67.55,46.82,27.84,66.6,11.84S545.93,260.59,525.52,237.66Z" transform="translate(-21.4 -62.45)" fill="#ffe7d4"/><path d="M529.72,243c10,21.36,5,46.74-11.19,59.72-19.83,15.91-47.83,9.15-66.6-11.89a70.7,70.7,0,0,1-5.68-7.42,68.12,68.12,0,0,0,10.31,15.44c18.78,21,46.77,27.84,66.6,11.88C541.38,296.12,545.38,265.65,529.72,243Z" transform="translate(-21.4 -62.45)" fill="#e75400" opacity="0.2" style="isolation:isolate"/><path d="M433.43,129.45c-27.36-30.94-73.7-32.37-98-8.51-24.48,23.92-19.89,62.41,5.2,90.91s62.91,37.49,89.58,16S460.89,160.3,433.43,129.45Z" transform="translate(-21.4 -62.45)" fill="#ffe7d4"/><path d="M356.31,221.17c-25.08-28.46-28.69-67.81-2.67-93.09,13.57-13.24,33.22-19.49,52.78-18-24.93-10.37-53.6-6.25-71,10.81-24.48,23.92-19.89,62.41,5.2,90.9a87.84,87.84,0,0,0,29.48,21.94A88.11,88.11,0,0,1,356.31,221.17Z" transform="translate(-21.4 -62.45)" fill="#e75400" opacity="0.2" style="isolation:isolate"/><path d="M411.83,202.91c-.27.3-.56.57-.85.84A11.88,11.88,0,1,1,412,187a12.42,12.42,0,0,1,1.59,2.28,20.81,20.81,0,1,0-1.74,13.65Z" transform="translate(-21.4 -62.45)" fill="#51364d"/><path d="M368.84,195.12a5.68,5.68,0,1,0,.55-8l-.07.06A5.69,5.69,0,0,0,368.84,195.12Z" transform="translate(-21.4 -62.45)" fill="#fff"/><path d="M362.59,190.73a1.78,1.78,0,1,0,.17-2.5h0a1.77,1.77,0,0,0-.15,2.49Z" transform="translate(-21.4 -62.45)" fill="#fff"/><path d="M463.14,259.37c.14.1.29.2.43.32a5.35,5.35,0,1,1-7.55.69,5.05,5.05,0,0,1,.92-.87,9.3,9.3,0,0,0-3.94,2.8,9.43,9.43,0,1,0,13.28-1.22A9.18,9.18,0,0,0,463.14,259.37Z" transform="translate(-21.4 -62.45)" fill="#51364d"/><path d="M449.39,270.68a2.45,2.45,0,1,0,.26-3.46l-.06.06A2.43,2.43,0,0,0,449.39,270.68Z" transform="translate(-21.4 -62.45)" fill="#fff"/><path d="M446.68,268.79a.76.76,0,0,0,1.14-1,.77.77,0,0,0-1.08-.08h0A.77.77,0,0,0,446.68,268.79Z" transform="translate(-21.4 -62.45)" fill="#fff"/><path d="M378.12,293c-5.9-12.5-33.08-1-52.45,9.19s-31.63,18.47-25.73,31,27.73,24.53,47.1,14.3S384,305.46,378.12,293Z" transform="translate(-21.4 -62.45)" fill="#c1272d"/><path d="M308,339.79c-5.94-13.48,7.09-24.9,27.59-39.78,3.48-2.51,7.18-5.1,11-7.6a203.92,203.92,0,0,0-20.89,9.71c-19.31,10.22-31.63,18.46-25.75,31,2.12,4.49,6.29,8.91,11.65,12.26A23.21,23.21,0,0,1,308,339.79Z" transform="translate(-21.4 -62.45)" fill="#fff" opacity="0.4" style="isolation:isolate"/><path d="M432.51,376.34c4.43-18-5.54-46.09-16.65-48.86s-19.13,21-23.57,38.91-6.15,30.27,5,33S428.08,394.3,432.51,376.34Z" transform="translate(-21.4 -62.45)" fill="#c1272d"/><path d="M399.41,366.31c2.86-9.83,6-24.45,9.66-37.17-7.63,5.68-13.31,23.21-16.78,37.27-4.07,16.52-5.86,28.25,2.52,32.17C392.51,392.08,395.19,380.75,399.41,366.31Z" transform="translate(-21.4 -62.45)" fill="#fff" opacity="0.4" style="isolation:isolate"/><path d="M379.05,260.33c-.29,0-36.6,45.22-2.48,73.21,14.69,12,95.64,3.84,95.64,3.84S418.92,267.88,379.05,260.33Z" transform="translate(-21.4 -62.45)" fill="#ff9e2e"/><path d="M380.54,325.24c-19.2-15.74-16.11-36.94-9.67-52.46-8.37,15.42-17.21,42,5.68,60.76,7.81,6.4,34.38,7.07,57.55,6.31C409.66,335.52,386.73,330.32,380.54,325.24Z" transform="translate(-21.4 -62.45)" opacity="0.1" style="isolation:isolate"/><path d="M442.11,339.52c9.46-.45,17.8-1.08,23.29-1.53-11.66-16.51-42.91-58-72.13-72.73a64.29,64.29,0,0,0-10.12-3.9C399,271.37,420.18,302.15,442.11,339.52Z" transform="translate(-21.4 -62.45)" opacity="0.1" style="isolation:isolate"/><path d="M500.26,303.79c.74-19.32-53.34.91-59.21-27s-62-16.3-62-16.46c29.35,19.09,66.42,74.76,85.79,102.69C465.12,363.05,500,318.66,500.26,303.79Z" transform="translate(-21.4 -62.45)" fill="#ff9e2e"/><path d="M500.26,303.79c.74-19.32-53.34.91-59.21-27-3-14.38-19.32-18.28-34.48-18.68,14.08,2.63,28.53,8.93,31.17,21.45,5.86,27.91,47.89,16.35,47.16,35.67-.28,14.77-19.78,47.82-20.06,47.79C465.12,363.05,500,318.66,500.26,303.79Z" transform="translate(-21.4 -62.45)" fill="#fff" opacity="0.4" style="isolation:isolate"/><path d="M500.26,303.79c.74-19.32-53.34.91-59.21-27-2.72-13-16.27-17.4-30-18.46,13.49,2.28,26.27,7.7,28.86,20,5.88,27.92,54.77,8,58.16,26.14,1.13,5.95-4.55,17.26-11.5,28.41C493.84,321.63,500.15,310.05,500.26,303.79Z" transform="translate(-21.4 -62.45)" fill="#fff" opacity="0.2" style="isolation:isolate"/><path d="M424.43,269.33s-4.15.33-1.92,2.8c1,1.05,8,3.94,8,3.94S427.63,271.21,424.43,269.33Z" transform="translate(-21.4 -62.45)" opacity="0.2" style="isolation:isolate"/><path d="M194.26,330.52c-11.37-2.1-45.46-24.92-52.51-38.37s-.69-26.39,6.63-29,12.83,6.08,19.87,19.53S201.81,331.91,194.26,330.52Z" transform="translate(-21.4 -62.45)" fill="#7d593c"/><path d="M149.61,293.48c-6.41-11.72-6.65-22.25-4-28.82-6,4.47-10,15.79-3.86,27.49,4.11,7.89,17.52,19,30.2,27.27C162.12,310.09,153.48,300.55,149.61,293.48Z" transform="translate(-21.4 -62.45)" fill="#fff" opacity="0.4" style="isolation:isolate"/><path d="M198.92,286.09c-9.42.08-20.79-23.28-19.17-40.71s16.9-29.18,26.32-29.26,9.41,11.57,7.8,29S208.35,286,198.92,286.09Z" transform="translate(-21.4 -62.45)" fill="#7d593c"/><path d="M182.2,287.06c-8.95,3.19-30.79-13.73-37.5-29.68s2.39-31.43,11.36-34.63,14.42,7.13,21.11,23.08S191.15,283.88,182.2,287.06Z" transform="translate(-21.4 -62.45)" fill="#7d593c"/><path d="M151.51,266.51c-9.21-20.45-.56-38.56,9.24-41.57a8.87,8.87,0,0,1,4.43-.25,8.56,8.56,0,0,0-9.09-1.94c-9,3.2-18,18.66-11.37,34.63a51,51,0,0,0,9.21,13.88C153,269.67,152.21,268.08,151.51,266.51Z" transform="translate(-21.4 -62.45)" fill="#fff" opacity="0.4" style="isolation:isolate"/><path d="M190.32,291.72c-9.43.07-30.51-57.89-28.89-75.32s16.91-29.18,26.33-29.25,9.41,11.56,7.79,29S199.75,291.64,190.32,291.72Z" transform="translate(-21.4 -62.45)" fill="#999"/><path d="M224.54,330.1c-16.65,13.9-54.27-9.17-62.23-25.6s6.82-33.7,20.14-37.84c6.55-2,31.54-26.92,31.34-21-.53,15.55-5.51,35.11-1.47,43.47C220.27,305.55,235.16,321.19,224.54,330.1Z" transform="translate(-21.4 -62.45)" fill="#7d593c"/><path d="M210.17,253a108.47,108.47,0,0,0,.63,28.4c-.38-9.59,2.48-23.39,3-35.11,0-.4.08-.79.11-1.13,1.61-17.42,1.64-29.06-7.79-29-8.22.07-20.91,9-25.08,22.87,3.93-8.69,10.31-16.16,18.18-16.95C213.38,220.62,211.3,244.28,210.17,253Z" transform="translate(-21.4 -62.45)" fill="#fff" opacity="0.4" style="isolation:isolate"/><path d="M190.32,291.72c-9.43.07-30.51-57.89-28.89-75.32s16.91-29.18,26.33-29.25,9.41,11.56,7.79,29S199.75,291.64,190.32,291.72Z" transform="translate(-21.4 -62.45)" fill="#7d593c"/><path d="M187.76,187.15c-9.42.07-24.73,11.83-26.33,29.25,0,.43-.07.89-.08,1.35,3.85-12,13.93-20.45,21.25-21.31,9.36-1.14,10.67,10.42,11.05,27.91a122.42,122.42,0,0,0,1.82,15c-.22-9.57-.38-18.18.08-23.23C197.17,198.71,197.18,187.07,187.76,187.15Z" transform="translate(-21.4 -62.45)" fill="#fff" opacity="0.4" style="isolation:isolate"/><path d="M208.1,320.55c-8.41,4.05-45.31-34.35-49.29-49.27s6.07-31,14.49-35,12,5.47,16,20.38S216.52,316.5,208.1,320.55Z" transform="translate(-21.4 -62.45)" fill="#7d593c"/><path d="M173.3,236.25c-8.42,4.05-18.46,20.12-14.49,35,.1.36.22.75.36,1.13-.29-11.43,6.12-22.57,12.41-26.39,7.95-4.9,12.78,4,18.56,18.11a91.67,91.67,0,0,0,6.31,11.5c-3.18-7.72-6-14.65-7.16-19C185.31,241.72,181.76,232.2,173.3,236.25Z" transform="translate(-21.4 -62.45)" fill="#fff" opacity="0.4" style="isolation:isolate"/><path d="M343.72,436.5c7.5-7.86,13.48-22.85,10.6-25.91s-13.48,6.93-21,14.89S321.13,438.94,324,442,336.22,444.36,343.72,436.5Z" transform="translate(-21.4 -62.45)" fill="#fff" opacity="0.4" style="isolation:isolate"/><path d="M328.14,408.62C326.32,404.87,313,411,303.3,416s-15.91,8.87-14.09,12.62,11,6,20.7,1S330,412.37,328.14,408.62Z" transform="translate(-21.4 -62.45)" fill="#fff" opacity="0.4" style="isolation:isolate"/><path d="M329.83,390.92c5.05-4.95,8.27-15.65,5.8-18.45s-9.73,3.41-14.77,8.31-8.14,8.58-5.69,11.37S324.79,395.93,329.83,390.92Z" transform="translate(-21.4 -62.45)" fill="#fff" opacity="0.4" style="isolation:isolate"/><path d="M262.37,419.43c-1.08-3.07-11.79.71-19.59,3.92S229.89,429,231,432.15s8,5.56,15.72,2.34S263.44,422.51,262.37,419.43Z" transform="translate(-21.4 -62.45)" fill="#fff" opacity="0.4" style="isolation:isolate"/><path d="M219.89,391.68c-8.42.55-14,1.27-13.91,4.55s5.91,7.72,14.32,7.18,19.59-5.92,19.48-9.15S228.35,391.14,219.89,391.68Z" transform="translate(-21.4 -62.45)" fill="#fff" opacity="0.4" style="isolation:isolate"/><path d="M284.19,393c6.61-2.49,13.9-10.95,12.78-14.52s-10.23-.88-16.87,1.61-10.93,4.55-9.79,8.11S277.57,395.49,284.19,393Z" transform="translate(-21.4 -62.45)" fill="#fff" opacity="0.4" style="isolation:isolate"/><path d="M300.91,200.6c5.29-3.89,14.95-6.09,16.72-4s-5,7.73-10.23,11.61-9,6.25-10.77,4.14S295.64,204.47,300.91,200.6Z" transform="translate(-21.4 -62.45)" fill="#fff" opacity="0.4" style="isolation:isolate"/><path d="M322,225.62c2.2,2.54-4.22,9.95-9.29,15.11s-8.72,8.32-10.91,5.77-2.12-9.81,2.95-15S319.82,223.07,322,225.62Z" transform="translate(-21.4 -62.45)" fill="#fff" opacity="0.4" style="isolation:isolate"/><path d="M281.12,186.85c4.54-3.61,13.46-5.17,15.5-2.9s-3.67,7.54-8.17,11.15-7.73,5.75-9.76,3.41S276.62,190.49,281.12,186.85Z" transform="translate(-21.4 -62.45)" fill="#fff" opacity="0.4" style="isolation:isolate"/><path d="M275,223.63c2.65-5.11,10.23-10.23,13-8.93s-.29,8.38-2.94,13.5-4.75,8.38-7.52,7.12S272.35,228.74,275,223.63Z" transform="translate(-21.4 -62.45)" fill="#fff" opacity="0.4" style="isolation:isolate"/><path d="M560.25,500.58a86.74,86.74,0,0,0-5.41-23.29,7.71,7.71,0,0,0-10-4.3,8,8,0,0,0-2,1.14c-3.24,2.41-2.21,7.19-1.21,9.42,3.52,7.83,8.24,13,8.77,18,.35,3.32,0,5.89-1.05,7.24-1.25,1.66-3.78,1.55-5.18,1.35-5.49-.81-9.92-3.84-14.2-6.82a46.72,46.72,0,0,0-8-4.79,15,15,0,0,0-10.22-.9c-4.64,1.29-7,4.91-8.87,7.81-2.41,3.71-3.5,6.19-7.59,6.25a18.2,18.2,0,0,1-7.85-2c-2.73-1.33-9.18-7.21-10.85-5.42s6.82,10.77,10.28,13.11a17.13,17.13,0,0,0,8.27,2.54,17.76,17.76,0,0,0,5.69-1,15.06,15.06,0,0,0,4.41-2.5,25.13,25.13,0,0,0,5.06-6.14c1.53-2.36,2.46-3.71,3.8-4.08a6.21,6.21,0,0,1,4.36.51,41.07,41.07,0,0,1,6.51,3.95,76.66,76.66,0,0,0,7.76,4.83,32.23,32.23,0,0,0,10.17,3.41,18.54,18.54,0,0,0,3.41.2,15.26,15.26,0,0,0,3.5-.52,12.46,12.46,0,0,0,6.69-4.45A18.87,18.87,0,0,0,560.25,500.58Z" transform="translate(-21.4 -62.45)" fill="#ec9fb3"/><path d="M549.39,508.76c-1.25,1.66-3.78,1.55-5.18,1.35-5.49-.81-9.92-3.84-14.2-6.82a46.72,46.72,0,0,0-8-4.79,15,15,0,0,0-10.22-.9c-4.64,1.29-7,4.91-8.87,7.81-2.41,3.71-3.5,6.19-7.59,6.25a18.2,18.2,0,0,1-7.85-2c-1.49-.71-4.08-2.79-6.4-4.25a57.71,57.71,0,0,0,4.13,4.43c3.49,3.16,10.12,3.41,10.45,3.41,4.08-.05,4.88-3.26,7.3-6.72,1.88-2.71,4.24-6.07,8.88-7.29A16.11,16.11,0,0,1,522,500a48.35,48.35,0,0,1,8,4.44c4.28,2.72,8.7,5.52,14.19,6.26,1.39.18,3.93.28,5.19-1.27.91-1.14,1.31-3.16,1.14-5.78A8.39,8.39,0,0,1,549.39,508.76Z" transform="translate(-21.4 -62.45)" fill="#fff" opacity="0.6" style="isolation:isolate"/><path d="M560.36,502.59h0v-.49h0v-.25h0v-.23h0v-.73a1.13,1.13,0,0,1,0-.26c0-.27-.07-.55-.09-.84h0a1.66,1.66,0,0,0-.06-.54h0A85,85,0,0,0,555,477.38a7.69,7.69,0,0,0-10-4.3,8,8,0,0,0-2,1.14c-2.27,1.66-2.43,4.45-2,6.75a5.06,5.06,0,0,1,2.14-3.59c4.73-3.28,10.37-1,11.93,2.91a73,73,0,0,1,5,18.59,19.35,19.35,0,0,1-.23,6.66c-1.13,5.45-4.54,10-9.51,11.76-8.63,2.22-18.37-1.39-25.23-6.69-5.24-3.69-10.94-10.85-15.34-2.27-5.63,9.55-14.1,12.74-24.07,7.29a25.92,25.92,0,0,1-3.2-2.1,35.16,35.16,0,0,0,4.55,4,17.08,17.08,0,0,0,8.27,2.53,17.64,17.64,0,0,0,5.68-1,15.28,15.28,0,0,0,4.41-2.5,25,25,0,0,0,5.07-6.15c1.52-2.35,2.46-3.71,3.8-4.08a6.28,6.28,0,0,1,4.36.51,41.07,41.07,0,0,1,6.51,3.95,74.92,74.92,0,0,0,7.76,4.83A32,32,0,0,0,543,519.05a19.47,19.47,0,0,0,3.41.21,15.93,15.93,0,0,0,3.5-.53,12.39,12.39,0,0,0,6.68-4.45A18.78,18.78,0,0,0,560.36,502.59Z" transform="translate(-21.4 -62.45)" fill="#c6868d" opacity="0.4" style="isolation:isolate"/><path d="M550.37,501a6.76,6.76,0,0,0-.11-.89c-.21-7.11-13.84-17.12-8.06-25.37-2.4,2.54-1.45,6.76-.53,8.81C545.07,491.11,549.58,496.2,550.37,501Z" transform="translate(-21.4 -62.45)" fill="#fff" opacity="0.6" style="isolation:isolate"/><path d="M545,478.21a5.88,5.88,0,0,0-6,4.33c-.6,2.63,1.62,5.23,5,5.51s6.07-2,6-4.75A5.33,5.33,0,0,0,545,478.21Z" transform="translate(-21.4 -62.45)" fill="#ffe7d4"/><path d="M544.8,487.08c-3.41-.28-5.61-2.89-5-5.51a5.52,5.52,0,0,1,.68-1.62,5.29,5.29,0,0,0-1.46,2.59c-.6,2.63,1.62,5.23,5,5.51a5.58,5.58,0,0,0,5.36-2.45A5.9,5.9,0,0,1,544.8,487.08Z" transform="translate(-21.4 -62.45)" fill="#e75400" opacity="0.2" style="isolation:isolate"/><path d="M555.46,476.82a4.54,4.54,0,0,0-3.93,4.63,4.43,4.43,0,0,0,4.83,4l.27,0a4.07,4.07,0,0,0,4-4.16,3.46,3.46,0,0,0-.09-.78A4.78,4.78,0,0,0,555.46,476.82Z" transform="translate(-21.4 -62.45)" fill="#ffe7d4"/><path d="M560.54,480.5a5,5,0,0,0-2.12-3,5,5,0,0,1,1.26,2.27,4.11,4.11,0,0,1-3.17,4.86,4.67,4.67,0,0,1-.74.09,5.17,5.17,0,0,1-3.16-.73,4.86,4.86,0,0,0,4,1.43,4.07,4.07,0,0,0,4-4.16A3.46,3.46,0,0,0,560.54,480.5Z" transform="translate(-21.4 -62.45)" fill="#e75400" opacity="0.2" style="isolation:isolate"/><path d="M543.2,480.4a1.68,1.68,0,1,0,1.68,1.68,1.68,1.68,0,0,0-1.68-1.68Z" transform="translate(-21.4 -62.45)" fill="#51364d"/><path d="M542.2,484a.22.22,0,0,0-.17.26.22.22,0,0,0,.26.16.21.21,0,0,0,.17-.25v0a.21.21,0,0,0-.25-.15Z" transform="translate(-21.4 -62.45)" fill="#fff"/><path d="M542.6,483.12a.4.4,0,0,0-.28.48.39.39,0,0,0,.48.28h0a.42.42,0,0,0,.31-.45.4.4,0,0,0-.46-.32Z" transform="translate(-21.4 -62.45)" fill="#fff"/><path d="M553.84,479.09a.72.72,0,1,0,.71.71.71.71,0,0,0-.71-.71Z" transform="translate(-21.4 -62.45)" fill="#51364d"/><path d="M530.17,503c-1.73-1.13-4.88-3-5.68-3.51a.26.26,0,0,0-.36.09h0a37.18,37.18,0,0,0-3.76,8.15h0a.3.3,0,0,0,.09.32c.62.41,2.95,2,4.3,2.92a61.72,61.72,0,0,0,8,4.9c1.47.72,4.23,1.75,5.16,2.1a.27.27,0,0,0,.35-.16.13.13,0,0,0,0-.06h0c.32-2.18.75-4.46,1.29-6.69.16-.68.34-1.36.52-2h0a.28.28,0,0,0-.11-.32C538.94,508.09,533,504.83,530.17,503Z" transform="translate(-21.4 -62.45)" fill="#c6868d"/><path d="M537.43,516.54h0a.35.35,0,0,1-.43.18c-1-.33-3.9-1.29-5.42-2a52.64,52.64,0,0,1-6.14-3.32,57.87,57.87,0,0,0,7.26,4.42c1.47.73,4.23,1.75,5.16,2.1a.27.27,0,0,0,.35-.16.11.11,0,0,0,0,0h0c.28-1.91.65-3.9,1.14-5.86A33.6,33.6,0,0,0,537.43,516.54Z" transform="translate(-21.4 -62.45)" fill="#a87283" opacity="0.4" style="isolation:isolate"/><path d="M524.16,500.47a.34.34,0,0,1,.43-.09c1,.51,4.73,2.36,6.82,3.51.63.36,1.41.75,2.27,1.14-1.28-.75-2.52-1.5-3.41-2.09-1.73-1.14-4.87-3-5.68-3.51a.26.26,0,0,0-.36.08h0a33.57,33.57,0,0,0-2.86,5.68A31.29,31.29,0,0,1,524.16,500.47Z" transform="translate(-21.4 -62.45)" fill="#fff" opacity="0.6" style="isolation:isolate"/><path d="M559.29,509l.09-.25h-1.84Zm.31-13.56-3,1.32,3.07-.84c0-.16,0-.32-.08-.48Zm-4.08,19.86.29-.31-2.92-2.36Zm4.83-13H557l3.33.53c0-.2,0-.37,0-.54Zm-9.73,16.11.23-.08-1-1.88c.26.64.51,1.3.77,1.94Zm-55.95,1.56h.45c-.17-1.21-.33-2.42-.5-3.63,0,1.26,0,2.4.05,3.62Zm47.84-1c.07-1.19.15-2.39.21-3.58-.2,1.14-.42,2.34-.63,3.5Zm-26.14-12.76c.15-.93.3-1.88.43-2.81-.25.92-.51,1.84-.76,2.76Zm-14.7,12.5.35-.16-1.82-2.76Zm5-3.49.35-.38c-1.37-.77-2.74-1.54-4.09-2.33Zm7.34-8.88h.09l.25-.05-1.31-2.67Zm-27.58,10.83c.29-.59.57-1.19.84-1.78-.34.54-.69,1.14-1,1.64Zm33-9.91c.29-1.13.6-2.27.89-3.46-.42,1.13-.85,2.19-1.27,3.28Zm-8.5,2.2c.08-.14.17-.26.25-.38l-3.6-2,3.38,2.41Z" transform="translate(-21.4 -62.45)" fill="#c6868d" opacity="0.4" style="isolation:isolate"/><path d="M547,510.11l1.27,4.49-.62-4.66Zm3.41-4.16c0,.26-.09.52-.15.77l5.39,1.14Zm-34.73-8.83.63,3.92-.06-3.9Zm36.93,5.08-2.12-.1a1.6,1.6,0,0,0,0,.31Zm-3.41-4.76c.13.27.24.55.36.81l5.53-.53ZM542,513.49l.89-3.62-.51-.12Zm-20.45-15.1-1.66,3.89,2.22-3.66-.2-.08Zm-37.16,13.1,1.68-2.63-.37-.25Zm7,3.22.44-3.41-.5-.12Zm7.6-4.11,1.58,2.76-1.2-3.07Zm4.55-6.05,3.05,2.13-2.76-2.58a2.32,2.32,0,0,0-.34.45Zm6.42-6.22,1.85,3.3-1.35-3.52Z" transform="translate(-21.4 -62.45)" fill="#fff" opacity="0.6" style="isolation:isolate"/><path d="M553.19,480.52a.08.08,0,0,0-.06.1h0a.09.09,0,0,0,.11.07.09.09,0,0,0,0-.1S553.22,480.53,553.19,480.52Z" transform="translate(-21.4 -62.45)" fill="#fff"/><path d="M553.34,480.19a.18.18,0,0,0-.12.19.19.19,0,0,0,.2.12.17.17,0,0,0,.11-.2A.16.16,0,0,0,553.34,480.19Z" transform="translate(-21.4 -62.45)" fill="#fff"/><path d="M536,480.08c-3.07,3-2.62,6.75,1.13,8.49a8.91,8.91,0,0,0,2,.64C534.84,486.92,533.62,483.11,536,480.08Z" transform="translate(-21.4 -62.45)" opacity="0.1" style="isolation:isolate"/><path d="M533.34,483.93c-1.52,1.51-1.31,3.41.56,4.25a4,4,0,0,0,1,.33C532.76,487.35,532.16,485.45,533.34,483.93Z" transform="translate(-21.4 -62.45)" opacity="0.1" style="isolation:isolate"/><path d="M479.09,501.35a3.81,3.81,0,0,0-5.25,2.33,4.43,4.43,0,0,0-.22,1.13C474.66,502.19,476.94,500.78,479.09,501.35Z" transform="translate(-21.4 -62.45)" opacity="0.1" style="isolation:isolate"/><path d="M476.4,500.82a1.91,1.91,0,0,0-2.54.91,2,2,0,0,0-.09.22,2.28,2.28,0,0,0-.1.57A2.42,2.42,0,0,1,476.4,500.82Z" transform="translate(-21.4 -62.45)" opacity="0.1" style="isolation:isolate"/><g opacity="0.25"><path d="M164.38,293.17c-2.77-4.25-4.8-7-6.43-6s-2.27,5.18.55,9.43,8.83,8.64,10.45,7.7S167.14,297.42,164.38,293.17Z" transform="translate(-21.4 -62.45)" opacity="0.4" style="isolation:isolate"/><path d="M172.29,292.79c1.84-.39.4-7.06-.92-12s-2.41-8.12-4.25-7.74-3.71,4.25-2.39,9.09S170.46,293.17,172.29,292.79Z" transform="translate(-21.4 -62.45)" opacity="0.4" style="isolation:isolate"/><path d="M177.12,299.4c-1.72-2.82-3-4.61-4.54-3.83s-2.55,3.86-.83,6.68,6.13,5.49,7.61,4.71S178.84,302.22,177.12,299.4Z" transform="translate(-21.4 -62.45)" opacity="0.4" style="isolation:isolate"/></g><path d="M162,65.65c-28.41-7.6-48.94,8-46.31,36.05a62.84,62.84,0,0,0,3,13.75C117.61,82.64,135.81,62.19,162,65.65Z" transform="translate(-21.4 -62.45)" opacity="0.1" style="isolation:isolate"/><path d="M130,63.42c-14.17-3.84-24.47,4-23.15,18a31.23,31.23,0,0,0,1.49,6.82C107.82,71.92,116.92,61.69,130,63.42Z" transform="translate(-21.4 -62.45)" opacity="0.1" style="isolation:isolate"/></g></svg>