<svg xmlns="http://www.w3.org/2000/svg" xmlns:xlink="http://www.w3.org/1999/xlink" viewBox="0 0 463.91 312.61"><defs><clipPath id="a" transform="translate(-68.04 -143.69)"><rect width="600" height="600" fill="none"/></clipPath></defs><g clip-path="url(#a)"><path d="M200.06,417.65c-56.37,0-132,12.74-132,17.33s75.65,8.3,132,8.3S320,439.56,320,435,256.42,417.65,200.06,417.65Z" transform="translate(-68.04 -143.69)" opacity="0.1"/><path d="M149.1,374.75a18.45,18.45,0,0,1-6.35-.71,9.83,9.83,0,0,1-4.19-8.05,15,15,0,0,1,.11-2.2,12.71,12.71,0,0,0-1.17,5.14,6,6,0,0,0,.92,3.12A17,17,0,0,1,136.9,371a22,22,0,0,1-3.29-3.26,21.64,21.64,0,0,0,5.23,9c-3.57-1.26-6.49-3.1-8.24-5.71a27.31,27.31,0,0,1-2.44-4.58c.25,4.73,1.29,8.86,3.35,11.94a7.66,7.66,0,0,0,.85,1.05c-5.39-.73-10-2.48-13-5.7a35,35,0,0,1-4.09-5.4c1.25,6.11,3.43,11.27,6.72,14.8,2.29,2.45,5.85,3.58,10.11,3.77-9.61,3.58-18,8.2-20.56,13.27a19.35,19.35,0,0,0-1.61,12,30.34,30.34,0,0,1,2-5.22c3.55-7,15-13.88,26.91-19.2a16.92,16.92,0,0,0-4.87,5.87,19.43,19.43,0,0,0-1,12.11,30.13,30.13,0,0,1,1.75-5.35c2.48-5.7,9.83-11.59,18.48-16.8Z" transform="translate(-68.04 -143.69)" fill="#ffc82e"/><polygon points="188.48 237.87 166.68 283.58 168.47 284.48 195.35 237.87 188.48 237.87" fill="#ff9e2e"/><polygon points="167.69 284.08 168.47 284.48 195.35 237.87 167.69 284.08" fill="#fff" opacity="0.4"/><polygon points="179.94 261.48 178.09 260.77 188.48 237.87 171.08 274.37 171.08 274.37 170.85 274.84 170.85 274.84 169.07 278.58 169.07 278.58 168.92 278.89 166.68 283.58 167.54 284.01 169.82 278.99 170.21 279.02 169.87 278.89 171.68 274.9 172.64 274.96 171.79 274.64 173.17 271.61 174.53 271.7 173.34 271.25 174.74 268.15 176.79 268.29 174.99 267.61 176.28 264.75 178.27 264.88 176.52 264.22 177.84 261.33 179.94 261.48" fill="#d04000" opacity="0.4"/><path d="M255,385.59c-6.46-2.3-14.9-.12-17.2,6.33-1.47,4.14-1,11.64,1.23,17.1a8.79,8.79,0,0,0,13.67,3.62l.3-.27a33,33,0,0,0,8.18-12.11C263.44,393.8,261.41,387.89,255,385.59Z" transform="translate(-68.04 -143.69)" fill="#ffc82e"/><path d="M250,411.56c-.17.16-.34.3-.52.45a14.45,14.45,0,0,1-4.07,2.39,8.52,8.52,0,0,0,7.26-1.76l.3-.27a33,33,0,0,0,8.18-12.11,14.9,14.9,0,0,0,.91-5A57,57,0,0,1,250,411.56Z" transform="translate(-68.04 -143.69)" fill="#fff" opacity="0.6"/><path d="M256.05,432.89c-6.8-9.9-21.77-8.82-36.38-3.48a55.63,55.63,0,0,1,20.32.75,20.43,20.43,0,0,1-2.32,12.47,27.73,27.73,0,0,1-2.9,4.36c4.16-2.59,7.37-5.54,9.11-8.82a12.66,12.66,0,0,0,1.3-3.76A24.54,24.54,0,0,1,246.76,449a32.4,32.4,0,0,1-1.76,6c3.84-4.44,6.46-9,7.28-13.32a14.94,14.94,0,0,0,.05-5.37,26.71,26.71,0,0,1,4.65,5.19,30.93,30.93,0,0,1,3,5.44C259.78,441.43,258.57,436.55,256.05,432.89Z" transform="translate(-68.04 -143.69)" fill="#ff9e2e"/><path d="M257.23,441.06a10.56,10.56,0,0,0-4.9-4.7,26.71,26.71,0,0,1,4.65,5.19,30.93,30.93,0,0,1,3,5.44C259.12,445,258,442.48,257.23,441.06Z" transform="translate(-68.04 -143.69)" fill="#d04000" opacity="0.4"/><path d="M245,455.05c.8-2,2.23-4.45,2.67-6a17.73,17.73,0,0,0-2.49-14.6A24.54,24.54,0,0,1,246.76,449,32.4,32.4,0,0,1,245,455.05Z" transform="translate(-68.04 -143.69)" fill="#d04000" opacity="0.4"/><path d="M237.67,442.63c2.19-4.13,4.41-9.1,3.87-13.25-6.08-1.54-14.55-.89-21.87,0a55.63,55.63,0,0,1,20.32.75A20.43,20.43,0,0,1,237.67,442.63Z" transform="translate(-68.04 -143.69)" fill="#d04000" opacity="0.4"/><path d="M256.05,432.89c-4.55-6.62-12.75-8.33-22.05-7.14,9.34.08,17.73,3.15,21.79,9.06,2.52,3.66,4,6.62,4.16,12.18C259.78,441.43,258.57,436.55,256.05,432.89Z" transform="translate(-68.04 -143.69)" fill="#fff" opacity="0.4"/><polygon points="101.63 239.12 79.83 284.83 81.63 285.73 108.5 239.12 101.63 239.12" fill="#ff9e2e"/><polygon points="80.84 285.34 81.63 285.73 108.5 239.12 80.84 285.34" fill="#fff" opacity="0.4"/><polygon points="93.09 262.73 91.24 262.03 101.63 239.12 84.23 275.62 84.23 275.62 84 276.09 84 276.09 82.22 279.84 82.22 279.84 82.07 280.15 79.83 284.83 80.69 285.26 82.97 280.25 83.36 280.27 83.02 280.14 84.83 276.15 85.79 276.21 84.94 275.9 86.32 272.86 87.68 272.95 86.48 272.5 87.89 269.41 89.94 269.55 88.14 268.87 89.44 266 91.42 266.14 89.67 265.48 90.98 262.59 93.09 262.73" fill="#d04000" opacity="0.4"/><path d="M131.52,434.14c6.81-9.9,21.77-8.82,36.39-3.47a55.25,55.25,0,0,0-20.33.75,20.52,20.52,0,0,0,2.33,12.47,27.82,27.82,0,0,0,2.89,4.35c-4.15-2.58-7.37-5.54-9.1-8.81a12.44,12.44,0,0,1-1.3-3.77,24.47,24.47,0,0,0-1.59,14.63,33.29,33.29,0,0,0,1.76,6c-3.83-4.44-6.46-9-7.27-13.33a14.94,14.94,0,0,1-.05-5.37,27.05,27.05,0,0,0-4.66,5.19,31.59,31.59,0,0,0-3,5.44C127.8,442.69,129,437.81,131.52,434.14Z" transform="translate(-68.04 -143.69)" fill="#ff9e2e"/><path d="M130.35,442.31a10.56,10.56,0,0,1,4.9-4.7,27.05,27.05,0,0,0-4.66,5.19,31.59,31.59,0,0,0-3,5.44C128.46,446.29,129.56,443.74,130.35,442.31Z" transform="translate(-68.04 -143.69)" fill="#d04000" opacity="0.4"/><path d="M142.57,456.31c-.79-2-2.22-4.46-2.67-6.05a17.71,17.71,0,0,1,2.5-14.6,24.47,24.47,0,0,0-1.59,14.63A33.29,33.29,0,0,0,142.57,456.31Z" transform="translate(-68.04 -143.69)" fill="#d04000" opacity="0.4"/><path d="M149.91,443.89c-2.19-4.13-4.41-9.11-3.88-13.26,6.08-1.54,14.55-.89,21.88,0a55.25,55.25,0,0,0-20.33.75A20.52,20.52,0,0,0,149.91,443.89Z" transform="translate(-68.04 -143.69)" fill="#d04000" opacity="0.4"/><path d="M127.62,448.24a20,20,0,0,1,4.16-12.18c4.07-5.91,12.45-9,21.79-9.05-9.3-1.19-17.5.51-22,7.13C129,437.81,127.8,442.69,127.62,448.24Z" transform="translate(-68.04 -143.69)" fill="#fff" opacity="0.4"/><path d="M150.25,404.77a11.67,11.67,0,0,0,16.2,9.5l.48-.23a43.72,43.72,0,0,0,14.76-12.57c5.25-7.43,4.76-15.71-2.67-21s-19-5.47-24.23,2C151.43,387.24,149.35,397,150.25,404.77Z" transform="translate(-68.04 -143.69)" fill="#ffc82e"/><path d="M159.81,383.36a17.47,17.47,0,0,1,9.09-6.54c-5.47-.52-11,1.17-14.11,5.66-3.36,4.76-5.44,14.52-4.54,22.29a11.85,11.85,0,0,0,3.43,7.07C152.8,401.72,155.5,389.46,159.81,383.36Z" transform="translate(-68.04 -143.69)" opacity="0.1"/><path d="M184,386.14a23.85,23.85,0,0,1-3.73,10.53A56.62,56.62,0,0,1,162.1,414l-.6.33c-.54.27-1.08.51-1.63.72a11.23,11.23,0,0,0,6.58-.81l.48-.23a43.72,43.72,0,0,0,14.76-12.57C185.31,396.34,186.2,390.8,184,386.14Z" transform="translate(-68.04 -143.69)" fill="#fff" opacity="0.6"/><path d="M281.72,234.77a21.46,21.46,0,0,0,5.35-13.28c.69-13.8-12.23-27.49-29-27.46a30,30,0,0,0-8.92,1.32c-8.89-7.73-18.2-13.51-27.59-16.46a25.94,25.94,0,0,1,8.09-3.75,34.28,34.28,0,0,1,6.33-1.06c-5.8-1.55-11.14-2-15.53-.75l-.49.15a51.17,51.17,0,0,1,7.67-10.8,55.24,55.24,0,0,1,8.35-7.31c-9.32,2.07-17.22,5.86-22.71,11.77a30.42,30.42,0,0,0-6,9.55h-.14c-3.93-4.52-9.29-7-16.41-6.58-6.69.42-14.41,3.44-22.51,8.23a55.34,55.34,0,0,1,9.5-1.51,35.11,35.11,0,0,1,15.94,2.43C151.26,195,127.48,278.71,127.48,325c0,51.27,29.12,87.81,80.39,87.81S313.13,376.31,313.13,325C313.13,300.27,300.52,264.81,281.72,234.77Z" transform="translate(-68.04 -143.69)" fill="#ffc82e"/><path d="M188,194a55.16,55.16,0,0,1,18.25,3.05A48,48,0,0,0,184,191.67c-22.33,0-40.41,15.09-45.28,32.91C146.66,207.42,165.43,194,188,194Z" transform="translate(-68.04 -143.69)" fill="#ffe7d4" opacity="0.2"/><path d="M187.31,191.78c2.11-4.8,4-8.93,5.6-12.23a57.28,57.28,0,0,0-19.35,13.23A49.34,49.34,0,0,1,184,191.67C185.1,191.67,186.21,191.71,187.31,191.78Zm-8.4,185.56A149.94,149.94,0,0,0,184.84,393c-11.15-12-21-34.23-23.82-53.77a100.74,100.74,0,0,1,.9-35.61q-1.47,4.07-2.58,8.34A90,90,0,0,0,156.92,344c-8.1-17.33-4.35-46.75,3.48-76.47-8.43-3.87-15.21-9.87-19.17-17.52-9,26.2-13.75,54.32-13.75,75,0,51.27,29.12,87.81,80.39,87.81,3.27,0,6.55-.15,9.82-.44C201.15,405.5,188.09,393.37,178.91,377.34Z" transform="translate(-68.04 -143.69)" fill="#fff" opacity="0.6"/><path d="M184,191.67c-26.91,0-47.65,21.93-46.54,44.09s21.82,36.69,46.54,36.76,45.47-14.47,46.54-36.76S210.88,191.62,184,191.67Z" transform="translate(-68.04 -143.69)" fill="#ffc82e"/><path d="M188,194a55.16,55.16,0,0,1,18.25,3.05A48,48,0,0,0,184,191.67c-22.33,0-40.41,15.09-45.28,32.91C146.66,207.42,165.43,194,188,194Z" transform="translate(-68.04 -143.69)" fill="#fff" opacity="0.6"/><g opacity="0.1"><path d="M286.41,366a142.86,142.86,0,0,1-5.5,17.2c8.64-10.66,16.27-30.28,18.46-47.57a101.54,101.54,0,0,0-.7-31.51q1.14,3.59,2,7.37a91.17,91.17,0,0,1,1.88,28.43,56.56,56.56,0,0,0,3.74-36.68c-3-13.23-27.48-51.74-32.77-62.25a26.35,26.35,0,0,0,8.2-6.18c18.8,30,31.41,65.5,31.41,90.27,0,40.72-34.06,72.15-73.76,83.36C258.94,399.16,275.94,384.47,286.41,366Z" transform="translate(-68.04 -143.69)" opacity="0.6"/><path d="M249.15,195.36a29.27,29.27,0,0,0-4,1.57,140.32,140.32,0,0,0-12.75-13.42A92.82,92.82,0,0,1,249.15,195.36Z" transform="translate(-68.04 -143.69)" opacity="0.6"/></g><path d="M260.57,195.48a34.52,34.52,0,0,1,11.38,1.9A30,30,0,0,0,258.08,194c-13.92,0-25.18,9.4-28.22,20.5A33.9,33.9,0,0,1,260.57,195.48Z" transform="translate(-68.04 -143.69)" fill="#fff" opacity="0.6"/><path d="M272.07,199.45c-20,0-35.42,16.3-34.59,32.78s16.22,27.27,34.59,27.32,33.8-10.76,34.6-27.32S292.08,199.42,272.07,199.45Z" transform="translate(-68.04 -143.69)" fill="#ffe7d4"/><path d="M276.5,199.72c14.72,4.38,24.95,17.78,24.27,31.28-.79,16.57-16.21,27.27-34.59,27.33a46.81,46.81,0,0,1-6.09-.43,44.11,44.11,0,0,0,12,1.65c18.38-.05,33.8-10.76,34.6-27.32C307.43,217,294.3,201.88,276.5,199.72Z" transform="translate(-68.04 -143.69)" fill="#e75400" opacity="0.2"/><path d="M179.5,197.55c-26.91,0-47.65,21.93-46.54,44.09s21.82,36.69,46.54,36.76S225,263.93,226,241.64,206.41,197.51,179.5,197.55Z" transform="translate(-68.04 -143.69)" fill="#ffe7d4"/><path d="M190.86,274.81c-24.72-.08-45.46-15.34-46.54-39-.58-12.34,4.87-24.62,14.08-33.49C142.56,210,132.17,225.78,133,241.64c1.07,22.29,21.82,36.69,46.54,36.76a57,57,0,0,0,23.44-4.89A57.47,57.47,0,0,1,190.86,274.81Z" transform="translate(-68.04 -143.69)" fill="#e75400" opacity="0.2"/><path d="M205.61,224.18c0,.46.07.92.07,1.39a13.94,13.94,0,1,1-10.62-13.47,24.41,24.41,0,1,0,10.55,12.08Z" transform="translate(-68.04 -143.69)" fill="#51364d"/><path d="M168.49,255.58a3.69,3.69,0,1,0-3.69-3.69A3.69,3.69,0,0,0,168.49,255.58Z" transform="translate(-68.04 -143.69)" fill="#fff"/><circle cx="95.6" cy="111.89" r="1.15" fill="#fff"/><path d="M258.13,220a6.18,6.18,0,0,1,.62-.12A6.25,6.25,0,1,1,253.5,227a6.7,6.7,0,0,1,0-1.48,11,11,0,1,0,4.67-5.52Z" transform="translate(-68.04 -143.69)" fill="#51364d"/><path d="M255.93,238.76a1.6,1.6,0,1,0-1.59-1.6A1.6,1.6,0,0,0,255.93,238.76Z" transform="translate(-68.04 -143.69)" fill="#fff"/><path d="M253.84,239.26a.5.5,0,0,0,.5-.5.51.51,0,0,0-.5-.5.5.5,0,0,0-.5.5A.5.5,0,0,0,253.84,239.26Z" transform="translate(-68.04 -143.69)" fill="#fff"/><path d="M213.57,276.38c-.1,0-9.07,12.57,4.53,11.05,5.85-.65,32.62-15.11,32.62-15.11S227.6,270.94,213.57,276.38Z" transform="translate(-68.04 -143.69)" fill="#ff9e2e"/><path d="M242.47,276.65c4.75-2.44,8.25-4.33,8.25-4.33s-23.12-1.38-37.15,4.06C220.11,274.85,230.87,275.37,242.47,276.65Z" transform="translate(-68.04 -143.69)" opacity="0.1"/><path d="M218.83,285.57c-7.65.86-8.15-2.73-7.12-6.05-1.7,3.62-2.74,8.93,6.39,7.91,3.11-.35,12.14-4.6,19.92-8.51C229.43,282.3,221.29,285.3,218.83,285.57Z" transform="translate(-68.04 -143.69)" opacity="0.1"/><path d="M268.49,251c-6.79-5.49-16.88,16.66-28.93,10.85s-25.92,14.61-26,14.58c16.41-3.82,48.62,0,65,1.62C278.71,277.92,273.79,255.08,268.49,251Z" transform="translate(-68.04 -143.69)" fill="#ff9e2e"/><path d="M268.49,251c-6.79-5.49-16.88,16.66-28.93,10.85-6.2-3-12.89,1-17.92,5.5,5.5-3.61,12.46-6.34,17.86-3.73,12.05,5.81,21.4-10.27,28.19-4.77,5.3,4.13,11,19.12,10.92,19.2C278.71,277.92,273.79,255.08,268.49,251Z" transform="translate(-68.04 -143.69)" fill="#fff" opacity="0.4"/><path d="M268.49,251c-6.79-5.49-16.88,16.66-28.93,10.85-5.59-2.7-11.58.25-16.39,4.19,5.17-3.54,11.27-6,16.6-3.42,12,5.81,20.58-14.66,28.29-10.74,2.52,1.28,4.81,6.11,6.6,11.27C272.91,257.8,270.73,252.7,268.49,251Z" transform="translate(-68.04 -143.69)" fill="#fff" opacity="0.2"/><path d="M231.48,264.87s-1.21,1.37.4,1.36a27.31,27.31,0,0,0,4-1.38A13.27,13.27,0,0,0,231.48,264.87Z" transform="translate(-68.04 -143.69)" opacity="0.2"/><path d="M398.42,409c57,0,133.54,12.89,133.54,17.53s-76.52,8.4-133.54,8.4-121.27-3.76-121.27-8.4S341.41,409,398.42,409Z" transform="translate(-68.04 -143.69)" opacity="0.1"/><path d="M450,365.6a18.61,18.61,0,0,0,6.42-.72,9.93,9.93,0,0,0,4.24-8.14,15.42,15.42,0,0,0-.11-2.23,12.86,12.86,0,0,1,1.18,5.2,6.1,6.1,0,0,1-.93,3.16,17.55,17.55,0,0,0,1.54-1.11,22.46,22.46,0,0,0,3.33-3.29,22.1,22.1,0,0,1-5.29,9.07c3.61-1.28,6.56-3.15,8.33-5.79a27.53,27.53,0,0,0,2.47-4.63c-.25,4.78-1.31,9-3.39,12.08a7.25,7.25,0,0,1-.86,1.06c5.45-.73,10.1-2.5,13.14-5.77a34.79,34.79,0,0,0,4.14-5.46c-1.27,6.19-3.47,11.4-6.8,15-2.31,2.47-5.91,3.62-10.23,3.81,9.72,3.61,18.21,8.29,20.8,13.42a19.57,19.57,0,0,1,1.63,12.16,30.26,30.26,0,0,0-2.07-5.28c-3.59-7.13-15.18-14-27.22-19.43a17.19,17.19,0,0,1,4.93,5.94,19.66,19.66,0,0,1,1,12.25,29.9,29.9,0,0,0-1.77-5.4c-2.51-5.77-9.94-11.73-18.69-17Z" transform="translate(-68.04 -143.69)" fill="#ffc82e"/><polygon points="273.26 228.8 295.31 275.03 293.5 275.94 266.31 228.8 273.26 228.8" fill="#ff9e2e"/><polygon points="294.3 275.54 293.5 275.94 266.31 228.8 294.3 275.54" fill="#fff" opacity="0.4"/><polygon points="281.9 252.67 283.77 251.97 273.26 228.8 290.87 265.72 290.87 265.72 291.1 266.19 291.1 266.19 292.9 269.98 292.9 269.98 293.05 270.29 295.31 275.03 294.44 275.47 292.14 270.39 291.75 270.42 292.09 270.29 290.26 266.25 289.29 266.31 290.14 265.99 288.75 262.92 287.37 263.02 288.58 262.56 287.16 259.43 285.09 259.57 286.91 258.88 285.6 255.99 283.59 256.12 285.36 255.45 284.03 252.53 281.9 252.67" fill="#d04000" opacity="0.4"/><path d="M342.89,376.56c6.53-2.32,15.07-.12,17.39,6.41,1.5,4.18,1,11.77-1.23,17.29a8.9,8.9,0,0,1-13.84,3.66l-.3-.26a33.51,33.51,0,0,1-8.27-12.26C334.31,384.87,336.36,378.89,342.89,376.56Z" transform="translate(-68.04 -143.69)" fill="#ffc82e"/><path d="M347.92,402.84l.52.45a14.53,14.53,0,0,0,4.12,2.41,8.59,8.59,0,0,1-7.35-1.78l-.3-.26a33.51,33.51,0,0,1-8.27-12.26,15,15,0,0,1-.92-5A57.74,57.74,0,0,0,347.92,402.84Z" transform="translate(-68.04 -143.69)" fill="#fff" opacity="0.6"/><path d="M341.78,424.4c6.89-10,22-8.92,36.81-3.51a55.82,55.82,0,0,0-20.56.76,20.75,20.75,0,0,0,2.35,12.61,27.88,27.88,0,0,0,2.93,4.41c-4.21-2.62-7.46-5.61-9.21-8.92a12.33,12.33,0,0,1-1.31-3.81,24.78,24.78,0,0,0-1.61,14.8,33.16,33.16,0,0,0,1.78,6.08c-3.88-4.48-6.53-9.06-7.36-13.47a15.33,15.33,0,0,1-.05-5.44,28,28,0,0,0-4.71,5.25,32,32,0,0,0-3,5.51C338,433.05,339.23,428.11,341.78,424.4Z" transform="translate(-68.04 -143.69)" fill="#ff9e2e"/><path d="M340.59,432.67a10.72,10.72,0,0,1,5-4.76,28,28,0,0,0-4.71,5.25,32,32,0,0,0-3,5.51C338.69,436.69,339.8,434.11,340.59,432.67Z" transform="translate(-68.04 -143.69)" fill="#d04000" opacity="0.4"/><path d="M353,446.82c-.8-2-2.25-4.5-2.7-6.11a17.93,17.93,0,0,1,2.53-14.77,24.78,24.78,0,0,0-1.61,14.8A33.16,33.16,0,0,0,353,446.82Z" transform="translate(-68.04 -143.69)" fill="#d04000" opacity="0.4"/><path d="M360.38,434.26c-2.21-4.18-4.46-9.21-3.92-13.41,6.15-1.55,14.72-.9,22.13,0a55.82,55.82,0,0,0-20.56.76A20.75,20.75,0,0,0,360.38,434.26Z" transform="translate(-68.04 -143.69)" fill="#d04000" opacity="0.4"/><path d="M337.84,438.67c.18-5.62,1.66-8.61,4.21-12.32,4.11-6,12.59-9.08,22-9.16-9.41-1.21-17.7.52-22.31,7.21C339.23,428.11,338,433.05,337.84,438.67Z" transform="translate(-68.04 -143.69)" fill="#fff" opacity="0.4"/><polygon points="361.11 230.06 383.16 276.3 381.35 277.21 354.16 230.06 361.11 230.06" fill="#ff9e2e"/><polygon points="382.14 276.81 381.35 277.21 354.16 230.06 382.14 276.81" fill="#fff" opacity="0.4"/><polygon points="369.75 253.94 371.63 253.23 361.11 230.06 378.72 266.99 378.72 266.99 378.94 267.46 378.94 267.46 380.75 271.25 380.75 271.25 380.9 271.56 383.16 276.3 382.29 276.74 379.99 271.66 379.6 271.69 379.94 271.56 378.11 267.52 377.14 267.58 377.99 267.26 376.6 264.19 375.22 264.29 376.43 263.83 375.01 260.7 372.94 260.84 374.76 260.15 373.45 257.25 371.44 257.39 373.21 256.72 371.88 253.8 369.75 253.94" fill="#d04000" opacity="0.4"/><path d="M467.75,425.67c-6.89-10-22-8.92-36.81-3.51a55.82,55.82,0,0,1,20.56.76,20.75,20.75,0,0,1-2.35,12.61,27.36,27.36,0,0,1-2.93,4.4c4.21-2.61,7.46-5.6,9.21-8.91a12.63,12.63,0,0,0,1.32-3.81,24.86,24.86,0,0,1,1.6,14.8,32.39,32.39,0,0,1-1.78,6.08c3.88-4.49,6.53-9.06,7.36-13.48a15.27,15.27,0,0,0,.05-5.43,27,27,0,0,1,4.71,5.25,31.6,31.6,0,0,1,3,5.5C471.51,434.32,470.3,429.38,467.75,425.67Z" transform="translate(-68.04 -143.69)" fill="#ff9e2e"/><path d="M468.94,433.94a10.72,10.72,0,0,0-5-4.76,27,27,0,0,1,4.71,5.25,31.6,31.6,0,0,1,3,5.5C470.85,438,469.73,435.38,468.94,433.94Z" transform="translate(-68.04 -143.69)" fill="#d04000" opacity="0.4"/><path d="M456.57,448.09c.81-2,2.25-4.5,2.7-6.11a18,18,0,0,0-2.52-14.77,24.86,24.86,0,0,1,1.6,14.8A32.39,32.39,0,0,1,456.57,448.09Z" transform="translate(-68.04 -143.69)" fill="#d04000" opacity="0.4"/><path d="M449.15,435.53c2.21-4.18,4.46-9.21,3.92-13.41-6.15-1.55-14.72-.9-22.13,0a55.82,55.82,0,0,1,20.56.76A20.75,20.75,0,0,1,449.15,435.53Z" transform="translate(-68.04 -143.69)" fill="#d04000" opacity="0.4"/><path d="M467.75,425.67c-4.61-6.69-12.9-8.42-22.31-7.21,9.45.07,17.93,3.18,22,9.16a20.19,20.19,0,0,1,4.21,12.31C471.51,434.32,470.3,429.38,467.75,425.67Z" transform="translate(-68.04 -143.69)" fill="#fff" opacity="0.4"/><path d="M448.8,396a11.79,11.79,0,0,1-16.38,9.6l-.48-.22A44.5,44.5,0,0,1,417,392.63c-5.3-7.52-4.82-15.89,2.7-21.19s19.21-5.54,24.51,2C447.61,378.23,449.71,388.1,448.8,396Z" transform="translate(-68.04 -143.69)" fill="#ffc82e"/><path d="M439.14,374.31a17.72,17.72,0,0,0-9.2-6.62c5.54-.52,11.07,1.19,14.27,5.73,3.4,4.81,5.5,14.68,4.59,22.55a12,12,0,0,1-3.47,7.14C446.23,392.88,443.49,380.48,439.14,374.31Z" transform="translate(-68.04 -143.69)" opacity="0.1"/><path d="M414.71,377.12a24,24,0,0,0,3.77,10.65,57.29,57.29,0,0,0,18.34,17.56l.61.33a15.06,15.06,0,0,0,1.65.73,11.26,11.26,0,0,1-6.66-.82l-.48-.22A44.5,44.5,0,0,1,417,392.63C413.34,387.44,412.44,381.84,414.71,377.12Z" transform="translate(-68.04 -143.69)" fill="#fff" opacity="0.6"/><path d="M315.82,224a21.71,21.71,0,0,1-5.41-13.43c-.7-14,12.37-27.81,29.33-27.79a30.66,30.66,0,0,1,9,1.35c9-7.82,18.4-13.67,27.9-16.66a26.16,26.16,0,0,0-8.18-3.78,34.21,34.21,0,0,0-6.4-1.08c5.87-1.57,11.27-2,15.7-.76l.5.15a51.61,51.61,0,0,0-7.76-10.92,56,56,0,0,0-8.44-7.4c9.43,2.09,17.42,5.93,23,11.91a30.94,30.94,0,0,1,6.05,9.66h.14c4-4.57,9.4-7.11,16.59-6.66,6.78.43,14.58,3.48,22.78,8.33A55.81,55.81,0,0,0,421,165.4a35.58,35.58,0,0,0-16.12,2.46c42.9,15.89,67,100.6,67,147.46,0,51.85-29.46,88.82-81.32,88.82s-106.47-37-106.47-88.82C284.05,290.26,296.8,254.39,315.82,224Z" transform="translate(-68.04 -143.69)" fill="#ffc82e"/><path d="M410.64,182.78a55.64,55.64,0,0,0-18.46,3.08,48.67,48.67,0,0,1,22.51-5.45c22.6,0,40.88,15.27,45.81,33.29C452.43,196.34,433.45,182.74,410.64,182.78Z" transform="translate(-68.04 -143.69)" fill="#ffe7d4" opacity="0.2"/><path d="M414.69,180.41a49.19,49.19,0,0,1,10.54,1.13,57.93,57.93,0,0,0-19.58-13.38c1.61,3.33,3.53,7.51,5.66,12.37C412.43,180.45,413.56,180.41,414.69,180.41ZM380.58,403.69q5,.45,9.94.45c51.86,0,81.32-37,81.32-88.82,0-20.91-4.79-49.36-13.91-75.86-4,7.74-10.86,13.81-19.4,17.73,7.93,30.06,11.72,59.81,3.53,77.34A91.39,91.39,0,0,0,439.61,302q-1.12-4.32-2.61-8.43a101.85,101.85,0,0,1,.91,36c-2.85,19.77-12.81,42.2-24.1,54.38a152.41,152.41,0,0,0,6-15.79C410.52,384.44,397.32,396.71,380.58,403.69Z" transform="translate(-68.04 -143.69)" opacity="0.1"/><path d="M414.69,180.41c27.23,0,48.2,22.18,47.08,44.6s-22.07,37.11-47.08,37.18-46-14.64-47.07-37.18S387.47,180.37,414.69,180.41Z" transform="translate(-68.04 -143.69)" fill="#ffc82e"/><path d="M410.64,182.78a55.64,55.64,0,0,0-18.46,3.08,48.67,48.67,0,0,1,22.51-5.45c22.6,0,40.88,15.27,45.81,33.29C452.43,196.34,433.45,182.74,410.64,182.78Z" transform="translate(-68.04 -143.69)" fill="#fff" opacity="0.6"/><path d="M311.08,356.71a146,146,0,0,0,5.56,17.39C307.9,363.33,300.18,343.48,298,326a102.67,102.67,0,0,1,.71-31.88q-1.15,3.63-2,7.46a92,92,0,0,0-1.9,28.75A57.25,57.25,0,0,1,291,293.23c3-13.39,27.8-52.34,33.14-63a26.32,26.32,0,0,1-8.28-6.24c-19,30.39-31.78,66.25-31.78,91.31,0,41.18,34.45,73,74.61,84.31C338.87,390.29,321.66,375.43,311.08,356.71Z" transform="translate(-68.04 -143.69)" fill="#fff" opacity="0.6"/><path d="M348.76,184.14a30,30,0,0,1,4.08,1.59,144.89,144.89,0,0,1,12.9-13.58A94.52,94.52,0,0,0,348.76,184.14Z" transform="translate(-68.04 -143.69)" fill="#fff" opacity="0.6"/><path d="M337.21,184.27a34.73,34.73,0,0,0-11.5,1.92,30.2,30.2,0,0,1,14-3.39c14.07,0,25.47,9.51,28.54,20.73A34.29,34.29,0,0,0,337.21,184.27Z" transform="translate(-68.04 -143.69)" fill="#fff" opacity="0.6"/><path d="M325.58,188.29c20.23,0,35.82,16.48,35,33.15s-16.4,27.58-35,27.64-34.19-10.89-35-27.64S305.34,188.25,325.58,188.29Z" transform="translate(-68.04 -143.69)" fill="#ffe7d4"/><path d="M321.1,188.55c-14.89,4.44-25.23,18-24.55,31.64.8,16.76,16.4,27.59,35,27.65a47.89,47.89,0,0,0,6.16-.43,45.48,45.48,0,0,1-12.12,1.67c-18.59-.06-34.19-10.89-35-27.64C289.82,206,303.09,190.74,321.1,188.55Z" transform="translate(-68.04 -143.69)" fill="#e75400" opacity="0.2"/><path d="M419.22,186.36c27.22-.05,48.19,22.18,47.07,44.6s-22.07,37.11-47.07,37.18-46-14.64-47.08-37.18S392,186.31,419.22,186.36Z" transform="translate(-68.04 -143.69)" fill="#ffe7d4"/><path d="M407.72,264.51c25-.08,46-15.52,47.08-39.41.59-12.48-4.92-24.9-14.24-33.88,16,7.76,26.54,23.7,25.73,39.74-1.08,22.54-22.07,37.11-47.07,37.18a57.66,57.66,0,0,1-23.72-4.95A57.56,57.56,0,0,0,407.72,264.51Z" transform="translate(-68.04 -143.69)" fill="#e75400" opacity="0.2"/><path d="M392.81,213.3a13,13,0,0,0-.07,1.4,14,14,0,1,0,14-14,14.23,14.23,0,0,0-3.28.4,24.69,24.69,0,1,1-10.67,12.22Z" transform="translate(-68.04 -143.69)" fill="#51364d"/><path d="M430.35,245.06a3.74,3.74,0,1,1,3.74-3.74A3.73,3.73,0,0,1,430.35,245.06Z" transform="translate(-68.04 -143.69)" fill="#fff"/><circle cx="367.21" cy="101.37" r="1.16" fill="#fff"/><path d="M339.68,209.07l-.62-.13a6.32,6.32,0,1,0,5.3,7.2,5.73,5.73,0,0,0,0-1.49,11,11,0,0,1,.62,5.68,11.14,11.14,0,1,1-9.34-12.68A11,11,0,0,1,339.68,209.07Z" transform="translate(-68.04 -143.69)" fill="#51364d"/><circle cx="273.86" cy="82.73" r="1.62" fill="#fff"/><path d="M344,228.55a.51.51,0,1,1,.51-.51A.51.51,0,0,1,344,228.55Z" transform="translate(-68.04 -143.69)" fill="#fff"/><path d="M384.76,266.09c.09.05,9.17,12.72-4.58,11.18-5.92-.66-33-15.28-33-15.28S370.56,260.59,384.76,266.09Z" transform="translate(-68.04 -143.69)" fill="#ff9e2e"/><path d="M355.52,266.37c-4.8-2.47-8.34-4.38-8.34-4.38s23.38-1.4,37.58,4.1C378.14,264.55,367.26,265.08,355.52,266.37Z" transform="translate(-68.04 -143.69)" opacity="0.1"/><path d="M379.44,275.4c7.73.86,8.24-2.77,7.19-6.12,1.72,3.65,2.78,9-6.45,8-3.15-.35-12.29-4.65-20.16-8.61C368.71,272.08,376.94,275.12,379.44,275.4Z" transform="translate(-68.04 -143.69)" opacity="0.1"/><path d="M329.21,240.37c6.86-5.55,17.07,16.85,29.26,11s26.22,14.79,26.29,14.75c-16.61-3.86-49.19,0-65.79,1.65C318.87,267.66,323.84,244.55,329.21,240.37Z" transform="translate(-68.04 -143.69)" fill="#ff9e2e"/><path d="M329.21,240.37c6.86-5.55,17.07,16.85,29.26,11,6.27-3,13,1,18.13,5.58-5.57-3.66-12.61-6.42-18.07-3.78-12.19,5.88-21.65-10.38-28.52-4.83-5.36,4.18-11.14,19.35-11,19.43C318.87,267.66,323.84,244.55,329.21,240.37Z" transform="translate(-68.04 -143.69)" fill="#fff" opacity="0.4"/><path d="M323,252.67c1.82-5.23,4.13-10.11,6.68-11.41,7.79-4,16.43,16.74,28.62,10.87,5.38-2.6,11.56-.12,16.79,3.45-4.87-4-10.93-7-16.58-4.24-12.19,5.88-22.4-16.52-29.26-11C326.94,242.14,324.74,247.3,323,252.67Z" transform="translate(-68.04 -143.69)" fill="#fff" opacity="0.2"/><path d="M366.63,254.46s1.23,1.38-.4,1.37a27.77,27.77,0,0,1-4.06-1.4A13.06,13.06,0,0,1,366.63,254.46Z" transform="translate(-68.04 -143.69)" opacity="0.2"/></g></svg>