<svg xmlns="http://www.w3.org/2000/svg" xmlns:xlink="http://www.w3.org/1999/xlink" viewBox="0 0 458.6 589.53"><defs><clipPath id="a" transform="translate(-70.7 -5.24)"><rect width="600" height="600" fill="none"/></clipPath></defs><g clip-path="url(#a)"><path d="M431.06,434.78c7.75,7.75,41.38,20.5,53.85,17.56s17.06-16.26,14.58-23.78-11.08-6.39-23.54-3.44S425.93,429.63,431.06,434.78Z" transform="translate(-70.7 -5.24)" fill="#754c24"/><path d="M479.65,446.91c11-2.34,17.81-8.85,20.44-15.17.55,7.61-4.33,18-15.18,20.6-7.3,1.72-21.87-1.94-34.24-6.82C462.1,447.49,473,448.31,479.65,446.91Z" transform="translate(-70.7 -5.24)" fill="#fff" opacity="0.4"/><path d="M456.51,402.77c5.27,7.58,26.44,1.79,36.54-10.59s8.9-32.12,3.63-39.7-12.6-.16-22.71,12.22S451.24,395.18,456.51,402.77Z" transform="translate(-70.7 -5.24)" fill="#754c24"/><path d="M465.33,416.76c3,9.19,26,15.88,39.88,11.06s18.52-21.92,15.49-31.11-12.63-7-26.48-2.17S462.29,407.57,465.33,416.76Z" transform="translate(-70.7 -5.24)" fill="#754c24"/><path d="M495.62,428.22c18.07-5.63,24.68-24.11,21-33.87a9.75,9.75,0,0,0-2.34-3.7c3,.65,5.19,2.5,6.37,6.06,3,9.19-1.64,26.29-15.49,31.11a35.47,35.47,0,0,1-14,1.49A43.8,43.8,0,0,0,495.62,428.22Z" transform="translate(-70.7 -5.24)" fill="#fff" opacity="0.4"/><path d="M457.81,413.23c5.27,7.58,53.77-12.47,63.87-24.85s8.91-32.12,3.64-39.7-12.61-.16-22.71,12.23S452.54,405.64,457.81,413.23Z" transform="translate(-70.7 -5.24)" fill="#999"/><path d="M414.26,410.31c.58,22.13,36.39,37.58,51.26,33.46s17.44-26.93,12.56-40.21c-2.4-6.53-.78-42.37-4.38-38.47-9.53,10.34-19.08,26.77-26.64,28.87C432.18,398.08,413.89,396.12,414.26,410.31Z" transform="translate(-70.7 -5.24)" fill="#754c24"/><path d="M496.81,361.74c4,6.83,2.84,16.68-.43,25.37,6.4-12.16,4.9-28,.3-34.63-5.26-7.59-12.6-.16-22.71,12.22l-.69.85c-7.12,7.86-14.23,18.94-20.5,24.74a89.61,89.61,0,0,0,18.29-17.57C476,366.27,489.72,349.49,496.81,361.74Z" transform="translate(-70.7 -5.24)" fill="#fff" opacity="0.4"/><path d="M457.81,413.23c5.27,7.58,53.77-12.47,63.87-24.85s8.91-32.12,3.64-39.7-12.61-.16-22.71,12.23S452.54,405.64,457.81,413.23Z" transform="translate(-70.7 -5.24)" fill="#754c24"/><path d="M502.61,360.91c-3,3.62-8.46,8.94-14.64,14.85a94.58,94.58,0,0,0,10.52-8.1c11.28-10.84,19.32-17.16,23.87-8.94,3.56,6.42,3.92,19.85-1.49,30.58.29-.31.57-.62.81-.92,10.11-12.39,8.91-32.12,3.64-39.7S512.71,348.52,502.61,360.91Z" transform="translate(-70.7 -5.24)" fill="#fff" opacity="0.4"/><path d="M429.56,417.37c2.19,9.31,47.26,14.36,58.93,8.05s16.15-24.59,14-33.91-10.23-6.13-21.89.19S427.37,408.06,429.56,417.37Z" transform="translate(-70.7 -5.24)" fill="#754c24"/><path d="M480.56,391.7c-3.41,1.84-9.37,4-16,6.38a63.85,63.85,0,0,0,10.82-2.28c12.18-4.37,20.49-6.22,21.92,3.32,1.12,7.46-2.31,19.68-9.69,26.73.32-.14.63-.28.92-.43,11.66-6.32,16.15-24.59,14-33.91S492.22,385.38,480.56,391.7Z" transform="translate(-70.7 -5.24)" fill="#fff" opacity="0.4"/><g opacity="0.2"><path d="M471.51,434.91c4.25-.5,7.12-.61,7.45,1.28s-2,5.08-6.27,5.58-10.43-1.57-10.76-3.46S467.27,435.4,471.51,434.91Z" transform="translate(-70.7 -5.24)" opacity="0.4"/><path d="M467.29,428.32c-.78-1.71,4.24-4.8,8.08-6.86s6.49-3.25,7.28-1.54-.59,5.68-4.43,7.74S468.08,430,467.29,428.32Z" transform="translate(-70.7 -5.24)" opacity="0.4"/><path d="M460.39,428.68c2.75-.43,4.63-.52,5,1.16a4.54,4.54,0,0,1-3.75,4.92c-2.75.42-6.93-1.41-7.26-3.09S457.65,429.1,460.39,428.68Z" transform="translate(-70.7 -5.24)" opacity="0.4"/></g><path d="M154,307c-12.46-1.18-26.85-39.77-24.26-67.16s23.13-43.92,35.59-42.74,12.12,19.62,9.52,47S166.41,308.14,154,307Z" transform="translate(-70.7 -5.24)" fill="#986038"/><path d="M136.18,328.25c-11.91,3.81-40.33-26-48.72-52.2s4-49.48,15.9-53.3,18.86,13.27,27.25,39.47S148.1,324.43,136.18,328.25Z" transform="translate(-70.7 -5.24)" fill="#986038"/><path d="M95.58,280c-7.56-23.58-3.45-44.53,4-55.41-10.54,6.92-19.65,28-12.14,51.46,4.91,15.33,16.67,31.89,28,42.23C107.19,306.66,99.7,292.88,95.58,280Z" transform="translate(-70.7 -5.24)" fill="#fff" opacity="0.4"/><path d="M134.39,351.84c-8.33,6.49-39.5-8.86-53.76-27.17s-11.24-40.34-2.91-46.83,18.79,5,33.06,23.33S142.72,345.35,134.39,351.84Z" transform="translate(-70.7 -5.24)" fill="#986038"/><path d="M86.11,320.57c-9.72-12.48-13.37-25.84-13.1-36.15-4.1,9.7-3.42,26.09,7.62,40.25,12,15.36,35.82,28.63,48.11,28.68C115,347.46,96.88,334.39,86.11,320.57Z" transform="translate(-70.7 -5.24)" fill="#fff" opacity="0.4"/><path d="M142.43,314.67c-12.46-1.17-38.76-95.9-36.17-123.3s23.13-43.91,35.58-42.74,12.12,19.62,9.53,47S154.89,315.85,142.43,314.67Z" transform="translate(-70.7 -5.24)" fill="#986038"/><path d="M110,200.64c3.61-27.28,24.74-43,37.14-41.39a9.69,9.69,0,0,1,4.94,2c-1.26-7.56-4.29-12.07-10.25-12.64-12.45-1.17-33,15.35-35.58,42.74-1,10.55,2.29,31.07,7.41,52.39C110.48,225.85,108.83,209.58,110,200.64Z" transform="translate(-70.7 -5.24)" fill="#fff" opacity="0.4"/><path d="M293.45,547C204.71,547,85.62,567,85.62,574.26s119.09,13.07,207.83,13.07,188.75-5.85,188.75-13.07S382.19,547,293.45,547Z" transform="translate(-70.7 -5.24)" opacity="0.1"/><polygon points="297.39 473.75 301.38 553.38 304.54 553.28 306.91 468.61 297.39 473.75" fill="#ff9e2e"/><polygon points="303.15 553.33 304.54 553.28 306.91 468.61 303.15 553.33" fill="#fff" opacity="0.4"/><polygon points="303.22 512.84 300.12 513.26 297.39 473.75 300.58 537.34 300.58 537.34 300.62 538.15 300.62 538.15 300.94 544.68 300.94 544.68 300.97 545.22 301.38 553.38 302.89 553.33 302.3 544.68 302.85 544.42 302.28 544.5 301.81 537.61 303.19 536.99 301.78 537.17 301.41 531.94 303.37 531.05 301.37 531.32 301 525.98 303.94 524.64 300.94 525.05 300.6 520.11 303.45 518.81 300.53 519.2 300.19 514.22 303.22 512.84" fill="#d04000" opacity="0.4"/><path d="M366.12,481.8c-10.66,1.64-20.72,11-19.08,21.63,1,6.83,7.31,16.87,14.48,22.77s18.17,3.4,21.65-5.22c.08-.2.16-.39.23-.59a52,52,0,0,0,2.25-22.9C384,486.83,376.79,480.16,366.12,481.8Z" transform="translate(-70.7 -5.24)" fill="#986038"/><path d="M378.67,521.49c-.12.34-.25.67-.38,1a22.81,22.81,0,0,1-3.86,6.36,13.37,13.37,0,0,0,8.74-7.87c.08-.2.16-.39.23-.59a52,52,0,0,0,2.25-22.9,23.32,23.32,0,0,0-2.45-7.57C383.53,499.68,382.18,511.7,378.67,521.49Z" transform="translate(-70.7 -5.24)" opacity="0.2"/><path d="M406.6,556.43c-14.58-12-36.77-3.93-56.58,10.48,10.69-4.57,21.22-7.35,31.09-7.65A32.24,32.24,0,0,1,383,579.13a44.07,44.07,0,0,1-2.51,7.85c5.18-5.71,8.77-11.57,10-17.28a19.66,19.66,0,0,0,.33-6.26,38.6,38.6,0,0,1,8.73,21.46,51.65,51.65,0,0,1-.06,9.86c3.88-8.37,5.9-16.35,5.25-23.31a23.28,23.28,0,0,0-2.25-8.15,42.36,42.36,0,0,1,9.29,5.84,49.53,49.53,0,0,1,6.85,7C415.93,567.76,412,560.89,406.6,556.43Z" transform="translate(-70.7 -5.24)" fill="#ff9e2e"/><path d="M411.91,568.29a16.66,16.66,0,0,0-9.45-5,42.36,42.36,0,0,1,9.29,5.84,49.53,49.53,0,0,1,6.85,7C416.49,573.5,413.72,570.11,411.91,568.29Z" transform="translate(-70.7 -5.24)" fill="#d04000" opacity="0.4"/><path d="M399.46,594.76c.33-3.39,1.44-7.7,1.43-10.3,0-5.83-2.59-15.18-10.1-21a38.6,38.6,0,0,1,8.73,21.46A51.65,51.65,0,0,1,399.46,594.76Z" transform="translate(-70.7 -5.24)" fill="#d04000" opacity="0.4"/><path d="M383,579.13c1.52-7.19,2.73-15.68.13-21.73-9.87.29-22.41,4.94-33.1,9.51,10.69-4.57,21.22-7.35,31.09-7.65A32.24,32.24,0,0,1,383,579.13Z" transform="translate(-70.7 -5.24)" fill="#d04000" opacity="0.4"/><path d="M406.6,556.43c-9.75-8-22.9-7.09-36.46-1.26,14.17-3.92,28.19-2.91,36.9,4.28,5.4,4.46,8.89,8.31,11.56,16.64C415.93,567.76,412,560.89,406.6,556.43Z" transform="translate(-70.7 -5.24)" fill="#fff" opacity="0.4"/><polygon points="157.85 478.72 123.53 550.68 126.35 552.1 168.67 478.72 157.85 478.72" fill="#ff9e2e"/><polygon points="125.11 551.48 126.35 552.1 168.67 478.72 125.11 551.48" fill="#fff" opacity="0.4"/><polygon points="144.41 515.88 141.49 514.78 157.85 478.72 130.44 536.18 130.44 536.18 130.09 536.92 130.09 536.92 127.28 542.82 127.28 542.82 127.05 543.31 123.53 550.68 124.88 551.36 128.47 543.46 129.08 543.5 128.54 543.3 131.4 537.01 132.91 537.11 131.58 536.61 133.75 531.84 135.89 531.98 134 531.27 136.21 526.4 139.44 526.61 136.6 525.54 138.65 521.04 141.78 521.25 139.02 520.21 141.09 515.66 144.41 515.88" fill="#d04000" opacity="0.4"/><path d="M177.55,553.61c17-8.24,36.66,4.9,52.48,23.6-9.3-7-18.87-12.17-28.39-14.8a32.22,32.22,0,0,0-6.53,18.86,42.87,42.87,0,0,0,.57,8.21c-3.68-6.77-5.77-13.32-5.59-19.15a19.94,19.94,0,0,1,1.15-6.16A38.67,38.67,0,0,0,177.67,583a52.09,52.09,0,0,0-2.28,9.59c-1.78-9-1.84-17.29.44-23.89a23.15,23.15,0,0,1,4.12-7.39,42.3,42.3,0,0,0-10.42,3.48,49.81,49.81,0,0,0-8.3,5.12C165.8,562.4,171.24,556.66,177.55,553.61Z" transform="translate(-70.7 -5.24)" fill="#ff9e2e"/><path d="M169.58,563.87A16.7,16.7,0,0,1,180,561.26a42.3,42.3,0,0,0-10.42,3.48,49.81,49.81,0,0,0-8.3,5.12C163.89,567.85,167.39,565.21,169.58,563.87Z" transform="translate(-70.7 -5.24)" fill="#d04000" opacity="0.4"/><path d="M175.39,592.54c.49-3.38.43-7.82,1.06-10.34,1.42-5.66,6.12-14.14,14.79-18A38.67,38.67,0,0,0,177.67,583,52.09,52.09,0,0,0,175.39,592.54Z" transform="translate(-70.7 -5.24)" fill="#d04000" opacity="0.4"/><path d="M195.11,581.27c.22-7.36,1.06-15.89,5-21.15,9.51,2.63,20.59,10.12,29.89,17.09-9.3-7-18.87-12.17-28.39-14.8A32.22,32.22,0,0,0,195.11,581.27Z" transform="translate(-70.7 -5.24)" fill="#d04000" opacity="0.4"/><path d="M161.23,569.86c4.57-7.46,8.87-10.36,15.18-13.42,10.17-4.92,24-2.58,36.86,4.59-11.79-8.87-24.34-12.93-35.72-7.42C171.24,556.66,165.8,562.4,161.23,569.86Z" transform="translate(-70.7 -5.24)" fill="#fff" opacity="0.4"/><path d="M196.42,520.66c1.89,12.19,15,19.42,26.05,14l.74-.38a69,69,0,0,0,22.47-20.68c7.79-12,6.53-25-5.48-32.8s-30.21-7.45-38,4.56C197.2,493,194.53,508.48,196.42,520.66Z" transform="translate(-70.7 -5.24)" fill="#986038"/><path d="M210.14,486.4a27.54,27.54,0,0,1,13.91-10.85c-8.64-.48-17.15,2.51-21.86,9.76-5,7.7-7.66,23.17-5.77,35.35a18.66,18.66,0,0,0,5.83,10.91C200.23,515.71,203.75,496.25,210.14,486.4Z" transform="translate(-70.7 -5.24)" fill="#fff" opacity="0.3"/><path d="M248.31,489.3a37.68,37.68,0,0,1-5.22,16.78c-5.23,9.19-16.11,21.36-27.47,28.42l-.93.55a24.47,24.47,0,0,1-2.52,1.24,17.56,17.56,0,0,0,10.3-1.68l.74-.38a69,69,0,0,0,22.47-20.68C251.06,505.25,252.12,496.49,248.31,489.3Z" transform="translate(-70.7 -5.24)" opacity="0.2"/><path d="M464.19,242.65c-16.15-46.92-119.81,0-193,16.57-20.93,4.75-41.77,40.95-54.4,30.06-66.68-57.49-103.51,11-103.51,72.05s55.37,135,113.65,144.15C514.06,550.6,515.19,390.87,464.19,242.65Z" transform="translate(-70.7 -5.24)" fill="#986038"/><path d="M117,390c13.3,53.53,60.58,107.74,109.94,115.49q25.49,4,48,5.9-33.57-9.35-72.82-24.46C163.34,471.93,131.66,432.21,117,390Z" transform="translate(-70.7 -5.24)" opacity="0.15"/><path d="M464.19,242.65c-3.29-9.56-10.22-15.22-19.77-18a142.65,142.65,0,0,1,16.86,49.45,105.53,105.53,0,0,1,.91,20.12,297.63,297.63,0,0,0,1.63,51.35c6.85,57.63-.92,110-36,144.58C509,445.06,498.14,341.3,464.19,242.65Z" transform="translate(-70.7 -5.24)" opacity="0.15"/><path d="M151.67,272.16c12.17,1.53,26,8.49,41.52,22.67,5.72,5.24,13.14.2,21.49-7.35C189,266.19,167.88,263.68,151.67,272.16Z" transform="translate(-70.7 -5.24)" fill="#fff" opacity="0.35"/><path d="M307.07,93.92c11.34,1.08,30.42-27.09,32.51-49.14S326,6.36,314.61,5.29s-14,13.55-16.08,35.6S295.73,92.85,307.07,93.92Z" transform="translate(-70.7 -5.24)" fill="#c1272d"/><path d="M314.61,5.29C310,4.86,306.83,7,304.55,11.2a9.66,9.66,0,0,1,5-.58C320.82,12,336.09,28.77,333.4,50.76c-1.85,15.17-11.86,33-21.6,42.19,11.26-5.13,26-29,27.78-48.17C341.67,22.72,326,6.36,314.61,5.29Z" transform="translate(-70.7 -5.24)" fill="#fff" opacity="0.4"/><path d="M302.78,98.08c9.15-6.78,4.52-40.49-8.67-58.29s-35.81-19.46-45-12.68S247.79,46.55,261,64.35,293.64,104.86,302.78,98.08Z" transform="translate(-70.7 -5.24)" fill="#c1272d"/><path d="M254.29,35.36c9-6.71,31.29-5.15,44.54,12.12a55.93,55.93,0,0,0-4.72-7.69c-13.19-17.8-35.81-19.46-45-12.68-7.46,5.53-3.66,15,5.14,27.9C249.48,46.25,248.52,39.64,254.29,35.36Z" transform="translate(-70.7 -5.24)" fill="#fff" opacity="0.4"/><path d="M286.27,97.76c2.94-8-13.72-27.14-29.24-32.88s-30.33,2.47-33.27,10.45,7.09,12.7,22.6,18.43S283.32,105.74,286.27,97.76Z" transform="translate(-70.7 -5.24)" fill="#c1272d"/><path d="M231.05,79.47c2.64-7.14,12.54-14.79,24.07-15.22-14.8-4.42-28.54,3.43-31.36,11.08-1.89,5.09,1.53,8.86,8.28,12.41A8.29,8.29,0,0,1,231.05,79.47Z" transform="translate(-70.7 -5.24)" fill="#fff" opacity="0.4"/><path d="M272.87,93.21c-42.36-.07-75,34.52-73.27,69.41,1.7,35.09,34.35,57.76,73.27,57.88,38.92-.12,71.58-22.79,73.27-57.88C347.89,127.73,315.24,93.14,272.87,93.21Z" transform="translate(-70.7 -5.24)" fill="#d6c6b6"/><path d="M470.41,247.84c-9-28.34-26.43-59.26-43.65-86.78a33.78,33.78,0,0,0,8.43-20.9c1.08-21.73-19.26-43.29-45.65-43.24a47.49,47.49,0,0,0-14,2.09l-.42-.36c-14.91-12.9-31.34-22.36-50-27.05a68.59,68.59,0,0,0-15.56-2h-.12c-9.67-.24-16,2.37-21.23,4-11.43,4.24-22,11.61-31.68,21.29-34.07,7.44-58.38,37.44-56.87,67.66a54.34,54.34,0,0,0,6,22.49c-9.14,26.58-18.29,53.72-21.65,78.85-1.43,7.44,2.31,25.3,15.61,27.85,7.15,1.37,13.09.1,17.27-2.53C220,296.9,226.89,305.5,236.76,305c9.7-.54,16.16-5.12,18.88-10.46.18,6.54,4,14.16,13.45,17.89,9.6,3.81,21.72-2.57,28.18-8.93,3.78,6.62,11.24,13,20.16,12a24.42,24.42,0,0,0,18.3-11.74,29.8,29.8,0,0,0,16.83,7.38c7.46.78,13.47-3.79,17.48-9.31a29.68,29.68,0,0,0,18.32,4.14c9.18-.87,14.62-9.24,16.92-16.87a29.9,29.9,0,0,0,17.52,3.67c8.44-.81,13.72-7.94,16.3-15,4.17,2.52,10,3.71,17,2.37,9.75-1.87,13.56-16.07,14.89-23.57A18.2,18.2,0,0,0,470.41,247.84Z" transform="translate(-70.7 -5.24)" fill="#ba9476"/><path d="M375.5,99l-.42-.36c-12.56-10.87-26.2-19.3-41.37-24.48,12.9,6,24.7,15.27,35.67,27.21A47.11,47.11,0,0,1,375.64,99Z" transform="translate(-70.7 -5.24)" fill="#998675" opacity="0.2"/><path d="M256.47,95a77.35,77.35,0,0,1,10.2-1.51c7.25-8.39,14.94-14.94,23.06-19.24,2.12-1,4.42-2.15,7.06-3.2-3.31.82-6.11,1.85-8.64,2.66C276.72,77.91,266.15,85.28,256.47,95Z" transform="translate(-70.7 -5.24)" fill="#998675" opacity="0.2"/><path d="M215.16,179.56a58.81,58.81,0,0,1-6.74-23.32c-1.16-14.46,3.11-29.05,11.32-41.47-13.26,13-21,30.39-20.14,47.85a54.34,54.34,0,0,0,6,22.49c-9.14,26.58-18.29,53.72-21.65,78.85-1.43,7.44,2.31,25.3,15.61,27.85a26.11,26.11,0,0,0,12.94-.53c-13.18-2.43-17.45-20.8-16.29-28.57C198.7,236.32,206.92,207.64,215.16,179.56Z" transform="translate(-70.7 -5.24)" fill="#fff" opacity="0.35"/><path d="M368.55,303.65l.29-.35-.07,0Zm101.86-55.81c-9-28.34-26.43-59.26-43.65-86.78a33.78,33.78,0,0,0,8.43-20.9c.64-13-6.33-25.86-17.67-34.15a42.84,42.84,0,0,1,3.05,14.52,39.44,39.44,0,0,1-6.71,23.63c19.42,29,39.35,61.78,50.61,92.33a22,22,0,0,1,1.3,9.46c-.71,8.35-3.35,24.28-12.92,27.05-6.88,2-12.8,1.12-17.17-1.35-2,8-6.68,16.22-15,17.73a27.64,27.64,0,0,1-17.77-2.74c-1.48,7.55-5.34,15.92-12.46,18.91,7.94-1.82,12.73-9.49,14.86-16.53a29.9,29.9,0,0,0,17.52,3.67c8.44-.81,13.72-7.94,16.3-15,4.17,2.52,10,3.71,17,2.37,9.75-1.87,13.56-16.07,14.89-23.57A18.2,18.2,0,0,0,470.41,247.84Z" transform="translate(-70.7 -5.24)" fill="#998675" opacity="0.2"/><path d="M279.18,96.89a87.08,87.08,0,0,1,28.74,4.8,75.69,75.69,0,0,0-35.05-8.48C237.71,93.15,209.25,117,201.58,145,214.13,118,243.68,96.83,279.18,96.89Z" transform="translate(-70.7 -5.24)" fill="#fff" opacity="0.3"/><path d="M393.47,99.21a54.13,54.13,0,0,1,17.9,3,47.16,47.16,0,0,0-21.83-5.28c-21.91,0-39.64,14.8-44.42,32.28C352.94,112.36,371.35,99.17,393.47,99.21Z" transform="translate(-70.7 -5.24)" fill="#fff" opacity="0.3"/><path d="M411.57,105.47c-31.49-.06-55.76,25.66-54.46,51.59s25.53,42.93,54.46,43c28.93-.09,53.21-16.94,54.47-43S443.07,105.41,411.57,105.47Z" transform="translate(-70.7 -5.24)" fill="#ffe7d4"/><path d="M418.55,105.88c23.17,6.9,39.27,28,38.21,49.25-1.26,26.08-25.53,42.93-54.47,43a71.78,71.78,0,0,1-9.58-.67,69.74,69.74,0,0,0,18.86,2.6c28.93-.09,53.21-16.94,54.47-43C467.24,133.08,446.57,109.28,418.55,105.88Z" transform="translate(-70.7 -5.24)" fill="#e75400" opacity="0.2"/><path d="M265.83,102.47c-42.37-.07-75,34.52-73.27,69.41,1.69,35.09,34.35,57.76,73.27,57.88,38.92-.12,71.58-22.79,73.27-57.88C340.85,137,308.2,102.4,265.83,102.47Z" transform="translate(-70.7 -5.24)" fill="#ffe7d4"/><path d="M283.72,224.1C244.8,224,212.14,200,210.45,162.77c-.91-19.43,7.67-38.76,22.16-52.74-24.93,12.07-41.29,36.89-40.05,61.85,1.69,35.09,34.35,57.76,73.27,57.88a89.93,89.93,0,0,0,36.91-7.71A90.34,90.34,0,0,1,283.72,224.1Z" transform="translate(-70.7 -5.24)" fill="#e75400" opacity="0.2"/><path d="M301.88,153a12.19,12.19,0,1,1-9.27-10.62A21.44,21.44,0,1,0,301.88,153Z" transform="translate(-70.7 -5.24)" fill="#51364d"/><path d="M266.63,180.71a5.81,5.81,0,1,0-5.81-5.81A5.82,5.82,0,0,0,266.63,180.71Z" transform="translate(-70.7 -5.24)" fill="#fff"/><path d="M259,182.53a1.82,1.82,0,1,0-1.81-1.82A1.81,1.81,0,0,0,259,182.53Z" transform="translate(-70.7 -5.24)" fill="#fff"/><path d="M380.13,152.09a5.17,5.17,0,0,1,.54-.11,5.49,5.49,0,1,1-4.61,6.25,5.6,5.6,0,0,1,0-1.29,9.67,9.67,0,1,0,7.57-6.09A9.73,9.73,0,0,0,380.13,152.09Z" transform="translate(-70.7 -5.24)" fill="#51364d"/><path d="M379.46,170.35a2.52,2.52,0,1,0-2.51-2.52A2.51,2.51,0,0,0,379.46,170.35Z" transform="translate(-70.7 -5.24)" fill="#fff"/><path d="M376.16,171.13a.79.79,0,1,0-.78-.78A.78.78,0,0,0,376.16,171.13Z" transform="translate(-70.7 -5.24)" fill="#fff"/><path d="M343.48,247.24c-11-8.92-31,13.79-44.33,31.89s-21,31.18-10,40.1,36.57,10.28,49.89-7.81S354.51,256.15,343.48,247.24Z" transform="translate(-70.7 -5.24)" fill="#c1272d"/><path d="M299.61,321.79c-11.5-9.8-4.56-26.17,7.75-49,2.09-3.88,4.36-7.92,6.75-11.93a208.57,208.57,0,0,0-15,18.29c-13.32,18.09-21,31.18-10,40.1,3.95,3.2,9.77,5.42,16.23,6.13A23.34,23.34,0,0,1,299.61,321.79Z" transform="translate(-70.7 -5.24)" fill="#fff" opacity="0.4"/><path d="M432.68,272.68C427,254.59,403.18,235.3,392,238.84s-5.55,28.57.17,46.67,10.81,29.78,22,26.24S438.41,290.77,432.68,272.68Z" transform="translate(-70.7 -5.24)" fill="#c1272d"/><path d="M398.34,281.61c-2.75-10.15-7.83-24.61-11.43-37.72-3.66,9,.77,27.45,5.25,41.62,5.27,16.63,10,27.86,19.42,26.8C406.09,307.85,402.38,296.51,398.34,281.61Z" transform="translate(-70.7 -5.24)" fill="#fff" opacity="0.4"/><path d="M313.45,233c-.19.22,9.78,58.87,54.49,51.73C387.19,281.67,436,214,436,214S346.38,207.54,313.45,233Z" transform="translate(-70.7 -5.24)" fill="#ff9e2e"/><path d="M364.28,276.05c-25.15,4-39.31-12.79-46.85-28.3,6.14,16.92,20.5,41.78,50.51,37,10.24-1.63,28.85-21.57,44-39.87C392,260.7,372.39,274.76,364.28,276.05Z" transform="translate(-70.7 -5.24)" opacity="0.1"/><path d="M417.16,238.51c6.09-7.55,11.29-14.38,14.67-18.91-20.6-2.29-73.75-6.58-104.95,5.81a67.46,67.46,0,0,0-9.89,5.11C335.52,225.18,373.55,229.91,417.16,238.51Z" transform="translate(-70.7 -5.24)" opacity="0.1"/><path d="M429.32,169.56c-14.32-13.72-35.61,41.56-61,27.06s-54.7,36.47-54.84,36.39c34.63-9.54,102.58-.08,137.22,4.06C450.88,236.86,440.5,179.86,429.32,169.56Z" transform="translate(-70.7 -5.24)" fill="#ff9e2e"/><path d="M429.32,169.56c-14.32-13.72-35.61,41.56-61,27.06-13.09-7.46-27.19,2.41-37.82,13.75,11.61-9,26.29-15.82,37.69-9.32,25.42,14.5,45.16-25.62,59.48-11.91,11.19,10.3,23.24,47.72,23,47.93C450.88,236.86,440.5,179.86,429.32,169.56Z" transform="translate(-70.7 -5.24)" fill="#fff" opacity="0.4"/><path d="M429.32,169.56c-14.32-13.72-35.61,41.56-61,27.06-11.8-6.73-24.43.64-34.58,10.46,10.9-8.82,23.79-14.94,35-8.53,25.42,14.5,43.44-36.57,59.69-26.81,5.33,3.2,10.15,15.25,13.93,28.14C438.64,186.64,434.05,173.91,429.32,169.56Z" transform="translate(-70.7 -5.24)" fill="#fff" opacity="0.2"/><path d="M351.25,204.3s-2.56,3.41.84,3.38c1.47,0,8.47-3.45,8.47-3.45S354.87,203.13,351.25,204.3Z" transform="translate(-70.7 -5.24)" opacity="0.2"/><path d="M251.54,425.07c-8,8.79-46.28,26.24-61.81,25.11s-23.4-13.64-21.73-21.43,12.23-7.92,27.76-6.79S256.82,419.24,251.54,425.07Z" transform="translate(-70.7 -5.24)" fill="#754c24"/><path d="M195.11,444.05c-13.68-.73-23-6.19-27.28-12.07.67,7.61,8.38,17.22,21.9,18.2,9.09.66,26-5.05,40.05-11.66C216.37,442.11,203.38,444.49,195.11,444.05Z" transform="translate(-70.7 -5.24)" fill="#fff" opacity="0.4"/><path d="M215.28,397.05c-5,8.26-31.54,5.57-45.88-5.24s-16.34-30.5-11.32-38.76,15.17-2,29.51,8.84S220.3,388.79,215.28,397.05Z" transform="translate(-70.7 -5.24)" fill="#754c24"/><path d="M207.1,412.16c-2,9.53-28.6,19.46-46.12,16.67s-26.15-19-24.09-28.56,14-8.74,31.51-5.95S209.15,402.63,207.1,412.16Z" transform="translate(-70.7 -5.24)" fill="#754c24"/><path d="M172.61,427.85c-22.76-3-34-20.32-31.29-30.49a9.15,9.15,0,0,1,2.17-4c-3.52,1.08-5.81,3.21-6.6,6.91-2.06,9.53,6.56,25.78,24.09,28.56a52.22,52.22,0,0,0,17.09-.53Q175.25,428.2,172.61,427.85Z" transform="translate(-70.7 -5.24)" fill="#fff" opacity="0.4"/><path d="M215.54,407.58c-5,8.27-67-4.61-81.3-15.42s-16.34-30.5-11.32-38.76,15.17-2,29.5,8.84S220.56,399.32,215.54,407.58Z" transform="translate(-70.7 -5.24)" fill="#999"/><path d="M267.5,398.44c3.17,22-37.27,42.42-55.91,40.48s-25.72-24.15-22.16-38c1.76-6.8-6.47-42-1.45-38.7C201.27,371.1,215.65,386,225.13,387,243.77,388.92,265.46,384.35,267.5,398.44Z" transform="translate(-70.7 -5.24)" fill="#754c24"/><path d="M192.49,369.4a111,111,0,0,0,25.11,14.76c-8.58-4.84-19.08-14.78-29-21.53l-1-.74c-14.34-10.81-24.48-17.11-29.51-8.84-4.38,7.2-3.41,23.11,6.43,34.23-5.46-8.13-8.53-17.73-5-25C166,349.09,185.45,363.72,192.49,369.4Z" transform="translate(-70.7 -5.24)" fill="#fff" opacity="0.4"/><path d="M215.54,407.58c-5,8.27-67-4.61-81.3-15.42s-16.34-30.5-11.32-38.76,15.17-2,29.5,8.84S220.56,399.32,215.54,407.58Z" transform="translate(-70.7 -5.24)" fill="#754c24"/><path d="M122.92,353.4c-5,8.26-3,28,11.32,38.76.35.27.73.53,1.14.8-8.4-9.84-10.31-23.18-7.14-30,4-8.79,14.84-3.69,30.32,5.42a125.42,125.42,0,0,0,14.09,6.51c-8.48-5-16-9.44-20.23-12.6C138.09,351.43,127.94,345.13,122.92,353.4Z" transform="translate(-70.7 -5.24)" fill="#fff" opacity="0.4"/><path d="M250.3,407.63c-1,9.53-54.43,21-69.59,16.42S157,402,158,392.51s11.26-7.54,26.41-3S251.31,398.1,250.3,407.63Z" transform="translate(-70.7 -5.24)" fill="#754c24"/><path d="M158,392.51c-1,9.53,7.59,27,22.75,31.54.37.11.77.21,1.18.31-10.13-5.93-16.39-17.53-16.34-25.08.06-9.64,10.38-9,25.83-6.42a94.63,94.63,0,0,0,13.43.7c-8.45-1.39-16-2.68-20.44-4C169.22,385,159,383,158,392.51Z" transform="translate(-70.7 -5.24)" fill="#fff" opacity="0.4"/><g opacity="0.2"><path d="M202.82,431c-5.2.12-8.68.42-8.75,2.34s3.33,4.74,8.53,4.62,12.29-3.05,12.36-5S208,430.89,202.82,431Z" transform="translate(-70.7 -5.24)" opacity="0.4"/><path d="M206.75,423.89c.65-1.81-5.94-4.15-10.93-5.64s-8.39-2.28-9-.47,1.7,5.53,6.69,7S206.1,425.7,206.75,423.89Z" transform="translate(-70.7 -5.24)" opacity="0.4"/><path d="M215.13,423.25c-3.39,0-5.66.15-5.77,1.86s2,4.3,5.38,4.33,8.1-2.39,8.21-4.1S218.52,423.27,215.13,423.25Z" transform="translate(-70.7 -5.24)" opacity="0.4"/></g><path d="M440.4,380.35c-.93-11.11-8.36-25.89-12.66-25.77s-3.85,15.11-2.92,26.22,2,18.52,6.34,18.39S441.33,391.46,440.4,380.35Z" transform="translate(-70.7 -5.24)" fill="#fff" opacity="0.4"/><path d="M408.41,373.33c-4.12-1.15-8.52,13.26-11.22,24.12s-4,18.25.09,19.4,12.15-4.37,14.85-15.23S412.54,374.48,408.41,373.33Z" transform="translate(-70.7 -5.24)" fill="#fff" opacity="0.4"/><path d="M396,360c-.37-7.24-6.37-17-10.21-17s-4.05,9.76-3.68,17,1.05,12.08,4.89,12.09S396.34,367.23,396,360Z" transform="translate(-70.7 -5.24)" fill="#fff" opacity="0.4"/><path d="M371.92,431.18c-3.09-1.27-7.48,9.51-10.32,17.69s-4.38,13.79-1.29,15.06,9.66-2.29,12.49-10.47S375,432.44,371.92,431.18Z" transform="translate(-70.7 -5.24)" fill="#fff" opacity="0.4"/><path d="M321.7,444.88c-5.31,6.83-8.57,11.63-6,13.73s9.95.73,15.26-6.1,8.8-19.06,6.24-21.16S327,438.05,321.7,444.88Z" transform="translate(-70.7 -5.24)" fill="#fff" opacity="0.4"/><path d="M366.49,396.43c2.6-6.77,1.06-18.13-2.44-19.69S356.4,384,353.8,390.79s-3.94,11.47-.44,13S363.89,403.2,366.49,396.43Z" transform="translate(-70.7 -5.24)" fill="#fff" opacity="0.4"/><path d="M230.22,252.6c.61-6.7,5.49-15.61,8.32-15.53s2.53,9.1,1.92,15.8S239.12,264,236.29,264,229.6,259.29,230.22,252.6Z" transform="translate(-70.7 -5.24)" fill="#fff" opacity="0.4"/><path d="M263.79,253.44c3.44.05,4.76,10,5.26,17.43s.46,12.35-3,12.3-9-5.06-9.48-12.46S260.34,253.4,263.79,253.44Z" transform="translate(-70.7 -5.24)" fill="#fff" opacity="0.4"/><path d="M206.22,258.47c.31-5.91,5.2-13.86,8.33-13.87s3.3,8,3,13.86-.85,9.84-4,9.85S205.92,264.37,206.22,258.47Z" transform="translate(-70.7 -5.24)" fill="#fff" opacity="0.4"/><path d="M230.25,288.17c-2.11-5.52-.86-14.78,2-16.05s6.24,5.93,8.36,11.45,3.21,9.35.35,10.62S232.37,293.69,230.25,288.17Z" transform="translate(-70.7 -5.24)" fill="#fff" opacity="0.4"/></g></svg>