<svg xmlns="http://www.w3.org/2000/svg" xmlns:xlink="http://www.w3.org/1999/xlink" viewBox="0 0 498.15 578.77"><defs><clipPath id="a" transform="translate(-50.92 -10.61)"><rect width="600" height="600" fill="none"/></clipPath></defs><g clip-path="url(#a)"><path d="M285.9,552.78q-4.38,2.55-8.81,5.09Q283.78,569.15,291,580q2.33-9,4.72-18,8.07-.91,16.1-2-8.18-6.28-16.1-12.89Q290.83,550,285.9,552.78Z" transform="translate(-50.92 -10.61)" fill="#534741"/><path d="M295.71,547.14a636.14,636.14,0,0,1-14.39-65.79q-22.5,5.53-45.55,10.06a519.37,519.37,0,0,0,41.32,66.46q3.74-1,7.46-2.07a18.07,18.07,0,0,0,11.16-8.66Z" transform="translate(-50.92 -10.61)" fill="#f79594"/><path d="M298.7,554.21c4.65,1.78,9.75,3.24,13.11,5.82q-8.18-6.28-16.1-12.89a636.14,636.14,0,0,1-14.39-65.79c3.3,20.06,3.77,42.24,8.07,62A15,15,0,0,0,298.7,554.21Z" transform="translate(-50.92 -10.61)" fill="#fff" opacity="0.4"/><path d="M250.16,517.17q12.54,21,26.93,40.7Q283.78,569.15,291,580c-4.8-7.25-4.34-16.3-8.79-23.81C273.83,544.79,261.56,531.07,250.16,517.17Z" transform="translate(-50.92 -10.61)" fill="#b75554" opacity="0.2"/><path d="M101.32,480.84c.1-.64.2-1.28.29-1.93a79.68,79.68,0,0,0,.71-15.45h0c.82-.26,1.63-.54,2.44-.82,5.53-1.91,10.93-4,16.24-6.31-4.31-5.52-9.73-14.66-8.79-13-4,2.1-8,4.09-12.13,5.92a54.36,54.36,0,0,0-2.76-7.83,42.43,42.43,0,0,0-3.1-5.83c-.6-.94-1.26-1.86-2-2.76a23.45,23.45,0,0,0-2.41-2.58,19.81,19.81,0,0,0-6.14-3.95A18,18,0,0,0,76.21,425a21.59,21.59,0,0,0-7.28,1.71,28.29,28.29,0,0,0-6.22,3.69,33.11,33.11,0,0,0-9,10.95,26.28,26.28,0,0,0-2.44,7.09,22,22,0,0,0-.32,3.3h0c0,.38,0,.77,0,1.16,0,.12,0,.24,0,.36l0,.47c0,.23,0,.45.09.68s0,.23,0,.34c0,.26.08.52.14.77l.06.28q.1.48.24,1t.36,1.08a14.33,14.33,0,0,0,1,2.1c.19.34.4.68.62,1a16.11,16.11,0,0,0,3.16,3.42c.3.24.6.46.91.68a21.23,21.23,0,0,0,6.73,3A32.1,32.1,0,0,0,70,469c.62.05,1.23.08,1.83.1a54.92,54.92,0,0,0,7.07-.25c1.72-.18,3.41-.41,5.09-.69,1.11-.18,2.22-.39,3.31-.62s2.19-.46,3.26-.72l1.62-.4q3.66-.92,7.22-2a77.1,77.1,0,0,1,.35,14.34c0,.64-.09,1.28-.14,1.92A.86.86,0,0,0,101.32,480.84ZM68.17,457.57q-.6-.06-1.17-.15a13,13,0,0,1-2.09-.52,7.52,7.52,0,0,1-1.66-.79,4.94,4.94,0,0,1-2-2.37A6.75,6.75,0,0,1,61,453c0-.14-.07-.3-.1-.45l-.06-.35c0-.22-.06-.44-.07-.66,0-.06,0-.11,0-.17,0-.27,0-.54,0-.82s0-.5,0-.76A17.28,17.28,0,0,1,61.92,445a24.62,24.62,0,0,1,6-8.71,17,17,0,0,1,9-4.67,11.55,11.55,0,0,1,4.85.37,14.08,14.08,0,0,1,4.56,2.42,18.15,18.15,0,0,1,2,1.83,25.93,25.93,0,0,1,1.82,2.18,38.51,38.51,0,0,1,3.13,5,49.84,49.84,0,0,1,3.22,7.45c-.82.35-1.65.68-2.48,1-1.81.73-3.63,1.42-5.46,2.05-.93.32-1.86.63-2.8.92a72.87,72.87,0,0,1-8.37,2.13c-1.38.26-2.76.46-4.11.59A26.75,26.75,0,0,1,68.17,457.57Z" transform="translate(-50.92 -10.61)" fill="#f79594"/><path d="M64.07,457.53a5.75,5.75,0,0,1-2-2.41,5.42,5.42,0,0,0,1.17,1A9.94,9.94,0,0,0,67,457.42a31.09,31.09,0,0,0,10.41-.48,79.72,79.72,0,0,0,11.17-3.05c2.66-.92,5.3-2,7.94-3.06,1.06-.44,2.11-.9,3.16-1.36l.58-.26c3.86-1.74,7.69-3.61,11.48-5.58-3.34,2-6.72,3.86-10.12,5.62-.2.1-.38.21-.58.3-1.06.54-2.12,1.07-3.19,1.59-2.65,1.29-5.32,2.49-8,3.57a74.25,74.25,0,0,1-11.3,3.6,28.48,28.48,0,0,1-10.6.66A9.9,9.9,0,0,1,64.07,457.53Z" transform="translate(-50.92 -10.61)" fill="#fff" opacity="0.4"/><path d="M72,469.1a33.84,33.84,0,0,1-7.49-1,20.73,20.73,0,0,1-7.64-3.69A16.11,16.11,0,0,1,53.72,461a15.07,15.07,0,0,1-2-4.19,18,18,0,0,1-.34-8.33,26.62,26.62,0,0,1,2.43-7.09,33,33,0,0,1,9-10.95,28.06,28.06,0,0,1,6.22-3.69A21.48,21.48,0,0,1,76.39,425h.11a23,23,0,0,0-5.1,1.47,28.38,28.38,0,0,0-6.21,3.69,33,33,0,0,0-9,11,25.82,25.82,0,0,0-2.43,7.09,17.93,17.93,0,0,0,.34,8.32,14.67,14.67,0,0,0,2,4.19,16.11,16.11,0,0,0,3.16,3.42,20.35,20.35,0,0,0,7.64,3.69,33.78,33.78,0,0,0,7.48,1,54.1,54.1,0,0,0,6.27-.19l-1.5.17A54.7,54.7,0,0,1,72,469.1Z" transform="translate(-50.92 -10.61)" fill="#fff" opacity="0.4"/><path d="M90.17,438.42a25.93,25.93,0,0,0-1.82-2.18,18.15,18.15,0,0,0-2-1.83A14.08,14.08,0,0,0,81.79,432a11.72,11.72,0,0,0-3.31-.47l.75-.14a11.46,11.46,0,0,1,4.86.38,13.81,13.81,0,0,1,4.55,2.41,16.51,16.51,0,0,1,2,1.83,27.75,27.75,0,0,1,1.83,2.18,41.15,41.15,0,0,1,3.13,5,50.36,50.36,0,0,1,3,6.8l-2.06.89a49.84,49.84,0,0,0-3.22-7.45A38.51,38.51,0,0,0,90.17,438.42Z" transform="translate(-50.92 -10.61)" fill="#b75554" opacity="0.4"/><path d="M121.18,456.33c-5.31,2.27-10.71,4.4-16.24,6.31-.81.28-1.63.56-2.44.82-1,.32-2,.63-2.93.93q-3.55,1.11-7.22,2a91.38,91.38,0,0,1-13.28,2.43c-1,.09-1.94.16-2.93.21a61.7,61.7,0,0,0,7.74-1A102.43,102.43,0,0,0,98.3,464c2.63-.93,5.21-1.94,7.76-3,1-.43,4.87-2.1,5.74-2.49q4.08-1.86,8.07-3.86Z" transform="translate(-50.92 -10.61)" fill="#b75554" opacity="0.4"/><polygon points="362.67 329.87 371.64 319.67 399.58 319.8 380.25 333.02 387.55 347.66 362.09 340.46 362.67 329.87" fill="#534741"/><path d="M422.56,330.19h0a32.79,32.79,0,0,1-7.76,18.7L413,351l-73.39-7.81,7-36.49Z" transform="translate(-50.92 -10.61)" fill="#f79594"/><polygon points="387.55 347.56 362.09 340.36 288.7 332.55 362.17 336.43 387.55 347.56" fill="#b75554" opacity="0.2"/><path d="M349.15,307.56l73.41,22.72h0l27.95.13-15.19,5.07a43.57,43.57,0,0,1-32.74-2.09Z" transform="translate(-50.92 -10.61)" fill="#fff" opacity="0.4"/><path d="M101.74,436c68.65,110.44,187.11,88.43,254.85,32.22a109.89,109.89,0,0,0,17.05-17.67c.24-.32.48-.63.71-.95.52-.69,1-1.38,1.53-2.08l.69-1c.54-.78,1.07-1.56,1.59-2.35l.45-.68c.67-1,1.33-2.1,2-3.17l.12-.21c.59-1,1.16-2,1.72-3l.38-.7c.49-.9,1-1.8,1.43-2.72l.3-.6c1.14-2.27,2.19-4.57,3.17-6.91l.06-.17q.69-1.65,1.32-3.33l.18-.46c.42-1.12.82-2.25,1.21-3.38a.88.88,0,0,1,0-.15c.42-1.24.81-2.48,1.19-3.73h0a131.08,131.08,0,0,0,4.48-21.2c0-.11,0-.22,0-.34.11-.88.21-1.77.31-2.66,0-.18,0-.36.05-.54.09-.86.18-1.73.25-2.6,0-.14,0-.29,0-.43.25-3.1.42-6.23.49-9.38v-.22a2.77,2.77,0,0,0-1.58-2.92v-.33a3,3,0,0,0,1.62-3.05v-.05c-.09-3.24-.23-6.5-.47-9.77v-.08c-.08-1.07-.16-2.13-.26-3.2v-.08c-.1-1.08-.2-2.17-.32-3.26h0a234,234,0,0,0-14.21-57.42c-23.77,10.84-60.5,17.25-80.45,19.63-60.24,7.2-119-52.92-115.88-128,2.38-56.31,38.17-90.69,82.3-109C259,78,247.62,81.19,232.89,91.42,124.73,166.56,55.31,361.33,101.74,436Z" transform="translate(-50.92 -10.61)" fill="#f79594"/><path d="M101.74,436c26.23,42.19,59.73,65.05,94.9,74.06-24.74-13.83-47.82-36.71-67.08-71C91.71,371.75,129.26,217.47,202,117,112.14,203.89,59.9,368.71,101.74,436Z" transform="translate(-50.92 -10.61)" fill="#b75554" opacity="0.2"/><path d="M267.94,80.06l-.86.47,1-.44ZM101.74,436c21.08,33.91,46.85,55.33,74.42,67.11C154.32,490.06,134,470,116.8,441.37,70.25,363.94,139.38,162.3,247.43,84.63q2.64-1.89,5.13-3.47c-5.81,1.81-12.32,5.15-19.67,10.26C124.73,166.56,55.31,361.33,101.74,436Z" transform="translate(-50.92 -10.61)" fill="#b75554" opacity="0.2"/><path d="M204.93,359.81c2.1-.35,3.4-3.39,2.9-6.79s-2.61-5.86-4.72-5.51-3.4,3.39-2.9,6.79S202.82,360.16,204.93,359.81Z" transform="translate(-50.92 -10.61)" fill="#b75554" opacity="0.2"/><path d="M189.78,342.12c-.24-1.6-1.23-2.75-2.21-2.59s-1.6,1.59-1.36,3.18,1.22,2.75,2.21,2.59S190,343.71,189.78,342.12Z" transform="translate(-50.92 -10.61)" fill="#b75554" opacity="0.2"/><path d="M181.3,386.71c3.79-.63,6.14-6.11,5.23-12.24s-4.71-10.58-8.5-10-6.14,6.12-5.24,12.25S177.5,387.35,181.3,386.71Z" transform="translate(-50.92 -10.61)" fill="#b75554" opacity="0.2"/><path d="M176.66,348.82c-.42-2.87-2.21-5-4-4.66s-2.87,2.86-2.45,5.74,2.21,5,4,4.66S177.08,351.69,176.66,348.82Z" transform="translate(-50.92 -10.61)" fill="#b75554" opacity="0.2"/><ellipse cx="193.21" cy="413" rx="3.86" ry="6.22" transform="translate(-104.45 18.95) rotate(-7.69)" fill="#b75554" opacity="0.2"/><path d="M179,401.45c-.23-1.59-1.22-2.75-2.21-2.58s-1.59,1.58-1.36,3.18,1.23,2.75,2.21,2.58S179.2,403,179,401.45Z" transform="translate(-50.92 -10.61)" fill="#b75554" opacity="0.2"/><path d="M139.7,367.08c3.8-.64,6.14-6.12,5.24-12.24s-4.71-10.59-8.51-9.95-6.13,6.11-5.23,12.24S135.91,367.71,139.7,367.08Z" transform="translate(-50.92 -10.61)" fill="#b75554" opacity="0.2"/><ellipse cx="158.05" cy="401.2" rx="3.26" ry="5.26" transform="translate(-103.18 14.14) rotate(-7.69)" fill="#b75554" opacity="0.2"/><path d="M233.42,213.87,247,190.58A32,32,0,0,1,258,189c23.27.24,79.1,40.05,109.68,51.4,4.11,1.52,8.2,3.16,12.37,4.78-42.71,13.49-17.37,47.59-15.38,50.16-25.71,4.7-59.45,12.19-78.32,10.27L247.65,262.4C239.66,246.13,233.45,228,233.42,213.87Z" transform="translate(-50.92 -10.61)" fill="#b75554"/><path d="M362,295.84c-3.82-5-30.82-37.94,14.15-52.19l3.91,1.53c-42.71,13.49-17.37,47.59-15.38,50.16Z" transform="translate(-50.92 -10.61)" fill="#fff" opacity="0.4"/><path d="M305.67,256.45c8.17,14,8.88,32.63,3.79,49.35l-19.68,3.66L221.9,233.63l8.89-15.25C258.29,215.48,292.86,234.44,305.67,256.45Z" transform="translate(-50.92 -10.61)" fill="#73004e" opacity="0.4"/><path d="M310,206c12.06,5.21,16.24,23.84,10.08,35.18s-20.86,9.53-33.42,2.33-17.95-15.4-11.31-24.75S297.89,200.84,310,206Z" transform="translate(-50.92 -10.61)" fill="#e6e6e6"/><path d="M275.32,218.8c5.8-8.14,18.6-15.71,29.78-14.11-9.16,3.09-17.57,9.42-22.29,16.05-5.47,7.71-4.46,14.8,1.35,21.32C273.38,235.22,269.13,227.51,275.32,218.8Z" transform="translate(-50.92 -10.61)" opacity="0.1"/><path d="M366.72,228.22c10.12-1.05,20.1,9.9,20.33,19.86s-10.36,14.29-21.59,14.2-18-3.58-17.13-12.38S356.59,229.29,366.72,228.22Z" transform="translate(-50.92 -10.61)" fill="#e6e6e6"/><path d="M348.33,249.9c.7-7,5.55-16,12.64-19.83A38.15,38.15,0,0,0,354,247.59c-.73,7.48,2.59,12.13,8.91,14.6C353.24,261.61,347.53,258,348.33,249.9Z" transform="translate(-50.92 -10.61)" opacity="0.1"/><path d="M312.86,236.08c3.93-7.24,5-16.48,3.55-25.26,6.9,7.83,8.53,21.4,3.64,30.4-4.65,8.58-14.18,9.63-24,6.53A22.06,22.06,0,0,0,312.86,236.08Z" transform="translate(-50.92 -10.61)" fill="#fff" opacity="0.4"/><path d="M295.87,314.34c-9.91-1.42-16.77-14.27-14.55-23.84s13.39-11.15,24.09-8.36,16.3,7.73,13.33,15.92S305.81,315.76,295.87,314.34Z" transform="translate(-50.92 -10.61)" fill="#e6e6e6"/><path d="M318.74,298.06c-2.61,7.14-10.48,15.25-19,16.3a35.54,35.54,0,0,0,13.12-16.23c2.45-6.76.27-11.76-5.32-15.39C316.83,285.61,321.51,290.43,318.74,298.06Z" transform="translate(-50.92 -10.61)" fill="#fff" opacity="0.4"/><path d="M287.65,292.85c-1.42,6.1-.34,13.1,2.52,19.27-6.66-4.38-10.61-14-8.85-21.62,1.68-7.22,8.46-9.9,16.3-9.57A16.65,16.65,0,0,0,287.65,292.85Z" transform="translate(-50.92 -10.61)" opacity="0.1"/><path d="M379.18,251.39c-.2-8.91-6.66-18.45-14.95-22.67a13.91,13.91,0,0,1,2.49-.5c10.12-1.05,20.1,9.9,20.33,19.86.15,6.67-4.55,10.81-11,12.79A14,14,0,0,0,379.18,251.39Z" transform="translate(-50.92 -10.61)" fill="#fff" opacity="0.4"/><path d="M261.88,257.17c4.35-3.67,12.19-3.45,19-1.37,5.12,1.57,9.05,3.35,16.56,5.68,13.24,4.11,32.79,6.76,47.72,6.27,6.5-.21,13.75-1.53,19.19-2.37,11.57-1.8,22.91-2.51,32.89.76,7.69,2.52,10.91,4.55,17.27,8.11,4.36,2.44,6.71,8.21,5.91,11.28-1.14,4.36-8.67,10.63-16.48,7.58-7.22-2.82-11.76-6.64-20.82-9.83-7-2.46-21.78-3.73-29.09-4.69-14.18-1.86-42.49-6.6-56.21-10.62-7.21-2.12-21.38-8.19-29.64-5.19-9.42,3.42-7.13,23-8.22,26.12-1.42,4.07-3.3,21.33-5.48,14.8C251.35,294.35,251.68,265.77,261.88,257.17Z" transform="translate(-50.92 -10.61)" fill="#e68595"/><path d="M297.16,266.69c13.72,4,43.44,8.1,57.62,10,7.31,1,22.11,2.23,29.09,4.69,4.9,1.73,10.22,5.77,15.21,9.57-4.82-2.43-9.09-5.21-16-7.63s-21.78-3.73-29.09-4.69c-14.18-1.86-42.49-6.6-56.21-10.62-7.21-2.12-21.38-8.19-29.64-5.19C276.44,259.78,290,264.57,297.16,266.69Z" transform="translate(-50.92 -10.61)" fill="#73004e" opacity="0.2"/><path d="M263.2,256.25c4.52-1.2,10.28-.55,15.44,1.1s9.3,3.57,17,6.08c13.61,4.42,33.8,7.53,49.29,7.4,6.75-.05,14.3-1.2,19.95-1.92,12-1.52,23.62-3.62,33.88-.11,4.12,1.41,11.13,4.17,17.82,7a10.63,10.63,0,0,0-2.09-1.56c-6.36-3.56-9.58-5.59-17.27-8.11-10-3.27-21.32-2.56-32.89-.76-5.44.84-12.69,2.16-19.19,2.37-14.93.49-34.48-2.16-47.72-6.27-7.51-2.33-11.44-4.11-16.56-5.68C274.71,253.91,267.69,253.57,263.2,256.25Z" transform="translate(-50.92 -10.61)" fill="#fff" opacity="0.4"/><path d="M319.45,30.65c5.05-.89,16.14-19.75,16.14-19.75,12.28,2.28,25,9,30.85,19.37,0,0-21.57,14.13-34.23,19.59-11.16,4.82-29.63-2-36.34-12l-.54-.84c-.11-.22-.22-.45-.32-.68C290.66,26.74,309,32.5,319.45,30.65Z" transform="translate(-50.92 -10.61)" fill="#f79594"/><path d="M329.29,48.35c8.28-3.57,25.46-13.18,36.35-19.4.28.43.55.87.8,1.32,0,0-21.57,14.13-34.23,19.59-7.52,3.25-18.37,1.22-26.7-3.52C313.34,50,322.62,51.23,329.29,48.35Z" transform="translate(-50.92 -10.61)" fill="#b75554" opacity="0.4"/><path d="M335.59,10.9l1.29-.13C359.3,8.71,378,27.73,376,50l-.91,40.79-3.29-.49,0-1.14-3.29-.49a21.82,21.82,0,0,1-17.1-13.52l-20.54-52Z" transform="translate(-50.92 -10.61)" fill="#f79594"/><path d="M336.56,37.69l14.79,37.42a21.82,21.82,0,0,0,17.1,13.52l.1,0A24.71,24.71,0,0,1,357.2,77.41Z" transform="translate(-50.92 -10.61)" fill="#fff" opacity="0.4"/><path d="M370.58,89l.71-36.86c1.8-21.7-14.29-40.52-34.62-41.3l.21,0C359.3,8.71,378,27.73,376,50l-.91,40.79-3.29-.49,0-1.14Z" transform="translate(-50.92 -10.61)" fill="#fff" opacity="0.4"/><ellipse cx="383.7" cy="130.73" rx="45.99" ry="45.57" fill="#e6e6e6"/><path d="M465.83,166.24a62.61,62.61,0,0,0-29.12-70.42,46.47,46.47,0,0,1,9.81,1.51A45.4,45.4,0,0,1,461,178.67,62.87,62.87,0,0,0,465.83,166.24Z" transform="translate(-50.92 -10.61)" fill="#fff" opacity="0.4"/><path d="M175.81,189.21C178.87,115.29,237,77.84,297.92,64.58s137.39.84,150.77,61.19c1,4.57,2,9.44,2.88,14.56,1.5,0,3,0,4.37,0a127,127,0,0,1,19.29-6.54c8.68-6.14,17.68-10,26.42-10.16,34.85-.79,52.51,56.24,46.15,89.24-6.29,32.59-37.1,49.21-71.41,50.39-1.08.08-2.19.13-3.35.16a255.25,255.25,0,0,1-40.44-3c-23.69-1.48-53.17-4.86-69.94-10.42-29.23-9.69-69.42-47.75-91.69-47.87-54.73-.29.46,91.31,18.12,98.85,20.12,8.59,72.47-12.06,91.47-10.29a4.58,4.58,0,0,1,1.78,8.62c-24,12.65-65.52,20-87.4,22.65C233,329.42,172.58,267.08,175.81,189.21Z" transform="translate(-50.92 -10.61)" fill="#f79594"/><path d="M345.87,296.06c12.39-1.82,23.76-3.49,31.07-2.81a4.62,4.62,0,0,1,3.54,7l1.86-.95a4.58,4.58,0,0,0-1.78-8.62C373,290,360,292.89,345.87,296.06Z" transform="translate(-50.92 -10.61)" fill="#fff" opacity="0.4"/><path d="M268.23,321a86,86,0,0,0,26.71,1c20.73-2.49,59.07-9.24,83.45-20.7-28.24,9.92-75,17.15-93.62,19.39A81.21,81.21,0,0,1,268.23,321Z" transform="translate(-50.92 -10.61)" fill="#b75554" opacity="0.4"/><path d="M229.27,300.6c-31.45-22.64-53.52-63.89-51.57-111,.18-4.22.55-8.31,1.08-12.29a94.69,94.69,0,0,0-5.43,28.48C171.52,249.82,196.82,287.22,229.27,300.6Z" transform="translate(-50.92 -10.61)" fill="#fff" opacity="0.2"/><path d="M267.92,195.1c22.22-1.43,65.77,40.15,93.91,52.62a124.54,124.54,0,0,0,27.45,8.19A174.79,174.79,0,0,1,362.66,250c-29.23-9.69-69.42-47.75-91.69-47.87-54.73-.29.46,91.31,18.12,98.85,12.35,5.27,36.84-.47,58.31-5.29-22,5.63-46.73,12.09-58.79,6.94C271,295.11,207.22,199,267.92,195.1Z" transform="translate(-50.92 -10.61)" fill="#fff" opacity="0.4"/><g opacity="0.1"><path d="M181.23,156.71c23.17-40.84,68.18-75.63,112.18-91.1C243.82,77.42,196.93,105.56,181.23,156.71Z" transform="translate(-50.92 -10.61)"/></g><path d="M260.46,274.51c7.19,16.84,17.47,31.32,24.18,34.19,8.72,3.72,23.87.38,39.79-4.46-15.24,3-29.7,4.64-38.29,1C280,302.6,269.44,289.94,260.46,274.51Z" transform="translate(-50.92 -10.61)" fill="#b75554" opacity="0.4"/><path d="M444.37,146.79c25.78-2,39,41.73,34.24,66.22s-6.86,39.62-32.72,40.2-70.71-2.89-78.48-21.44C356.29,205.22,403.08,150,444.37,146.79Z" transform="translate(-50.92 -10.61)" fill="#f79594"/><path d="M501.65,123.68c34.85-.79,52.51,56.24,46.15,89.24s-37.89,49.65-72.74,50.44-59.81-14.57-53.44-47.57S466.81,124.47,501.65,123.68Z" transform="translate(-50.92 -10.61)" fill="#ffa2a1"/><path d="M427,213.82a104.78,104.78,0,0,1,7.6-22.57c-.74,2.92-1.35,5.74-1.82,8.43-5.46,31.61,7.95,51.66,31.31,60.77C438.23,256.62,421.71,241.37,427,213.82Z" transform="translate(-50.92 -10.61)" fill="#fff" opacity="0.2"/><path d="M499,134.67c-24.47.56-50.74,26.94-68.34,55.37,14.91-31,44.11-65.75,70.95-66.36,29-.66,46.11,38.76,47.35,71C543.14,164.13,525.65,134.07,499,134.67Z" transform="translate(-50.92 -10.61)" fill="#fff" opacity="0.4"/><path d="M488.41,161.41c8.51,2.26,9,26.54,4,45s-14.89,28.86-23.4,26.6-12.4-16.28-7.4-34.77S479.9,159.15,488.41,161.41Z" transform="translate(-50.92 -10.61)" fill="#b75554"/><path d="M486,208.12c4-14.78,5.68-32,4.53-45.55,6.42,5.5,6.45,27.07,1.91,43.87-3.64,13.5-9.9,22.66-16.32,25.75A94.56,94.56,0,0,0,486,208.12Z" transform="translate(-50.92 -10.61)" fill="#ffa2a1" opacity="0.4"/><path d="M517.08,164.32c7.31-1.29,16.94,17,19.79,32.88s-1.45,27.41-8.77,28.7-14.87-8.14-17.72-24S509.76,165.6,517.08,164.32Z" transform="translate(-50.92 -10.61)" fill="#b75554"/><path d="M532.78,196.78c-2.06-11.51-7.06-24.05-12.64-32,6.73,3.11,14.26,18.64,16.73,32.38,2.56,14.33-.67,25.09-6.69,28C533.68,219.07,535,209,532.78,196.78Z" transform="translate(-50.92 -10.61)" fill="#ffa2a1" opacity="0.4"/><path d="M348.54,98.17c29,5.15,47.87,33.17,40.92,63.08s-39.17,47-70.35,37.5-47.94-38.27-38.84-63.82S319.52,93,348.54,98.17Z" transform="translate(-50.92 -10.61)" fill="#e6e6e6"/><path d="M373.07,178.08c8.31-35.74-11.53-69.43-43.84-80.28a62.63,62.63,0,0,1,19.31.37c29,5.15,47.87,33.17,40.92,63.08a50.45,50.45,0,0,1-21.23,30.61A65.35,65.35,0,0,0,373.07,178.08Z" transform="translate(-50.92 -10.61)" fill="#fff" opacity="0.4"/><path d="M280.27,134.93c6.3-17.57,22.47-30.77,41.39-35.65-14.59,6.34-26.46,17.84-31.64,32.3-9.11,25.55,7.65,54.32,38.83,63.81a59,59,0,0,0,31.28,1,58.41,58.41,0,0,1-41,2.38C287.92,189.25,271.17,160.48,280.27,134.93Z" transform="translate(-50.92 -10.61)" opacity="0.1"/><path d="M333.13,120.15a29.72,29.72,0,0,1,4.73.17,16.75,16.75,0,1,0,21.81,15.28,15.79,15.79,0,0,0-.16-1.7,29,29,0,0,1,4.5,14.33,29.64,29.64,0,1,1-30.88-28.08Z" transform="translate(-50.92 -10.61)" fill="#73004e"/><path d="M349.61,165.07a6.24,6.24,0,1,1-6,6.5A6.26,6.26,0,0,1,349.61,165.07Z" transform="translate(-50.92 -10.61)" fill="#fff"/><path d="M358.81,177.55a2.92,2.92,0,1,1-2.82,3A2.93,2.93,0,0,1,358.81,177.55Z" transform="translate(-50.92 -10.61)" fill="#fff"/><path d="M360,94.3q-1.89-1.15-3.87-2.14a50.51,50.51,0,0,0-6.82-2.78c-1.41-.45-2.84-.85-4.3-1.17q-1.38-.31-2.76-.54l-1-.15c-.59-.09-1.17-.18-1.75-.25l-1.25-.12c-.49-.05-1-.1-1.48-.13l-1.4-.08-1.3,0h-1.52l-1.15,0-1.62.07-1,.07c-.59,0-1.18.09-1.76.15-.25,0-.49.06-.74.09a57.35,57.35,0,0,0-10,2.1c-.8.25-1.59.51-2.39.79l-.69.25c-.67.25-1.34.5-2,.77l-.42.17c-.77.32-1.54.66-2.3,1l-.64.3c-.62.3-1.23.6-1.83.92l-.53.27c-.75.39-1.48.8-2.21,1.22-.18.12-.37.23-.56.34q-.88.52-1.74,1.08l-.57.36c-.71.47-1.41.94-2.1,1.44l-.45.33c-.57.41-1.14.84-1.69,1.27l-.57.44c-.67.54-1.34,1.08-2,1.64l-.28.25q-.87.75-1.71,1.53l-.53.51c-.62.58-1.22,1.18-1.82,1.79l-.07.07c-.61.63-1.21,1.28-1.8,1.94l-.49.55c-.51.58-1,1.16-1.49,1.76l-.26.31c-.56.69-1.1,1.39-1.63,2.1l-.42.57c-.44.6-.87,1.21-1.29,1.82-.1.16-.21.31-.32.46h0c.19-.65.39-1.28.6-1.92l.18-.55c.21-.6.43-1.21.66-1.81,0-.08.06-.17.1-.26.26-.66.53-1.32.82-2,.07-.17.15-.33.22-.5.25-.55.5-1.08.76-1.62l.18-.37c.32-.63.64-1.25,1-1.86l.24-.44c.28-.5.57-1,.87-1.49l.25-.42c.37-.59.74-1.17,1.12-1.75l.25-.35c.32-.47.65-.94,1-1.4l.32-.43c.41-.55.82-1.09,1.25-1.62l.2-.24c.37-.46.76-.91,1.15-1.35l.37-.42c.45-.51.91-1,1.38-1.49l.06-.06c.46-.47.92-.92,1.4-1.37l.41-.39c.43-.4.86-.8,1.31-1.18l.21-.19q.75-.65,1.53-1.26l.44-.34c.43-.33.86-.66,1.3-1l.34-.25c.54-.38,1.07-.75,1.62-1.1.14-.1.29-.19.44-.28.44-.29.88-.56,1.33-.83l.44-.26c.56-.32,1.12-.64,1.69-.94l.41-.21c.46-.24.93-.48,1.41-.7l.49-.24c.58-.27,1.17-.53,1.76-.77l.33-.13c.51-.21,1-.4,1.53-.59l.54-.2q.9-.32,1.83-.6a44.15,44.15,0,0,1,7.72-1.62l.57-.07,1.35-.11.75-.06,1.25,0h2.05l1,0,1.08,0,1.13.1,1,.1c.45,0,.9.12,1.35.19l.76.11q1.06.18,2.13.42,1.68.38,3.3.9a37.88,37.88,0,0,1,5.24,2.14c1,.5,2,1,3,1.64l1,.6a41.32,41.32,0,0,1,3.69,2.69c.59.48,1.18,1,1.75,1.5a46.19,46.19,0,0,1,3.67,3.73c.26.29.5.58.75.87s.4.5.6.75Z" transform="translate(-50.92 -10.61)" fill="#fff" opacity="0.4"/><g opacity="0.2"><path d="M375.86,82.08c1.54-4.45,9.9-5.64,18.68-2.66s14.64,9,13.1,13.46-9.91,5.64-18.68,2.66S374.32,86.53,375.86,82.08Z" transform="translate(-50.92 -10.61)" fill="#fff"/><path d="M410.63,103.46c4.12,1.4,6.87,4.23,6.14,6.31s-4.64,2.65-8.75,1.25-6.86-4.22-6.14-6.31S406.52,102.07,410.63,103.46Z" transform="translate(-50.92 -10.61)" fill="#fff"/></g><path d="M257.4,185.53c3.89-.25,8.44.82,13.45,2.82a27.49,27.49,0,0,0-4.67-.15c-24.39,1.56-33.33,14.58-33.37,32.11C229.17,202,234.2,187,257.4,185.53Z" transform="translate(-50.92 -10.61)" fill="#fff" opacity="0.4"/><path d="M337.9,324.68a16.51,16.51,0,0,1,5.88,4,13.65,13.65,0,0,0-2.21-1c-12-4-18.82.51-22.29,8.89C321.16,327.09,326.51,320.9,337.9,324.68Z" transform="translate(-50.92 -10.61)" fill="#fff" opacity="0.4"/><path d="M320.24,327.08c1.75-5.8,5.84-9.79,13.8-8.1a10.11,10.11,0,0,1,4,2.09,9,9,0,0,0-1.53-.48C328.16,318.81,323.08,321.86,320.24,327.08Z" transform="translate(-50.92 -10.61)" fill="#fff" opacity="0.4"/><path d="M403.31,155c18.68-9.45,38.19-15.41,52.62-14.58a125.74,125.74,0,0,1,19.31-6.54,95,95,0,0,0-9.22,7.48,415.59,415.59,0,0,0-44.42,17.91,226.3,226.3,0,0,1,23.7-13.91A282.06,282.06,0,0,0,403.31,155Z" transform="translate(-50.92 -10.61)" fill="#fff" opacity="0.4"/><path d="M441.56,141.41q-.66-3.19-1.34-6.25c-8.68-39.12-38.35-62.51-75.1-73.51,40,5.51,74.93,25.19,83.57,64.12,1,4.56,2,9.44,2.88,14.56A71.67,71.67,0,0,0,441.56,141.41Z" transform="translate(-50.92 -10.61)" fill="#fff" opacity="0.4"/><path d="M241.13,211.33c-11.41,11.28-1.53,34.45,13.79,56.13C242.15,246.31,234,224.1,241.13,211.33ZM226.22,95.22c20.06-13.71,43.85-22.81,68.07-28.09,60.91-13.26,137.39.84,150.77,61.19.86,3.88,1.7,8,2.48,12.27,1.38-.13,2.72-.22,4-.26-.88-5.12-1.87-10-2.88-14.56-13.38-60.35-89.87-74.44-150.77-61.19C272.22,70.18,247,80.08,226.22,95.22Z" transform="translate(-50.92 -10.61)" fill="#fff" opacity="0.4"/><path d="M206.46,64.3c4.37-2.76,7.58-21.75,8.45-27.37A6.71,6.71,0,0,1,216.1,34v0c17-23.59,41.54-19,51,8.81l19.61,48.48-2.89,2.54-.59-1.29-2.9,2.54c-6.8,6-14.62,6.1-20.51.37l-24-23.29c-2.33,2.86-4.59,5.45-6.61,7.52C219.22,90,195.84,90.83,183.86,82.8c-.33-.22-.65-.45-1-.69s-.46-.39-.67-.6C173.06,73,195.85,71,206.46,64.3Z" transform="translate(-50.92 -10.61)" fill="#f79594"/><path d="M217.9,36a12.47,12.47,0,0,0-1.21,3c-.87,5.62-1.08,26.65-5.45,29.42C201,74.89,174.59,73,181.45,80.73c-7-7.91,14.73-9.91,25-16.43,4.37-2.76,7.58-21.75,8.45-27.37A6.71,6.71,0,0,1,216.1,34v0c13.57-18.79,31.88-19.71,43.56-5.24C248,16.43,230.79,18.14,217.9,36Z" transform="translate(-50.92 -10.61)" fill="#fff" opacity="0.4"/><path d="M266.68,55.88l16.59,36.63-2.9,2.54c-6.8,6-14.62,6.1-20.51.37l-24-23.29c8.84-10.81,18.91-25.48,22.35-30.54A45.88,45.88,0,0,1,266.68,55.88Z" transform="translate(-50.92 -10.61)" fill="#b75554"/><path d="M224.4,25.09c16-6.55,34.33.93,42.23,20.87,3.52,8.89,12.88,29.25,18.66,41.68L267.14,42.78C259.11,19.23,240.31,12.34,224.4,25.09Z" transform="translate(-50.92 -10.61)" fill="#fff" opacity="0.4"/><path d="M335.74,480a196.21,196.21,0,0,0,18.52-13.81c46.41-39.14,47-105,25.45-165.56a146.89,146.89,0,0,1-18.47,7.3C378.27,363.77,378.27,427.78,335.74,480Z" transform="translate(-50.92 -10.61)" fill="#fff" opacity="0.2"/><path d="M371.89,307.83c21.56,56.35,24.95,121.22-21.35,160.26l-.46.39C390.34,429.65,381.09,337.49,371.89,307.83Z" transform="translate(-50.92 -10.61)" fill="#fff" opacity="0.4"/><path d="M282.66,507.53a207.76,207.76,0,0,0,73.93-39.29c48.73-40.44,49-108,26.16-169.17-.14.09-.26.18-.41.26-9.31,4.91-21.27,9-33.69,12.37,12.39,66.31,2,135.12-48.43,181.1Q291.82,500.47,282.66,507.53Z" transform="translate(-50.92 -10.61)" fill="#fff" opacity="0.2"/><polygon points="159.52 544.95 150.6 552.07 154.13 578.77 166.64 561.61 184.24 565.22 173.84 546.03 159.52 544.95" fill="#534741"/><path d="M233.17,481.62l-52.89.38,21.24,80.28h.07a39.57,39.57,0,0,0,23.17-6h0Z" transform="translate(-50.92 -10.61)" fill="#f79594"/><path d="M180.28,482.41l21.24,80.28,3.54,26.7,1.68-29.31a23.77,23.77,0,0,0-1.42-9.53Z" transform="translate(-50.92 -10.61)" fill="#b75554" opacity="0.2"/><path d="M219.35,545.09a24.36,24.36,0,0,0,7.55,23.33l8.26,7.41-10.4-19.18,3.82-33.86Z" transform="translate(-50.92 -10.61)" fill="#fff" opacity="0.4"/><polygon points="65.54 338.69 67.85 353.3 49.99 377.27 48.96 349.77 31.55 343.68 59.75 325.72 65.54 338.69" fill="#534741"/><path d="M189.2,325.59l-70.43,38.33h0c-4.52-3.25-10.46-12.22-10.87-17.29-.22-2.66,2.77-10.3,2.77-10.3l59.75-50.56Z" transform="translate(-50.92 -10.61)" fill="#f79594"/><path d="M189.2,325.59l-70.43,38.33-17.86,24L113,363.53a14.17,14.17,0,0,1,6.87-6.62Z" transform="translate(-50.92 -10.61)" fill="#fff" opacity="0.4"/><path d="M135.43,320.43a149.59,149.59,0,0,1-51.34,33.23l-1.61.63,28.19-18,46.19-39.09Z" transform="translate(-50.92 -10.61)" fill="#b75554" opacity="0.2"/><path d="M160.8,300.84a16.09,16.09,0,0,1-.24,7,13.39,13.39,0,0,0-.34-2.37c-3-12.16-10.49-15.5-19.49-13.94C149.82,288.09,158,289.28,160.8,300.84Z" transform="translate(-50.92 -10.61)" fill="#b75554" opacity="0.4"/><path d="M149.34,287.32c5.88-1.63,11.47-.33,14.27,7.24a9.89,9.89,0,0,1,.36,4.49,8.28,8.28,0,0,0-.41-1.54C160.62,289.54,155.31,286.92,149.34,287.32Z" transform="translate(-50.92 -10.61)" fill="#b75554" opacity="0.4"/></g></svg>