<svg xmlns="http://www.w3.org/2000/svg" xmlns:xlink="http://www.w3.org/1999/xlink" viewBox="0 0 569.39 370.71"><defs><clipPath id="a" transform="translate(-15.31 -114.64)"><rect width="600" height="600" fill="none"/></clipPath></defs><g clip-path="url(#a)"><path d="M304.54,481.94c154.73,0,280.15-31.82,280.15-47.79s-125.42-28.89-280.15-28.89S24.39,418.19,24.39,434.15,149.82,481.94,304.54,481.94Z" transform="translate(-15.31 -114.64)" fill="#72421f"/><path d="M125.16,167.84l-8.31,4.32q-5.55-10.77-10.55-21.75,8.19,2.66,16.44,5.24,4.67-5.82,9.44-11.53.91,9.47,2.22,18.89Q129.78,165.4,125.16,167.84Z" transform="translate(-15.31 -114.64)" fill="#534741"/><path d="M134.4,163a591.69,591.69,0,0,0,44.53,43.71q-15.37,14.76-30.21,30.43a483.05,483.05,0,0,1-31.87-65l5.28-4.77A16.63,16.63,0,0,1,134.4,163Z" transform="translate(-15.31 -114.64)" fill="#f79594"/><path d="M130.31,157.19c.89-4.49,2.24-9.18,1.87-13.07q.91,9.47,2.22,18.89a591.69,591.69,0,0,0,44.53,43.71c-14.12-12.48-31.28-23.81-44.69-36.95A13.84,13.84,0,0,1,130.31,157.19Z" transform="translate(-15.31 -114.64)" fill="#fff" opacity="0.4"/><path d="M135.57,213.22q-10.36-20.15-18.72-41.06-5.55-10.77-10.55-21.75c3.33,7.32,10.65,11.43,14.36,18.61C125.51,181.17,130.26,197.49,135.57,213.22Z" transform="translate(-15.31 -114.64)" fill="#b75554" opacity="0.2"/><path d="M319.65,471.73c117,0,211.76-26.58,211.76-39.91s-94.81-24.14-211.76-24.14-211.76,10.8-211.76,24.14S202.7,471.73,319.65,471.73Z" transform="translate(-15.31 -114.64)" opacity="0.1"/><path d="M90.51,348.12l1.58.84a72.45,72.45,0,0,1,11.07,7.37c-1.74,1.48-3.46,3-5.14,4.6L96.92,362c-.73.71-1.45,1.44-2.16,2.18s-1.42,1.49-2.12,2.27c-1,1.16-2,2.36-3,3.61A52,52,0,0,0,86,375.41c-.28.48-.55,1-.82,1.48a28.24,28.24,0,0,0-2,4.85,19.3,19.3,0,0,0-.94,6.71q0,.53.09,1.05a14.72,14.72,0,0,0,1.13,4.15c.15.33.31.65.48,1A14.74,14.74,0,0,0,85,396.43c.21.28.44.55.67.81l.63.67.19.18c.18.17.35.33.54.49l.24.21.49.4.35.26.28.2c.29.21.59.4.89.59h0a19.72,19.72,0,0,0,2.75,1.39,24.74,24.74,0,0,0,6.75,1.61,30.42,30.42,0,0,0,13-1.6,25.54,25.54,0,0,0,5.94-3,19.5,19.5,0,0,0,4.91-4.81,16.41,16.41,0,0,0,2.69-6.44,18.25,18.25,0,0,0-.08-6.72,24,24,0,0,0-.85-3.15,28.49,28.49,0,0,0-1.2-2.9,39.33,39.33,0,0,0-3-5.29,50.84,50.84,0,0,0-4.78-6c3.43-2.27,7-4.43,10.58-6.51.81,1.54-3.7-7.19-5.91-13.27-4.39,3-8.71,6.14-12.91,9.49-.62.49-1.23,1-1.84,1.5h0a74.69,74.69,0,0,0-12.47-7.09l-1.65-.73A.79.79,0,0,0,90.51,348.12Zm5.15,32c.76-1,1.6-2,2.47-2.9a66.76,66.76,0,0,1,5.78-5.45c.69-.58,1.39-1.15,2.09-1.71,1.39-1.11,2.83-2.19,4.28-3.24l2-1.42a46.9,46.9,0,0,1,4.27,6.18,35.9,35.9,0,0,1,2.35,4.89,24.13,24.13,0,0,1,.82,2.49,16.1,16.1,0,0,1,.45,2.46,12.82,12.82,0,0,1-.33,4.74,10.56,10.56,0,0,1-2.09,4,15.64,15.64,0,0,1-8.08,4.69,22.94,22.94,0,0,1-9.78.35,16.18,16.18,0,0,1-4.31-1.43l-.62-.36a6.9,6.9,0,0,1-.63-.42l-.12-.09c-.17-.12-.33-.25-.49-.38l-.24-.23-.31-.3c-.17-.19-.33-.38-.47-.57a4.65,4.65,0,0,1-.87-2.74A7.38,7.38,0,0,1,92,387a12.58,12.58,0,0,1,.62-1.89c.14-.32.29-.65.45-1A24.78,24.78,0,0,1,95.66,380.13Z" transform="translate(-15.31 -114.64)" fill="#f79594"/><path d="M91.14,387.3a5.15,5.15,0,0,0,.91,2.74,5.18,5.18,0,0,1-.21-1.39,9.25,9.25,0,0,1,.82-3.57,28.53,28.53,0,0,1,5.47-7.85,72.18,72.18,0,0,1,7.87-7.16c2-1.62,4.13-3.16,6.29-4.66.87-.6,1.74-1.2,2.62-1.79l.49-.31q4.88-3.22,10-6.17-4.79,2.43-9.37,5.09c-.18.1-.35.19-.52.3-.94.55-1.88,1.12-2.81,1.69-2.31,1.43-4.56,2.9-6.72,4.46a67.88,67.88,0,0,0-8.37,7,25.84,25.84,0,0,0-5.71,7.91A9,9,0,0,0,91.14,387.3Z" transform="translate(-15.31 -114.64)" fill="#fff" opacity="0.4"/><path d="M86,375.41a31,31,0,0,0-2.86,6.33,18.68,18.68,0,0,0-.85,7.76,14.72,14.72,0,0,0,1.13,4.15,14,14,0,0,0,2.32,3.59,17,17,0,0,0,6.37,4.39,24.74,24.74,0,0,0,6.75,1.61,30.42,30.42,0,0,0,13-1.6,25.54,25.54,0,0,0,5.94-3,19.5,19.5,0,0,0,4.91-4.81l.06-.09a20.28,20.28,0,0,1-3.66,3.23,25.74,25.74,0,0,1-5.94,3,30.42,30.42,0,0,1-13,1.6A24.53,24.53,0,0,1,93.36,400,16.94,16.94,0,0,1,87,395.57,13.83,13.83,0,0,1,84.68,392a14.63,14.63,0,0,1-1.13-4.15,18.7,18.7,0,0,1,.85-7.76,30.67,30.67,0,0,1,2.86-6.32A46.93,46.93,0,0,1,90.48,369l-.87,1.08A52,52,0,0,0,86,375.41Z" transform="translate(-15.31 -114.64)" fill="#fff" opacity="0.4"/><path d="M118.91,376.48a24.13,24.13,0,0,1,.82,2.49,16.1,16.1,0,0,1,.45,2.46,12.82,12.82,0,0,1-.33,4.74,10.27,10.27,0,0,1-1.26,2.8c.16-.17.33-.33.48-.51a10.41,10.41,0,0,0,2.09-4,12.78,12.78,0,0,0,.33-4.73,15.88,15.88,0,0,0-.45-2.46,24.3,24.3,0,0,0-.82-2.5,35.79,35.79,0,0,0-2.35-4.88,45.89,45.89,0,0,0-3.87-5.68l-1.71,1.16a46.9,46.9,0,0,1,4.27,6.18A35.9,35.9,0,0,1,118.91,376.48Z" transform="translate(-15.31 -114.64)" fill="#b75554" opacity="0.4"/><path d="M120.07,343.53c-4.39,3-8.71,6.14-12.91,9.49-.62.49-1.23,1-1.84,1.5s-1.45,1.19-2.16,1.81c-1.74,1.48-3.46,3-5.14,4.6a85.42,85.42,0,0,0-8.41,9.12c-.54.71-1.08,1.43-1.6,2.18a55.61,55.61,0,0,1,4.59-5.51,92.64,92.64,0,0,1,10.26-9.19c2-1.59,4.08-3.1,6.16-4.55.85-.6,4-2.75,4.76-3.23q3.47-2.25,7-4.36C120.53,344.77,120.3,344.15,120.07,343.53Z" transform="translate(-15.31 -114.64)" fill="#b75554" opacity="0.4"/><polygon points="338.99 59.03 351.37 57.11 364.97 35.33 345.13 43.82 337.22 30.9 330.39 54.24 338.99 59.03" fill="#534741"/><path d="M366.68,171.75h0a30.56,30.56,0,0,0-18.47-3.22l-2.51.36-29.84,60.88,32,12.61Z" transform="translate(-15.31 -114.64)" fill="#f79594"/><polygon points="337.22 30.9 330.39 54.24 300.55 115.13 333.51 56.13 337.22 30.9" fill="#b75554" opacity="0.2"/><path d="M348.53,240l18.15-68.28h0L380.27,150l-11.41,9.29a39.73,39.73,0,0,0-14.41,26.49Z" transform="translate(-15.31 -114.64)" fill="#fff" opacity="0.4"/><path d="M461,437.21c15.25-6.38,23.28-13.63,26.15-21.76-36,25.25-80.47,36.05-125.78,10.05-60.46-34.69-78.78-110.12-43.61-153.37,11.64-14.32,34.66-39.69,54.81-52.79a218,218,0,0,0-38-39.44h0L332.06,178l-.05,0-2.39-1.79-.05,0q-3.68-2.7-7.45-5.18l0,0c-.79-.52-1.58-1-2.38-1.53l-.26-.16c-.76-.48-1.53-1-2.3-1.42l-.18-.11c-2.5-1.5-5-2.92-7.59-4.26l-.36-.18-2.16-1.1-.45-.22-2.24-1.07-.28-.14a122.84,122.84,0,0,0-18.82-7h0c-1.17-.32-2.34-.63-3.51-.92l-.15,0c-1.07-.26-2.16-.5-3.24-.73l-.45-.1c-1.08-.22-2.17-.43-3.26-.62l-.16,0q-3.46-.6-7-1l-.62-.06c-.94-.09-1.89-.17-2.83-.23l-.74-.06c-1.06-.06-2.12-.11-3.19-.14h-.22c-1.15,0-2.31,0-3.46,0l-.75,0c-.87,0-1.75,0-2.62.07l-1.11,0c-.79,0-1.59.09-2.38.15l-1.09.09a101,101,0,0,0-22.21,4.51c-77.28,24.83-152.59,106-99.63,214C162.28,441.69,349,484.09,461,437.21Z" transform="translate(-15.31 -114.64)" fill="#f79594"/><path d="M425.78,448.55c-114.45,6.84-253.83-40.3-288.09-103-17.44-31.93-24.07-61.18-22.79-87.24-10.18,31.78-8.67,69.12,11.57,110.37C158.74,434.48,313.58,475.41,425.78,448.55Z" transform="translate(-15.31 -114.64)" fill="#b75554" opacity="0.2"/><path d="M487.1,415.45l-.85.59.79-.44ZM461,437.21c7.61-3.18,13.42-6.59,17.69-10.2q-2.46,1.15-5.24,2.26c-113.86,45.55-305.84-.48-343.75-74.94-14-27.53-19.79-53.23-19.34-76.67-4.27,27.25-.11,57.87,16.16,91C162.28,441.69,349,484.09,461,437.21Z" transform="translate(-15.31 -114.64)" fill="#b75554" opacity="0.2"/><path d="M236.79,326.2c1.31-1.46,4.33-1,6.75,1.1s3.31,4.93,2,6.39-4.33,1-6.74-1.11S235.49,327.66,236.79,326.2Z" transform="translate(-15.31 -114.64)" fill="#b75554" opacity="0.2"/><path d="M243.24,346.72c1.14,1,1.56,2.31.95,3s-2,.46-3.16-.51-1.56-2.31-.95-3S242.11,345.75,243.24,346.72Z" transform="translate(-15.31 -114.64)" fill="#b75554" opacity="0.2"/><path d="M204.12,331.25c2.35-2.64,7.8-1.75,12.16,2s6,8.89,3.63,11.52-7.8,1.75-12.16-2S201.76,333.88,204.12,331.25Z" transform="translate(-15.31 -114.64)" fill="#b75554" opacity="0.2"/><ellipse cx="229.56" cy="355.83" rx="3" ry="4.87" transform="translate(-206.09 189.96) rotate(-50.22)" fill="#b75554" opacity="0.2"/><path d="M185,305.25c1.3-1.46,4.32-1,6.74,1.1s3.32,4.93,2,6.39-4.32,1-6.74-1.1S183.66,306.71,185,305.25Z" transform="translate(-15.31 -114.64)" fill="#b75554" opacity="0.2"/><path d="M191.42,325.77c1.13,1,1.55,2.31.94,3s-2,.45-3.16-.52-1.56-2.31-.94-3S190.28,324.8,191.42,325.77Z" transform="translate(-15.31 -114.64)" fill="#b75554" opacity="0.2"/><path d="M199.13,373.28c2.36-2.64,7.8-1.75,12.16,2s6,8.89,3.64,11.52-7.81,1.75-12.17-2S196.77,375.91,199.13,373.28Z" transform="translate(-15.31 -114.64)" fill="#b75554" opacity="0.2"/><path d="M183.36,339.91c2,1.75,2.81,4.17,1.7,5.4s-3.65.82-5.7-.93-2.81-4.17-1.7-5.4S181.32,338.16,183.36,339.91Z" transform="translate(-15.31 -114.64)" fill="#b75554" opacity="0.2"/><path d="M365.19,376.24l24.92,1a29.25,29.25,0,0,0,6.62-7.75c11.22-18.2,7.36-81.27,13.45-110.65.82-3.94,1.55-7.93,2.31-12-31.51,26.52-45.83-10-46.87-12.85-16.28,17.65-38.69,40.16-46.43,55.78l14.93,51.42C343,355.43,354.1,369.21,365.19,376.24Z" transform="translate(-15.31 -114.64)" fill="#b75554"/><path d="M363.92,235.82c2.06,5.44,14.64,42.71,47.86,14.81.23-1.26.47-2.52.71-3.8-31.51,26.52-45.83-10-46.87-12.85Z" transform="translate(-15.31 -114.64)" fill="#fff" opacity="0.4"/><path d="M367.21,299c-7-13.29-21.23-23-36.83-27.35l-12.52,13.48,26.19,90.25,16.32.63C376.12,356.12,378.19,319.88,367.21,299Z" transform="translate(-15.31 -114.64)" fill="#73004e" opacity="0.4"/><path d="M408.85,320.63c1.82-11.94-10.73-24.4-22.65-25.23s-17.69,11.49-18.2,24.82,3.28,21.56,13.86,21S407,332.6,408.85,320.63Z" transform="translate(-15.31 -114.64)" fill="#e6e6e6"/><path d="M381.86,341.25c9.23-.48,21.44-6.68,25.66-16.17-6.91,5.59-16,9-23.51,9.39-8.73.43-13.79-3.86-16.05-11.59C368,334.63,372,341.74,381.86,341.25Z" transform="translate(-15.31 -114.64)" opacity="0.1"/><path d="M419.27,265.57c5.78-7.34,2.09-20.51-5.61-25.62s-16.29,1-21.71,9.76-6,15.75,1.3,19.43S413.46,272.91,419.27,265.57Z" transform="translate(-15.31 -114.64)" fill="#e6e6e6"/><path d="M393.25,269.14c5.86,2.93,15.25,3.58,21.76,0a35.58,35.58,0,0,1-17.14-3.28c-6.23-3.13-8.25-8-7.09-14.14C386.48,259.53,386.49,265.74,393.25,269.14Z" transform="translate(-15.31 -114.64)" opacity="0.1"/><path d="M386.71,303.53c7.6.53,15.37,4.26,21.55,9.73-2.76-9.23-12.61-17.2-22.06-17.86-9-.63-14.5,6.25-16.87,15.41A20.26,20.26,0,0,1,386.71,303.53Z" transform="translate(-15.31 -114.64)" fill="#fff" opacity="0.4"/><path d="M317,278c-3.75,8.41,3,20.09,11.56,23.1s15.31-4.89,18.36-14.58,1.93-16.49-5.95-18.23S320.78,269.6,317,278Z" transform="translate(-15.31 -114.64)" fill="#e6e6e6"/><path d="M341,268.31c-6.88-1.5-17.09.59-22.11,6.71a32.92,32.92,0,0,1,19.17-2.16c6.5,1.43,9.35,5.6,9.46,11.74C349.81,276,348.33,269.93,341,268.31Z" transform="translate(-15.31 -114.64)" fill="#fff" opacity="0.4"/><path d="M329.84,295c-5.48-1.92-10.44-6.22-13.87-11.49.17,7.34,5.8,15.18,12.61,17.57,6.49,2.27,11.91-1.68,15.49-7.93A15.42,15.42,0,0,1,329.84,295Z" transform="translate(-15.31 -114.64)" opacity="0.1"/><path d="M407.21,244.43c6.89,4.56,11.2,14.3,10.45,22.83a14.3,14.3,0,0,0,1.61-1.69c5.78-7.34,2.09-20.51-5.61-25.62-5.15-3.42-10.71-1.81-15.44,2.25A13.08,13.08,0,0,1,407.21,244.43Z" transform="translate(-15.31 -114.64)" fill="#fff" opacity="0.4"/><path d="M345.19,332.71c5-1.56,8.68-7.77,10.38-14.08,1.28-4.76,1.81-8.7,3.66-15.68,3.27-12.32,10.78-28.82,18.47-40.18,3.36-4.95,7.94-9.93,11.27-13.73,7.08-8.11,13.2-16.56,15.52-25.93,1.8-7.23,1.78-10.73,2.1-17.44.23-4.59-3.14-9.27-5.95-10.17-4-1.27-12.57,1.48-14,9.06-1.33,7-.56,12.42-2.49,21-1.5,6.64-7.76,18.77-10.58,24.92-5.5,11.94-15.66,36.27-19.22,48.92-1.88,6.66-4.06,20.67-10.47,25.6-7.29,5.63-21.52-5.84-24.5-6.53-3.89-.91-18.34-8-14.3-3.06C310.88,322.5,333.45,336.38,345.19,332.71Z" transform="translate(-15.31 -114.64)" fill="#e68595"/><path d="M355,300.59c3.56-12.65,14.93-37.76,20.42-49.7,2.83-6.15,9.09-18.28,10.58-24.92,1.05-4.66.48-10.79,0-16.55-.45,5-.37,9.64-1.83,16.18s-7.76,18.77-10.58,24.92c-5.5,11.94-15.66,36.27-19.22,48.92-1.88,6.66-4.06,20.67-10.47,25.6C350.28,320.11,353.14,307.24,355,300.59Z" transform="translate(-15.31 -114.64)" fill="#73004e" opacity="0.2"/><path d="M355.57,318.63c1.28-4.76,1.81-8.7,3.66-15.68,3.27-12.32,10.78-28.82,18.47-40.18,3.36-4.95,7.94-9.93,11.27-13.73,7.08-8.11,13.2-16.56,15.52-25.93,1.8-7.23,1.78-10.73,2.1-17.44a9.57,9.57,0,0,0-.19-2.39c-1,6.6-2.32,13.41-3.24,17.31-2.28,9.71-9.6,17.66-16.69,26.27-3.33,4-7.93,9.33-11.28,14.55-7.69,12-15.15,29.2-18.36,42-1.81,7.23-2.31,11.3-3.57,16.22s-3.55,9.63-6.71,12.55C350.86,330,354,324.35,355.57,318.63Z" transform="translate(-15.31 -114.64)" fill="#fff" opacity="0.4"/><path d="M551,400c3.18-3.49,23.4-2.78,23.4-2.78,4.24-10.66,5.23-23.87-.07-33.55,0,0-21.65,9.77-32.13,16.91-9.25,6.29-13,24-8.39,34.18.13.28.26.55.4.83s.24.4.37.59C540,424.32,544.46,407.21,551,400Z" transform="translate(-15.31 -114.64)" fill="#f79594"/><path d="M542,383.61c6.85-4.66,22.81-13.26,33-18.65-.21-.43-.42-.85-.65-1.27,0,0-21.65,9.77-32.13,16.91-6.24,4.24-10,13.67-10.32,22.48C532.88,395.21,536.44,387.37,542,383.61Z" transform="translate(-15.31 -114.64)" fill="#b75554" opacity="0.4"/><path d="M574.42,397.24l.74-.93c12.6-16.41,6.83-40.31-11.57-49.76l-32.43-19.47-1.23,2.8.87.59-1.23,2.8a20.08,20.08,0,0,0,2.23,20l30.68,41.66Z" transform="translate(-15.31 -114.64)" fill="#f79594"/><path d="M532.86,347.56a22.79,22.79,0,0,1-3.25-14.38l0,.09a20.08,20.08,0,0,0,2.23,20l22.09,30Z" transform="translate(-15.31 -114.64)" fill="#fff" opacity="0.4"/><path d="M530.37,331.46l29.25,17.68c17.9,9.33,24.77,31.14,15.42,47.32l.12-.15c12.6-16.41,6.83-40.31-11.57-49.76l-32.43-19.47-1.23,2.8.87.59Z" transform="translate(-15.31 -114.64)" fill="#fff" opacity="0.4"/><circle cx="520.67" cy="255.78" r="42.25" transform="translate(188.4 626.98) rotate(-83.04)" fill="#e6e6e6"/><path d="M516.44,219.22a58.25,58.25,0,0,1,40.95,57.45,43.2,43.2,0,0,0,3.63-8.36,42.25,42.25,0,0,0-56.69-51.49A58.22,58.22,0,0,1,516.44,219.22Z" transform="translate(-15.31 -114.64)" fill="#fff" opacity="0.4"/><path d="M356.3,433.2c59.46,34.18,117.32,7.52,157.57-33.24s66.67-107.16,25.9-147.41c-3.08-3-6.42-6.22-10-9.44.77-1.14,1.48-2.28,2.1-3.42a115,115,0,0,0,14.59-11.75c9.06-3.71,16.47-8.81,20.91-15.5,17.7-26.69-18.37-68.62-47.37-80-28.62-11.23-56.76,4.48-74.5,30.56-.59.8-1.18,1.64-1.77,2.53a232.65,232.65,0,0,0-17.44,32.91c-10.45,19.14-22.24,43.72-26.1,59.5-6.73,27.5,3.42,77.56-7.4,94.92-26.6,42.67-71.37-45.52-68.64-63,3.12-19.88,45-50.34,52.91-66a4.27,4.27,0,0,0-5.9-5.65c-21.68,12.39-47.8,41-60.59,56.71C274.4,319.39,293.66,397.19,356.3,433.2Z" transform="translate(-15.31 -114.64)" fill="#f79594"/><path d="M491.48,410.64c-3,3-6.66,3.63-9.68,6.65-8.47,9.08-20,6.06-31.46,4.24-21.79-4.24-42.36.61-62.32,10.29-7.26,3-18.15,3-24.2-5.45-.61-1.21-2.42-3.63-4.84-4.23-3.63-.61-7.27-1.21-10.29.6-15.13,7.87-31.46,9.08-47.8,4.84-10.89-3-16.94-13.92-26-21.18-4.24-3-13.92-3-15.13,0-6.05,9.08-15.73,13.92-23,8.47-10.89-8.47-1.21-23,6.65-33.27,4.84-7.26-1.81-26-11.49-18.15-9.08,7.26-8.47,21.17-13.31,32.67-3,6.05-12.1,12.1-18.76,5.44-12.7-13.91-16.33-31.46-24.81-47.79-1.81-4.24-5.44-9.08-9.07-10.89-6.05-3-19.33,15.46-22.39-1.21-.45-2.46,0-4.84-1.21-6.05-7.26-9.69-7.86-20.58-10.89-31.47a11,11,0,0,0-6-7.86c-.6-.61-.19-2.38-.6-3-2.2-3.42-10.26-4.7-15.82-3.74-1.54,24.17,3.51,50.73,17.46,79.16,32.79,66.87,192.17,108.05,304.75,78.51,31.27-5.5,59.8-24.09,82.65-47.23a183.86,183.86,0,0,0,13.48-15.31A80.1,80.1,0,0,0,491.48,410.64Z" transform="translate(-15.31 -114.64)" fill="#72421f"/><path d="M377.06,223.91a4.27,4.27,0,0,0-5.9-5.65l-1.65,1a4.29,4.29,0,0,1,3.77,6.23c-3,6-9.93,14-17.42,22.74C365.26,238.82,373.88,230.18,377.06,223.91Z" transform="translate(-15.31 -114.64)" fill="#fff" opacity="0.4"/><path d="M306.62,283.52c10.9-13.39,39.46-46.12,61.08-63.16-20.94,13.28-45,39.74-57.13,54.61a78.08,78.08,0,0,0-12.29,21.26A72.6,72.6,0,0,1,306.62,283.52Z" transform="translate(-15.31 -114.64)" fill="#b75554" opacity="0.4"/><path d="M342.08,426.91a88.34,88.34,0,0,0,25,9.86q-5.07-2.32-10.16-5.24c-37.9-21.78-59.43-59.33-61.76-95C289.74,368.4,306.67,406.55,342.08,426.91Z" transform="translate(-15.31 -114.64)" fill="#fff" opacity="0.2"/><path d="M396.82,358.72c12-16.57.75-71,4.76-99a113.8,113.8,0,0,1,7-25.39,160.07,160.07,0,0,0-8.42,23.6c-6.73,27.5,3.42,77.56-7.4,94.92-26.6,42.67-71.37-45.52-68.64-63,1.92-12.2,18.43-28.39,32.73-42.69-15.19,14.3-32.39,30.33-34.26,42.25C319.89,306.89,364,404,396.82,358.72Z" transform="translate(-15.31 -114.64)" fill="#fff" opacity="0.4"/><g opacity="0.1"><path d="M510.85,403c-33.69,26.54-83,44.31-126.41,42.11C432.24,458.16,477.29,435.64,510.85,403Z" transform="translate(-15.31 -114.64)"/></g><path d="M319.41,290.1c1.33-8.49,9.73-18.9,19.52-29.27-11.59,10-21.64,20.09-23,28.71-1,6.63,5.27,21.78,15,35.7C323.2,310.63,318.46,296.14,319.41,290.1Z" transform="translate(-15.31 -114.64)" fill="#b75554" opacity="0.4"/><path d="M521.18,245.51c14.22-19-13.64-50.91-35.15-59.35s-34.43-14.26-47.56,5.53-32.39,56.38-21.65,71.59C432.19,285.05,498.4,276,521.18,245.51Z" transform="translate(-15.31 -114.64)" fill="#f79594"/><path d="M567.37,212.44c17.7-26.69-18.37-68.62-47.37-80s-57.49,4.89-75.19,31.57-17.89,53.68,11.11,65.06S549.68,239.12,567.37,212.44Z" transform="translate(-15.31 -114.64)" fill="#ffa2a1"/><path d="M460.12,225.84a97.15,97.15,0,0,0,21.42,5.25c-2.65-.86-5.16-1.78-7.51-2.75C446.57,217,437.42,196.62,441.72,174,432.05,196,435.91,216.34,460.12,225.84Z" transform="translate(-15.31 -114.64)" fill="#fff" opacity="0.2"/><path d="M557.47,209c-12.43,18.75-46,26.11-76.91,25.72,31.63,3.75,73.18-1.75,86.81-22.3,14.74-22.22-7.8-55-32.49-71.92C556,160.2,571,188.65,557.47,209Z" transform="translate(-15.31 -114.64)" fill="#fff" opacity="0.4"/><path d="M531.3,204.06c2.4-7.72-16.38-20.15-33.33-25.42s-29.93-2.7-32.32,5,6.69,17.69,23.64,23S528.9,211.79,531.3,204.06Z" transform="translate(-15.31 -114.64)" fill="#b75554"/><path d="M493.5,182.81c13.55,4.21,27.86,11.41,37.94,19-1.18-7.71-18.07-18.41-33.47-23.19-12.37-3.84-22.62-3.51-28.19,0A87.8,87.8,0,0,1,493.5,182.81Z" transform="translate(-15.31 -114.64)" fill="#ffa2a1" opacity="0.4"/><path d="M543.06,180.35c4.6-5-5-21.56-16.09-31.64s-22.19-12.43-26.79-7.38-.91,15.58,10.16,25.65S538.47,185.4,543.06,180.35Z" transform="translate(-15.31 -114.64)" fill="#b75554"/><path d="M525.31,152.09c8,7.3,15.4,17.38,18.86,25.63.86-6.76-7.62-20.29-17.2-29-10-9.08-20-11.88-25.24-8.66C508.26,140.37,516.8,144.35,525.31,152.09Z" transform="translate(-15.31 -114.64)" fill="#ffa2a1" opacity="0.4"/><path d="M512.34,344c10.15-25-2.55-53.6-29.41-63s-56.05,7.2-63.88,36.12,6.51,56.17,31,61.74S502.14,369.11,512.34,344Z" transform="translate(-15.31 -114.64)" fill="#e6e6e6"/><path d="M461.7,285.43c32.1,11.23,48.79,43.3,41.46,73.77A57,57,0,0,0,512.34,344c10.15-25-2.55-53.6-29.41-63a46.83,46.83,0,0,0-34.41,1.36A61.75,61.75,0,0,1,461.7,285.43Z" transform="translate(-15.31 -114.64)" fill="#fff" opacity="0.4"/><path d="M450.05,378.88c16.87,3.8,35.15-2.24,48.24-14.53-12.12,8.2-27,11.74-40.83,8.61-24.49-5.56-38.85-32.81-31-61.73A53.79,53.79,0,0,1,441,286.44a53.19,53.19,0,0,0-22,30.7C411.21,346.07,425.56,373.31,450.05,378.88Z" transform="translate(-15.31 -114.64)" opacity="0.1"/><path d="M487.55,345.12a27.37,27.37,0,0,0,2.18-3.76,15.5,15.5,0,1,1-1.29-24.5,14.93,14.93,0,0,1,1.26,1,27.23,27.23,0,1,0-2.15,27.3Z" transform="translate(-15.31 -114.64)" fill="#73004e"/><path d="M460.4,310.1a5.78,5.78,0,1,0-8,1.46A5.78,5.78,0,0,0,460.4,310.1Z" transform="translate(-15.31 -114.64)" fill="#fff"/><path d="M455.12,296.78a2.71,2.71,0,1,0-3.77.68A2.7,2.7,0,0,0,455.12,296.78Z" transform="translate(-15.31 -114.64)" fill="#fff"/><path d="M521,337.05c0,1.36-.09,2.71-.23,4.06a44.67,44.67,0,0,1-1.16,6.68c-.33,1.32-.73,2.63-1.18,3.92-.29.82-.61,1.62-.93,2.41-.12.29-.25.57-.38.86-.21.49-.43,1-.66,1.48s-.34.69-.52,1-.41.81-.62,1.21-.42.75-.63,1.12l-.6,1c-.24.4-.49.79-.74,1.18s-.38.59-.58.88-.56.83-.85,1.24l-.53.72c-.32.44-.65.87-1,1.29l-.43.53a52.63,52.63,0,0,1-6.58,6.77c-.58.5-1.18,1-1.79,1.46l-.54.42c-.51.4-1,.79-1.57,1.17l-.34.25c-.63.44-1.27.86-1.92,1.28l-.56.35c-.53.33-1.07.66-1.61,1l-.48.28c-.67.38-1.35.75-2,1.11L492,381l-1.69.82-.57.26c-.71.32-1.43.63-2.15.92l-.48.19c-.61.24-1.21.47-1.83.69l-.62.22c-.75.26-1.51.5-2.27.73l-.33.1c-.67.2-1.35.38-2,.56l-.65.17c-.76.19-1.53.37-2.3.53l-.09,0c-.8.16-1.6.3-2.4.44l-.67.1c-.7.11-1.41.21-2.12.29l-.36.05c-.82.09-1.63.17-2.45.23l-.65,0c-.69.05-1.37.08-2.06.1l-.52,0h0l1.8.48.52.13,1.74.39.25.05c.66.13,1.31.24,2,.34l.51.07c.54.08,1.09.16,1.63.22l.39,0c.64.07,1.29.12,1.93.16l.47,0,1.59.06h2.37l.4,0c.52,0,1,0,1.58-.08l.5,0c.63-.05,1.26-.1,1.88-.17l.28,0c.55-.06,1.09-.14,1.63-.22l.51-.09c.62-.1,1.24-.21,1.85-.33l.07,0c.59-.12,1.18-.26,1.76-.4l.51-.13,1.56-.43.26-.08c.58-.17,1.16-.36,1.73-.56l.49-.17,1.4-.53.37-.14,1.65-.71.44-.2,1.3-.63.42-.21c.52-.28,1-.56,1.56-.85l.37-.21,1.24-.75.42-.27c.5-.32,1-.65,1.48-1l.26-.19c.41-.29.81-.59,1.21-.89l.42-.33c.46-.36.92-.73,1.37-1.12a40.68,40.68,0,0,0,5.05-5.2c.11-.14.23-.27.33-.41.26-.32.51-.65.76-1l.41-.56.65-.94.45-.68c.19-.3.38-.6.56-.91s.31-.53.46-.8.33-.57.49-.86l.48-.93.39-.79q.27-.57.51-1.14c.1-.22.2-.43.29-.65.25-.61.49-1.23.71-1.86.35-1,.66-2,.91-3a34.43,34.43,0,0,0,.9-5.13c.1-1,.16-2.08.17-3.13v-1a37.06,37.06,0,0,0-.3-4.2c-.09-.7-.19-1.4-.32-2.1a41.67,41.67,0,0,0-1.13-4.7c-.1-.34-.2-.67-.31-1s-.2-.56-.29-.84Z" transform="translate(-15.31 -114.64)" fill="#fff" opacity="0.4"/><g opacity="0.2"><path d="M538.34,330.75c4.24,1,9.28-4.9,11.24-13.2s.12-15.83-4.13-16.83-9.28,4.9-11.24,13.19S534.09,329.74,538.34,330.75Z" transform="translate(-15.31 -114.64)" fill="#fff"/><path d="M538.62,293.15c.92-3.88,0-7.42-1.94-7.89s-4.35,2.3-5.27,6.19,0,7.42,1.94,7.89S537.7,297,538.62,293.15Z" transform="translate(-15.31 -114.64)" fill="#fff"/></g><path d="M399.17,371.63c2.1-2.9,3.49-7,4.37-11.85a23.64,23.64,0,0,1-2.16,3.7c-13.18,18.18-27.77,18.69-41.53,10C372.45,385.42,386.64,388.92,399.17,371.63Z" transform="translate(-15.31 -114.64)" fill="#fff" opacity="0.4"/><path d="M329.5,240.25a15.07,15.07,0,0,0-.22-6.52,13.43,13.43,0,0,1-.31,2.19c-2.76,11.28-9.63,14.37-17.91,12.92C319.41,252.07,326.89,251,329.5,240.25Z" transform="translate(-15.31 -114.64)" fill="#fff" opacity="0.4"/><path d="M319,252.79c5.41,1.5,10.54.3,13.11-6.72a9.27,9.27,0,0,0,.34-4.15,8.24,8.24,0,0,1-.38,1.42C329.34,250.73,324.46,253.16,319,252.79Z" transform="translate(-15.31 -114.64)" fill="#fff" opacity="0.4"/><path d="M494.65,273.37c16.56-9.83,30.8-22.05,37.22-33.67a115.05,115.05,0,0,0,14.59-11.77,87.71,87.71,0,0,1-10.38,3.47,381.91,381.91,0,0,1-35.82,25.65,204.27,204.27,0,0,0,22.52-11.54A255.87,255.87,0,0,1,494.65,273.37Z" transform="translate(-15.31 -114.64)" fill="#fff" opacity="0.4"/><path d="M524,250.36q2.19,2.08,4.25,4.13c26.43,26.09,30.22,60.71,20.84,94.71,15.3-33.83,17-70.68-9.33-96.65-3.08-3-6.42-6.22-10-9.44A64.07,64.07,0,0,1,524,250.36Z" transform="translate(-15.31 -114.64)" fill="#fff" opacity="0.4"/><path d="M333.71,333c9.49,22.62,22.82,41.76,37.26,38.48C357.43,370.76,344,353.41,333.71,333ZM513.87,400c40.24-40.76,66.67-107.16,25.9-147.41-3.08-3-6.42-6.22-10-9.44-.67,1-1.4,2-2.18,3,3,2.73,5.79,5.41,8.41,8,40.76,40.24,14.33,106.64-25.91,147.41-16,16.21-34.81,30.19-55.39,39C476.76,431.85,496.88,417.16,513.87,400Z" transform="translate(-15.31 -114.64)" fill="#fff" opacity="0.4"/><path d="M469.26,471.16c4.31-2,20.78,4.87,25.61,7a6.37,6.37,0,0,0,2.89.52h0c26.84-1.56,35.26-22.87,18.1-44l-28.41-39.22-3.41,1,.73,1.1-3.41,1c-8,2.33-11.95,8.34-10.35,15.75l6.52,30.15c-3.39.4-6.53.87-9.15,1.41-13,2.72-25.15,20.46-24.71,33.73,0,.37,0,.73.06,1.1s.08.55.14.82C446.12,492.84,458.79,476.08,469.26,471.16Z" transform="translate(-15.31 -114.64)" fill="#f79594"/><path d="M497.06,476.27a11.69,11.69,0,0,1-2.91-.52c-4.83-2.11-21.43-12.35-25.74-10.32-10.15,4.77-21.54,26.22-24.28,17,2.77,9.34,15-6.54,25.13-11.31,4.31-2,20.78,4.87,25.61,7a6.37,6.37,0,0,0,2.89.52h0c21.38-1.24,31.07-15,25.46-31.25C527.14,462.59,517.38,475.09,497.06,476.27Z" transform="translate(-15.31 -114.64)" fill="#fff" opacity="0.4"/><path d="M505.38,428.54l-20.59-31-3.41,1c-8,2.33-11.95,8.34-10.35,15.75l6.52,30.15c12.81-1.52,29.24-2.09,34.9-2.25A42.69,42.69,0,0,0,505.38,428.54Z" transform="translate(-15.31 -114.64)" fill="#b75554"/><path d="M515.88,434.66l-26.29-36.29c6.92,10.63,18.3,28,23.54,35.12,11.77,16,8.65,33.94-4.32,43.13C526.6,470.56,530.41,452.55,515.88,434.66Z" transform="translate(-15.31 -114.64)" fill="#fff" opacity="0.4"/><path d="M354.06,230.38a134.73,134.73,0,0,1,14.77-10.73C331.91,173,280,140.84,226.54,157.54a180,180,0,0,0-19.91,7.56C268.44,157.89,318.64,189.55,354.06,230.38Z" transform="translate(-15.31 -114.64)" fill="#fff" opacity="0.2"/><path d="M359.38,222.17c-33.63-44.61-82.83-79.33-136.13-62.67l-.53.17C272.9,147.59,340.63,200.36,359.38,222.17Z" transform="translate(-15.31 -114.64)" fill="#fff" opacity="0.4"/><path d="M179.21,186.37C240,169.94,299,195.9,345,238.32c8.72-8,17.8-15.25,26.21-20.06l.41-.19c-36.77-47.94-89.89-81.2-145.47-63.34a190.36,190.36,0,0,0-67,38C165.72,190.33,172.46,188.2,179.21,186.37Z" transform="translate(-15.31 -114.64)" fill="#fff" opacity="0.2"/><polygon points="286.98 60.2 299.06 53.72 306.92 27.24 286 41.85 271.86 32.49 274.18 63.19 286.98 60.2" fill="#534741"/><path d="M325,241.41l-10.63-73h0c-4.9-1.51-14.82-.85-18.81,1.68-2.08,1.33-6.08,7.79-6.08,7.79l-4.34,72Z" transform="translate(-15.31 -114.64)" fill="#f79594"/><path d="M325,241.41l-10.63-73,7.85-26.49-11.34,22.46a13.06,13.06,0,0,0-1.09,8.73Z" transform="translate(-15.31 -114.64)" fill="#fff" opacity="0.4"/><path d="M291.41,204.87a137.27,137.27,0,0,0-3.82-56.2l-.43-1.53,2.32,30.7-3.36,55.7Z" transform="translate(-15.31 -114.64)" fill="#b75554" opacity="0.2"/><polygon points="70.69 110.44 60.73 113.86 41.53 97.9 61.12 96.67 66.91 81.22 76.86 98.78 70.69 110.44" fill="#534741"/><path d="M154.8,243.8l-26.22,40.91L76,228.5l0-.05a36.11,36.11,0,0,1,16.1-15h0Z" transform="translate(-15.31 -114.64)" fill="#f79594"/><path d="M128.58,284.71,76,228.5l-19.2-15.95,23.8,13.19a22.14,22.14,0,0,1,6.78,5.81Z" transform="translate(-15.31 -114.64)" fill="#b75554" opacity="0.2"/><path d="M98.57,223.35A22.72,22.72,0,0,1,84,206l-1.76-10.09,10,17.57,28.41,13.78Z" transform="translate(-15.31 -114.64)" fill="#fff" opacity="0.4"/><path d="M140.38,283.92a11.05,11.05,0,0,0,.57-4.7,9.9,9.9,0,0,1-.47,1.54c-3.24,7.78-8.52,9.23-14.29,7.27C131.82,291.28,137.3,291.32,140.38,283.92Z" transform="translate(-15.31 -114.64)" fill="#fff" opacity="0.4"/><path d="M134.06,292.29c3.65,1.44,7,1.06,8.48-3.43a5.81,5.81,0,0,0,.07-2.75,5,5,0,0,1-.19.92C140.88,291.75,137.72,293,134.06,292.29Z" transform="translate(-15.31 -114.64)" fill="#fff" opacity="0.4"/><path d="M34.27,219.86a18.48,18.48,0,0,0,2.18,9.85,17.53,17.53,0,0,1,0-3.62c2-19.54,13.82-29.78,29.43-34.16C49.62,193.62,36.17,201.28,34.27,219.86Z" transform="translate(-15.31 -114.64)" fill="#534741" opacity="0.2"/><path d="M40.41,186.9c-13.88,3.28-24.89,10.89-25.1,25.67A13,13,0,0,0,18,220a12.53,12.53,0,0,1-.3-2.84C17.88,201.65,27.28,192.2,40.41,186.9Z" transform="translate(-15.31 -114.64)" fill="#534741" opacity="0.2"/><path d="M385,134.59a18.62,18.62,0,0,0-9.49,3.46,17.81,17.81,0,0,1,3.59-.49c19.63-.59,31.34,9.78,37.74,24.68C413,146.36,403.62,134,385,134.59Z" transform="translate(-15.31 -114.64)" fill="#534741" opacity="0.2"/><path d="M418.43,136.35c-5.07-13.33-14.06-23.24-28.75-21.51a13.1,13.1,0,0,0-7.05,3.6,12.38,12.38,0,0,1,2.78-.67C400.85,116,411.45,124,418.43,136.35Z" transform="translate(-15.31 -114.64)" fill="#534741" opacity="0.2"/><path d="M303.06,411.37c1.58-1.07,3.52-.3,4.33,1.72a4.82,4.82,0,0,1-1.39,5.6c-1.58,1.07-3.52.3-4.33-1.72A4.83,4.83,0,0,1,303.06,411.37Z" transform="translate(-15.31 -114.64)" fill="#72421f"/><path d="M295.27,390.63a2.26,2.26,0,0,1-2.41,1.23,1.35,1.35,0,0,1-.73-2.06,2.27,2.27,0,0,1,2.41-1.23A1.35,1.35,0,0,1,295.27,390.63Z" transform="translate(-15.31 -114.64)" fill="#72421f"/><path d="M254.72,386.43c3.33.88,4.58,4.43,2.8,7.93s-5.93,5.63-9.26,4.76-4.59-4.43-2.8-7.94S251.39,385.55,254.72,386.43Z" transform="translate(-15.31 -114.64)" fill="#72421f"/><path d="M279.15,388.75A4.1,4.1,0,0,1,274.8,391c-1.56-.42-2.14-2.08-1.31-3.72a4.08,4.08,0,0,1,4.34-2.23C279.39,385.44,280,387.11,279.15,388.75Z" transform="translate(-15.31 -114.64)" fill="#72421f"/><path d="M507.76,462.79a1,1,0,0,1,1.58-.11,1.64,1.64,0,0,1,.39,1.92,1,1,0,0,1-1.57.1A1.63,1.63,0,0,1,507.76,462.79Z" transform="translate(-15.31 -114.64)" fill="#72421f"/><path d="M502.36,457.59a.77.77,0,0,1-.56.73c-.29.06-.53-.18-.52-.52a.76.76,0,0,1,.55-.73A.46.46,0,0,1,502.36,457.59Z" transform="translate(-15.31 -114.64)" fill="#72421f"/><path d="M478.47,457.79c1.15-.22,2,.68,2,2a3,3,0,0,1-2.14,2.81c-1.14.22-2.05-.68-2-2A2.94,2.94,0,0,1,478.47,457.79Z" transform="translate(-15.31 -114.64)" fill="#72421f"/><path d="M497.16,459.37a1.38,1.38,0,0,1-1,1.31c-.54.11-1-.32-.94-.94a1.37,1.37,0,0,1,1-1.31C496.75,458.32,497.18,458.75,497.16,459.37Z" transform="translate(-15.31 -114.64)" fill="#72421f"/><path d="M311.37,345.66c1.85.49,2.54,2.46,1.55,4.4a4.81,4.81,0,0,1-5.13,2.63c-1.85-.48-2.54-2.45-1.55-4.39A4.83,4.83,0,0,1,311.37,345.66Z" transform="translate(-15.31 -114.64)" fill="#72421f"/><path d="M192.26,356.77c-1.56-2.45-4.3-3-6.11-1.17s-2,5.26-.46,7.72,4.3,3,6.11,1.17S193.82,359.23,192.26,356.77Z" transform="translate(-15.31 -114.64)" fill="#72421f"/><path d="M153.24,316.15c1.83-2.92,5.59-3.06,8.41-.31s3.61,7.34,1.78,10.26-5.59,3.06-8.41.31S151.41,319.07,153.24,316.15Z" transform="translate(-15.31 -114.64)" fill="#72421f"/><path d="M278.75,352.23a4.07,4.07,0,0,1-4.34,2.23c-1.56-.41-2.15-2.07-1.31-3.71a4.06,4.06,0,0,1,4.34-2.23C279,348.93,279.59,350.59,278.75,352.23Z" transform="translate(-15.31 -114.64)" fill="#72421f"/><path d="M522.64,458.74c0,1.21-2.12,7.56-3.94,8.77-6.05,3-13.91,3.63-20,.61-6.66-3-15.73,5.44-20.57-1.21-1.82-1.82-3.63-4.24-5.45-4.84-4.23-2.42-9.07.6-10.28,3.63-4.24,7.26-9.68,12.7-14.52,18.75-.2.3-.4.6-.59.91,5-.17,14.08-10.51,21.93-14.2,4.31-2,20.78,4.87,25.61,7a6.37,6.37,0,0,0,2.89.52h0c21.83-1.27,31.48-15.6,25.08-32.28C523.09,452.69,523.42,453.29,522.64,458.74Z" transform="translate(-15.31 -114.64)" fill="#72421f"/></g></svg>