<svg xmlns="http://www.w3.org/2000/svg" xmlns:xlink="http://www.w3.org/1999/xlink" viewBox="0 0 561.17 506.02"><defs><clipPath id="a" transform="translate(-19.41 -46.99)"><rect width="600" height="600" fill="none"/></clipPath></defs><g clip-path="url(#a)"><path d="M492.09,308.39c20.44-10.23,39.13-13.93,49.56-9,10.81,4.58,14.87,17.63,15.28,31.22.24,13.74-6.92,41.35-8.45,53.09-1.61,12.3,18.7,78.82,18.67,78.68.09.1-38.68-57.27-49.44-63.46-10.26-5.91-36.55-17-47.33-25.49-10.55-8.58-18.46-19.73-15.54-31.1C457.27,331.05,471.55,318.44,492.09,308.39Z" transform="translate(-19.41 -46.99)" fill="#f9b233"/><path d="M519.41,363.63c-11.3,5.78-24.4,4.06-33.72-1-9.5-5.05-15.22-13.42-16-20.95-.85-7.74,2.58-13.83,6.95-19a54.76,54.76,0,0,1,36.24-17.93c6.73-.36,13.65.61,19.29,6,5.49,5.2,8.68,14.83,6.93,25.44S530.87,358.15,519.41,363.63Z" transform="translate(-19.41 -46.99)" fill="#fff" opacity="0.4"/><g opacity="0.4"><path d="M514.31,348.22a1.89,1.89,0,0,1,2.67-.29,1.9,1.9,0,1,1-2.67.29Z" transform="translate(-19.41 -46.99)" fill="#fff"/><path d="M502.13,357a1.16,1.16,0,1,1-1.62.18A1.16,1.16,0,0,1,502.13,357Z" transform="translate(-19.41 -46.99)" fill="#fff"/><path d="M524.85,345.16a1.16,1.16,0,1,1-1.63.18A1.15,1.15,0,0,1,524.85,345.16Z" transform="translate(-19.41 -46.99)" fill="#fff"/><path d="M510.05,353.53a2.45,2.45,0,1,1-3.44.38A2.45,2.45,0,0,1,510.05,353.53Z" transform="translate(-19.41 -46.99)" fill="#fff"/><path d="M523.75,353.36a1.25,1.25,0,1,1-1.57,1.95,1.25,1.25,0,0,1,1.57-1.95Z" transform="translate(-19.41 -46.99)" fill="#fff"/></g><path d="M561.32,403.38a1.91,1.91,0,1,1,.3,2.68A1.91,1.91,0,0,1,561.32,403.38Z" transform="translate(-19.41 -46.99)" fill="#f9b233"/><path d="M558.3,412a1.16,1.16,0,1,1-1.63.18A1.16,1.16,0,0,1,558.3,412Z" transform="translate(-19.41 -46.99)" fill="#f9b233"/><path d="M564,423.3a1.16,1.16,0,1,1-1.63.18A1.16,1.16,0,0,1,564,423.3Z" transform="translate(-19.41 -46.99)" fill="#f9b233"/><path d="M558.77,390a2.45,2.45,0,1,1-3.44.38A2.45,2.45,0,0,1,558.77,390Z" transform="translate(-19.41 -46.99)" fill="#f9b233"/><path d="M518.47,405.5a1.25,1.25,0,1,1-1.76.2A1.25,1.25,0,0,1,518.47,405.5Z" transform="translate(-19.41 -46.99)" fill="#f9b233"/><path d="M562.43,465.19a1.91,1.91,0,1,1,.29,2.68A1.91,1.91,0,0,1,562.43,465.19Z" transform="translate(-19.41 -46.99)" fill="#f9b233"/><path d="M562,473.72a1.16,1.16,0,0,1,.18,1.63,1.18,1.18,0,0,1-1.63.18,1.16,1.16,0,1,1,1.45-1.81Z" transform="translate(-19.41 -46.99)" fill="#f9b233"/><path d="M573.16,469.88a1.16,1.16,0,1,1-1.62.18A1.15,1.15,0,0,1,573.16,469.88Z" transform="translate(-19.41 -46.99)" fill="#f9b233"/><path d="M554,452.88a2.44,2.44,0,1,1-3.44.37A2.43,2.43,0,0,1,554,452.88Z" transform="translate(-19.41 -46.99)" fill="#f9b233"/><path d="M580.12,488.17a1.25,1.25,0,1,1-1.76.19A1.25,1.25,0,0,1,580.12,488.17Z" transform="translate(-19.41 -46.99)" fill="#f9b233"/><path d="M547.28,297.77c-4.16-10.24-8.82-20.5-14-30.67-16.94-33.39-36.86-60.23-56.29-78.25C457.66,171,438.81,162,426.5,168.42c-12.43,6.17-16.24,26.72-13.2,52.84,3.13,26.32,13.11,58.21,30.13,91.57,5.18,10.17,10.73,20,16.56,29.36A131.74,131.74,0,0,0,547.28,297.77Z" transform="translate(-19.41 -46.99)" fill="#bebebe"/><path d="M523.69,268.77c6.11,12,11.69,24.12,16.76,36.22q3.54-3.47,6.83-7.22c-4.16-10.24-8.82-20.5-14-30.67-16.94-33.39-36.86-60.23-56.29-78.25A131.76,131.76,0,0,0,460.87,176C482.8,199.7,504.62,231.2,523.69,268.77Z" transform="translate(-19.41 -46.99)" fill="#fff" opacity="0.2"/><path d="M543.48,266.3c-5.08-12.52-10.77-25.06-17.1-37.49-20.72-40.83-45.06-73.63-68.82-95.66-23.63-21.8-46.67-32.83-61.72-25-15.2,7.54-19.85,32.66-16.13,64.6,3.82,32.17,16,71.16,36.83,111.94,6.32,12.43,13.11,24.41,20.24,35.89A161,161,0,0,0,543.48,266.3Z" transform="translate(-19.41 -46.99)" fill="#a0a0a0"/><path d="M437.25,299.1c-27.06-53-42.91-103.7-47.88-145.53a194.23,194.23,0,0,1-1-39.37c-9.19,11.18-11.69,32.63-8.67,58.57,3.82,32.17,16,71.16,36.83,111.94,6.32,12.43,13.11,24.41,20.24,35.89q5.63-.51,11.17-1.41Q442.46,309.31,437.25,299.1Z" transform="translate(-19.41 -46.99)" opacity="0.1"/><path d="M440,130.3c30.07,27.87,60.87,69.38,87.09,121q5.45,10.7,10.38,21.47,3.1-3.17,6-6.51c-5.08-12.52-10.77-25.06-17.1-37.49-20.72-40.83-45.06-73.63-68.82-95.66-18.23-16.82-36.1-27.21-50.23-27.49C417.79,111.62,428.83,120,440,130.3Z" transform="translate(-19.41 -46.99)" fill="#fff" opacity="0.2"/><path d="M311.51,528.91c3-.33,6.08-.66,9.12-1q1.19,12.57,1.77,25.11-6.5-5.71-13.08-11.37-6.35,3.84-12.75,7.54,2.58-9.51,4.79-19.13Z" transform="translate(-19.41 -46.99)" fill="#534741"/><path d="M301.36,530.05a638.57,638.57,0,0,0-24.8-59.39q19.32-8.4,38.48-17.88a532.38,532.38,0,0,1,5.59,75.12c-2.17.88-4.34,1.74-6.52,2.6a15.41,15.41,0,0,1-12.75-.45Z" transform="translate(-19.41 -46.99)" fill="#f79594"/><path d="M303,537.25c-2.43,4-5.35,8-6.41,11.93q2.58-9.51,4.79-19.13a638.57,638.57,0,0,0-24.8-59.39c8.36,17.49,19.9,35,27.38,52.9A15.24,15.24,0,0,1,303,537.25Z" transform="translate(-19.41 -46.99)" fill="#fff" opacity="0.4"/><path d="M318.39,481q2.17,23.49,2.24,46.92,1.19,12.57,1.77,25.11c-.39-8.36-5.58-15.15-6.36-23.52C316,515.87,317.55,498.25,318.39,481Z" transform="translate(-19.41 -46.99)" fill="#b75554" opacity="0.2"/><path d="M469.85,450.86c-.14-.58-.28-1.16-.41-1.74a72,72,0,0,1-1.75-13.21c2.26.34,4.55.63,6.86.84l1.52.13c1,.08,2.05.15,3.07.2s2.07.08,3.11.09c1.56,0,3.13,0,4.73-.1a50.13,50.13,0,0,0,6.45-.77l1.65-.36a29.39,29.39,0,0,0,5-1.66,19.32,19.32,0,0,0,5.68-3.72c.25-.24.5-.5.74-.76a14.91,14.91,0,0,0,2.37-3.59,9.79,9.79,0,0,0,.42-1,13.9,13.9,0,0,0,.59-2.07c.07-.35.13-.7.17-1s.07-.61.09-.92c0-.08,0-.17,0-.26,0-.24,0-.49,0-.73v-.32c0-.21,0-.42,0-.63l0-.44,0-.34c0-.36-.09-.71-.15-1.06h0a19.69,19.69,0,0,0-.77-3,24.71,24.71,0,0,0-3.24-6.16,30.51,30.51,0,0,0-9.8-8.76A25.89,25.89,0,0,0,490,397a19.49,19.49,0,0,0-6.87-.52,16.38,16.38,0,0,0-6.63,2.21,18.41,18.41,0,0,0-5,4.5,22.82,22.82,0,0,0-1.81,2.71,28.41,28.41,0,0,0-1.4,2.82,39.14,39.14,0,0,0-2,5.79,50.93,50.93,0,0,0-1.38,7.58c-4-1.09-7.94-2.34-11.89-3.69.62-1.62-3,7.54-6.1,13.22,5.15,1.32,10.37,2.51,15.67,3.47l2.34.4h0a74.54,74.54,0,0,0,2.88,14.08c.17.58.36,1.15.54,1.72A.79.79,0,0,0,469.85,450.86Zm20.73-25c-1.24.08-2.52.09-3.81.05a67.72,67.72,0,0,1-7.92-.76c-.89-.14-1.79-.28-2.68-.45-1.75-.31-3.51-.68-5.26-1.09l-2.4-.57a45.64,45.64,0,0,1,1.85-7.3,35.94,35.94,0,0,1,2.13-5,24,24,0,0,1,1.34-2.26,15.7,15.7,0,0,1,1.56-2,12.72,12.72,0,0,1,3.79-2.87,10.54,10.54,0,0,1,4.36-1,15.69,15.69,0,0,1,8.87,3,23.1,23.1,0,0,1,6.72,7.14,15.74,15.74,0,0,1,1.76,4.2c.06.24.1.47.14.7s.07.5.1.75c0,.05,0,.1,0,.15,0,.21,0,.42,0,.62s0,.23,0,.34,0,.29,0,.42-.07.51-.12.74a4.63,4.63,0,0,1-1.5,2.46,6.79,6.79,0,0,1-1.39,1,12.91,12.91,0,0,1-1.83.78l-1,.31A24.84,24.84,0,0,1,490.58,425.86Z" transform="translate(-19.41 -46.99)" fill="#f79594"/><path d="M499,424.54a5.21,5.21,0,0,0,1.46-2.5,5.13,5.13,0,0,1-.92,1.08,9.29,9.29,0,0,1-3.22,1.74,28.38,28.38,0,0,1-9.53,1.05,72.49,72.49,0,0,1-10.6-1.21c-2.55-.46-5.11-1-7.66-1.66l-3.07-.8-.56-.16c-3.77-1-7.52-2.21-11.25-3.47,3.33,1.33,6.67,2.58,10,3.71l.56.19c1,.34,2.09.68,3.13,1,2.6.8,5.21,1.53,7.8,2.13a68.11,68.11,0,0,0,10.8,1.69,25.92,25.92,0,0,0,9.73-.92A8.88,8.88,0,0,0,499,424.54Z" transform="translate(-19.41 -46.99)" fill="#fff" opacity="0.4"/><path d="M493.43,436.3a31,31,0,0,0,6.66-2,18.82,18.82,0,0,0,6.42-4.48,14.91,14.91,0,0,0,2.37-3.59,13.92,13.92,0,0,0,1.18-4.12,16.85,16.85,0,0,0-.89-7.69,24.71,24.71,0,0,0-3.24-6.16,30.51,30.51,0,0,0-9.8-8.76A25.89,25.89,0,0,0,490,397a19.49,19.49,0,0,0-6.87-.52H483a20.59,20.59,0,0,1,4.85.62,25.51,25.51,0,0,1,6.18,2.5,30.48,30.48,0,0,1,9.8,8.75,24.71,24.71,0,0,1,3.24,6.16,16.85,16.85,0,0,1,.89,7.69,13.92,13.92,0,0,1-1.18,4.12,14.47,14.47,0,0,1-2.38,3.59A18.86,18.86,0,0,1,498,434.4a31.58,31.58,0,0,1-6.66,2,47.82,47.82,0,0,1-5.72.72l1.39-.06A50.13,50.13,0,0,0,493.43,436.3Z" transform="translate(-19.41 -46.99)" fill="#fff" opacity="0.4"/><path d="M472.49,410.74a24,24,0,0,1,1.34-2.26,15.7,15.7,0,0,1,1.56-2,12.72,12.72,0,0,1,3.79-2.87,10.64,10.64,0,0,1,2.94-.9c-.24,0-.47,0-.7,0a10.52,10.52,0,0,0-4.36,1,13.06,13.06,0,0,0-3.8,2.87,16.6,16.6,0,0,0-1.55,2,24,24,0,0,0-1.34,2.26,36.46,36.46,0,0,0-2.13,5,45.34,45.34,0,0,0-1.73,6.67l2,.52a45.64,45.64,0,0,1,1.85-7.3A35.94,35.94,0,0,1,472.49,410.74Z" transform="translate(-19.41 -46.99)" fill="#b75554" opacity="0.4"/><path d="M446.88,431.61c5.16,1.32,10.38,2.51,15.68,3.47l2.34.4c.93.15,1.86.3,2.79.43,2.26.34,4.55.63,6.86.84a83.91,83.91,0,0,0,12.43.32c.89-.05,1.79-.13,2.69-.22a57.88,57.88,0,0,1-7.18.17,93.78,93.78,0,0,1-13.7-1.67q-3.78-.72-7.49-1.65c-1-.24-4.73-1.22-5.58-1.46-2.65-.75-5.29-1.55-7.9-2.39C447.51,430.44,447.2,431,446.88,431.61Z" transform="translate(-19.41 -46.99)" fill="#b75554" opacity="0.4"/><polygon points="144.85 320.08 135.23 312.01 109.84 316.13 129.33 325.49 124.8 339.98 146.91 329.73 144.85 320.08" fill="#534741"/><path d="M154.64,359h0a30.53,30.53,0,0,0,9.76,16l1.93,1.67,65.59-17.67-11.63-32.49Z" transform="translate(-19.41 -46.99)" fill="#f79594"/><polygon points="124.8 339.98 146.91 329.73 212.51 312.06 146.28 326.13 124.8 339.98" fill="#b75554" opacity="0.2"/><path d="M218.1,327.65,154.64,359h0l-25.39,4.12,14.54,2.47A39.77,39.77,0,0,0,173.26,359Z" transform="translate(-19.41 -46.99)" fill="#fff" opacity="0.4"/><path d="M292.6,112.77c-14.88-7.28-25.64-8.56-33.66-5.36,42.77,10.46,80.27,36.88,90.57,88.21,13.73,68.48-31.05,132.06-86.86,134.08-18.49.67-52.81.05-76-6.5A218.64,218.64,0,0,0,182,377.92h0c.05,1,.11,2,.18,3V381c.07,1,.15,2,.23,3v.07q.39,4.56,1,9v.05c.13.94.27,1.87.42,2.8,0,.1,0,.2.05.3.14.9.29,1.79.45,2.68a1.77,1.77,0,0,0,0,.2q.76,4.32,1.8,8.54l.09.38c.19.79.39,1.58.6,2.36,0,.16.09.32.13.48.21.81.44,1.6.67,2.4,0,.1.05.2.08.31a122.27,122.27,0,0,0,7.14,18.8h0c.53,1.1,1.07,2.18,1.63,3.26l.07.13c.51,1,1,2,1.58,2.92l.23.41c.55,1,1.1,1.92,1.68,2.86l.08.14q1.84,3,3.88,5.89l.37.51c.55.77,1.11,1.54,1.68,2.29l.45.59c.65.84,1.31,1.68,2,2.5l.15.18c.73.89,1.48,1.76,2.25,2.63l.51.56c.58.65,1.18,1.29,1.78,1.92l.77.81c.55.57,1.12,1.13,1.69,1.69l.78.77a101.84,101.84,0,0,0,18.05,13.77c69.72,41.89,180.6,45.12,227.07-66.05C493.05,335,401.79,166.23,292.6,112.77Z" transform="translate(-19.41 -46.99)" fill="#f79594"/><path d="M324.35,131.8C405,213.59,461.45,349.79,436.78,417,424.21,451.2,406.53,475.5,386,491.74c30.68-13.3,57.83-39.08,75.59-81.55C489.94,342.44,418.63,198.69,324.35,131.8Z" transform="translate(-19.41 -46.99)" fill="#b75554" opacity="0.2"/><path d="M258.94,107.41l1,.26-.85-.31Zm33.66,5.36c-7.42-3.64-13.82-5.77-19.37-6.6,1.67.73,3.39,1.54,5.17,2.45,109.46,55.8,201.44,230.92,170.3,308.64-11.51,28.73-27.07,50-45,65.17,23.36-14.76,43.7-38.11,58-72.24C493.05,335,401.79,166.23,292.6,112.77Z" transform="translate(-19.41 -46.99)" fill="#b75554" opacity="0.2"/><path d="M356.8,355c-2,0-3.59-2.62-3.62-5.81s1.52-5.75,3.49-5.73,3.58,2.62,3.61,5.81S358.76,355.05,356.8,355Z" transform="translate(-19.41 -46.99)" fill="#b75554" opacity="0.2"/><path d="M368,336.63c0-1.49.72-2.7,1.64-2.69s1.68,1.23,1.7,2.73-.72,2.69-1.64,2.68S368,338.12,368,336.63Z" transform="translate(-19.41 -46.99)" fill="#b75554" opacity="0.2"/><path d="M403.18,377.15c-3.54,0-6.46-4.73-6.53-10.49s2.76-10.38,6.3-10.34,6.46,4.73,6.53,10.48S406.72,377.19,403.18,377.15Z" transform="translate(-19.41 -46.99)" fill="#b75554" opacity="0.2"/><path d="M384,333.38c0-2.7,1.29-4.87,2.95-4.85s3,2.22,3.06,4.91-1.29,4.87-2.95,4.85S384,336.07,384,333.38Z" transform="translate(-19.41 -46.99)" fill="#b75554" opacity="0.2"/><path d="M375.2,407.93c-2,0-3.58-2.62-3.62-5.81s1.53-5.75,3.49-5.73,3.58,2.62,3.62,5.81S377.16,408,375.2,407.93Z" transform="translate(-19.41 -46.99)" fill="#b75554" opacity="0.2"/><path d="M386.42,389.53c0-1.5.71-2.7,1.63-2.69s1.68,1.23,1.7,2.72-.72,2.7-1.64,2.69S386.43,391,386.42,389.53Z" transform="translate(-19.41 -46.99)" fill="#b75554" opacity="0.2"/><path d="M420.78,360.45c-3.54,0-6.46-4.73-6.52-10.48s2.75-10.39,6.29-10.35,6.46,4.73,6.53,10.49S424.33,360.49,420.78,360.45Z" transform="translate(-19.41 -46.99)" fill="#b75554" opacity="0.2"/><path d="M406,401.63c0-2.69,1.29-4.86,3-4.85s3,2.22,3.06,4.92-1.29,4.87-3,4.85S406.06,404.33,406,401.63Z" transform="translate(-19.41 -46.99)" fill="#b75554" opacity="0.2"/><path d="M309.81,225.21,294.1,205.78a29.07,29.07,0,0,0-10.21.12c-21.13,3.55-66.14,48.07-92.31,62.86-3.51,2-7,4.07-10.55,6.16,40.78,6.26,22.67,41.18,21.23,43.83,24.05.63,55.81,2.67,72.69-1.8l28.93-45.18C308.8,255.7,311.83,238.2,309.81,225.21Z" transform="translate(-19.41 -46.99)" fill="#b75554"/><path d="M204.77,318.82c2.74-5.15,22.54-39.23-20.41-45.87l-3.33,2c40.78,6.26,22.67,41.18,21.23,43.83Z" transform="translate(-19.41 -46.99)" fill="#fff" opacity="0.4"/><path d="M250.27,274.62c-5.4,14.05-3.36,31.21,3.68,45.82l18.42.54,50.77-79.3L312.85,229C287.43,230.24,258.73,252.59,250.27,274.62Z" transform="translate(-19.41 -46.99)" fill="#73004e" opacity="0.4"/><path d="M239.07,229c-10.21,6.5-11.32,24.19-4.08,33.72s20.34,5.76,30.73-2.65,14.09-16.7,6.7-24.33S249.31,222.47,239.07,229Z" transform="translate(-19.41 -46.99)" fill="#e6e6e6"/><path d="M272.42,235.72C266,229.08,253.25,224,243.3,227c8.78,1.53,17.34,6.13,22.59,11.54,6.09,6.29,6.19,12.94,1.86,19.75C276.56,250.51,279.3,242.83,272.42,235.72Z" transform="translate(-19.41 -46.99)" opacity="0.1"/><path d="M190.68,257.45c-9.35.48-16.84,12-15.61,21.13s11.49,11.63,21.68,9.94,15.85-5.86,13.79-13.8S200.05,257,190.68,257.45Z" transform="translate(-19.41 -46.99)" fill="#e6e6e6"/><path d="M210.54,274.72c-1.66-6.36-7.36-13.87-14.37-16.4A35.69,35.69,0,0,1,205,273.41c1.75,6.76-.6,11.5-6,14.67C207.77,286.16,212.44,282.05,210.54,274.72Z" transform="translate(-19.41 -46.99)" opacity="0.1"/><path d="M240.79,257c-4.62-6.08-6.94-14.4-6.88-22.67-5.14,8.17-4.66,20.86,1.08,28.42,5.47,7.21,14.29,6.81,22.75,2.56A20.31,20.31,0,0,1,240.79,257Z" transform="translate(-19.41 -46.99)" fill="#fff" opacity="0.4"/><path d="M267.54,326.33c8.81-2.72,13.18-15.5,9.78-23.95s-13.78-8.32-23.1-4.23-13.71,9.43-9.82,16.52S258.71,329.05,267.54,326.33Z" transform="translate(-19.41 -46.99)" fill="#e6e6e6"/><path d="M244.4,314.67c3.4,6.17,11.72,12.49,19.64,12.23a32.9,32.9,0,0,1-14.27-13c-3.21-5.84-1.94-10.75,2.61-14.88C244.34,303,240.77,308.06,244.4,314.67Z" transform="translate(-19.41 -46.99)" fill="#fff" opacity="0.4"/><path d="M271.91,305.44c2.17,5.39,2.2,12,.49,18,5.42-5,7.62-14.38,4.92-21.09-2.56-6.4-9.12-7.88-16.19-6.45A15.43,15.43,0,0,1,271.91,305.44Z" transform="translate(-19.41 -46.99)" opacity="0.1"/><path d="M182.7,280.5c-1.1-8.21,3.39-17.89,10.32-22.95a13,13,0,0,0-2.34-.1c-9.35.48-16.84,12-15.61,21.13.82,6.14,5.69,9.27,11.88,10.16A13.08,13.08,0,0,1,182.7,280.5Z" transform="translate(-19.41 -46.99)" fill="#fff" opacity="0.4"/><path d="M290.18,269c-4.48-2.74-11.58-1.42-17.46,1.46-4.43,2.17-7.76,4.37-14.24,7.58C247,283.72,229.64,288.94,216,290.64c-5.95.74-12.73.56-17.79.57-10.78,0-21.2,1-29.8,5.4-6.62,3.41-9.26,5.74-14.53,9.92-3.61,2.87-4.92,8.49-3.74,11.2,1.67,3.83,9.41,8.51,16.08,4.59,6.16-3.62,9.73-7.78,17.5-12,6-3.26,19.27-6.54,25.77-8.47,12.63-3.73,37.69-12.13,49.58-17.79,6.25-3,18.25-10.58,26.2-9,9.05,1.79,9.8,20.08,11.24,22.79,1.88,3.53,6.09,19.09,7.13,12.79C305.13,301.61,300.7,275.44,290.18,269Z" transform="translate(-19.41 -46.99)" fill="#e68595"/><path d="M259.48,282.79c-11.89,5.66-38.32,13.66-51,17.39-6.5,1.93-19.77,5.21-25.77,8.47-4.21,2.29-8.45,6.76-12.44,11,4-2.92,7.51-6.09,13.4-9.29s19.27-6.54,25.77-8.47c12.63-3.73,37.69-12.13,49.58-17.79,6.25-3,18.25-10.58,26.2-9C277.32,273.48,265.74,279.81,259.48,282.79Z" transform="translate(-19.41 -46.99)" fill="#73004e" opacity="0.2"/><path d="M272.72,270.47c-4.43,2.17-7.76,4.37-14.24,7.58C247,283.72,229.64,288.94,216,290.64c-5.95.74-12.73.56-17.79.57-10.78,0-21.2,1-29.8,5.4-6.62,3.41-9.26,5.74-14.53,9.92a9.77,9.77,0,0,0-1.67,1.73c5.67-3.57,11.64-7.1,15.19-9,8.82-4.68,19.65-4.41,30.82-4.74,5.24-.15,12.27-.18,18.41-1.1,14.1-2.1,32-7.84,43.75-13.84,6.65-3.41,10.05-5.71,14.59-8s9.6-3.68,13.89-3.23C284.38,266.54,278.05,267.86,272.72,270.47Z" transform="translate(-19.41 -46.99)" fill="#fff" opacity="0.4"/><path d="M205.12,69.4c-4.72-.1-17.53-15.81-17.53-15.81-10.84,3.84-21.45,11.81-25.25,22.19,0,0,21.65,9.87,33.95,13.07,10.84,2.82,26.66-6,31.31-16.23l.36-.85c.07-.22.14-.44.2-.67C230.73,61.69,214.88,69.6,205.12,69.4Z" transform="translate(-19.41 -46.99)" fill="#f79594"/><path d="M198.73,87.05c-8-2.09-25-8.45-35.86-12.6-.19.44-.37.88-.53,1.33,0,0,21.65,9.87,33.95,13.07,7.31,1.9,16.88-1.51,23.76-7C213.47,86.25,205.21,88.73,198.73,87.05Z" transform="translate(-19.41 -46.99)" fill="#b75554" opacity="0.4"/><path d="M187.59,53.59c-.4,0-.8,0-1.19.06C165.71,55,151.5,75.1,156.51,95.2l6.73,37.3,2.92-.92-.14-1,2.92-.93a20.09,20.09,0,0,0,13.6-14.85l11.17-50.62Z" transform="translate(-19.41 -46.99)" fill="#f79594"/><path d="M177.55,117.71a22.83,22.83,0,0,1-8.69,11.93l.08,0a20.09,20.09,0,0,0,13.6-14.85l8-36.45Z" transform="translate(-19.41 -46.99)" fill="#fff" opacity="0.4"/><path d="M167.06,130.21l-6-33.72c-4.77-19.66,7.14-39.23,25.51-42.85h-.19C165.71,55,151.5,75.1,156.51,95.2l6.73,37.3,2.92-.92-.14-1Z" transform="translate(-19.41 -46.99)" fill="#fff" opacity="0.4"/><circle cx="116.39" cy="187.46" r="42.33" transform="translate(-120.64 104.01) rotate(-48.65)" fill="#e6e6e6"/><path d="M91.62,214.76A58.36,58.36,0,0,1,107.92,146,42.36,42.36,0,0,0,77.7,204.63a42.1,42.1,0,0,0,20.1,20.85A58.24,58.24,0,0,1,91.62,214.76Z" transform="translate(-19.41 -46.99)" fill="#fff" opacity="0.4"/><path d="M358.62,194.32c-13.46-67.38-71.74-93.42-129-96.87S104.8,117.89,101.36,175.18c-.26,4.33-.46,8.95-.52,13.77-1.37.18-2.7.39-4,.67a115.43,115.43,0,0,0-18.48-3.24c-8.78-4.39-17.51-6.61-25.49-5.54C21.1,185.1,13.28,240,23.84,269.34c10.42,29,40.83,39.84,72.2,36,1-.08,2-.19,3.07-.34a232.15,232.15,0,0,0,36.33-8.56c21.32-4.75,47.64-12.08,62.08-19.58,25.17-13.08,56.22-53.75,76.45-57.05,49.72-8.1,12.77,83.85-2.19,93.3-17,10.77-67.63-.7-84.66,3.65a4.27,4.27,0,0,0-.36,8.17c23.64,8.17,62.46,9,82.73,8.27C326.85,331.17,372.81,265.31,358.62,194.32Z" transform="translate(-19.41 -46.99)" fill="#f79594"/><path d="M187.12,316.77a4.27,4.27,0,0,0-.36,8.17l1.83.6a4.28,4.28,0,0,1,2.2-7c6.54-1.67,17.12-1.77,28.64-1.88C206.15,315.82,193.94,315,187.12,316.77Z" transform="translate(-19.41 -46.99)" fill="#fff" opacity="0.4"/><path d="M278.54,330.55c-17.28.61-60.8.67-87.91-4.39,23.82,7,59.66,7.73,78.86,7a78.57,78.57,0,0,0,24.14-4.76A74.48,74.48,0,0,1,278.54,330.55Z" transform="translate(-19.41 -46.99)" fill="#b75554" opacity="0.4"/><path d="M363.26,209.19a88.44,88.44,0,0,0-9.06-25.35c1.06,3.57,2,7.27,2.76,11.11,8.58,43-5.53,84-30.86,109.24C353.68,287.27,371.28,249.32,363.26,209.19Z" transform="translate(-19.41 -46.99)" fill="#fff" opacity="0.2"/><path d="M275.73,212.91c-20.42,1.88-54,46.26-77.78,61.74a115,115,0,0,1-23.78,11.44,158.44,158.44,0,0,0,23.35-9.22c25.17-13.08,56.22-53.75,76.45-57.05,49.72-8.1,12.77,83.85-2.19,93.3-10.47,6.61-33.56,4.84-53.78,3.5,20.8,2,44.23,4.4,54.45-2.05C287.42,305.12,331.48,207.79,275.73,212.91Z" transform="translate(-19.41 -46.99)" fill="#fff" opacity="0.4"/><g opacity="0.4"><path d="M233.84,97.75c42.24,7.9,88.2,33.37,115.16,67.53C327.33,120.59,280.64,101.49,233.84,97.75Z" transform="translate(-19.41 -46.99)" fill="#b75554"/></g><path d="M275.07,316.56c-7.28,4.59-20.67,5.14-35,4.59,15.17,2.16,29.43,3.06,36.83-1.6,5.68-3.59,12.94-18.35,17-34.84C288,300.16,280.24,313.29,275.07,316.56Z" transform="translate(-19.41 -46.99)" fill="#b75554" opacity="0.4"/><path d="M108.32,193.85c-23.73,1.83-29.39,43.87-21.56,65.66s12,35.37,35.55,32.21,63.88-12.78,68.26-30.91C196.84,234.85,146.33,190.91,108.32,193.85Z" transform="translate(-19.41 -46.99)" fill="#f79594"/><path d="M52.9,180.84C21.1,185.1,13.28,240,23.84,269.34s41.62,40.13,73.41,35.87S149.53,283.27,139,253.9,84.69,176.58,52.9,180.84Z" transform="translate(-19.41 -46.99)" fill="#ffa2a1"/><path d="M133.77,252.87a97.29,97.29,0,0,0-10.17-19.62c1.1,2.57,2.06,5.07,2.88,7.48,9.53,28.22.23,48.53-19.69,60.24C129.76,293.75,142.58,277.38,133.77,252.87Z" transform="translate(-19.41 -46.99)" fill="#fff" opacity="0.2"/><path d="M56.86,190.56c22.33-3,50,17.45,70.13,41-18-26.32-49.6-54-74.09-50.74C26.43,184.39,16.58,223,20.11,252.79,21,223.9,32.58,193.81,56.86,190.56Z" transform="translate(-19.41 -46.99)" fill="#fff" opacity="0.4"/><path d="M70.39,213.57c-7.41,3.28-4.4,25.64,2.82,41.89s17.71,24.35,25.12,21.07,8.92-16.72,1.71-33S77.8,210.28,70.39,213.57Z" transform="translate(-19.41 -46.99)" fill="#b75554"/><path d="M79.31,256.09c-5.77-13-9.79-28.54-10.7-41.15-5,6-2,25.76,4.6,40.52,5.26,11.87,12.28,19.38,18.56,21.29A88,88,0,0,1,79.31,256.09Z" transform="translate(-19.41 -46.99)" fill="#ffa2a1" opacity="0.4"/><path d="M44.74,220.34c-6.83-.14-12.94,18-13.24,33s5.28,24.94,12.11,25.07S56,268.83,56.25,253.83,51.58,220.47,44.74,220.34Z" transform="translate(-19.41 -46.99)" fill="#b75554"/><path d="M35.16,252.37c.21-10.86,2.94-23.08,6.87-31.13-5.66,3.82-10.27,19.14-10.53,32.11-.26,13.51,4.24,22.92,10.13,24.74C37.56,273,34.93,263.9,35.16,252.37Z" transform="translate(-19.41 -46.99)" fill="#ffa2a1" opacity="0.4"/><path d="M188.42,135.51c-25.59,8.88-38.73,37.3-28.09,63.75s42.4,37.51,69.38,24.33,38.06-42,26.09-64.11S214.07,126.65,188.42,135.51Z" transform="translate(-19.41 -46.99)" fill="#e6e6e6"/><path d="M177.66,212.36c-12.71-31.62.45-65.37,28.27-79.94a57.32,57.32,0,0,0-17.51,3.09c-25.59,8.88-38.73,37.3-28.09,63.75a46.94,46.94,0,0,0,23.73,25.05A61.52,61.52,0,0,1,177.66,212.36Z" transform="translate(-19.41 -46.99)" fill="#fff" opacity="0.4"/><path d="M255.8,159.48c-8.26-15.23-24.87-25-42.78-26.79,14.18,3.72,26.64,12.58,33.44,25.1,12,22.14.89,50.94-26.09,64.12a53.91,53.91,0,0,1-28.3,5.37,53.25,53.25,0,0,0,37.64-3.69C256.7,210.42,267.77,181.61,255.8,159.48Z" transform="translate(-19.41 -46.99)" opacity="0.1"/><path d="M205.61,153.48a27.1,27.1,0,0,0-4.27.83,15.54,15.54,0,1,1-17.63,17.14c-.06-.53-.09-1-.1-1.58a27.28,27.28,0,1,0,22-16.39Z" transform="translate(-19.41 -46.99)" fill="#73004e"/><path d="M197.12,197.06a5.79,5.79,0,1,0,6.41,5.09A5.79,5.79,0,0,0,197.12,197.06Z" transform="translate(-19.41 -46.99)" fill="#fff"/><path d="M190.56,209.82a2.72,2.72,0,1,0,3,2.39A2.72,2.72,0,0,0,190.56,209.82Z" transform="translate(-19.41 -46.99)" fill="#fff"/><path d="M177.47,133.6c1-.88,2.11-1.72,3.21-2.51a45.09,45.09,0,0,1,5.8-3.53c1.22-.62,2.46-1.19,3.74-1.7.81-.32,1.62-.61,2.43-.89l.89-.28c.52-.16,1-.33,1.56-.47s.74-.2,1.12-.3l1.32-.33,1.26-.26,1.18-.23,1.37-.23,1.06-.14c.49-.07,1-.12,1.48-.17l.91-.08c.54,0,1.07-.09,1.61-.11.23,0,.46,0,.69,0a54.18,54.18,0,0,1,9.44.49c.76.11,1.52.25,2.28.39l.67.13c.65.13,1.29.27,1.93.42l.41.09c.74.18,1.49.39,2.23.6l.63.19q.9.27,1.8.57l.52.18c.73.25,1.46.52,2.18.81l.56.23c.58.23,1.16.48,1.74.73l.57.26c.71.32,1.42.66,2.12,1l.45.24,1.73.92.58.33c.69.39,1.37.8,2.05,1.22l.29.19c.59.37,1.18.76,1.76,1.16l.57.39c.64.45,1.28.91,1.91,1.38l.07.06c.65.49,1.29,1,1.92,1.52l.52.43c.55.46,1.08.93,1.62,1.4l.27.25c.61.55,1.2,1.12,1.79,1.7.16.15.31.3.46.46.49.49,1,1,1.44,1.49l.35.37h0c-.27-.57-.54-1.12-.82-1.67-.09-.16-.17-.32-.25-.48-.28-.53-.57-1.05-.86-1.57a2.53,2.53,0,0,0-.13-.22c-.33-.58-.68-1.15-1-1.7-.09-.15-.18-.29-.28-.43-.3-.47-.6-.93-.92-1.38l-.22-.32c-.37-.53-.76-1.05-1.15-1.57l-.29-.36c-.33-.42-.66-.84-1-1.24l-.3-.36c-.41-.49-.83-1-1.26-1.43l-.28-.29c-.36-.39-.73-.77-1.1-1.15-.12-.11-.23-.23-.35-.35-.45-.44-.91-.88-1.38-1.3l-.21-.19c-.41-.37-.82-.73-1.24-1.08l-.4-.33q-.74-.6-1.47-1.17l-.06-.05-1.47-1.06-.43-.29c-.45-.31-.9-.61-1.36-.9l-.22-.14c-.52-.33-1.05-.64-1.58-.94l-.44-.25c-.44-.24-.88-.48-1.33-.71l-.35-.18c-.54-.28-1.08-.53-1.62-.78l-.44-.2-1.34-.57-.43-.17c-.56-.22-1.11-.43-1.67-.62l-.4-.14-1.39-.44-.48-.14c-.57-.17-1.14-.32-1.72-.46l-.31-.08-1.48-.32-.51-.1c-.59-.11-1.17-.21-1.76-.29a40,40,0,0,0-7.25-.38l-.53,0-1.24.08-.7.06-1.14.14-.81.11-1,.17c-.3.06-.61.11-.91.18l-1,.2-1,.25-.85.23c-.4.11-.8.24-1.2.37l-.68.21c-.63.21-1.25.44-1.87.69-1,.39-1.94.82-2.87,1.3a34.87,34.87,0,0,0-4.46,2.71c-.85.61-1.67,1.25-2.47,1.93l-.79.69a38,38,0,0,0-3,3c-.47.53-.93,1.07-1.38,1.63a43.15,43.15,0,0,0-2.8,3.95c-.19.3-.37.6-.55.91s-.3.51-.44.77Z" transform="translate(-19.41 -46.99)" fill="#fff" opacity="0.4"/><g opacity="0.2"><ellipse cx="147.6" cy="131.89" rx="15.46" ry="7.91" transform="translate(-63.95 37.3) rotate(-27.87)" fill="#fff"/><path d="M132.73,149.26c-3.54,1.87-5.63,4.86-4.67,6.67s4.6,1.76,8.14-.11,5.63-4.85,4.67-6.67S136.27,147.39,132.73,149.26Z" transform="translate(-19.41 -46.99)" fill="#fff"/></g><path d="M283.91,202.63c-3.58.32-7.56,2-11.82,4.52a23,23,0,0,1,4.22-.81c22.41-2.06,32.42,8.6,35,24.68C312,213.67,305.22,200.67,283.91,202.63Z" transform="translate(-19.41 -46.99)" fill="#fff" opacity="0.4"/><path d="M230.82,341.84a15.28,15.28,0,0,0-4.77,4.47,12.82,12.82,0,0,1,1.86-1.21c10.32-5.36,17.19-2.22,21.56,5C246.39,341.65,240.63,336.74,230.82,341.84Z" transform="translate(-19.41 -46.99)" fill="#fff" opacity="0.4"/><path d="M247.22,341.51c-2.43-5.07-6.72-8.15-13.71-5.45a9.22,9.22,0,0,0-3.36,2.48,8.58,8.58,0,0,1,1.33-.65C238.83,335.05,243.88,337.13,247.22,341.51Z" transform="translate(-19.41 -46.99)" fill="#fff" opacity="0.4"/><path d="M146.83,195.46c-18.34-6-37-8.67-50-5.84a115.46,115.46,0,0,0-18.5-3.24,89.16,89.16,0,0,1,9.47,5.54,382,382,0,0,1,43,10.09,206.19,206.19,0,0,0-23.56-9.38A258.64,258.64,0,0,1,146.83,195.46Z" transform="translate(-19.41 -46.99)" fill="#fff" opacity="0.4"/><path d="M110.1,188.51c.09-2,.2-4,.31-5.93,2.24-37.14,25.84-62.85,57.67-78.2-35.61,10.78-64.5,33.84-66.72,70.8-.26,4.33-.46,8.95-.52,13.77A65.5,65.5,0,0,1,110.1,188.51Z" transform="translate(-19.41 -46.99)" fill="#fff" opacity="0.4"/><path d="M298,277.45c10.8-22.09,16.43-44.76,4.43-53.48C310.8,234.67,306.56,256.22,298,277.45Zm-68.41-180C172.31,94,104.8,117.89,101.36,175.18c-.26,4.33-.46,8.95-.52,13.77,1.19-.15,2.43-.26,3.7-.34.09-4,.26-7.93.48-11.61,3.45-57.29,71-81.17,128.24-77.73,22.79,1.37,45.73,6.32,65.95,16C278.13,104.38,253.77,98.91,229.59,97.45Z" transform="translate(-19.41 -46.99)" fill="#fff" opacity="0.4"/><path d="M312.71,84.1c-4.37-1.91-10-18.87-11.63-23.91a6.39,6.39,0,0,0-1.52-2.52h0C280.66,38.44,259,46.15,254.43,73l-10.83,47.3,3,1.91L247,121l3,1.91c7,4.5,14.17,3.51,18.7-2.59l18.44-24.8c2.54,2.29,5,4.34,7.1,6,10.62,8,32,5.47,41.74-3.61.26-.25.53-.51.78-.77s.36-.43.53-.65C344.33,87.25,323.33,88.75,312.71,84.1Z" transform="translate(-19.41 -46.99)" fill="#f79594"/><path d="M298.22,59.77a11.71,11.71,0,0,1,1.53,2.54c1.6,5,4.83,24.31,9.2,26.22,10.29,4.5,34-1.06,28.87,7.07,5.21-8.26-14.82-7-25.11-11.5-4.37-1.91-10-18.87-11.63-23.91a6.39,6.39,0,0,0-1.52-2.52h0c-15-15.31-31.82-13.53-40.36,1.41C268.06,46.12,283.92,45.23,298.22,59.77Z" transform="translate(-19.41 -46.99)" fill="#fff" opacity="0.4"/><path d="M256.74,85,247,121l3,1.91c7,4.5,14.17,3.51,18.7-2.59l18.44-24.8c-9.6-8.66-20.87-20.67-24.73-24.83A42.82,42.82,0,0,0,256.74,85Z" transform="translate(-19.41 -46.99)" fill="#b75554"/><path d="M254.43,73l-10,43.76c3.46-12.23,9-32.26,11-40.92,4.3-19.42,19.89-28.91,35.37-25.19C274.42,41.27,258.33,50.28,254.43,73Z" transform="translate(-19.41 -46.99)" fill="#fff" opacity="0.4"/><path d="M207.18,329.84a135.38,135.38,0,0,1-17.84-4.06c-10.82,58.63-.8,119,47.06,148.27a178.49,178.49,0,0,0,18.83,10C209,442.22,199.76,383.49,207.18,329.84Z" transform="translate(-19.41 -46.99)" fill="#fff" opacity="0.2"/><path d="M197.48,331.24C186,386,192.31,446,240,475.24l.48.29C198.3,445.66,193.41,359.77,197.48,331.24Z" transform="translate(-19.41 -46.99)" fill="#fff" opacity="0.4"/><path d="M289.37,490.71c-52.5-35-71.88-96.63-70.2-159.24-11.78-1.3-23.24-3.36-32.41-6.53l-.42-.19c-11.89,59.36-1.92,121.36,48.22,151.49a190.75,190.75,0,0,0,72.9,25.47Q298.13,496.55,289.37,490.71Z" transform="translate(-19.41 -46.99)" fill="#fff" opacity="0.2"/><polygon points="362.92 460.39 373.44 461.13 384.95 483.34 366.39 476.83 355.02 488.85 352.68 468.75 362.92 460.39" fill="#534741"/><path d="M326.13,463.29l40.14-27.54,26.59,72.37-.05,0a36.14,36.14,0,0,1-20.71,7.59h0Z" transform="translate(-19.41 -46.99)" fill="#f79594"/><path d="M366.27,435.75l26.59,72.37,11.5,22.21-16.83-21.46a22.09,22.09,0,0,1-4-8Z" transform="translate(-19.41 -46.99)" fill="#b75554" opacity="0.2"/><path d="M370.05,504.09a22.72,22.72,0,0,1,6.68,21.75l-2.3,10-2.33-20.1L351.24,492Z" transform="translate(-19.41 -46.99)" fill="#fff" opacity="0.4"/><path d="M331.43,474.41a11,11,0,0,0,.41,4.73,9.1,9.1,0,0,1,.14-1.61c1.57-8.3,6.45-10.81,12.51-10.08C338.3,465.43,332.91,466.52,331.43,474.41Z" transform="translate(-19.41 -46.99)" fill="#fff" opacity="0.4"/><path d="M335.9,464.9c-3.88-.67-7.11.41-7.61,5.11a5.88,5.88,0,0,0,.49,2.71,4.2,4.2,0,0,1,0-.94C329.31,466.83,332.16,465,335.9,464.9Z" transform="translate(-19.41 -46.99)" fill="#fff" opacity="0.4"/><path d="M438.08,262.08c-33,98.44-114,135.54-262.21,120.23l.51,11.87a591.8,591.8,0,0,0,60.85,3.37c46.59,0,84.86-6.84,116-20.64,43.74-19.38,73.95-52.44,92.1-100.85C443.54,272.27,440.13,265.64,438.08,262.08Z" transform="translate(-19.41 -46.99)" fill="#5b453b"/><polygon points="180.05 358.53 167.19 353.69 142.04 365.24 166.86 371.38 169.14 388.21 190.75 366.21 180.05 358.53" fill="#534741"/><path d="M234.67,344.47l-48.06,56.21h0c2.09,4.69,9.14,11.74,13.68,13.07,2.37.7,9.88-.55,9.88-.55l57.19-44.26Z" transform="translate(-19.41 -46.99)" fill="#f79594"/><path d="M234.67,344.47l-48.06,56.21-25.16,11.55L185.87,406a13.11,13.11,0,0,0,7.31-4.94Z" transform="translate(-19.41 -46.99)" fill="#fff" opacity="0.4"/><path d="M229.27,393.9a137.73,137.73,0,0,0-39.85,40l-.87,1.34,21.62-22L254.38,379Z" transform="translate(-19.41 -46.99)" fill="#b75554" opacity="0.2"/></g></svg>