<svg xmlns="http://www.w3.org/2000/svg" xmlns:xlink="http://www.w3.org/1999/xlink" viewBox="0 0 522.16 549.18"><defs><clipPath id="a" transform="translate(-38.92 -25.41)"><rect width="600" height="600" fill="none"/></clipPath></defs><g clip-path="url(#a)"><polygon points="459.37 341.59 464.19 350.11 487.38 350.87 474.52 337.93 480.04 323.61 462.28 329.68 459.37 341.59" fill="#534741"/><path d="M438.93,337.56l-7,44.61,71.2-6.65v0a33.52,33.52,0,0,0-1.92-20.38h0Z" transform="translate(-38.92 -25.41)" fill="#f79594"/><path d="M431.91,382.17l71.2-6.65,23.19.76-24.68-5.52a20.54,20.54,0,0,0-8.3-.14Z" transform="translate(-38.92 -25.41)" fill="#b75554" opacity="0.2"/><path d="M490.63,358a21.08,21.08,0,0,0,20.88-3.09L519,349l-17.76,6.07L473,347.14Z" transform="translate(-38.92 -25.41)" fill="#fff" opacity="0.4"/><path d="M327.83,528.5c-84.16,0-152.39,19.12-152.39,28.72s68.23,17.37,152.39,17.37,152.39-7.77,152.39-17.37S412,528.5,327.83,528.5Z" transform="translate(-38.92 -25.41)" opacity="0.1"/><path d="M227.92,487.83q3.12,3,6.27,6-7.84,8.08-16,15.74-.09-8-.25-16-6.51-2.4-13-4.91,8.07-3.6,16-7.54Q224.41,484.49,227.92,487.83Z" transform="translate(-38.92 -25.41)" fill="#534741"/><path d="M220.93,481.13A550.38,550.38,0,0,0,246.26,429q17.55,9.18,35.75,17.61a449.48,449.48,0,0,1-47.82,47.31q-2.9-1.61-5.76-3.24a15.42,15.42,0,0,1-7.5-9.5Z" transform="translate(-38.92 -25.41)" fill="#f79594"/><path d="M217,486.45c-4.22.55-8.75.74-12.06,2.22q8.07-3.6,16-7.54A550.38,550.38,0,0,0,246.26,429c-6.82,16.14-11.72,34.61-19.32,50.31A12.91,12.91,0,0,1,217,486.45Z" transform="translate(-38.92 -25.41)" fill="#fff" opacity="0.4"/><path d="M264.82,465.23q-14.69,15.09-30.63,28.64-7.84,8.08-16,15.74c5.46-5.1,6.92-12.77,12.15-18.16C239.56,483.58,252.53,474.56,264.82,465.23Z" transform="translate(-38.92 -25.41)" fill="#b75554" opacity="0.2"/><path d="M468.08,287.13l-1.4-.9a67.31,67.31,0,0,1-9.66-7.7c1.73-1.23,3.44-2.51,5.12-3.86l1.1-.89c.73-.6,1.46-1.21,2.18-1.84s1.43-1.28,2.13-1.94c1.06-1,2.09-2,3.1-3.11a45.47,45.47,0,0,0,3.81-4.67c.3-.42.59-.86.87-1.3a25.71,25.71,0,0,0,2.28-4.33,17.83,17.83,0,0,0,1.4-6.14c0-.33,0-.65,0-1a13.49,13.49,0,0,0-.73-3.93c-.11-.32-.23-.63-.36-.94a13.57,13.57,0,0,0-.94-1.77c-.18-.28-.36-.54-.56-.8s-.35-.45-.53-.67l-.16-.18c-.15-.18-.3-.34-.46-.5l-.2-.21-.43-.41-.31-.28-.23-.2c-.26-.21-.52-.42-.79-.61h0a17.42,17.42,0,0,0-2.44-1.5,22.8,22.8,0,0,0-6.12-2,28.24,28.24,0,0,0-12.18.46,23.8,23.8,0,0,0-5.74,2.31,18,18,0,0,0-4.92,4.07,15.13,15.13,0,0,0-3,5.75,17.18,17.18,0,0,0-.45,6.23,22.94,22.94,0,0,0,.53,3,28.11,28.11,0,0,0,.88,2.78,37.72,37.72,0,0,0,2.41,5.14,47.66,47.66,0,0,0,4,6c-3.37,1.83-6.82,3.54-10.32,5.18-.63-1.48,2.85,7,4.43,12.76,4.29-2.43,8.54-5,12.7-7.77.61-.4,1.22-.82,1.82-1.24h0a69.79,69.79,0,0,0,11,7.56c.49.27,1,.54,1.48.8A.73.73,0,0,0,468.08,287.13Zm-2.24-30.05c-.78.85-1.63,1.69-2.51,2.49a61.79,61.79,0,0,1-5.79,4.59c-.68.48-1.37,1-2.07,1.42-1.38.92-2.79,1.8-4.22,2.66l-2,1.16a42.52,42.52,0,0,1-3.46-6.07,33.76,33.76,0,0,1-1.8-4.71c-.23-.79-.41-1.59-.56-2.37a15.18,15.18,0,0,1-.22-2.32,11.89,11.89,0,0,1,.68-4.35,9.71,9.71,0,0,1,2.25-3.5,14.52,14.52,0,0,1,7.86-3.71,21.19,21.19,0,0,1,9.08.45,14.81,14.81,0,0,1,3.88,1.67c.19.12.36.25.54.38l.55.43.11.1.42.39.21.23.26.3a6.42,6.42,0,0,1,.39.57,4.3,4.3,0,0,1,.58,2.61,6.67,6.67,0,0,1-.31,1.54,11.88,11.88,0,0,1-.72,1.69c-.16.29-.32.59-.5.88A21.86,21.86,0,0,1,465.84,257.08Z" transform="translate(-38.92 -25.41)" fill="#f79594"/><path d="M470.6,250.8a4.79,4.79,0,0,0-.63-2.61,4.72,4.72,0,0,1,.08,1.31,8.48,8.48,0,0,1-1,3.23,26.4,26.4,0,0,1-5.69,6.84,67,67,0,0,1-7.86,6c-2,1.34-4.08,2.6-6.19,3.82-.85.49-1.71,1-2.57,1.44l-.47.26c-3.19,1.73-6.44,3.36-9.75,4.92,3.08-1.26,6.11-2.57,9.07-4l.51-.24,2.73-1.34c2.26-1.14,4.46-2.33,6.58-3.6a63.35,63.35,0,0,0,8.31-5.82,24.24,24.24,0,0,0,5.91-6.87A8.25,8.25,0,0,0,470.6,250.8Z" transform="translate(-38.92 -25.41)" fill="#fff" opacity="0.4"/><path d="M474.46,262.22a28.49,28.49,0,0,0,3.15-5.63,17.6,17.6,0,0,0,1.41-7.12,13.49,13.49,0,0,0-.73-3.93,12.68,12.68,0,0,0-1.86-3.51,15.77,15.77,0,0,0-5.55-4.57,22.8,22.8,0,0,0-6.12-2,28.24,28.24,0,0,0-12.18.46,23.8,23.8,0,0,0-5.74,2.31,18,18,0,0,0-4.92,4.07l-.06.07a18.56,18.56,0,0,1,3.64-2.7,23.73,23.73,0,0,1,5.73-2.31,28.29,28.29,0,0,1,12.19-.46,22.8,22.8,0,0,1,6.12,2,15.77,15.77,0,0,1,5.55,4.57A13,13,0,0,1,477,247a13.81,13.81,0,0,1,.72,3.93,17.43,17.43,0,0,1-1.4,7.12,29,29,0,0,1-3.15,5.63,46.54,46.54,0,0,1-3.36,4.16c.3-.3.59-.61.89-.93A45.47,45.47,0,0,0,474.46,262.22Z" transform="translate(-38.92 -25.41)" fill="#fff" opacity="0.4"/><path d="M444,258.62c-.23-.79-.41-1.59-.56-2.37a15.18,15.18,0,0,1-.22-2.32,11.89,11.89,0,0,1,.68-4.35,9.67,9.67,0,0,1,1.39-2.5c-.16.14-.33.28-.48.44a9.71,9.71,0,0,0-2.25,3.5,11.9,11.9,0,0,0-.69,4.35,16.57,16.57,0,0,0,.23,2.32,20.82,20.82,0,0,0,.56,2.37,32.5,32.5,0,0,0,1.79,4.71,43.05,43.05,0,0,0,3.13,5.57l1.68-.94a42.52,42.52,0,0,1-3.46-6.07A33.76,33.76,0,0,1,444,258.62Z" transform="translate(-38.92 -25.41)" fill="#b75554" opacity="0.4"/><path d="M440.34,289c4.3-2.43,8.55-5,12.71-7.77.61-.4,1.22-.82,1.82-1.24s1.44-1,2.15-1.5c1.73-1.23,3.44-2.51,5.12-3.86a77.31,77.31,0,0,0,8.51-7.78c.56-.61,1.11-1.24,1.65-1.88a51.27,51.27,0,0,1-4.69,4.74,86.43,86.43,0,0,1-10.22,7.69c-2,1.31-4,2.55-6.06,3.72-.84.5-4,2.23-4.67,2.62q-3.39,1.82-6.82,3.48C440,287.86,440.18,288.45,440.34,289Z" transform="translate(-38.92 -25.41)" fill="#b75554" opacity="0.4"/><polygon points="125.87 315.04 119.79 305.1 96.25 301.21 110.62 315.2 102.36 326.6 124.83 324.12 125.87 315.04" fill="#534741"/><path d="M158.71,330.51h0a28.26,28.26,0,0,0,3.84,17l1.2,2,62.9,3.86-.63-32Z" transform="translate(-38.92 -25.41)" fill="#f79594"/><polygon points="102.36 326.6 124.83 324.12 187.73 327.98 125.33 320.77 102.36 326.6" fill="#b75554" opacity="0.2"/><path d="M223.78,321.69l-65.07,8.82h0l-23.54-3.89,12.05,6.48a36.92,36.92,0,0,0,27.86,2.9Z" transform="translate(-38.92 -25.41)" fill="#fff" opacity="0.4"/><path d="M289.11,111.42c-14-6.38-24-7.3-31.34-4.13,39.91,8.64,75.34,32.22,86.15,79.56,14.43,63.15-25.53,123.22-77.23,126.46-17.13,1.08-49,1.36-70.61-4.15a203.29,203.29,0,0,0-3,50.86h0q.11,1.41.24,2.82v.06c.09.92.18,1.84.28,2.75v.07q.47,4.21,1.16,8.35v0c.14.87.29,1.73.45,2.59l.06.28c.15.82.31,1.65.48,2.47,0,.06,0,.12,0,.18q.82,4,1.88,7.88c0,.11.06.23.1.35.2.73.4,1.45.61,2.17,0,.15.09.3.13.45.22.74.45,1.47.68,2.2l.09.29a112.64,112.64,0,0,0,7.08,17.26h0c.52,1,1,2,1.59,3a.75.75,0,0,0,.07.12c.5.9,1,1.8,1.54,2.68l.22.37c.53.88,1.07,1.75,1.63,2.61l.08.13q1.77,2.75,3.74,5.37l.35.46c.53.7,1.07,1.4,1.62,2.08l.43.54c.63.76,1.26,1.52,1.91,2.27l.14.16c.7.8,1.42,1.6,2.15,2.38l.49.51c.55.58,1.12,1.17,1.7,1.74l.73.72c.53.52,1.06,1,1.61,1.53l.74.69a94,94,0,0,0,17.08,12.33c65.68,37.12,168.58,37.38,208.92-66.84C480.46,312.56,391.69,158.3,289.11,111.42Z" transform="translate(-38.92 -25.41)" fill="#f79594"/><path d="M319,128.29C395.85,202.14,451.53,327,430.31,390c-10.81,32-26.61,55-45.2,70.56,28.11-13.08,52.66-37.65,68.07-77.47C477.77,319.53,408.1,188,319,128.29Z" transform="translate(-38.92 -25.41)" fill="#b75554" opacity="0.2"/><path d="M257.77,107.29l.93.21-.79-.27Zm31.34,4.13c-7-3.18-13-5-18.12-5.64,1.56.64,3.18,1.35,4.85,2.15,102.88,49,192.48,209.16,165.53,282-10,26.93-23.87,47.07-40.16,61.54,21.3-14.26,39.58-36.41,52-68.41,8.56-22.13,5.69-52.5-5.45-85.22C423.38,226.3,359.49,143.59,289.11,111.42Z" transform="translate(-38.92 -25.41)" fill="#b75554" opacity="0.2"/><path d="M348.36,309.82c-1.48,0-2.76-1.91-2.85-4.31s1-4.37,2.52-4.4,2.75,1.91,2.85,4.31S349.84,309.79,348.36,309.82Z" transform="translate(-38.92 -25.41)" fill="#b75554" opacity="0.2"/><path d="M356.45,295.71c0-1.13.49-2,1.18-2.06s1.29.89,1.34,2-.49,2.05-1.18,2.06S356.5,296.84,356.45,295.71Z" transform="translate(-38.92 -25.41)" fill="#b75554" opacity="0.2"/><path d="M367.92,325.38c-2.67,0-5-3.44-5.13-7.78s1.87-7.88,4.54-7.93,5,3.44,5.14,7.78S370.6,325.34,367.92,325.38Z" transform="translate(-38.92 -25.41)" fill="#b75554" opacity="0.2"/><path d="M368.44,292.94c-.08-2,.87-3.7,2.12-3.72s2.33,1.61,2.41,3.65-.87,3.69-2.13,3.71S368.51,295,368.44,292.94Z" transform="translate(-38.92 -25.41)" fill="#b75554" opacity="0.2"/><path d="M363.3,349.35c-1.48,0-2.75-1.9-2.84-4.31s1-4.37,2.51-4.39,2.76,1.9,2.85,4.31S364.78,349.33,363.3,349.35Z" transform="translate(-38.92 -25.41)" fill="#b75554" opacity="0.2"/><path d="M371.4,335.24c0-1.12.48-2,1.18-2.06s1.29.9,1.33,2-.49,2-1.18,2.05S371.44,336.37,371.4,335.24Z" transform="translate(-38.92 -25.41)" fill="#b75554" opacity="0.2"/><path d="M393.83,306.6c-2.67,0-5-3.44-5.13-7.78s1.87-7.89,4.54-7.93,5,3.44,5.13,7.78S396.5,306.55,393.83,306.6Z" transform="translate(-38.92 -25.41)" fill="#b75554" opacity="0.2"/><path d="M383.38,332.47c-.08-2,.88-3.7,2.13-3.72s2.33,1.62,2.4,3.65-.87,3.7-2.12,3.72S383.46,334.5,383.38,332.47Z" transform="translate(-38.92 -25.41)" fill="#b75554" opacity="0.2"/><path d="M307.84,215.26l-15-17.63a27.31,27.31,0,0,0-9.46.36c-19.5,3.82-60.14,46.21-84,60.57-3.21,1.93-6.39,3.95-9.64,6,38,4.8,22,37.62,20.78,40.11,22.31,0,51.81,1.1,67.35-3.46l25.71-42.61C307.66,243.56,310,227.26,307.84,215.26Z" transform="translate(-38.92 -25.41)" fill="#b75554"/><path d="M212.75,304.65c2.42-4.84,19.94-36.93-20.05-42l-3,1.91c38,4.8,22,37.62,20.78,40.11Z" transform="translate(-38.92 -25.41)" fill="#fff" opacity="0.4"/><path d="M253.85,262.55c-4.66,13.16-2.34,29,4.55,42.39l17.09.05,45.12-74.78-9.86-11.54C287.21,220.48,261.16,241.91,253.85,262.55Z" transform="translate(-38.92 -25.41)" fill="#73004e" opacity="0.4"/><path d="M242.35,220.5c-9.31,6.28-9.9,22.71-3,31.37s19,4.84,28.43-3.21,12.65-15.84,5.62-22.73S251.68,214.21,242.35,220.5Z" transform="translate(-38.92 -25.41)" fill="#e6e6e6"/><path d="M273.44,225.93c-6.15-6-18.08-10.43-27.22-7.33a40.15,40.15,0,0,1,21.23,10.14c5.81,5.69,6.06,11.85,2.21,18.27C277.63,239.54,280,232.35,273.44,225.93Z" transform="translate(-38.92 -25.41)" opacity="0.1"/><path d="M198.18,248.1c-8.66.68-15.33,11.5-14,20s10.94,10.5,20.35,8.68,14.55-5.82,12.45-13.14S206.85,247.43,198.18,248.1Z" transform="translate(-38.92 -25.41)" fill="#e6e6e6"/><path d="M217,263.62c-1.7-5.86-7.17-12.68-13.73-14.85a33,33,0,0,1,8.56,13.77c1.79,6.23-.27,10.68-5.19,13.76C214.73,274.3,219,270.37,217,263.62Z" transform="translate(-38.92 -25.41)" opacity="0.1"/><path d="M244.62,246.4c-4.43-5.53-6.78-13.18-6.93-20.85-4.57,7.7-3.81,19.46,1.7,26.32,5.25,6.55,13.42,6,21.16,1.81A18.83,18.83,0,0,1,244.62,246.4Z" transform="translate(-38.92 -25.41)" fill="#fff" opacity="0.4"/><path d="M271.14,310.07c8.11-2.74,11.85-14.69,8.48-22.45s-13-7.38-21.52-3.36-12.48,9.09-8.7,15.57S263,312.81,271.14,310.07Z" transform="translate(-38.92 -25.41)" fill="#e6e6e6"/><path d="M249.4,299.83c3.31,5.64,11.18,11.29,18.52,10.86A30.59,30.59,0,0,1,254.36,299c-3.12-5.35-2.07-9.92,2.05-13.87C249.05,289,245.87,293.79,249.4,299.83Z" transform="translate(-38.92 -25.41)" fill="#fff" opacity="0.4"/><path d="M274.68,290.59a26.57,26.57,0,0,1,.9,16.71c4.91-4.74,6.71-13.53,4-19.68-2.53-5.87-8.65-7.08-15.17-5.58A14.33,14.33,0,0,1,274.68,290.59Z" transform="translate(-38.92 -25.41)" opacity="0.1"/><path d="M191.34,269.66c-1.22-7.58,2.71-16.67,9-21.53a12,12,0,0,0-2.16,0c-8.66.68-15.33,11.5-14,20,.91,5.67,5.51,8.45,11.27,9.13A12.21,12.21,0,0,1,191.34,269.66Z" transform="translate(-38.92 -25.41)" fill="#fff" opacity="0.4"/><path d="M290.72,256.36c-4.22-2.43-10.77-1-16.15,1.79-4.06,2.12-7.08,4.24-13,7.38a137.9,137.9,0,0,1-39.08,12.72,139.3,139.3,0,0,1-16.48,1c-10,.28-19.63,1.43-27.5,5.75-6.06,3.33-8.44,5.55-13.23,9.56-3.27,2.74-4.35,8-3.19,10.47,1.64,3.51,8.94,7.66,15,3.86,5.62-3.51,8.83-7.45,15.94-11.56,5.48-3.17,17.7-6.54,23.69-8.49,11.61-3.77,34.64-12.18,45.52-17.72,5.73-2.91,16.67-10.25,24.08-9,8.44,1.43,9.58,18.38,11,20.85,1.84,3.24,6.12,17.56,6.93,11.7C305.39,286.22,300.63,262.06,290.72,256.36Z" transform="translate(-38.92 -25.41)" fill="#e68595"/><path d="M262.6,269.9c-10.89,5.54-35.2,13.6-46.82,17.38-6,2-18.21,5.32-23.68,8.49-3.85,2.22-7.68,6.47-11.27,10.46,3.66-2.8,6.81-5.82,12.2-8.94s17.7-6.54,23.69-8.49c11.61-3.77,34.64-12.18,45.52-17.72,5.73-2.91,16.67-10.25,24.08-9C278.91,260.83,268.32,267,262.6,269.9Z" transform="translate(-38.92 -25.41)" fill="#73004e" opacity="0.2"/><path d="M274.57,258.15c-4.06,2.12-7.08,4.24-13,7.38a137.9,137.9,0,0,1-39.08,12.72,139.3,139.3,0,0,1-16.48,1c-10,.28-19.63,1.43-27.5,5.75-6.06,3.33-8.44,5.55-13.23,9.56a8.73,8.73,0,0,0-1.51,1.64c5.17-3.45,10.63-6.87,13.87-8.71,8.06-4.56,18.11-4.58,28.46-5.16a148.17,148.17,0,0,0,17-1.47c13-2.29,29.49-8.06,40.23-13.92,6.09-3.32,9.18-5.54,13.33-7.78s8.82-3.65,12.8-3.33C285.29,254.21,279.45,255.59,274.57,258.15Z" transform="translate(-38.92 -25.41)" fill="#fff" opacity="0.4"/><path d="M206.93,73.37c-4.38,0-16.64-14.23-16.64-14.23-10,3.83-19.6,11.48-22.88,21.2,0,0,20.33,8.62,31.81,11.28,10.12,2.35,24.57-6.25,28.63-15.82.11-.26.21-.53.32-.8s.11-.41.16-.62C230.48,65.58,216,73.31,206.93,73.37Z" transform="translate(-38.92 -25.41)" fill="#f79594"/><path d="M201.43,89.89c-7.5-1.74-23.43-7.22-33.55-10.8-.17.41-.33.83-.47,1.25,0,0,20.33,8.62,31.81,11.28,6.82,1.58,15.61-1.81,21.86-7.13C215.08,88.78,207.48,91.29,201.43,89.89Z" transform="translate(-38.92 -25.41)" fill="#b75554" opacity="0.4"/><path d="M190.29,59.14l-1.11.08C170,61,157.35,80,162.49,98.49l7.16,34.42,2.68-.93-.15-1,2.69-.93A18.65,18.65,0,0,0,187.11,116l9.1-47.21Z" transform="translate(-38.92 -25.41)" fill="#f79594"/><path d="M182.56,118.84a21.27,21.27,0,0,1-7.77,11.28l.08,0A18.65,18.65,0,0,0,187.11,116l6.55-34Z" transform="translate(-38.92 -25.41)" fill="#fff" opacity="0.4"/><path d="M173.13,130.69l-6.37-31.12c-4.91-18.11,5.65-36.55,22.6-40.36h-.18C170,61,157.35,80,162.49,98.49l7.16,34.42,2.68-.93-.15-1Z" transform="translate(-38.92 -25.41)" fill="#fff" opacity="0.4"/><circle cx="127.56" cy="185.03" r="39.27" transform="translate(-136.05 164.24) rotate(-56.6)" fill="#e6e6e6"/><path d="M105.26,211a54.15,54.15,0,0,1,13.43-64.18,39.7,39.7,0,0,0-8,2.79,39.26,39.26,0,0,0,.58,71.17A55.06,55.06,0,0,1,105.26,211Z" transform="translate(-38.92 -25.41)" fill="#fff" opacity="0.4"/><path d="M352.35,185.42c-14.15-62.15-68.83-84.86-122-86.65s-115.21,22-117,75.24c-.14,4-.2,8.31-.14,12.79-1.27.19-2.5.43-3.66.71A105.94,105.94,0,0,0,92.3,185c-8.25-3.86-16.4-5.7-23.78-4.52-29.37,4.74-35.27,55.81-24.76,82.78,10.38,26.63,38.85,35.94,67.84,31.62.91-.11,1.86-.23,2.84-.39a217.08,217.08,0,0,0,33.47-8.84c19.66-4.93,43.88-12.37,57.09-19.68,23-12.75,50.8-51.23,69.48-54.79,45.9-8.74,13.91,77.44.27,86.56-15.55,10.41-62.73,1-78.41,5.48a4,4,0,0,0-.14,7.58c22.13,7,58.14,6.8,76.92,5.63C326.26,313.1,367.25,250.9,352.35,185.42Z" transform="translate(-38.92 -25.41)" fill="#f79594"/><path d="M196.34,303.19a4,4,0,0,0-.14,7.58q.84.27,1.71.51a4,4,0,0,1,1.87-6.5c6-1.7,15.84-2.06,26.52-2.44C214,301.84,202.62,301.41,196.34,303.19Z" transform="translate(-38.92 -25.41)" fill="#fff" opacity="0.4"/><path d="M281.45,313.71c-16,1-56.37,2.13-81.63-1.9,22.26,5.93,55.51,5.69,73.3,4.59a72.64,72.64,0,0,0,22.27-5A68.23,68.23,0,0,1,281.45,313.71Z" transform="translate(-38.92 -25.41)" fill="#b75554" opacity="0.4"/><path d="M355.31,198.23a82.16,82.16,0,0,0-10.21-22.79q1.86,4.83,3.35,10.08c11.05,39.09,1,78-20.6,103.25C352.12,271.12,365.64,234.76,355.31,198.23Z" transform="translate(-38.92 -25.41)" fill="#fff" opacity="0.2"/><path d="M275.94,204.7c-18.88,2.24-48.94,44.23-70.6,59.16a105.27,105.27,0,0,1-21.77,11.2A148.11,148.11,0,0,0,205,265.94c23-12.75,50.8-51.23,69.48-54.79,45.9-8.74,13.91,77.44.27,86.56-9.54,6.39-31,5.32-49.79,4.58,19.34,1.35,41.13,3,50.45-3.25C289.05,289.91,327.51,198.57,275.94,204.7Z" transform="translate(-38.92 -25.41)" fill="#fff" opacity="0.4"/><g opacity="0.4"><path d="M234.26,99c39.36,6.28,82.6,28.77,108.45,59.78C321.51,117.82,277.74,101.26,234.26,99Z" transform="translate(-38.92 -25.41)" fill="#b75554"/></g><path d="M277.89,300.82c-6.64,4.44-19.05,5.28-32.31,5.13,14.13,1.63,27.37,2.11,34.11-2.4,5.18-3.47,11.55-17.34,14.95-32.72C289.51,285.3,282.6,297.67,277.89,300.82Z" transform="translate(-38.92 -25.41)" fill="#b75554" opacity="0.4"/><path d="M120.24,191.15c-22,2.28-26.18,41.41-18.38,61.42s12,32.5,33.76,29,58.92-13.42,62.53-30.35C203.33,227,155.41,187.49,120.24,191.15Z" transform="translate(-38.92 -25.41)" fill="#f79594"/><path d="M68.52,180.45c-29.37,4.74-35.27,55.81-24.76,82.78s39.58,36.19,69,31.45,47.93-21.63,37.42-48.6S97.9,175.72,68.52,180.45Z" transform="translate(-38.92 -25.41)" fill="#ffa2a1"/><path d="M145.29,245.25a90.43,90.43,0,0,0-9.91-17.94c1.08,2.35,2,4.65,2.85,6.86,9.53,25.94,1.41,45-16.77,56.34C142.58,283.26,154.07,267.77,145.29,245.25Z" transform="translate(-38.92 -25.41)" fill="#fff" opacity="0.2"/><path d="M72.44,189.37c20.63-3.33,46.81,14.94,66,36.31-17.37-24-47.33-48.87-70-45.23-24.45,4-32.64,40-28.63,67.53C40,221.17,50,193,72.44,189.37Z" transform="translate(-38.92 -25.41)" fill="#fff" opacity="0.4"/><path d="M85.55,210.37c-6.79,3.23-3.44,23.89,3.65,38.78s17,22.14,23.81,18.91,7.86-15.72.77-30.61S92.34,207.14,85.55,210.37Z" transform="translate(-38.92 -25.41)" fill="#b75554"/><path d="M94.87,249.58c-5.67-11.91-9.78-26.22-10.94-37.9-4.52,5.66-1.17,23.95,5.27,37.47,5.17,10.87,11.86,17.66,17.74,19.29A81.94,81.94,0,0,1,94.87,249.58Z" transform="translate(-38.92 -25.41)" fill="#ffa2a1" opacity="0.4"/><path d="M61.94,217.28c-6.34.05-11.56,17-11.47,30.94s5.51,23,11.85,23,11.21-9.2,11.12-23.11S68.28,217.24,61.94,217.28Z" transform="translate(-38.92 -25.41)" fill="#b75554"/><path d="M53.84,247.22c-.07-10.07,2.16-21.47,5.6-29-5.15,3.68-9,18-9,30,.09,12.53,4.5,21.15,10,22.69C56.58,266.25,53.91,257.92,53.84,247.22Z" transform="translate(-38.92 -25.41)" fill="#ffa2a1" opacity="0.4"/><path d="M193.07,135.08c-23.5,8.86-35,35.54-24.47,59.8s40.24,33.74,64.93,20.86,34.26-39.87,22.61-60.1S216.64,126.24,193.07,135.08Z" transform="translate(-38.92 -25.41)" fill="#e6e6e6"/><path d="M185,206.6c-12.57-29-1.19-60.62,24.24-74.82a53.18,53.18,0,0,0-16.16,3.3c-23.5,8.86-35,35.54-24.47,59.8a43.49,43.49,0,0,0,22.62,22.65A57,57,0,0,1,185,206.6Z" transform="translate(-38.92 -25.41)" fill="#fff" opacity="0.4"/><path d="M256.14,155.64c-8-13.91-23.68-22.59-40.33-23.78,13.25,3.1,25,11,31.63,22.45,11.64,20.24,2.08,47.22-22.61,60.1a50,50,0,0,1-26.11,5.68,49.46,49.46,0,0,0,34.81-4.35C258.23,202.85,267.79,175.87,256.14,155.64Z" transform="translate(-38.92 -25.41)" opacity="0.1"/><path d="M209.46,151.32a25.45,25.45,0,0,0-4,.88,14.41,14.41,0,1,1-16,14.86,25.3,25.3,0,1,0,20-15.74Z" transform="translate(-38.92 -25.41)" fill="#73004e"/><path d="M202.65,191.94a5.37,5.37,0,1,0,6.07,4.57A5.37,5.37,0,0,0,202.65,191.94Z" transform="translate(-38.92 -25.41)" fill="#fff"/><path d="M196.89,203.94a2.51,2.51,0,1,0,2.84,2.14A2.52,2.52,0,0,0,196.89,203.94Z" transform="translate(-38.92 -25.41)" fill="#fff"/><path d="M182.87,133.58c.94-.85,1.91-1.65,2.92-2.41a41.91,41.91,0,0,1,5.29-3.42c1.11-.6,2.25-1.15,3.42-1.66.74-.31,1.49-.61,2.24-.88l.81-.29,1.43-.48,1-.3c.41-.11.82-.23,1.23-.33l1.16-.28c.36-.09.72-.17,1.09-.24l1.26-.25,1-.16c.45-.07.91-.14,1.37-.19l.84-.1,1.49-.14.64,0a49.45,49.45,0,0,1,8.77.22c.71.09,1.41.19,2.12.3l.63.11c.6.1,1.19.21,1.79.34l.38.07c.7.16,1.39.32,2.09.5l.59.16,1.68.49.49.15c.68.22,1.36.45,2,.7l.52.2c.55.2,1.09.41,1.63.64l.54.22c.67.28,1.33.58,2,.89l.43.21q.81.39,1.62.81l.54.29c.65.35,1.3.71,1.93,1.08l.28.17c.56.33,1.11.68,1.67,1l.52.35c.61.4,1.22.81,1.81,1.23l.07.05c.62.44,1.22.9,1.82,1.37.16.12.33.25.49.39q.78.62,1.53,1.26l.27.22c.57.49,1.14,1,1.7,1.53l.44.41c.46.44.91.89,1.36,1.35.12.11.23.22.34.34h0q-.39-.77-.81-1.53l-.24-.43c-.27-.49-.55-1-.83-1.44l-.13-.2c-.32-.53-.65-1-1-1.55-.08-.14-.17-.27-.26-.4-.29-.42-.59-.84-.89-1.25l-.21-.29c-.36-.48-.73-1-1.11-1.42-.09-.12-.19-.23-.28-.34-.31-.38-.63-.75-1-1.12-.09-.11-.18-.22-.28-.32-.39-.45-.8-.88-1.21-1.3a3.19,3.19,0,0,0-.26-.26c-.34-.36-.69-.7-1.05-1l-.34-.32c-.43-.4-.86-.79-1.3-1.17l-.2-.17-1.18-1-.38-.3c-.46-.36-.93-.71-1.4-1l-.05,0c-.46-.32-.92-.64-1.39-.94l-.41-.27-1.28-.8-.21-.12c-.49-.29-1-.57-1.48-.83l-.42-.22c-.41-.22-.83-.43-1.25-.63l-.33-.16c-.5-.24-1-.47-1.52-.68l-.41-.17c-.42-.18-.84-.34-1.26-.5l-.4-.15c-.52-.19-1-.37-1.57-.54l-.37-.11c-.43-.13-.86-.26-1.3-.37l-.45-.13c-.53-.14-1.07-.27-1.6-.38l-.3-.06c-.45-.1-.91-.18-1.37-.26l-.48-.08c-.55-.09-1.09-.17-1.64-.23a36.91,36.91,0,0,0-6.73-.17c-.17,0-.33,0-.49,0-.38,0-.77.07-1.15.11l-.64.07c-.36,0-.71.09-1.06.15l-.75.12-1,.19-.84.18-.89.22-.94.26-.79.23c-.37.11-.73.24-1.1.37l-.62.21c-.58.22-1.15.44-1.72.69-.9.38-1.78.81-2.63,1.27a32.86,32.86,0,0,0-4.07,2.63c-.77.58-1.52,1.2-2.24,1.85-.24.21-.48.43-.71.66a32.93,32.93,0,0,0-2.68,2.85c-.42.5-.84,1-1.23,1.54a40.48,40.48,0,0,0-2.51,3.73l-.49.85-.39.73A1.07,1.07,0,0,0,182.87,133.58Z" transform="translate(-38.92 -25.41)" fill="#fff" opacity="0.4"/><g opacity="0.2"><path d="M167.62,125.69c-2-3.53-9.19-3.24-16.1.65s-10.88,9.9-8.89,13.43,9.2,3.25,16.1-.64S169.61,129.23,167.62,125.69Z" transform="translate(-38.92 -25.41)" fill="#fff"/><path d="M141.77,149.21c-3.23,1.82-5.1,4.64-4.16,6.29s4.31,1.53,7.54-.3,5.1-4.64,4.17-6.29S145,147.38,141.77,149.21Z" transform="translate(-38.92 -25.41)" fill="#fff"/></g><path d="M283.27,195c-3.3.39-7,2-10.85,4.48a22.44,22.44,0,0,1,3.9-.85c20.72-2.46,30.27,7.18,33,22C309.54,204.51,303,192.62,283.27,195Z" transform="translate(-38.92 -25.41)" fill="#fff" opacity="0.4"/><path d="M376.87,229.49a14.05,14.05,0,0,0,5.9,1.44,11.25,11.25,0,0,1-1.89-.84c-9.4-5.28-10.45-12.21-7.08-19.26C368.82,217.5,367.93,224.46,376.87,229.49Z" transform="translate(-38.92 -25.41)" fill="#fff" opacity="0.4"/><path d="M368.29,216.92c-2.7,4.47-2.91,9.36,2.73,13.42a8.65,8.65,0,0,0,3.63,1.34,7.6,7.6,0,0,1-1.18-.69C367.54,226.72,366.58,221.74,368.29,216.92Z" transform="translate(-38.92 -25.41)" fill="#fff" opacity="0.4"/><path d="M156,191.7c-17.15-5.11-34.47-7.13-46.46-4.19A105.89,105.89,0,0,0,92.29,185a83.87,83.87,0,0,1,8.92,4.9,355.48,355.48,0,0,1,40.09,8.29,192.09,192.09,0,0,0-22.08-8.11A238.89,238.89,0,0,1,156,191.7Z" transform="translate(-38.92 -25.41)" fill="#fff" opacity="0.4"/><path d="M121.76,186.16c0-1.87.08-3.71.14-5.51,1.15-34.49,22.4-58.91,51.54-73.93-32.75,10.87-59,33-60.12,67.29-.14,4-.2,8.31-.14,12.79A59.28,59.28,0,0,1,121.76,186.16Z" transform="translate(-38.92 -25.41)" fill="#fff" opacity="0.4"/><path d="M298.18,264c9.47-20.74,14.13-41.9,2.79-49.69C309,224,305.59,244.1,298.18,264ZM230.31,98.77c-53.2-1.78-115.21,22-117,75.24-.14,4-.2,8.31-.14,12.79,1.1-.17,2.25-.31,3.42-.41,0-3.75.05-7.36.16-10.78,1.78-53.21,63.79-77,117-75.24,21.16.71,42.56,4.74,61.55,13.24C275.49,104,252.77,99.53,230.31,98.77Z" transform="translate(-38.92 -25.41)" fill="#fff" opacity="0.4"/><path d="M215.26,314.81a126,126,0,0,1-16.65-3.32c-8.58,54.63,2.2,110.37,47.3,136.33a166,166,0,0,0,17.71,8.82C219.73,419,209.7,364.74,215.26,314.81Z" transform="translate(-38.92 -25.41)" fill="#fff" opacity="0.2"/><path d="M206.3,316.35c-9.27,51.09-2,106.58,43,132.48l.45.25C209.89,422.43,203.23,342.91,206.3,316.35Z" transform="translate(-38.92 -25.41)" fill="#fff" opacity="0.4"/><path d="M295.43,462c-49.53-31.14-69-87.83-69-145.93-10.95-.92-21.63-2.54-30.22-5.26a2.66,2.66,0,0,1-.39-.16C186.25,366,197,423.19,244.26,449.89a176.94,176.94,0,0,0,68.23,21.82Q303.71,467.15,295.43,462Z" transform="translate(-38.92 -25.41)" fill="#fff" opacity="0.2"/><polygon points="396.75 162.03 393.03 149.84 405.22 127.24 409.42 150.58 424.87 153.69 403.22 172.39 396.75 162.03" fill="#534741"/><path d="M377.06,216.4,432,175.25h0c4.22,2.22,10.32,9.16,11.29,13.44.5,2.24-1.1,9.11-1.1,9.11l-44.38,50.31Z" transform="translate(-38.92 -25.41)" fill="#f79594"/><path d="M377.06,216.4,432,175.25l12.19-22.6-7.25,22.23a12.13,12.13,0,0,1-5,6.47Z" transform="translate(-38.92 -25.41)" fill="#fff" opacity="0.4"/><path d="M423.14,214.34a127.64,127.64,0,0,1,39.37-34.51l1.28-.73-21.65,18.7-34.31,38.9Z" transform="translate(-38.92 -25.41)" fill="#b75554" opacity="0.2"/><path d="M103.1,360.86a17.3,17.3,0,0,0,4.61,8.18,17.34,17.34,0,0,1-1-3.22c-3.51-17.91,4.21-30.22,16.91-38.35C109.64,333.38,99.76,343.83,103.1,360.86Z" transform="translate(-38.92 -25.41)" fill="#534741" opacity="0.2"/><path d="M99.63,329.9c-11.45,6.68-19.18,16.43-15.36,29.63a12.18,12.18,0,0,0,4.37,5.92,11.38,11.38,0,0,1-1-2.45C83.59,349.12,89.4,338.17,99.63,329.9Z" transform="translate(-38.92 -25.41)" fill="#534741" opacity="0.2"/><path d="M465.27,143.66a17.21,17.21,0,0,0-9.36.7,16.81,16.81,0,0,1,3.34.47c17.71,4.41,25.57,16.64,27.54,31.58C487.37,161.24,482.11,147.86,465.27,143.66Z" transform="translate(-38.92 -25.41)" fill="#534741" opacity="0.2"/><path d="M494.77,153.66c-1.18-13.2-6.73-24.34-20.31-26.49a12.19,12.19,0,0,0-7.21,1.45,11.7,11.7,0,0,1,2.65.1C484.18,131,491.63,140.88,494.77,153.66Z" transform="translate(-38.92 -25.41)" fill="#534741" opacity="0.2"/><path d="M177.25,495.29a17.33,17.33,0,0,1,2-9.17,16.5,16.5,0,0,0,0,3.37c1.92,18.16,12.93,27.64,27.46,31.66C191.6,519.63,179.08,512.55,177.25,495.29Z" transform="translate(-38.92 -25.41)" fill="#534741" opacity="0.2"/><path d="M183.07,525.9c-12.91-3-23.17-10-23.41-23.78a12.06,12.06,0,0,1,2.43-6.94,11.28,11.28,0,0,0-.27,2.64C162.08,512.26,170.85,521,183.07,525.9Z" transform="translate(-38.92 -25.41)" fill="#534741" opacity="0.2"/><path d="M542.08,375.73a17.23,17.23,0,0,0-3.73-8.61,16.73,16.73,0,0,1,.66,3.31c1.63,18.18-7.33,29.62-20.81,36.38C532.72,402.38,543.64,393,542.08,375.73Z" transform="translate(-38.92 -25.41)" fill="#534741" opacity="0.2"/><path d="M542.32,406.89c12.08-5.45,20.78-14.35,18.35-27.88a12.13,12.13,0,0,0-3.73-6.34,11.24,11.24,0,0,1,.77,2.54C560.26,389.44,553.36,399.72,542.32,406.89Z" transform="translate(-38.92 -25.41)" fill="#534741" opacity="0.2"/><path d="M255.41,328.29q-26.76,0-63.22-8.15l.25-1.09q36.36,8.13,63,8.12c30.72,0,51.62-8.1,62.41-24.28,11.95-17.94,11.25-45.3-2.1-81.32-11.68-31.51-32.92-68.76-61.41-107.73l.92-.66c28.56,39,49.84,76.4,61.55,108,13.48,36.38,14.15,64.08,2,82.32C307.8,320,286.57,328.29,255.41,328.29Z" transform="translate(-38.92 -25.41)" fill="#957c67"/><path d="M255.1,25.41s-30.17,50.91-44.39,79A73.26,73.26,0,0,0,283,111.64C274.59,81.3,255.1,25.41,255.1,25.41Z" transform="translate(-38.92 -25.41)" fill="#ff0096"/><path d="M278.79,97.37c-9.36-30.85-23.69-72-23.69-72s-23.38,39.45-38.67,68.05C231.67,105.56,252.35,110.26,278.79,97.37Z" transform="translate(-38.92 -25.41)" fill="#ffc845"/><path d="M271.79,75.1c-8.18-25.3-16.69-49.69-16.69-49.69s-14.22,24-27.73,48.13C239,80.68,253.7,82.84,271.79,75.1Z" transform="translate(-38.92 -25.41)" fill="#00d021"/><path d="M265.3,55.38c-5.65-16.92-10.2-30-10.2-30s-7.54,12.73-16.86,29C244.46,60.06,253.42,62.39,265.3,55.38Z" transform="translate(-38.92 -25.41)" fill="#45a8ff"/><path d="M217.43,103.58C231.65,75.5,255.1,25.41,255.1,25.41s-30.17,50.91-44.39,79a73.22,73.22,0,0,0,39.07,13.47C238.31,115.76,227.23,110.55,217.43,103.58Z" transform="translate(-38.92 -25.41)" fill="#fff" opacity="0.4"/><path d="M255.1,25.41s14.25,56,22.62,86.35A73.4,73.4,0,0,1,252.25,118a73.06,73.06,0,0,0,30.7-6.31C274.59,81.3,255.1,25.41,255.1,25.41Z" transform="translate(-38.92 -25.41)" opacity="0.1"/><path d="M330.33,98.57c-3.69-2.46-6.15-18.86-6.8-23.72a5.89,5.89,0,0,0-1-2.55h0c-14.18-20.58-35.17-17-43.69,6.81l-17.49,41.48,2.44,2.23.52-1.11,2.43,2.23c5.71,5.24,12.39,5.48,17.5.64l20.83-19.71c2,2.5,3.83,4.77,5.53,6.58,8.42,9,28.37,10.14,38.71,3.4.29-.19.57-.38.84-.58l.59-.5C358.71,106.52,339.28,104.52,330.33,98.57Z" transform="translate(-38.92 -25.41)" fill="#f79594"/><path d="M321,74a11.09,11.09,0,0,1,1,2.56c.65,4.86.51,23,4.2,25.44,8.68,5.76,31.22,4.48,25.24,11.09,6.09-6.71-12.42-8.77-21.09-14.53-3.69-2.46-6.15-18.86-6.8-23.72a5.89,5.89,0,0,0-1-2.55h0c-11.29-16.39-26.91-17.46-37.1-5.18C295.63,56.69,310.26,58.43,321,74Z" transform="translate(-38.92 -25.41)" fill="#fff" opacity="0.4"/><path d="M279.05,90.4l-14.72,31.3,2.43,2.23c5.71,5.24,12.39,5.48,17.5.64l20.83-19.71c-7.38-9.45-15.75-22.23-18.61-26.65A39.65,39.65,0,0,0,279.05,90.4Z" transform="translate(-38.92 -25.41)" fill="#b75554"/><path d="M278.86,79.1l-16.18,38.38c5.12-10.62,13.42-28,16.56-35.63,7.05-17.06,22.82-23.23,36.37-17.34C302.22,53.28,286.07,58.94,278.86,79.1Z" transform="translate(-38.92 -25.41)" fill="#fff" opacity="0.4"/></g></svg>