<svg xmlns="http://www.w3.org/2000/svg" xmlns:xlink="http://www.w3.org/1999/xlink" viewBox="0 0 542.31 574.41"><defs><clipPath id="a" transform="translate(-28.85 -12.79)"><rect width="600" height="600" fill="none"/></clipPath></defs><g clip-path="url(#a)"><polygon points="510.49 347.25 517 355.78 542.31 353.15 526.41 341.01 530.26 324.63 511.88 333.88 510.49 347.25" fill="#534741"/><path d="M470.45,336.92l-1,49.51,76.35-17.85v-.06a36.8,36.8,0,0,0-5.13-21.85h0Z" transform="translate(-28.85 -12.79)" fill="#f79594"/><path d="M469.49,386.43l76.35-17.85,25.31-2.64-27.64-2.31a22.38,22.38,0,0,0-9,1.09Z" transform="translate(-28.85 -12.79)" fill="#b75554" opacity="0.2"/><path d="M529.67,351.45A23.12,23.12,0,0,0,551.89,345l7.21-7.54-18.38,9.24-31.88-4.42Z" transform="translate(-28.85 -12.79)" fill="#fff" opacity="0.4"/><path d="M345.67,536.66c-92.29,0-167.11,21-167.11,31.5s74.82,19.05,167.11,19.05,167.11-8.53,167.11-19.05S438,536.66,345.67,536.66Z" transform="translate(-28.85 -12.79)" opacity="0.1"/><path d="M336.7,528.49c3.17-.15,6.35-.32,9.53-.49q.6,12.35.58,24.63-6.46-5.93-13-11.81-6.8,3.42-13.63,6.7,3.15-9.16,5.93-18.45Q331.39,528.8,336.7,528.49Z" transform="translate(-28.85 -12.79)" fill="#534741"/><path d="M326.09,529.07a601.72,601.72,0,0,0-22.79-59.38q20.49-7.17,40.88-15.42A491.77,491.77,0,0,1,346.23,528c-2.3.74-4.61,1.47-6.91,2.19a17,17,0,0,1-13.23-1.12Z" transform="translate(-28.85 -12.79)" fill="#f79594"/><path d="M327.42,536.19c-2.73,3.79-6,7.56-7.26,11.33q3.15-9.16,5.93-18.45a601.72,601.72,0,0,0-22.79-59.38c7.81,17.55,18.92,35.31,25.8,53.17A14.14,14.14,0,0,1,327.42,536.19Z" transform="translate(-28.85 -12.79)" fill="#fff" opacity="0.4"/><path d="M346.25,482q1.08,23.07,0,46,.6,12.35.58,24.63c0-8.19-5-15.1-5.44-23.33C342,516,344.52,498.84,346.25,482Z" transform="translate(-28.85 -12.79)" fill="#b75554" opacity="0.2"/><path d="M499.47,272c-.52-.32-1-.65-1.53-1a74.11,74.11,0,0,1-10.61-8.45c1.9-1.35,3.78-2.75,5.62-4.22l1.21-1c.8-.66,1.6-1.33,2.39-2s1.57-1.4,2.34-2.13c1.16-1.09,2.29-2.22,3.39-3.41a49.54,49.54,0,0,0,4.19-5.12c.32-.47.64-.94.95-1.43a28.36,28.36,0,0,0,2.5-4.74,19.7,19.7,0,0,0,1.54-6.74c0-.36,0-.71,0-1.07a14.69,14.69,0,0,0-.79-4.31c-.12-.35-.26-.7-.4-1a16.16,16.16,0,0,0-1-1.93c-.2-.31-.4-.6-.61-.89s-.39-.49-.59-.72l-.17-.21c-.17-.19-.33-.37-.5-.54l-.23-.24-.47-.45-.33-.29-.26-.22c-.28-.24-.57-.47-.86-.68h0a19.77,19.77,0,0,0-2.67-1.64,25,25,0,0,0-6.71-2.23,31.16,31.16,0,0,0-13.36.5,26,26,0,0,0-6.29,2.54,19.82,19.82,0,0,0-5.4,4.46,16.8,16.8,0,0,0-3.3,6.3,18.51,18.51,0,0,0-.49,6.83,22.14,22.14,0,0,0,.58,3.27,28,28,0,0,0,1,3.06,39.13,39.13,0,0,0,2.64,5.63,51.57,51.57,0,0,0,4.33,6.52c-3.68,2-7.47,3.89-11.31,5.69-.69-1.63,3.13,7.63,4.85,14,4.72-2.67,9.38-5.48,13.94-8.52.67-.44,1.33-.89,2-1.36h0a76.29,76.29,0,0,0,12,8.29c.53.3,1.07.59,1.61.88A.81.81,0,0,0,499.47,272ZM497,239c-.86.93-1.79,1.84-2.77,2.72a65.25,65.25,0,0,1-6.34,5c-.74.53-1.5,1.05-2.27,1.56-1.51,1-3.06,2-4.63,2.91l-2.16,1.27a47.28,47.28,0,0,1-3.8-6.65,38.14,38.14,0,0,1-2-5.16,25.9,25.9,0,0,1-.62-2.61,16.79,16.79,0,0,1-.24-2.54,12.93,12.93,0,0,1,.75-4.78,10.72,10.72,0,0,1,2.46-3.84,16,16,0,0,1,8.62-4.06,23.3,23.3,0,0,1,9.95.49,16.13,16.13,0,0,1,4.26,1.84c.21.13.4.27.59.41a7.61,7.61,0,0,1,.61.48l.12.1.46.43.23.26c.09.11.19.21.28.33a4.93,4.93,0,0,1,.43.62,4.74,4.74,0,0,1,.64,2.86,7.55,7.55,0,0,1-.34,1.69,12.56,12.56,0,0,1-.8,1.86q-.24.48-.54,1A25.39,25.39,0,0,1,497,239Z" transform="translate(-28.85 -12.79)" fill="#f79594"/><path d="M502.23,232.13a5.34,5.34,0,0,0-.69-2.86,4.88,4.88,0,0,1,.09,1.44,9.46,9.46,0,0,1-1.14,3.55,28.87,28.87,0,0,1-6.24,7.49,73.58,73.58,0,0,1-8.61,6.6c-2.19,1.46-4.47,2.84-6.79,4.18-.93.54-1.88,1.07-2.82,1.58l-.52.28c-3.48,1.9-7.06,3.69-10.69,5.4,3.38-1.37,6.71-2.82,10-4.36l.55-.25c1-.49,2-1,3-1.48,2.47-1.25,4.89-2.55,7.22-3.94a69.21,69.21,0,0,0,9.1-6.38,26.63,26.63,0,0,0,6.49-7.54A9.11,9.11,0,0,0,502.23,232.13Z" transform="translate(-28.85 -12.79)" fill="#fff" opacity="0.4"/><path d="M506.47,244.66a31.57,31.57,0,0,0,3.45-6.17,19,19,0,0,0,1.54-7.81,14.69,14.69,0,0,0-.79-4.31,14.53,14.53,0,0,0-2-3.86,17.24,17.24,0,0,0-6.09-5,25,25,0,0,0-6.71-2.23,31.16,31.16,0,0,0-13.36.5,26,26,0,0,0-6.29,2.54,19.82,19.82,0,0,0-5.4,4.46l-.07.08a20.63,20.63,0,0,1,4-3,26.08,26.08,0,0,1,6.3-2.54,31.15,31.15,0,0,1,13.36-.5,25.09,25.09,0,0,1,6.71,2.23,17.3,17.3,0,0,1,6.08,5A14.27,14.27,0,0,1,509.2,228a15.37,15.37,0,0,1,.79,4.31,19.3,19.3,0,0,1-1.54,7.81,31.6,31.6,0,0,1-3.46,6.17,47.56,47.56,0,0,1-3.68,4.56c.33-.33.65-.67,1-1A49.54,49.54,0,0,0,506.47,244.66Z" transform="translate(-28.85 -12.79)" fill="#fff" opacity="0.4"/><path d="M473.09,240.72a25.9,25.9,0,0,1-.62-2.61,16.79,16.79,0,0,1-.24-2.54,12.93,12.93,0,0,1,.75-4.78,10.4,10.4,0,0,1,1.52-2.73l-.53.47a10.72,10.72,0,0,0-2.46,3.84,12.93,12.93,0,0,0-.76,4.78,16.81,16.81,0,0,0,.25,2.54c.16.86.36,1.73.61,2.6a36.56,36.56,0,0,0,2,5.17,46,46,0,0,0,3.44,6.1l1.83-1a47.28,47.28,0,0,1-3.8-6.65A38.14,38.14,0,0,1,473.09,240.72Z" transform="translate(-28.85 -12.79)" fill="#b75554" opacity="0.4"/><path d="M469.05,274.07c4.72-2.67,9.38-5.48,13.94-8.52.67-.44,1.33-.89,2-1.36s1.58-1.08,2.35-1.65c1.9-1.35,3.78-2.75,5.62-4.22a84.7,84.7,0,0,0,9.33-8.54c.62-.66,1.22-1.35,1.82-2.06a58.65,58.65,0,0,1-5.14,5.19,94.74,94.74,0,0,1-11.21,8.44c-2.19,1.44-4.42,2.79-6.65,4.08-.92.54-4.34,2.45-5.12,2.87-2.48,1.32-5,2.6-7.48,3.82C468.69,272.77,468.87,273.42,469.05,274.07Z" transform="translate(-28.85 -12.79)" fill="#b75554" opacity="0.4"/><polygon points="138.03 317.65 131.36 306.75 105.55 302.49 121.31 317.83 112.25 330.33 136.89 327.61 138.03 317.65" fill="#534741"/><path d="M160.21,319.54h0a31.05,31.05,0,0,0,4.21,18.64l1.31,2.23,69,4.22L234,309.54Z" transform="translate(-28.85 -12.79)" fill="#f79594"/><polygon points="112.25 330.33 136.89 327.61 205.86 331.84 137.44 323.94 112.25 330.33" fill="#b75554" opacity="0.2"/><path d="M231.56,309.88l-71.35,9.66h0l-25.82-4.25,13.22,7.1a40.49,40.49,0,0,0,30.56,3.17Z" transform="translate(-28.85 -12.79)" fill="#fff" opacity="0.4"/><path d="M303.21,79.29c-15.32-7-26.3-8-34.37-4.53,43.77,9.48,82.62,35.33,94.48,87.24,15.81,69.26-28,135.13-84.7,138.69-18.78,1.18-53.69,1.48-77.43-4.55A222.2,222.2,0,0,0,198,351.9h0c.08,1,.17,2.07.26,3.1v.06c.1,1,.2,2,.31,3v.07q.51,4.62,1.27,9.15v.05c.15.95.32,1.9.5,2.84l.06.31c.17.9.34,1.8.53,2.7,0,.07,0,.14,0,.21.61,2.91,1.29,5.79,2.06,8.63,0,.13.07.26.11.39.22.8.44,1.59.67,2.38l.15.49c.24.81.48,1.62.74,2.42l.09.31A124.91,124.91,0,0,0,212.55,407h0c.57,1.1,1.15,2.18,1.74,3.26l.08.13c.55,1,1.11,2,1.69,2.94l.24.4c.58,1,1.18,1.92,1.79,2.87l.09.14c1.3,2,2.66,4,4.1,5.88l.38.51c.58.77,1.18,1.53,1.78,2.28l.47.59c.69.84,1.38,1.67,2.1,2.49l.14.18c.78.88,1.56,1.75,2.37,2.61.17.19.35.37.53.55.61.65,1.23,1.28,1.86,1.91l.81.8,1.76,1.67.82.76A103.26,103.26,0,0,0,254,450.46c72,40.71,184.86,41,229.1-73.3C513.05,299.86,415.69,130.7,303.21,79.29Z" transform="translate(-28.85 -12.79)" fill="#f79594"/><path d="M336,97.79c84.25,81,145.31,218,122,287-11.86,35.14-29.18,60.32-49.57,77.38,30.83-14.35,57.75-41.29,74.65-85C510.09,307.5,433.7,163.25,336,97.79Z" transform="translate(-28.85 -12.79)" fill="#b75554" opacity="0.2"/><path d="M268.84,74.76l1,.23L269,74.7Zm34.37,4.53C295.56,75.8,289,73.8,283.34,73.1q2.57,1.05,5.32,2.36C401.48,129.24,499.74,304.83,470.18,384.7c-10.92,29.52-26.18,51.62-44,67.48,23.35-15.64,43.41-39.93,57-75,9.39-24.26,6.24-57.57-6-93.45C450.45,205.27,380.39,114.57,303.21,79.29Z" transform="translate(-28.85 -12.79)" fill="#b75554" opacity="0.2"/><path d="M368.18,296.86c-1.62,0-3-2.09-3.12-4.73s1.14-4.79,2.76-4.82,3,2.09,3.12,4.73S369.8,296.83,368.18,296.86Z" transform="translate(-28.85 -12.79)" fill="#b75554" opacity="0.2"/><path d="M377.06,281.39c-.05-1.24.53-2.25,1.29-2.26s1.42,1,1.46,2.21-.53,2.25-1.29,2.26S377.1,282.62,377.06,281.39Z" transform="translate(-28.85 -12.79)" fill="#b75554" opacity="0.2"/><path d="M389.64,313.92c-2.93.05-5.45-3.77-5.63-8.53s2.05-8.65,5-8.69,5.45,3.77,5.63,8.53S392.57,313.88,389.64,313.92Z" transform="translate(-28.85 -12.79)" fill="#b75554" opacity="0.2"/><path d="M390.2,278.34c-.09-2.23,1-4,2.33-4.07s2.56,1.77,2.64,4-1,4.05-2.33,4.07S390.28,280.57,390.2,278.34Z" transform="translate(-28.85 -12.79)" fill="#b75554" opacity="0.2"/><path d="M384.57,340.21c-1.63,0-3-2.09-3.12-4.73s1.13-4.79,2.76-4.82,3,2.09,3.12,4.73S386.19,340.18,384.57,340.21Z" transform="translate(-28.85 -12.79)" fill="#b75554" opacity="0.2"/><path d="M393.44,324.74c0-1.24.54-2.25,1.3-2.26s1.41,1,1.46,2.22-.53,2.24-1.29,2.25S393.49,326,393.44,324.74Z" transform="translate(-28.85 -12.79)" fill="#b75554" opacity="0.2"/><path d="M418.05,293.32c-2.93.05-5.45-3.77-5.63-8.53s2.05-8.65,5-8.69,5.45,3.77,5.63,8.53S421,293.28,418.05,293.32Z" transform="translate(-28.85 -12.79)" fill="#b75554" opacity="0.2"/><path d="M406.59,321.7c-.09-2.23,1-4.06,2.33-4.08s2.55,1.77,2.64,4-1,4.05-2.34,4.08S406.67,323.93,406.59,321.7Z" transform="translate(-28.85 -12.79)" fill="#b75554" opacity="0.2"/><path d="M323.75,193.16l-16.5-19.33a30,30,0,0,0-10.38.4c-21.38,4.18-66,50.67-92.16,66.42-3.52,2.11-7,4.33-10.57,6.55,41.64,5.26,24.17,41.26,22.78,44,24.48,0,56.83,1.21,73.87-3.79L319,240.67C323.55,224.2,326.15,206.32,323.75,193.16Z" transform="translate(-28.85 -12.79)" fill="#b75554"/><path d="M219.47,291.19c2.66-5.31,21.86-40.5-22-46.08l-3.35,2.09c41.64,5.26,24.17,41.26,22.78,44Z" transform="translate(-28.85 -12.79)" fill="#fff" opacity="0.4"/><path d="M264.54,245c-5.1,14.43-2.57,31.83,5,46.49l18.74.05,49.48-82L326.94,196.9C301.13,198.89,272.56,222.39,264.54,245Z" transform="translate(-28.85 -12.79)" fill="#73004e" opacity="0.4"/><path d="M251.93,198.91c-10.21,6.89-10.86,24.91-3.24,34.4s20.84,5.31,31.17-3.53,13.88-17.36,6.16-24.91S262.16,192,251.93,198.91Z" transform="translate(-28.85 -12.79)" fill="#e6e6e6"/><path d="M286,204.87c-6.74-6.58-19.82-11.44-29.84-8.05,9,1.32,17.79,5.77,23.28,11.13,6.36,6.23,6.64,13,2.42,20C290.62,219.79,293.21,211.91,286,204.87Z" transform="translate(-28.85 -12.79)" opacity="0.1"/><path d="M203.49,229.18c-9.49.74-16.81,12.61-15.3,21.9s12,11.52,22.31,9.52,16-6.38,13.65-14.41S213,228.44,203.49,229.18Z" transform="translate(-28.85 -12.79)" fill="#e6e6e6"/><path d="M224.15,246.19c-1.86-6.42-7.86-13.9-15.05-16.28a36.33,36.33,0,0,1,9.39,15.1c2,6.83-.3,11.72-5.7,15.08C221.64,257.9,226.28,253.6,224.15,246.19Z" transform="translate(-28.85 -12.79)" opacity="0.1"/><path d="M254.42,227.31c-4.85-6.06-7.44-14.46-7.6-22.87-5,8.45-4.17,21.34,1.87,28.87,5.75,7.18,14.71,6.54,23.2,2A20.68,20.68,0,0,1,254.42,227.31Z" transform="translate(-28.85 -12.79)" fill="#fff" opacity="0.4"/><path d="M283.51,297.14c8.88-3,13-16.12,9.3-24.63s-14.25-8.09-23.61-3.68-13.69,10-9.54,17.07S274.6,300.14,283.51,297.14Z" transform="translate(-28.85 -12.79)" fill="#e6e6e6"/><path d="M259.66,285.9c3.63,6.19,12.26,12.39,20.31,11.91A33.53,33.53,0,0,1,265.1,285c-3.42-5.86-2.27-10.88,2.25-15.21C259.28,274,255.79,279.28,259.66,285.9Z" transform="translate(-28.85 -12.79)" fill="#fff" opacity="0.4"/><path d="M287.38,275.77c2.36,5.43,2.56,12.11,1,18.33,5.38-5.2,7.36-14.84,4.44-21.59-2.78-6.43-9.49-7.76-16.65-6.12A15.68,15.68,0,0,1,287.38,275.77Z" transform="translate(-28.85 -12.79)" opacity="0.1"/><path d="M196,252.82c-1.35-8.32,3-18.28,9.87-23.61a12.61,12.61,0,0,0-2.38,0c-9.49.74-16.81,12.61-15.3,21.9,1,6.22,6,9.27,12.35,10A13.32,13.32,0,0,1,196,252.82Z" transform="translate(-28.85 -12.79)" fill="#fff" opacity="0.4"/><path d="M305,238.23c-4.63-2.66-11.82-1.13-17.72,2-4.45,2.33-7.76,4.66-14.27,8.1-11.49,6.07-29,11.85-42.86,13.94-6,.92-12.93.92-18.07,1.06-11,.3-21.53,1.57-30.16,6.3-6.64,3.65-9.26,6.09-14.5,10.48-3.6,3-4.77,8.77-3.51,11.49,1.8,3.85,9.81,8.4,16.48,4.23,6.16-3.85,9.68-8.17,17.47-12.67,6-3.48,19.42-7.18,26-9.31,12.74-4.14,38-13.35,49.93-19.43,6.28-3.2,18.27-11.25,26.4-9.86,9.25,1.57,10.51,20.15,12,22.86,2,3.55,6.71,19.26,7.6,12.83C321.06,271,315.85,244.49,305,238.23Z" transform="translate(-28.85 -12.79)" fill="#e68595"/><path d="M274.13,253.08c-11.93,6.08-38.59,14.92-51.33,19.06-6.56,2.13-20,5.83-26,9.31-4.22,2.44-8.41,7.1-12.35,11.48,4-3.08,7.47-6.4,13.37-9.81s19.42-7.18,26-9.31c12.74-4.14,38-13.35,49.93-19.43,6.28-3.2,18.27-11.25,26.4-9.86C292,243.13,280.41,249.88,274.13,253.08Z" transform="translate(-28.85 -12.79)" fill="#73004e" opacity="0.2"/><path d="M287.26,240.19c-4.45,2.33-7.76,4.66-14.27,8.1-11.49,6.07-29,11.85-42.86,13.94-6,.92-12.93.92-18.07,1.06-11,.3-21.53,1.57-30.16,6.3-6.64,3.65-9.26,6.09-14.5,10.48a10.11,10.11,0,0,0-1.66,1.8c5.67-3.77,11.65-7.53,15.21-9.54,8.84-5,19.85-5,31.2-5.66,5.33-.3,12.48-.51,18.7-1.61,14.28-2.52,32.33-8.84,44.11-15.27,6.67-3.64,10.06-6.07,14.62-8.53s9.67-4,14-3.66C299,235.88,292.61,237.39,287.26,240.19Z" transform="translate(-28.85 -12.79)" fill="#fff" opacity="0.4"/><path d="M213.09,37.56c-4.81,0-18.25-15.6-18.25-15.6-10.92,4.2-21.5,12.58-25.09,23.24,0,0,22.29,9.46,34.88,12.38,11.1,2.57,27-6.86,31.4-17.35l.35-.87.18-.69C238.92,29,223,37.5,213.09,37.56Z" transform="translate(-28.85 -12.79)" fill="#f79594"/><path d="M207.06,55.68c-8.23-1.91-25.7-7.92-36.8-11.84-.18.45-.35.9-.51,1.36,0,0,22.29,9.46,34.88,12.38,7.49,1.73,17.12-2,24-7.82C222,54.47,213.7,57.22,207.06,55.68Z" transform="translate(-28.85 -12.79)" fill="#b75554" opacity="0.4"/><path d="M194.84,22c-.41,0-.82.05-1.22.09-21,1.9-34.9,22.75-29.26,43.06l7.84,37.75,3-1-.17-1.06,3-1A20.48,20.48,0,0,0,191.35,84.3l10-51.78Z" transform="translate(-28.85 -12.79)" fill="#f79594"/><path d="M186.36,87.43a23.31,23.31,0,0,1-8.52,12.37l.09,0A20.48,20.48,0,0,0,191.35,84.3L198.54,47Z" transform="translate(-28.85 -12.79)" fill="#fff" opacity="0.4"/><path d="M176,100.42,169,66.3c-5.39-19.86,6.2-40.08,24.78-44.27l-.2,0c-21,1.9-34.9,22.75-29.26,43.06l7.84,37.75,3-1-.17-1.06Z" transform="translate(-28.85 -12.79)" fill="#fff" opacity="0.4"/><circle cx="126.05" cy="160.01" r="43.06" transform="translate(-105.07 123.21) rotate(-45)" fill="#e6e6e6"/><path d="M101.6,188.44a59.37,59.37,0,0,1,14.72-70.38,43.07,43.07,0,0,0-29.15,60.46,42.93,42.93,0,0,0,21,20.66A59.93,59.93,0,0,1,101.6,188.44Z" transform="translate(-28.85 -12.79)" fill="#fff" opacity="0.4"/><path d="M372.55,160.44c-15.51-68.16-75.47-93.06-133.82-95s-126.34,24.16-128.3,82.51c-.14,4.41-.22,9.11-.15,14-1.39.21-2.74.47-4,.79a116.29,116.29,0,0,0-18.88-2.8c-9-4.23-18-6.25-26.07-4.95-32.21,5.2-38.68,61.2-27.16,90.78,11.39,29.2,42.6,39.41,74.39,34.67,1-.11,2-.25,3.12-.43a236.62,236.62,0,0,0,36.71-9.69c21.55-5.4,48.12-13.57,62.6-21.59,25.24-14,55.71-56.17,76.2-60.07,50.33-9.58,15.25,84.91.29,94.92-17,11.41-68.79,1.13-86,6a4.34,4.34,0,0,0-.16,8.32c24.27,7.67,63.76,7.45,84.36,6.17C344,300.45,388.89,232.24,372.55,160.44Z" transform="translate(-28.85 -12.79)" fill="#f79594"/><path d="M201.48,289.58a4.34,4.34,0,0,0-.16,8.32l1.88.56a4.36,4.36,0,0,1,2.05-7.12c6.61-1.88,17.37-2.27,29.08-2.69C220.8,288.11,208.36,287.63,201.48,289.58Z" transform="translate(-28.85 -12.79)" fill="#fff" opacity="0.4"/><path d="M294.81,301.13c-17.56,1.09-61.81,2.33-89.52-2.09,24.42,6.5,60.88,6.25,80.39,5a79.42,79.42,0,0,0,24.41-5.49A74.82,74.82,0,0,1,294.81,301.13Z" transform="translate(-28.85 -12.79)" fill="#b75554" opacity="0.4"/><path d="M377.67,175.43a90.33,90.33,0,0,0-9.89-25.54q1.75,5.42,3.1,11.24c9.88,43.44-3.35,85.52-28.42,111.9C370,255.08,386.91,216,377.67,175.43Z" transform="translate(-28.85 -12.79)" fill="#fff" opacity="0.2"/><path d="M288.76,181.58c-20.7,2.46-53.66,48.5-77.42,64.88a116.41,116.41,0,0,1-23.87,12.28,161.54,161.54,0,0,0,23.5-10c25.24-14,55.71-56.17,76.2-60.07,50.33-9.58,15.25,84.91.29,94.92-10.46,7-34,5.84-54.59,5,21.2,1.48,45.1,3.28,55.31-3.56C303.14,275,345.32,174.86,288.76,181.58Z" transform="translate(-28.85 -12.79)" fill="#fff" opacity="0.4"/><g opacity="0.4"><path d="M243.06,65.61C286.22,72.5,333.64,97.16,362,131.17,338.74,86.31,290.74,68.15,243.06,65.61Z" transform="translate(-28.85 -12.79)" fill="#b75554"/></g><path d="M290.9,287c-7.28,4.87-20.88,5.79-35.42,5.62,15.48,1.79,30,2.32,37.4-2.63,5.68-3.8,12.66-19,16.39-35.88C303.65,270,296.07,283.53,290.9,287Z" transform="translate(-28.85 -12.79)" fill="#b75554" opacity="0.4"/><path d="M118,166.72c-24.08,2.51-28.7,45.41-20.15,67.36s13.12,35.64,37,31.78,64.61-14.71,68.57-33.27C209.14,206,156.59,162.71,118,166.72Z" transform="translate(-28.85 -12.79)" fill="#f79594"/><path d="M61.31,155c-32.21,5.2-38.68,61.2-27.16,90.78s43.41,39.68,75.63,34.49,52.56-23.72,41-53.3S93.52,149.8,61.31,155Z" transform="translate(-28.85 -12.79)" fill="#ffa2a1"/><path d="M145.5,226.05a99.23,99.23,0,0,0-10.88-19.67c1.19,2.58,2.24,5.09,3.13,7.52,10.45,28.44,1.55,49.35-18.39,61.79C142.53,267.73,155.12,250.74,145.5,226.05Z" transform="translate(-28.85 -12.79)" fill="#fff" opacity="0.2"/><path d="M65.6,164.77c22.63-3.65,51.34,16.39,72.43,39.82C119,178.31,86.13,151,61.31,155c-26.82,4.33-35.79,43.86-31.39,74.06C30.06,199.64,41,168.73,65.6,164.77Z" transform="translate(-28.85 -12.79)" fill="#fff" opacity="0.4"/><path d="M80,187.8c-7.44,3.54-3.77,26.2,4,42.53s18.67,24.28,26.11,20.73,8.62-17.24.85-33.57S87.43,184.26,80,187.8Z" transform="translate(-28.85 -12.79)" fill="#b75554"/><path d="M90.2,230.8C84,217.74,79.48,202,78.21,189.24c-5,6.21-1.29,26.26,5.77,41.09,5.68,11.92,13,19.37,19.46,21.15A89.55,89.55,0,0,1,90.2,230.8Z" transform="translate(-28.85 -12.79)" fill="#ffa2a1" opacity="0.4"/><path d="M54.09,195.38c-7,.05-12.68,18.67-12.57,33.92s6,25.22,13,25.17S66.8,244.38,66.7,229.13,61,195.33,54.09,195.38Z" transform="translate(-28.85 -12.79)" fill="#b75554"/><path d="M45.21,228.21c-.08-11,2.36-23.54,6.14-31.84-5.65,4-9.92,19.74-9.83,32.93.09,13.75,4.92,23.2,11,24.89C48.21,249.08,45.29,239.94,45.21,228.21Z" transform="translate(-28.85 -12.79)" fill="#ffa2a1" opacity="0.4"/><path d="M197.89,105.24c-25.78,9.71-38.37,39-26.84,65.58s44.13,37,71.21,22.87,37.57-43.72,24.8-65.91S223.73,95.54,197.89,105.24Z" transform="translate(-28.85 -12.79)" fill="#e6e6e6"/><path d="M189,183.67c-13.78-31.8-1.31-66.48,26.58-82a58.22,58.22,0,0,0-17.72,3.62c-25.78,9.71-38.37,39-26.84,65.58a47.76,47.76,0,0,0,24.81,24.83A62.44,62.44,0,0,1,189,183.67Z" transform="translate(-28.85 -12.79)" fill="#fff" opacity="0.4"/><path d="M267.06,127.78c-8.81-15.25-26-24.77-44.23-26.08,14.52,3.41,27.43,12.07,34.68,24.63,12.77,22.18,2.29,51.77-24.8,65.9a54.76,54.76,0,0,1-28.62,6.22,54.16,54.16,0,0,0,38.17-4.76C269.34,179.56,279.83,150,267.06,127.78Z" transform="translate(-28.85 -12.79)" opacity="0.1"/><path d="M215.86,123a28,28,0,0,0-4.33,1,15.8,15.8,0,1,1-17.46,17.9c-.07-.54-.12-1.07-.14-1.6A27.75,27.75,0,1,0,215.86,123Z" transform="translate(-28.85 -12.79)" fill="#73004e"/><path d="M208.4,167.58a5.89,5.89,0,1,0,6.65,5A5.9,5.9,0,0,0,208.4,167.58Z" transform="translate(-28.85 -12.79)" fill="#fff"/><path d="M202.07,180.74a2.76,2.76,0,1,0,3.12,2.35A2.77,2.77,0,0,0,202.07,180.74Z" transform="translate(-28.85 -12.79)" fill="#fff"/><path d="M186.7,103.59c1-.93,2.1-1.81,3.2-2.64a47.18,47.18,0,0,1,5.81-3.75c1.21-.66,2.47-1.27,3.75-1.82.81-.35,1.63-.67,2.45-1l.9-.31,1.57-.53,1.13-.33,1.33-.37c.43-.11.85-.21,1.28-.3l1.19-.27L210.7,92l1.07-.18c.5-.08,1-.15,1.51-.21l.91-.11,1.64-.16.7,0a54.12,54.12,0,0,1,9.61.25c.78.09,1.56.2,2.34.32l.68.12c.66.11,1.31.24,2,.37l.42.09c.76.16,1.52.35,2.28.55l.65.17c.62.17,1.23.35,1.85.54l.53.16c.75.24,1.49.49,2.24.76l.57.22,1.79.7.59.25c.73.31,1.46.63,2.18,1l.47.23c.6.29,1.19.59,1.78.9l.6.31c.71.38,1.41.78,2.11,1.19l.3.18c.62.37,1.23.74,1.83,1.13l.58.38c.67.44,1.33.89,2,1.36l.08.05c.67.48,1.34,1,2,1.5l.54.42c.57.45,1.13.91,1.69,1.39l.28.24c.63.54,1.25,1.1,1.87,1.67l.48.46c.51.48,1,1,1.5,1.48l.37.37h0c-.28-.56-.57-1.12-.88-1.67-.08-.16-.17-.32-.26-.48-.3-.53-.6-1.06-.92-1.57l-.13-.23c-.36-.58-.72-1.14-1.1-1.7l-.29-.43c-.32-.46-.64-.92-1-1.37l-.24-.32c-.39-.53-.8-1-1.21-1.56-.1-.13-.2-.25-.31-.37q-.51-.63-1.05-1.23l-.31-.36c-.43-.48-.87-1-1.32-1.42l-.29-.29c-.38-.38-.76-.76-1.15-1.13l-.37-.35c-.47-.44-.95-.87-1.43-1.29l-.22-.19-1.3-1.06-.41-.33c-.51-.39-1-.77-1.53-1.14l-.06,0c-.5-.36-1-.7-1.52-1L245,90.2q-.69-.45-1.41-.87l-.23-.14c-.53-.32-1.08-.62-1.62-.91l-.46-.24c-.45-.24-.91-.47-1.37-.69l-.36-.18c-.55-.26-1.11-.51-1.67-.75l-.46-.18c-.45-.19-.91-.37-1.37-.54l-.44-.17c-.57-.21-1.15-.4-1.72-.59l-.41-.12c-.47-.15-.95-.28-1.42-.41l-.5-.14c-.58-.15-1.17-.29-1.75-.42l-.33-.06c-.5-.11-1-.2-1.51-.29l-.52-.09c-.6-.09-1.2-.18-1.79-.25a41.5,41.5,0,0,0-7.39-.19l-.54,0c-.42,0-.84.08-1.26.12l-.7.08-1.16.17-.82.13-1.07.21-.91.2c-.33.08-.66.15-1,.24l-1,.28-.87.25-1.2.41c-.23.08-.46.15-.69.24-.63.23-1.26.48-1.89.74-1,.43-1.94.89-2.88,1.4a35.35,35.35,0,0,0-4.46,2.88c-.85.64-1.67,1.32-2.46,2l-.78.73a39.53,39.53,0,0,0-2.94,3.12c-.46.55-.91,1.11-1.35,1.69A44.15,44.15,0,0,0,187.5,102L187,103c-.15.26-.29.53-.43.8Z" transform="translate(-28.85 -12.79)" fill="#fff" opacity="0.4"/><g opacity="0.2"><path d="M170,94.94c-2.18-3.87-10.08-3.56-17.65.71s-11.93,10.86-9.75,14.73,10.08,3.56,17.65-.7S172.17,98.82,170,94.94Z" transform="translate(-28.85 -12.79)" fill="#fff"/><path d="M141.64,120.73c-3.55,2-5.6,5.09-4.57,6.9s4.72,1.67,8.27-.33,5.6-5.09,4.57-6.9S145.19,118.73,141.64,120.73Z" transform="translate(-28.85 -12.79)" fill="#fff"/></g><path d="M296.81,170.9c-3.63.43-7.64,2.21-11.9,4.92a24.9,24.9,0,0,1,4.27-.94c22.73-2.7,33.19,7.87,36.24,24.15C325.61,181.38,318.42,168.33,296.81,170.9Z" transform="translate(-28.85 -12.79)" fill="#fff" opacity="0.4"/><path d="M399.45,208.77a15.49,15.49,0,0,0,6.46,1.57,12.94,12.94,0,0,1-2.06-.91c-10.31-5.8-11.46-13.4-7.77-21.12C390.62,195.62,389.65,203.25,399.45,208.77Z" transform="translate(-28.85 -12.79)" fill="#fff" opacity="0.4"/><path d="M390,195c-3,4.89-3.2,10.26,3,14.71a9.36,9.36,0,0,0,4,1.47,7.91,7.91,0,0,1-1.3-.76C389.21,205.73,388.17,200.27,390,195Z" transform="translate(-28.85 -12.79)" fill="#fff" opacity="0.4"/><path d="M157.22,167.33c-18.81-5.6-37.81-7.82-50.95-4.6a117.56,117.56,0,0,0-18.9-2.79,92,92,0,0,1,9.78,5.38,389.37,389.37,0,0,1,44,9.09,207.85,207.85,0,0,0-24.21-8.89A260.59,260.59,0,0,1,157.22,167.33Z" transform="translate(-28.85 -12.79)" fill="#fff" opacity="0.4"/><path d="M119.69,161.25c0-2.05.09-4.07.15-6,1.27-37.83,24.57-64.6,56.52-81.08-35.91,11.93-64.67,36.15-65.93,73.8-.14,4.41-.21,9.11-.15,14A64.76,64.76,0,0,1,119.69,161.25Z" transform="translate(-28.85 -12.79)" fill="#fff" opacity="0.4"/><path d="M313.16,246.6c10.38-22.74,15.49-45.95,3.06-54.5C325,202.76,321.28,224.79,313.16,246.6ZM238.73,65.42c-58.35-2-126.34,24.16-128.3,82.51-.14,4.41-.22,9.11-.15,14,1.21-.19,2.46-.33,3.75-.45,0-4.11,0-8.07.18-11.82,2-58.35,70-84.46,128.3-82.51,23.21.78,46.67,5.2,67.5,14.52C288.27,71.16,263.36,66.25,238.73,65.42Z" transform="translate(-28.85 -12.79)" fill="#fff" opacity="0.4"/><path d="M322.89,49.6c-4.5-1.83-10.72-18.92-12.48-24a6.52,6.52,0,0,0-1.61-2.53h0c-19.73-19-41.51-10.6-45.46,16.87l-9.74,48.38,3.11,1.87.31-1.3,3.11,1.86c7.28,4.38,14.5,3.19,18.95-3.14l18.07-25.72c2.65,2.26,5.16,4.29,7.38,5.87,11,7.86,32.7,4.69,42.35-4.81l.78-.8c.17-.22.35-.45.51-.68C355.12,52,333.81,54,322.89,49.6Z" transform="translate(-28.85 -12.79)" fill="#f79594"/><path d="M307.5,25.25a12.73,12.73,0,0,1,1.62,2.54c1.76,5.08,5.57,24.59,10.07,26.41,10.58,4.3,34.53-2,29.54,6.41,5.08-8.54-15.26-6.71-25.84-11-4.5-1.83-10.72-18.92-12.48-24a6.52,6.52,0,0,0-1.61-2.53h0c-15.71-15.15-32.73-12.89-41,2.54C276.45,12.18,292.56,10.85,307.5,25.25Z" transform="translate(-28.85 -12.79)" fill="#fff" opacity="0.4"/><path d="M266,52l-9,36.86,3.11,1.86c7.28,4.38,14.5,3.19,18.95-3.14l18.07-25.72c-10-8.54-21.78-20.45-25.81-24.58A43.45,43.45,0,0,0,266,52Z" transform="translate(-28.85 -12.79)" fill="#b75554"/><path d="M263.33,39.93l-9,44.77c3.18-12.53,8.31-33.05,10-41.91,3.85-19.87,19.45-29.94,35.29-26.57C282.8,7.08,266.68,16.68,263.33,39.93Z" transform="translate(-28.85 -12.79)" fill="#fff" opacity="0.4"/><path d="M222.22,302.33A137.6,137.6,0,0,1,204,298.69c-9.41,59.91,2.41,121,51.86,149.5a182.92,182.92,0,0,0,19.42,9.67C227.12,416.56,216.13,357.09,222.22,302.33Z" transform="translate(-28.85 -12.79)" fill="#fff" opacity="0.2"/><path d="M212.4,304c-10.17,56-2.16,116.88,47.17,145.28l.5.28C216.33,420.35,209,333.14,212.4,304Z" transform="translate(-28.85 -12.79)" fill="#fff" opacity="0.4"/><path d="M310.14,463.69c-54.32-34.15-75.7-96.31-75.68-160-12-1-23.72-2.78-33.14-5.76-.15,0-.28-.11-.42-.17-10.49,60.68,1.33,123.45,53.13,152.73a193.9,193.9,0,0,0,74.82,23.93Q319.22,469.4,310.14,463.69Z" transform="translate(-28.85 -12.79)" fill="#fff" opacity="0.2"/><polygon points="435.08 149.86 431 136.49 444.37 111.71 448.98 137.31 465.92 140.72 442.17 161.23 435.08 149.86" fill="#534741"/><path d="M399.65,194.41l60.2-45.13h0c4.62,2.44,11.32,10.05,12.37,14.74.56,2.46-1.2,10-1.2,10l-48.66,55.17Z" transform="translate(-28.85 -12.79)" fill="#f79594"/><path d="M399.65,194.41l60.2-45.13,13.37-24.77-8,24.37a13.38,13.38,0,0,1-5.49,7.1Z" transform="translate(-28.85 -12.79)" fill="#fff" opacity="0.4"/><path d="M450.19,192.16a139.93,139.93,0,0,1,43.17-37.85l1.41-.8L471,174,433.4,216.67Z" transform="translate(-28.85 -12.79)" fill="#b75554" opacity="0.2"/><path d="M509.46,311.44c-4.39-7.37-28.61-23.8-28.62-23.84C450.61,321.7,393.72,398.74,260.59,423c-12.68,2.31-27.59-6.73-41.69-5.45,0,0-.59,52.59,4.56,57.3,9.78,8.95,28.34-11.33,40.64-24,8.51-8.77,16.56-16.95,22.33-17.1h.08c5.25-.41,6.83,5.6,8.8,15.56,2.18,11,4.88,24.63,18.82,22.22l.72-.14h.06c14.26-3.62,19.65-18.62,24.43-31.73,3.37-9.28,6.57-18,12.28-20l.07,0c5.5-2.27,11.28,2.72,18,8.42,7.38,6.31,15.55,13.22,25.29,11.6a21,21,0,0,0,6.54-2.31l.06,0c12.18-7.41,9.09-20.47,6.59-31-1.95-8.26-3.64-15.41,1-18.8l.08-.06c4.39-3.62,13.52-1.88,23.17-.1,13.34,2.48,28.44,5.13,37.56-4.42l.07-.07c8.34-9.92-1.72-18.58-9.83-25.67-7.49-6.55-11.85-10.86-9.09-14.75l.06-.1c2.64-4.44,12.63-6.45,23.2-8.58,14.76-3,28.6-4,34.48-10.83C510.74,320.77,510.93,313.92,509.46,311.44Z" transform="translate(-28.85 -12.79)" fill="#ffdcf3"/><path d="M504.84,298.64c-3.31-5.61-14.09-8.33-19.26-11.1-1.8-1-8.43-3.83-8.43-3.83-.41.51-.35.43-.78,1-33.17,40.59-97,120.65-257.47,132.93,0,0-2.9,10-4.69,15.76-2.88,9.29-6.34,18.2-3.24,23.87,1.34,2.45,3.86,4,7.5,4.55h.08c14.27,1.52,28.37-11.68,40.81-23.32,8.61-8,16.74-15.66,22.52-15.77H282c5.27-.36,6.79,5.29,8.68,14.65,2.09,10.33,4.67,23.15,18.67,21.17l.72-.11h.06c14.34-3.1,19.86-17.2,24.73-29.65,3.44-8.8,6.7-17.11,12.42-19l.07,0c5.52-2.13,11.28,2.7,17.94,8.29,7.36,6.17,15.52,13,25.3,11.64a21,21,0,0,0,6.56-2.13l.07,0c12.23-7,9.16-19.87,6.69-30.23-1.93-8.12-3.6-15.13,1.08-18.45l.08-.06c4.4-3.55,13.52-1.83,23.18,0,13.35,2.51,28.47,5.35,37.6-4.18l.06-.07c8.34-9.94-1.74-18.75-9.85-25.84-7.49-6.55-11.84-10.81-9.09-14.75l.07-.1c2.63-4.48,12.59-6.62,23.15-8.89,14.73-3.18,31.44-6.77,35.51-18.33l0-.12A9.78,9.78,0,0,0,504.84,298.64Z" transform="translate(-28.85 -12.79)" fill="#8b0069"/><path d="M474,275c-72.12,80.11-140.57,126.83-263.07,128.69.52,1.1,1.05,2.2,1.61,3.28h0c.57,1.1,1.15,2.18,1.74,3.26l.08.13c.55,1,1.11,2,1.69,2.94l.24.4c.58,1,1.18,1.92,1.79,2.87l.09.14c1.13,1.76,2.33,3.47,3.57,5.15C365,404.93,438,340.79,480.2,293.22,478.4,287.23,476.32,281.14,474,275Z" transform="translate(-28.85 -12.79)" fill="#8b0069"/><path d="M386.29,362.63c17.51-11,46-34.54,62.47-56.42-18.25,21.47-46.75,43-64.7,54-18.7,11.42-57.51,28.41-69.77,32C329.64,390.12,367.19,374.66,386.29,362.63Z" transform="translate(-28.85 -12.79)" fill="#fff" opacity="0.3"/><path d="M497,296.45c-3.22-5.41-12-7.55-20.4-9.63l-1.67-.36c-.68.83,17,7.18,19.52,11.52a6.55,6.55,0,0,1,.54,5.17c-3.35,9.57-18.49,12.9-31.85,15.85-11.22,2.47-20.91,4.6-24.1,10-4.26,6.27,2.66,12.3,9.34,18.13,9.27,8.07,14.92,13.88,9.29,20.74-7.62,8-21.31,5.49-33.39,3.25-10-1.84-19.37-3.59-24.65.69-6.06,4.4-4.12,12.43-2.06,20.93,2.42,10,4.91,20.26-4.85,25.94-10.5,5.39-19.08-1.79-27.39-8.73-6.84-5.73-13.31-11.14-20.22-8.45-6.79,2.32-10.11,11-13.63,20.16-4.34,11.34-9.27,24.18-21.45,26.89-10.42,1.83-12.81-5.92-15.29-18-1.73-8.38-3.52-17.05-11.5-16.5-6.68.19-14.46,7.58-23.48,16.14C248.3,441.1,235.35,453.39,223,452.14c-2.55-.4-4.21-1.33-5-2.86-2.31-4.19,7.11-32.21,6-32.11a103.53,103.53,0,0,1-4,10.53c-3.71,8.63-7.54,17.55-4.52,23,1.29,2.36,3.73,3.83,7.22,4.37h.08c13.72,1.42,27.21-11.38,39.1-22.67,8.24-7.81,16-15.19,21.56-15.33h.08c5.05-.37,6.55,5.09,8.41,14.12,2.05,10,4.6,22.36,18,20.41l.7-.12h.06c13.75-3,19-16.69,23.61-28.73,3.26-8.52,6.35-16.57,11.84-18.42l.07,0c5.29-2.08,10.85,2.57,17.28,7.95,7.1,5.93,15,12.52,24.37,11.16a20.1,20.1,0,0,0,6.29-2.08l.07,0c11.72-6.79,8.71-19.24,6.28-29.24-1.9-7.84-3.54-14.61.95-17.83l.07-.06c4.21-3.44,13-1.82,22.28-.1,12.83,2.38,27.38,5.08,36.11-4.17l.06-.07c8-9.63-1.77-18.11-9.6-24.93-7.23-6.31-11.44-10.41-8.81-14.23l.06-.1c2.51-4.33,12.08-6.44,22.21-8.67,14.14-3.12,30.18-6.65,34-17.84l0-.11A9.53,9.53,0,0,0,497,296.45Z" transform="translate(-28.85 -12.79)" fill="#fff" opacity="0.3"/><path d="M103.53,324.33a18.85,18.85,0,0,0,2.22,10.05,18.21,18.21,0,0,1,0-3.69c2-19.91,14.08-30.36,30-34.82C119.18,297.6,105.47,305.4,103.53,324.33Z" transform="translate(-28.85 -12.79)" fill="#534741" opacity="0.2"/><path d="M109.8,290.75c-14.15,3.34-25.37,11.09-25.59,26.16a13.31,13.31,0,0,0,2.69,7.61,12.43,12.43,0,0,1-.3-2.9C86.83,305.78,96.41,296.15,109.8,290.75Z" transform="translate(-28.85 -12.79)" fill="#534741" opacity="0.2"/><path d="M489.31,106.71a18.92,18.92,0,0,0-9.67,3.52,17.89,17.89,0,0,1,3.67-.5c20-.6,31.94,10,38.45,25.16C517.87,118.7,508.34,106.14,489.31,106.71Z" transform="translate(-28.85 -12.79)" fill="#534741" opacity="0.2"/><path d="M523.43,108.5c-5.17-13.58-14.33-23.69-29.3-21.92a13.35,13.35,0,0,0-7.19,3.66,13.56,13.56,0,0,1,2.83-.68C505.51,87.71,516.32,95.94,523.43,108.5Z" transform="translate(-28.85 -12.79)" fill="#534741" opacity="0.2"/></g></svg>