<svg xmlns="http://www.w3.org/2000/svg" xmlns:xlink="http://www.w3.org/1999/xlink" viewBox="0 0 576.06 521.38"><defs><clipPath id="a" transform="translate(-11.97 -39.31)"><rect width="600" height="600" fill="none"/></clipPath><radialGradient id="b" cx="262.51" cy="256.09" r="234.27" gradientUnits="userSpaceOnUse"><stop offset="0" stop-color="#efe6dc"/><stop offset="1" stop-color="#eddece"/></radialGradient></defs><g clip-path="url(#a)"><path d="M316,526.42c81.83,0,146.51,13.78,146.51,21.07s-66.35,13.2-148.2,13.2S89.6,554.78,89.6,547.49,234.19,526.42,316,526.42Z" transform="translate(-11.97 -39.31)" fill="#1a171b" opacity="0.1"/><path d="M180.26,440.92h-11.2l30.55,90c-3.56-1.08-7.49-2-9.81-1.51-7.62,1.46-12.8,4.34-7.4,16.41l28.93-5.56-2.7-4.59Z" transform="translate(-11.97 -39.31)" fill="#3e3d40"/><path d="M233.63,529.39c-2.86-.55-8.11.9-12.16,2.27l-13-90.74h-11.2l17.38,94.94-2.58,4.38L241,545.8C246.43,533.73,241.25,530.85,233.63,529.39Z" transform="translate(-11.97 -39.31)" fill="#3e3d40"/><path d="M316.07,440.92h-11.2l-13,90.63c-4-1.33-9.07-2.7-11.85-2.16-7.62,1.46-12.8,4.34-7.4,16.41l28.93-5.56-2.83-4.8Z" transform="translate(-11.97 -39.31)" fill="#3e3d40"/><path d="M324.89,529.39c-2.65-.51-7.39.71-11.3,2l30.71-90.45H333.1l-29.74,99.32,28.93,5.56C337.69,533.73,332.51,530.85,324.89,529.39Z" transform="translate(-11.97 -39.31)" fill="#3e3d40"/><path d="M513.06,306.41a42.24,42.24,0,0,0-23.67-38A91.89,91.89,0,0,0,446,204.76a174,174,0,0,0-63.86-80.82,32.65,32.65,0,0,0-12.2-37.81c.13-.36.26-.72.38-1.08a22.54,22.54,0,0,0,4.76.51,22.27,22.27,0,1,0-13.4-40.05,9,9,0,0,0-17.47,2.75,8.84,8.84,0,0,0,.58,3.14,25.94,25.94,0,0,0-23.5,35.06,58.26,58.26,0,0,0-10.56-1,57.51,57.51,0,0,0-26.2,6.28,50.17,50.17,0,0,0-49.66.6,64.51,64.51,0,0,0-74,21.92,48.09,48.09,0,0,0-51.92,16.49c-3.25-20.14-19-52.11-39.87-59-26.3-8.7-51.49-4-56.26,10.39s12.67,33.19,39,41.89c15,5,30,15.32,40.87,20.58-50,32.52-56.47,101.05-35.81,164A39.59,39.59,0,0,0,77.5,374.83a39.62,39.62,0,0,0,42.61,44.24,52.88,52.88,0,0,0,80.7,24.46,26.07,26.07,0,0,0,25.86,5.31,26.93,26.93,0,0,0,2.71-1.1,25.58,25.58,0,0,0,30,0,53.29,53.29,0,0,0,71.08,18.5A70.22,70.22,0,0,0,424.17,424,34.73,34.73,0,0,0,462,389.39c.46,0,.92,0,1.38,0a43.86,43.86,0,0,0,41.5-58.05A42,42,0,0,0,513.06,306.41Z" transform="translate(-11.97 -39.31)" fill="url(#b)"/><path d="M69,71.78c-26.3-8.7-51.49-4-56.26,10.39-3.22,9.74,3.67,21.43,16.57,30.69C18.85,102.2,14.15,91,18.26,83.36c6.49-12.08,33.4-16.78,58.95-3.06,10.56,5.67,20.26,19.75,27.55,35.17C98.12,97.27,85.08,77.09,69,71.78Z" transform="translate(-11.97 -39.31)" fill="#fff" opacity="0.6"/><path d="M397.29,63.29a22.28,22.28,0,0,0-33.85-19,24.33,24.33,0,0,1,31.87,28.21A22.22,22.22,0,0,0,397.29,63.29Z" transform="translate(-11.97 -39.31)" fill="#fff" opacity="0.6"/><path d="M344.16,48.26a8.93,8.93,0,0,0,2.54,6.24,10,10,0,0,1,8.78-14.7,6.08,6.08,0,0,1,.61,0,8.93,8.93,0,0,0-11.93,8.43Z" transform="translate(-11.97 -39.31)" fill="#fff" opacity="0.6"/><path d="M191.72,91.82a64.25,64.25,0,0,0-30.91,22.48A48.07,48.07,0,0,0,102,142.92a64.51,64.51,0,0,1,67.14-25.22,48.69,48.69,0,0,0-4.77-2.16,89.1,89.1,0,0,1,65.49-24.78A64.18,64.18,0,0,0,191.72,91.82Z" transform="translate(-11.97 -39.31)" fill="#fff" opacity="0.6"/><path d="M319.58,77.31a25.89,25.89,0,0,0,1.67,9.15,57.81,57.81,0,0,0-36.77,5.32A50.13,50.13,0,0,0,225.92,99a72.79,72.79,0,0,1,55.33-5.44,57.77,57.77,0,0,0-26.55,35.69,70.49,70.49,0,0,1,76.48-40,57,57,0,0,0-7.09-2.18,34.71,34.71,0,0,1-.35-4.91,35.88,35.88,0,0,1,16.52-30.24A25.92,25.92,0,0,0,319.58,77.31Z" transform="translate(-11.97 -39.31)" fill="#fff" opacity="0.6"/><path d="M99.34,212.63A28.29,28.29,0,0,1,137,183.17a25.61,25.61,0,0,0-37.3,31.72C99.53,214.15,99.41,213.4,99.34,212.63Z" transform="translate(-11.97 -39.31)" fill="#fff" opacity="0.6"/><g opacity="0.1"><path d="M163.33,356.26A39.52,39.52,0,0,0,174.92,360c-1.08-.44-2.15-.9-3.21-1.43A43.75,43.75,0,0,1,164.1,285a39.58,39.58,0,0,0-.77,71.27Z" transform="translate(-11.97 -39.31)" fill="#1a171b"/><path d="M419.86,359.45a26.38,26.38,0,0,0,13.64-40.36c.3.72.57,1.45.81,2.21a29.16,29.16,0,0,1-31.76,37.64A26.27,26.27,0,0,0,419.86,359.45Z" transform="translate(-11.97 -39.31)" fill="#1a171b"/><path d="M339,358.9A34.61,34.61,0,0,0,387.3,351a34.2,34.2,0,0,0,4.81-9.48c-.52.87-1.08,1.73-1.68,2.57a38.24,38.24,0,0,1-64.5-3.77A34.49,34.49,0,0,0,339,358.9Z" transform="translate(-11.97 -39.31)" fill="#1a171b"/><path d="M359.33,270.47a21.31,21.31,0,0,0,6.47-1c-.63.05-1.26.08-1.9.08A23.55,23.55,0,0,1,342.56,236a21.31,21.31,0,0,0,16.77,34.51Z" transform="translate(-11.97 -39.31)" fill="#1a171b"/><path d="M513.06,306.41a42.06,42.06,0,0,0-5-20.05,65.32,65.32,0,0,1,1.39,13.36,64,64,0,0,1-6.17,27.52c-.42.89-.85,1.76-1.32,2.63A64.51,64.51,0,0,1,493.58,342a42.7,42.7,0,0,0,9-7.77,52.92,52.92,0,0,1-31.08,54.44,43.88,43.88,0,0,0,33.37-57.28A42,42,0,0,0,513.06,306.41Z" transform="translate(-11.97 -39.31)" fill="#1a171b"/><path d="M448.79,409.1a43.87,43.87,0,0,1-23.44,11.09c-.53.08-1.06.14-1.6.2a44.44,44.44,0,0,1-13.37-.61,34.51,34.51,0,0,0,11.94,4,74.92,74.92,0,0,1-89.85,41.25q-1.41-.42-2.79-.9a75.12,75.12,0,0,1-14.4-6.7,71.07,71.07,0,0,0,12.27,7.45,60.72,60.72,0,0,1-65.78-19.14,25.72,25.72,0,0,0,5.66-7.75,32.19,32.19,0,0,1-7.22,5.78c-.77.46-1.56.88-2.37,1.27A32.53,32.53,0,0,1,227.65,444a32.66,32.66,0,0,1-5.07-3.58,25.21,25.21,0,0,0,3.21,4.18,33,33,0,0,1-23.75-2q1.71-1.32,3.3-2.78-2.09,1.21-4.31,2.27l-1.16.54c-1.79.81-3.62,1.53-5.51,2.17a60.94,60.94,0,0,1-71.7-26c-.74-1.22-1.45-2.47-2.11-3.76a61.29,61.29,0,0,1-3.33-7.78,52.68,52.68,0,0,0,1.52,7.64,43.81,43.81,0,0,1-39.35-39.7,41.24,41.24,0,0,1-.16-4.15,42.54,42.54,0,0,1,.27-4.66,41.4,41.4,0,0,0-1.24,4.21,44,44,0,0,1-20.47-59c.36-.75.75-1.5,1.16-2.23A44.86,44.86,0,0,1,63,303.32a38.09,38.09,0,0,0-4.38,3.49C50,236.61,66,173.91,102.55,138.93c-59,29.58-67.74,102.8-45.77,169.7a39.59,39.59,0,0,0,20.73,66.2,39.19,39.19,0,0,0,1.82,17.53,39.61,39.61,0,0,0,40.77,26.72,52.85,52.85,0,0,0,66.62,31.74,52.24,52.24,0,0,0,14.08-7.3,26.07,26.07,0,0,0,25.87,5.32,25.77,25.77,0,0,0,2.72-1.1,25.55,25.55,0,0,0,30,0,53.3,53.3,0,0,0,71.08,18.49A70.22,70.22,0,0,0,424.17,424a34.72,34.72,0,0,0,37.74-37A43.93,43.93,0,0,1,448.79,409.1Z" transform="translate(-11.97 -39.31)" fill="#1a171b"/><path d="M290.44,386.84a19.59,19.59,0,0,0,0-6c0,.58-.1,1.15-.18,1.73a21.63,21.63,0,0,1-33.44,14.7,19.55,19.55,0,0,0,33.64-10.41Z" transform="translate(-11.97 -39.31)" fill="#1a171b"/><path d="M370.62,422a19.61,19.61,0,0,0,4.14-4.36c-.43.38-.87.76-1.33,1.12a21.63,21.63,0,0,1-34.34-12.45A19.57,19.57,0,0,0,370.62,422Z" transform="translate(-11.97 -39.31)" fill="#1a171b"/><path d="M154.93,377.66a19.57,19.57,0,0,0,3.91-4.56c-.41.41-.83.8-1.27,1.19a21.63,21.63,0,0,1-34.92-10.71,19.57,19.57,0,0,0,32.28,14.08Z" transform="translate(-11.97 -39.31)" fill="#1a171b"/></g><path d="M167.94,239.54a25.41,25.41,0,0,0,6.6,4.2c-.59-.45-1.18-.92-1.76-1.42a28.14,28.14,0,0,1-2.61-39.7,23.76,23.76,0,0,1,1.77-1.84c.63-.6,1.28-1.17,1.94-1.69a28,28,0,0,1,6.24-3.73,25.82,25.82,0,0,0-6.09,1.92,43.76,43.76,0,0,1,58.47-36.65,39.59,39.59,0,0,0-61,36.87c0,.36.07.71.11,1.07a25.46,25.46,0,0,0-3.67,41Z" transform="translate(-11.97 -39.31)" fill="#fff" opacity="0.6"/><path d="M544.32,101.09c-20-9.49-68.69-2.28-111.27,9a49.15,49.15,0,0,0-2.69-5.11c3.57-6.68,2.78-16.34-2.69-24.6-7.27-11-20-15.31-28.52-9.69a14.07,14.07,0,0,0-2.79,2.41q-2.53-1.5-5.09-2.84a24.88,24.88,0,0,0-15-11.2,24.63,24.63,0,0,0-17.82,2.58c-20.9,1.62-30.64,21-34.79,45.47a51.64,51.64,0,0,0-.46,13.84,118.16,118.16,0,0,0-30.38,10.65c-24.68,11.89-48,34-58.52,55.82-11.13,21.57-12.51,40.37-10.69,53.59,2,13.35,7.17,21.12,13,23.42,12.66,5.1,20.78-15.93,44.88-55.22,11.85-19.8,30.74-41.15,46.75-56.63,1.83-1.85,3.62-3.62,5.35-5.31a51.91,51.91,0,0,0,13.64,12.43c-15.2,11.74-45.44,37.78-35.31,52,5.36,7.55,10.85,10.21,15.15,10.91h0c33,4.94,88.61-3.92,117.2,4.24,40.23,11.48,80.17,38,85.18,20.44,3.73-13.09-11.64-48.52-36.4-70.44a151.51,151.51,0,0,1,24.39,7.1c39,15.12,60.35,40.21,68.18,23.72S582.12,119,544.32,101.09Z" transform="translate(-11.97 -39.31)" fill="#3e3d40"/><path d="M225.7,243.74c-2-13.35-.6-32.45,11.43-54.66,11.39-22.41,36.68-45.58,63.52-58.39A139.18,139.18,0,0,1,329.21,120a115.48,115.48,0,0,0-36.37,11.65c-24.68,11.89-48,34-58.52,55.82-11.13,21.57-12.51,40.37-10.69,53.59,1.64,11,5.46,18.24,10,21.72C230.06,258.83,227.15,252.5,225.7,243.74Z" transform="translate(-11.97 -39.31)" fill="#fff" opacity="0.3"/><path d="M325.48,142.87c-3.64-4-19.52-3.9-35.38,4.07-16.05,7.5-35,30.33-43.19,46.27-8.56,15.75-10.93,30-10.9,40.2s2.65,16.56,6,18.69c7.32,4.69,14-10.83,31.92-39.26,8.86-14.35,25-36.86,36.06-47.65C320.92,154.11,329.56,147.32,325.48,142.87Z" transform="translate(-11.97 -39.31)" fill="#e0a498"/><path d="M239.2,237c0-11,2.52-26.27,11.72-43.18,8.83-17.13,29.15-41.67,46.4-49.72.59-.3,1.19-.59,1.79-.87a65.17,65.17,0,0,0-9,3.73c-16.05,7.5-35,30.33-43.19,46.27-8.56,15.75-10.93,30-10.9,40.2.11,10,2.49,16.17,5.73,18.48C240.23,248.41,239.28,243.43,239.2,237Z" transform="translate(-11.97 -39.31)" fill="#1a171b" opacity="0.2"/><path d="M341.65,88.89c4.66-18.87,20.74-31.12,35.91-27.37a25.12,25.12,0,0,1,15.58,12.19c-3.46-7.31-9.34-12.74-16.85-14.6-15.16-3.75-31.24,8.5-35.91,27.37-2.61,10.58-1.08,21,3.44,28.76A39.75,39.75,0,0,1,341.65,88.89Z" transform="translate(-11.97 -39.31)" fill="#fff" opacity="0.3"/><path d="M376.15,70.05c-12.2-3-25,6.21-28.53,20.6s3.45,28.5,15.64,31.51,25-6.2,28.53-20.59S388.34,73.07,376.15,70.05Z" transform="translate(-11.97 -39.31)" fill="#eceded"/><path d="M373.79,86.38a10,10,0,0,0-6.1.45,5.08,5.08,0,0,1,3.88,1.4c2.16,2.14,1.86,5.94-.66,8.49s-6.32,2.88-8.48.74A5.19,5.19,0,0,1,361.05,93a16,16,0,0,0-1.37,3.58c-1.76,7.12,1.7,14.1,7.74,15.59s12.34-3.07,14.1-10.19S379.82,87.87,373.79,86.38Z" transform="translate(-11.97 -39.31)" fill="#41281b"/><path d="M367.39,120.54c-12.2-3-19.2-17.12-15.64-31.51,2.13-8.63,7.58-15.4,14.23-18.79-8.46,2.37-15.8,10.05-18.36,20.41-3.55,14.39,3.45,28.5,15.64,31.51a20.46,20.46,0,0,0,14.3-1.81A19.8,19.8,0,0,1,367.39,120.54Z" transform="translate(-11.97 -39.31)" opacity="0.1"/><path d="M425.76,83.74c-6.09-9.21-16.81-12.85-23.93-8.13s-7.95,16-1.85,25.2,16.81,12.85,23.93,8.13S431.86,92.94,425.76,83.74Z" transform="translate(-11.97 -39.31)" fill="#eceded"/><path d="M413.05,91.64c-1.57-2.49-4.06-3.83-6.25-3.6a4.08,4.08,0,0,1,1.44,1.4c1,1.61.86,3.61-.35,4.45s-3,.21-4-1.41a4.44,4.44,0,0,1-.63-1.72,7.86,7.86,0,0,0,.87,7.12c2.08,3.3,5.77,4.59,8.24,2.87S415.13,95,413.05,91.64Z" transform="translate(-11.97 -39.31)" fill="#41281b"/><path d="M425.76,83.74a24.37,24.37,0,0,0-7.67-7.46,25.43,25.43,0,0,1,5.58,6c6.09,9.21,5.26,20.49-1.86,25.21-4.65,3.08-10.83,2.59-16.25-.68,5.87,4.52,13.09,5.6,18.35,2.11C431,104.23,431.86,92.94,425.76,83.74Z" transform="translate(-11.97 -39.31)" opacity="0.1"/><path d="M363.87,107.4a2.2,2.2,0,1,0,2.48,1.88A2.2,2.2,0,0,0,363.87,107.4Z" transform="translate(-11.97 -39.31)" fill="#fff"/><path d="M361,111.73a1.13,1.13,0,1,0,1.27,1A1.12,1.12,0,0,0,361,111.73Z" transform="translate(-11.97 -39.31)" fill="#fff"/><path d="M405.67,98.44a1.27,1.27,0,0,0-1.09,1.44,1.27,1.27,0,1,0,2.52-.35A1.27,1.27,0,0,0,405.67,98.44Z" transform="translate(-11.97 -39.31)" fill="#fff"/><path d="M404,101a.67.67,0,0,0-.57.74A.66.66,0,1,0,404,101Z" transform="translate(-11.97 -39.31)" fill="#fff"/><path d="M518.08,180.77a170.27,170.27,0,0,0-44.78-10.16c-.95-.09-100.4-13-136,24.73,35.6-37.77,134.49-21.54,135.45-21.46,15,1.49,30.15,4.5,44.77,10.17,37.3,14.46,58.45,38,67.07,25.65C574.92,217.36,553.23,194.41,518.08,180.77Z" transform="translate(-11.97 -39.31)" fill="#1a171b" opacity="0.6"/><path d="M314.47,203.35c3-14.93,25.94-36.88,37.48-47.13h0c-12.13,8.93-51.31,39.62-40,55.57,3.63,5.11,7.31,8,10.64,9.51C315.88,214.8,312.5,208.71,314.47,203.35Z" transform="translate(-11.97 -39.31)" fill="#fff" opacity="0.4"/><path d="M544.32,101.09c-23.32-11.07-85.65.57-131.81,15,49-12.82,108.3-21.92,129.66-11.78C570.88,117.91,585.89,165,588,194.1,588.57,167.05,575.32,115.81,544.32,101.09Z" transform="translate(-11.97 -39.31)" fill="#fff" opacity="0.4"/><path d="M505.3,111.44c-1.51,4.9,11.14,7.1,24,11s21,8.17,22.53,3.27-5.9-14.85-18.74-18.81S506.81,106.54,505.3,111.44Z" transform="translate(-11.97 -39.31)" fill="#1a171b"/><path d="M544,108.4a28.94,28.94,0,0,0-3.47-1.45c12.37,5.19,18.67,17.26,16.62,23.82-1.34,4.27-5.14,4-11.09,2.16,5.9,3.08,9.75,4.38,11.72.41C560.71,127.38,556,114.39,544,108.4Z" transform="translate(-11.97 -39.31)" fill="#fff" opacity="0.4"/><path d="M394,97.7c.87-13.64-3.35-28.53-17.72-31.78-15.74-3.57-29.06,11.13-33,27.08a35.63,35.63,0,0,0-.81,4.47s14.32-7.37,28.15-6.61C377.14,91.23,394,97.7,394,97.7Z" transform="translate(-11.97 -39.31)" fill="#3e3d40"/><path d="M370.68,81.47c-6.89-1.17-19,8.73-23.9,14.46a70.68,70.68,0,0,1,23.41-2.71c5.4.3,18.1,2.88,22.35,4.07C384.84,86,372.69,81.81,370.68,81.47Z" transform="translate(-11.97 -39.31)" opacity="0.1"/><path d="M394,97.7c.87-13.64-3.35-28.53-17.72-31.78-15.74-3.57-29.06,11.13-33,27.08a35.63,35.63,0,0,0-.81,4.47s14.06-5.84,27.89-5.07C376.87,92.76,394,97.7,394,97.7Z" transform="translate(-11.97 -39.31)" fill="#3e3d40"/><path d="M425.76,83.74c-6.09-9.21-16.81-12.85-23.93-8.13-6.2,4.1-7.63,13.2-3.86,21.56,4.81-.82,11.61-1.85,14.71-1.71,3.73.16,12.73,2.5,17,3.65A22.83,22.83,0,0,0,425.76,83.74Z" transform="translate(-11.97 -39.31)" opacity="0.1"/><path d="M392.62,98.13C392.29,86,395.35,72,406.57,69.91c12.29-2.26,22.25,11.5,24.9,25.84a37.13,37.13,0,0,1,.52,4s-14.47-5.23-19.44-5.45S392.62,98.13,392.62,98.13Z" transform="translate(-11.97 -39.31)" fill="#3e3d40"/><path d="M398.44,72.32c8.75-5.79,21.91-1.32,29.4,10a30.41,30.41,0,0,1,4.58,11.16,29,29,0,0,0-4.75-13c-7.27-11-20-15.31-28.52-9.69a15.08,15.08,0,0,0-5.57,6.85A15.23,15.23,0,0,1,398.44,72.32Z" transform="translate(-11.97 -39.31)" fill="#fff" opacity="0.3"/><path d="M493.13,177c-.76-.16-1.51-.31-2.27-.45,21.19,21.95,34.6,52.45,32,65.31-2.16,10.74-15.78,7.87-34.42,1.6,21.57,8.86,38,14.82,41.08,4C533.26,234.3,517.89,198.87,493.13,177Z" transform="translate(-11.97 -39.31)" fill="#fff" opacity="0.4"/><path d="M505.36,180c-10.33,17.91,3.06,25.39,17.77,33.83,4.46,2.56,8.55,4.65,12.31,6.35a59.68,59.68,0,0,0,9.73-12.56c.11,5.36-2.4,10.08-5.9,14.19,25.84,10.34,34.45,0,39.21-8.61-10.9.49-30.57-17.33-61-29.11C513.51,182.49,509.44,181.14,505.36,180Z" transform="translate(-11.97 -39.31)" fill="#f4e3d5"/><path d="M505.36,180c-5,8.7-4.45,14.94-.84,20-.53-5.37.85-11.54,4.79-18.83C508,180.73,506.68,180.34,505.36,180Z" transform="translate(-11.97 -39.31)" fill="#1a171b" opacity="0.1"/><path d="M561,226c9.8-1,14.45-7.28,17.51-12.79a14.13,14.13,0,0,1-4.45-.62A40.19,40.19,0,0,1,561,226Z" transform="translate(-11.97 -39.31)" fill="#fff" opacity="0.4"/></g></svg>