<svg xmlns="http://www.w3.org/2000/svg" xmlns:xlink="http://www.w3.org/1999/xlink" viewBox="0 0 574.68 560.36"><defs><clipPath id="a" transform="translate(-12.66 -19.82)"><rect width="600" height="600" fill="none"/></clipPath></defs><g clip-path="url(#a)"><path d="M141.64,391.92A69.74,69.74,0,0,1,132,399.8a69,69,0,0,1-41,11.92l-25-12.66c-8.1,9.63-4.11,13.62,2.48,16.95,4.38,2.22,11.65,2.42,17.33.67,17.68,2.05,36.27-.92,50.88-10.82a61.82,61.82,0,0,0,14.7-14.06A36.52,36.52,0,0,1,141.64,391.92Zm-69.1-15.26c15.4,7.22,33,10.35,49.39,6.43a36.43,36.43,0,0,1-5.8-6.5,69,69,0,0,1-38.77-3.65L61,357.29c-9,5.86-6.77,10.12-2.21,14.5C61.8,374.64,67.53,376.6,72.54,376.66Zm512.41-38c-2.48-4.15-8.75-8.14-14.32-9.2-12.06-12.45-27.57-21.78-44.56-24.12a66.61,66.61,0,0,0-24.67,1.38,39.76,39.76,0,0,1-2.1,7.75,73.57,73.57,0,0,1,68.51,20.21l10.85,18.14C589.5,349.39,588.38,344.41,585,338.68Zm-27.41,28.41c-10.64-18.81-26.82-34.92-46.95-42.26A73.44,73.44,0,0,0,496,321.17a40.93,40.93,0,0,1-6.55,8.11,85.87,85.87,0,0,1,18.44,4.5,84.49,84.49,0,0,1,41.82,33l4.33,33c15.31,1.55,16.6-5.23,15.42-14.19C568.66,379.39,563.51,371.55,557.54,367.09Z" transform="translate(-12.66 -19.82)" fill="#3e3d40"/><path d="M512.4,261.64a40.23,40.23,0,0,0-25.23-34.29,87.42,87.42,0,0,0-45.86-57.27,165.6,165.6,0,0,0-66.49-72,31.06,31.06,0,0,0-14.33-35c.1-.35.2-.69.28-1a20.87,20.87,0,0,0,4.55.14,21.19,21.19,0,1,0-15.63-37,8.51,8.51,0,1,0-15.59,6.83,24.69,24.69,0,0,0-19.75,35,53.83,53.83,0,0,0-10.09-.15,54.49,54.49,0,0,0-24.4,7.87,47.75,47.75,0,0,0-47.08,4.18A61.42,61.42,0,0,0,164.15,105a45.75,45.75,0,0,0-48.06,19.43C111.54,105.58,94.25,76.39,74,71.37c-25.58-6.34-49.14-.09-52.62,14s14.44,30.57,40,36.91c14.62,3.62,29.53,12.35,40.27,16.55-45,34.5-46.22,100-22,158.2a37.68,37.68,0,0,0,24.48,61.32,37.72,37.72,0,0,0,43.66,38.87,50.34,50.34,0,0,0,78.36,17.33A24.79,24.79,0,0,0,251,417.66a25.1,25.1,0,0,0,2.49-1.24A24.32,24.32,0,0,0,282,414.21a50.73,50.73,0,0,0,68.8,12.36,66.81,66.81,0,0,0,85.82-46.85A33,33,0,0,0,470,344.1l1.32-.07a41.74,41.74,0,0,0,35.15-58.1A40.06,40.06,0,0,0,512.4,261.64Z" transform="translate(-12.66 -19.82)" fill="#e84142"/><path d="M74,71.37c-25.58-6.34-49.14-.09-52.62,14-2.35,9.48,5.05,20.07,18,27.91-10.72-9.35-16-19.62-12.65-27.18,5.27-11.93,30.46-18.36,55.71-7.2,10.43,4.61,20.66,17.26,28.7,31.36C103.43,93.44,89.58,75.24,74,71.37Z" transform="translate(-12.66 -19.82)" fill="#fff" opacity="0.6"/><path d="M384.83,39.39a21.19,21.19,0,0,0-33.51-15.58A23.14,23.14,0,0,1,383.78,43.2a23.55,23.55,0,0,1-.16,5A21.1,21.1,0,0,0,384.83,39.39Z" transform="translate(-12.66 -19.82)" fill="#fff" opacity="0.6"/><path d="M333.32,29a8.44,8.44,0,0,0,2.86,5.73,9.49,9.49,0,0,1,7.26-14.59H344A8.48,8.48,0,0,0,333.32,29Z" transform="translate(-12.66 -19.82)" fill="#fff" opacity="0.6"/><path d="M191.84,81.45A61.1,61.1,0,0,0,164.15,105a45.77,45.77,0,0,0-53.71,31.45,61.43,61.43,0,0,1,61.88-28.82,46.11,46.11,0,0,0-4.69-1.71A84.85,84.85,0,0,1,228,77.66,61.13,61.13,0,0,0,191.84,81.45Z" transform="translate(-12.66 -19.82)" fill="#fff" opacity="0.6"/><path d="M312.11,58.36a24.67,24.67,0,0,0,2.25,8.56,53.93,53.93,0,0,0-10.1-.15,54.61,54.61,0,0,0-24.4,7.87,47.74,47.74,0,0,0-55,11.13,69.2,69.2,0,0,1,52.1-9.19,55,55,0,0,0-22.59,35.8A67.06,67.06,0,0,1,324,68.84a54.76,54.76,0,0,0-6.9-1.56,34.88,34.88,0,0,1-.68-4.63,34.18,34.18,0,0,1,13.47-29.9A24.68,24.68,0,0,0,312.11,58.36Z" transform="translate(-12.66 -19.82)" fill="#fff" opacity="0.6"/><circle cx="278.51" cy="244.48" r="69.53" fill="#f2f2f2"/><path d="M383.47,264.3a92.31,92.31,0,1,1-92.3-92.3A92.31,92.31,0,0,1,383.47,264.3ZM265,301H247.09c-3.75,0-5.61,0-6.75-.73a4.49,4.49,0,0,1-2.06-3.56c0-1.33.85-3,2.72-6.23l44.22-78c1.93-3.31,2.85-5,4-5.58a4.64,4.64,0,0,1,4.14,0c1.19.62,2.15,2.27,4,5.58l9.12,15.87h0a30.33,30.33,0,0,1,3.52,7.24,14,14,0,0,1,0,6.31,30.72,30.72,0,0,1-3.52,7.41L283.3,290.43v.12a28.94,28.94,0,0,1-4.52,6.76,13.46,13.46,0,0,1-5.5,3.2A33.22,33.22,0,0,1,265,301Zm45.23,0h25.67c3.85,0,5.77,0,6.83-.75a4.5,4.5,0,0,0,2.06-3.58c0-1.29-.85-2.87-2.62-5.94l-.19-.31-12.85-22-.15-.31c-1.81-3.05-2.71-4.59-3.85-5.19a4.58,4.58,0,0,0-4.11,0c-1.17.62-2.13,2.21-4,5.46l-12.84,22.06h0c-1.93,3.23-2.81,4.85-2.75,6.17a4.56,4.56,0,0,0,2.07,3.58C304.63,301,306.55,301,310.24,301Z" transform="translate(-12.66 -19.82)" fill="#e84142" fill-rule="evenodd"/><path d="M517.49,104.62c-14.48-3.46-28-3.65-30.8,5.79-5.31,17.68,7.66,21.18,22,25.24,4.29,1.22,8.18,2.13,11.7,2.76a51.62,51.62,0,0,0,5.56-12.62c1.22,4.49.1,9-2,13.19,27.36,3.75,30.08-10.56,32.05-18.82C558.26,110.57,532,108.07,517.49,104.62Z" transform="translate(-12.66 -19.82)" fill="#f4e3d5"/><path d="M553.45,114.53c-1.26,7.67-3.59,16.53-10.37,23.41,9.83-3.57,11.53-12.11,12.89-17.78C556.5,117.93,555.49,116.09,553.45,114.53Z" transform="translate(-12.66 -19.82)" fill="#fff" opacity="0.4"/><path d="M490.76,108.82a15.38,15.38,0,0,1,2.61-5.12,10.11,10.11,0,0,0-6.68,6.71c-2.6,8.67-.81,13.93,3.38,17.52C488.33,123.05,488.34,116.87,490.76,108.82Z" transform="translate(-12.66 -19.82)" fill="#1a171b" opacity="0.1"/><path d="M502.81,36.25C484,32.46,444.46,48.76,411,67.26a46.27,46.27,0,0,0-3.34-3.75c1.6-6.36-1.1-14.34-7.44-20.15-8.43-7.72-20.1-8.69-26.07-2.17a12.77,12.77,0,0,0-1.84,2.62c-1.63-.49-3.27-.93-4.89-1.32a20.82,20.82,0,0,0-29.46-.36c-17.25,5.77-21.38,24.13-19.73,45.61a45.2,45.2,0,0,0,2.52,11.76,102.22,102.22,0,0,0-23.36,15.35c-18.29,15.21-33.27,38.76-37.57,59.33-4.84,20.51-2.05,36.64,2.26,47.4,4.48,10.83,10.48,16.29,15.9,17,11.73,1.64,14.16-17.79,26.2-56,5.83-19.17,17.26-41.13,27.49-57.54,1.15-1.94,2.29-3.8,3.39-5.59a45.3,45.3,0,0,0,14.1,7.61c-8.3,10.51-22.85,30.85-22.26,43.56v0c-2.17,20.11,72.89,27.81,106.77,41s66.29,39.24,72,24.47-15-67-48.9-80.14a56.43,56.43,0,0,0-5.75-1.84l-.34-.09a95.43,95.43,0,0,0-10.12-2c-14.37-3.28-35.11-9.85-29.46-17.25,5.07-6.64,25.23-15.06,44.44-21.92l2.28-.23a147.78,147.78,0,0,1,39.86-.85c36.05,4.55,59.3,21.19,62.43,5.66S538.43,43.42,502.81,36.25Z" transform="translate(-12.66 -19.82)" fill="#3e3d40"/><path d="M264.36,223.4c-4.52-10.82-7.33-27.21-1.86-48.46,4.88-21.27,21.32-46.1,41.24-62.54a120.28,120.28,0,0,1,21.82-15,100.26,100.26,0,0,0-28.2,17.46c-18.29,15.21-33.27,38.76-37.57,59.33-4.84,20.51-2.05,36.64,2.26,47.4,3.7,8.94,8.43,14.22,13,16.18C271.2,235.2,267.42,230.48,264.36,223.4Z" transform="translate(-12.66 -19.82)" fill="#fff" opacity="0.3"/><path d="M327.22,117.44c-3.9-2.57-17.26.82-29,10.87-11.94,9.69-23.08,32.9-26.65,48.06-3.9,15.07-2.91,27.57-.74,36.16s5.71,13.4,9,14.48c7.15,2.41,9.51-12.07,18.64-39.79,4.45-13.95,13.33-36.31,20.37-47.72C325.74,127.88,331.59,120.34,327.22,117.44Z" transform="translate(-12.66 -19.82)" fill="#e0a498"/><path d="M274.31,214.87c-2.33-9.23-3.4-22.66.8-38.85,3.83-16.29,15.8-41.23,28.64-51.64l1.32-1.11a58.46,58.46,0,0,0-6.81,5c-11.94,9.69-23.08,32.9-26.65,48.06-3.9,15.07-2.91,27.57-.74,36.16,2.2,8.39,5.5,13.1,8.71,14.36C277.58,224.28,275.73,220.29,274.31,214.87Z" transform="translate(-12.66 -19.82)" fill="#1a171b" opacity="0.2"/><path d="M329.5,68.57C329.46,51.69,340.43,38,354,38a21.81,21.81,0,0,1,15.69,7c-4.45-5.42-10.55-8.77-17.26-8.75-13.57,0-24.54,13.73-24.51,30.6,0,9.47,3.5,17.92,8.95,23.51A34.4,34.4,0,0,1,329.5,68.57Z" transform="translate(-12.66 -19.82)" fill="#fff" opacity="0.3"/><path d="M354.6,45.44c-10.91,0-19.73,10.48-19.7,23.35s8.89,23.29,19.8,23.27,19.73-10.48,19.7-23.35S365.51,45.42,354.6,45.44Z" transform="translate(-12.66 -19.82)" fill="#eceded"/><path d="M356,59.7a8.64,8.64,0,0,0-5,1.66,4.42,4.42,0,0,1,3.56.36c2.27,1.35,2.82,4.61,1.23,7.29s-4.72,3.76-7,2.41a4.51,4.51,0,0,1-2.11-3.48,13.68,13.68,0,0,0-.4,3.3c0,6.37,4.4,11.52,9.79,11.51s9.76-5.18,9.75-11.55S361.44,59.69,356,59.7Z" transform="translate(-12.66 -19.82)" fill="#41281b"/><path d="M357.83,89.82c-10.9,0-19.77-10.39-19.8-23.26a24.86,24.86,0,0,1,8.05-18.82c-6.64,3.77-11.2,11.79-11.18,21.05,0,12.87,8.89,23.29,19.8,23.27a17.78,17.78,0,0,0,11.66-4.53A17.23,17.23,0,0,1,357.83,89.82Z" transform="translate(-12.66 -19.82)" opacity="0.1"/><path d="M373.86,42.67C380,36,392,37,400.73,44.91a26.2,26.2,0,0,1,6.2,8.44,25,25,0,0,0-6.74-10c-8.43-7.72-20.1-8.69-26.07-2.17a13.19,13.19,0,0,0-3.25,6.94A13.32,13.32,0,0,1,373.86,42.67Z" transform="translate(-12.66 -19.82)" fill="#fff" opacity="0.3"/><path d="M399.28,46.55c-7.07-6.48-16.86-7.29-21.87-1.82s-3.34,15.15,3.73,21.62S398,73.64,403,68.17,406.35,53,399.28,46.55Z" transform="translate(-12.66 -19.82)" fill="#eceded"/><path d="M390.23,55.88a6,6,0,0,0-6-1.72,3.51,3.51,0,0,1,1.5.87c1.2,1.15,1.49,2.86.65,3.82s-2.5.82-3.69-.33a3.79,3.79,0,0,1-.9-1.32A6.82,6.82,0,0,0,384,63c2.45,2.35,5.82,2.66,7.54.69S392.68,58.23,390.23,55.88Z" transform="translate(-12.66 -19.82)" fill="#41281b"/><path d="M399.28,46.55a21.1,21.1,0,0,0-8-4.67,21.52,21.52,0,0,1,6,3.9C404.28,52.25,406,61.94,401,67.4c-3.27,3.57-8.58,4.47-13.84,2.85,5.9,2.57,12.21,2,15.91-2.08C408,62.7,406.35,53,399.28,46.55Z" transform="translate(-12.66 -19.82)" opacity="0.1"/><path d="M352.1,79.49a1.91,1.91,0,1,0,2.49,1.07A1.92,1.92,0,0,0,352.1,79.49Z" transform="translate(-12.66 -19.82)" fill="#fff"/><path d="M350.58,83.75a1,1,0,1,0,1.28.55A1,1,0,0,0,350.58,83.75Z" transform="translate(-12.66 -19.82)" fill="#fff"/><path d="M385.44,63.16a1.11,1.11,0,1,0,1.44.62A1.11,1.11,0,0,0,385.44,63.16Z" transform="translate(-12.66 -19.82)" fill="#fff"/><path d="M384.56,65.63a.57.57,0,1,0,.42,1.05.57.57,0,0,0,.32-.74A.57.57,0,0,0,384.56,65.63Z" transform="translate(-12.66 -19.82)" fill="#fff"/><path d="M330.66,170.72c-.63-13.21,14.1-36.53,21.67-47.59-6.88,8.31-26.16,33-25.46,47.54-.88,8.14,10.89,14.24,27.47,19.5C339.79,184.52,329.85,178.2,330.66,170.72Z" transform="translate(-12.66 -19.82)" fill="#fff" opacity="0.4"/><path d="M438.52,115.2c-27.61,3.75-77,14.68-95.26,46.13-2.4,4.13,20.45,10.45,47.72,15.81-26.06-5.9-45.13-13.78-42.78-18C363.75,131.46,411.44,119.75,438.52,115.2Z" transform="translate(-12.66 -19.82)" fill="#1a171b" opacity="0.4"/><path d="M502.81,36.25c-22-4.42-72,18.48-107.9,40.32,38.57-21.09,86.64-41.23,106.77-37.18,27.05,5.45,49.59,42,57.49,66C554,82.51,532,42.13,502.81,36.25Z" transform="translate(-12.66 -19.82)" fill="#fff" opacity="0.4"/><path d="M472.11,53.17c-.24,4.44,10.88,3.64,22.53,4.27s19.42,2.46,19.66-2-8.08-11.28-19.74-11.91S472.35,48.72,472.11,53.17Z" transform="translate(-12.66 -19.82)" fill="#1a171b"/><path d="M504.05,42.48a25.88,25.88,0,0,0-3.24-.49c11.52,1.78,19.37,10.62,19,16.57-.23,3.88-3.48,4.47-8.88,4.16,5.62,1.35,9.13,1.64,10-2.12C522.14,55,515.44,45,504.05,42.48Z" transform="translate(-12.66 -19.82)" fill="#fff" opacity="0.4"/><path d="M436.18,155.18c-7.7-2.47-39-10.51-31.87-19.89,3.87-5.06,12.6-11.59,22-17.79-27.39,5.77-64.72,17.76-78.14,41.67-2.46,4.39,18.55,12.81,46.47,18.79,4.6.72,9.22,1.58,13.77,2.64h0c13.38,2.27,30,10.05,30,10.05h0c24.39,10.39,42.32,22.17,47.21,14.25C492.19,194.35,467,165.1,436.18,155.18Z" transform="translate(-12.66 -19.82)" fill="#ad7165"/><path d="M436.18,155.18c-7.7-2.47-39-10.51-31.87-19.89,3.87-5.06,12.6-11.59,22-17.79-3.88.82-7.95,1.76-12.12,2.84C407,127.13,401,133.18,398.13,136.9,391,146.28,422.3,154.31,430,156.79c23.41,7.53,48.72,29,56.69,43.53C486,187.56,463.28,163.9,436.18,155.18Z" transform="translate(-12.66 -19.82)" fill="#1a171b" opacity="0.1"/><path d="M348.2,159.17c-2.46,4.39,18.55,12.81,46.48,18.79l1.75.28a55.8,55.8,0,0,0-2.67-7.91c-6.56-15.49-19.09-25.83-31.22-27.19A54.31,54.31,0,0,0,348.2,159.17Z" transform="translate(-12.66 -19.82)" fill="#1a171b" opacity="0.3"/><path d="M412.19,130.2c-10.56-1.81-44.78,26.93-53.47,35.38l-1.35,1.26a127.78,127.78,0,0,0,12,4.46c15.25-8.77,33-18.94,38.54-18.5,20.35,1.43,30,3.91,31.42-2,.68-2.71-.78-6.57-5.08-10.72S422.82,131.74,412.19,130.2Z" transform="translate(-12.66 -19.82)" fill="#e0a498"/><path d="M414.9,132.92a54,54,0,0,1,14.47,3.42,43,43,0,0,0-17.18-6.14c-10.56-1.81-44.78,26.93-53.47,35.38l-.78.73C372.2,154.85,404.38,131.59,414.9,132.92Z" transform="translate(-12.66 -19.82)" fill="#fff" opacity="0.3"/><path d="M367.56,170.71l1.79.59c15.25-8.77,33-18.94,38.54-18.5,8.65.61,15.35,1.4,20.33,1.67a148.25,148.25,0,0,0-23-3.95C399.62,150.06,382.23,161.23,367.56,170.71Z" transform="translate(-12.66 -19.82)" opacity="0.1"/><path d="M456.76,156a76.26,76.26,0,0,0-16.44-4,94.93,94.93,0,0,1,17.12,5.49c33.26,14.62,50.28,61.87,44.9,75.76s-36.06-12.65-70.55-24.08c-6.11-2-15.24-3.92-26-5.8,10.45,2.62,20.18,5.3,27.81,8.26,33.87,13.14,66.29,39.24,72,24.47S490.63,169.09,456.76,156Z" transform="translate(-12.66 -19.82)" fill="#1a171b" opacity="0.4"/><path d="M113,202.81a26.92,26.92,0,0,1,33.55-30.7,24.37,24.37,0,0,0-33.08,32.82C113.28,204.23,113.12,203.53,113,202.81Z" transform="translate(-12.66 -19.82)" fill="#fff" opacity="0.6"/><g opacity="0.1"><path d="M184.18,334.43a37.59,37.59,0,0,0,11.27,2.66c-1.06-.34-2.11-.7-3.16-1.13a41.64,41.64,0,0,1-12.57-69.21,37.67,37.67,0,0,0,4.46,67.68Z" transform="translate(-12.66 -19.82)" fill="#1a171b"/><path d="M427.83,318.76a25.11,25.11,0,0,0,10-39.29c.33.66.64,1.34.92,2a27.76,27.76,0,0,1-27.39,38A25.08,25.08,0,0,0,427.83,318.76Z" transform="translate(-12.66 -19.82)" fill="#1a171b"/><path d="M351.06,324.13a33,33,0,0,0,49.13-20.37c-.43.86-.9,1.72-1.41,2.56a36.4,36.4,0,0,1-61.47,1.13A32.82,32.82,0,0,0,351.06,324.13Z" transform="translate(-12.66 -19.82)" fill="#1a171b"/><path d="M363.9,238.74a20.33,20.33,0,0,0,6.07-1.43c-.59.09-1.18.17-1.79.22a22.41,22.41,0,0,1-24.09-20.6,22.18,22.18,0,0,1,1.39-9.71,20.28,20.28,0,0,0,18.42,31.52Z" transform="translate(-12.66 -19.82)" fill="#1a171b"/><path d="M512.4,261.64A40.08,40.08,0,0,0,506.14,243a61.86,61.86,0,0,1,2.29,12.57,60.87,60.87,0,0,1-3.84,26.57c-.33.88-.68,1.73-1.06,2.59a61.1,61.1,0,0,1-7,12.11,40.31,40.31,0,0,0,8-8,51.63,51.63,0,0,1,.77,5.75A50.35,50.35,0,0,1,479,342.71a41.73,41.73,0,0,0,27.49-56.78A40,40,0,0,0,512.4,261.64Z" transform="translate(-12.66 -19.82)" fill="#1a171b"/><path d="M458.9,363.76A41.67,41.67,0,0,1,437.46,376c-.49.11-1,.22-1.5.31a42.46,42.46,0,0,1-12.73.4,33.08,33.08,0,0,0,11.63,2.94,71.32,71.32,0,0,1-82.25,45.69c-.92-.2-1.82-.41-2.72-.65a71.14,71.14,0,0,1-14.15-5.31,67.3,67.3,0,0,0,12.18,6.17,57.77,57.77,0,0,1-63.81-13.36,24.51,24.51,0,0,0,4.81-7.76,30.84,30.84,0,0,1-6.43,6c-.7.49-1.41.95-2.15,1.38a31.27,31.27,0,0,1-6.27,2.75A31,31,0,0,1,251.61,413a31.32,31.32,0,0,1-5.07-3,23.36,23.36,0,0,0,3.35,3.73,31.46,31.46,0,0,1-22.69-.15c1-.92,2-1.89,2.94-2.88q-1.9,1.3-3.93,2.47l-1.06.6c-1.64.89-3.32,1.71-5.07,2.46a58,58,0,0,1-69.93-19.48c-.8-1.1-1.55-2.24-2.28-3.41a59.57,59.57,0,0,1-3.73-7.14,50.79,50.79,0,0,0,2,7.14,41.72,41.72,0,0,1-40.24-34.81c-.21-1.31-.37-2.61-.46-3.92a43.94,43.94,0,0,1-.07-4.44,37.44,37.44,0,0,0-.87,4.08,41.89,41.89,0,0,1-23.73-54.45c.29-.74.61-1.48,1-2.21a40.91,40.91,0,0,1,3.42-6,35.46,35.46,0,0,0-3.91,3.63c-13.36-66-2.72-126.63,29.43-162.5C56.82,165,53.88,235.13,79.61,297a37.68,37.68,0,0,0,24.49,61.31,37.68,37.68,0,0,0,43.64,38.88A50.3,50.3,0,0,0,226.1,414.5,24.79,24.79,0,0,0,251,417.66a24.22,24.22,0,0,0,2.5-1.24A24.31,24.31,0,0,0,282,414.21a50.72,50.72,0,0,0,68.8,12.37,66.83,66.83,0,0,0,85.82-46.87,33,33,0,0,0,33.12-37.85A41.82,41.82,0,0,1,458.9,363.76Z" transform="translate(-12.66 -19.82)" fill="#1a171b"/><path d="M307,354.18a18.58,18.58,0,0,0-.45-5.7c0,.54,0,1.09-.05,1.65a20.59,20.59,0,0,1-30.66,16.39A18.62,18.62,0,0,0,307,354.18Z" transform="translate(-12.66 -19.82)" fill="#1a171b"/><path d="M385.67,381.7a18.48,18.48,0,0,0,3.6-4.44c-.37.4-.76.79-1.17,1.16a20.58,20.58,0,0,1-33.49-9.31,18.61,18.61,0,0,0,31.06,12.59Z" transform="translate(-12.66 -19.82)" fill="#1a171b"/><path d="M177.77,355.35a18.66,18.66,0,0,0,3.38-4.61c-.36.41-.73.82-1.12,1.22a20.57,20.57,0,0,1-33.91-7.62,18.62,18.62,0,0,0,31.65,11Z" transform="translate(-12.66 -19.82)" fill="#1a171b"/></g><path d="M180.05,223.35a24.39,24.39,0,0,0,6.57,3.5c-.6-.39-1.19-.79-1.78-1.22a26.78,26.78,0,0,1-5.37-37.48,23.83,23.83,0,0,1,1.55-1.88,23.55,23.55,0,0,1,1.72-1.74,26.67,26.67,0,0,1,5.64-4,24.7,24.7,0,0,0-5.64,2.28,41.65,41.65,0,0,1,52.81-39.05,37.68,37.68,0,0,0-55.19,39.44l.18,1a24.24,24.24,0,0,0-.49,39.15Z" transform="translate(-12.66 -19.82)" fill="#fff" opacity="0.6"/><path d="M355.24,540.28c77.64-6,140,2.39,140.55,9.31s-62,17.36-139.66,23.33-213.69,10.77-214.22,3.85S277.57,546.24,355.24,540.28Z" transform="translate(-12.66 -19.82)" fill="#1a171b" opacity="0.1"/><path d="M64.66,449.84c-27.49-9.6-40.27-25.86-52-46.84C23.93,430.15,43.53,447.43,64.66,449.84Z" transform="translate(-12.66 -19.82)" fill="#1a171b" fill-rule="evenodd" opacity="0.1"/><path d="M71.7,432c-20-7-29.36-18.85-37.91-34.16C42,417.63,56.3,430.24,71.7,432Z" transform="translate(-12.66 -19.82)" fill="#1a171b" fill-rule="evenodd" opacity="0.1"/><path d="M548.17,441c-26.47-12.14-37.66-29.53-47.36-51.52C509.47,417.59,527.36,436.64,548.17,441Z" transform="translate(-12.66 -19.82)" fill="#1a171b" fill-rule="evenodd" opacity="0.1"/><path d="M556.86,423.92c-19.29-8.85-27.46-21.53-34.53-37.57C528.65,406.83,541.69,420.72,556.86,423.92Z" transform="translate(-12.66 -19.82)" fill="#1a171b" fill-rule="evenodd" opacity="0.1"/></g></svg>