<svg xmlns="http://www.w3.org/2000/svg" viewBox="0 0 1309.89 241"><path d="M1276.6,240.7c-6.8-4.5-14.3-7.7-21.4-11.7-4.6-2.6-9.5-4.9-13.5-8.2-6.8-5.6-5.4-16.6,1.7-21.4,10.2-6.8,27.1-3,28.9,10.9a.56.56,0,0,0,.6.5h15.4a.56.56,0,0,0,.6-.7c-.8-9.6-4.5-17.6-11.3-22.7a35.77,35.77,0,0,0-21.8-7.5c-40.7,0-44.4,43.1-22.5,56.7,2.5,1.6,24,12.4,31.6,17.1s10,13.3,6.7,20.1c-3,6.2-10.8,10.5-18.6,10-8.5-.5-15.1-5.1-17.4-12.3a21.83,21.83,0,0,1-.6-4.9.65.65,0,0,0-.6-.6h-16.7a.65.65,0,0,0-.6.6c0,12.1,3,18.8,11.2,24.9a40.14,40.14,0,0,0,24.8,8.2c22.8,0,34.6-12.9,37-26.3C1292.2,260.3,1288.3,248.5,1276.6,240.7Z" transform="translate(-119.5 -119.5)" fill="#161616"/><path d="M551.5,182.1H536a.68.68,0,0,0-.6.4l-13.7,45.2a.63.63,0,0,1-1.2,0l-13.7-45.2a.55.55,0,0,0-.6-.4H480.7a.65.65,0,0,0-.6.6V298.1a.65.65,0,0,0,.6.6h16.7a.65.65,0,0,0,.6-.6V210.4a.62.62,0,0,1,1.2-.2L513,255.7l1,3.2a.55.55,0,0,0,.6.4h12.8a.68.68,0,0,0,.6-.4l1-3.2,13.8-45.5a.61.61,0,0,1,1.2.2v87.7a.65.65,0,0,0,.6.6h16.7a.65.65,0,0,0,.6-.6V182.7a.65.65,0,0,0-.6-.6Z" transform="translate(-119.5 -119.5)" fill="#161616"/><path d="M1020.9,182.1a.68.68,0,0,0-.6.4l-13.7,45.2a.63.63,0,0,1-1.2,0l-13.7-45.2a.55.55,0,0,0-.6-.4H965.7a.65.65,0,0,0-.6.6V298.1a.65.65,0,0,0,.6.6h16.7a.65.65,0,0,0,.6-.6V210.4a.62.62,0,0,1,1.2-.2L998,255.7l1,3.2a.55.55,0,0,0,.6.4h12.8a.68.68,0,0,0,.6-.4l1-3.2,13.8-45.5a.61.61,0,0,1,1.2.2v87.7a.65.65,0,0,0,.6.6h16.7a.65.65,0,0,0,.6-.6V182.7a.65.65,0,0,0-.6-.6Z" transform="translate(-119.5 -119.5)" fill="#161616"/><path d="M805.5,182.1H726.6a.65.65,0,0,0-.6.6v14.4a.65.65,0,0,0,.6.6h30.5V298.1a.65.65,0,0,0,.6.6h16.7a.65.65,0,0,0,.6-.6V197.7h30.5a.65.65,0,0,0,.6-.6V182.7A.58.58,0,0,0,805.5,182.1Z" transform="translate(-119.5 -119.5)" fill="#161616"/><path d="M904,298.7h15.2a.64.64,0,0,0,.6-.8L888.4,182.1a.55.55,0,0,0-.6-.4H866a.68.68,0,0,0-.6.4L834,297.9a.64.64,0,0,0,.6.8h15.2a.68.68,0,0,0,.6-.4l9.1-33.7a.55.55,0,0,1,.6-.4h33.6a.68.68,0,0,1,.6.4l9.1,33.7A.82.82,0,0,0,904,298.7Zm-39.9-51,12.2-45.1a.63.63,0,0,1,1.2,0l12.2,45.1a.64.64,0,0,1-.6.8H864.7A.64.64,0,0,1,864.1,247.7Z" transform="translate(-119.5 -119.5)" fill="#161616"/><path d="M1163.2,298.7h15.2a.64.64,0,0,0,.6-.8l-31.4-115.8a.55.55,0,0,0-.6-.4h-21.8a.68.68,0,0,0-.6.4l-31.4,115.8a.64.64,0,0,0,.6.8H1109a.68.68,0,0,0,.6-.4l9.1-33.7a.55.55,0,0,1,.6-.4h33.6a.68.68,0,0,1,.6.4l9.1,33.7A.68.68,0,0,0,1163.2,298.7Zm-39.9-51,12.2-45.1a.63.63,0,0,1,1.2,0l12.2,45.1a.64.64,0,0,1-.6.8h-24.4A.64.64,0,0,1,1123.3,247.7Z" transform="translate(-119.5 -119.5)" fill="#161616"/><path d="M629.7,281.6V245.8a.65.65,0,0,1,.6-.6h44.5a.65.65,0,0,0,.6-.6V230.2a.65.65,0,0,0-.6-.6H630.3a.65.65,0,0,1-.6-.6V198.4a.65.65,0,0,1,.6-.6h50.6a.65.65,0,0,0,.6-.6V182.8a.65.65,0,0,0-.6-.6H612.4a.65.65,0,0,0-.6.6V298.1a.65.65,0,0,0,.6.6H683a.65.65,0,0,0,.6-.6V282.9a.65.65,0,0,0-.6-.6H630.2A.67.67,0,0,1,629.7,281.6Z" transform="translate(-119.5 -119.5)" fill="#161616"/><path d="M1429.2,297.7,1371.4,238a.61.61,0,0,1,0-.8l52-54a.58.58,0,0,0-.4-1h-21.3a.52.52,0,0,0-.4.2l-44.1,45.8a.58.58,0,0,1-1-.4v-45a.65.65,0,0,0-.6-.6h-16.7a.65.65,0,0,0-.6.6V298.2a.65.65,0,0,0,.6.6h16.7a.65.65,0,0,0,.6-.6V247.4c0-.5.7-.8,1-.4l50,51.6a.76.76,0,0,0,.4.2h21.3C1429.3,298.7,1429.6,298,1429.2,297.7Z" transform="translate(-119.5 -119.5)" fill="#161616"/><polygon points="246.5 0.5 145.4 75.5 164.2 31.3 246.5 0.5" fill="#e17726" stroke="#e17726" stroke-linecap="round" stroke-linejoin="round"/><polygon points="13.3 0.5 113.5 76.2 95.6 31.3 13.3 0.5" fill="#e27625" stroke="#e27625" stroke-linecap="round" stroke-linejoin="round"/><polygon points="210.1 174.4 183.2 215.6 240.8 231.5 257.3 175.3 210.1 174.4" fill="#e27625" stroke="#e27625" stroke-linecap="round" stroke-linejoin="round"/><polygon points="2.6 175.3 19 231.5 76.5 215.6 49.7 174.4 2.6 175.3" fill="#e27625" stroke="#e27625" stroke-linecap="round" stroke-linejoin="round"/><polygon points="73.4 104.8 57.4 129 114.4 131.6 112.5 70.1 73.4 104.8" fill="#e27625" stroke="#e27625" stroke-linecap="round" stroke-linejoin="round"/><polygon points="186.4 104.8 146.7 69.4 145.4 131.6 202.4 129 186.4 104.8" fill="#e27625" stroke="#e27625" stroke-linecap="round" stroke-linejoin="round"/><polygon points="76.5 215.6 111 198.9 81.3 175.7 76.5 215.6" fill="#e27625" stroke="#e27625" stroke-linecap="round" stroke-linejoin="round"/><polygon points="148.8 198.9 183.2 215.6 178.5 175.7 148.8 198.9" fill="#e27625" stroke="#e27625" stroke-linecap="round" stroke-linejoin="round"/><polygon points="183.2 215.6 148.8 198.9 151.6 221.3 151.3 230.8 183.2 215.6" fill="#d5bfb2" stroke="#d5bfb2" stroke-linecap="round" stroke-linejoin="round"/><polygon points="76.5 215.6 108.5 230.8 108.3 221.3 111 198.9 76.5 215.6" fill="#d5bfb2" stroke="#d5bfb2" stroke-linecap="round" stroke-linejoin="round"/><polygon points="109.1 160.9 80.5 152.5 100.7 143.2 109.1 160.9" fill="#233447" stroke="#233447" stroke-linecap="round" stroke-linejoin="round"/><polygon points="150.7 160.9 159.1 143.2 179.4 152.5 150.7 160.9" fill="#233447" stroke="#233447" stroke-linecap="round" stroke-linejoin="round"/><polygon points="76.5 215.6 81.5 174.4 49.7 175.3 76.5 215.6" fill="#cc6228" stroke="#cc6228" stroke-linecap="round" stroke-linejoin="round"/><polygon points="178.3 174.4 183.2 215.6 210.1 175.3 178.3 174.4" fill="#cc6228" stroke="#cc6228" stroke-linecap="round" stroke-linejoin="round"/><polygon points="202.4 129 145.4 131.6 150.7 160.9 159.1 143.2 179.4 152.5 202.4 129" fill="#cc6228" stroke="#cc6228" stroke-linecap="round" stroke-linejoin="round"/><polygon points="80.5 152.5 100.7 143.2 109.1 160.9 114.4 131.6 57.4 129 80.5 152.5" fill="#cc6228" stroke="#cc6228" stroke-linecap="round" stroke-linejoin="round"/><polygon points="57.4 129 81.3 175.7 80.5 152.5 57.4 129" fill="#e27525" stroke="#e27525" stroke-linecap="round" stroke-linejoin="round"/><polygon points="179.4 152.5 178.5 175.7 202.4 129 179.4 152.5" fill="#e27525" stroke="#e27525" stroke-linecap="round" stroke-linejoin="round"/><polygon points="114.4 131.6 109.1 160.9 115.8 195.5 117.3 149.9 114.4 131.6" fill="#e27525" stroke="#e27525" stroke-linecap="round" stroke-linejoin="round"/><polygon points="145.4 131.6 142.6 149.8 144 195.5 150.7 160.9 145.4 131.6" fill="#e27525" stroke="#e27525" stroke-linecap="round" stroke-linejoin="round"/><polygon points="150.7 160.9 144 195.5 148.8 198.9 178.5 175.7 179.4 152.5 150.7 160.9" fill="#f5841f" stroke="#f5841f" stroke-linecap="round" stroke-linejoin="round"/><polygon points="80.5 152.5 81.3 175.7 111 198.9 115.8 195.5 109.1 160.9 80.5 152.5" fill="#f5841f" stroke="#f5841f" stroke-linecap="round" stroke-linejoin="round"/><polygon points="151.3 230.8 151.6 221.3 149 219.1 110.8 219.1 108.3 221.3 108.5 230.8 76.5 215.6 87.7 224.8 110.4 240.5 149.3 240.5 172.1 224.8 183.2 215.6 151.3 230.8" fill="#c0ac9d" stroke="#c0ac9d" stroke-linecap="round" stroke-linejoin="round"/><polygon points="148.8 198.9 144 195.5 115.8 195.5 111 198.9 108.3 221.3 110.8 219.1 149 219.1 151.6 221.3 148.8 198.9" fill="#161616" stroke="#161616" stroke-linecap="round" stroke-linejoin="round"/><polygon points="250.8 80.4 259.3 39 246.5 0.5 148.8 73 186.4 104.8 239.5 120.3 251.2 106.6 246.1 102.9 254.2 95.5 248 90.7 256.1 84.5 250.8 80.4" fill="#763e1a" stroke="#763e1a" stroke-linecap="round" stroke-linejoin="round"/><polygon points="0.5 39 9.1 80.4 3.6 84.5 11.8 90.7 5.6 95.5 13.7 102.9 8.6 106.6 20.3 120.3 73.4 104.8 111 73 13.3 0.5 0.5 39" fill="#763e1a" stroke="#763e1a" stroke-linecap="round" stroke-linejoin="round"/><polygon points="239.5 120.3 186.4 104.8 202.4 129 178.5 175.7 210.1 175.3 257.3 175.3 239.5 120.3" fill="#f5841f" stroke="#f5841f" stroke-linecap="round" stroke-linejoin="round"/><polygon points="73.4 104.8 20.3 120.3 2.6 175.3 49.7 175.3 81.3 175.7 57.4 129 73.4 104.8" fill="#f5841f" stroke="#f5841f" stroke-linecap="round" stroke-linejoin="round"/><polygon points="145.4 131.6 148.8 73 164.2 31.3 95.6 31.3 111 73 114.4 131.6 115.7 150 115.8 195.5 144 195.5 144.1 150 145.4 131.6" fill="#f5841f" stroke="#f5841f" stroke-linecap="round" stroke-linejoin="round"/></svg>